<svg width="367" height="257" viewBox="0 0 367 257" fill="none" xmlns="http://www.w3.org/2000/svg">
<path d="M96.375 214C96.1917 214 96.0417 213.942 95.925 213.825C95.8083 213.708 95.75 213.558 95.75 213.375V197.125C95.75 196.942 95.8083 196.792 95.925 196.675C96.0417 196.558 96.1917 196.5 96.375 196.5H102.875C104.508 196.5 105.9 196.767 107.05 197.3C108.2 197.817 109.083 198.583 109.7 199.6C110.317 200.6 110.65 201.842 110.7 203.325C110.717 204.058 110.725 204.7 110.725 205.25C110.725 205.8 110.717 206.433 110.7 207.15C110.633 208.7 110.3 209.983 109.7 211C109.117 212.017 108.258 212.775 107.125 213.275C106.008 213.758 104.633 214 103 214H96.375ZM100.225 210.4H102.875C103.592 210.4 104.183 210.292 104.65 210.075C105.133 209.842 105.492 209.483 105.725 209C105.975 208.517 106.108 207.883 106.125 207.1C106.158 206.617 106.175 206.183 106.175 205.8C106.192 205.417 106.192 205.033 106.175 204.65C106.175 204.267 106.158 203.842 106.125 203.375C106.092 202.242 105.792 201.417 105.225 200.9C104.675 200.367 103.85 200.1 102.75 200.1H100.225V210.4ZM113.996 214C113.812 214 113.662 213.942 113.546 213.825C113.429 213.708 113.371 213.558 113.371 213.375V201.625C113.371 201.442 113.429 201.292 113.546 201.175C113.662 201.058 113.812 201 113.996 201H116.946C117.112 201 117.254 201.058 117.371 201.175C117.504 201.292 117.571 201.442 117.571 201.625V213.375C117.571 213.558 117.504 213.708 117.371 213.825C117.254 213.942 117.112 214 116.946 214H113.996ZM113.971 199.125C113.787 199.125 113.637 199.067 113.521 198.95C113.404 198.833 113.346 198.683 113.346 198.5V196.275C113.346 196.092 113.404 195.942 113.521 195.825C113.637 195.692 113.787 195.625 113.971 195.625H116.946C117.129 195.625 117.279 195.692 117.396 195.825C117.529 195.942 117.596 196.092 117.596 196.275V198.5C117.596 198.683 117.529 198.833 117.396 198.95C117.279 199.067 117.129 199.125 116.946 199.125H113.971ZM121.906 214C121.722 214 121.572 213.942 121.456 213.825C121.339 213.708 121.281 213.558 121.281 213.375V201.625C121.281 201.442 121.339 201.292 121.456 201.175C121.572 201.058 121.722 201 121.906 201H124.781C124.964 201 125.114 201.058 125.231 201.175C125.347 201.292 125.406 201.442 125.406 201.625V202.575C125.839 202.058 126.406 201.625 127.106 201.275C127.806 200.925 128.631 200.75 129.581 200.75C130.547 200.75 131.397 200.967 132.131 201.4C132.881 201.833 133.464 202.475 133.881 203.325C134.314 204.158 134.531 205.183 134.531 206.4V213.375C134.531 213.558 134.464 213.708 134.331 213.825C134.214 213.942 134.072 214 133.906 214H130.756C130.589 214 130.439 213.942 130.306 213.825C130.189 213.708 130.131 213.558 130.131 213.375V206.55C130.131 205.767 129.939 205.167 129.556 204.75C129.189 204.317 128.639 204.1 127.906 204.1C127.222 204.1 126.672 204.317 126.256 204.75C125.856 205.167 125.656 205.767 125.656 206.55V213.375C125.656 213.558 125.589 213.708 125.456 213.825C125.339 213.942 125.197 214 125.031 214H121.906ZM146.633 214C146.383 214 146.2 213.942 146.083 213.825C145.967 213.692 145.867 213.542 145.783 213.375L141.058 201.775C141.025 201.708 141.008 201.633 141.008 201.55C141.008 201.4 141.058 201.275 141.158 201.175C141.275 201.058 141.417 201 141.583 201H144.408C144.625 201 144.792 201.058 144.908 201.175C145.025 201.292 145.1 201.408 145.133 201.525L147.958 209.2L150.808 201.525C150.842 201.408 150.917 201.292 151.033 201.175C151.15 201.058 151.317 201 151.533 201H154.358C154.508 201 154.642 201.058 154.758 201.175C154.875 201.275 154.933 201.4 154.933 201.55C154.933 201.633 154.917 201.708 154.883 201.775L150.158 213.375C150.092 213.542 149.992 213.692 149.858 213.825C149.742 213.942 149.55 214 149.283 214H146.633ZM160.215 214.25C159.315 214.25 158.507 214.083 157.79 213.75C157.09 213.4 156.532 212.933 156.115 212.35C155.698 211.767 155.49 211.108 155.49 210.375C155.49 209.192 155.973 208.258 156.94 207.575C157.907 206.875 159.19 206.4 160.79 206.15L163.915 205.675V205.325C163.915 204.725 163.79 204.267 163.54 203.95C163.29 203.633 162.832 203.475 162.165 203.475C161.698 203.475 161.315 203.567 161.015 203.75C160.732 203.933 160.507 204.183 160.34 204.5C160.19 204.717 159.982 204.825 159.715 204.825H156.915C156.732 204.825 156.59 204.775 156.49 204.675C156.39 204.558 156.348 204.425 156.365 204.275C156.365 203.975 156.473 203.633 156.69 203.25C156.923 202.85 157.273 202.458 157.74 202.075C158.207 201.692 158.807 201.375 159.54 201.125C160.273 200.875 161.157 200.75 162.19 200.75C163.273 200.75 164.198 200.875 164.965 201.125C165.732 201.375 166.348 201.725 166.815 202.175C167.298 202.625 167.657 203.158 167.89 203.775C168.123 204.375 168.24 205.042 168.24 205.775V213.375C168.24 213.558 168.173 213.708 168.04 213.825C167.923 213.942 167.782 214 167.615 214H164.715C164.532 214 164.382 213.942 164.265 213.825C164.148 213.708 164.09 213.558 164.09 213.375V212.5C163.873 212.817 163.582 213.108 163.215 213.375C162.848 213.642 162.415 213.85 161.915 214C161.432 214.167 160.865 214.25 160.215 214.25ZM161.39 211.4C161.873 211.4 162.307 211.3 162.69 211.1C163.09 210.883 163.398 210.558 163.615 210.125C163.848 209.675 163.965 209.117 163.965 208.45V208.1L161.84 208.475C161.057 208.608 160.482 208.817 160.115 209.1C159.765 209.367 159.59 209.683 159.59 210.05C159.59 210.333 159.673 210.575 159.84 210.775C160.007 210.975 160.223 211.133 160.49 211.25C160.757 211.35 161.057 211.4 161.39 211.4ZM171.686 214C171.503 214 171.353 213.942 171.236 213.825C171.119 213.708 171.061 213.558 171.061 213.375V201.625C171.061 201.442 171.119 201.292 171.236 201.175C171.353 201.058 171.503 201 171.686 201H174.561C174.744 201 174.894 201.058 175.011 201.175C175.128 201.292 175.186 201.442 175.186 201.625V202.575C175.619 202.058 176.186 201.625 176.886 201.275C177.586 200.925 178.411 200.75 179.361 200.75C180.328 200.75 181.178 200.967 181.911 201.4C182.661 201.833 183.244 202.475 183.661 203.325C184.094 204.158 184.311 205.183 184.311 206.4V213.375C184.311 213.558 184.244 213.708 184.111 213.825C183.994 213.942 183.853 214 183.686 214H180.536C180.369 214 180.219 213.942 180.086 213.825C179.969 213.708 179.911 213.558 179.911 213.375V206.55C179.911 205.767 179.719 205.167 179.336 204.75C178.969 204.317 178.419 204.1 177.686 204.1C177.003 204.1 176.453 204.317 176.036 204.75C175.636 205.167 175.436 205.767 175.436 206.55V213.375C175.436 213.558 175.369 213.708 175.236 213.825C175.119 213.942 174.978 214 174.811 214H171.686ZM191.951 214.25C191.151 214.25 190.426 214.125 189.776 213.875C189.143 213.608 188.593 213.225 188.126 212.725C187.676 212.208 187.326 211.592 187.076 210.875C186.826 210.142 186.684 209.308 186.651 208.375C186.634 208.042 186.626 207.75 186.626 207.5C186.626 207.233 186.634 206.942 186.651 206.625C186.684 205.725 186.826 204.917 187.076 204.2C187.326 203.483 187.676 202.867 188.126 202.35C188.576 201.833 189.126 201.442 189.776 201.175C190.426 200.892 191.151 200.75 191.951 200.75C192.784 200.75 193.501 200.892 194.101 201.175C194.701 201.442 195.209 201.792 195.626 202.225V196.875C195.626 196.692 195.684 196.542 195.801 196.425C195.918 196.308 196.068 196.25 196.251 196.25H199.301C199.468 196.25 199.609 196.308 199.726 196.425C199.859 196.542 199.926 196.692 199.926 196.875V213.375C199.926 213.558 199.859 213.708 199.726 213.825C199.609 213.942 199.468 214 199.301 214H196.476C196.293 214 196.143 213.942 196.026 213.825C195.909 213.708 195.851 213.558 195.851 213.375V212.575C195.451 213.058 194.934 213.458 194.301 213.775C193.668 214.092 192.884 214.25 191.951 214.25ZM193.301 210.9C193.868 210.9 194.309 210.783 194.626 210.55C194.959 210.3 195.201 209.983 195.351 209.6C195.518 209.217 195.609 208.8 195.626 208.35C195.643 208.017 195.651 207.7 195.651 207.4C195.651 207.1 195.643 206.792 195.626 206.475C195.609 206.058 195.518 205.675 195.351 205.325C195.184 204.958 194.934 204.667 194.601 204.45C194.268 204.217 193.834 204.1 193.301 204.1C192.751 204.1 192.309 204.217 191.976 204.45C191.659 204.683 191.434 205 191.301 205.4C191.168 205.8 191.084 206.242 191.051 206.725C191.001 207.242 191.001 207.758 191.051 208.275C191.084 208.758 191.168 209.2 191.301 209.6C191.434 210 191.659 210.317 191.976 210.55C192.309 210.783 192.751 210.9 193.301 210.9ZM204.972 214C204.806 214 204.656 213.942 204.522 213.825C204.406 213.708 204.347 213.558 204.347 213.375V204.275H202.447C202.264 204.275 202.114 204.217 201.997 204.1C201.881 203.983 201.822 203.833 201.822 203.65V201.625C201.822 201.442 201.881 201.292 201.997 201.175C202.114 201.058 202.264 201 202.447 201H204.347V200.2C204.347 199.067 204.564 198.158 204.997 197.475C205.447 196.775 206.081 196.275 206.897 195.975C207.714 195.658 208.689 195.5 209.822 195.5H211.447C211.631 195.5 211.781 195.558 211.897 195.675C212.014 195.792 212.072 195.942 212.072 196.125V198.15C212.072 198.333 212.014 198.483 211.897 198.6C211.781 198.717 211.631 198.775 211.447 198.775H210.022C209.456 198.775 209.056 198.908 208.822 199.175C208.606 199.442 208.497 199.825 208.497 200.325V201H213.422V196.125C213.422 195.942 213.481 195.792 213.597 195.675C213.731 195.558 213.881 195.5 214.047 195.5H216.947C217.131 195.5 217.281 195.558 217.397 195.675C217.514 195.792 217.572 195.942 217.572 196.125V213.375C217.572 213.558 217.514 213.708 217.397 213.825C217.281 213.942 217.131 214 216.947 214H214.047C213.881 214 213.731 213.942 213.597 213.825C213.481 213.708 213.422 213.558 213.422 213.375V204.275H208.497V213.375C208.497 213.558 208.439 213.708 208.322 213.825C208.206 213.942 208.056 214 207.872 214H204.972ZM224.424 214.25C223.524 214.25 222.715 214.083 221.999 213.75C221.299 213.4 220.74 212.933 220.324 212.35C219.907 211.767 219.699 211.108 219.699 210.375C219.699 209.192 220.182 208.258 221.149 207.575C222.115 206.875 223.399 206.4 224.999 206.15L228.124 205.675V205.325C228.124 204.725 227.999 204.267 227.749 203.95C227.499 203.633 227.04 203.475 226.374 203.475C225.907 203.475 225.524 203.567 225.224 203.75C224.94 203.933 224.715 204.183 224.549 204.5C224.399 204.717 224.19 204.825 223.924 204.825H221.124C220.94 204.825 220.799 204.775 220.699 204.675C220.599 204.558 220.557 204.425 220.574 204.275C220.574 203.975 220.682 203.633 220.899 203.25C221.132 202.85 221.482 202.458 221.949 202.075C222.415 201.692 223.015 201.375 223.749 201.125C224.482 200.875 225.365 200.75 226.399 200.75C227.482 200.75 228.407 200.875 229.174 201.125C229.94 201.375 230.557 201.725 231.024 202.175C231.507 202.625 231.865 203.158 232.099 203.775C232.332 204.375 232.449 205.042 232.449 205.775V213.375C232.449 213.558 232.382 213.708 232.249 213.825C232.132 213.942 231.99 214 231.824 214H228.924C228.74 214 228.59 213.942 228.474 213.825C228.357 213.708 228.299 213.558 228.299 213.375V212.5C228.082 212.817 227.79 213.108 227.424 213.375C227.057 213.642 226.624 213.85 226.124 214C225.64 214.167 225.074 214.25 224.424 214.25ZM225.599 211.4C226.082 211.4 226.515 211.3 226.899 211.1C227.299 210.883 227.607 210.558 227.824 210.125C228.057 209.675 228.174 209.117 228.174 208.45V208.1L226.049 208.475C225.265 208.608 224.69 208.817 224.324 209.1C223.974 209.367 223.799 209.683 223.799 210.05C223.799 210.333 223.882 210.575 224.049 210.775C224.215 210.975 224.432 211.133 224.699 211.25C224.965 211.35 225.265 211.4 225.599 211.4ZM240.62 214.25C239.537 214.25 238.612 214.133 237.845 213.9C237.095 213.65 236.478 213.35 235.995 213C235.528 212.65 235.178 212.292 234.945 211.925C234.712 211.542 234.587 211.217 234.57 210.95C234.553 210.767 234.612 210.617 234.745 210.5C234.878 210.367 235.02 210.3 235.17 210.3H238.02C238.07 210.3 238.112 210.308 238.145 210.325C238.178 210.342 238.228 210.375 238.295 210.425C238.512 210.542 238.728 210.692 238.945 210.875C239.162 211.042 239.412 211.192 239.695 211.325C239.978 211.458 240.32 211.525 240.72 211.525C241.187 211.525 241.578 211.433 241.895 211.25C242.212 211.067 242.37 210.792 242.37 210.425C242.37 210.158 242.295 209.942 242.145 209.775C241.995 209.592 241.687 209.417 241.22 209.25C240.77 209.083 240.087 208.917 239.17 208.75C238.303 208.55 237.545 208.292 236.895 207.975C236.245 207.642 235.745 207.217 235.395 206.7C235.045 206.167 234.87 205.525 234.87 204.775C234.87 204.108 235.087 203.467 235.52 202.85C235.953 202.233 236.587 201.733 237.42 201.35C238.253 200.95 239.278 200.75 240.495 200.75C241.462 200.75 242.295 200.867 242.995 201.1C243.712 201.317 244.312 201.6 244.795 201.95C245.295 202.3 245.67 202.658 245.92 203.025C246.17 203.392 246.303 203.725 246.32 204.025C246.337 204.192 246.287 204.342 246.17 204.475C246.053 204.592 245.92 204.65 245.77 204.65H243.17C243.103 204.65 243.037 204.642 242.97 204.625C242.903 204.592 242.845 204.558 242.795 204.525C242.595 204.425 242.395 204.292 242.195 204.125C241.995 203.958 241.762 203.808 241.495 203.675C241.228 203.542 240.895 203.475 240.495 203.475C240.045 203.475 239.695 203.575 239.445 203.775C239.195 203.975 239.07 204.233 239.07 204.55C239.07 204.767 239.137 204.967 239.27 205.15C239.42 205.333 239.712 205.5 240.145 205.65C240.595 205.8 241.287 205.967 242.22 206.15C243.37 206.333 244.287 206.633 244.97 207.05C245.653 207.45 246.137 207.925 246.42 208.475C246.703 209.008 246.845 209.575 246.845 210.175C246.845 210.975 246.603 211.683 246.12 212.3C245.653 212.917 244.953 213.4 244.02 213.75C243.087 214.083 241.953 214.25 240.62 214.25ZM249.713 214C249.53 214 249.38 213.942 249.263 213.825C249.147 213.708 249.088 213.558 249.088 213.375V196.875C249.088 196.692 249.147 196.542 249.263 196.425C249.38 196.308 249.53 196.25 249.713 196.25H252.613C252.78 196.25 252.922 196.308 253.038 196.425C253.172 196.542 253.238 196.692 253.238 196.875V205.25L256.713 201.425C256.813 201.308 256.922 201.208 257.038 201.125C257.155 201.042 257.322 201 257.538 201H260.888C261.038 201 261.163 201.058 261.263 201.175C261.38 201.275 261.438 201.4 261.438 201.55C261.438 201.617 261.422 201.692 261.388 201.775C261.355 201.858 261.305 201.925 261.238 201.975L256.738 206.825L261.863 213.05C261.997 213.183 262.063 213.317 262.063 213.45C262.063 213.6 262.005 213.733 261.888 213.85C261.788 213.95 261.655 214 261.488 214H258.063C257.813 214 257.63 213.958 257.513 213.875C257.397 213.775 257.288 213.675 257.188 213.575L253.238 208.825V213.375C253.238 213.558 253.172 213.708 253.038 213.825C252.922 213.942 252.78 214 252.613 214H249.713ZM269.102 214.25C267.135 214.25 265.569 213.717 264.402 212.65C263.235 211.583 262.627 210 262.577 207.9C262.577 207.783 262.577 207.633 262.577 207.45C262.577 207.267 262.577 207.125 262.577 207.025C262.627 205.708 262.919 204.583 263.452 203.65C264.002 202.7 264.752 201.983 265.702 201.5C266.669 201 267.794 200.75 269.077 200.75C270.544 200.75 271.752 201.042 272.702 201.625C273.669 202.208 274.394 203 274.877 204C275.36 205 275.602 206.142 275.602 207.425V208.025C275.602 208.208 275.535 208.358 275.402 208.475C275.285 208.592 275.144 208.65 274.977 208.65H266.977C266.977 208.667 266.977 208.692 266.977 208.725C266.977 208.758 266.977 208.792 266.977 208.825C266.994 209.308 267.077 209.75 267.227 210.15C267.377 210.55 267.61 210.867 267.927 211.1C268.244 211.333 268.627 211.45 269.077 211.45C269.41 211.45 269.685 211.4 269.902 211.3C270.135 211.183 270.327 211.058 270.477 210.925C270.627 210.775 270.744 210.65 270.827 210.55C270.977 210.383 271.094 210.283 271.177 210.25C271.277 210.2 271.427 210.175 271.627 210.175H274.727C274.894 210.175 275.027 210.225 275.127 210.325C275.244 210.408 275.294 210.533 275.277 210.7C275.26 210.983 275.119 211.325 274.852 211.725C274.585 212.125 274.194 212.525 273.677 212.925C273.177 213.308 272.544 213.625 271.777 213.875C271.01 214.125 270.119 214.25 269.102 214.25ZM266.977 206.175H271.202V206.125C271.202 205.592 271.119 205.125 270.952 204.725C270.802 204.325 270.56 204.017 270.227 203.8C269.91 203.583 269.527 203.475 269.077 203.475C268.627 203.475 268.244 203.583 267.927 203.8C267.627 204.017 267.394 204.325 267.227 204.725C267.06 205.125 266.977 205.592 266.977 206.125V206.175Z" fill="white"/>
<path d="M2.2 244C2.05333 244 1.94 243.96 1.86 243.88C1.78 243.787 1.74 243.673 1.74 243.54V230.48C1.74 230.333 1.78 230.22 1.86 230.14C1.94 230.047 2.05333 230 2.2 230H7.68C8.68 230 9.49333 230.167 10.12 230.5C10.76 230.82 11.2267 231.26 11.52 231.82C11.8267 232.38 11.98 233.007 11.98 233.7C11.98 234.247 11.8867 234.72 11.7 235.12C11.5267 235.507 11.3067 235.827 11.04 236.08C10.7733 236.32 10.5133 236.507 10.26 236.64C10.78 236.893 11.24 237.307 11.64 237.88C12.0533 238.453 12.26 239.147 12.26 239.96C12.26 240.693 12.0933 241.367 11.76 241.98C11.4267 242.593 10.9267 243.087 10.26 243.46C9.60667 243.82 8.79333 244 7.82 244H2.2ZM3.7 242.38H7.56C8.42667 242.38 9.09333 242.147 9.56 241.68C10.0267 241.213 10.26 240.64 10.26 239.96C10.26 239.253 10.0267 238.673 9.56 238.22C9.09333 237.753 8.42667 237.52 7.56 237.52H3.7V242.38ZM3.7 235.92H7.38C8.23333 235.92 8.88 235.727 9.32 235.34C9.76 234.94 9.98 234.4 9.98 233.72C9.98 233.04 9.76 232.52 9.32 232.16C8.88 231.8 8.23333 231.62 7.38 231.62H3.7V235.92ZM15.2994 244C15.166 244 15.0527 243.96 14.9594 243.88C14.8794 243.787 14.8394 243.673 14.8394 243.54V234.08C14.8394 233.947 14.8794 233.833 14.9594 233.74C15.0527 233.647 15.166 233.6 15.2994 233.6H16.2194C16.3527 233.6 16.466 233.647 16.5594 233.74C16.6527 233.833 16.6994 233.947 16.6994 234.08V234.96C16.966 234.507 17.3327 234.167 17.7994 233.94C18.266 233.713 18.826 233.6 19.4794 233.6H20.2794C20.4127 233.6 20.5194 233.647 20.5994 233.74C20.6794 233.82 20.7194 233.927 20.7194 234.06V234.88C20.7194 235.013 20.6794 235.12 20.5994 235.2C20.5194 235.28 20.4127 235.32 20.2794 235.32H19.0794C18.3594 235.32 17.7927 235.533 17.3794 235.96C16.966 236.373 16.7594 236.94 16.7594 237.66V243.54C16.7594 243.673 16.7127 243.787 16.6194 243.88C16.526 243.96 16.4127 244 16.2794 244H15.2994ZM26.317 244.2C25.4637 244.2 24.737 244.013 24.137 243.64C23.5504 243.253 23.1037 242.72 22.797 242.04C22.4904 241.36 22.337 240.58 22.337 239.7V234.06C22.337 233.927 22.377 233.82 22.457 233.74C22.5504 233.647 22.6637 233.6 22.797 233.6H23.797C23.9304 233.6 24.037 233.647 24.117 233.74C24.2104 233.82 24.257 233.927 24.257 234.06V239.6C24.257 241.587 25.1237 242.58 26.857 242.58C27.6837 242.58 28.3437 242.32 28.837 241.8C29.3437 241.267 29.597 240.533 29.597 239.6V234.06C29.597 233.927 29.637 233.82 29.717 233.74C29.8104 233.647 29.9237 233.6 30.057 233.6H31.037C31.1837 233.6 31.297 233.647 31.377 233.74C31.457 233.82 31.497 233.927 31.497 234.06V243.54C31.497 243.673 31.457 243.787 31.377 243.88C31.297 243.96 31.1837 244 31.037 244H30.117C29.9837 244 29.8704 243.96 29.777 243.88C29.697 243.787 29.657 243.673 29.657 243.54V242.66C29.297 243.127 28.857 243.5 28.337 243.78C27.8304 244.06 27.157 244.2 26.317 244.2ZM38.7283 248.4C37.8216 248.4 37.0749 248.28 36.4883 248.04C35.9149 247.8 35.4616 247.507 35.1283 247.16C34.8083 246.827 34.5749 246.487 34.4283 246.14C34.2949 245.807 34.2216 245.54 34.2083 245.34C34.1949 245.207 34.2349 245.093 34.3283 245C34.4349 244.907 34.5483 244.86 34.6683 244.86H35.6283C35.7483 244.86 35.8483 244.887 35.9283 244.94C36.0083 244.993 36.0749 245.107 36.1283 245.28C36.2083 245.48 36.3283 245.7 36.4883 245.94C36.6483 246.193 36.8949 246.407 37.2283 246.58C37.5616 246.767 38.0283 246.86 38.6283 246.86C39.2549 246.86 39.7816 246.773 40.2083 246.6C40.6349 246.44 40.9549 246.147 41.1683 245.72C41.3949 245.307 41.5083 244.733 41.5083 244V242.64C41.1883 243.053 40.7683 243.4 40.2483 243.68C39.7283 243.947 39.0749 244.08 38.2883 244.08C37.5416 244.08 36.9016 243.953 36.3683 243.7C35.8349 243.433 35.3949 243.08 35.0483 242.64C34.7149 242.187 34.4616 241.673 34.2883 241.1C34.1283 240.527 34.0349 239.927 34.0083 239.3C33.9949 238.927 33.9949 238.56 34.0083 238.2C34.0349 237.573 34.1283 236.973 34.2883 236.4C34.4616 235.827 34.7149 235.313 35.0483 234.86C35.3949 234.407 35.8349 234.053 36.3683 233.8C36.9016 233.533 37.5416 233.4 38.2883 233.4C39.0883 233.4 39.7483 233.553 40.2683 233.86C40.8016 234.153 41.2349 234.513 41.5683 234.94V234.08C41.5683 233.947 41.6083 233.833 41.6883 233.74C41.7816 233.647 41.8949 233.6 42.0283 233.6H42.9483C43.0816 233.6 43.1949 233.647 43.2883 233.74C43.3816 233.833 43.4283 233.947 43.4283 234.08V243.78C43.4283 244.673 43.2749 245.467 42.9683 246.16C42.6749 246.853 42.1816 247.4 41.4883 247.8C40.8083 248.2 39.8883 248.4 38.7283 248.4ZM38.6883 242.48C39.3549 242.48 39.8883 242.327 40.2883 242.02C40.7016 241.713 41.0016 241.327 41.1883 240.86C41.3883 240.393 41.4949 239.92 41.5083 239.44C41.5216 239.253 41.5283 239.027 41.5283 238.76C41.5283 238.48 41.5216 238.247 41.5083 238.06C41.4949 237.58 41.3883 237.107 41.1883 236.64C41.0016 236.173 40.7016 235.787 40.2883 235.48C39.8883 235.173 39.3549 235.02 38.6883 235.02C38.0216 235.02 37.4883 235.173 37.0883 235.48C36.6883 235.773 36.4016 236.167 36.2283 236.66C36.0549 237.14 35.9549 237.66 35.9283 238.22C35.9149 238.567 35.9149 238.92 35.9283 239.28C35.9549 239.84 36.0549 240.367 36.2283 240.86C36.4016 241.34 36.6883 241.733 37.0883 242.04C37.4883 242.333 38.0216 242.48 38.6883 242.48ZM55.4442 244.2C54.0709 244.2 52.9776 243.78 52.1642 242.94C51.3509 242.087 50.9042 240.927 50.8242 239.46C50.8109 239.287 50.8042 239.067 50.8042 238.8C50.8042 238.52 50.8109 238.293 50.8242 238.12C50.8776 237.173 51.0976 236.347 51.4842 235.64C51.8709 234.92 52.3976 234.367 53.0642 233.98C53.7442 233.593 54.5376 233.4 55.4442 233.4C56.4576 233.4 57.3042 233.613 57.9842 234.04C58.6776 234.467 59.2042 235.073 59.5642 235.86C59.9242 236.647 60.1042 237.567 60.1042 238.62V238.96C60.1042 239.107 60.0576 239.22 59.9642 239.3C59.8842 239.38 59.7776 239.42 59.6442 239.42H52.7242C52.7242 239.433 52.7242 239.46 52.7242 239.5C52.7242 239.54 52.7242 239.573 52.7242 239.6C52.7509 240.147 52.8709 240.66 53.0842 241.14C53.2976 241.607 53.6042 241.987 54.0042 242.28C54.4042 242.573 54.8842 242.72 55.4442 242.72C55.9242 242.72 56.3242 242.647 56.6442 242.5C56.9642 242.353 57.2242 242.193 57.4242 242.02C57.6242 241.833 57.7576 241.693 57.8242 241.6C57.9442 241.427 58.0376 241.327 58.1042 241.3C58.1709 241.26 58.2776 241.24 58.4242 241.24H59.3842C59.5176 241.24 59.6242 241.28 59.7042 241.36C59.7976 241.427 59.8376 241.527 59.8242 241.66C59.8109 241.86 59.7042 242.107 59.5042 242.4C59.3042 242.68 59.0176 242.96 58.6442 243.24C58.2709 243.52 57.8176 243.753 57.2842 243.94C56.7509 244.113 56.1376 244.2 55.4442 244.2ZM52.7242 238.04H58.2042V237.98C58.2042 237.38 58.0909 236.847 57.8642 236.38C57.6509 235.913 57.3376 235.547 56.9242 235.28C56.5109 235 56.0176 234.86 55.4442 234.86C54.8709 234.86 54.3776 235 53.9642 235.28C53.5642 235.547 53.2576 235.913 53.0442 236.38C52.8309 236.847 52.7242 237.38 52.7242 237.98V238.04ZM62.9556 244C62.8223 244 62.709 243.96 62.6156 243.88C62.5356 243.787 62.4956 243.673 62.4956 243.54V234.06C62.4956 233.927 62.5356 233.82 62.6156 233.74C62.709 233.647 62.8223 233.6 62.9556 233.6H63.8956C64.029 233.6 64.1356 233.647 64.2156 233.74C64.309 233.82 64.3556 233.927 64.3556 234.06V234.94C64.7023 234.487 65.1356 234.12 65.6556 233.84C66.189 233.547 66.869 233.4 67.6956 233.4C68.5623 233.4 69.2956 233.593 69.8956 233.98C70.509 234.353 70.969 234.88 71.2756 235.56C71.5823 236.227 71.7356 237.007 71.7356 237.9V243.54C71.7356 243.673 71.6956 243.787 71.6156 243.88C71.5356 243.96 71.429 244 71.2956 244H70.2956C70.1623 244 70.049 243.96 69.9556 243.88C69.8756 243.787 69.8356 243.673 69.8356 243.54V238C69.8356 237.067 69.609 236.34 69.1556 235.82C68.7023 235.287 68.0356 235.02 67.1556 235.02C66.329 235.02 65.6623 235.287 65.1556 235.82C64.6623 236.34 64.4156 237.067 64.4156 238V243.54C64.4156 243.673 64.369 243.787 64.2756 243.88C64.1956 243.96 64.089 244 63.9556 244H62.9556ZM83.3269 244.2C82.5935 244.2 81.9602 244.073 81.4269 243.82C80.8935 243.553 80.4535 243.2 80.1069 242.76C79.7735 242.307 79.5202 241.793 79.3469 241.22C79.1869 240.647 79.0935 240.04 79.0669 239.4C79.0535 239.187 79.0469 238.987 79.0469 238.8C79.0469 238.613 79.0535 238.413 79.0669 238.2C79.0935 237.573 79.1869 236.973 79.3469 236.4C79.5202 235.827 79.7735 235.313 80.1069 234.86C80.4535 234.407 80.8935 234.053 81.4269 233.8C81.9602 233.533 82.5935 233.4 83.3269 233.4C84.1135 233.4 84.7669 233.54 85.2869 233.82C85.8069 234.1 86.2335 234.447 86.5669 234.86V230.26C86.5669 230.127 86.6069 230.02 86.6869 229.94C86.7802 229.847 86.8935 229.8 87.0269 229.8H87.9869C88.1202 229.8 88.2269 229.847 88.3069 229.94C88.4002 230.02 88.4469 230.127 88.4469 230.26V243.54C88.4469 243.673 88.4002 243.787 88.3069 243.88C88.2269 243.96 88.1202 244 87.9869 244H87.0869C86.9402 244 86.8269 243.96 86.7469 243.88C86.6669 243.787 86.6269 243.673 86.6269 243.54V242.7C86.2935 243.127 85.8602 243.487 85.3269 243.78C84.7935 244.06 84.1269 244.2 83.3269 244.2ZM83.7469 242.58C84.4135 242.58 84.9469 242.427 85.3469 242.12C85.7469 241.813 86.0469 241.427 86.2469 240.96C86.4469 240.48 86.5535 239.993 86.5669 239.5C86.5802 239.287 86.5869 239.033 86.5869 238.74C86.5869 238.433 86.5802 238.173 86.5669 237.96C86.5535 237.493 86.4402 237.033 86.2269 236.58C86.0269 236.127 85.7202 235.753 85.3069 235.46C84.9069 235.167 84.3869 235.02 83.7469 235.02C83.0669 235.02 82.5269 235.173 82.1269 235.48C81.7269 235.773 81.4402 236.167 81.2669 236.66C81.0935 237.14 80.9935 237.66 80.9669 238.22C80.9535 238.607 80.9535 238.993 80.9669 239.38C80.9935 239.94 81.0935 240.467 81.2669 240.96C81.4402 241.44 81.7269 241.833 82.1269 242.14C82.5269 242.433 83.0669 242.58 83.7469 242.58ZM91.8814 244C91.7481 244 91.6347 243.96 91.5414 243.88C91.4614 243.787 91.4214 243.673 91.4214 243.54V234.08C91.4214 233.947 91.4614 233.833 91.5414 233.74C91.6347 233.647 91.7481 233.6 91.8814 233.6H92.8014C92.9347 233.6 93.0481 233.647 93.1414 233.74C93.2347 233.833 93.2814 233.947 93.2814 234.08V234.96C93.5481 234.507 93.9147 234.167 94.3814 233.94C94.8481 233.713 95.4081 233.6 96.0614 233.6H96.8614C96.9947 233.6 97.1014 233.647 97.1814 233.74C97.2614 233.82 97.3014 233.927 97.3014 234.06V234.88C97.3014 235.013 97.2614 235.12 97.1814 235.2C97.1014 235.28 96.9947 235.32 96.8614 235.32H95.6614C94.9414 235.32 94.3747 235.533 93.9614 235.96C93.5481 236.373 93.3414 236.94 93.3414 237.66V243.54C93.3414 243.673 93.2947 243.787 93.2014 243.88C93.1081 243.96 92.9947 244 92.8614 244H91.8814ZM99.4791 244C99.3457 244 99.2324 243.96 99.1391 243.88C99.0591 243.787 99.0191 243.673 99.0191 243.54V234.06C99.0191 233.927 99.0591 233.82 99.1391 233.74C99.2324 233.647 99.3457 233.6 99.4791 233.6H100.439C100.572 233.6 100.679 233.647 100.759 233.74C100.839 233.82 100.879 233.927 100.879 234.06V243.54C100.879 243.673 100.839 243.787 100.759 243.88C100.679 243.96 100.572 244 100.439 244H99.4791ZM99.3191 231.66C99.1857 231.66 99.0724 231.62 98.9791 231.54C98.8991 231.447 98.8591 231.333 98.8591 231.2V230.12C98.8591 229.987 98.8991 229.88 98.9791 229.8C99.0724 229.707 99.1857 229.66 99.3191 229.66H100.579C100.712 229.66 100.819 229.707 100.899 229.8C100.992 229.88 101.039 229.987 101.039 230.12V231.2C101.039 231.333 100.992 231.447 100.899 231.54C100.819 231.62 100.712 231.66 100.579 231.66H99.3191ZM104.343 244C104.209 244 104.096 243.96 104.003 243.88C103.923 243.787 103.883 243.673 103.883 243.54V230.26C103.883 230.127 103.923 230.02 104.003 229.94C104.096 229.847 104.209 229.8 104.343 229.8H105.283C105.416 229.8 105.523 229.847 105.603 229.94C105.696 230.02 105.743 230.127 105.743 230.26V237.22L109.683 233.94C109.843 233.807 109.963 233.72 110.043 233.68C110.136 233.627 110.283 233.6 110.483 233.6H111.543C111.663 233.6 111.763 233.64 111.843 233.72C111.923 233.8 111.963 233.9 111.963 234.02C111.963 234.073 111.943 234.133 111.903 234.2C111.876 234.267 111.816 234.333 111.723 234.4L107.103 238.24L112.223 243.22C112.383 243.353 112.463 243.473 112.463 243.58C112.463 243.7 112.423 243.8 112.343 243.88C112.263 243.96 112.163 244 112.043 244H111.003C110.803 244 110.656 243.98 110.563 243.94C110.469 243.887 110.349 243.793 110.203 243.66L105.743 239.4V243.54C105.743 243.673 105.696 243.787 105.603 243.88C105.523 243.96 105.416 244 105.283 244H104.343ZM114.655 244C114.522 244 114.409 243.96 114.315 243.88C114.235 243.787 114.195 243.673 114.195 243.54V230.26C114.195 230.127 114.235 230.02 114.315 229.94C114.409 229.847 114.522 229.8 114.655 229.8H115.595C115.729 229.8 115.835 229.847 115.915 229.94C116.009 230.02 116.055 230.127 116.055 230.26V237.22L119.995 233.94C120.155 233.807 120.275 233.72 120.355 233.68C120.449 233.627 120.595 233.6 120.795 233.6H121.855C121.975 233.6 122.075 233.64 122.155 233.72C122.235 233.8 122.275 233.9 122.275 234.02C122.275 234.073 122.255 234.133 122.215 234.2C122.189 234.267 122.129 234.333 122.035 234.4L117.415 238.24L122.535 243.22C122.695 243.353 122.775 243.473 122.775 243.58C122.775 243.7 122.735 243.8 122.655 243.88C122.575 243.96 122.475 244 122.355 244H121.315C121.115 244 120.969 243.98 120.875 243.94C120.782 243.887 120.662 243.793 120.515 243.66L116.055 239.4V243.54C116.055 243.673 116.009 243.787 115.915 243.88C115.835 243.96 115.729 244 115.595 244H114.655ZM128.14 244.2C126.766 244.2 125.673 243.78 124.86 242.94C124.046 242.087 123.6 240.927 123.52 239.46C123.506 239.287 123.5 239.067 123.5 238.8C123.5 238.52 123.506 238.293 123.52 238.12C123.573 237.173 123.793 236.347 124.18 235.64C124.566 234.92 125.093 234.367 125.76 233.98C126.44 233.593 127.233 233.4 128.14 233.4C129.153 233.4 130 233.613 130.68 234.04C131.373 234.467 131.9 235.073 132.26 235.86C132.62 236.647 132.8 237.567 132.8 238.62V238.96C132.8 239.107 132.753 239.22 132.66 239.3C132.58 239.38 132.473 239.42 132.34 239.42H125.42C125.42 239.433 125.42 239.46 125.42 239.5C125.42 239.54 125.42 239.573 125.42 239.6C125.446 240.147 125.566 240.66 125.78 241.14C125.993 241.607 126.3 241.987 126.7 242.28C127.1 242.573 127.58 242.72 128.14 242.72C128.62 242.72 129.02 242.647 129.34 242.5C129.66 242.353 129.92 242.193 130.12 242.02C130.32 241.833 130.453 241.693 130.52 241.6C130.64 241.427 130.733 241.327 130.8 241.3C130.866 241.26 130.973 241.24 131.12 241.24H132.08C132.213 241.24 132.32 241.28 132.4 241.36C132.493 241.427 132.533 241.527 132.52 241.66C132.506 241.86 132.4 242.107 132.2 242.4C132 242.68 131.713 242.96 131.34 243.24C130.966 243.52 130.513 243.753 129.98 243.94C129.446 244.113 128.833 244.2 128.14 244.2ZM125.42 238.04H130.9V237.98C130.9 237.38 130.786 236.847 130.56 236.38C130.346 235.913 130.033 235.547 129.62 235.28C129.206 235 128.713 234.86 128.14 234.86C127.566 234.86 127.073 235 126.66 235.28C126.26 235.547 125.953 235.913 125.74 236.38C125.526 236.847 125.42 237.38 125.42 237.98V238.04ZM138.991 244.2C138.258 244.2 137.624 244.073 137.091 243.82C136.558 243.553 136.118 243.2 135.771 242.76C135.438 242.307 135.184 241.793 135.011 241.22C134.851 240.647 134.758 240.04 134.731 239.4C134.718 239.187 134.711 238.987 134.711 238.8C134.711 238.613 134.718 238.413 134.731 238.2C134.758 237.573 134.851 236.973 135.011 236.4C135.184 235.827 135.438 235.313 135.771 234.86C136.118 234.407 136.558 234.053 137.091 233.8C137.624 233.533 138.258 233.4 138.991 233.4C139.778 233.4 140.431 233.54 140.951 233.82C141.471 234.1 141.898 234.447 142.231 234.86V230.26C142.231 230.127 142.271 230.02 142.351 229.94C142.444 229.847 142.558 229.8 142.691 229.8H143.651C143.784 229.8 143.891 229.847 143.971 229.94C144.064 230.02 144.111 230.127 144.111 230.26V243.54C144.111 243.673 144.064 243.787 143.971 243.88C143.891 243.96 143.784 244 143.651 244H142.751C142.604 244 142.491 243.96 142.411 243.88C142.331 243.787 142.291 243.673 142.291 243.54V242.7C141.958 243.127 141.524 243.487 140.991 243.78C140.458 244.06 139.791 244.2 138.991 244.2ZM139.411 242.58C140.078 242.58 140.611 242.427 141.011 242.12C141.411 241.813 141.711 241.427 141.911 240.96C142.111 240.48 142.218 239.993 142.231 239.5C142.244 239.287 142.251 239.033 142.251 238.74C142.251 238.433 142.244 238.173 142.231 237.96C142.218 237.493 142.104 237.033 141.891 236.58C141.691 236.127 141.384 235.753 140.971 235.46C140.571 235.167 140.051 235.02 139.411 235.02C138.731 235.02 138.191 235.173 137.791 235.48C137.391 235.773 137.104 236.167 136.931 236.66C136.758 237.14 136.658 237.66 136.631 238.22C136.618 238.607 136.618 238.993 136.631 239.38C136.658 239.94 136.758 240.467 136.931 240.96C137.104 241.44 137.391 241.833 137.791 242.14C138.191 242.433 138.731 242.58 139.411 242.58ZM150.965 244.2C150.112 244.2 149.385 244.013 148.785 243.64C148.199 243.253 147.752 242.72 147.445 242.04C147.139 241.36 146.985 240.58 146.985 239.7V234.06C146.985 233.927 147.025 233.82 147.105 233.74C147.199 233.647 147.312 233.6 147.445 233.6H148.445C148.579 233.6 148.685 233.647 148.765 233.74C148.859 233.82 148.905 233.927 148.905 234.06V239.6C148.905 241.587 149.772 242.58 151.505 242.58C152.332 242.58 152.992 242.32 153.485 241.8C153.992 241.267 154.245 240.533 154.245 239.6V234.06C154.245 233.927 154.285 233.82 154.365 233.74C154.459 233.647 154.572 233.6 154.705 233.6H155.685C155.832 233.6 155.945 233.647 156.025 233.74C156.105 233.82 156.145 233.927 156.145 234.06V243.54C156.145 243.673 156.105 243.787 156.025 243.88C155.945 243.96 155.832 244 155.685 244H154.765C154.632 244 154.519 243.96 154.425 243.88C154.345 243.787 154.305 243.673 154.305 243.54V242.66C153.945 243.127 153.505 243.5 152.985 243.78C152.479 244.06 151.805 244.2 150.965 244.2ZM159.577 244C159.443 244 159.33 243.96 159.237 243.88C159.157 243.787 159.117 243.673 159.117 243.54V234.06C159.117 233.927 159.157 233.82 159.237 233.74C159.33 233.647 159.443 233.6 159.577 233.6H160.517C160.65 233.6 160.757 233.647 160.837 233.74C160.93 233.82 160.977 233.927 160.977 234.06V234.94C161.323 234.487 161.757 234.12 162.277 233.84C162.81 233.547 163.49 233.4 164.317 233.4C165.183 233.4 165.917 233.593 166.517 233.98C167.13 234.353 167.59 234.88 167.897 235.56C168.203 236.227 168.357 237.007 168.357 237.9V243.54C168.357 243.673 168.317 243.787 168.237 243.88C168.157 243.96 168.05 244 167.917 244H166.917C166.783 244 166.67 243.96 166.577 243.88C166.497 243.787 166.457 243.673 166.457 243.54V238C166.457 237.067 166.23 236.34 165.777 235.82C165.323 235.287 164.657 235.02 163.777 235.02C162.95 235.02 162.283 235.287 161.777 235.82C161.283 236.34 161.037 237.067 161.037 238V243.54C161.037 243.673 160.99 243.787 160.897 243.88C160.817 243.96 160.71 244 160.577 244H159.577ZM171.726 244C171.592 244 171.479 243.96 171.386 243.88C171.306 243.787 171.266 243.673 171.266 243.54V230.26C171.266 230.127 171.306 230.02 171.386 229.94C171.479 229.847 171.592 229.8 171.726 229.8H172.666C172.799 229.8 172.906 229.847 172.986 229.94C173.079 230.02 173.126 230.127 173.126 230.26V237.22L177.066 233.94C177.226 233.807 177.346 233.72 177.426 233.68C177.519 233.627 177.666 233.6 177.866 233.6H178.926C179.046 233.6 179.146 233.64 179.226 233.72C179.306 233.8 179.346 233.9 179.346 234.02C179.346 234.073 179.326 234.133 179.286 234.2C179.259 234.267 179.199 234.333 179.106 234.4L174.486 238.24L179.606 243.22C179.766 243.353 179.846 243.473 179.846 243.58C179.846 243.7 179.806 243.8 179.726 243.88C179.646 243.96 179.546 244 179.426 244H178.386C178.186 244 178.039 243.98 177.946 243.94C177.852 243.887 177.732 243.793 177.586 243.66L173.126 239.4V243.54C173.126 243.673 173.079 243.787 172.986 243.88C172.906 243.96 172.799 244 172.666 244H171.726ZM190.525 244.2C189.512 244.2 188.665 244.007 187.985 243.62C187.305 243.233 186.785 242.7 186.425 242.02C186.065 241.327 185.865 240.54 185.825 239.66C185.812 239.433 185.805 239.147 185.805 238.8C185.805 238.44 185.812 238.153 185.825 237.94C185.865 237.047 186.065 236.26 186.425 235.58C186.798 234.9 187.325 234.367 188.005 233.98C188.685 233.593 189.525 233.4 190.525 233.4C191.525 233.4 192.365 233.593 193.045 233.98C193.725 234.367 194.245 234.9 194.605 235.58C194.978 236.26 195.185 237.047 195.225 237.94C195.238 238.153 195.245 238.44 195.245 238.8C195.245 239.147 195.238 239.433 195.225 239.66C195.185 240.54 194.985 241.327 194.625 242.02C194.265 242.7 193.745 243.233 193.065 243.62C192.385 244.007 191.538 244.2 190.525 244.2ZM190.525 242.66C191.352 242.66 192.012 242.4 192.505 241.88C192.998 241.347 193.265 240.573 193.305 239.56C193.318 239.36 193.325 239.107 193.325 238.8C193.325 238.493 193.318 238.24 193.305 238.04C193.265 237.027 192.998 236.26 192.505 235.74C192.012 235.207 191.352 234.94 190.525 234.94C189.698 234.94 189.032 235.207 188.525 235.74C188.032 236.26 187.772 237.027 187.745 238.04C187.732 238.24 187.725 238.493 187.725 238.8C187.725 239.107 187.732 239.36 187.745 239.56C187.772 240.573 188.032 241.347 188.525 241.88C189.032 242.4 189.698 242.66 190.525 242.66ZM202.01 248.4C201.103 248.4 200.356 248.28 199.77 248.04C199.196 247.8 198.743 247.507 198.41 247.16C198.09 246.827 197.856 246.487 197.71 246.14C197.576 245.807 197.503 245.54 197.49 245.34C197.476 245.207 197.516 245.093 197.61 245C197.716 244.907 197.83 244.86 197.95 244.86H198.91C199.03 244.86 199.13 244.887 199.21 244.94C199.29 244.993 199.356 245.107 199.41 245.28C199.49 245.48 199.61 245.7 199.77 245.94C199.93 246.193 200.176 246.407 200.51 246.58C200.843 246.767 201.31 246.86 201.91 246.86C202.536 246.86 203.063 246.773 203.49 246.6C203.916 246.44 204.236 246.147 204.45 245.72C204.676 245.307 204.79 244.733 204.79 244V242.64C204.47 243.053 204.05 243.4 203.53 243.68C203.01 243.947 202.356 244.08 201.57 244.08C200.823 244.08 200.183 243.953 199.65 243.7C199.116 243.433 198.676 243.08 198.33 242.64C197.996 242.187 197.743 241.673 197.57 241.1C197.41 240.527 197.316 239.927 197.29 239.3C197.276 238.927 197.276 238.56 197.29 238.2C197.316 237.573 197.41 236.973 197.57 236.4C197.743 235.827 197.996 235.313 198.33 234.86C198.676 234.407 199.116 234.053 199.65 233.8C200.183 233.533 200.823 233.4 201.57 233.4C202.37 233.4 203.03 233.553 203.55 233.86C204.083 234.153 204.516 234.513 204.85 234.94V234.08C204.85 233.947 204.89 233.833 204.97 233.74C205.063 233.647 205.176 233.6 205.31 233.6H206.23C206.363 233.6 206.476 233.647 206.57 233.74C206.663 233.833 206.71 233.947 206.71 234.08V243.78C206.71 244.673 206.556 245.467 206.25 246.16C205.956 246.853 205.463 247.4 204.77 247.8C204.09 248.2 203.17 248.4 202.01 248.4ZM201.97 242.48C202.636 242.48 203.17 242.327 203.57 242.02C203.983 241.713 204.283 241.327 204.47 240.86C204.67 240.393 204.776 239.92 204.79 239.44C204.803 239.253 204.81 239.027 204.81 238.76C204.81 238.48 204.803 238.247 204.79 238.06C204.776 237.58 204.67 237.107 204.47 236.64C204.283 236.173 203.983 235.787 203.57 235.48C203.17 235.173 202.636 235.02 201.97 235.02C201.303 235.02 200.77 235.173 200.37 235.48C199.97 235.773 199.683 236.167 199.51 236.66C199.336 237.14 199.236 237.66 199.21 238.22C199.196 238.567 199.196 238.92 199.21 239.28C199.236 239.84 199.336 240.367 199.51 240.86C199.683 241.34 199.97 241.733 200.37 242.04C200.77 242.333 201.303 242.48 201.97 242.48ZM218.465 244.2C217.612 244.2 216.885 244.013 216.285 243.64C215.699 243.253 215.252 242.72 214.945 242.04C214.639 241.36 214.485 240.58 214.485 239.7V234.06C214.485 233.927 214.525 233.82 214.605 233.74C214.699 233.647 214.812 233.6 214.945 233.6H215.945C216.079 233.6 216.185 233.647 216.265 233.74C216.359 233.82 216.405 233.927 216.405 234.06V239.6C216.405 241.587 217.272 242.58 219.005 242.58C219.832 242.58 220.492 242.32 220.985 241.8C221.492 241.267 221.745 240.533 221.745 239.6V234.06C221.745 233.927 221.785 233.82 221.865 233.74C221.959 233.647 222.072 233.6 222.205 233.6H223.185C223.332 233.6 223.445 233.647 223.525 233.74C223.605 233.82 223.645 233.927 223.645 234.06V243.54C223.645 243.673 223.605 243.787 223.525 243.88C223.445 243.96 223.332 244 223.185 244H222.265C222.132 244 222.019 243.96 221.925 243.88C221.845 243.787 221.805 243.673 221.805 243.54V242.66C221.445 243.127 221.005 243.5 220.485 243.78C219.979 244.06 219.305 244.2 218.465 244.2ZM227.077 244C226.943 244 226.83 243.96 226.737 243.88C226.657 243.787 226.617 243.673 226.617 243.54V234.06C226.617 233.927 226.657 233.82 226.737 233.74C226.83 233.647 226.943 233.6 227.077 233.6H228.017C228.15 233.6 228.257 233.647 228.337 233.74C228.43 233.82 228.477 233.927 228.477 234.06V234.94C228.823 234.487 229.257 234.12 229.777 233.84C230.31 233.547 230.99 233.4 231.817 233.4C232.683 233.4 233.417 233.593 234.017 233.98C234.63 234.353 235.09 234.88 235.397 235.56C235.703 236.227 235.857 237.007 235.857 237.9V243.54C235.857 243.673 235.817 243.787 235.737 243.88C235.657 243.96 235.55 244 235.417 244H234.417C234.283 244 234.17 243.96 234.077 243.88C233.997 243.787 233.957 243.673 233.957 243.54V238C233.957 237.067 233.73 236.34 233.277 235.82C232.823 235.287 232.157 235.02 231.277 235.02C230.45 235.02 229.783 235.287 229.277 235.82C228.783 236.34 228.537 237.067 228.537 238V243.54C228.537 243.673 228.49 243.787 228.397 243.88C228.317 243.96 228.21 244 228.077 244H227.077ZM242.546 244.2C241.812 244.2 241.179 244.073 240.646 243.82C240.112 243.553 239.672 243.2 239.326 242.76C238.992 242.307 238.739 241.793 238.566 241.22C238.406 240.647 238.312 240.04 238.286 239.4C238.272 239.187 238.266 238.987 238.266 238.8C238.266 238.613 238.272 238.413 238.286 238.2C238.312 237.573 238.406 236.973 238.566 236.4C238.739 235.827 238.992 235.313 239.326 234.86C239.672 234.407 240.112 234.053 240.646 233.8C241.179 233.533 241.812 233.4 242.546 233.4C243.332 233.4 243.986 233.54 244.506 233.82C245.026 234.1 245.452 234.447 245.786 234.86V230.26C245.786 230.127 245.826 230.02 245.906 229.94C245.999 229.847 246.112 229.8 246.246 229.8H247.206C247.339 229.8 247.446 229.847 247.526 229.94C247.619 230.02 247.666 230.127 247.666 230.26V243.54C247.666 243.673 247.619 243.787 247.526 243.88C247.446 243.96 247.339 244 247.206 244H246.306C246.159 244 246.046 243.96 245.966 243.88C245.886 243.787 245.846 243.673 245.846 243.54V242.7C245.512 243.127 245.079 243.487 244.546 243.78C244.012 244.06 243.346 244.2 242.546 244.2ZM242.966 242.58C243.632 242.58 244.166 242.427 244.566 242.12C244.966 241.813 245.266 241.427 245.466 240.96C245.666 240.48 245.772 239.993 245.786 239.5C245.799 239.287 245.806 239.033 245.806 238.74C245.806 238.433 245.799 238.173 245.786 237.96C245.772 237.493 245.659 237.033 245.446 236.58C245.246 236.127 244.939 235.753 244.526 235.46C244.126 235.167 243.606 235.02 242.966 235.02C242.286 235.02 241.746 235.173 241.346 235.48C240.946 235.773 240.659 236.167 240.486 236.66C240.312 237.14 240.212 237.66 240.186 238.22C240.172 238.607 240.172 238.993 240.186 239.38C240.212 239.94 240.312 240.467 240.486 240.96C240.659 241.44 240.946 241.833 241.346 242.14C241.746 242.433 242.286 242.58 242.966 242.58ZM254.9 248.4C253.993 248.4 253.247 248.28 252.66 248.04C252.087 247.8 251.633 247.507 251.3 247.16C250.98 246.827 250.747 246.487 250.6 246.14C250.467 245.807 250.393 245.54 250.38 245.34C250.367 245.207 250.407 245.093 250.5 245C250.607 244.907 250.72 244.86 250.84 244.86H251.8C251.92 244.86 252.02 244.887 252.1 244.94C252.18 244.993 252.247 245.107 252.3 245.28C252.38 245.48 252.5 245.7 252.66 245.94C252.82 246.193 253.067 246.407 253.4 246.58C253.733 246.767 254.2 246.86 254.8 246.86C255.427 246.86 255.953 246.773 256.38 246.6C256.807 246.44 257.127 246.147 257.34 245.72C257.567 245.307 257.68 244.733 257.68 244V242.64C257.36 243.053 256.94 243.4 256.42 243.68C255.9 243.947 255.247 244.08 254.46 244.08C253.713 244.08 253.073 243.953 252.54 243.7C252.007 243.433 251.567 243.08 251.22 242.64C250.887 242.187 250.633 241.673 250.46 241.1C250.3 240.527 250.207 239.927 250.18 239.3C250.167 238.927 250.167 238.56 250.18 238.2C250.207 237.573 250.3 236.973 250.46 236.4C250.633 235.827 250.887 235.313 251.22 234.86C251.567 234.407 252.007 234.053 252.54 233.8C253.073 233.533 253.713 233.4 254.46 233.4C255.26 233.4 255.92 233.553 256.44 233.86C256.973 234.153 257.407 234.513 257.74 234.94V234.08C257.74 233.947 257.78 233.833 257.86 233.74C257.953 233.647 258.067 233.6 258.2 233.6H259.12C259.253 233.6 259.367 233.647 259.46 233.74C259.553 233.833 259.6 233.947 259.6 234.08V243.78C259.6 244.673 259.447 245.467 259.14 246.16C258.847 246.853 258.353 247.4 257.66 247.8C256.98 248.2 256.06 248.4 254.9 248.4ZM254.86 242.48C255.527 242.48 256.06 242.327 256.46 242.02C256.873 241.713 257.173 241.327 257.36 240.86C257.56 240.393 257.667 239.92 257.68 239.44C257.693 239.253 257.7 239.027 257.7 238.76C257.7 238.48 257.693 238.247 257.68 238.06C257.667 237.58 257.56 237.107 257.36 236.64C257.173 236.173 256.873 235.787 256.46 235.48C256.06 235.173 255.527 235.02 254.86 235.02C254.193 235.02 253.66 235.173 253.26 235.48C252.86 235.773 252.573 236.167 252.4 236.66C252.227 237.14 252.127 237.66 252.1 238.22C252.087 238.567 252.087 238.92 252.1 239.28C252.127 239.84 252.227 240.367 252.4 240.86C252.573 241.34 252.86 241.733 253.26 242.04C253.66 242.333 254.193 242.48 254.86 242.48ZM265.474 244.2C264.807 244.2 264.2 244.067 263.654 243.8C263.107 243.533 262.667 243.173 262.334 242.72C262 242.267 261.834 241.753 261.834 241.18C261.834 240.26 262.207 239.527 262.954 238.98C263.7 238.433 264.674 238.073 265.874 237.9L268.854 237.48V236.9C268.854 236.26 268.667 235.76 268.294 235.4C267.934 235.04 267.34 234.86 266.514 234.86C265.914 234.86 265.427 234.98 265.054 235.22C264.694 235.46 264.44 235.767 264.294 236.14C264.214 236.34 264.074 236.44 263.874 236.44H262.974C262.827 236.44 262.714 236.4 262.634 236.32C262.567 236.227 262.534 236.12 262.534 236C262.534 235.8 262.607 235.553 262.754 235.26C262.914 234.967 263.154 234.68 263.474 234.4C263.794 234.12 264.2 233.887 264.694 233.7C265.2 233.5 265.814 233.4 266.534 233.4C267.334 233.4 268.007 233.507 268.554 233.72C269.1 233.92 269.527 234.193 269.834 234.54C270.154 234.887 270.38 235.28 270.514 235.72C270.66 236.16 270.734 236.607 270.734 237.06V243.54C270.734 243.673 270.687 243.787 270.594 243.88C270.514 243.96 270.407 244 270.274 244H269.354C269.207 244 269.094 243.96 269.014 243.88C268.934 243.787 268.894 243.673 268.894 243.54V242.68C268.72 242.92 268.487 243.16 268.194 243.4C267.9 243.627 267.534 243.82 267.094 243.98C266.654 244.127 266.114 244.2 265.474 244.2ZM265.894 242.7C266.44 242.7 266.94 242.587 267.394 242.36C267.847 242.12 268.2 241.753 268.454 241.26C268.72 240.767 268.854 240.147 268.854 239.4V238.84L266.534 239.18C265.587 239.313 264.874 239.54 264.394 239.86C263.914 240.167 263.674 240.56 263.674 241.04C263.674 241.413 263.78 241.727 263.994 241.98C264.22 242.22 264.5 242.4 264.834 242.52C265.18 242.64 265.534 242.7 265.894 242.7ZM266.554 232.2C266.1 232.2 265.707 232.053 265.374 231.76C265.04 231.467 264.874 231.087 264.874 230.62C264.874 230.167 265.034 229.793 265.354 229.5C265.687 229.207 266.087 229.06 266.554 229.06C267.007 229.06 267.4 229.207 267.734 229.5C268.067 229.793 268.234 230.167 268.234 230.62C268.234 231.087 268.067 231.467 267.734 231.76C267.414 232.053 267.02 232.2 266.554 232.2ZM266.554 231.22C266.727 231.22 266.867 231.167 266.974 231.06C267.094 230.94 267.154 230.793 267.154 230.62C267.154 230.447 267.094 230.307 266.974 230.2C266.867 230.08 266.727 230.02 266.554 230.02C266.38 230.02 266.234 230.08 266.114 230.2C266.007 230.307 265.954 230.447 265.954 230.62C265.954 230.793 266.007 230.94 266.114 231.06C266.234 231.167 266.38 231.22 266.554 231.22ZM278.991 244C278.858 244 278.745 243.96 278.651 243.88C278.571 243.787 278.531 243.673 278.531 243.54V230.26C278.531 230.127 278.571 230.02 278.651 229.94C278.745 229.847 278.858 229.8 278.991 229.8H279.931C280.065 229.8 280.171 229.847 280.251 229.94C280.345 230.02 280.391 230.127 280.391 230.26V237.22L284.331 233.94C284.491 233.807 284.611 233.72 284.691 233.68C284.785 233.627 284.931 233.6 285.131 233.6H286.191C286.311 233.6 286.411 233.64 286.491 233.72C286.571 233.8 286.611 233.9 286.611 234.02C286.611 234.073 286.591 234.133 286.551 234.2C286.525 234.267 286.465 234.333 286.371 234.4L281.751 238.24L286.871 243.22C287.031 243.353 287.111 243.473 287.111 243.58C287.111 243.7 287.071 243.8 286.991 243.88C286.911 243.96 286.811 244 286.691 244H285.651C285.451 244 285.305 243.98 285.211 243.94C285.118 243.887 284.998 243.793 284.851 243.66L280.391 239.4V243.54C280.391 243.673 280.345 243.787 280.251 243.88C280.171 243.96 280.065 244 279.931 244H278.991ZM292.595 244.2C291.582 244.2 290.735 244.007 290.055 243.62C289.375 243.233 288.855 242.7 288.495 242.02C288.135 241.327 287.935 240.54 287.895 239.66C287.882 239.433 287.875 239.147 287.875 238.8C287.875 238.44 287.882 238.153 287.895 237.94C287.935 237.047 288.135 236.26 288.495 235.58C288.869 234.9 289.395 234.367 290.075 233.98C290.755 233.593 291.595 233.4 292.595 233.4C293.595 233.4 294.435 233.593 295.115 233.98C295.795 234.367 296.315 234.9 296.675 235.58C297.049 236.26 297.255 237.047 297.295 237.94C297.309 238.153 297.315 238.44 297.315 238.8C297.315 239.147 297.309 239.433 297.295 239.66C297.255 240.54 297.055 241.327 296.695 242.02C296.335 242.7 295.815 243.233 295.135 243.62C294.455 244.007 293.609 244.2 292.595 244.2ZM292.595 242.66C293.422 242.66 294.082 242.4 294.575 241.88C295.069 241.347 295.335 240.573 295.375 239.56C295.389 239.36 295.395 239.107 295.395 238.8C295.395 238.493 295.389 238.24 295.375 238.04C295.335 237.027 295.069 236.26 294.575 235.74C294.082 235.207 293.422 234.94 292.595 234.94C291.769 234.94 291.102 235.207 290.595 235.74C290.102 236.26 289.842 237.027 289.815 238.04C289.802 238.24 289.795 238.493 289.795 238.8C289.795 239.107 289.802 239.36 289.815 239.56C289.842 240.573 290.102 241.347 290.595 241.88C291.102 242.4 291.769 242.66 292.595 242.66ZM288.315 244.56C288.209 244.56 288.115 244.52 288.035 244.44C287.955 244.36 287.915 244.267 287.915 244.16C287.915 244.12 287.915 244.08 287.915 244.04C287.929 244 287.955 243.953 287.995 243.9L295.975 233.36C296.015 233.307 296.069 233.247 296.135 233.18C296.202 233.1 296.302 233.06 296.435 233.06H296.855C296.962 233.06 297.055 233.1 297.135 233.18C297.215 233.26 297.255 233.353 297.255 233.46C297.255 233.473 297.249 233.507 297.235 233.56C297.235 233.6 297.215 233.653 297.175 233.72L289.195 244.26C289.155 244.313 289.102 244.373 289.035 244.44C288.982 244.52 288.889 244.56 288.755 244.56H288.315ZM304.96 244.2C304.16 244.2 303.493 244.06 302.96 243.78C302.427 243.487 302 243.127 301.68 242.7V243.54C301.68 243.673 301.633 243.787 301.54 243.88C301.46 243.96 301.353 244 301.22 244H300.3C300.167 244 300.053 243.96 299.96 243.88C299.88 243.787 299.84 243.673 299.84 243.54V230.26C299.84 230.127 299.88 230.02 299.96 229.94C300.053 229.847 300.167 229.8 300.3 229.8H301.26C301.407 229.8 301.52 229.847 301.6 229.94C301.68 230.02 301.72 230.127 301.72 230.26V234.86C302.053 234.447 302.48 234.1 303 233.82C303.533 233.54 304.187 233.4 304.96 233.4C305.707 233.4 306.34 233.533 306.86 233.8C307.393 234.053 307.827 234.407 308.16 234.86C308.507 235.313 308.767 235.827 308.94 236.4C309.113 236.973 309.207 237.573 309.22 238.2C309.233 238.413 309.24 238.613 309.24 238.8C309.24 238.987 309.233 239.187 309.22 239.4C309.207 240.04 309.113 240.647 308.94 241.22C308.767 241.793 308.507 242.307 308.16 242.76C307.827 243.2 307.393 243.553 306.86 243.82C306.34 244.073 305.707 244.2 304.96 244.2ZM304.54 242.58C305.233 242.58 305.773 242.433 306.16 242.14C306.56 241.833 306.847 241.44 307.02 240.96C307.193 240.467 307.293 239.94 307.32 239.38C307.333 238.993 307.333 238.607 307.32 238.22C307.293 237.66 307.193 237.14 307.02 236.66C306.847 236.167 306.56 235.773 306.16 235.48C305.773 235.173 305.233 235.02 304.54 235.02C303.913 235.02 303.393 235.167 302.98 235.46C302.567 235.753 302.253 236.127 302.04 236.58C301.84 237.033 301.733 237.493 301.72 237.96C301.707 238.173 301.7 238.433 301.7 238.74C301.7 239.033 301.707 239.287 301.72 239.5C301.747 239.993 301.853 240.48 302.04 240.96C302.24 241.427 302.54 241.813 302.94 242.12C303.353 242.427 303.887 242.58 304.54 242.58ZM315.854 244.2C314.481 244.2 313.388 243.78 312.574 242.94C311.761 242.087 311.314 240.927 311.234 239.46C311.221 239.287 311.214 239.067 311.214 238.8C311.214 238.52 311.221 238.293 311.234 238.12C311.288 237.173 311.508 236.347 311.894 235.64C312.281 234.92 312.808 234.367 313.474 233.98C314.154 233.593 314.948 233.4 315.854 233.4C316.868 233.4 317.714 233.613 318.394 234.04C319.088 234.467 319.614 235.073 319.974 235.86C320.334 236.647 320.514 237.567 320.514 238.62V238.96C320.514 239.107 320.468 239.22 320.374 239.3C320.294 239.38 320.188 239.42 320.054 239.42H313.134C313.134 239.433 313.134 239.46 313.134 239.5C313.134 239.54 313.134 239.573 313.134 239.6C313.161 240.147 313.281 240.66 313.494 241.14C313.708 241.607 314.014 241.987 314.414 242.28C314.814 242.573 315.294 242.72 315.854 242.72C316.334 242.72 316.734 242.647 317.054 242.5C317.374 242.353 317.634 242.193 317.834 242.02C318.034 241.833 318.168 241.693 318.234 241.6C318.354 241.427 318.448 241.327 318.514 241.3C318.581 241.26 318.688 241.24 318.834 241.24H319.794C319.928 241.24 320.034 241.28 320.114 241.36C320.208 241.427 320.248 241.527 320.234 241.66C320.221 241.86 320.114 242.107 319.914 242.4C319.714 242.68 319.428 242.96 319.054 243.24C318.681 243.52 318.228 243.753 317.694 243.94C317.161 244.113 316.548 244.2 315.854 244.2ZM313.134 238.04H318.614V237.98C318.614 237.38 318.501 236.847 318.274 236.38C318.061 235.913 317.748 235.547 317.334 235.28C316.921 235 316.428 234.86 315.854 234.86C315.281 234.86 314.788 235 314.374 235.28C313.974 235.547 313.668 235.913 313.454 236.38C313.241 236.847 313.134 237.38 313.134 237.98V238.04ZM326.174 244C325.974 244 325.814 243.953 325.694 243.86C325.588 243.767 325.501 243.647 325.434 243.5L321.734 234.22C321.708 234.153 321.694 234.087 321.694 234.02C321.694 233.9 321.734 233.8 321.814 233.72C321.894 233.64 321.994 233.6 322.114 233.6H323.074C323.221 233.6 323.334 233.64 323.414 233.72C323.494 233.8 323.541 233.873 323.554 233.94L326.614 241.82L329.654 233.94C329.681 233.873 329.728 233.8 329.794 233.72C329.874 233.64 329.988 233.6 330.134 233.6H331.114C331.221 233.6 331.314 233.64 331.394 233.72C331.488 233.8 331.534 233.9 331.534 234.02C331.534 234.087 331.521 234.153 331.494 234.22L327.774 243.5C327.721 243.647 327.634 243.767 327.514 243.86C327.408 243.953 327.248 244 327.034 244H326.174ZM336.138 244.2C335.471 244.2 334.864 244.067 334.318 243.8C333.771 243.533 333.331 243.173 332.998 242.72C332.664 242.267 332.498 241.753 332.498 241.18C332.498 240.26 332.871 239.527 333.618 238.98C334.364 238.433 335.338 238.073 336.538 237.9L339.518 237.48V236.9C339.518 236.26 339.331 235.76 338.958 235.4C338.598 235.04 338.004 234.86 337.178 234.86C336.578 234.86 336.091 234.98 335.718 235.22C335.358 235.46 335.104 235.767 334.958 236.14C334.878 236.34 334.738 236.44 334.538 236.44H333.638C333.491 236.44 333.378 236.4 333.298 236.32C333.231 236.227 333.198 236.12 333.198 236C333.198 235.8 333.271 235.553 333.418 235.26C333.578 234.967 333.818 234.68 334.138 234.4C334.458 234.12 334.864 233.887 335.358 233.7C335.864 233.5 336.478 233.4 337.198 233.4C337.998 233.4 338.671 233.507 339.218 233.72C339.764 233.92 340.191 234.193 340.498 234.54C340.818 234.887 341.044 235.28 341.178 235.72C341.324 236.16 341.398 236.607 341.398 237.06V243.54C341.398 243.673 341.351 243.787 341.258 243.88C341.178 243.96 341.071 244 340.938 244H340.018C339.871 244 339.758 243.96 339.678 243.88C339.598 243.787 339.558 243.673 339.558 243.54V242.68C339.384 242.92 339.151 243.16 338.858 243.4C338.564 243.627 338.198 243.82 337.758 243.98C337.318 244.127 336.778 244.2 336.138 244.2ZM336.558 242.7C337.104 242.7 337.604 242.587 338.058 242.36C338.511 242.12 338.864 241.753 339.118 241.26C339.384 240.767 339.518 240.147 339.518 239.4V238.84L337.198 239.18C336.251 239.313 335.538 239.54 335.058 239.86C334.578 240.167 334.338 240.56 334.338 241.04C334.338 241.413 334.444 241.727 334.658 241.98C334.884 242.22 335.164 242.4 335.498 242.52C335.844 242.64 336.198 242.7 336.558 242.7ZM344.733 244C344.6 244 344.486 243.96 344.393 243.88C344.313 243.787 344.273 243.673 344.273 243.54V234.06C344.273 233.927 344.313 233.82 344.393 233.74C344.486 233.647 344.6 233.6 344.733 233.6H345.673C345.806 233.6 345.913 233.647 345.993 233.74C346.086 233.82 346.133 233.927 346.133 234.06V234.94C346.48 234.487 346.913 234.12 347.433 233.84C347.966 233.547 348.646 233.4 349.473 233.4C350.34 233.4 351.073 233.593 351.673 233.98C352.286 234.353 352.746 234.88 353.053 235.56C353.36 236.227 353.513 237.007 353.513 237.9V243.54C353.513 243.673 353.473 243.787 353.393 243.88C353.313 243.96 353.206 244 353.073 244H352.073C351.94 244 351.826 243.96 351.733 243.88C351.653 243.787 351.613 243.673 351.613 243.54V238C351.613 237.067 351.386 236.34 350.933 235.82C350.48 235.287 349.813 235.02 348.933 235.02C348.106 235.02 347.44 235.287 346.933 235.82C346.44 236.34 346.193 237.067 346.193 238V243.54C346.193 243.673 346.146 243.787 346.053 243.88C345.973 243.96 345.866 244 345.733 244H344.733ZM360.202 244.2C359.469 244.2 358.835 244.073 358.302 243.82C357.769 243.553 357.329 243.2 356.982 242.76C356.649 242.307 356.395 241.793 356.222 241.22C356.062 240.647 355.969 240.04 355.942 239.4C355.929 239.187 355.922 238.987 355.922 238.8C355.922 238.613 355.929 238.413 355.942 238.2C355.969 237.573 356.062 236.973 356.222 236.4C356.395 235.827 356.649 235.313 356.982 234.86C357.329 234.407 357.769 234.053 358.302 233.8C358.835 233.533 359.469 233.4 360.202 233.4C360.989 233.4 361.642 233.54 362.162 233.82C362.682 234.1 363.109 234.447 363.442 234.86V230.26C363.442 230.127 363.482 230.02 363.562 229.94C363.655 229.847 363.769 229.8 363.902 229.8H364.862C364.995 229.8 365.102 229.847 365.182 229.94C365.275 230.02 365.322 230.127 365.322 230.26V243.54C365.322 243.673 365.275 243.787 365.182 243.88C365.102 243.96 364.995 244 364.862 244H363.962C363.815 244 363.702 243.96 363.622 243.88C363.542 243.787 363.502 243.673 363.502 243.54V242.7C363.169 243.127 362.735 243.487 362.202 243.78C361.669 244.06 361.002 244.2 360.202 244.2ZM360.622 242.58C361.289 242.58 361.822 242.427 362.222 242.12C362.622 241.813 362.922 241.427 363.122 240.96C363.322 240.48 363.429 239.993 363.442 239.5C363.455 239.287 363.462 239.033 363.462 238.74C363.462 238.433 363.455 238.173 363.442 237.96C363.429 237.493 363.315 237.033 363.102 236.58C362.902 236.127 362.595 235.753 362.182 235.46C361.782 235.167 361.262 235.02 360.622 235.02C359.942 235.02 359.402 235.173 359.002 235.48C358.602 235.773 358.315 236.167 358.142 236.66C357.969 237.14 357.869 237.66 357.842 238.22C357.829 238.607 357.829 238.993 357.842 239.38C357.869 239.94 357.969 240.467 358.142 240.96C358.315 241.44 358.602 241.833 359.002 242.14C359.402 242.433 359.942 242.58 360.622 242.58Z" fill="white"/>
<circle cx="183.5" cy="92.5" r="92.5" fill="white"/>
<path d="M193.678 33V40.8004H173.335V33H193.678ZM190.813 45.4782C195.085 49.7887 202 57.4907 202 63.937V74.0763H165V63.937C165 57.4907 171.902 49.7887 176.2 45.4782H190.813ZM202 78.7562V82.9169H165V78.7562H202ZM202 87.5968V91.7555H165V87.5968H202ZM202 96.4353V100.594H165V96.4353H202ZM202 105.274V149.524C190.787 152.825 176.226 152.825 165 149.524V105.274H202Z" fill="black"/>
</svg>
