<svg width="387" height="254" viewBox="0 0 387 254" fill="none" xmlns="http://www.w3.org/2000/svg">
<path d="M145.375 214C145.192 214 145.042 213.942 144.925 213.825C144.808 213.708 144.75 213.558 144.75 213.375V197.125C144.75 196.942 144.808 196.792 144.925 196.675C145.042 196.558 145.192 196.5 145.375 196.5H151.875C153.508 196.5 154.9 196.767 156.05 197.3C157.2 197.817 158.083 198.583 158.7 199.6C159.317 200.6 159.65 201.842 159.7 203.325C159.717 204.058 159.725 204.7 159.725 205.25C159.725 205.8 159.717 206.433 159.7 207.15C159.633 208.7 159.3 209.983 158.7 211C158.117 212.017 157.258 212.775 156.125 213.275C155.008 213.758 153.633 214 152 214H145.375ZM149.225 210.4H151.875C152.592 210.4 153.183 210.292 153.65 210.075C154.133 209.842 154.492 209.483 154.725 209C154.975 208.517 155.108 207.883 155.125 207.1C155.158 206.617 155.175 206.183 155.175 205.8C155.192 205.417 155.192 205.033 155.175 204.65C155.175 204.267 155.158 203.842 155.125 203.375C155.092 202.242 154.792 201.417 154.225 200.9C153.675 200.367 152.85 200.1 151.75 200.1H149.225V210.4ZM162.996 214C162.812 214 162.662 213.942 162.546 213.825C162.429 213.708 162.371 213.558 162.371 213.375V201.625C162.371 201.442 162.429 201.292 162.546 201.175C162.662 201.058 162.812 201 162.996 201H165.946C166.112 201 166.254 201.058 166.371 201.175C166.504 201.292 166.571 201.442 166.571 201.625V213.375C166.571 213.558 166.504 213.708 166.371 213.825C166.254 213.942 166.112 214 165.946 214H162.996ZM162.971 199.125C162.787 199.125 162.637 199.067 162.521 198.95C162.404 198.833 162.346 198.683 162.346 198.5V196.275C162.346 196.092 162.404 195.942 162.521 195.825C162.637 195.692 162.787 195.625 162.971 195.625H165.946C166.129 195.625 166.279 195.692 166.396 195.825C166.529 195.942 166.596 196.092 166.596 196.275V198.5C166.596 198.683 166.529 198.833 166.396 198.95C166.279 199.067 166.129 199.125 165.946 199.125H162.971ZM170.906 214C170.722 214 170.572 213.942 170.456 213.825C170.339 213.708 170.281 213.558 170.281 213.375V201.625C170.281 201.442 170.339 201.292 170.456 201.175C170.572 201.058 170.722 201 170.906 201H173.781C173.964 201 174.114 201.058 174.231 201.175C174.347 201.292 174.406 201.442 174.406 201.625V202.575C174.839 202.058 175.406 201.625 176.106 201.275C176.806 200.925 177.631 200.75 178.581 200.75C179.547 200.75 180.397 200.967 181.131 201.4C181.881 201.833 182.464 202.475 182.881 203.325C183.314 204.158 183.531 205.183 183.531 206.4V213.375C183.531 213.558 183.464 213.708 183.331 213.825C183.214 213.942 183.072 214 182.906 214H179.756C179.589 214 179.439 213.942 179.306 213.825C179.189 213.708 179.131 213.558 179.131 213.375V206.55C179.131 205.767 178.939 205.167 178.556 204.75C178.189 204.317 177.639 204.1 176.906 204.1C176.222 204.1 175.672 204.317 175.256 204.75C174.856 205.167 174.656 205.767 174.656 206.55V213.375C174.656 213.558 174.589 213.708 174.456 213.825C174.339 213.942 174.197 214 174.031 214H170.906ZM193.328 214C193.161 214 193.011 213.942 192.878 213.825C192.761 213.708 192.703 213.558 192.703 213.375V204.275H190.803C190.62 204.275 190.47 204.217 190.353 204.1C190.236 203.983 190.178 203.833 190.178 203.65V201.625C190.178 201.442 190.236 201.292 190.353 201.175C190.47 201.058 190.62 201 190.803 201H192.703V200.2C192.703 199.067 192.92 198.158 193.353 197.475C193.803 196.775 194.436 196.275 195.253 195.975C196.07 195.658 197.045 195.5 198.178 195.5H200.128C200.295 195.5 200.436 195.558 200.553 195.675C200.686 195.792 200.753 195.942 200.753 196.125V198.15C200.753 198.333 200.686 198.483 200.553 198.6C200.436 198.717 200.295 198.775 200.128 198.775H198.378C197.811 198.775 197.411 198.908 197.178 199.175C196.961 199.442 196.853 199.825 196.853 200.325V201H199.878C200.045 201 200.186 201.058 200.303 201.175C200.436 201.292 200.503 201.442 200.503 201.625V203.65C200.503 203.833 200.436 203.983 200.303 204.1C200.186 204.217 200.045 204.275 199.878 204.275H196.853V213.375C196.853 213.558 196.795 213.708 196.678 213.825C196.561 213.942 196.411 214 196.228 214H193.328ZM208.117 214.25C206.15 214.25 204.583 213.717 203.417 212.65C202.25 211.583 201.642 210 201.592 207.9C201.592 207.783 201.592 207.633 201.592 207.45C201.592 207.267 201.592 207.125 201.592 207.025C201.642 205.708 201.933 204.583 202.467 203.65C203.017 202.7 203.767 201.983 204.717 201.5C205.683 201 206.808 200.75 208.092 200.75C209.558 200.75 210.767 201.042 211.717 201.625C212.683 202.208 213.408 203 213.892 204C214.375 205 214.617 206.142 214.617 207.425V208.025C214.617 208.208 214.55 208.358 214.417 208.475C214.3 208.592 214.158 208.65 213.992 208.65H205.992C205.992 208.667 205.992 208.692 205.992 208.725C205.992 208.758 205.992 208.792 205.992 208.825C206.008 209.308 206.092 209.75 206.242 210.15C206.392 210.55 206.625 210.867 206.942 211.1C207.258 211.333 207.642 211.45 208.092 211.45C208.425 211.45 208.7 211.4 208.917 211.3C209.15 211.183 209.342 211.058 209.492 210.925C209.642 210.775 209.758 210.65 209.842 210.55C209.992 210.383 210.108 210.283 210.192 210.25C210.292 210.2 210.442 210.175 210.642 210.175H213.742C213.908 210.175 214.042 210.225 214.142 210.325C214.258 210.408 214.308 210.533 214.292 210.7C214.275 210.983 214.133 211.325 213.867 211.725C213.6 212.125 213.208 212.525 212.692 212.925C212.192 213.308 211.558 213.625 210.792 213.875C210.025 214.125 209.133 214.25 208.117 214.25ZM205.992 206.175H210.217V206.125C210.217 205.592 210.133 205.125 209.967 204.725C209.817 204.325 209.575 204.017 209.242 203.8C208.925 203.583 208.542 203.475 208.092 203.475C207.642 203.475 207.258 203.583 206.942 203.8C206.642 204.017 206.408 204.325 206.242 204.725C206.075 205.125 205.992 205.592 205.992 206.125V206.175ZM222.31 214.25C221.227 214.25 220.302 214.133 219.535 213.9C218.785 213.65 218.169 213.35 217.685 213C217.219 212.65 216.869 212.292 216.635 211.925C216.402 211.542 216.277 211.217 216.26 210.95C216.244 210.767 216.302 210.617 216.435 210.5C216.569 210.367 216.71 210.3 216.86 210.3H219.71C219.76 210.3 219.802 210.308 219.835 210.325C219.869 210.342 219.919 210.375 219.985 210.425C220.202 210.542 220.419 210.692 220.635 210.875C220.852 211.042 221.102 211.192 221.385 211.325C221.669 211.458 222.01 211.525 222.41 211.525C222.877 211.525 223.269 211.433 223.585 211.25C223.902 211.067 224.06 210.792 224.06 210.425C224.06 210.158 223.985 209.942 223.835 209.775C223.685 209.592 223.377 209.417 222.91 209.25C222.46 209.083 221.777 208.917 220.86 208.75C219.994 208.55 219.235 208.292 218.585 207.975C217.935 207.642 217.435 207.217 217.085 206.7C216.735 206.167 216.56 205.525 216.56 204.775C216.56 204.108 216.777 203.467 217.21 202.85C217.644 202.233 218.277 201.733 219.11 201.35C219.944 200.95 220.969 200.75 222.185 200.75C223.152 200.75 223.985 200.867 224.685 201.1C225.402 201.317 226.002 201.6 226.485 201.95C226.985 202.3 227.36 202.658 227.61 203.025C227.86 203.392 227.994 203.725 228.01 204.025C228.027 204.192 227.977 204.342 227.86 204.475C227.744 204.592 227.61 204.65 227.46 204.65H224.86C224.794 204.65 224.727 204.642 224.66 204.625C224.594 204.592 224.535 204.558 224.485 204.525C224.285 204.425 224.085 204.292 223.885 204.125C223.685 203.958 223.452 203.808 223.185 203.675C222.919 203.542 222.585 203.475 222.185 203.475C221.735 203.475 221.385 203.575 221.135 203.775C220.885 203.975 220.76 204.233 220.76 204.55C220.76 204.767 220.827 204.967 220.96 205.15C221.11 205.333 221.402 205.5 221.835 205.65C222.285 205.8 222.977 205.967 223.91 206.15C225.06 206.333 225.977 206.633 226.66 207.05C227.344 207.45 227.827 207.925 228.11 208.475C228.394 209.008 228.535 209.575 228.535 210.175C228.535 210.975 228.294 211.683 227.81 212.3C227.344 212.917 226.644 213.4 225.71 213.75C224.777 214.083 223.644 214.25 222.31 214.25ZM237.355 214C236.289 214 235.364 213.833 234.58 213.5C233.814 213.15 233.222 212.617 232.805 211.9C232.389 211.167 232.18 210.225 232.18 209.075V204.275H230.23C230.047 204.275 229.889 204.217 229.755 204.1C229.639 203.983 229.58 203.833 229.58 203.65V201.625C229.58 201.442 229.639 201.292 229.755 201.175C229.889 201.058 230.047 201 230.23 201H232.18V196.875C232.18 196.692 232.239 196.542 232.355 196.425C232.489 196.308 232.639 196.25 232.805 196.25H235.705C235.889 196.25 236.039 196.308 236.155 196.425C236.272 196.542 236.33 196.692 236.33 196.875V201H239.455C239.639 201 239.789 201.058 239.905 201.175C240.022 201.292 240.08 201.442 240.08 201.625V203.65C240.08 203.833 240.022 203.983 239.905 204.1C239.789 204.217 239.639 204.275 239.455 204.275H236.33V208.725C236.33 209.292 236.439 209.742 236.655 210.075C236.872 210.408 237.239 210.575 237.755 210.575H239.68C239.864 210.575 240.014 210.633 240.13 210.75C240.247 210.867 240.305 211.017 240.305 211.2V213.375C240.305 213.558 240.247 213.708 240.13 213.825C240.014 213.942 239.864 214 239.68 214H237.355Z" fill="white"/>
<path d="M2.2 241C2.05333 241 1.94 240.96 1.86 240.88C1.78 240.787 1.74 240.673 1.74 240.54V227.48C1.74 227.333 1.78 227.22 1.86 227.14C1.94 227.047 2.05333 227 2.2 227H6.74C8.11333 227 9.22 227.207 10.06 227.62C10.9 228.033 11.5133 228.647 11.9 229.46C12.2867 230.26 12.4867 231.247 12.5 232.42C12.5133 233.02 12.52 233.547 12.52 234C12.52 234.453 12.5133 234.973 12.5 235.56C12.4733 236.787 12.2667 237.807 11.88 238.62C11.5067 239.42 10.9067 240.02 10.08 240.42C9.26667 240.807 8.18667 241 6.84 241H2.2ZM3.7 239.3H6.74C7.66 239.3 8.39333 239.173 8.94 238.92C9.48667 238.667 9.88 238.26 10.12 237.7C10.3733 237.14 10.5067 236.4 10.52 235.48C10.5467 235.08 10.56 234.733 10.56 234.44C10.56 234.133 10.56 233.833 10.56 233.54C10.56 233.233 10.5467 232.887 10.52 232.5C10.4933 231.207 10.1867 230.253 9.6 229.64C9.01333 229.013 8.02667 228.7 6.64 228.7H3.7V239.3ZM15.7291 241C15.5957 241 15.4824 240.96 15.3891 240.88C15.3091 240.787 15.2691 240.673 15.2691 240.54V231.08C15.2691 230.947 15.3091 230.833 15.3891 230.74C15.4824 230.647 15.5957 230.6 15.7291 230.6H16.6491C16.7824 230.6 16.8957 230.647 16.9891 230.74C17.0824 230.833 17.1291 230.947 17.1291 231.08V231.96C17.3957 231.507 17.7624 231.167 18.2291 230.94C18.6957 230.713 19.2557 230.6 19.9091 230.6H20.7091C20.8424 230.6 20.9491 230.647 21.0291 230.74C21.1091 230.82 21.1491 230.927 21.1491 231.06V231.88C21.1491 232.013 21.1091 232.12 21.0291 232.2C20.9491 232.28 20.8424 232.32 20.7091 232.32H19.5091C18.7891 232.32 18.2224 232.533 17.8091 232.96C17.3957 233.373 17.1891 233.94 17.1891 234.66V240.54C17.1891 240.673 17.1424 240.787 17.0491 240.88C16.9557 240.96 16.8424 241 16.7091 241H15.7291ZM26.9314 241.2C25.9181 241.2 25.0714 241.007 24.3914 240.62C23.7114 240.233 23.1914 239.7 22.8314 239.02C22.4714 238.327 22.2714 237.54 22.2314 236.66C22.2181 236.433 22.2114 236.147 22.2114 235.8C22.2114 235.44 22.2181 235.153 22.2314 234.94C22.2714 234.047 22.4714 233.26 22.8314 232.58C23.2047 231.9 23.7314 231.367 24.4114 230.98C25.0914 230.593 25.9314 230.4 26.9314 230.4C27.9314 230.4 28.7714 230.593 29.4514 230.98C30.1314 231.367 30.6514 231.9 31.0114 232.58C31.3847 233.26 31.5914 234.047 31.6314 234.94C31.6447 235.153 31.6514 235.44 31.6514 235.8C31.6514 236.147 31.6447 236.433 31.6314 236.66C31.5914 237.54 31.3914 238.327 31.0314 239.02C30.6714 239.7 30.1514 240.233 29.4714 240.62C28.7914 241.007 27.9447 241.2 26.9314 241.2ZM26.9314 239.66C27.7581 239.66 28.4181 239.4 28.9114 238.88C29.4047 238.347 29.6714 237.573 29.7114 236.56C29.7247 236.36 29.7314 236.107 29.7314 235.8C29.7314 235.493 29.7247 235.24 29.7114 235.04C29.6714 234.027 29.4047 233.26 28.9114 232.74C28.4181 232.207 27.7581 231.94 26.9314 231.94C26.1047 231.94 25.4381 232.207 24.9314 232.74C24.4381 233.26 24.1781 234.027 24.1514 235.04C24.1381 235.24 24.1314 235.493 24.1314 235.8C24.1314 236.107 24.1381 236.36 24.1514 236.56C24.1781 237.573 24.4381 238.347 24.9314 238.88C25.4381 239.4 26.1047 239.66 26.9314 239.66ZM34.6358 244.8C34.5024 244.8 34.3891 244.753 34.2958 244.66C34.2158 244.58 34.1758 244.473 34.1758 244.34V231.06C34.1758 230.927 34.2158 230.82 34.2958 230.74C34.3891 230.647 34.5024 230.6 34.6358 230.6H35.5558C35.6891 230.6 35.7958 230.647 35.8758 230.74C35.9691 230.82 36.0158 230.927 36.0158 231.06V231.94C36.3358 231.5 36.7624 231.133 37.2958 230.84C37.8291 230.547 38.4958 230.4 39.2958 230.4C40.0424 230.4 40.6758 230.527 41.1958 230.78C41.7291 231.033 42.1624 231.38 42.4958 231.82C42.8424 232.26 43.1024 232.76 43.2758 233.32C43.4491 233.88 43.5424 234.48 43.5558 235.12C43.5691 235.333 43.5758 235.56 43.5758 235.8C43.5758 236.04 43.5691 236.267 43.5558 236.48C43.5424 237.107 43.4491 237.707 43.2758 238.28C43.1024 238.84 42.8424 239.34 42.4958 239.78C42.1624 240.207 41.7291 240.553 41.1958 240.82C40.6758 241.073 40.0424 241.2 39.2958 241.2C38.5224 241.2 37.8691 241.06 37.3358 240.78C36.8158 240.487 36.3891 240.127 36.0558 239.7V244.34C36.0558 244.473 36.0158 244.58 35.9358 244.66C35.8558 244.753 35.7424 244.8 35.5958 244.8H34.6358ZM38.8758 239.58C39.5691 239.58 40.1091 239.433 40.4958 239.14C40.8958 238.833 41.1824 238.44 41.3558 237.96C41.5291 237.467 41.6291 236.94 41.6558 236.38C41.6691 235.993 41.6691 235.607 41.6558 235.22C41.6291 234.66 41.5291 234.14 41.3558 233.66C41.1824 233.167 40.8958 232.773 40.4958 232.48C40.1091 232.173 39.5691 232.02 38.8758 232.02C38.2224 232.02 37.6891 232.173 37.2758 232.48C36.8758 232.787 36.5758 233.18 36.3758 233.66C36.1891 234.127 36.0824 234.607 36.0558 235.1C36.0424 235.313 36.0358 235.567 36.0358 235.86C36.0358 236.153 36.0424 236.413 36.0558 236.64C36.0691 237.107 36.1758 237.567 36.3758 238.02C36.5891 238.473 36.9024 238.847 37.3158 239.14C37.7291 239.433 38.2491 239.58 38.8758 239.58ZM55.1122 241.2C53.7389 241.2 52.6455 240.78 51.8322 239.94C51.0189 239.087 50.5722 237.927 50.4922 236.46C50.4789 236.287 50.4722 236.067 50.4722 235.8C50.4722 235.52 50.4789 235.293 50.4922 235.12C50.5455 234.173 50.7655 233.347 51.1522 232.64C51.5389 231.92 52.0655 231.367 52.7322 230.98C53.4122 230.593 54.2055 230.4 55.1122 230.4C56.1255 230.4 56.9722 230.613 57.6522 231.04C58.3455 231.467 58.8722 232.073 59.2322 232.86C59.5922 233.647 59.7722 234.567 59.7722 235.62V235.96C59.7722 236.107 59.7255 236.22 59.6322 236.3C59.5522 236.38 59.4455 236.42 59.3122 236.42H52.3922C52.3922 236.433 52.3922 236.46 52.3922 236.5C52.3922 236.54 52.3922 236.573 52.3922 236.6C52.4189 237.147 52.5389 237.66 52.7522 238.14C52.9655 238.607 53.2722 238.987 53.6722 239.28C54.0722 239.573 54.5522 239.72 55.1122 239.72C55.5922 239.72 55.9922 239.647 56.3122 239.5C56.6322 239.353 56.8922 239.193 57.0922 239.02C57.2922 238.833 57.4255 238.693 57.4922 238.6C57.6122 238.427 57.7055 238.327 57.7722 238.3C57.8389 238.26 57.9455 238.24 58.0922 238.24H59.0522C59.1855 238.24 59.2922 238.28 59.3722 238.36C59.4655 238.427 59.5055 238.527 59.4922 238.66C59.4789 238.86 59.3722 239.107 59.1722 239.4C58.9722 239.68 58.6855 239.96 58.3122 240.24C57.9389 240.52 57.4855 240.753 56.9522 240.94C56.4189 241.113 55.8055 241.2 55.1122 241.2ZM52.3922 235.04H57.8722V234.98C57.8722 234.38 57.7589 233.847 57.5322 233.38C57.3189 232.913 57.0055 232.547 56.5922 232.28C56.1789 232 55.6855 231.86 55.1122 231.86C54.5389 231.86 54.0455 232 53.6322 232.28C53.2322 232.547 52.9255 232.913 52.7122 233.38C52.4989 233.847 52.3922 234.38 52.3922 234.98V235.04ZM62.6236 241C62.4903 241 62.3769 240.96 62.2836 240.88C62.2036 240.787 62.1636 240.673 62.1636 240.54V231.06C62.1636 230.927 62.2036 230.82 62.2836 230.74C62.3769 230.647 62.4903 230.6 62.6236 230.6H63.5636C63.6969 230.6 63.8036 230.647 63.8836 230.74C63.9769 230.82 64.0236 230.927 64.0236 231.06V231.94C64.3703 231.487 64.8036 231.12 65.3236 230.84C65.8569 230.547 66.5369 230.4 67.3636 230.4C68.2303 230.4 68.9636 230.593 69.5636 230.98C70.1769 231.353 70.6369 231.88 70.9436 232.56C71.2503 233.227 71.4036 234.007 71.4036 234.9V240.54C71.4036 240.673 71.3636 240.787 71.2836 240.88C71.2036 240.96 71.0969 241 70.9636 241H69.9636C69.8303 241 69.7169 240.96 69.6236 240.88C69.5436 240.787 69.5036 240.673 69.5036 240.54V235C69.5036 234.067 69.2769 233.34 68.8236 232.82C68.3703 232.287 67.7036 232.02 66.8236 232.02C65.9969 232.02 65.3303 232.287 64.8236 232.82C64.3303 233.34 64.0836 234.067 64.0836 235V240.54C64.0836 240.673 64.0369 240.787 63.9436 240.88C63.8636 240.96 63.7569 241 63.6236 241H62.6236ZM78.5525 245.4C77.6458 245.4 76.8992 245.28 76.3125 245.04C75.7392 244.8 75.2858 244.507 74.9525 244.16C74.6325 243.827 74.3992 243.487 74.2525 243.14C74.1192 242.807 74.0458 242.54 74.0325 242.34C74.0192 242.207 74.0592 242.093 74.1525 242C74.2592 241.907 74.3725 241.86 74.4925 241.86H75.4525C75.5725 241.86 75.6725 241.887 75.7525 241.94C75.8325 241.993 75.8992 242.107 75.9525 242.28C76.0325 242.48 76.1525 242.7 76.3125 242.94C76.4725 243.193 76.7192 243.407 77.0525 243.58C77.3858 243.767 77.8525 243.86 78.4525 243.86C79.0792 243.86 79.6058 243.773 80.0325 243.6C80.4592 243.44 80.7792 243.147 80.9925 242.72C81.2192 242.307 81.3325 241.733 81.3325 241V239.64C81.0125 240.053 80.5925 240.4 80.0725 240.68C79.5525 240.947 78.8992 241.08 78.1125 241.08C77.3658 241.08 76.7258 240.953 76.1925 240.7C75.6592 240.433 75.2192 240.08 74.8725 239.64C74.5392 239.187 74.2858 238.673 74.1125 238.1C73.9525 237.527 73.8592 236.927 73.8325 236.3C73.8192 235.927 73.8192 235.56 73.8325 235.2C73.8592 234.573 73.9525 233.973 74.1125 233.4C74.2858 232.827 74.5392 232.313 74.8725 231.86C75.2192 231.407 75.6592 231.053 76.1925 230.8C76.7258 230.533 77.3658 230.4 78.1125 230.4C78.9125 230.4 79.5725 230.553 80.0925 230.86C80.6258 231.153 81.0592 231.513 81.3925 231.94V231.08C81.3925 230.947 81.4325 230.833 81.5125 230.74C81.6058 230.647 81.7192 230.6 81.8525 230.6H82.7725C82.9058 230.6 83.0192 230.647 83.1125 230.74C83.2058 230.833 83.2525 230.947 83.2525 231.08V240.78C83.2525 241.673 83.0992 242.467 82.7925 243.16C82.4992 243.853 82.0058 244.4 81.3125 244.8C80.6325 245.2 79.7125 245.4 78.5525 245.4ZM78.5125 239.48C79.1792 239.48 79.7125 239.327 80.1125 239.02C80.5258 238.713 80.8258 238.327 81.0125 237.86C81.2125 237.393 81.3192 236.92 81.3325 236.44C81.3458 236.253 81.3525 236.027 81.3525 235.76C81.3525 235.48 81.3458 235.247 81.3325 235.06C81.3192 234.58 81.2125 234.107 81.0125 233.64C80.8258 233.173 80.5258 232.787 80.1125 232.48C79.7125 232.173 79.1792 232.02 78.5125 232.02C77.8458 232.02 77.3125 232.173 76.9125 232.48C76.5125 232.773 76.2258 233.167 76.0525 233.66C75.8792 234.14 75.7792 234.66 75.7525 235.22C75.7392 235.567 75.7392 235.92 75.7525 236.28C75.7792 236.84 75.8792 237.367 76.0525 237.86C76.2258 238.34 76.5125 238.733 76.9125 239.04C77.3125 239.333 77.8458 239.48 78.5125 239.48ZM89.1261 241.2C88.4594 241.2 87.8528 241.067 87.3061 240.8C86.7594 240.533 86.3194 240.173 85.9861 239.72C85.6528 239.267 85.4861 238.753 85.4861 238.18C85.4861 237.26 85.8594 236.527 86.6061 235.98C87.3528 235.433 88.3261 235.073 89.5261 234.9L92.5061 234.48V233.9C92.5061 233.26 92.3194 232.76 91.9461 232.4C91.5861 232.04 90.9928 231.86 90.1661 231.86C89.5661 231.86 89.0794 231.98 88.7061 232.22C88.3461 232.46 88.0928 232.767 87.9461 233.14C87.8661 233.34 87.7261 233.44 87.5261 233.44H86.6261C86.4794 233.44 86.3661 233.4 86.2861 233.32C86.2194 233.227 86.1861 233.12 86.1861 233C86.1861 232.8 86.2594 232.553 86.4061 232.26C86.5661 231.967 86.8061 231.68 87.1261 231.4C87.4461 231.12 87.8528 230.887 88.3461 230.7C88.8528 230.5 89.4661 230.4 90.1861 230.4C90.9861 230.4 91.6594 230.507 92.2061 230.72C92.7528 230.92 93.1794 231.193 93.4861 231.54C93.8061 231.887 94.0328 232.28 94.1661 232.72C94.3128 233.16 94.3861 233.607 94.3861 234.06V240.54C94.3861 240.673 94.3394 240.787 94.2461 240.88C94.1661 240.96 94.0594 241 93.9261 241H93.0061C92.8594 241 92.7461 240.96 92.6661 240.88C92.5861 240.787 92.5461 240.673 92.5461 240.54V239.68C92.3728 239.92 92.1394 240.16 91.8461 240.4C91.5528 240.627 91.1861 240.82 90.7461 240.98C90.3061 241.127 89.7661 241.2 89.1261 241.2ZM89.5461 239.7C90.0928 239.7 90.5928 239.587 91.0461 239.36C91.4994 239.12 91.8528 238.753 92.1061 238.26C92.3728 237.767 92.5061 237.147 92.5061 236.4V235.84L90.1861 236.18C89.2394 236.313 88.5261 236.54 88.0461 236.86C87.5661 237.167 87.3261 237.56 87.3261 238.04C87.3261 238.413 87.4328 238.727 87.6461 238.98C87.8728 239.22 88.1528 239.4 88.4861 239.52C88.8328 239.64 89.1861 239.7 89.5461 239.7ZM97.7213 241C97.5879 241 97.4746 240.96 97.3813 240.88C97.3013 240.787 97.2613 240.673 97.2613 240.54V231.06C97.2613 230.927 97.3013 230.82 97.3813 230.74C97.4746 230.647 97.5879 230.6 97.7213 230.6H98.6613C98.7946 230.6 98.9013 230.647 98.9813 230.74C99.0746 230.82 99.1213 230.927 99.1213 231.06V231.94C99.4679 231.487 99.9013 231.12 100.421 230.84C100.955 230.547 101.635 230.4 102.461 230.4C103.328 230.4 104.061 230.593 104.661 230.98C105.275 231.353 105.735 231.88 106.041 232.56C106.348 233.227 106.501 234.007 106.501 234.9V240.54C106.501 240.673 106.461 240.787 106.381 240.88C106.301 240.96 106.195 241 106.061 241H105.061C104.928 241 104.815 240.96 104.721 240.88C104.641 240.787 104.601 240.673 104.601 240.54V235C104.601 234.067 104.375 233.34 103.921 232.82C103.468 232.287 102.801 232.02 101.921 232.02C101.095 232.02 100.428 232.287 99.9213 232.82C99.4279 233.34 99.1813 234.067 99.1813 235V240.54C99.1813 240.673 99.1346 240.787 99.0413 240.88C98.9613 240.96 98.8546 241 98.7212 241H97.7213ZM113.65 245.4C112.743 245.4 111.997 245.28 111.41 245.04C110.837 244.8 110.383 244.507 110.05 244.16C109.73 243.827 109.497 243.487 109.35 243.14C109.217 242.807 109.143 242.54 109.13 242.34C109.117 242.207 109.157 242.093 109.25 242C109.357 241.907 109.47 241.86 109.59 241.86H110.55C110.67 241.86 110.77 241.887 110.85 241.94C110.93 241.993 110.997 242.107 111.05 242.28C111.13 242.48 111.25 242.7 111.41 242.94C111.57 243.193 111.817 243.407 112.15 243.58C112.483 243.767 112.95 243.86 113.55 243.86C114.177 243.86 114.703 243.773 115.13 243.6C115.557 243.44 115.877 243.147 116.09 242.72C116.317 242.307 116.43 241.733 116.43 241V239.64C116.11 240.053 115.69 240.4 115.17 240.68C114.65 240.947 113.997 241.08 113.21 241.08C112.463 241.08 111.823 240.953 111.29 240.7C110.757 240.433 110.317 240.08 109.97 239.64C109.637 239.187 109.383 238.673 109.21 238.1C109.05 237.527 108.957 236.927 108.93 236.3C108.917 235.927 108.917 235.56 108.93 235.2C108.957 234.573 109.05 233.973 109.21 233.4C109.383 232.827 109.637 232.313 109.97 231.86C110.317 231.407 110.757 231.053 111.29 230.8C111.823 230.533 112.463 230.4 113.21 230.4C114.01 230.4 114.67 230.553 115.19 230.86C115.723 231.153 116.157 231.513 116.49 231.94V231.08C116.49 230.947 116.53 230.833 116.61 230.74C116.703 230.647 116.817 230.6 116.95 230.6H117.87C118.003 230.6 118.117 230.647 118.21 230.74C118.303 230.833 118.35 230.947 118.35 231.08V240.78C118.35 241.673 118.197 242.467 117.89 243.16C117.597 243.853 117.103 244.4 116.41 244.8C115.73 245.2 114.81 245.4 113.65 245.4ZM113.61 239.48C114.277 239.48 114.81 239.327 115.21 239.02C115.623 238.713 115.923 238.327 116.11 237.86C116.31 237.393 116.417 236.92 116.43 236.44C116.443 236.253 116.45 236.027 116.45 235.76C116.45 235.48 116.443 235.247 116.43 235.06C116.417 234.58 116.31 234.107 116.11 233.64C115.923 233.173 115.623 232.787 115.21 232.48C114.81 232.173 114.277 232.02 113.61 232.02C112.943 232.02 112.41 232.173 112.01 232.48C111.61 232.773 111.323 233.167 111.15 233.66C110.977 234.14 110.877 234.66 110.85 235.22C110.837 235.567 110.837 235.92 110.85 236.28C110.877 236.84 110.977 237.367 111.15 237.86C111.323 238.34 111.61 238.733 112.01 239.04C112.41 239.333 112.943 239.48 113.61 239.48ZM124.924 241.2C124.177 241.2 123.537 241.107 123.004 240.92C122.47 240.733 122.037 240.507 121.704 240.24C121.37 239.973 121.117 239.707 120.944 239.44C120.784 239.173 120.697 238.96 120.684 238.8C120.67 238.653 120.717 238.54 120.824 238.46C120.93 238.38 121.037 238.34 121.144 238.34H122.024C122.104 238.34 122.164 238.353 122.204 238.38C122.257 238.393 122.324 238.447 122.404 238.54C122.577 238.727 122.77 238.913 122.984 239.1C123.197 239.287 123.457 239.44 123.764 239.56C124.084 239.68 124.477 239.74 124.944 239.74C125.624 239.74 126.184 239.613 126.624 239.36C127.064 239.093 127.284 238.707 127.284 238.2C127.284 237.867 127.19 237.6 127.004 237.4C126.83 237.2 126.51 237.02 126.044 236.86C125.59 236.7 124.964 236.533 124.164 236.36C123.364 236.173 122.73 235.947 122.264 235.68C121.797 235.4 121.464 235.073 121.264 234.7C121.064 234.313 120.964 233.88 120.964 233.4C120.964 232.907 121.11 232.433 121.404 231.98C121.697 231.513 122.124 231.133 122.684 230.84C123.257 230.547 123.97 230.4 124.824 230.4C125.517 230.4 126.11 230.487 126.604 230.66C127.097 230.833 127.504 231.053 127.824 231.32C128.144 231.573 128.384 231.827 128.544 232.08C128.704 232.333 128.79 232.547 128.804 232.72C128.817 232.853 128.777 232.967 128.684 233.06C128.59 233.14 128.484 233.18 128.364 233.18H127.524C127.43 233.18 127.35 233.16 127.284 233.12C127.23 233.08 127.177 233.033 127.124 232.98C126.99 232.807 126.83 232.633 126.644 232.46C126.47 232.287 126.237 232.147 125.944 232.04C125.664 231.92 125.29 231.86 124.824 231.86C124.157 231.86 123.657 232 123.324 232.28C122.99 232.56 122.824 232.913 122.824 233.34C122.824 233.593 122.897 233.82 123.044 234.02C123.19 234.22 123.47 234.4 123.884 234.56C124.297 234.72 124.91 234.893 125.724 235.08C126.604 235.253 127.297 235.487 127.804 235.78C128.31 236.073 128.67 236.413 128.884 236.8C129.097 237.187 129.204 237.633 129.204 238.14C129.204 238.7 129.037 239.213 128.704 239.68C128.384 240.147 127.904 240.52 127.264 240.8C126.637 241.067 125.857 241.2 124.924 241.2ZM135.119 241.2C134.372 241.2 133.732 241.107 133.199 240.92C132.666 240.733 132.232 240.507 131.899 240.24C131.566 239.973 131.312 239.707 131.139 239.44C130.979 239.173 130.892 238.96 130.879 238.8C130.866 238.653 130.912 238.54 131.019 238.46C131.126 238.38 131.232 238.34 131.339 238.34H132.219C132.299 238.34 132.359 238.353 132.399 238.38C132.452 238.393 132.519 238.447 132.599 238.54C132.772 238.727 132.966 238.913 133.179 239.1C133.392 239.287 133.652 239.44 133.959 239.56C134.279 239.68 134.672 239.74 135.139 239.74C135.819 239.74 136.379 239.613 136.819 239.36C137.259 239.093 137.479 238.707 137.479 238.2C137.479 237.867 137.386 237.6 137.199 237.4C137.026 237.2 136.706 237.02 136.239 236.86C135.786 236.7 135.159 236.533 134.359 236.36C133.559 236.173 132.926 235.947 132.459 235.68C131.992 235.4 131.659 235.073 131.459 234.7C131.259 234.313 131.159 233.88 131.159 233.4C131.159 232.907 131.306 232.433 131.599 231.98C131.892 231.513 132.319 231.133 132.879 230.84C133.452 230.547 134.166 230.4 135.019 230.4C135.712 230.4 136.306 230.487 136.799 230.66C137.292 230.833 137.699 231.053 138.019 231.32C138.339 231.573 138.579 231.827 138.739 232.08C138.899 232.333 138.986 232.547 138.999 232.72C139.012 232.853 138.972 232.967 138.879 233.06C138.786 233.14 138.679 233.18 138.559 233.18H137.719C137.626 233.18 137.546 233.16 137.479 233.12C137.426 233.08 137.372 233.033 137.319 232.98C137.186 232.807 137.026 232.633 136.839 232.46C136.666 232.287 136.432 232.147 136.139 232.04C135.859 231.92 135.486 231.86 135.019 231.86C134.352 231.86 133.852 232 133.519 232.28C133.186 232.56 133.019 232.913 133.019 233.34C133.019 233.593 133.092 233.82 133.239 234.02C133.386 234.22 133.666 234.4 134.079 234.56C134.492 234.72 135.106 234.893 135.919 235.08C136.799 235.253 137.492 235.487 137.999 235.78C138.506 236.073 138.866 236.413 139.079 236.8C139.292 237.187 139.399 237.633 139.399 238.14C139.399 238.7 139.232 239.213 138.899 239.68C138.579 240.147 138.099 240.52 137.459 240.8C136.832 241.067 136.052 241.2 135.119 241.2ZM145.854 241.2C144.481 241.2 143.388 240.78 142.574 239.94C141.761 239.087 141.314 237.927 141.234 236.46C141.221 236.287 141.214 236.067 141.214 235.8C141.214 235.52 141.221 235.293 141.234 235.12C141.288 234.173 141.508 233.347 141.894 232.64C142.281 231.92 142.808 231.367 143.474 230.98C144.154 230.593 144.948 230.4 145.854 230.4C146.868 230.4 147.714 230.613 148.394 231.04C149.088 231.467 149.614 232.073 149.974 232.86C150.334 233.647 150.514 234.567 150.514 235.62V235.96C150.514 236.107 150.468 236.22 150.374 236.3C150.294 236.38 150.188 236.42 150.054 236.42H143.134C143.134 236.433 143.134 236.46 143.134 236.5C143.134 236.54 143.134 236.573 143.134 236.6C143.161 237.147 143.281 237.66 143.494 238.14C143.708 238.607 144.014 238.987 144.414 239.28C144.814 239.573 145.294 239.72 145.854 239.72C146.334 239.72 146.734 239.647 147.054 239.5C147.374 239.353 147.634 239.193 147.834 239.02C148.034 238.833 148.168 238.693 148.234 238.6C148.354 238.427 148.448 238.327 148.514 238.3C148.581 238.26 148.688 238.24 148.834 238.24H149.794C149.928 238.24 150.034 238.28 150.114 238.36C150.208 238.427 150.248 238.527 150.234 238.66C150.221 238.86 150.114 239.107 149.914 239.4C149.714 239.68 149.428 239.96 149.054 240.24C148.681 240.52 148.228 240.753 147.694 240.94C147.161 241.113 146.548 241.2 145.854 241.2ZM143.134 235.04H148.614V234.98C148.614 234.38 148.501 233.847 148.274 233.38C148.061 232.913 147.748 232.547 147.334 232.28C146.921 232 146.428 231.86 145.854 231.86C145.281 231.86 144.788 232 144.374 232.28C143.974 232.547 143.668 232.913 143.454 233.38C143.241 233.847 143.134 234.38 143.134 234.98V235.04ZM153.366 241C153.232 241 153.119 240.96 153.026 240.88C152.946 240.787 152.906 240.673 152.906 240.54V231.08C152.906 230.947 152.946 230.833 153.026 230.74C153.119 230.647 153.232 230.6 153.366 230.6H154.286C154.419 230.6 154.532 230.647 154.626 230.74C154.719 230.833 154.766 230.947 154.766 231.08V231.96C155.032 231.507 155.399 231.167 155.866 230.94C156.332 230.713 156.892 230.6 157.546 230.6H158.346C158.479 230.6 158.586 230.647 158.666 230.74C158.746 230.82 158.786 230.927 158.786 231.06V231.88C158.786 232.013 158.746 232.12 158.666 232.2C158.586 232.28 158.479 232.32 158.346 232.32H157.146C156.426 232.32 155.859 232.533 155.446 232.96C155.032 233.373 154.826 233.94 154.826 234.66V240.54C154.826 240.673 154.779 240.787 154.686 240.88C154.592 240.96 154.479 241 154.346 241H153.366ZM164.123 241C163.923 241 163.763 240.953 163.643 240.86C163.537 240.767 163.45 240.647 163.383 240.5L159.683 231.22C159.657 231.153 159.643 231.087 159.643 231.02C159.643 230.9 159.683 230.8 159.763 230.72C159.843 230.64 159.943 230.6 160.063 230.6H161.023C161.17 230.6 161.283 230.64 161.363 230.72C161.443 230.8 161.49 230.873 161.503 230.94L164.563 238.82L167.603 230.94C167.63 230.873 167.677 230.8 167.743 230.72C167.823 230.64 167.937 230.6 168.083 230.6H169.063C169.17 230.6 169.263 230.64 169.343 230.72C169.437 230.8 169.483 230.9 169.483 231.02C169.483 231.087 169.47 231.153 169.443 231.22L165.723 240.5C165.67 240.647 165.583 240.767 165.463 240.86C165.357 240.953 165.197 241 164.983 241H164.123ZM172.038 241C171.904 241 171.791 240.96 171.698 240.88C171.618 240.787 171.578 240.673 171.578 240.54V231.06C171.578 230.927 171.618 230.82 171.698 230.74C171.791 230.647 171.904 230.6 172.038 230.6H172.998C173.131 230.6 173.238 230.647 173.318 230.74C173.398 230.82 173.438 230.927 173.438 231.06V240.54C173.438 240.673 173.398 240.787 173.318 240.88C173.238 240.96 173.131 241 172.998 241H172.038ZM171.878 228.66C171.744 228.66 171.631 228.62 171.538 228.54C171.458 228.447 171.418 228.333 171.418 228.2V227.12C171.418 226.987 171.458 226.88 171.538 226.8C171.631 226.707 171.744 226.66 171.878 226.66H173.138C173.271 226.66 173.378 226.707 173.458 226.8C173.551 226.88 173.598 226.987 173.598 227.12V228.2C173.598 228.333 173.551 228.447 173.458 228.54C173.378 228.62 173.271 228.66 173.138 228.66H171.878ZM180.66 241.2C179.714 241.2 178.894 241.02 178.2 240.66C177.52 240.287 176.994 239.76 176.62 239.08C176.247 238.387 176.047 237.56 176.02 236.6C176.007 236.4 176 236.133 176 235.8C176 235.467 176.007 235.2 176.02 235C176.047 234.04 176.247 233.22 176.62 232.54C176.994 231.847 177.52 231.32 178.2 230.96C178.894 230.587 179.714 230.4 180.66 230.4C181.434 230.4 182.094 230.507 182.64 230.72C183.2 230.933 183.66 231.207 184.02 231.54C184.38 231.873 184.647 232.233 184.82 232.62C185.007 233.007 185.107 233.373 185.12 233.72C185.134 233.853 185.094 233.96 185 234.04C184.907 234.12 184.794 234.16 184.66 234.16H183.7C183.567 234.16 183.467 234.133 183.4 234.08C183.334 234.013 183.267 233.907 183.2 233.76C182.96 233.107 182.634 232.647 182.22 232.38C181.807 232.113 181.294 231.98 180.68 231.98C179.88 231.98 179.227 232.227 178.72 232.72C178.227 233.213 177.96 234.007 177.92 235.1C177.907 235.58 177.907 236.047 177.92 236.5C177.96 237.607 178.227 238.407 178.72 238.9C179.227 239.38 179.88 239.62 180.68 239.62C181.294 239.62 181.807 239.487 182.22 239.22C182.634 238.953 182.96 238.493 183.2 237.84C183.267 237.693 183.334 237.593 183.4 237.54C183.467 237.473 183.567 237.44 183.7 237.44H184.66C184.794 237.44 184.907 237.48 185 237.56C185.094 237.64 185.134 237.747 185.12 237.88C185.107 238.16 185.047 238.447 184.94 238.74C184.834 239.033 184.66 239.333 184.42 239.64C184.194 239.933 183.907 240.2 183.56 240.44C183.214 240.667 182.794 240.853 182.3 241C181.82 241.133 181.274 241.2 180.66 241.2ZM191.636 241.2C190.262 241.2 189.169 240.78 188.356 239.94C187.542 239.087 187.096 237.927 187.016 236.46C187.002 236.287 186.996 236.067 186.996 235.8C186.996 235.52 187.002 235.293 187.016 235.12C187.069 234.173 187.289 233.347 187.676 232.64C188.062 231.92 188.589 231.367 189.256 230.98C189.936 230.593 190.729 230.4 191.636 230.4C192.649 230.4 193.496 230.613 194.176 231.04C194.869 231.467 195.396 232.073 195.756 232.86C196.116 233.647 196.296 234.567 196.296 235.62V235.96C196.296 236.107 196.249 236.22 196.156 236.3C196.076 236.38 195.969 236.42 195.836 236.42H188.916C188.916 236.433 188.916 236.46 188.916 236.5C188.916 236.54 188.916 236.573 188.916 236.6C188.942 237.147 189.062 237.66 189.276 238.14C189.489 238.607 189.796 238.987 190.196 239.28C190.596 239.573 191.076 239.72 191.636 239.72C192.116 239.72 192.516 239.647 192.836 239.5C193.156 239.353 193.416 239.193 193.616 239.02C193.816 238.833 193.949 238.693 194.016 238.6C194.136 238.427 194.229 238.327 194.296 238.3C194.362 238.26 194.469 238.24 194.616 238.24H195.576C195.709 238.24 195.816 238.28 195.896 238.36C195.989 238.427 196.029 238.527 196.016 238.66C196.002 238.86 195.896 239.107 195.696 239.4C195.496 239.68 195.209 239.96 194.836 240.24C194.462 240.52 194.009 240.753 193.476 240.94C192.942 241.113 192.329 241.2 191.636 241.2ZM188.916 235.04H194.396V234.98C194.396 234.38 194.282 233.847 194.056 233.38C193.842 232.913 193.529 232.547 193.116 232.28C192.702 232 192.209 231.86 191.636 231.86C191.062 231.86 190.569 232 190.156 232.28C189.756 232.547 189.449 232.913 189.236 233.38C189.022 233.847 188.916 234.38 188.916 234.98V235.04ZM198.547 242.5C198.44 242.5 198.354 242.46 198.287 242.38C198.234 242.3 198.214 242.2 198.227 242.08L198.687 239.22C198.714 239.06 198.767 238.927 198.847 238.82C198.94 238.7 199.074 238.64 199.247 238.64H200.587C200.68 238.64 200.754 238.673 200.807 238.74C200.874 238.807 200.907 238.887 200.907 238.98C200.907 239.087 200.88 239.193 200.827 239.3L199.787 242.04C199.734 242.173 199.66 242.28 199.567 242.36C199.487 242.453 199.367 242.5 199.207 242.5H198.547ZM213.71 241.2C212.91 241.2 212.243 241.06 211.71 240.78C211.177 240.487 210.75 240.127 210.43 239.7V240.54C210.43 240.673 210.383 240.787 210.29 240.88C210.21 240.96 210.103 241 209.97 241H209.05C208.917 241 208.803 240.96 208.71 240.88C208.63 240.787 208.59 240.673 208.59 240.54V227.26C208.59 227.127 208.63 227.02 208.71 226.94C208.803 226.847 208.917 226.8 209.05 226.8H210.01C210.157 226.8 210.27 226.847 210.35 226.94C210.43 227.02 210.47 227.127 210.47 227.26V231.86C210.803 231.447 211.23 231.1 211.75 230.82C212.283 230.54 212.937 230.4 213.71 230.4C214.457 230.4 215.09 230.533 215.61 230.8C216.143 231.053 216.577 231.407 216.91 231.86C217.257 232.313 217.517 232.827 217.69 233.4C217.863 233.973 217.957 234.573 217.97 235.2C217.983 235.413 217.99 235.613 217.99 235.8C217.99 235.987 217.983 236.187 217.97 236.4C217.957 237.04 217.863 237.647 217.69 238.22C217.517 238.793 217.257 239.307 216.91 239.76C216.577 240.2 216.143 240.553 215.61 240.82C215.09 241.073 214.457 241.2 213.71 241.2ZM213.29 239.58C213.983 239.58 214.523 239.433 214.91 239.14C215.31 238.833 215.597 238.44 215.77 237.96C215.943 237.467 216.043 236.94 216.07 236.38C216.083 235.993 216.083 235.607 216.07 235.22C216.043 234.66 215.943 234.14 215.77 233.66C215.597 233.167 215.31 232.773 214.91 232.48C214.523 232.173 213.983 232.02 213.29 232.02C212.663 232.02 212.143 232.167 211.73 232.46C211.317 232.753 211.003 233.127 210.79 233.58C210.59 234.033 210.483 234.493 210.47 234.96C210.457 235.173 210.45 235.433 210.45 235.74C210.45 236.033 210.457 236.287 210.47 236.5C210.497 236.993 210.603 237.48 210.79 237.96C210.99 238.427 211.29 238.813 211.69 239.12C212.103 239.427 212.637 239.58 213.29 239.58ZM223.364 241.2C222.698 241.2 222.091 241.067 221.544 240.8C220.998 240.533 220.558 240.173 220.224 239.72C219.891 239.267 219.724 238.753 219.724 238.18C219.724 237.26 220.098 236.527 220.844 235.98C221.591 235.433 222.564 235.073 223.764 234.9L226.744 234.48V233.9C226.744 233.26 226.558 232.76 226.184 232.4C225.824 232.04 225.231 231.86 224.404 231.86C223.804 231.86 223.318 231.98 222.944 232.22C222.584 232.46 222.331 232.767 222.184 233.14C222.104 233.34 221.964 233.44 221.764 233.44H220.864C220.718 233.44 220.604 233.4 220.524 233.32C220.458 233.227 220.424 233.12 220.424 233C220.424 232.8 220.498 232.553 220.644 232.26C220.804 231.967 221.044 231.68 221.364 231.4C221.684 231.12 222.091 230.887 222.584 230.7C223.091 230.5 223.704 230.4 224.424 230.4C225.224 230.4 225.898 230.507 226.444 230.72C226.991 230.92 227.418 231.193 227.724 231.54C228.044 231.887 228.271 232.28 228.404 232.72C228.551 233.16 228.624 233.607 228.624 234.06V240.54C228.624 240.673 228.578 240.787 228.484 240.88C228.404 240.96 228.298 241 228.164 241H227.244C227.098 241 226.984 240.96 226.904 240.88C226.824 240.787 226.784 240.673 226.784 240.54V239.68C226.611 239.92 226.378 240.16 226.084 240.4C225.791 240.627 225.424 240.82 224.984 240.98C224.544 241.127 224.004 241.2 223.364 241.2ZM223.784 239.7C224.331 239.7 224.831 239.587 225.284 239.36C225.738 239.12 226.091 238.753 226.344 238.26C226.611 237.767 226.744 237.147 226.744 236.4V235.84L224.424 236.18C223.478 236.313 222.764 236.54 222.284 236.86C221.804 237.167 221.564 237.56 221.564 238.04C221.564 238.413 221.671 238.727 221.884 238.98C222.111 239.22 222.391 239.4 222.724 239.52C223.071 239.64 223.424 239.7 223.784 239.7ZM231.98 241C231.846 241 231.733 240.96 231.64 240.88C231.56 240.787 231.52 240.673 231.52 240.54V227.26C231.52 227.127 231.56 227.02 231.64 226.94C231.733 226.847 231.846 226.8 231.98 226.8H232.92C233.066 226.8 233.18 226.847 233.26 226.94C233.34 227.02 233.38 227.127 233.38 227.26V240.54C233.38 240.673 233.34 240.787 233.26 240.88C233.18 240.96 233.066 241 232.92 241H231.98ZM236.843 241C236.709 241 236.596 240.96 236.503 240.88C236.423 240.787 236.383 240.673 236.383 240.54V227.26C236.383 227.127 236.423 227.02 236.503 226.94C236.596 226.847 236.709 226.8 236.843 226.8H237.783C237.929 226.8 238.043 226.847 238.123 226.94C238.203 227.02 238.243 227.127 238.243 227.26V240.54C238.243 240.673 238.203 240.787 238.123 240.88C238.043 240.96 237.929 241 237.783 241H236.843ZM245.486 241.2C244.473 241.2 243.626 241.007 242.946 240.62C242.266 240.233 241.746 239.7 241.386 239.02C241.026 238.327 240.826 237.54 240.786 236.66C240.773 236.433 240.766 236.147 240.766 235.8C240.766 235.44 240.773 235.153 240.786 234.94C240.826 234.047 241.026 233.26 241.386 232.58C241.759 231.9 242.286 231.367 242.966 230.98C243.646 230.593 244.486 230.4 245.486 230.4C246.486 230.4 247.326 230.593 248.006 230.98C248.686 231.367 249.206 231.9 249.566 232.58C249.939 233.26 250.146 234.047 250.186 234.94C250.199 235.153 250.206 235.44 250.206 235.8C250.206 236.147 250.199 236.433 250.186 236.66C250.146 237.54 249.946 238.327 249.586 239.02C249.226 239.7 248.706 240.233 248.026 240.62C247.346 241.007 246.499 241.2 245.486 241.2ZM245.486 239.66C246.313 239.66 246.973 239.4 247.466 238.88C247.959 238.347 248.226 237.573 248.266 236.56C248.279 236.36 248.286 236.107 248.286 235.8C248.286 235.493 248.279 235.24 248.266 235.04C248.226 234.027 247.959 233.26 247.466 232.74C246.973 232.207 246.313 231.94 245.486 231.94C244.659 231.94 243.993 232.207 243.486 232.74C242.993 233.26 242.733 234.027 242.706 235.04C242.693 235.24 242.686 235.493 242.686 235.8C242.686 236.107 242.693 236.36 242.706 236.56C242.733 237.573 242.993 238.347 243.486 238.88C243.993 239.4 244.659 239.66 245.486 239.66ZM253.17 241C253.037 241 252.924 240.96 252.83 240.88C252.75 240.787 252.71 240.673 252.71 240.54V231.06C252.71 230.927 252.75 230.82 252.83 230.74C252.924 230.647 253.037 230.6 253.17 230.6H254.11C254.244 230.6 254.35 230.647 254.43 230.74C254.524 230.82 254.57 230.927 254.57 231.06V231.94C254.917 231.487 255.35 231.12 255.87 230.84C256.404 230.547 257.084 230.4 257.91 230.4C258.777 230.4 259.51 230.593 260.11 230.98C260.724 231.353 261.184 231.88 261.49 232.56C261.797 233.227 261.95 234.007 261.95 234.9V240.54C261.95 240.673 261.91 240.787 261.83 240.88C261.75 240.96 261.644 241 261.51 241H260.51C260.377 241 260.264 240.96 260.17 240.88C260.09 240.787 260.05 240.673 260.05 240.54V235C260.05 234.067 259.824 233.34 259.37 232.82C258.917 232.287 258.25 232.02 257.37 232.02C256.544 232.02 255.877 232.287 255.37 232.82C254.877 233.34 254.63 234.067 254.63 235V240.54C254.63 240.673 254.584 240.787 254.49 240.88C254.41 240.96 254.304 241 254.17 241H253.17ZM268.979 241.2C267.606 241.2 266.513 240.78 265.699 239.94C264.886 239.087 264.439 237.927 264.359 236.46C264.346 236.287 264.339 236.067 264.339 235.8C264.339 235.52 264.346 235.293 264.359 235.12C264.413 234.173 264.633 233.347 265.019 232.64C265.406 231.92 265.933 231.367 266.599 230.98C267.279 230.593 268.073 230.4 268.979 230.4C269.993 230.4 270.839 230.613 271.519 231.04C272.213 231.467 272.739 232.073 273.099 232.86C273.459 233.647 273.639 234.567 273.639 235.62V235.96C273.639 236.107 273.593 236.22 273.499 236.3C273.419 236.38 273.313 236.42 273.179 236.42H266.259C266.259 236.433 266.259 236.46 266.259 236.5C266.259 236.54 266.259 236.573 266.259 236.6C266.286 237.147 266.406 237.66 266.619 238.14C266.833 238.607 267.139 238.987 267.539 239.28C267.939 239.573 268.419 239.72 268.979 239.72C269.459 239.72 269.859 239.647 270.179 239.5C270.499 239.353 270.759 239.193 270.959 239.02C271.159 238.833 271.293 238.693 271.359 238.6C271.479 238.427 271.573 238.327 271.639 238.3C271.706 238.26 271.813 238.24 271.959 238.24H272.919C273.053 238.24 273.159 238.28 273.239 238.36C273.333 238.427 273.373 238.527 273.359 238.66C273.346 238.86 273.239 239.107 273.039 239.4C272.839 239.68 272.553 239.96 272.179 240.24C271.806 240.52 271.353 240.753 270.819 240.94C270.286 241.113 269.673 241.2 268.979 241.2ZM266.259 235.04H271.739V234.98C271.739 234.38 271.626 233.847 271.399 233.38C271.186 232.913 270.873 232.547 270.459 232.28C270.046 232 269.553 231.86 268.979 231.86C268.406 231.86 267.913 232 267.499 232.28C267.099 232.547 266.793 232.913 266.579 233.38C266.366 233.847 266.259 234.38 266.259 234.98V235.04ZM276.491 241C276.357 241 276.244 240.96 276.151 240.88C276.071 240.787 276.031 240.673 276.031 240.54V231.08C276.031 230.947 276.071 230.833 276.151 230.74C276.244 230.647 276.357 230.6 276.491 230.6H277.411C277.544 230.6 277.657 230.647 277.751 230.74C277.844 230.833 277.891 230.947 277.891 231.08V231.96C278.157 231.507 278.524 231.167 278.991 230.94C279.457 230.713 280.017 230.6 280.671 230.6H281.471C281.604 230.6 281.711 230.647 281.791 230.74C281.871 230.82 281.911 230.927 281.911 231.06V231.88C281.911 232.013 281.871 232.12 281.791 232.2C281.711 232.28 281.604 232.32 281.471 232.32H280.271C279.551 232.32 278.984 232.533 278.571 232.96C278.157 233.373 277.951 233.94 277.951 234.66V240.54C277.951 240.673 277.904 240.787 277.811 240.88C277.717 240.96 277.604 241 277.471 241H276.491ZM292.322 241.2C291.309 241.2 290.462 241.007 289.782 240.62C289.102 240.233 288.582 239.7 288.222 239.02C287.862 238.327 287.662 237.54 287.622 236.66C287.609 236.433 287.602 236.147 287.602 235.8C287.602 235.44 287.609 235.153 287.622 234.94C287.662 234.047 287.862 233.26 288.222 232.58C288.595 231.9 289.122 231.367 289.802 230.98C290.482 230.593 291.322 230.4 292.322 230.4C293.322 230.4 294.162 230.593 294.842 230.98C295.522 231.367 296.042 231.9 296.402 232.58C296.775 233.26 296.982 234.047 297.022 234.94C297.035 235.153 297.042 235.44 297.042 235.8C297.042 236.147 297.035 236.433 297.022 236.66C296.982 237.54 296.782 238.327 296.422 239.02C296.062 239.7 295.542 240.233 294.862 240.62C294.182 241.007 293.335 241.2 292.322 241.2ZM292.322 239.66C293.149 239.66 293.809 239.4 294.302 238.88C294.795 238.347 295.062 237.573 295.102 236.56C295.115 236.36 295.122 236.107 295.122 235.8C295.122 235.493 295.115 235.24 295.102 235.04C295.062 234.027 294.795 233.26 294.302 232.74C293.809 232.207 293.149 231.94 292.322 231.94C291.495 231.94 290.829 232.207 290.322 232.74C289.829 233.26 289.569 234.027 289.542 235.04C289.529 235.24 289.522 235.493 289.522 235.8C289.522 236.107 289.529 236.36 289.542 236.56C289.569 237.573 289.829 238.347 290.322 238.88C290.829 239.4 291.495 239.66 292.322 239.66ZM303.806 245.4C302.9 245.4 302.153 245.28 301.566 245.04C300.993 244.8 300.54 244.507 300.206 244.16C299.886 243.827 299.653 243.487 299.506 243.14C299.373 242.807 299.3 242.54 299.286 242.34C299.273 242.207 299.313 242.093 299.406 242C299.513 241.907 299.626 241.86 299.746 241.86H300.706C300.826 241.86 300.926 241.887 301.006 241.94C301.086 241.993 301.153 242.107 301.206 242.28C301.286 242.48 301.406 242.7 301.566 242.94C301.726 243.193 301.973 243.407 302.306 243.58C302.64 243.767 303.106 243.86 303.706 243.86C304.333 243.86 304.86 243.773 305.286 243.6C305.713 243.44 306.033 243.147 306.246 242.72C306.473 242.307 306.586 241.733 306.586 241V239.64C306.266 240.053 305.846 240.4 305.326 240.68C304.806 240.947 304.153 241.08 303.366 241.08C302.62 241.08 301.98 240.953 301.446 240.7C300.913 240.433 300.473 240.08 300.126 239.64C299.793 239.187 299.54 238.673 299.366 238.1C299.206 237.527 299.113 236.927 299.086 236.3C299.073 235.927 299.073 235.56 299.086 235.2C299.113 234.573 299.206 233.973 299.366 233.4C299.54 232.827 299.793 232.313 300.126 231.86C300.473 231.407 300.913 231.053 301.446 230.8C301.98 230.533 302.62 230.4 303.366 230.4C304.166 230.4 304.826 230.553 305.346 230.86C305.88 231.153 306.313 231.513 306.646 231.94V231.08C306.646 230.947 306.686 230.833 306.766 230.74C306.86 230.647 306.973 230.6 307.106 230.6H308.026C308.16 230.6 308.273 230.647 308.366 230.74C308.46 230.833 308.506 230.947 308.506 231.08V240.78C308.506 241.673 308.353 242.467 308.046 243.16C307.753 243.853 307.26 244.4 306.566 244.8C305.886 245.2 304.966 245.4 303.806 245.4ZM303.766 239.48C304.433 239.48 304.966 239.327 305.366 239.02C305.78 238.713 306.08 238.327 306.266 237.86C306.466 237.393 306.573 236.92 306.586 236.44C306.6 236.253 306.606 236.027 306.606 235.76C306.606 235.48 306.6 235.247 306.586 235.06C306.573 234.58 306.466 234.107 306.266 233.64C306.08 233.173 305.78 232.787 305.366 232.48C304.966 232.173 304.433 232.02 303.766 232.02C303.1 232.02 302.566 232.173 302.166 232.48C301.766 232.773 301.48 233.167 301.306 233.66C301.133 234.14 301.033 234.66 301.006 235.22C300.993 235.567 300.993 235.92 301.006 236.28C301.033 236.84 301.133 237.367 301.306 237.86C301.48 238.34 301.766 238.733 302.166 239.04C302.566 239.333 303.1 239.48 303.766 239.48ZM319.982 241.2C319.236 241.2 318.596 241.107 318.062 240.92C317.529 240.733 317.096 240.507 316.762 240.24C316.429 239.973 316.176 239.707 316.002 239.44C315.842 239.173 315.756 238.96 315.742 238.8C315.729 238.653 315.776 238.54 315.882 238.46C315.989 238.38 316.096 238.34 316.202 238.34H317.082C317.162 238.34 317.222 238.353 317.262 238.38C317.316 238.393 317.382 238.447 317.462 238.54C317.636 238.727 317.829 238.913 318.042 239.1C318.256 239.287 318.516 239.44 318.822 239.56C319.142 239.68 319.536 239.74 320.002 239.74C320.682 239.74 321.242 239.613 321.682 239.36C322.122 239.093 322.342 238.707 322.342 238.2C322.342 237.867 322.249 237.6 322.062 237.4C321.889 237.2 321.569 237.02 321.102 236.86C320.649 236.7 320.022 236.533 319.222 236.36C318.422 236.173 317.789 235.947 317.322 235.68C316.856 235.4 316.522 235.073 316.322 234.7C316.122 234.313 316.022 233.88 316.022 233.4C316.022 232.907 316.169 232.433 316.462 231.98C316.756 231.513 317.182 231.133 317.742 230.84C318.316 230.547 319.029 230.4 319.882 230.4C320.576 230.4 321.169 230.487 321.662 230.66C322.156 230.833 322.562 231.053 322.882 231.32C323.202 231.573 323.442 231.827 323.602 232.08C323.762 232.333 323.849 232.547 323.862 232.72C323.876 232.853 323.836 232.967 323.742 233.06C323.649 233.14 323.542 233.18 323.422 233.18H322.582C322.489 233.18 322.409 233.16 322.342 233.12C322.289 233.08 322.236 233.033 322.182 232.98C322.049 232.807 321.889 232.633 321.702 232.46C321.529 232.287 321.296 232.147 321.002 232.04C320.722 231.92 320.349 231.86 319.882 231.86C319.216 231.86 318.716 232 318.382 232.28C318.049 232.56 317.882 232.913 317.882 233.34C317.882 233.593 317.956 233.82 318.102 234.02C318.249 234.22 318.529 234.4 318.942 234.56C319.356 234.72 319.969 234.893 320.782 235.08C321.662 235.253 322.356 235.487 322.862 235.78C323.369 236.073 323.729 236.413 323.942 236.8C324.156 237.187 324.262 237.633 324.262 238.14C324.262 238.7 324.096 239.213 323.762 239.68C323.442 240.147 322.962 240.52 322.322 240.8C321.696 241.067 320.916 241.2 319.982 241.2ZM330.458 241.2C329.604 241.2 328.878 241.013 328.278 240.64C327.691 240.253 327.244 239.72 326.938 239.04C326.631 238.36 326.478 237.58 326.478 236.7V231.06C326.478 230.927 326.518 230.82 326.598 230.74C326.691 230.647 326.804 230.6 326.938 230.6H327.938C328.071 230.6 328.178 230.647 328.258 230.74C328.351 230.82 328.398 230.927 328.398 231.06V236.6C328.398 238.587 329.264 239.58 330.998 239.58C331.824 239.58 332.484 239.32 332.978 238.8C333.484 238.267 333.738 237.533 333.738 236.6V231.06C333.738 230.927 333.778 230.82 333.858 230.74C333.951 230.647 334.064 230.6 334.198 230.6H335.178C335.324 230.6 335.438 230.647 335.518 230.74C335.598 230.82 335.638 230.927 335.638 231.06V240.54C335.638 240.673 335.598 240.787 335.518 240.88C335.438 240.96 335.324 241 335.178 241H334.258C334.124 241 334.011 240.96 333.918 240.88C333.838 240.787 333.798 240.673 333.798 240.54V239.66C333.438 240.127 332.998 240.5 332.478 240.78C331.971 241.06 331.298 241.2 330.458 241.2ZM342.869 245.4C341.962 245.4 341.216 245.28 340.629 245.04C340.056 244.8 339.602 244.507 339.269 244.16C338.949 243.827 338.716 243.487 338.569 243.14C338.436 242.807 338.362 242.54 338.349 242.34C338.336 242.207 338.376 242.093 338.469 242C338.576 241.907 338.689 241.86 338.809 241.86H339.769C339.889 241.86 339.989 241.887 340.069 241.94C340.149 241.993 340.216 242.107 340.269 242.28C340.349 242.48 340.469 242.7 340.629 242.94C340.789 243.193 341.036 243.407 341.369 243.58C341.702 243.767 342.169 243.86 342.769 243.86C343.396 243.86 343.922 243.773 344.349 243.6C344.776 243.44 345.096 243.147 345.309 242.72C345.536 242.307 345.649 241.733 345.649 241V239.64C345.329 240.053 344.909 240.4 344.389 240.68C343.869 240.947 343.216 241.08 342.429 241.08C341.682 241.08 341.042 240.953 340.509 240.7C339.976 240.433 339.536 240.08 339.189 239.64C338.856 239.187 338.602 238.673 338.429 238.1C338.269 237.527 338.176 236.927 338.149 236.3C338.136 235.927 338.136 235.56 338.149 235.2C338.176 234.573 338.269 233.973 338.429 233.4C338.602 232.827 338.856 232.313 339.189 231.86C339.536 231.407 339.976 231.053 340.509 230.8C341.042 230.533 341.682 230.4 342.429 230.4C343.229 230.4 343.889 230.553 344.409 230.86C344.942 231.153 345.376 231.513 345.709 231.94V231.08C345.709 230.947 345.749 230.833 345.829 230.74C345.922 230.647 346.036 230.6 346.169 230.6H347.089C347.222 230.6 347.336 230.647 347.429 230.74C347.522 230.833 347.569 230.947 347.569 231.08V240.78C347.569 241.673 347.416 242.467 347.109 243.16C346.816 243.853 346.322 244.4 345.629 244.8C344.949 245.2 344.029 245.4 342.869 245.4ZM342.829 239.48C343.496 239.48 344.029 239.327 344.429 239.02C344.842 238.713 345.142 238.327 345.329 237.86C345.529 237.393 345.636 236.92 345.649 236.44C345.662 236.253 345.669 236.027 345.669 235.76C345.669 235.48 345.662 235.247 345.649 235.06C345.636 234.58 345.529 234.107 345.329 233.64C345.142 233.173 344.842 232.787 344.429 232.48C344.029 232.173 343.496 232.02 342.829 232.02C342.162 232.02 341.629 232.173 341.229 232.48C340.829 232.773 340.542 233.167 340.369 233.66C340.196 234.14 340.096 234.66 340.069 235.22C340.056 235.567 340.056 235.92 340.069 236.28C340.096 236.84 340.196 237.367 340.369 237.86C340.542 238.34 340.829 238.733 341.229 239.04C341.629 239.333 342.162 239.48 342.829 239.48ZM354.683 241.2C353.309 241.2 352.216 240.78 351.403 239.94C350.589 239.087 350.143 237.927 350.063 236.46C350.049 236.287 350.043 236.067 350.043 235.8C350.043 235.52 350.049 235.293 350.063 235.12C350.116 234.173 350.336 233.347 350.723 232.64C351.109 231.92 351.636 231.367 352.303 230.98C352.983 230.593 353.776 230.4 354.683 230.4C355.696 230.4 356.543 230.613 357.223 231.04C357.916 231.467 358.443 232.073 358.803 232.86C359.163 233.647 359.342 234.567 359.342 235.62V235.96C359.342 236.107 359.296 236.22 359.203 236.3C359.123 236.38 359.016 236.42 358.883 236.42H351.963C351.963 236.433 351.963 236.46 351.963 236.5C351.963 236.54 351.963 236.573 351.963 236.6C351.989 237.147 352.109 237.66 352.323 238.14C352.536 238.607 352.843 238.987 353.243 239.28C353.643 239.573 354.123 239.72 354.683 239.72C355.163 239.72 355.563 239.647 355.883 239.5C356.203 239.353 356.463 239.193 356.663 239.02C356.863 238.833 356.996 238.693 357.063 238.6C357.183 238.427 357.276 238.327 357.343 238.3C357.409 238.26 357.516 238.24 357.663 238.24H358.623C358.756 238.24 358.863 238.28 358.943 238.36C359.036 238.427 359.076 238.527 359.062 238.66C359.049 238.86 358.943 239.107 358.743 239.4C358.543 239.68 358.256 239.96 357.883 240.24C357.509 240.52 357.056 240.753 356.523 240.94C355.989 241.113 355.376 241.2 354.683 241.2ZM351.963 235.04H357.443V234.98C357.443 234.38 357.329 233.847 357.103 233.38C356.889 232.913 356.576 232.547 356.163 232.28C355.749 232 355.256 231.86 354.683 231.86C354.109 231.86 353.616 232 353.203 232.28C352.803 232.547 352.496 232.913 352.283 233.38C352.069 233.847 351.963 234.38 351.963 234.98V235.04ZM362.194 241C362.061 241 361.947 240.96 361.854 240.88C361.774 240.787 361.734 240.673 361.734 240.54V231.08C361.734 230.947 361.774 230.833 361.854 230.74C361.947 230.647 362.061 230.6 362.194 230.6H363.114C363.247 230.6 363.361 230.647 363.454 230.74C363.547 230.833 363.594 230.947 363.594 231.08V231.96C363.861 231.507 364.227 231.167 364.694 230.94C365.161 230.713 365.721 230.6 366.374 230.6H367.174C367.307 230.6 367.414 230.647 367.494 230.74C367.574 230.82 367.614 230.927 367.614 231.06V231.88C367.614 232.013 367.574 232.12 367.494 232.2C367.414 232.28 367.307 232.32 367.174 232.32H365.974C365.254 232.32 364.687 232.533 364.274 232.96C363.861 233.373 363.654 233.94 363.654 234.66V240.54C363.654 240.673 363.607 240.787 363.514 240.88C363.421 240.96 363.307 241 363.174 241H362.194ZM373.396 241.2C372.383 241.2 371.536 241.007 370.856 240.62C370.176 240.233 369.656 239.7 369.296 239.02C368.936 238.327 368.736 237.54 368.696 236.66C368.683 236.433 368.676 236.147 368.676 235.8C368.676 235.44 368.683 235.153 368.696 234.94C368.736 234.047 368.936 233.26 369.296 232.58C369.67 231.9 370.196 231.367 370.876 230.98C371.556 230.593 372.396 230.4 373.396 230.4C374.396 230.4 375.236 230.593 375.916 230.98C376.596 231.367 377.116 231.9 377.476 232.58C377.85 233.26 378.056 234.047 378.096 234.94C378.11 235.153 378.116 235.44 378.116 235.8C378.116 236.147 378.11 236.433 378.096 236.66C378.056 237.54 377.856 238.327 377.496 239.02C377.136 239.7 376.616 240.233 375.936 240.62C375.256 241.007 374.41 241.2 373.396 241.2ZM373.396 239.66C374.223 239.66 374.883 239.4 375.376 238.88C375.87 238.347 376.136 237.573 376.176 236.56C376.19 236.36 376.196 236.107 376.196 235.8C376.196 235.493 376.19 235.24 376.176 235.04C376.136 234.027 375.87 233.26 375.376 232.74C374.883 232.207 374.223 231.94 373.396 231.94C372.57 231.94 371.903 232.207 371.396 232.74C370.903 233.26 370.643 234.027 370.616 235.04C370.603 235.24 370.596 235.493 370.596 235.8C370.596 236.107 370.603 236.36 370.616 236.56C370.643 237.573 370.903 238.347 371.396 238.88C371.903 239.4 372.57 239.66 373.396 239.66ZM369.116 241.56C369.01 241.56 368.916 241.52 368.836 241.44C368.756 241.36 368.716 241.267 368.716 241.16C368.716 241.12 368.716 241.08 368.716 241.04C368.73 241 368.756 240.953 368.796 240.9L376.776 230.36C376.816 230.307 376.87 230.247 376.936 230.18C377.003 230.1 377.103 230.06 377.236 230.06H377.656C377.763 230.06 377.856 230.1 377.936 230.18C378.016 230.26 378.056 230.353 378.056 230.46C378.056 230.473 378.05 230.507 378.036 230.56C378.036 230.6 378.016 230.653 377.976 230.72L369.996 241.26C369.956 241.313 369.903 241.373 369.836 241.44C369.783 241.52 369.69 241.56 369.556 241.56H369.116ZM381.081 241C380.947 241 380.834 240.96 380.741 240.88C380.661 240.787 380.621 240.673 380.621 240.54V231.08C380.621 230.947 380.661 230.833 380.741 230.74C380.834 230.647 380.947 230.6 381.081 230.6H382.001C382.134 230.6 382.247 230.647 382.341 230.74C382.434 230.833 382.481 230.947 382.481 231.08V231.96C382.747 231.507 383.114 231.167 383.581 230.94C384.047 230.713 384.607 230.6 385.261 230.6H386.061C386.194 230.6 386.301 230.647 386.381 230.74C386.461 230.82 386.501 230.927 386.501 231.06V231.88C386.501 232.013 386.461 232.12 386.381 232.2C386.301 232.28 386.194 232.32 386.061 232.32H384.861C384.141 232.32 383.574 232.533 383.161 232.96C382.747 233.373 382.541 233.94 382.541 234.66V240.54C382.541 240.673 382.494 240.787 382.401 240.88C382.307 240.96 382.194 241 382.061 241H381.081Z" fill="white"/>
<circle cx="191.5" cy="92.5" r="92.5" fill="white"/>
<path d="M220.96 39L212.993 53.3273H148L151.081 56.8343L189.895 100.99V136.01L163.194 144.015V147H220.813V144.015L194.112 136.01V100.982L232.918 56.8363L236 53.3273H217.817L224.648 41.054L220.96 39ZM157.321 57.5475H210.646L207.881 62.5093C206.643 62.0345 205.329 61.7901 204.004 61.7901C200.078 61.7901 196.617 63.8869 194.676 67.0128H165.641L157.321 57.5475ZM215.469 57.5475H226.678L218.359 67.0128H213.325C212.807 66.1773 212.179 65.4152 211.464 64.7468L215.469 57.5475ZM204.004 66.0102C207.76 66.0102 210.758 69.022 210.758 72.7857C210.758 76.5514 207.76 79.555 204.004 79.555C200.247 79.555 197.242 76.5514 197.242 72.7857C197.242 72.5575 197.256 72.3312 197.277 72.1091C197.787 72.9487 198.699 73.5132 199.752 73.5132C201.357 73.5132 202.664 72.2049 202.664 70.5992C202.664 68.9914 201.357 67.6914 199.752 67.6914C199.673 67.6914 199.597 67.6974 199.52 67.7035C200.71 66.65 202.275 66.0102 204.004 66.0102Z" fill="black"/>
</svg>
