<svg width="470" height="257" viewBox="0 0 470 257" fill="none" xmlns="http://www.w3.org/2000/svg">
<path d="M173.375 214C173.192 214 173.042 213.942 172.925 213.825C172.808 213.708 172.75 213.558 172.75 213.375V197.125C172.75 196.942 172.808 196.792 172.925 196.675C173.042 196.558 173.192 196.5 173.375 196.5H179.875C181.508 196.5 182.9 196.767 184.05 197.3C185.2 197.817 186.083 198.583 186.7 199.6C187.317 200.6 187.65 201.842 187.7 203.325C187.717 204.058 187.725 204.7 187.725 205.25C187.725 205.8 187.717 206.433 187.7 207.15C187.633 208.7 187.3 209.983 186.7 211C186.117 212.017 185.258 212.775 184.125 213.275C183.008 213.758 181.633 214 180 214H173.375ZM177.225 210.4H179.875C180.592 210.4 181.183 210.292 181.65 210.075C182.133 209.842 182.492 209.483 182.725 209C182.975 208.517 183.108 207.883 183.125 207.1C183.158 206.617 183.175 206.183 183.175 205.8C183.192 205.417 183.192 205.033 183.175 204.65C183.175 204.267 183.158 203.842 183.125 203.375C183.092 202.242 182.792 201.417 182.225 200.9C181.675 200.367 180.85 200.1 179.75 200.1H177.225V210.4ZM190.996 214C190.812 214 190.662 213.942 190.546 213.825C190.429 213.708 190.371 213.558 190.371 213.375V201.625C190.371 201.442 190.429 201.292 190.546 201.175C190.662 201.058 190.812 201 190.996 201H193.946C194.112 201 194.254 201.058 194.371 201.175C194.504 201.292 194.571 201.442 194.571 201.625V213.375C194.571 213.558 194.504 213.708 194.371 213.825C194.254 213.942 194.112 214 193.946 214H190.996ZM190.971 199.125C190.787 199.125 190.637 199.067 190.521 198.95C190.404 198.833 190.346 198.683 190.346 198.5V196.275C190.346 196.092 190.404 195.942 190.521 195.825C190.637 195.692 190.787 195.625 190.971 195.625H193.946C194.129 195.625 194.279 195.692 194.396 195.825C194.529 195.942 194.596 196.092 194.596 196.275V198.5C194.596 198.683 194.529 198.833 194.396 198.95C194.279 199.067 194.129 199.125 193.946 199.125H190.971ZM204.149 214C203.083 214 202.158 213.833 201.374 213.5C200.608 213.15 200.016 212.617 199.599 211.9C199.183 211.167 198.974 210.225 198.974 209.075V204.275H197.024C196.841 204.275 196.683 204.217 196.549 204.1C196.433 203.983 196.374 203.833 196.374 203.65V201.625C196.374 201.442 196.433 201.292 196.549 201.175C196.683 201.058 196.841 201 197.024 201H198.974V196.875C198.974 196.692 199.033 196.542 199.149 196.425C199.283 196.308 199.433 196.25 199.599 196.25H202.499C202.683 196.25 202.833 196.308 202.949 196.425C203.066 196.542 203.124 196.692 203.124 196.875V201H206.249C206.433 201 206.583 201.058 206.699 201.175C206.816 201.292 206.874 201.442 206.874 201.625V203.65C206.874 203.833 206.816 203.983 206.699 204.1C206.583 204.217 206.433 204.275 206.249 204.275H203.124V208.725C203.124 209.292 203.233 209.742 203.449 210.075C203.666 210.408 204.033 210.575 204.549 210.575H206.474C206.658 210.575 206.808 210.633 206.924 210.75C207.041 210.867 207.099 211.017 207.099 211.2V213.375C207.099 213.558 207.041 213.708 206.924 213.825C206.808 213.942 206.658 214 206.474 214H204.149ZM215.117 214C214.933 214 214.783 213.942 214.667 213.825C214.55 213.708 214.492 213.558 214.492 213.375V201.625C214.492 201.442 214.55 201.292 214.667 201.175C214.783 201.058 214.933 201 215.117 201H218.067C218.233 201 218.375 201.058 218.492 201.175C218.625 201.292 218.692 201.442 218.692 201.625V213.375C218.692 213.558 218.625 213.708 218.492 213.825C218.375 213.942 218.233 214 218.067 214H215.117ZM215.092 199.125C214.908 199.125 214.758 199.067 214.642 198.95C214.525 198.833 214.467 198.683 214.467 198.5V196.275C214.467 196.092 214.525 195.942 214.642 195.825C214.758 195.692 214.908 195.625 215.092 195.625H218.067C218.25 195.625 218.4 195.692 218.517 195.825C218.65 195.942 218.717 196.092 218.717 196.275V198.5C218.717 198.683 218.65 198.833 218.517 198.95C218.4 199.067 218.25 199.125 218.067 199.125H215.092ZM223.027 214C222.843 214 222.693 213.942 222.577 213.825C222.46 213.708 222.402 213.558 222.402 213.375V201.625C222.402 201.442 222.46 201.292 222.577 201.175C222.693 201.058 222.843 201 223.027 201H225.902C226.085 201 226.235 201.058 226.352 201.175C226.468 201.292 226.527 201.442 226.527 201.625V202.575C226.96 202.058 227.527 201.625 228.227 201.275C228.927 200.925 229.752 200.75 230.702 200.75C231.668 200.75 232.518 200.967 233.252 201.4C234.002 201.833 234.585 202.475 235.002 203.325C235.435 204.158 235.652 205.183 235.652 206.4V213.375C235.652 213.558 235.585 213.708 235.452 213.825C235.335 213.942 235.193 214 235.027 214H231.877C231.71 214 231.56 213.942 231.427 213.825C231.31 213.708 231.252 213.558 231.252 213.375V206.55C231.252 205.767 231.06 205.167 230.677 204.75C230.31 204.317 229.76 204.1 229.027 204.1C228.343 204.1 227.793 204.317 227.377 204.75C226.977 205.167 226.777 205.767 226.777 206.55V213.375C226.777 213.558 226.71 213.708 226.577 213.825C226.46 213.942 226.318 214 226.152 214H223.027ZM243.292 214.25C242.492 214.25 241.767 214.125 241.117 213.875C240.483 213.608 239.933 213.225 239.467 212.725C239.017 212.208 238.667 211.592 238.417 210.875C238.167 210.142 238.025 209.308 237.992 208.375C237.975 208.042 237.967 207.75 237.967 207.5C237.967 207.233 237.975 206.942 237.992 206.625C238.025 205.725 238.167 204.917 238.417 204.2C238.667 203.483 239.017 202.867 239.467 202.35C239.917 201.833 240.467 201.442 241.117 201.175C241.767 200.892 242.492 200.75 243.292 200.75C244.125 200.75 244.842 200.892 245.442 201.175C246.042 201.442 246.55 201.792 246.967 202.225V196.875C246.967 196.692 247.025 196.542 247.142 196.425C247.258 196.308 247.408 196.25 247.592 196.25H250.642C250.808 196.25 250.95 196.308 251.067 196.425C251.2 196.542 251.267 196.692 251.267 196.875V213.375C251.267 213.558 251.2 213.708 251.067 213.825C250.95 213.942 250.808 214 250.642 214H247.817C247.633 214 247.483 213.942 247.367 213.825C247.25 213.708 247.192 213.558 247.192 213.375V212.575C246.792 213.058 246.275 213.458 245.642 213.775C245.008 214.092 244.225 214.25 243.292 214.25ZM244.642 210.9C245.208 210.9 245.65 210.783 245.967 210.55C246.3 210.3 246.542 209.983 246.692 209.6C246.858 209.217 246.95 208.8 246.967 208.35C246.983 208.017 246.992 207.7 246.992 207.4C246.992 207.1 246.983 206.792 246.967 206.475C246.95 206.058 246.858 205.675 246.692 205.325C246.525 204.958 246.275 204.667 245.942 204.45C245.608 204.217 245.175 204.1 244.642 204.1C244.092 204.1 243.65 204.217 243.317 204.45C243 204.683 242.775 205 242.642 205.4C242.508 205.8 242.425 206.242 242.392 206.725C242.342 207.242 242.342 207.758 242.392 208.275C242.425 208.758 242.508 209.2 242.642 209.6C242.775 210 243 210.317 243.317 210.55C243.65 210.783 244.092 210.9 244.642 210.9ZM254.838 214C254.655 214 254.505 213.942 254.388 213.825C254.272 213.708 254.213 213.558 254.213 213.375V196.875C254.213 196.692 254.272 196.542 254.388 196.425C254.505 196.308 254.655 196.25 254.838 196.25H257.738C257.905 196.25 258.047 196.308 258.163 196.425C258.297 196.542 258.363 196.692 258.363 196.875V205.25L261.838 201.425C261.938 201.308 262.047 201.208 262.163 201.125C262.28 201.042 262.447 201 262.663 201H266.013C266.163 201 266.288 201.058 266.388 201.175C266.505 201.275 266.563 201.4 266.563 201.55C266.563 201.617 266.547 201.692 266.513 201.775C266.48 201.858 266.43 201.925 266.363 201.975L261.863 206.825L266.988 213.05C267.122 213.183 267.188 213.317 267.188 213.45C267.188 213.6 267.13 213.733 267.013 213.85C266.913 213.95 266.78 214 266.613 214H263.188C262.938 214 262.755 213.958 262.638 213.875C262.522 213.775 262.413 213.675 262.313 213.575L258.363 208.825V213.375C258.363 213.558 258.297 213.708 258.163 213.825C258.047 213.942 257.905 214 257.738 214H254.838ZM274.377 214.25C272.977 214.25 271.794 214.025 270.827 213.575C269.877 213.125 269.144 212.483 268.627 211.65C268.127 210.8 267.844 209.792 267.777 208.625C267.76 208.292 267.752 207.917 267.752 207.5C267.752 207.067 267.76 206.692 267.777 206.375C267.844 205.192 268.144 204.183 268.677 203.35C269.21 202.517 269.952 201.875 270.902 201.425C271.869 200.975 273.027 200.75 274.377 200.75C275.744 200.75 276.902 200.975 277.852 201.425C278.819 201.875 279.569 202.517 280.102 203.35C280.635 204.183 280.935 205.192 281.002 206.375C281.019 206.692 281.027 207.067 281.027 207.5C281.027 207.917 281.019 208.292 281.002 208.625C280.935 209.792 280.644 210.8 280.127 211.65C279.627 212.483 278.894 213.125 277.927 213.575C276.977 214.025 275.794 214.25 274.377 214.25ZM274.377 211.2C275.127 211.2 275.669 210.975 276.002 210.525C276.352 210.075 276.552 209.4 276.602 208.5C276.619 208.25 276.627 207.917 276.627 207.5C276.627 207.083 276.619 206.75 276.602 206.5C276.552 205.617 276.352 204.95 276.002 204.5C275.669 204.033 275.127 203.8 274.377 203.8C273.644 203.8 273.102 204.033 272.752 204.5C272.402 204.95 272.21 205.617 272.177 206.5C272.16 206.75 272.152 207.083 272.152 207.5C272.152 207.917 272.16 208.25 272.177 208.5C272.21 209.4 272.402 210.075 272.752 210.525C273.102 210.975 273.644 211.2 274.377 211.2ZM268.377 214.7C268.244 214.7 268.127 214.65 268.027 214.55C267.927 214.45 267.877 214.333 267.877 214.2C267.877 214.15 267.885 214.1 267.902 214.05C267.919 214 267.96 213.933 268.027 213.85L279.002 200.7C279.052 200.633 279.127 200.558 279.227 200.475C279.327 200.375 279.46 200.325 279.627 200.325H280.377C280.51 200.325 280.627 200.375 280.727 200.475C280.827 200.575 280.877 200.692 280.877 200.825C280.877 200.842 280.869 200.892 280.852 200.975C280.852 201.042 280.819 201.117 280.752 201.2L269.777 214.325C269.727 214.392 269.652 214.467 269.552 214.55C269.469 214.65 269.344 214.7 269.177 214.7H268.377ZM291.436 214.25C290.502 214.25 289.719 214.092 289.086 213.775C288.469 213.458 287.961 213.058 287.561 212.575V213.375C287.561 213.558 287.494 213.708 287.361 213.825C287.244 213.942 287.102 214 286.936 214H284.111C283.927 214 283.777 213.942 283.661 213.825C283.544 213.708 283.486 213.558 283.486 213.375V196.875C283.486 196.692 283.544 196.542 283.661 196.425C283.777 196.308 283.927 196.25 284.111 196.25H287.161C287.344 196.25 287.494 196.308 287.611 196.425C287.727 196.542 287.786 196.692 287.786 196.875V202.225C288.186 201.792 288.686 201.442 289.286 201.175C289.902 200.892 290.619 200.75 291.436 200.75C292.269 200.75 293.002 200.892 293.636 201.175C294.286 201.442 294.836 201.833 295.286 202.35C295.736 202.867 296.086 203.483 296.336 204.2C296.586 204.917 296.727 205.725 296.761 206.625C296.777 206.942 296.786 207.233 296.786 207.5C296.786 207.75 296.777 208.042 296.761 208.375C296.727 209.308 296.577 210.142 296.311 210.875C296.061 211.592 295.711 212.208 295.261 212.725C294.811 213.225 294.269 213.608 293.636 213.875C293.002 214.125 292.269 214.25 291.436 214.25ZM290.086 210.9C290.652 210.9 291.094 210.783 291.411 210.55C291.727 210.317 291.952 210 292.086 209.6C292.236 209.2 292.327 208.758 292.361 208.275C292.394 207.758 292.394 207.242 292.361 206.725C292.327 206.242 292.236 205.8 292.086 205.4C291.952 205 291.727 204.683 291.411 204.45C291.094 204.217 290.652 204.1 290.086 204.1C289.569 204.1 289.144 204.217 288.811 204.45C288.477 204.667 288.227 204.958 288.061 205.325C287.894 205.675 287.802 206.058 287.786 206.475C287.769 206.792 287.761 207.1 287.761 207.4C287.761 207.7 287.769 208.017 287.786 208.35C287.802 208.8 287.886 209.217 288.036 209.6C288.186 209.983 288.427 210.3 288.761 210.55C289.094 210.783 289.536 210.9 290.086 210.9Z" fill="white"/>
<path d="M5.26 244C5.12667 244 5.01333 243.96 4.92 243.88C4.84 243.787 4.8 243.673 4.8 243.54V231.78H0.96C0.826667 231.78 0.713333 231.74 0.62 231.66C0.54 231.567 0.5 231.453 0.5 231.32V230.48C0.5 230.333 0.54 230.22 0.62 230.14C0.713333 230.047 0.826667 230 0.96 230H10.6C10.7467 230 10.86 230.047 10.94 230.14C11.0333 230.22 11.08 230.333 11.08 230.48V231.32C11.08 231.453 11.0333 231.567 10.94 231.66C10.86 231.74 10.7467 231.78 10.6 231.78H6.78V243.54C6.78 243.673 6.73333 243.787 6.64 243.88C6.56 243.96 6.44667 244 6.3 244H5.26ZM14.1261 244.2C13.4594 244.2 12.8528 244.067 12.3061 243.8C11.7594 243.533 11.3194 243.173 10.9861 242.72C10.6528 242.267 10.4861 241.753 10.4861 241.18C10.4861 240.26 10.8594 239.527 11.6061 238.98C12.3528 238.433 13.3261 238.073 14.5261 237.9L17.5061 237.48V236.9C17.5061 236.26 17.3194 235.76 16.9461 235.4C16.5861 235.04 15.9928 234.86 15.1661 234.86C14.5661 234.86 14.0794 234.98 13.7061 235.22C13.3461 235.46 13.0928 235.767 12.9461 236.14C12.8661 236.34 12.7261 236.44 12.5261 236.44H11.6261C11.4794 236.44 11.3661 236.4 11.2861 236.32C11.2194 236.227 11.1861 236.12 11.1861 236C11.1861 235.8 11.2594 235.553 11.4061 235.26C11.5661 234.967 11.8061 234.68 12.1261 234.4C12.4461 234.12 12.8528 233.887 13.3461 233.7C13.8528 233.5 14.4661 233.4 15.1861 233.4C15.9861 233.4 16.6594 233.507 17.2061 233.72C17.7528 233.92 18.1794 234.193 18.4861 234.54C18.8061 234.887 19.0328 235.28 19.1661 235.72C19.3128 236.16 19.3861 236.607 19.3861 237.06V243.54C19.3861 243.673 19.3394 243.787 19.2461 243.88C19.1661 243.96 19.0594 244 18.9261 244H18.0061C17.8594 244 17.7461 243.96 17.6661 243.88C17.5861 243.787 17.5461 243.673 17.5461 243.54V242.68C17.3728 242.92 17.1394 243.16 16.8461 243.4C16.5528 243.627 16.1861 243.82 15.7461 243.98C15.3061 244.127 14.7661 244.2 14.1261 244.2ZM14.5461 242.7C15.0928 242.7 15.5928 242.587 16.0461 242.36C16.4994 242.12 16.8528 241.753 17.1061 241.26C17.3728 240.767 17.5061 240.147 17.5061 239.4V238.84L15.1861 239.18C14.2394 239.313 13.5261 239.54 13.0461 239.86C12.5661 240.167 12.3261 240.56 12.3261 241.04C12.3261 241.413 12.4328 241.727 12.6461 241.98C12.8728 242.22 13.1528 242.4 13.4861 242.52C13.8328 242.64 14.1861 242.7 14.5461 242.7ZM26.5213 248.4C25.6146 248.4 24.8679 248.28 24.2813 248.04C23.7079 247.8 23.2546 247.507 22.9213 247.16C22.6013 246.827 22.3679 246.487 22.2213 246.14C22.0879 245.807 22.0146 245.54 22.0013 245.34C21.9879 245.207 22.0279 245.093 22.1213 245C22.2279 244.907 22.3413 244.86 22.4613 244.86H23.4212C23.5413 244.86 23.6413 244.887 23.7212 244.94C23.8013 244.993 23.8679 245.107 23.9213 245.28C24.0013 245.48 24.1213 245.7 24.2813 245.94C24.4413 246.193 24.6879 246.407 25.0213 246.58C25.3546 246.767 25.8213 246.86 26.4213 246.86C27.0479 246.86 27.5746 246.773 28.0013 246.6C28.4279 246.44 28.7479 246.147 28.9613 245.72C29.1879 245.307 29.3013 244.733 29.3013 244V242.64C28.9813 243.053 28.5613 243.4 28.0413 243.68C27.5213 243.947 26.8679 244.08 26.0813 244.08C25.3346 244.08 24.6946 243.953 24.1613 243.7C23.6279 243.433 23.1879 243.08 22.8413 242.64C22.5079 242.187 22.2546 241.673 22.0813 241.1C21.9213 240.527 21.8279 239.927 21.8013 239.3C21.7879 238.927 21.7879 238.56 21.8013 238.2C21.8279 237.573 21.9213 236.973 22.0813 236.4C22.2546 235.827 22.5079 235.313 22.8413 234.86C23.1879 234.407 23.6279 234.053 24.1613 233.8C24.6946 233.533 25.3346 233.4 26.0813 233.4C26.8813 233.4 27.5413 233.553 28.0613 233.86C28.5946 234.153 29.0279 234.513 29.3613 234.94V234.08C29.3613 233.947 29.4013 233.833 29.4813 233.74C29.5746 233.647 29.6879 233.6 29.8213 233.6H30.7413C30.8746 233.6 30.9879 233.647 31.0813 233.74C31.1746 233.833 31.2213 233.947 31.2213 234.08V243.78C31.2213 244.673 31.0679 245.467 30.7613 246.16C30.4679 246.853 29.9746 247.4 29.2813 247.8C28.6013 248.2 27.6813 248.4 26.5213 248.4ZM26.4813 242.48C27.1479 242.48 27.6813 242.327 28.0813 242.02C28.4946 241.713 28.7946 241.327 28.9813 240.86C29.1813 240.393 29.2879 239.92 29.3013 239.44C29.3146 239.253 29.3213 239.027 29.3213 238.76C29.3213 238.48 29.3146 238.247 29.3013 238.06C29.2879 237.58 29.1813 237.107 28.9813 236.64C28.7946 236.173 28.4946 235.787 28.0813 235.48C27.6813 235.173 27.1479 235.02 26.4813 235.02C25.8146 235.02 25.2813 235.173 24.8813 235.48C24.4813 235.773 24.1946 236.167 24.0213 236.66C23.8479 237.14 23.7479 237.66 23.7212 238.22C23.7079 238.567 23.7079 238.92 23.7212 239.28C23.7479 239.84 23.8479 240.367 24.0213 240.86C24.1946 241.34 24.4813 241.733 24.8813 242.04C25.2813 242.333 25.8146 242.48 26.4813 242.48ZM43.2372 244.2C41.8639 244.2 40.7705 243.78 39.9572 242.94C39.1439 242.087 38.6972 240.927 38.6172 239.46C38.6039 239.287 38.5972 239.067 38.5972 238.8C38.5972 238.52 38.6039 238.293 38.6172 238.12C38.6705 237.173 38.8905 236.347 39.2772 235.64C39.6639 234.92 40.1905 234.367 40.8572 233.98C41.5372 233.593 42.3305 233.4 43.2372 233.4C44.2505 233.4 45.0972 233.613 45.7772 234.04C46.4705 234.467 46.9972 235.073 47.3572 235.86C47.7172 236.647 47.8972 237.567 47.8972 238.62V238.96C47.8972 239.107 47.8505 239.22 47.7572 239.3C47.6772 239.38 47.5705 239.42 47.4372 239.42H40.5172C40.5172 239.433 40.5172 239.46 40.5172 239.5C40.5172 239.54 40.5172 239.573 40.5172 239.6C40.5439 240.147 40.6639 240.66 40.8772 241.14C41.0905 241.607 41.3972 241.987 41.7972 242.28C42.1972 242.573 42.6772 242.72 43.2372 242.72C43.7172 242.72 44.1172 242.647 44.4372 242.5C44.7572 242.353 45.0172 242.193 45.2172 242.02C45.4172 241.833 45.5505 241.693 45.6172 241.6C45.7372 241.427 45.8305 241.327 45.8972 241.3C45.9639 241.26 46.0705 241.24 46.2172 241.24H47.1772C47.3105 241.24 47.4172 241.28 47.4972 241.36C47.5905 241.427 47.6305 241.527 47.6172 241.66C47.6039 241.86 47.4972 242.107 47.2972 242.4C47.0972 242.68 46.8105 242.96 46.4372 243.24C46.0639 243.52 45.6105 243.753 45.0772 243.94C44.5439 244.113 43.9305 244.2 43.2372 244.2ZM40.5172 238.04H45.9972V237.98C45.9972 237.38 45.8839 236.847 45.6572 236.38C45.4439 235.913 45.1305 235.547 44.7172 235.28C44.3039 235 43.8105 234.86 43.2372 234.86C42.6639 234.86 42.1705 235 41.7572 235.28C41.3572 235.547 41.0505 235.913 40.8372 236.38C40.6239 236.847 40.5172 237.38 40.5172 237.98V238.04ZM50.7486 244C50.6153 244 50.5019 243.96 50.4086 243.88C50.3286 243.787 50.2886 243.673 50.2886 243.54V234.06C50.2886 233.927 50.3286 233.82 50.4086 233.74C50.5019 233.647 50.6153 233.6 50.7486 233.6H51.6886C51.8219 233.6 51.9286 233.647 52.0086 233.74C52.1019 233.82 52.1486 233.927 52.1486 234.06V234.94C52.4953 234.487 52.9286 234.12 53.4486 233.84C53.9819 233.547 54.6619 233.4 55.4886 233.4C56.3553 233.4 57.0886 233.593 57.6886 233.98C58.3019 234.353 58.7619 234.88 59.0686 235.56C59.3753 236.227 59.5286 237.007 59.5286 237.9V243.54C59.5286 243.673 59.4886 243.787 59.4086 243.88C59.3286 243.96 59.2219 244 59.0886 244H58.0886C57.9553 244 57.8419 243.96 57.7486 243.88C57.6686 243.787 57.6286 243.673 57.6286 243.54V238C57.6286 237.067 57.4019 236.34 56.9486 235.82C56.4953 235.287 55.8286 235.02 54.9486 235.02C54.1219 235.02 53.4553 235.287 52.9486 235.82C52.4553 236.34 52.2086 237.067 52.2086 238V243.54C52.2086 243.673 52.1619 243.787 52.0686 243.88C51.9886 243.96 51.8819 244 51.7486 244H50.7486ZM67.7798 244C67.6465 244 67.5332 243.96 67.4398 243.88C67.3598 243.787 67.3198 243.673 67.3198 243.54V234.06C67.3198 233.927 67.3598 233.82 67.4398 233.74C67.5332 233.647 67.6465 233.6 67.7798 233.6H68.6798C68.8132 233.6 68.9198 233.647 68.9998 233.74C69.0932 233.82 69.1398 233.927 69.1398 234.06V234.76C69.4465 234.347 69.8332 234.02 70.2998 233.78C70.7665 233.527 71.3265 233.4 71.9798 233.4C73.4865 233.387 74.5532 234 75.1798 235.24C75.4865 234.68 75.9332 234.233 76.5198 233.9C77.1065 233.567 77.7732 233.4 78.5198 233.4C79.2132 233.4 79.8398 233.56 80.3998 233.88C80.9732 234.2 81.4198 234.687 81.7398 235.34C82.0732 235.98 82.2398 236.787 82.2398 237.76V243.54C82.2398 243.673 82.1932 243.787 82.0998 243.88C82.0198 243.96 81.9132 244 81.7798 244H80.8398C80.7065 244 80.5932 243.96 80.4998 243.88C80.4198 243.787 80.3798 243.673 80.3798 243.54V237.94C80.3798 237.193 80.2732 236.607 80.0598 236.18C79.8465 235.753 79.5598 235.453 79.1998 235.28C78.8398 235.107 78.4465 235.02 78.0198 235.02C77.6732 235.02 77.3198 235.107 76.9598 235.28C76.5998 235.453 76.2998 235.753 76.0598 236.18C75.8332 236.607 75.7198 237.193 75.7198 237.94V243.54C75.7198 243.673 75.6732 243.787 75.5798 243.88C75.4998 243.96 75.3932 244 75.2598 244H74.3198C74.1865 244 74.0732 243.96 73.9798 243.88C73.8998 243.787 73.8598 243.673 73.8598 243.54V237.94C73.8598 237.193 73.7465 236.607 73.5198 236.18C73.2932 235.753 72.9998 235.453 72.6398 235.28C72.2798 235.107 71.8998 235.02 71.4998 235.02C71.1532 235.02 70.7998 235.107 70.4398 235.28C70.0798 235.453 69.7798 235.753 69.5398 236.18C69.3132 236.607 69.1998 237.187 69.1998 237.92V243.54C69.1998 243.673 69.1532 243.787 69.0598 243.88C68.9798 243.96 68.8732 244 68.7398 244H67.7798ZM88.9733 244.2C88.1199 244.2 87.3933 244.013 86.7933 243.64C86.2066 243.253 85.7599 242.72 85.4533 242.04C85.1466 241.36 84.9933 240.58 84.9933 239.7V234.06C84.9933 233.927 85.0333 233.82 85.1133 233.74C85.2066 233.647 85.3199 233.6 85.4533 233.6H86.4533C86.5866 233.6 86.6933 233.647 86.7733 233.74C86.8666 233.82 86.9133 233.927 86.9133 234.06V239.6C86.9133 241.587 87.7799 242.58 89.5133 242.58C90.3399 242.58 90.9999 242.32 91.4933 241.8C91.9999 241.267 92.2533 240.533 92.2533 239.6V234.06C92.2533 233.927 92.2933 233.82 92.3733 233.74C92.4666 233.647 92.5799 233.6 92.7133 233.6H93.6933C93.8399 233.6 93.9533 233.647 94.0333 233.74C94.1133 233.82 94.1533 233.927 94.1533 234.06V243.54C94.1533 243.673 94.1133 243.787 94.0333 243.88C93.9533 243.96 93.8399 244 93.6933 244H92.7733C92.6399 244 92.5266 243.96 92.4333 243.88C92.3533 243.787 92.3133 243.673 92.3133 243.54V242.66C91.9533 243.127 91.5133 243.5 90.9933 243.78C90.4866 244.06 89.8133 244.2 88.9733 244.2ZM97.6045 244C97.4712 244 97.3579 243.96 97.2645 243.88C97.1845 243.787 97.1445 243.673 97.1445 243.54V230.26C97.1445 230.127 97.1845 230.02 97.2645 229.94C97.3579 229.847 97.4712 229.8 97.6045 229.8H98.5445C98.6912 229.8 98.8045 229.847 98.8845 229.94C98.9645 230.02 99.0045 230.127 99.0045 230.26V243.54C99.0045 243.673 98.9645 243.787 98.8845 243.88C98.8045 243.96 98.6912 244 98.5445 244H97.6045ZM106.128 244.2C104.754 244.2 103.661 243.78 102.848 242.94C102.034 242.087 101.588 240.927 101.508 239.46C101.494 239.287 101.488 239.067 101.488 238.8C101.488 238.52 101.494 238.293 101.508 238.12C101.561 237.173 101.781 236.347 102.168 235.64C102.554 234.92 103.081 234.367 103.748 233.98C104.428 233.593 105.221 233.4 106.128 233.4C107.141 233.4 107.988 233.613 108.668 234.04C109.361 234.467 109.888 235.073 110.248 235.86C110.608 236.647 110.788 237.567 110.788 238.62V238.96C110.788 239.107 110.741 239.22 110.648 239.3C110.568 239.38 110.461 239.42 110.328 239.42H103.408C103.408 239.433 103.408 239.46 103.408 239.5C103.408 239.54 103.408 239.573 103.408 239.6C103.434 240.147 103.554 240.66 103.768 241.14C103.981 241.607 104.288 241.987 104.688 242.28C105.088 242.573 105.568 242.72 106.128 242.72C106.608 242.72 107.008 242.647 107.328 242.5C107.648 242.353 107.908 242.193 108.108 242.02C108.308 241.833 108.441 241.693 108.508 241.6C108.628 241.427 108.721 241.327 108.788 241.3C108.854 241.26 108.961 241.24 109.108 241.24H110.068C110.201 241.24 110.308 241.28 110.388 241.36C110.481 241.427 110.521 241.527 110.508 241.66C110.494 241.86 110.388 242.107 110.188 242.4C109.988 242.68 109.701 242.96 109.328 243.24C108.954 243.52 108.501 243.753 107.968 243.94C107.434 244.113 106.821 244.2 106.128 244.2ZM103.408 238.04H108.888V237.98C108.888 237.38 108.774 236.847 108.548 236.38C108.334 235.913 108.021 235.547 107.608 235.28C107.194 235 106.701 234.86 106.128 234.86C105.554 234.86 105.061 235 104.648 235.28C104.248 235.547 103.941 235.913 103.728 236.38C103.514 236.847 103.408 237.38 103.408 237.98V238.04ZM113.659 247.8C113.526 247.8 113.413 247.753 113.319 247.66C113.239 247.58 113.199 247.473 113.199 247.34V234.06C113.199 233.927 113.239 233.82 113.319 233.74C113.413 233.647 113.526 233.6 113.659 233.6H114.579C114.713 233.6 114.819 233.647 114.899 233.74C114.993 233.82 115.039 233.927 115.039 234.06V234.94C115.359 234.5 115.786 234.133 116.319 233.84C116.853 233.547 117.519 233.4 118.319 233.4C119.066 233.4 119.699 233.527 120.219 233.78C120.753 234.033 121.186 234.38 121.519 234.82C121.866 235.26 122.126 235.76 122.299 236.32C122.473 236.88 122.566 237.48 122.579 238.12C122.593 238.333 122.599 238.56 122.599 238.8C122.599 239.04 122.593 239.267 122.579 239.48C122.566 240.107 122.473 240.707 122.299 241.28C122.126 241.84 121.866 242.34 121.519 242.78C121.186 243.207 120.753 243.553 120.219 243.82C119.699 244.073 119.066 244.2 118.319 244.2C117.546 244.2 116.893 244.06 116.359 243.78C115.839 243.487 115.413 243.127 115.079 242.7V247.34C115.079 247.473 115.039 247.58 114.959 247.66C114.879 247.753 114.766 247.8 114.619 247.8H113.659ZM117.899 242.58C118.593 242.58 119.133 242.433 119.519 242.14C119.919 241.833 120.206 241.44 120.379 240.96C120.553 240.467 120.653 239.94 120.679 239.38C120.693 238.993 120.693 238.607 120.679 238.22C120.653 237.66 120.553 237.14 120.379 236.66C120.206 236.167 119.919 235.773 119.519 235.48C119.133 235.173 118.593 235.02 117.899 235.02C117.246 235.02 116.713 235.173 116.299 235.48C115.899 235.787 115.599 236.18 115.399 236.66C115.213 237.127 115.106 237.607 115.079 238.1C115.066 238.313 115.059 238.567 115.059 238.86C115.059 239.153 115.066 239.413 115.079 239.64C115.093 240.107 115.199 240.567 115.399 241.02C115.613 241.473 115.926 241.847 116.339 242.14C116.753 242.433 117.273 242.58 117.899 242.58ZM129.353 244.2C128.34 244.2 127.493 244.007 126.813 243.62C126.133 243.233 125.613 242.7 125.253 242.02C124.893 241.327 124.693 240.54 124.653 239.66C124.64 239.433 124.633 239.147 124.633 238.8C124.633 238.44 124.64 238.153 124.653 237.94C124.693 237.047 124.893 236.26 125.253 235.58C125.627 234.9 126.153 234.367 126.833 233.98C127.513 233.593 128.353 233.4 129.353 233.4C130.353 233.4 131.193 233.593 131.873 233.98C132.553 234.367 133.073 234.9 133.433 235.58C133.807 236.26 134.013 237.047 134.053 237.94C134.067 238.153 134.073 238.44 134.073 238.8C134.073 239.147 134.067 239.433 134.053 239.66C134.013 240.54 133.813 241.327 133.453 242.02C133.093 242.7 132.573 243.233 131.893 243.62C131.213 244.007 130.367 244.2 129.353 244.2ZM129.353 242.66C130.18 242.66 130.84 242.4 131.333 241.88C131.827 241.347 132.093 240.573 132.133 239.56C132.147 239.36 132.153 239.107 132.153 238.8C132.153 238.493 132.147 238.24 132.133 238.04C132.093 237.027 131.827 236.26 131.333 235.74C130.84 235.207 130.18 234.94 129.353 234.94C128.527 234.94 127.86 235.207 127.353 235.74C126.86 236.26 126.6 237.027 126.573 238.04C126.56 238.24 126.553 238.493 126.553 238.8C126.553 239.107 126.56 239.36 126.573 239.56C126.6 240.573 126.86 241.347 127.353 241.88C127.86 242.4 128.527 242.66 129.353 242.66ZM140.178 244.2C139.431 244.2 138.791 244.107 138.258 243.92C137.724 243.733 137.291 243.507 136.958 243.24C136.624 242.973 136.371 242.707 136.198 242.44C136.038 242.173 135.951 241.96 135.938 241.8C135.924 241.653 135.971 241.54 136.078 241.46C136.184 241.38 136.291 241.34 136.398 241.34H137.278C137.358 241.34 137.418 241.353 137.458 241.38C137.511 241.393 137.578 241.447 137.658 241.54C137.831 241.727 138.024 241.913 138.238 242.1C138.451 242.287 138.711 242.44 139.018 242.56C139.338 242.68 139.731 242.74 140.198 242.74C140.878 242.74 141.438 242.613 141.878 242.36C142.318 242.093 142.538 241.707 142.538 241.2C142.538 240.867 142.444 240.6 142.258 240.4C142.084 240.2 141.764 240.02 141.298 239.86C140.844 239.7 140.218 239.533 139.418 239.36C138.618 239.173 137.984 238.947 137.518 238.68C137.051 238.4 136.718 238.073 136.518 237.7C136.318 237.313 136.218 236.88 136.218 236.4C136.218 235.907 136.364 235.433 136.658 234.98C136.951 234.513 137.378 234.133 137.938 233.84C138.511 233.547 139.224 233.4 140.078 233.4C140.771 233.4 141.364 233.487 141.858 233.66C142.351 233.833 142.758 234.053 143.078 234.32C143.398 234.573 143.638 234.827 143.798 235.08C143.958 235.333 144.044 235.547 144.058 235.72C144.071 235.853 144.031 235.967 143.938 236.06C143.844 236.14 143.738 236.18 143.618 236.18H142.778C142.684 236.18 142.604 236.16 142.538 236.12C142.484 236.08 142.431 236.033 142.378 235.98C142.244 235.807 142.084 235.633 141.898 235.46C141.724 235.287 141.491 235.147 141.198 235.04C140.918 234.92 140.544 234.86 140.078 234.86C139.411 234.86 138.911 235 138.578 235.28C138.244 235.56 138.078 235.913 138.078 236.34C138.078 236.593 138.151 236.82 138.298 237.02C138.444 237.22 138.724 237.4 139.138 237.56C139.551 237.72 140.164 237.893 140.978 238.08C141.858 238.253 142.551 238.487 143.058 238.78C143.564 239.073 143.924 239.413 144.138 239.8C144.351 240.187 144.458 240.633 144.458 241.14C144.458 241.7 144.291 242.213 143.958 242.68C143.638 243.147 143.158 243.52 142.518 243.8C141.891 244.067 141.111 244.2 140.178 244.2ZM150.913 244.2C149.54 244.2 148.446 243.78 147.633 242.94C146.82 242.087 146.373 240.927 146.293 239.46C146.28 239.287 146.273 239.067 146.273 238.8C146.273 238.52 146.28 238.293 146.293 238.12C146.346 237.173 146.566 236.347 146.953 235.64C147.34 234.92 147.866 234.367 148.533 233.98C149.213 233.593 150.006 233.4 150.913 233.4C151.926 233.4 152.773 233.613 153.453 234.04C154.146 234.467 154.673 235.073 155.033 235.86C155.393 236.647 155.573 237.567 155.573 238.62V238.96C155.573 239.107 155.526 239.22 155.433 239.3C155.353 239.38 155.246 239.42 155.113 239.42H148.193C148.193 239.433 148.193 239.46 148.193 239.5C148.193 239.54 148.193 239.573 148.193 239.6C148.22 240.147 148.34 240.66 148.553 241.14C148.766 241.607 149.073 241.987 149.473 242.28C149.873 242.573 150.353 242.72 150.913 242.72C151.393 242.72 151.793 242.647 152.113 242.5C152.433 242.353 152.693 242.193 152.893 242.02C153.093 241.833 153.226 241.693 153.293 241.6C153.413 241.427 153.506 241.327 153.573 241.3C153.64 241.26 153.746 241.24 153.893 241.24H154.853C154.986 241.24 155.093 241.28 155.173 241.36C155.266 241.427 155.306 241.527 155.293 241.66C155.28 241.86 155.173 242.107 154.973 242.4C154.773 242.68 154.486 242.96 154.113 243.24C153.74 243.52 153.286 243.753 152.753 243.94C152.22 244.113 151.606 244.2 150.913 244.2ZM148.193 238.04H153.673V237.98C153.673 237.38 153.56 236.847 153.333 236.38C153.12 235.913 152.806 235.547 152.393 235.28C151.98 235 151.486 234.86 150.913 234.86C150.34 234.86 149.846 235 149.433 235.28C149.033 235.547 148.726 235.913 148.513 236.38C148.3 236.847 148.193 237.38 148.193 237.98V238.04ZM163.327 244C163.193 244 163.08 243.96 162.987 243.88C162.907 243.787 162.867 243.673 162.867 243.54V234.06C162.867 233.927 162.907 233.82 162.987 233.74C163.08 233.647 163.193 233.6 163.327 233.6H164.227C164.36 233.6 164.467 233.647 164.547 233.74C164.64 233.82 164.687 233.927 164.687 234.06V234.76C164.993 234.347 165.38 234.02 165.847 233.78C166.313 233.527 166.873 233.4 167.527 233.4C169.033 233.387 170.1 234 170.727 235.24C171.033 234.68 171.48 234.233 172.067 233.9C172.653 233.567 173.32 233.4 174.067 233.4C174.76 233.4 175.387 233.56 175.947 233.88C176.52 234.2 176.967 234.687 177.287 235.34C177.62 235.98 177.787 236.787 177.787 237.76V243.54C177.787 243.673 177.74 243.787 177.647 243.88C177.567 243.96 177.46 244 177.327 244H176.387C176.253 244 176.14 243.96 176.047 243.88C175.967 243.787 175.927 243.673 175.927 243.54V237.94C175.927 237.193 175.82 236.607 175.607 236.18C175.393 235.753 175.107 235.453 174.747 235.28C174.387 235.107 173.993 235.02 173.567 235.02C173.22 235.02 172.867 235.107 172.507 235.28C172.147 235.453 171.847 235.753 171.607 236.18C171.38 236.607 171.267 237.193 171.267 237.94V243.54C171.267 243.673 171.22 243.787 171.127 243.88C171.047 243.96 170.94 244 170.807 244H169.867C169.733 244 169.62 243.96 169.527 243.88C169.447 243.787 169.407 243.673 169.407 243.54V237.94C169.407 237.193 169.293 236.607 169.067 236.18C168.84 235.753 168.547 235.453 168.187 235.28C167.827 235.107 167.447 235.02 167.047 235.02C166.7 235.02 166.347 235.107 165.987 235.28C165.627 235.453 165.327 235.753 165.087 236.18C164.86 236.607 164.747 237.187 164.747 237.92V243.54C164.747 243.673 164.7 243.787 164.607 243.88C164.527 243.96 164.42 244 164.287 244H163.327ZM184.78 244.2C183.407 244.2 182.313 243.78 181.5 242.94C180.687 242.087 180.24 240.927 180.16 239.46C180.147 239.287 180.14 239.067 180.14 238.8C180.14 238.52 180.147 238.293 180.16 238.12C180.213 237.173 180.433 236.347 180.82 235.64C181.207 234.92 181.733 234.367 182.4 233.98C183.08 233.593 183.873 233.4 184.78 233.4C185.793 233.4 186.64 233.613 187.32 234.04C188.013 234.467 188.54 235.073 188.9 235.86C189.26 236.647 189.44 237.567 189.44 238.62V238.96C189.44 239.107 189.393 239.22 189.3 239.3C189.22 239.38 189.113 239.42 188.98 239.42H182.06C182.06 239.433 182.06 239.46 182.06 239.5C182.06 239.54 182.06 239.573 182.06 239.6C182.087 240.147 182.207 240.66 182.42 241.14C182.633 241.607 182.94 241.987 183.34 242.28C183.74 242.573 184.22 242.72 184.78 242.72C185.26 242.72 185.66 242.647 185.98 242.5C186.3 242.353 186.56 242.193 186.76 242.02C186.96 241.833 187.093 241.693 187.16 241.6C187.28 241.427 187.373 241.327 187.44 241.3C187.507 241.26 187.613 241.24 187.76 241.24H188.72C188.853 241.24 188.96 241.28 189.04 241.36C189.133 241.427 189.173 241.527 189.16 241.66C189.147 241.86 189.04 242.107 188.84 242.4C188.64 242.68 188.353 242.96 187.98 243.24C187.607 243.52 187.153 243.753 186.62 243.94C186.087 244.113 185.473 244.2 184.78 244.2ZM182.06 238.04H187.54V237.98C187.54 237.38 187.427 236.847 187.2 236.38C186.987 235.913 186.673 235.547 186.26 235.28C185.847 235 185.353 234.86 184.78 234.86C184.207 234.86 183.713 235 183.3 235.28C182.9 235.547 182.593 235.913 182.38 236.38C182.167 236.847 182.06 237.38 182.06 237.98V238.04ZM195.632 244.2C194.898 244.2 194.265 244.073 193.732 243.82C193.198 243.553 192.758 243.2 192.412 242.76C192.078 242.307 191.825 241.793 191.652 241.22C191.492 240.647 191.398 240.04 191.372 239.4C191.358 239.187 191.352 238.987 191.352 238.8C191.352 238.613 191.358 238.413 191.372 238.2C191.398 237.573 191.492 236.973 191.652 236.4C191.825 235.827 192.078 235.313 192.412 234.86C192.758 234.407 193.198 234.053 193.732 233.8C194.265 233.533 194.898 233.4 195.632 233.4C196.418 233.4 197.072 233.54 197.592 233.82C198.112 234.1 198.538 234.447 198.872 234.86V230.26C198.872 230.127 198.912 230.02 198.992 229.94C199.085 229.847 199.198 229.8 199.332 229.8H200.292C200.425 229.8 200.532 229.847 200.612 229.94C200.705 230.02 200.752 230.127 200.752 230.26V243.54C200.752 243.673 200.705 243.787 200.612 243.88C200.532 243.96 200.425 244 200.292 244H199.392C199.245 244 199.132 243.96 199.052 243.88C198.972 243.787 198.932 243.673 198.932 243.54V242.7C198.598 243.127 198.165 243.487 197.632 243.78C197.098 244.06 196.432 244.2 195.632 244.2ZM196.052 242.58C196.718 242.58 197.252 242.427 197.652 242.12C198.052 241.813 198.352 241.427 198.552 240.96C198.752 240.48 198.858 239.993 198.872 239.5C198.885 239.287 198.892 239.033 198.892 238.74C198.892 238.433 198.885 238.173 198.872 237.96C198.858 237.493 198.745 237.033 198.532 236.58C198.332 236.127 198.025 235.753 197.612 235.46C197.212 235.167 196.692 235.02 196.052 235.02C195.372 235.02 194.832 235.173 194.432 235.48C194.032 235.773 193.745 236.167 193.572 236.66C193.398 237.14 193.298 237.66 193.272 238.22C193.258 238.607 193.258 238.993 193.272 239.38C193.298 239.94 193.398 240.467 193.572 240.96C193.745 241.44 194.032 241.833 194.432 242.14C194.832 242.433 195.372 242.58 196.052 242.58ZM212.888 244.2C211.875 244.2 211.028 244.007 210.348 243.62C209.668 243.233 209.148 242.7 208.788 242.02C208.428 241.327 208.228 240.54 208.188 239.66C208.175 239.433 208.168 239.147 208.168 238.8C208.168 238.44 208.175 238.153 208.188 237.94C208.228 237.047 208.428 236.26 208.788 235.58C209.162 234.9 209.688 234.367 210.368 233.98C211.048 233.593 211.888 233.4 212.888 233.4C213.888 233.4 214.728 233.593 215.408 233.98C216.088 234.367 216.608 234.9 216.968 235.58C217.342 236.26 217.548 237.047 217.588 237.94C217.602 238.153 217.608 238.44 217.608 238.8C217.608 239.147 217.602 239.433 217.588 239.66C217.548 240.54 217.348 241.327 216.988 242.02C216.628 242.7 216.108 243.233 215.428 243.62C214.748 244.007 213.902 244.2 212.888 244.2ZM212.888 242.66C213.715 242.66 214.375 242.4 214.868 241.88C215.362 241.347 215.628 240.573 215.668 239.56C215.682 239.36 215.688 239.107 215.688 238.8C215.688 238.493 215.682 238.24 215.668 238.04C215.628 237.027 215.362 236.26 214.868 235.74C214.375 235.207 213.715 234.94 212.888 234.94C212.062 234.94 211.395 235.207 210.888 235.74C210.395 236.26 210.135 237.027 210.108 238.04C210.095 238.24 210.088 238.493 210.088 238.8C210.088 239.107 210.095 239.36 210.108 239.56C210.135 240.573 210.395 241.347 210.888 241.88C211.395 242.4 212.062 242.66 212.888 242.66ZM224.373 248.4C223.466 248.4 222.719 248.28 222.133 248.04C221.559 247.8 221.106 247.507 220.773 247.16C220.453 246.827 220.219 246.487 220.073 246.14C219.939 245.807 219.866 245.54 219.853 245.34C219.839 245.207 219.879 245.093 219.973 245C220.079 244.907 220.193 244.86 220.313 244.86H221.273C221.393 244.86 221.493 244.887 221.573 244.94C221.653 244.993 221.719 245.107 221.773 245.28C221.853 245.48 221.973 245.7 222.133 245.94C222.293 246.193 222.539 246.407 222.873 246.58C223.206 246.767 223.673 246.86 224.273 246.86C224.899 246.86 225.426 246.773 225.853 246.6C226.279 246.44 226.599 246.147 226.813 245.72C227.039 245.307 227.153 244.733 227.153 244V242.64C226.833 243.053 226.413 243.4 225.893 243.68C225.373 243.947 224.719 244.08 223.933 244.08C223.186 244.08 222.546 243.953 222.013 243.7C221.479 243.433 221.039 243.08 220.693 242.64C220.359 242.187 220.106 241.673 219.933 241.1C219.773 240.527 219.679 239.927 219.653 239.3C219.639 238.927 219.639 238.56 219.653 238.2C219.679 237.573 219.773 236.973 219.933 236.4C220.106 235.827 220.359 235.313 220.693 234.86C221.039 234.407 221.479 234.053 222.013 233.8C222.546 233.533 223.186 233.4 223.933 233.4C224.733 233.4 225.393 233.553 225.913 233.86C226.446 234.153 226.879 234.513 227.213 234.94V234.08C227.213 233.947 227.253 233.833 227.333 233.74C227.426 233.647 227.539 233.6 227.673 233.6H228.593C228.726 233.6 228.839 233.647 228.933 233.74C229.026 233.833 229.073 233.947 229.073 234.08V243.78C229.073 244.673 228.919 245.467 228.613 246.16C228.319 246.853 227.826 247.4 227.133 247.8C226.453 248.2 225.533 248.4 224.373 248.4ZM224.333 242.48C224.999 242.48 225.533 242.327 225.933 242.02C226.346 241.713 226.646 241.327 226.833 240.86C227.033 240.393 227.139 239.92 227.153 239.44C227.166 239.253 227.173 239.027 227.173 238.76C227.173 238.48 227.166 238.247 227.153 238.06C227.139 237.58 227.033 237.107 226.833 236.64C226.646 236.173 226.346 235.787 225.933 235.48C225.533 235.173 224.999 235.02 224.333 235.02C223.666 235.02 223.133 235.173 222.733 235.48C222.333 235.773 222.046 236.167 221.873 236.66C221.699 237.14 221.599 237.66 221.573 238.22C221.559 238.567 221.559 238.92 221.573 239.28C221.599 239.84 221.699 240.367 221.873 240.86C222.046 241.34 222.333 241.733 222.733 242.04C223.133 242.333 223.666 242.48 224.333 242.48ZM240.549 244.2C239.802 244.2 239.162 244.107 238.629 243.92C238.095 243.733 237.662 243.507 237.329 243.24C236.995 242.973 236.742 242.707 236.569 242.44C236.409 242.173 236.322 241.96 236.309 241.8C236.295 241.653 236.342 241.54 236.449 241.46C236.555 241.38 236.662 241.34 236.769 241.34H237.649C237.729 241.34 237.789 241.353 237.829 241.38C237.882 241.393 237.949 241.447 238.029 241.54C238.202 241.727 238.395 241.913 238.609 242.1C238.822 242.287 239.082 242.44 239.389 242.56C239.709 242.68 240.102 242.74 240.569 242.74C241.249 242.74 241.809 242.613 242.249 242.36C242.689 242.093 242.909 241.707 242.909 241.2C242.909 240.867 242.815 240.6 242.629 240.4C242.455 240.2 242.135 240.02 241.669 239.86C241.215 239.7 240.589 239.533 239.789 239.36C238.989 239.173 238.355 238.947 237.889 238.68C237.422 238.4 237.089 238.073 236.889 237.7C236.689 237.313 236.589 236.88 236.589 236.4C236.589 235.907 236.735 235.433 237.029 234.98C237.322 234.513 237.749 234.133 238.309 233.84C238.882 233.547 239.595 233.4 240.449 233.4C241.142 233.4 241.735 233.487 242.229 233.66C242.722 233.833 243.129 234.053 243.449 234.32C243.769 234.573 244.009 234.827 244.169 235.08C244.329 235.333 244.415 235.547 244.429 235.72C244.442 235.853 244.402 235.967 244.309 236.06C244.215 236.14 244.109 236.18 243.989 236.18H243.149C243.055 236.18 242.975 236.16 242.909 236.12C242.855 236.08 242.802 236.033 242.749 235.98C242.615 235.807 242.455 235.633 242.269 235.46C242.095 235.287 241.862 235.147 241.569 235.04C241.289 234.92 240.915 234.86 240.449 234.86C239.782 234.86 239.282 235 238.949 235.28C238.615 235.56 238.449 235.913 238.449 236.34C238.449 236.593 238.522 236.82 238.669 237.02C238.815 237.22 239.095 237.4 239.509 237.56C239.922 237.72 240.535 237.893 241.349 238.08C242.229 238.253 242.922 238.487 243.429 238.78C243.935 239.073 244.295 239.413 244.509 239.8C244.722 240.187 244.829 240.633 244.829 241.14C244.829 241.7 244.662 242.213 244.329 242.68C244.009 243.147 243.529 243.52 242.889 243.8C242.262 244.067 241.482 244.2 240.549 244.2ZM247.604 244C247.471 244 247.357 243.96 247.264 243.88C247.184 243.787 247.144 243.673 247.144 243.54V234.06C247.144 233.927 247.184 233.82 247.264 233.74C247.357 233.647 247.471 233.6 247.604 233.6H248.564C248.697 233.6 248.804 233.647 248.884 233.74C248.964 233.82 249.004 233.927 249.004 234.06V243.54C249.004 243.673 248.964 243.787 248.884 243.88C248.804 243.96 248.697 244 248.564 244H247.604ZM247.444 231.66C247.311 231.66 247.197 231.62 247.104 231.54C247.024 231.447 246.984 231.333 246.984 231.2V230.12C246.984 229.987 247.024 229.88 247.104 229.8C247.197 229.707 247.311 229.66 247.444 229.66H248.704C248.837 229.66 248.944 229.707 249.024 229.8C249.117 229.88 249.164 229.987 249.164 230.12V231.2C249.164 231.333 249.117 231.447 249.024 231.54C248.944 231.62 248.837 231.66 248.704 231.66H247.444ZM256.248 248.4C255.341 248.4 254.594 248.28 254.008 248.04C253.434 247.8 252.981 247.507 252.648 247.16C252.328 246.827 252.094 246.487 251.948 246.14C251.814 245.807 251.741 245.54 251.728 245.34C251.714 245.207 251.754 245.093 251.848 245C251.954 244.907 252.068 244.86 252.188 244.86H253.148C253.268 244.86 253.368 244.887 253.448 244.94C253.528 244.993 253.594 245.107 253.648 245.28C253.728 245.48 253.848 245.7 254.008 245.94C254.168 246.193 254.414 246.407 254.748 246.58C255.081 246.767 255.548 246.86 256.148 246.86C256.774 246.86 257.301 246.773 257.728 246.6C258.154 246.44 258.474 246.147 258.688 245.72C258.914 245.307 259.028 244.733 259.028 244V242.64C258.708 243.053 258.288 243.4 257.768 243.68C257.248 243.947 256.594 244.08 255.808 244.08C255.061 244.08 254.421 243.953 253.888 243.7C253.354 243.433 252.914 243.08 252.568 242.64C252.234 242.187 251.981 241.673 251.808 241.1C251.648 240.527 251.554 239.927 251.528 239.3C251.514 238.927 251.514 238.56 251.528 238.2C251.554 237.573 251.648 236.973 251.808 236.4C251.981 235.827 252.234 235.313 252.568 234.86C252.914 234.407 253.354 234.053 253.888 233.8C254.421 233.533 255.061 233.4 255.808 233.4C256.608 233.4 257.268 233.553 257.788 233.86C258.321 234.153 258.754 234.513 259.088 234.94V234.08C259.088 233.947 259.128 233.833 259.208 233.74C259.301 233.647 259.414 233.6 259.548 233.6H260.468C260.601 233.6 260.714 233.647 260.808 233.74C260.901 233.833 260.948 233.947 260.948 234.08V243.78C260.948 244.673 260.794 245.467 260.488 246.16C260.194 246.853 259.701 247.4 259.008 247.8C258.328 248.2 257.408 248.4 256.248 248.4ZM256.208 242.48C256.874 242.48 257.408 242.327 257.808 242.02C258.221 241.713 258.521 241.327 258.708 240.86C258.908 240.393 259.014 239.92 259.028 239.44C259.041 239.253 259.048 239.027 259.048 238.76C259.048 238.48 259.041 238.247 259.028 238.06C259.014 237.58 258.908 237.107 258.708 236.64C258.521 236.173 258.221 235.787 257.808 235.48C257.408 235.173 256.874 235.02 256.208 235.02C255.541 235.02 255.008 235.173 254.608 235.48C254.208 235.773 253.921 236.167 253.748 236.66C253.574 237.14 253.474 237.66 253.448 238.22C253.434 238.567 253.434 238.92 253.448 239.28C253.474 239.84 253.574 240.367 253.748 240.86C253.921 241.34 254.208 241.733 254.608 242.04C255.008 242.333 255.541 242.48 256.208 242.48ZM269.284 244C269.15 244 269.037 243.96 268.944 243.88C268.864 243.787 268.824 243.673 268.824 243.54V234.06C268.824 233.927 268.864 233.82 268.944 233.74C269.037 233.647 269.15 233.6 269.284 233.6H270.224C270.357 233.6 270.464 233.647 270.544 233.74C270.637 233.82 270.684 233.927 270.684 234.06V234.94C271.03 234.487 271.464 234.12 271.984 233.84C272.517 233.547 273.197 233.4 274.024 233.4C274.89 233.4 275.624 233.593 276.224 233.98C276.837 234.353 277.297 234.88 277.604 235.56C277.91 236.227 278.064 237.007 278.064 237.9V243.54C278.064 243.673 278.024 243.787 277.944 243.88C277.864 243.96 277.757 244 277.624 244H276.624C276.49 244 276.377 243.96 276.284 243.88C276.204 243.787 276.164 243.673 276.164 243.54V238C276.164 237.067 275.937 236.34 275.484 235.82C275.03 235.287 274.364 235.02 273.484 235.02C272.657 235.02 271.99 235.287 271.484 235.82C270.99 236.34 270.744 237.067 270.744 238V243.54C270.744 243.673 270.697 243.787 270.604 243.88C270.524 243.96 270.417 244 270.284 244H269.284ZM285.093 244.2C283.719 244.2 282.626 243.78 281.813 242.94C280.999 242.087 280.553 240.927 280.473 239.46C280.459 239.287 280.453 239.067 280.453 238.8C280.453 238.52 280.459 238.293 280.473 238.12C280.526 237.173 280.746 236.347 281.133 235.64C281.519 234.92 282.046 234.367 282.713 233.98C283.393 233.593 284.186 233.4 285.093 233.4C286.106 233.4 286.953 233.613 287.633 234.04C288.326 234.467 288.853 235.073 289.213 235.86C289.573 236.647 289.753 237.567 289.753 238.62V238.96C289.753 239.107 289.706 239.22 289.613 239.3C289.533 239.38 289.426 239.42 289.293 239.42H282.373C282.373 239.433 282.373 239.46 282.373 239.5C282.373 239.54 282.373 239.573 282.373 239.6C282.399 240.147 282.519 240.66 282.733 241.14C282.946 241.607 283.253 241.987 283.653 242.28C284.053 242.573 284.533 242.72 285.093 242.72C285.573 242.72 285.973 242.647 286.293 242.5C286.613 242.353 286.873 242.193 287.073 242.02C287.273 241.833 287.406 241.693 287.473 241.6C287.593 241.427 287.686 241.327 287.753 241.3C287.819 241.26 287.926 241.24 288.073 241.24H289.033C289.166 241.24 289.273 241.28 289.353 241.36C289.446 241.427 289.486 241.527 289.473 241.66C289.459 241.86 289.353 242.107 289.153 242.4C288.953 242.68 288.666 242.96 288.293 243.24C287.919 243.52 287.466 243.753 286.933 243.94C286.399 244.113 285.786 244.2 285.093 244.2ZM282.373 238.04H287.853V237.98C287.853 237.38 287.739 236.847 287.513 236.38C287.299 235.913 286.986 235.547 286.573 235.28C286.159 235 285.666 234.86 285.093 234.86C284.519 234.86 284.026 235 283.613 235.28C283.213 235.547 282.906 235.913 282.693 236.38C282.479 236.847 282.373 237.38 282.373 237.98V238.04ZM290.444 247.8C290.311 247.8 290.204 247.753 290.124 247.66C290.031 247.58 289.984 247.473 289.984 247.34V246.66C289.984 246.527 290.031 246.413 290.124 246.32C290.204 246.24 290.311 246.2 290.444 246.2H290.724C291.204 246.2 291.557 246.107 291.784 245.92C292.011 245.747 292.157 245.513 292.224 245.22C292.304 244.927 292.344 244.593 292.344 244.22V234.06C292.344 233.927 292.384 233.82 292.464 233.74C292.557 233.647 292.671 233.6 292.804 233.6H293.784C293.917 233.6 294.024 233.647 294.104 233.74C294.197 233.82 294.244 233.927 294.244 234.06V244.24C294.244 244.947 294.131 245.567 293.904 246.1C293.691 246.633 293.337 247.047 292.844 247.34C292.351 247.647 291.677 247.8 290.824 247.8H290.444ZM292.644 231.66C292.511 231.66 292.397 231.62 292.304 231.54C292.224 231.447 292.184 231.333 292.184 231.2V230.12C292.184 229.987 292.224 229.88 292.304 229.8C292.397 229.707 292.511 229.66 292.644 229.66H293.924C294.057 229.66 294.171 229.707 294.264 229.8C294.357 229.88 294.404 229.987 294.404 230.12V231.2C294.404 231.333 294.357 231.447 294.264 231.54C294.171 231.62 294.057 231.66 293.924 231.66H292.644ZM305.755 244C305.008 244 304.402 243.86 303.935 243.58C303.468 243.287 303.128 242.88 302.915 242.36C302.702 241.827 302.595 241.2 302.595 240.48V235.2H301.035C300.902 235.2 300.788 235.16 300.695 235.08C300.615 234.987 300.575 234.873 300.575 234.74V234.06C300.575 233.927 300.615 233.82 300.695 233.74C300.788 233.647 300.902 233.6 301.035 233.6H302.595V230.26C302.595 230.127 302.635 230.02 302.715 229.94C302.808 229.847 302.922 229.8 303.055 229.8H303.995C304.128 229.8 304.235 229.847 304.315 229.94C304.408 230.02 304.455 230.127 304.455 230.26V233.6H306.935C307.068 233.6 307.175 233.647 307.255 233.74C307.348 233.82 307.395 233.927 307.395 234.06V234.74C307.395 234.873 307.348 234.987 307.255 235.08C307.175 235.16 307.068 235.2 306.935 235.2H304.455V240.34C304.455 240.967 304.562 241.46 304.775 241.82C304.988 242.18 305.368 242.36 305.915 242.36H307.135C307.268 242.36 307.375 242.407 307.455 242.5C307.548 242.58 307.595 242.687 307.595 242.82V243.54C307.595 243.673 307.548 243.787 307.455 243.88C307.375 243.96 307.268 244 307.135 244H305.755ZM312.407 244.2C311.741 244.2 311.134 244.067 310.587 243.8C310.041 243.533 309.601 243.173 309.267 242.72C308.934 242.267 308.767 241.753 308.767 241.18C308.767 240.26 309.141 239.527 309.887 238.98C310.634 238.433 311.607 238.073 312.807 237.9L315.787 237.48V236.9C315.787 236.26 315.601 235.76 315.227 235.4C314.867 235.04 314.274 234.86 313.447 234.86C312.847 234.86 312.361 234.98 311.987 235.22C311.627 235.46 311.374 235.767 311.227 236.14C311.147 236.34 311.007 236.44 310.807 236.44H309.907C309.761 236.44 309.647 236.4 309.567 236.32C309.501 236.227 309.467 236.12 309.467 236C309.467 235.8 309.541 235.553 309.687 235.26C309.847 234.967 310.087 234.68 310.407 234.4C310.727 234.12 311.134 233.887 311.627 233.7C312.134 233.5 312.747 233.4 313.467 233.4C314.267 233.4 314.941 233.507 315.487 233.72C316.034 233.92 316.461 234.193 316.767 234.54C317.087 234.887 317.314 235.28 317.447 235.72C317.594 236.16 317.667 236.607 317.667 237.06V243.54C317.667 243.673 317.621 243.787 317.527 243.88C317.447 243.96 317.341 244 317.207 244H316.287C316.141 244 316.027 243.96 315.947 243.88C315.867 243.787 315.827 243.673 315.827 243.54V242.68C315.654 242.92 315.421 243.16 315.127 243.4C314.834 243.627 314.467 243.82 314.027 243.98C313.587 244.127 313.047 244.2 312.407 244.2ZM312.827 242.7C313.374 242.7 313.874 242.587 314.327 242.36C314.781 242.12 315.134 241.753 315.387 241.26C315.654 240.767 315.787 240.147 315.787 239.4V238.84L313.467 239.18C312.521 239.313 311.807 239.54 311.327 239.86C310.847 240.167 310.607 240.56 310.607 241.04C310.607 241.413 310.714 241.727 310.927 241.98C311.154 242.22 311.434 242.4 311.767 242.52C312.114 242.64 312.467 242.7 312.827 242.7ZM321.023 244C320.889 244 320.776 243.96 320.683 243.88C320.603 243.787 320.563 243.673 320.563 243.54V230.26C320.563 230.127 320.603 230.02 320.683 229.94C320.776 229.847 320.889 229.8 321.023 229.8H321.963C322.096 229.8 322.203 229.847 322.283 229.94C322.376 230.02 322.423 230.127 322.423 230.26V237.22L326.363 233.94C326.523 233.807 326.643 233.72 326.723 233.68C326.816 233.627 326.963 233.6 327.163 233.6H328.223C328.343 233.6 328.443 233.64 328.523 233.72C328.603 233.8 328.643 233.9 328.643 234.02C328.643 234.073 328.623 234.133 328.583 234.2C328.556 234.267 328.496 234.333 328.403 234.4L323.783 238.24L328.903 243.22C329.063 243.353 329.143 243.473 329.143 243.58C329.143 243.7 329.103 243.8 329.023 243.88C328.943 243.96 328.843 244 328.723 244H327.683C327.483 244 327.336 243.98 327.243 243.94C327.149 243.887 327.029 243.793 326.883 243.66L322.423 239.4V243.54C322.423 243.673 322.376 243.787 322.283 243.88C322.203 243.96 322.096 244 321.963 244H321.023ZM339.192 244C338.446 244 337.839 243.86 337.372 243.58C336.906 243.287 336.566 242.88 336.352 242.36C336.139 241.827 336.032 241.2 336.032 240.48V235.2H334.472C334.339 235.2 334.226 235.16 334.132 235.08C334.052 234.987 334.012 234.873 334.012 234.74V234.06C334.012 233.927 334.052 233.82 334.132 233.74C334.226 233.647 334.339 233.6 334.472 233.6H336.032V230.26C336.032 230.127 336.072 230.02 336.152 229.94C336.246 229.847 336.359 229.8 336.492 229.8H337.432C337.566 229.8 337.672 229.847 337.752 229.94C337.846 230.02 337.892 230.127 337.892 230.26V233.6H340.372C340.506 233.6 340.612 233.647 340.692 233.74C340.786 233.82 340.832 233.927 340.832 234.06V234.74C340.832 234.873 340.786 234.987 340.692 235.08C340.612 235.16 340.506 235.2 340.372 235.2H337.892V240.34C337.892 240.967 337.999 241.46 338.212 241.82C338.426 242.18 338.806 242.36 339.352 242.36H340.572C340.706 242.36 340.812 242.407 340.892 242.5C340.986 242.58 341.032 242.687 341.032 242.82V243.54C341.032 243.673 340.986 243.787 340.892 243.88C340.812 243.96 340.706 244 340.572 244H339.192ZM343.405 244C343.272 244 343.158 243.96 343.065 243.88C342.985 243.787 342.945 243.673 342.945 243.54V234.06C342.945 233.927 342.985 233.82 343.065 233.74C343.158 233.647 343.272 233.6 343.405 233.6H344.365C344.498 233.6 344.605 233.647 344.685 233.74C344.765 233.82 344.805 233.927 344.805 234.06V243.54C344.805 243.673 344.765 243.787 344.685 243.88C344.605 243.96 344.498 244 344.365 244H343.405ZM343.245 231.66C343.112 231.66 342.998 231.62 342.905 231.54C342.825 231.447 342.785 231.333 342.785 231.2V230.12C342.785 229.987 342.825 229.88 342.905 229.8C342.998 229.707 343.112 229.66 343.245 229.66H344.505C344.638 229.66 344.745 229.707 344.825 229.8C344.918 229.88 344.965 229.987 344.965 230.12V231.2C344.965 231.333 344.918 231.447 344.825 231.54C344.745 231.62 344.638 231.66 344.505 231.66H343.245ZM348.269 244C348.135 244 348.022 243.96 347.929 243.88C347.849 243.787 347.809 243.673 347.809 243.54V230.26C347.809 230.127 347.849 230.02 347.929 229.94C348.022 229.847 348.135 229.8 348.269 229.8H349.209C349.355 229.8 349.469 229.847 349.549 229.94C349.629 230.02 349.669 230.127 349.669 230.26V243.54C349.669 243.673 349.629 243.787 349.549 243.88C349.469 243.96 349.355 244 349.209 244H348.269ZM358.034 247.8C357.901 247.8 357.788 247.753 357.694 247.66C357.614 247.58 357.574 247.473 357.574 247.34V234.06C357.574 233.927 357.614 233.82 357.694 233.74C357.788 233.647 357.901 233.6 358.034 233.6H358.954C359.088 233.6 359.194 233.647 359.274 233.74C359.368 233.82 359.414 233.927 359.414 234.06V234.94C359.734 234.5 360.161 234.133 360.694 233.84C361.228 233.547 361.894 233.4 362.694 233.4C363.441 233.4 364.074 233.527 364.594 233.78C365.128 234.033 365.561 234.38 365.894 234.82C366.241 235.26 366.501 235.76 366.674 236.32C366.848 236.88 366.941 237.48 366.954 238.12C366.968 238.333 366.974 238.56 366.974 238.8C366.974 239.04 366.968 239.267 366.954 239.48C366.941 240.107 366.848 240.707 366.674 241.28C366.501 241.84 366.241 242.34 365.894 242.78C365.561 243.207 365.128 243.553 364.594 243.82C364.074 244.073 363.441 244.2 362.694 244.2C361.921 244.2 361.268 244.06 360.734 243.78C360.214 243.487 359.788 243.127 359.454 242.7V247.34C359.454 247.473 359.414 247.58 359.334 247.66C359.254 247.753 359.141 247.8 358.994 247.8H358.034ZM362.274 242.58C362.968 242.58 363.508 242.433 363.894 242.14C364.294 241.833 364.581 241.44 364.754 240.96C364.928 240.467 365.028 239.94 365.054 239.38C365.068 238.993 365.068 238.607 365.054 238.22C365.028 237.66 364.928 237.14 364.754 236.66C364.581 236.167 364.294 235.773 363.894 235.48C363.508 235.173 362.968 235.02 362.274 235.02C361.621 235.02 361.088 235.173 360.674 235.48C360.274 235.787 359.974 236.18 359.774 236.66C359.588 237.127 359.481 237.607 359.454 238.1C359.441 238.313 359.434 238.567 359.434 238.86C359.434 239.153 359.441 239.413 359.454 239.64C359.468 240.107 359.574 240.567 359.774 241.02C359.988 241.473 360.301 241.847 360.714 242.14C361.128 242.433 361.648 242.58 362.274 242.58ZM369.948 244C369.815 244 369.702 243.96 369.608 243.88C369.528 243.787 369.488 243.673 369.488 243.54V230.26C369.488 230.127 369.528 230.02 369.608 229.94C369.702 229.847 369.815 229.8 369.948 229.8H370.888C371.035 229.8 371.148 229.847 371.228 229.94C371.308 230.02 371.348 230.127 371.348 230.26V243.54C371.348 243.673 371.308 243.787 371.228 243.88C371.148 243.96 371.035 244 370.888 244H369.948ZM377.232 244.2C376.565 244.2 375.958 244.067 375.412 243.8C374.865 243.533 374.425 243.173 374.092 242.72C373.758 242.267 373.592 241.753 373.592 241.18C373.592 240.26 373.965 239.527 374.712 238.98C375.458 238.433 376.432 238.073 377.632 237.9L380.612 237.48V236.9C380.612 236.26 380.425 235.76 380.052 235.4C379.692 235.04 379.098 234.86 378.272 234.86C377.672 234.86 377.185 234.98 376.812 235.22C376.452 235.46 376.198 235.767 376.052 236.14C375.972 236.34 375.832 236.44 375.632 236.44H374.732C374.585 236.44 374.472 236.4 374.392 236.32C374.325 236.227 374.292 236.12 374.292 236C374.292 235.8 374.365 235.553 374.512 235.26C374.672 234.967 374.912 234.68 375.232 234.4C375.552 234.12 375.958 233.887 376.452 233.7C376.958 233.5 377.572 233.4 378.292 233.4C379.092 233.4 379.765 233.507 380.312 233.72C380.858 233.92 381.285 234.193 381.592 234.54C381.912 234.887 382.138 235.28 382.272 235.72C382.418 236.16 382.492 236.607 382.492 237.06V243.54C382.492 243.673 382.445 243.787 382.352 243.88C382.272 243.96 382.165 244 382.032 244H381.112C380.965 244 380.852 243.96 380.772 243.88C380.692 243.787 380.652 243.673 380.652 243.54V242.68C380.478 242.92 380.245 243.16 379.952 243.4C379.658 243.627 379.292 243.82 378.852 243.98C378.412 244.127 377.872 244.2 377.232 244.2ZM377.652 242.7C378.198 242.7 378.698 242.587 379.152 242.36C379.605 242.12 379.958 241.753 380.212 241.26C380.478 240.767 380.612 240.147 380.612 239.4V238.84L378.292 239.18C377.345 239.313 376.632 239.54 376.152 239.86C375.672 240.167 375.432 240.56 375.432 241.04C375.432 241.413 375.538 241.727 375.752 241.98C375.978 242.22 376.258 242.4 376.592 242.52C376.938 242.64 377.292 242.7 377.652 242.7ZM388.967 244.2C388.22 244.2 387.58 244.107 387.047 243.92C386.513 243.733 386.08 243.507 385.747 243.24C385.413 242.973 385.16 242.707 384.987 242.44C384.827 242.173 384.74 241.96 384.727 241.8C384.713 241.653 384.76 241.54 384.867 241.46C384.973 241.38 385.08 241.34 385.187 241.34H386.067C386.147 241.34 386.207 241.353 386.247 241.38C386.3 241.393 386.367 241.447 386.447 241.54C386.62 241.727 386.813 241.913 387.027 242.1C387.24 242.287 387.5 242.44 387.807 242.56C388.127 242.68 388.52 242.74 388.987 242.74C389.667 242.74 390.227 242.613 390.667 242.36C391.107 242.093 391.327 241.707 391.327 241.2C391.327 240.867 391.233 240.6 391.047 240.4C390.873 240.2 390.553 240.02 390.087 239.86C389.633 239.7 389.007 239.533 388.207 239.36C387.407 239.173 386.773 238.947 386.307 238.68C385.84 238.4 385.507 238.073 385.307 237.7C385.107 237.313 385.007 236.88 385.007 236.4C385.007 235.907 385.153 235.433 385.447 234.98C385.74 234.513 386.167 234.133 386.727 233.84C387.3 233.547 388.013 233.4 388.867 233.4C389.56 233.4 390.153 233.487 390.647 233.66C391.14 233.833 391.547 234.053 391.867 234.32C392.187 234.573 392.427 234.827 392.587 235.08C392.747 235.333 392.833 235.547 392.847 235.72C392.86 235.853 392.82 235.967 392.727 236.06C392.633 236.14 392.527 236.18 392.407 236.18H391.567C391.473 236.18 391.393 236.16 391.327 236.12C391.273 236.08 391.22 236.033 391.167 235.98C391.033 235.807 390.873 235.633 390.687 235.46C390.513 235.287 390.28 235.147 389.987 235.04C389.707 234.92 389.333 234.86 388.867 234.86C388.2 234.86 387.7 235 387.367 235.28C387.033 235.56 386.867 235.913 386.867 236.34C386.867 236.593 386.94 236.82 387.087 237.02C387.233 237.22 387.513 237.4 387.927 237.56C388.34 237.72 388.953 237.893 389.767 238.08C390.647 238.253 391.34 238.487 391.847 238.78C392.353 239.073 392.713 239.413 392.927 239.8C393.14 240.187 393.247 240.633 393.247 241.14C393.247 241.7 393.08 242.213 392.747 242.68C392.427 243.147 391.947 243.52 391.307 243.8C390.68 244.067 389.9 244.2 388.967 244.2ZM399.603 244C398.856 244 398.249 243.86 397.783 243.58C397.316 243.287 396.976 242.88 396.763 242.36C396.549 241.827 396.443 241.2 396.443 240.48V235.2H394.883C394.749 235.2 394.636 235.16 394.543 235.08C394.463 234.987 394.423 234.873 394.423 234.74V234.06C394.423 233.927 394.463 233.82 394.543 233.74C394.636 233.647 394.749 233.6 394.883 233.6H396.443V230.26C396.443 230.127 396.483 230.02 396.562 229.94C396.656 229.847 396.769 229.8 396.903 229.8H397.843C397.976 229.8 398.083 229.847 398.163 229.94C398.256 230.02 398.303 230.127 398.303 230.26V233.6H400.783C400.916 233.6 401.023 233.647 401.103 233.74C401.196 233.82 401.243 233.927 401.243 234.06V234.74C401.243 234.873 401.196 234.987 401.103 235.08C401.023 235.16 400.916 235.2 400.783 235.2H398.303V240.34C398.303 240.967 398.409 241.46 398.623 241.82C398.836 242.18 399.216 242.36 399.763 242.36H400.983C401.116 242.36 401.223 242.407 401.303 242.5C401.396 242.58 401.443 242.687 401.443 242.82V243.54C401.443 243.673 401.396 243.787 401.303 243.88C401.223 243.96 401.116 244 400.983 244H399.603ZM403.815 244C403.682 244 403.568 243.96 403.475 243.88C403.395 243.787 403.355 243.673 403.355 243.54V234.06C403.355 233.927 403.395 233.82 403.475 233.74C403.568 233.647 403.682 233.6 403.815 233.6H404.775C404.908 233.6 405.015 233.647 405.095 233.74C405.175 233.82 405.215 233.927 405.215 234.06V243.54C405.215 243.673 405.175 243.787 405.095 243.88C405.015 243.96 404.908 244 404.775 244H403.815ZM403.655 231.66C403.522 231.66 403.408 231.62 403.315 231.54C403.235 231.447 403.195 231.333 403.195 231.2V230.12C403.195 229.987 403.235 229.88 403.315 229.8C403.408 229.707 403.522 229.66 403.655 229.66H404.915C405.048 229.66 405.155 229.707 405.235 229.8C405.328 229.88 405.375 229.987 405.375 230.12V231.2C405.375 231.333 405.328 231.447 405.235 231.54C405.155 231.62 405.048 231.66 404.915 231.66H403.655ZM408.679 244C408.545 244 408.432 243.96 408.339 243.88C408.259 243.787 408.219 243.673 408.219 243.54V230.26C408.219 230.127 408.259 230.02 408.339 229.94C408.432 229.847 408.545 229.8 408.679 229.8H409.619C409.752 229.8 409.859 229.847 409.939 229.94C410.032 230.02 410.079 230.127 410.079 230.26V237.22L414.019 233.94C414.179 233.807 414.299 233.72 414.379 233.68C414.472 233.627 414.619 233.6 414.819 233.6H415.879C415.999 233.6 416.099 233.64 416.179 233.72C416.259 233.8 416.299 233.9 416.299 234.02C416.299 234.073 416.279 234.133 416.239 234.2C416.212 234.267 416.152 234.333 416.059 234.4L411.439 238.24L416.559 243.22C416.719 243.353 416.799 243.473 416.799 243.58C416.799 243.7 416.759 243.8 416.679 243.88C416.599 243.96 416.499 244 416.379 244H415.339C415.139 244 414.992 243.98 414.899 243.94C414.805 243.887 414.685 243.793 414.539 243.66L410.079 239.4V243.54C410.079 243.673 410.032 243.787 409.939 243.88C409.859 243.96 409.752 244 409.619 244H408.679ZM418.991 247.8C418.858 247.8 418.745 247.753 418.651 247.66C418.571 247.58 418.531 247.473 418.531 247.34V234.06C418.531 233.927 418.571 233.82 418.651 233.74C418.745 233.647 418.858 233.6 418.991 233.6H419.911C420.045 233.6 420.151 233.647 420.231 233.74C420.325 233.82 420.371 233.927 420.371 234.06V234.94C420.691 234.5 421.118 234.133 421.651 233.84C422.185 233.547 422.851 233.4 423.651 233.4C424.398 233.4 425.031 233.527 425.551 233.78C426.085 234.033 426.518 234.38 426.851 234.82C427.198 235.26 427.458 235.76 427.631 236.32C427.805 236.88 427.898 237.48 427.911 238.12C427.925 238.333 427.931 238.56 427.931 238.8C427.931 239.04 427.925 239.267 427.911 239.48C427.898 240.107 427.805 240.707 427.631 241.28C427.458 241.84 427.198 242.34 426.851 242.78C426.518 243.207 426.085 243.553 425.551 243.82C425.031 244.073 424.398 244.2 423.651 244.2C422.878 244.2 422.225 244.06 421.691 243.78C421.171 243.487 420.745 243.127 420.411 242.7V247.34C420.411 247.473 420.371 247.58 420.291 247.66C420.211 247.753 420.098 247.8 419.951 247.8H418.991ZM423.231 242.58C423.925 242.58 424.465 242.433 424.851 242.14C425.251 241.833 425.538 241.44 425.711 240.96C425.885 240.467 425.985 239.94 426.011 239.38C426.025 238.993 426.025 238.607 426.011 238.22C425.985 237.66 425.885 237.14 425.711 236.66C425.538 236.167 425.251 235.773 424.851 235.48C424.465 235.173 423.925 235.02 423.231 235.02C422.578 235.02 422.045 235.173 421.631 235.48C421.231 235.787 420.931 236.18 420.731 236.66C420.545 237.127 420.438 237.607 420.411 238.1C420.398 238.313 420.391 238.567 420.391 238.86C420.391 239.153 420.398 239.413 420.411 239.64C420.425 240.107 420.531 240.567 420.731 241.02C420.945 241.473 421.258 241.847 421.671 242.14C422.085 242.433 422.605 242.58 423.231 242.58ZM434.685 244.2C433.672 244.2 432.825 244.007 432.145 243.62C431.465 243.233 430.945 242.7 430.585 242.02C430.225 241.327 430.025 240.54 429.985 239.66C429.972 239.433 429.965 239.147 429.965 238.8C429.965 238.44 429.972 238.153 429.985 237.94C430.025 237.047 430.225 236.26 430.585 235.58C430.959 234.9 431.485 234.367 432.165 233.98C432.845 233.593 433.685 233.4 434.685 233.4C435.685 233.4 436.525 233.593 437.205 233.98C437.885 234.367 438.405 234.9 438.765 235.58C439.139 236.26 439.345 237.047 439.385 237.94C439.399 238.153 439.405 238.44 439.405 238.8C439.405 239.147 439.399 239.433 439.385 239.66C439.345 240.54 439.145 241.327 438.785 242.02C438.425 242.7 437.905 243.233 437.225 243.62C436.545 244.007 435.699 244.2 434.685 244.2ZM434.685 242.66C435.512 242.66 436.172 242.4 436.665 241.88C437.159 241.347 437.425 240.573 437.465 239.56C437.479 239.36 437.485 239.107 437.485 238.8C437.485 238.493 437.479 238.24 437.465 238.04C437.425 237.027 437.159 236.26 436.665 235.74C436.172 235.207 435.512 234.94 434.685 234.94C433.859 234.94 433.192 235.207 432.685 235.74C432.192 236.26 431.932 237.027 431.905 238.04C431.892 238.24 431.885 238.493 431.885 238.8C431.885 239.107 431.892 239.36 431.905 239.56C431.932 240.573 432.192 241.347 432.685 241.88C433.192 242.4 433.859 242.66 434.685 242.66ZM445.51 244.2C444.763 244.2 444.123 244.107 443.59 243.92C443.056 243.733 442.623 243.507 442.29 243.24C441.956 242.973 441.703 242.707 441.53 242.44C441.37 242.173 441.283 241.96 441.27 241.8C441.256 241.653 441.303 241.54 441.41 241.46C441.516 241.38 441.623 241.34 441.73 241.34H442.61C442.69 241.34 442.75 241.353 442.79 241.38C442.843 241.393 442.91 241.447 442.99 241.54C443.163 241.727 443.356 241.913 443.57 242.1C443.783 242.287 444.043 242.44 444.35 242.56C444.67 242.68 445.063 242.74 445.53 242.74C446.21 242.74 446.77 242.613 447.21 242.36C447.65 242.093 447.87 241.707 447.87 241.2C447.87 240.867 447.776 240.6 447.59 240.4C447.416 240.2 447.096 240.02 446.63 239.86C446.176 239.7 445.55 239.533 444.75 239.36C443.95 239.173 443.316 238.947 442.85 238.68C442.383 238.4 442.05 238.073 441.85 237.7C441.65 237.313 441.55 236.88 441.55 236.4C441.55 235.907 441.696 235.433 441.99 234.98C442.283 234.513 442.71 234.133 443.27 233.84C443.843 233.547 444.556 233.4 445.41 233.4C446.103 233.4 446.696 233.487 447.19 233.66C447.683 233.833 448.09 234.053 448.41 234.32C448.73 234.573 448.97 234.827 449.13 235.08C449.29 235.333 449.376 235.547 449.39 235.72C449.403 235.853 449.363 235.967 449.27 236.06C449.176 236.14 449.07 236.18 448.95 236.18H448.11C448.016 236.18 447.936 236.16 447.87 236.12C447.816 236.08 447.763 236.033 447.71 235.98C447.576 235.807 447.416 235.633 447.23 235.46C447.056 235.287 446.823 235.147 446.53 235.04C446.25 234.92 445.876 234.86 445.41 234.86C444.743 234.86 444.243 235 443.91 235.28C443.576 235.56 443.41 235.913 443.41 236.34C443.41 236.593 443.483 236.82 443.63 237.02C443.776 237.22 444.056 237.4 444.47 237.56C444.883 237.72 445.496 237.893 446.31 238.08C447.19 238.253 447.883 238.487 448.39 238.78C448.896 239.073 449.256 239.413 449.47 239.8C449.683 240.187 449.79 240.633 449.79 241.14C449.79 241.7 449.623 242.213 449.29 242.68C448.97 243.147 448.49 243.52 447.85 243.8C447.223 244.067 446.443 244.2 445.51 244.2ZM456.245 244.2C454.872 244.2 453.778 243.78 452.965 242.94C452.152 242.087 451.705 240.927 451.625 239.46C451.612 239.287 451.605 239.067 451.605 238.8C451.605 238.52 451.612 238.293 451.625 238.12C451.678 237.173 451.898 236.347 452.285 235.64C452.672 234.92 453.198 234.367 453.865 233.98C454.545 233.593 455.338 233.4 456.245 233.4C457.258 233.4 458.105 233.613 458.785 234.04C459.478 234.467 460.005 235.073 460.365 235.86C460.725 236.647 460.905 237.567 460.905 238.62V238.96C460.905 239.107 460.858 239.22 460.765 239.3C460.685 239.38 460.578 239.42 460.445 239.42H453.525C453.525 239.433 453.525 239.46 453.525 239.5C453.525 239.54 453.525 239.573 453.525 239.6C453.552 240.147 453.672 240.66 453.885 241.14C454.098 241.607 454.405 241.987 454.805 242.28C455.205 242.573 455.685 242.72 456.245 242.72C456.725 242.72 457.125 242.647 457.445 242.5C457.765 242.353 458.025 242.193 458.225 242.02C458.425 241.833 458.558 241.693 458.625 241.6C458.745 241.427 458.838 241.327 458.905 241.3C458.972 241.26 459.078 241.24 459.225 241.24H460.185C460.318 241.24 460.425 241.28 460.505 241.36C460.598 241.427 460.638 241.527 460.625 241.66C460.612 241.86 460.505 242.107 460.305 242.4C460.105 242.68 459.818 242.96 459.445 243.24C459.072 243.52 458.618 243.753 458.085 243.94C457.552 244.113 456.938 244.2 456.245 244.2ZM453.525 238.04H459.005V237.98C459.005 237.38 458.892 236.847 458.665 236.38C458.452 235.913 458.138 235.547 457.725 235.28C457.312 235 456.818 234.86 456.245 234.86C455.672 234.86 455.178 235 454.765 235.28C454.365 235.547 454.058 235.913 453.845 236.38C453.632 236.847 453.525 237.38 453.525 237.98V238.04ZM463.756 244C463.623 244 463.51 243.96 463.416 243.88C463.336 243.787 463.296 243.673 463.296 243.54V234.08C463.296 233.947 463.336 233.833 463.416 233.74C463.51 233.647 463.623 233.6 463.756 233.6H464.676C464.81 233.6 464.923 233.647 465.016 233.74C465.11 233.833 465.156 233.947 465.156 234.08V234.96C465.423 234.507 465.79 234.167 466.256 233.94C466.723 233.713 467.283 233.6 467.936 233.6H468.736C468.87 233.6 468.976 233.647 469.056 233.74C469.136 233.82 469.176 233.927 469.176 234.06V234.88C469.176 235.013 469.136 235.12 469.056 235.2C468.976 235.28 468.87 235.32 468.736 235.32H467.536C466.816 235.32 466.25 235.533 465.836 235.96C465.423 236.373 465.216 236.94 465.216 237.66V243.54C465.216 243.673 465.17 243.787 465.076 243.88C464.983 243.96 464.87 244 464.736 244H463.756Z" fill="white"/>
<circle cx="234.5" cy="92.5" r="92.5" fill="white"/>
<path fill-rule="evenodd" clip-rule="evenodd" d="M224.708 53.9103C226.644 51.9747 229.11 50.6571 231.796 50.1211C234.482 49.5875 237.266 49.859 239.797 50.9075C242.327 51.9536 244.49 53.7253 246.011 56.0002C247.533 58.2751 248.345 60.9503 248.345 63.6862V68.9265H220.658V63.6862C220.658 60.0188 222.113 56.4941 224.708 53.9103ZM208.792 68.9265V63.6862C208.792 56.8756 211.5 50.3411 216.322 45.5245C221.143 40.7055 227.683 38 234.501 38C241.32 38 247.859 40.7055 252.68 45.5245C257.502 50.3411 260.21 56.8756 260.21 63.6862V68.9265H274.054C275.027 68.9265 275.966 69.2845 276.69 69.9328C277.416 70.5788 277.878 71.4705 277.986 72.4371L284.688 132.474L284.751 133.026C284.925 134.316 285.2 136.434 284.774 138.479C284.319 140.619 283.288 142.594 281.791 144.19C280.295 145.786 278.393 146.942 276.286 147.537C274.348 148.075 272.147 148.012 270.811 147.979L270.099 147.965H198.903C198.706 147.965 198.468 147.965 198.191 147.979C196.846 148.012 194.647 148.075 192.717 147.537C188.43 146.353 185.131 142.795 184.229 138.479C183.802 136.434 184.071 134.316 184.245 133.026L184.316 132.474L191.016 72.4371C191.125 71.4705 191.586 70.5788 192.312 69.9328C193.037 69.2845 193.975 68.9265 194.948 68.9265H208.792Z" fill="black"/>
</svg>
