<svg width="395" height="257" viewBox="0 0 395 257" fill="none" xmlns="http://www.w3.org/2000/svg">
<path d="M130.375 214C130.192 214 130.042 213.942 129.925 213.825C129.808 213.708 129.75 213.558 129.75 213.375V197.125C129.75 196.942 129.808 196.792 129.925 196.675C130.042 196.558 130.192 196.5 130.375 196.5H136.875C138.508 196.5 139.9 196.767 141.05 197.3C142.2 197.817 143.083 198.583 143.7 199.6C144.317 200.6 144.65 201.842 144.7 203.325C144.717 204.058 144.725 204.7 144.725 205.25C144.725 205.8 144.717 206.433 144.7 207.15C144.633 208.7 144.3 209.983 143.7 211C143.117 212.017 142.258 212.775 141.125 213.275C140.008 213.758 138.633 214 137 214H130.375ZM134.225 210.4H136.875C137.592 210.4 138.183 210.292 138.65 210.075C139.133 209.842 139.492 209.483 139.725 209C139.975 208.517 140.108 207.883 140.125 207.1C140.158 206.617 140.175 206.183 140.175 205.8C140.192 205.417 140.192 205.033 140.175 204.65C140.175 204.267 140.158 203.842 140.125 203.375C140.092 202.242 139.792 201.417 139.225 200.9C138.675 200.367 137.85 200.1 136.75 200.1H134.225V210.4ZM147.996 214C147.812 214 147.662 213.942 147.546 213.825C147.429 213.708 147.371 213.558 147.371 213.375V201.625C147.371 201.442 147.429 201.292 147.546 201.175C147.662 201.058 147.812 201 147.996 201H150.946C151.112 201 151.254 201.058 151.371 201.175C151.504 201.292 151.571 201.442 151.571 201.625V213.375C151.571 213.558 151.504 213.708 151.371 213.825C151.254 213.942 151.112 214 150.946 214H147.996ZM147.971 199.125C147.787 199.125 147.637 199.067 147.521 198.95C147.404 198.833 147.346 198.683 147.346 198.5V196.275C147.346 196.092 147.404 195.942 147.521 195.825C147.637 195.692 147.787 195.625 147.971 195.625H150.946C151.129 195.625 151.279 195.692 151.396 195.825C151.529 195.942 151.596 196.092 151.596 196.275V198.5C151.596 198.683 151.529 198.833 151.396 198.95C151.279 199.067 151.129 199.125 150.946 199.125H147.971ZM155.906 214C155.722 214 155.572 213.942 155.456 213.825C155.339 213.708 155.281 213.558 155.281 213.375V201.625C155.281 201.442 155.339 201.292 155.456 201.175C155.572 201.058 155.722 201 155.906 201H158.781C158.964 201 159.114 201.058 159.231 201.175C159.347 201.292 159.406 201.442 159.406 201.625V202.575C159.839 202.058 160.406 201.625 161.106 201.275C161.806 200.925 162.631 200.75 163.581 200.75C164.547 200.75 165.397 200.967 166.131 201.4C166.881 201.833 167.464 202.475 167.881 203.325C168.314 204.158 168.531 205.183 168.531 206.4V213.375C168.531 213.558 168.464 213.708 168.331 213.825C168.214 213.942 168.072 214 167.906 214H164.756C164.589 214 164.439 213.942 164.306 213.825C164.189 213.708 164.131 213.558 164.131 213.375V206.55C164.131 205.767 163.939 205.167 163.556 204.75C163.189 204.317 162.639 204.1 161.906 204.1C161.222 204.1 160.672 204.317 160.256 204.75C159.856 205.167 159.656 205.767 159.656 206.55V213.375C159.656 213.558 159.589 213.708 159.456 213.825C159.339 213.942 159.197 214 159.031 214H155.906ZM182.805 214C181.738 214 180.813 213.833 180.03 213.5C179.263 213.15 178.671 212.617 178.255 211.9C177.838 211.167 177.63 210.225 177.63 209.075V204.275H175.68C175.496 204.275 175.338 204.217 175.205 204.1C175.088 203.983 175.03 203.833 175.03 203.65V201.625C175.03 201.442 175.088 201.292 175.205 201.175C175.338 201.058 175.496 201 175.68 201H177.63V196.875C177.63 196.692 177.688 196.542 177.805 196.425C177.938 196.308 178.088 196.25 178.255 196.25H181.155C181.338 196.25 181.488 196.308 181.605 196.425C181.721 196.542 181.78 196.692 181.78 196.875V201H184.905C185.088 201 185.238 201.058 185.355 201.175C185.471 201.292 185.53 201.442 185.53 201.625V203.65C185.53 203.833 185.471 203.983 185.355 204.1C185.238 204.217 185.088 204.275 184.905 204.275H181.78V208.725C181.78 209.292 181.888 209.742 182.105 210.075C182.321 210.408 182.688 210.575 183.205 210.575H185.13C185.313 210.575 185.463 210.633 185.58 210.75C185.696 210.867 185.755 211.017 185.755 211.2V213.375C185.755 213.558 185.696 213.708 185.58 213.825C185.463 213.942 185.313 214 185.13 214H182.805ZM193.975 214.25C192.575 214.25 191.391 214.025 190.425 213.575C189.475 213.125 188.741 212.483 188.225 211.65C187.725 210.8 187.441 209.792 187.375 208.625C187.358 208.292 187.35 207.917 187.35 207.5C187.35 207.067 187.358 206.692 187.375 206.375C187.441 205.192 187.741 204.183 188.275 203.35C188.808 202.517 189.55 201.875 190.5 201.425C191.466 200.975 192.625 200.75 193.975 200.75C195.341 200.75 196.5 200.975 197.45 201.425C198.416 201.875 199.166 202.517 199.7 203.35C200.233 204.183 200.533 205.192 200.6 206.375C200.616 206.692 200.625 207.067 200.625 207.5C200.625 207.917 200.616 208.292 200.6 208.625C200.533 209.792 200.241 210.8 199.725 211.65C199.225 212.483 198.491 213.125 197.525 213.575C196.575 214.025 195.391 214.25 193.975 214.25ZM193.975 211.2C194.725 211.2 195.266 210.975 195.6 210.525C195.95 210.075 196.15 209.4 196.2 208.5C196.216 208.25 196.225 207.917 196.225 207.5C196.225 207.083 196.216 206.75 196.2 206.5C196.15 205.617 195.95 204.95 195.6 204.5C195.266 204.033 194.725 203.8 193.975 203.8C193.241 203.8 192.7 204.033 192.35 204.5C192 204.95 191.808 205.617 191.775 206.5C191.758 206.75 191.75 207.083 191.75 207.5C191.75 207.917 191.758 208.25 191.775 208.5C191.808 209.4 192 210.075 192.35 210.525C192.7 210.975 193.241 211.2 193.975 211.2ZM187.975 214.7C187.841 214.7 187.725 214.65 187.625 214.55C187.525 214.45 187.475 214.333 187.475 214.2C187.475 214.15 187.483 214.1 187.5 214.05C187.516 214 187.558 213.933 187.625 213.85L198.6 200.7C198.65 200.633 198.725 200.558 198.825 200.475C198.925 200.375 199.058 200.325 199.225 200.325H199.975C200.108 200.325 200.225 200.375 200.325 200.475C200.425 200.575 200.475 200.692 200.475 200.825C200.475 200.842 200.466 200.892 200.45 200.975C200.45 201.042 200.416 201.117 200.35 201.2L189.375 214.325C189.325 214.392 189.25 214.467 189.15 214.55C189.066 214.65 188.941 214.7 188.775 214.7H187.975ZM200.908 218.75C200.725 218.75 200.575 218.692 200.458 218.575C200.342 218.458 200.283 218.308 200.283 218.125V216.1C200.283 215.917 200.342 215.767 200.458 215.65C200.575 215.533 200.725 215.475 200.908 215.475H201.833C202.25 215.475 202.567 215.392 202.783 215.225C203 215.075 203.15 214.858 203.233 214.575C203.317 214.308 203.358 214 203.358 213.65V201.625C203.358 201.442 203.417 201.292 203.533 201.175C203.667 201.058 203.817 201 203.983 201H207.083C207.267 201 207.417 201.058 207.533 201.175C207.65 201.292 207.708 201.442 207.708 201.625V213.75C207.708 214.833 207.492 215.742 207.058 216.475C206.642 217.225 206.033 217.792 205.233 218.175C204.433 218.558 203.458 218.75 202.308 218.75H200.908ZM203.958 199.125C203.792 199.125 203.642 199.067 203.508 198.95C203.392 198.833 203.333 198.683 203.333 198.5V196.275C203.333 196.092 203.392 195.942 203.508 195.825C203.642 195.692 203.792 195.625 203.958 195.625H207.108C207.275 195.625 207.417 195.692 207.533 195.825C207.667 195.942 207.733 196.092 207.733 196.275V198.5C207.733 198.683 207.667 198.833 207.533 198.95C207.417 199.067 207.275 199.125 207.108 199.125H203.958ZM215.277 214C215.027 214 214.843 213.942 214.727 213.825C214.61 213.692 214.51 213.542 214.427 213.375L209.702 201.775C209.668 201.708 209.652 201.633 209.652 201.55C209.652 201.4 209.702 201.275 209.802 201.175C209.918 201.058 210.06 201 210.227 201H213.052C213.268 201 213.435 201.058 213.552 201.175C213.668 201.292 213.743 201.408 213.777 201.525L216.602 209.2L219.452 201.525C219.485 201.408 219.56 201.292 219.677 201.175C219.793 201.058 219.96 201 220.177 201H223.002C223.152 201 223.285 201.058 223.402 201.175C223.518 201.275 223.577 201.4 223.577 201.55C223.577 201.633 223.56 201.708 223.527 201.775L218.802 213.375C218.735 213.542 218.635 213.692 218.502 213.825C218.385 213.942 218.193 214 217.927 214H215.277ZM228.858 214.25C227.958 214.25 227.15 214.083 226.433 213.75C225.733 213.4 225.175 212.933 224.758 212.35C224.342 211.767 224.133 211.108 224.133 210.375C224.133 209.192 224.617 208.258 225.583 207.575C226.55 206.875 227.833 206.4 229.433 206.15L232.558 205.675V205.325C232.558 204.725 232.433 204.267 232.183 203.95C231.933 203.633 231.475 203.475 230.808 203.475C230.342 203.475 229.958 203.567 229.658 203.75C229.375 203.933 229.15 204.183 228.983 204.5C228.833 204.717 228.625 204.825 228.358 204.825H225.558C225.375 204.825 225.233 204.775 225.133 204.675C225.033 204.558 224.992 204.425 225.008 204.275C225.008 203.975 225.117 203.633 225.333 203.25C225.567 202.85 225.917 202.458 226.383 202.075C226.85 201.692 227.45 201.375 228.183 201.125C228.917 200.875 229.8 200.75 230.833 200.75C231.917 200.75 232.842 200.875 233.608 201.125C234.375 201.375 234.992 201.725 235.458 202.175C235.942 202.625 236.3 203.158 236.533 203.775C236.767 204.375 236.883 205.042 236.883 205.775V213.375C236.883 213.558 236.817 213.708 236.683 213.825C236.567 213.942 236.425 214 236.258 214H233.358C233.175 214 233.025 213.942 232.908 213.825C232.792 213.708 232.733 213.558 232.733 213.375V212.5C232.517 212.817 232.225 213.108 231.858 213.375C231.492 213.642 231.058 213.85 230.558 214C230.075 214.167 229.508 214.25 228.858 214.25ZM230.033 211.4C230.517 211.4 230.95 211.3 231.333 211.1C231.733 210.883 232.042 210.558 232.258 210.125C232.492 209.675 232.608 209.117 232.608 208.45V208.1L230.483 208.475C229.7 208.608 229.125 208.817 228.758 209.1C228.408 209.367 228.233 209.683 228.233 210.05C228.233 210.333 228.317 210.575 228.483 210.775C228.65 210.975 228.867 211.133 229.133 211.25C229.4 211.35 229.7 211.4 230.033 211.4ZM245.054 214.25C243.971 214.25 243.046 214.133 242.279 213.9C241.529 213.65 240.913 213.35 240.429 213C239.963 212.65 239.613 212.292 239.379 211.925C239.146 211.542 239.021 211.217 239.004 210.95C238.988 210.767 239.046 210.617 239.179 210.5C239.313 210.367 239.454 210.3 239.604 210.3H242.454C242.504 210.3 242.546 210.308 242.579 210.325C242.613 210.342 242.663 210.375 242.729 210.425C242.946 210.542 243.163 210.692 243.379 210.875C243.596 211.042 243.846 211.192 244.129 211.325C244.413 211.458 244.754 211.525 245.154 211.525C245.621 211.525 246.013 211.433 246.329 211.25C246.646 211.067 246.804 210.792 246.804 210.425C246.804 210.158 246.729 209.942 246.579 209.775C246.429 209.592 246.121 209.417 245.654 209.25C245.204 209.083 244.521 208.917 243.604 208.75C242.738 208.55 241.979 208.292 241.329 207.975C240.679 207.642 240.179 207.217 239.829 206.7C239.479 206.167 239.304 205.525 239.304 204.775C239.304 204.108 239.521 203.467 239.954 202.85C240.388 202.233 241.021 201.733 241.854 201.35C242.688 200.95 243.713 200.75 244.929 200.75C245.896 200.75 246.729 200.867 247.429 201.1C248.146 201.317 248.746 201.6 249.229 201.95C249.729 202.3 250.104 202.658 250.354 203.025C250.604 203.392 250.738 203.725 250.754 204.025C250.771 204.192 250.721 204.342 250.604 204.475C250.488 204.592 250.354 204.65 250.204 204.65H247.604C247.538 204.65 247.471 204.642 247.404 204.625C247.338 204.592 247.279 204.558 247.229 204.525C247.029 204.425 246.829 204.292 246.629 204.125C246.429 203.958 246.196 203.808 245.929 203.675C245.663 203.542 245.329 203.475 244.929 203.475C244.479 203.475 244.129 203.575 243.879 203.775C243.629 203.975 243.504 204.233 243.504 204.55C243.504 204.767 243.571 204.967 243.704 205.15C243.854 205.333 244.146 205.5 244.579 205.65C245.029 205.8 245.721 205.967 246.654 206.15C247.804 206.333 248.721 206.633 249.404 207.05C250.088 207.45 250.571 207.925 250.854 208.475C251.138 209.008 251.279 209.575 251.279 210.175C251.279 210.975 251.038 211.683 250.554 212.3C250.088 212.917 249.388 213.4 248.454 213.75C247.521 214.083 246.388 214.25 245.054 214.25ZM254.148 214C253.965 214 253.815 213.942 253.698 213.825C253.581 213.708 253.523 213.558 253.523 213.375V196.875C253.523 196.692 253.581 196.542 253.698 196.425C253.815 196.308 253.965 196.25 254.148 196.25H257.048C257.215 196.25 257.356 196.308 257.473 196.425C257.606 196.542 257.673 196.692 257.673 196.875V205.25L261.148 201.425C261.248 201.308 261.356 201.208 261.473 201.125C261.59 201.042 261.756 201 261.973 201H265.323C265.473 201 265.598 201.058 265.698 201.175C265.815 201.275 265.873 201.4 265.873 201.55C265.873 201.617 265.856 201.692 265.823 201.775C265.79 201.858 265.74 201.925 265.673 201.975L261.173 206.825L266.298 213.05C266.431 213.183 266.498 213.317 266.498 213.45C266.498 213.6 266.44 213.733 266.323 213.85C266.223 213.95 266.09 214 265.923 214H262.498C262.248 214 262.065 213.958 261.948 213.875C261.831 213.775 261.723 213.675 261.623 213.575L257.673 208.825V213.375C257.673 213.558 257.606 213.708 257.473 213.825C257.356 213.942 257.215 214 257.048 214H254.148Z" fill="white"/>
<path d="M2.2 244C2.05333 244 1.94 243.96 1.86 243.88C1.78 243.787 1.74 243.673 1.74 243.54V230.48C1.74 230.333 1.78 230.22 1.86 230.14C1.94 230.047 2.05333 230 2.2 230H10.36C10.5067 230 10.62 230.047 10.7 230.14C10.78 230.22 10.82 230.333 10.82 230.48V231.28C10.82 231.427 10.78 231.54 10.7 231.62C10.62 231.7 10.5067 231.74 10.36 231.74H3.68V236.4H9.96C10.1067 236.4 10.22 236.447 10.3 236.54C10.38 236.62 10.42 236.733 10.42 236.88V237.68C10.42 237.813 10.38 237.927 10.3 238.02C10.22 238.1 10.1067 238.14 9.96 238.14H3.68V243.54C3.68 243.673 3.63333 243.787 3.54 243.88C3.46 243.96 3.34667 244 3.2 244H2.2ZM14.5891 247.8C14.4824 247.8 14.3891 247.76 14.3091 247.68C14.2291 247.6 14.1891 247.507 14.1891 247.4C14.1891 247.347 14.1957 247.293 14.2091 247.24C14.2224 247.187 14.2491 247.12 14.2891 247.04L15.8291 243.38L12.0091 234.36C11.9424 234.2 11.9091 234.087 11.9091 234.02C11.9091 233.9 11.9491 233.8 12.0291 233.72C12.1091 233.64 12.2091 233.6 12.3291 233.6H13.3091C13.4424 233.6 13.5491 233.633 13.6291 233.7C13.7091 233.767 13.7624 233.847 13.7891 233.94L16.8291 241.22L19.9491 233.94C19.9891 233.847 20.0424 233.767 20.1091 233.7C20.1891 233.633 20.3024 233.6 20.4491 233.6H21.3891C21.5091 233.6 21.6091 233.64 21.6891 233.72C21.7691 233.8 21.8091 233.893 21.8091 234C21.8091 234.067 21.7757 234.187 21.7091 234.36L16.0291 247.46C15.9891 247.553 15.9291 247.633 15.8491 247.7C15.7824 247.767 15.6757 247.8 15.5291 247.8H14.5891ZM24.2647 244C24.1314 244 24.018 243.96 23.9247 243.88C23.8447 243.787 23.8047 243.673 23.8047 243.54V230.26C23.8047 230.127 23.8447 230.02 23.9247 229.94C24.018 229.847 24.1314 229.8 24.2647 229.8H25.2047C25.3514 229.8 25.4647 229.847 25.5447 229.94C25.6247 230.02 25.6647 230.127 25.6647 230.26V243.54C25.6647 243.673 25.6247 243.787 25.5447 243.88C25.4647 243.96 25.3514 244 25.2047 244H24.2647ZM32.448 244.2C31.7146 244.2 31.0813 244.073 30.548 243.82C30.0146 243.553 29.5746 243.2 29.228 242.76C28.8946 242.307 28.6413 241.793 28.468 241.22C28.308 240.647 28.2146 240.04 28.188 239.4C28.1746 239.187 28.168 238.987 28.168 238.8C28.168 238.613 28.1746 238.413 28.188 238.2C28.2146 237.573 28.308 236.973 28.468 236.4C28.6413 235.827 28.8946 235.313 29.228 234.86C29.5746 234.407 30.0146 234.053 30.548 233.8C31.0813 233.533 31.7146 233.4 32.448 233.4C33.2346 233.4 33.888 233.54 34.408 233.82C34.928 234.1 35.3546 234.447 35.688 234.86V230.26C35.688 230.127 35.728 230.02 35.808 229.94C35.9013 229.847 36.0146 229.8 36.148 229.8H37.108C37.2413 229.8 37.348 229.847 37.428 229.94C37.5213 230.02 37.568 230.127 37.568 230.26V243.54C37.568 243.673 37.5213 243.787 37.428 243.88C37.348 243.96 37.2413 244 37.108 244H36.208C36.0613 244 35.948 243.96 35.868 243.88C35.788 243.787 35.748 243.673 35.748 243.54V242.7C35.4146 243.127 34.9813 243.487 34.448 243.78C33.9146 244.06 33.248 244.2 32.448 244.2ZM32.868 242.58C33.5346 242.58 34.068 242.427 34.468 242.12C34.868 241.813 35.168 241.427 35.368 240.96C35.568 240.48 35.6746 239.993 35.688 239.5C35.7013 239.287 35.708 239.033 35.708 238.74C35.708 238.433 35.7013 238.173 35.688 237.96C35.6746 237.493 35.5613 237.033 35.348 236.58C35.148 236.127 34.8413 235.753 34.428 235.46C34.028 235.167 33.508 235.02 32.868 235.02C32.188 235.02 31.648 235.173 31.248 235.48C30.848 235.773 30.5613 236.167 30.388 236.66C30.2146 237.14 30.1146 237.66 30.088 238.22C30.0746 238.607 30.0746 238.993 30.088 239.38C30.1146 239.94 30.2146 240.467 30.388 240.96C30.5613 241.44 30.848 241.833 31.248 242.14C31.648 242.433 32.188 242.58 32.868 242.58ZM45.9048 244C45.7715 244 45.6582 243.96 45.5648 243.88C45.4848 243.787 45.4448 243.673 45.4448 243.54V234.06C45.4448 233.927 45.4848 233.82 45.5648 233.74C45.6582 233.647 45.7715 233.6 45.9048 233.6H46.8048C46.9382 233.6 47.0448 233.647 47.1248 233.74C47.2182 233.82 47.2648 233.927 47.2648 234.06V234.76C47.5715 234.347 47.9582 234.02 48.4248 233.78C48.8915 233.527 49.4515 233.4 50.1048 233.4C51.6115 233.387 52.6782 234 53.3048 235.24C53.6115 234.68 54.0582 234.233 54.6448 233.9C55.2315 233.567 55.8982 233.4 56.6448 233.4C57.3382 233.4 57.9648 233.56 58.5248 233.88C59.0982 234.2 59.5448 234.687 59.8648 235.34C60.1982 235.98 60.3648 236.787 60.3648 237.76V243.54C60.3648 243.673 60.3182 243.787 60.2248 243.88C60.1448 243.96 60.0382 244 59.9048 244H58.9648C58.8315 244 58.7182 243.96 58.6248 243.88C58.5448 243.787 58.5048 243.673 58.5048 243.54V237.94C58.5048 237.193 58.3982 236.607 58.1848 236.18C57.9715 235.753 57.6848 235.453 57.3248 235.28C56.9648 235.107 56.5715 235.02 56.1448 235.02C55.7982 235.02 55.4448 235.107 55.0848 235.28C54.7248 235.453 54.4248 235.753 54.1848 236.18C53.9582 236.607 53.8448 237.193 53.8448 237.94V243.54C53.8448 243.673 53.7982 243.787 53.7048 243.88C53.6248 243.96 53.5182 244 53.3848 244H52.4448C52.3115 244 52.1982 243.96 52.1048 243.88C52.0248 243.787 51.9848 243.673 51.9848 243.54V237.94C51.9848 237.193 51.8715 236.607 51.6448 236.18C51.4182 235.753 51.1248 235.453 50.7648 235.28C50.4048 235.107 50.0248 235.02 49.6248 235.02C49.2782 235.02 48.9248 235.107 48.5648 235.28C48.2048 235.453 47.9048 235.753 47.6648 236.18C47.4382 236.607 47.3248 237.187 47.3248 237.92V243.54C47.3248 243.673 47.2782 243.787 47.1848 243.88C47.1048 243.96 46.9982 244 46.8648 244H45.9048ZM66.1183 244.2C65.4516 244.2 64.8449 244.067 64.2983 243.8C63.7516 243.533 63.3116 243.173 62.9783 242.72C62.6449 242.267 62.4783 241.753 62.4783 241.18C62.4783 240.26 62.8516 239.527 63.5983 238.98C64.3449 238.433 65.3183 238.073 66.5183 237.9L69.4983 237.48V236.9C69.4983 236.26 69.3116 235.76 68.9383 235.4C68.5783 235.04 67.9849 234.86 67.1583 234.86C66.5583 234.86 66.0716 234.98 65.6983 235.22C65.3383 235.46 65.0849 235.767 64.9383 236.14C64.8583 236.34 64.7183 236.44 64.5183 236.44H63.6183C63.4716 236.44 63.3583 236.4 63.2783 236.32C63.2116 236.227 63.1783 236.12 63.1783 236C63.1783 235.8 63.2516 235.553 63.3983 235.26C63.5583 234.967 63.7983 234.68 64.1183 234.4C64.4383 234.12 64.8449 233.887 65.3383 233.7C65.8449 233.5 66.4583 233.4 67.1783 233.4C67.9783 233.4 68.6516 233.507 69.1983 233.72C69.7449 233.92 70.1716 234.193 70.4783 234.54C70.7983 234.887 71.0249 235.28 71.1583 235.72C71.3049 236.16 71.3783 236.607 71.3783 237.06V243.54C71.3783 243.673 71.3316 243.787 71.2383 243.88C71.1583 243.96 71.0516 244 70.9183 244H69.9983C69.8516 244 69.7383 243.96 69.6583 243.88C69.5783 243.787 69.5383 243.673 69.5383 243.54V242.68C69.3649 242.92 69.1316 243.16 68.8383 243.4C68.5449 243.627 68.1783 243.82 67.7383 243.98C67.2983 244.127 66.7583 244.2 66.1183 244.2ZM66.5383 242.7C67.0849 242.7 67.5849 242.587 68.0383 242.36C68.4916 242.12 68.8449 241.753 69.0983 241.26C69.3649 240.767 69.4983 240.147 69.4983 239.4V238.84L67.1783 239.18C66.2316 239.313 65.5183 239.54 65.0383 239.86C64.5583 240.167 64.3183 240.56 64.3183 241.04C64.3183 241.413 64.4249 241.727 64.6383 241.98C64.8649 242.22 65.1449 242.4 65.4783 242.52C65.8249 242.64 66.1783 242.7 66.5383 242.7ZM77.8534 244.2C77.1068 244.2 76.4668 244.107 75.9334 243.92C75.4001 243.733 74.9668 243.507 74.6334 243.24C74.3001 242.973 74.0468 242.707 73.8734 242.44C73.7134 242.173 73.6268 241.96 73.6134 241.8C73.6001 241.653 73.6468 241.54 73.7534 241.46C73.8601 241.38 73.9668 241.34 74.0734 241.34H74.9534C75.0334 241.34 75.0934 241.353 75.1334 241.38C75.1868 241.393 75.2534 241.447 75.3334 241.54C75.5068 241.727 75.7001 241.913 75.9134 242.1C76.1268 242.287 76.3868 242.44 76.6934 242.56C77.0134 242.68 77.4068 242.74 77.8734 242.74C78.5534 242.74 79.1134 242.613 79.5534 242.36C79.9934 242.093 80.2134 241.707 80.2134 241.2C80.2134 240.867 80.1201 240.6 79.9334 240.4C79.7601 240.2 79.4401 240.02 78.9734 239.86C78.5201 239.7 77.8934 239.533 77.0934 239.36C76.2934 239.173 75.6601 238.947 75.1934 238.68C74.7268 238.4 74.3934 238.073 74.1934 237.7C73.9934 237.313 73.8934 236.88 73.8934 236.4C73.8934 235.907 74.0401 235.433 74.3334 234.98C74.6268 234.513 75.0534 234.133 75.6134 233.84C76.1868 233.547 76.9001 233.4 77.7534 233.4C78.4468 233.4 79.0401 233.487 79.5334 233.66C80.0268 233.833 80.4334 234.053 80.7534 234.32C81.0734 234.573 81.3134 234.827 81.4734 235.08C81.6334 235.333 81.7201 235.547 81.7334 235.72C81.7468 235.853 81.7068 235.967 81.6134 236.06C81.5201 236.14 81.4134 236.18 81.2934 236.18H80.4534C80.3601 236.18 80.2801 236.16 80.2134 236.12C80.1601 236.08 80.1068 236.033 80.0534 235.98C79.9201 235.807 79.7601 235.633 79.5734 235.46C79.4001 235.287 79.1668 235.147 78.8734 235.04C78.5934 234.92 78.2201 234.86 77.7534 234.86C77.0868 234.86 76.5868 235 76.2534 235.28C75.9201 235.56 75.7534 235.913 75.7534 236.34C75.7534 236.593 75.8268 236.82 75.9734 237.02C76.1201 237.22 76.4001 237.4 76.8134 237.56C77.2268 237.72 77.8401 237.893 78.6534 238.08C79.5334 238.253 80.2268 238.487 80.7334 238.78C81.2401 239.073 81.6001 239.413 81.8134 239.8C82.0268 240.187 82.1334 240.633 82.1334 241.14C82.1334 241.7 81.9668 242.213 81.6334 242.68C81.3134 243.147 80.8334 243.52 80.1934 243.8C79.5668 244.067 78.7868 244.2 77.8534 244.2ZM84.9288 244C84.7954 244 84.6821 243.96 84.5888 243.88C84.5088 243.787 84.4688 243.673 84.4688 243.54V230.26C84.4688 230.127 84.5088 230.02 84.5888 229.94C84.6821 229.847 84.7954 229.8 84.9288 229.8H85.8688C86.0021 229.8 86.1088 229.847 86.1888 229.94C86.2821 230.02 86.3288 230.127 86.3288 230.26V237.22L90.2688 233.94C90.4288 233.807 90.5488 233.72 90.6288 233.68C90.7221 233.627 90.8688 233.6 91.0688 233.6H92.1288C92.2488 233.6 92.3488 233.64 92.4288 233.72C92.5088 233.8 92.5488 233.9 92.5488 234.02C92.5488 234.073 92.5288 234.133 92.4888 234.2C92.4621 234.267 92.4021 234.333 92.3088 234.4L87.6888 238.24L92.8088 243.22C92.9688 243.353 93.0488 243.473 93.0488 243.58C93.0488 243.7 93.0088 243.8 92.9288 243.88C92.8488 243.96 92.7488 244 92.6288 244H91.5888C91.3888 244 91.2421 243.98 91.1488 243.94C91.0554 243.887 90.9354 243.793 90.7888 243.66L86.3288 239.4V243.54C86.3288 243.673 86.2821 243.787 86.1888 243.88C86.1088 243.96 86.0021 244 85.8688 244H84.9288ZM95.2213 244C95.0879 244 94.9746 243.96 94.8813 243.88C94.8013 243.787 94.7613 243.673 94.7613 243.54V234.06C94.7613 233.927 94.8013 233.82 94.8813 233.74C94.9746 233.647 95.0879 233.6 95.2213 233.6H96.1813C96.3146 233.6 96.4213 233.647 96.5013 233.74C96.5813 233.82 96.6213 233.927 96.6213 234.06V243.54C96.6213 243.673 96.5813 243.787 96.5013 243.88C96.4213 243.96 96.3146 244 96.1813 244H95.2213ZM95.0613 231.66C94.9279 231.66 94.8146 231.62 94.7213 231.54C94.6413 231.447 94.6012 231.333 94.6012 231.2V230.12C94.6012 229.987 94.6413 229.88 94.7213 229.8C94.8146 229.707 94.9279 229.66 95.0613 229.66H96.3213C96.4546 229.66 96.5613 229.707 96.6413 229.8C96.7346 229.88 96.7813 229.987 96.7813 230.12V231.2C96.7813 231.333 96.7346 231.447 96.6413 231.54C96.5613 231.62 96.4546 231.66 96.3213 231.66H95.0613ZM100.26 244C100.127 244 100.014 243.96 99.9203 243.88C99.8403 243.787 99.8003 243.673 99.8003 243.54V234.06C99.8003 233.927 99.8403 233.82 99.9203 233.74C100.014 233.647 100.127 233.6 100.26 233.6H101.2C101.334 233.6 101.44 233.647 101.52 233.74C101.614 233.82 101.66 233.927 101.66 234.06V234.94C102.007 234.487 102.44 234.12 102.96 233.84C103.494 233.547 104.174 233.4 105 233.4C105.867 233.4 106.6 233.593 107.2 233.98C107.814 234.353 108.274 234.88 108.58 235.56C108.887 236.227 109.04 237.007 109.04 237.9V243.54C109.04 243.673 109 243.787 108.92 243.88C108.84 243.96 108.734 244 108.6 244H107.6C107.467 244 107.354 243.96 107.26 243.88C107.18 243.787 107.14 243.673 107.14 243.54V238C107.14 237.067 106.914 236.34 106.46 235.82C106.007 235.287 105.34 235.02 104.46 235.02C103.634 235.02 102.967 235.287 102.46 235.82C101.967 236.34 101.72 237.067 101.72 238V243.54C101.72 243.673 101.674 243.787 101.58 243.88C101.5 243.96 101.394 244 101.26 244H100.26ZM116.069 244.2C114.696 244.2 113.603 243.78 112.789 242.94C111.976 242.087 111.529 240.927 111.449 239.46C111.436 239.287 111.429 239.067 111.429 238.8C111.429 238.52 111.436 238.293 111.449 238.12C111.503 237.173 111.723 236.347 112.109 235.64C112.496 234.92 113.023 234.367 113.689 233.98C114.369 233.593 115.163 233.4 116.069 233.4C117.083 233.4 117.929 233.613 118.609 234.04C119.303 234.467 119.829 235.073 120.189 235.86C120.549 236.647 120.729 237.567 120.729 238.62V238.96C120.729 239.107 120.683 239.22 120.589 239.3C120.509 239.38 120.403 239.42 120.269 239.42H113.349C113.349 239.433 113.349 239.46 113.349 239.5C113.349 239.54 113.349 239.573 113.349 239.6C113.376 240.147 113.496 240.66 113.709 241.14C113.923 241.607 114.229 241.987 114.629 242.28C115.029 242.573 115.509 242.72 116.069 242.72C116.549 242.72 116.949 242.647 117.269 242.5C117.589 242.353 117.849 242.193 118.049 242.02C118.249 241.833 118.383 241.693 118.449 241.6C118.569 241.427 118.663 241.327 118.729 241.3C118.796 241.26 118.903 241.24 119.049 241.24H120.009C120.143 241.24 120.249 241.28 120.329 241.36C120.423 241.427 120.463 241.527 120.449 241.66C120.436 241.86 120.329 242.107 120.129 242.4C119.929 242.68 119.643 242.96 119.269 243.24C118.896 243.52 118.443 243.753 117.909 243.94C117.376 244.113 116.763 244.2 116.069 244.2ZM113.349 238.04H118.829V237.98C118.829 237.38 118.716 236.847 118.489 236.38C118.276 235.913 117.963 235.547 117.549 235.28C117.136 235 116.643 234.86 116.069 234.86C115.496 234.86 115.003 235 114.589 235.28C114.189 235.547 113.883 235.913 113.669 236.38C113.456 236.847 113.349 237.38 113.349 237.98V238.04ZM123.581 244C123.447 244 123.334 243.96 123.241 243.88C123.161 243.787 123.121 243.673 123.121 243.54V234.06C123.121 233.927 123.161 233.82 123.241 233.74C123.334 233.647 123.447 233.6 123.581 233.6H124.521C124.654 233.6 124.761 233.647 124.841 233.74C124.934 233.82 124.981 233.927 124.981 234.06V234.94C125.327 234.487 125.761 234.12 126.281 233.84C126.814 233.547 127.494 233.4 128.321 233.4C129.187 233.4 129.921 233.593 130.521 233.98C131.134 234.353 131.594 234.88 131.901 235.56C132.207 236.227 132.361 237.007 132.361 237.9V243.54C132.361 243.673 132.321 243.787 132.241 243.88C132.161 243.96 132.054 244 131.921 244H130.921C130.787 244 130.674 243.96 130.581 243.88C130.501 243.787 130.461 243.673 130.461 243.54V238C130.461 237.067 130.234 236.34 129.781 235.82C129.327 235.287 128.661 235.02 127.781 235.02C126.954 235.02 126.287 235.287 125.781 235.82C125.287 236.34 125.041 237.067 125.041 238V243.54C125.041 243.673 124.994 243.787 124.901 243.88C124.821 243.96 124.714 244 124.581 244H123.581ZM135.11 245.5C135.003 245.5 134.916 245.46 134.85 245.38C134.796 245.3 134.776 245.2 134.79 245.08L135.25 242.22C135.276 242.06 135.33 241.927 135.41 241.82C135.503 241.7 135.636 241.64 135.81 241.64H137.15C137.243 241.64 137.316 241.673 137.37 241.74C137.436 241.807 137.47 241.887 137.47 241.98C137.47 242.087 137.443 242.193 137.39 242.3L136.35 245.04C136.296 245.173 136.223 245.28 136.13 245.36C136.05 245.453 135.93 245.5 135.77 245.5H135.11ZM148.732 244.2C147.986 244.2 147.346 244.107 146.812 243.92C146.279 243.733 145.846 243.507 145.512 243.24C145.179 242.973 144.926 242.707 144.752 242.44C144.592 242.173 144.506 241.96 144.492 241.8C144.479 241.653 144.526 241.54 144.632 241.46C144.739 241.38 144.846 241.34 144.952 241.34H145.832C145.912 241.34 145.972 241.353 146.012 241.38C146.066 241.393 146.132 241.447 146.212 241.54C146.386 241.727 146.579 241.913 146.792 242.1C147.006 242.287 147.266 242.44 147.572 242.56C147.892 242.68 148.286 242.74 148.752 242.74C149.432 242.74 149.992 242.613 150.432 242.36C150.872 242.093 151.092 241.707 151.092 241.2C151.092 240.867 150.999 240.6 150.812 240.4C150.639 240.2 150.319 240.02 149.852 239.86C149.399 239.7 148.772 239.533 147.972 239.36C147.172 239.173 146.539 238.947 146.072 238.68C145.606 238.4 145.272 238.073 145.072 237.7C144.872 237.313 144.772 236.88 144.772 236.4C144.772 235.907 144.919 235.433 145.212 234.98C145.506 234.513 145.932 234.133 146.492 233.84C147.066 233.547 147.779 233.4 148.632 233.4C149.326 233.4 149.919 233.487 150.412 233.66C150.906 233.833 151.312 234.053 151.632 234.32C151.952 234.573 152.192 234.827 152.352 235.08C152.512 235.333 152.599 235.547 152.612 235.72C152.626 235.853 152.586 235.967 152.492 236.06C152.399 236.14 152.292 236.18 152.172 236.18H151.332C151.239 236.18 151.159 236.16 151.092 236.12C151.039 236.08 150.986 236.033 150.932 235.98C150.799 235.807 150.639 235.633 150.452 235.46C150.279 235.287 150.046 235.147 149.752 235.04C149.472 234.92 149.099 234.86 148.632 234.86C147.966 234.86 147.466 235 147.132 235.28C146.799 235.56 146.632 235.913 146.632 236.34C146.632 236.593 146.706 236.82 146.852 237.02C146.999 237.22 147.279 237.4 147.692 237.56C148.106 237.72 148.719 237.893 149.532 238.08C150.412 238.253 151.106 238.487 151.612 238.78C152.119 239.073 152.479 239.413 152.692 239.8C152.906 240.187 153.012 240.633 153.012 241.14C153.012 241.7 152.846 242.213 152.512 242.68C152.192 243.147 151.712 243.52 151.072 243.8C150.446 244.067 149.666 244.2 148.732 244.2ZM158.228 244.2C157.561 244.2 156.954 244.067 156.408 243.8C155.861 243.533 155.421 243.173 155.088 242.72C154.754 242.267 154.588 241.753 154.588 241.18C154.588 240.26 154.961 239.527 155.708 238.98C156.454 238.433 157.428 238.073 158.628 237.9L161.608 237.48V236.9C161.608 236.26 161.421 235.76 161.048 235.4C160.688 235.04 160.094 234.86 159.268 234.86C158.668 234.86 158.181 234.98 157.808 235.22C157.448 235.46 157.194 235.767 157.048 236.14C156.968 236.34 156.828 236.44 156.628 236.44H155.728C155.581 236.44 155.468 236.4 155.388 236.32C155.321 236.227 155.288 236.12 155.288 236C155.288 235.8 155.361 235.553 155.508 235.26C155.668 234.967 155.908 234.68 156.228 234.4C156.548 234.12 156.954 233.887 157.448 233.7C157.954 233.5 158.568 233.4 159.288 233.4C160.088 233.4 160.761 233.507 161.308 233.72C161.854 233.92 162.281 234.193 162.588 234.54C162.908 234.887 163.134 235.28 163.268 235.72C163.414 236.16 163.488 236.607 163.488 237.06V243.54C163.488 243.673 163.441 243.787 163.348 243.88C163.268 243.96 163.161 244 163.028 244H162.108C161.961 244 161.848 243.96 161.768 243.88C161.688 243.787 161.648 243.673 161.648 243.54V242.68C161.474 242.92 161.241 243.16 160.948 243.4C160.654 243.627 160.288 243.82 159.848 243.98C159.408 244.127 158.868 244.2 158.228 244.2ZM158.648 242.7C159.194 242.7 159.694 242.587 160.148 242.36C160.601 242.12 160.954 241.753 161.208 241.26C161.474 240.767 161.608 240.147 161.608 239.4V238.84L159.288 239.18C158.341 239.313 157.628 239.54 157.148 239.86C156.668 240.167 156.428 240.56 156.428 241.04C156.428 241.413 156.534 241.727 156.748 241.98C156.974 242.22 157.254 242.4 157.588 242.52C157.934 242.64 158.288 242.7 158.648 242.7ZM159.308 232.2C158.854 232.2 158.461 232.053 158.128 231.76C157.794 231.467 157.628 231.087 157.628 230.62C157.628 230.167 157.788 229.793 158.108 229.5C158.441 229.207 158.841 229.06 159.308 229.06C159.761 229.06 160.154 229.207 160.488 229.5C160.821 229.793 160.988 230.167 160.988 230.62C160.988 231.087 160.821 231.467 160.488 231.76C160.168 232.053 159.774 232.2 159.308 232.2ZM159.308 231.22C159.481 231.22 159.621 231.167 159.728 231.06C159.848 230.94 159.908 230.793 159.908 230.62C159.908 230.447 159.848 230.307 159.728 230.2C159.621 230.08 159.481 230.02 159.308 230.02C159.134 230.02 158.988 230.08 158.868 230.2C158.761 230.307 158.708 230.447 158.708 230.62C158.708 230.793 158.761 230.94 158.868 231.06C158.988 231.167 159.134 231.22 159.308 231.22ZM175.065 244.2C174.332 244.2 173.698 244.073 173.165 243.82C172.632 243.553 172.192 243.2 171.845 242.76C171.512 242.307 171.258 241.793 171.085 241.22C170.925 240.647 170.832 240.04 170.805 239.4C170.792 239.187 170.785 238.987 170.785 238.8C170.785 238.613 170.792 238.413 170.805 238.2C170.832 237.573 170.925 236.973 171.085 236.4C171.258 235.827 171.512 235.313 171.845 234.86C172.192 234.407 172.632 234.053 173.165 233.8C173.698 233.533 174.332 233.4 175.065 233.4C175.852 233.4 176.505 233.54 177.025 233.82C177.545 234.1 177.972 234.447 178.305 234.86V230.26C178.305 230.127 178.345 230.02 178.425 229.94C178.518 229.847 178.632 229.8 178.765 229.8H179.725C179.858 229.8 179.965 229.847 180.045 229.94C180.138 230.02 180.185 230.127 180.185 230.26V243.54C180.185 243.673 180.138 243.787 180.045 243.88C179.965 243.96 179.858 244 179.725 244H178.825C178.678 244 178.565 243.96 178.485 243.88C178.405 243.787 178.365 243.673 178.365 243.54V242.7C178.032 243.127 177.598 243.487 177.065 243.78C176.532 244.06 175.865 244.2 175.065 244.2ZM175.485 242.58C176.152 242.58 176.685 242.427 177.085 242.12C177.485 241.813 177.785 241.427 177.985 240.96C178.185 240.48 178.292 239.993 178.305 239.5C178.318 239.287 178.325 239.033 178.325 238.74C178.325 238.433 178.318 238.173 178.305 237.96C178.292 237.493 178.178 237.033 177.965 236.58C177.765 236.127 177.458 235.753 177.045 235.46C176.645 235.167 176.125 235.02 175.485 235.02C174.805 235.02 174.265 235.173 173.865 235.48C173.465 235.773 173.178 236.167 173.005 236.66C172.832 237.14 172.732 237.66 172.705 238.22C172.692 238.607 172.692 238.993 172.705 239.38C172.732 239.94 172.832 240.467 173.005 240.96C173.178 241.44 173.465 241.833 173.865 242.14C174.265 242.433 174.805 242.58 175.485 242.58ZM187.04 244.2C186.186 244.2 185.46 244.013 184.86 243.64C184.273 243.253 183.826 242.72 183.52 242.04C183.213 241.36 183.06 240.58 183.06 239.7V234.06C183.06 233.927 183.1 233.82 183.18 233.74C183.273 233.647 183.386 233.6 183.52 233.6H184.52C184.653 233.6 184.76 233.647 184.84 233.74C184.933 233.82 184.98 233.927 184.98 234.06V239.6C184.98 241.587 185.846 242.58 187.58 242.58C188.406 242.58 189.066 242.32 189.56 241.8C190.066 241.267 190.32 240.533 190.32 239.6V234.06C190.32 233.927 190.36 233.82 190.44 233.74C190.533 233.647 190.646 233.6 190.78 233.6H191.76C191.906 233.6 192.02 233.647 192.1 233.74C192.18 233.82 192.22 233.927 192.22 234.06V243.54C192.22 243.673 192.18 243.787 192.1 243.88C192.02 243.96 191.906 244 191.76 244H190.84C190.706 244 190.593 243.96 190.5 243.88C190.42 243.787 190.38 243.673 190.38 243.54V242.66C190.02 243.127 189.58 243.5 189.06 243.78C188.553 244.06 187.88 244.2 187.04 244.2ZM203.693 244.2C202.947 244.2 202.307 244.107 201.773 243.92C201.24 243.733 200.807 243.507 200.473 243.24C200.14 242.973 199.887 242.707 199.713 242.44C199.553 242.173 199.467 241.96 199.453 241.8C199.44 241.653 199.487 241.54 199.593 241.46C199.7 241.38 199.807 241.34 199.913 241.34H200.793C200.873 241.34 200.933 241.353 200.973 241.38C201.027 241.393 201.093 241.447 201.173 241.54C201.347 241.727 201.54 241.913 201.753 242.1C201.967 242.287 202.227 242.44 202.533 242.56C202.853 242.68 203.247 242.74 203.713 242.74C204.393 242.74 204.953 242.613 205.393 242.36C205.833 242.093 206.053 241.707 206.053 241.2C206.053 240.867 205.96 240.6 205.773 240.4C205.6 240.2 205.28 240.02 204.813 239.86C204.36 239.7 203.733 239.533 202.933 239.36C202.133 239.173 201.5 238.947 201.033 238.68C200.567 238.4 200.233 238.073 200.033 237.7C199.833 237.313 199.733 236.88 199.733 236.4C199.733 235.907 199.88 235.433 200.173 234.98C200.467 234.513 200.893 234.133 201.453 233.84C202.027 233.547 202.74 233.4 203.593 233.4C204.287 233.4 204.88 233.487 205.373 233.66C205.867 233.833 206.273 234.053 206.593 234.32C206.913 234.573 207.153 234.827 207.313 235.08C207.473 235.333 207.56 235.547 207.573 235.72C207.587 235.853 207.547 235.967 207.453 236.06C207.36 236.14 207.253 236.18 207.133 236.18H206.293C206.2 236.18 206.12 236.16 206.053 236.12C206 236.08 205.947 236.033 205.893 235.98C205.76 235.807 205.6 235.633 205.413 235.46C205.24 235.287 205.007 235.147 204.713 235.04C204.433 234.92 204.06 234.86 203.593 234.86C202.927 234.86 202.427 235 202.093 235.28C201.76 235.56 201.593 235.913 201.593 236.34C201.593 236.593 201.667 236.82 201.813 237.02C201.96 237.22 202.24 237.4 202.653 237.56C203.067 237.72 203.68 237.893 204.493 238.08C205.373 238.253 206.067 238.487 206.573 238.78C207.08 239.073 207.44 239.413 207.653 239.8C207.867 240.187 207.973 240.633 207.973 241.14C207.973 241.7 207.807 242.213 207.473 242.68C207.153 243.147 206.673 243.52 206.033 243.8C205.407 244.067 204.627 244.2 203.693 244.2ZM210.769 244C210.635 244 210.522 243.96 210.429 243.88C210.349 243.787 210.309 243.673 210.309 243.54V230.26C210.309 230.127 210.349 230.02 210.429 229.94C210.522 229.847 210.635 229.8 210.769 229.8H211.709C211.855 229.8 211.969 229.847 212.049 229.94C212.129 230.02 212.169 230.127 212.169 230.26V243.54C212.169 243.673 212.129 243.787 212.049 243.88C211.969 243.96 211.855 244 211.709 244H210.769ZM215.807 244C215.674 244 215.561 243.96 215.467 243.88C215.387 243.787 215.347 243.673 215.347 243.54V234.06C215.347 233.927 215.387 233.82 215.467 233.74C215.561 233.647 215.674 233.6 215.807 233.6H216.767C216.901 233.6 217.007 233.647 217.087 233.74C217.167 233.82 217.207 233.927 217.207 234.06V243.54C217.207 243.673 217.167 243.787 217.087 243.88C217.007 243.96 216.901 244 216.767 244H215.807ZM215.647 231.66C215.514 231.66 215.401 231.62 215.307 231.54C215.227 231.447 215.187 231.333 215.187 231.2V230.12C215.187 229.987 215.227 229.88 215.307 229.8C215.401 229.707 215.514 229.66 215.647 229.66H216.907C217.041 229.66 217.147 229.707 217.227 229.8C217.321 229.88 217.367 229.987 217.367 230.12V231.2C217.367 231.333 217.321 231.447 217.227 231.54C217.147 231.62 217.041 231.66 216.907 231.66H215.647ZM223.991 244.2C223.258 244.2 222.624 244.073 222.091 243.82C221.558 243.553 221.118 243.2 220.771 242.76C220.438 242.307 220.184 241.793 220.011 241.22C219.851 240.647 219.758 240.04 219.731 239.4C219.718 239.187 219.711 238.987 219.711 238.8C219.711 238.613 219.718 238.413 219.731 238.2C219.758 237.573 219.851 236.973 220.011 236.4C220.184 235.827 220.438 235.313 220.771 234.86C221.118 234.407 221.558 234.053 222.091 233.8C222.624 233.533 223.258 233.4 223.991 233.4C224.778 233.4 225.431 233.54 225.951 233.82C226.471 234.1 226.898 234.447 227.231 234.86V230.26C227.231 230.127 227.271 230.02 227.351 229.94C227.444 229.847 227.558 229.8 227.691 229.8H228.651C228.784 229.8 228.891 229.847 228.971 229.94C229.064 230.02 229.111 230.127 229.111 230.26V243.54C229.111 243.673 229.064 243.787 228.971 243.88C228.891 243.96 228.784 244 228.651 244H227.751C227.604 244 227.491 243.96 227.411 243.88C227.331 243.787 227.291 243.673 227.291 243.54V242.7C226.958 243.127 226.524 243.487 225.991 243.78C225.458 244.06 224.791 244.2 223.991 244.2ZM224.411 242.58C225.078 242.58 225.611 242.427 226.011 242.12C226.411 241.813 226.711 241.427 226.911 240.96C227.111 240.48 227.218 239.993 227.231 239.5C227.244 239.287 227.251 239.033 227.251 238.74C227.251 238.433 227.244 238.173 227.231 237.96C227.218 237.493 227.104 237.033 226.891 236.58C226.691 236.127 226.384 235.753 225.971 235.46C225.571 235.167 225.051 235.02 224.411 235.02C223.731 235.02 223.191 235.173 222.791 235.48C222.391 235.773 222.104 236.167 221.931 236.66C221.758 237.14 221.658 237.66 221.631 238.22C221.618 238.607 221.618 238.993 221.631 239.38C221.658 239.94 221.758 240.467 221.931 240.96C222.104 241.44 222.391 241.833 222.791 242.14C223.191 242.433 223.731 242.58 224.411 242.58ZM236.225 244.2C234.852 244.2 233.759 243.78 232.945 242.94C232.132 242.087 231.685 240.927 231.605 239.46C231.592 239.287 231.585 239.067 231.585 238.8C231.585 238.52 231.592 238.293 231.605 238.12C231.659 237.173 231.879 236.347 232.265 235.64C232.652 234.92 233.179 234.367 233.845 233.98C234.525 233.593 235.319 233.4 236.225 233.4C237.239 233.4 238.085 233.613 238.765 234.04C239.459 234.467 239.985 235.073 240.345 235.86C240.705 236.647 240.885 237.567 240.885 238.62V238.96C240.885 239.107 240.839 239.22 240.745 239.3C240.665 239.38 240.559 239.42 240.425 239.42H233.505C233.505 239.433 233.505 239.46 233.505 239.5C233.505 239.54 233.505 239.573 233.505 239.6C233.532 240.147 233.652 240.66 233.865 241.14C234.079 241.607 234.385 241.987 234.785 242.28C235.185 242.573 235.665 242.72 236.225 242.72C236.705 242.72 237.105 242.647 237.425 242.5C237.745 242.353 238.005 242.193 238.205 242.02C238.405 241.833 238.539 241.693 238.605 241.6C238.725 241.427 238.819 241.327 238.885 241.3C238.952 241.26 239.059 241.24 239.205 241.24H240.165C240.299 241.24 240.405 241.28 240.485 241.36C240.579 241.427 240.619 241.527 240.605 241.66C240.592 241.86 240.485 242.107 240.285 242.4C240.085 242.68 239.799 242.96 239.425 243.24C239.052 243.52 238.599 243.753 238.065 243.94C237.532 244.113 236.919 244.2 236.225 244.2ZM233.505 238.04H238.985V237.98C238.985 237.38 238.872 236.847 238.645 236.38C238.432 235.913 238.119 235.547 237.705 235.28C237.292 235 236.799 234.86 236.225 234.86C235.652 234.86 235.159 235 234.745 235.28C234.345 235.547 234.039 235.913 233.825 236.38C233.612 236.847 233.505 237.38 233.505 237.98V238.04ZM243.737 244C243.604 244 243.49 243.96 243.397 243.88C243.317 243.787 243.277 243.673 243.277 243.54V234.08C243.277 233.947 243.317 233.833 243.397 233.74C243.49 233.647 243.604 233.6 243.737 233.6H244.657C244.79 233.6 244.904 233.647 244.997 233.74C245.09 233.833 245.137 233.947 245.137 234.08V234.96C245.404 234.507 245.77 234.167 246.237 233.94C246.704 233.713 247.264 233.6 247.917 233.6H248.717C248.85 233.6 248.957 233.647 249.037 233.74C249.117 233.82 249.157 233.927 249.157 234.06V234.88C249.157 235.013 249.117 235.12 249.037 235.2C248.957 235.28 248.85 235.32 248.717 235.32H247.517C246.797 235.32 246.23 235.533 245.817 235.96C245.404 236.373 245.197 236.94 245.197 237.66V243.54C245.197 243.673 245.15 243.787 245.057 243.88C244.964 243.96 244.85 244 244.717 244H243.737ZM255.768 244C255.635 244 255.521 243.96 255.428 243.88C255.348 243.787 255.308 243.673 255.308 243.54V234.06C255.308 233.927 255.348 233.82 255.428 233.74C255.521 233.647 255.635 233.6 255.768 233.6H256.668C256.801 233.6 256.908 233.647 256.988 233.74C257.081 233.82 257.128 233.927 257.128 234.06V234.76C257.435 234.347 257.821 234.02 258.288 233.78C258.755 233.527 259.315 233.4 259.968 233.4C261.475 233.387 262.541 234 263.168 235.24C263.475 234.68 263.921 234.233 264.508 233.9C265.095 233.567 265.761 233.4 266.508 233.4C267.201 233.4 267.828 233.56 268.388 233.88C268.961 234.2 269.408 234.687 269.728 235.34C270.061 235.98 270.228 236.787 270.228 237.76V243.54C270.228 243.673 270.181 243.787 270.088 243.88C270.008 243.96 269.901 244 269.768 244H268.828C268.695 244 268.581 243.96 268.488 243.88C268.408 243.787 268.368 243.673 268.368 243.54V237.94C268.368 237.193 268.261 236.607 268.048 236.18C267.835 235.753 267.548 235.453 267.188 235.28C266.828 235.107 266.435 235.02 266.008 235.02C265.661 235.02 265.308 235.107 264.948 235.28C264.588 235.453 264.288 235.753 264.048 236.18C263.821 236.607 263.708 237.193 263.708 237.94V243.54C263.708 243.673 263.661 243.787 263.568 243.88C263.488 243.96 263.381 244 263.248 244H262.308C262.175 244 262.061 243.96 261.968 243.88C261.888 243.787 261.848 243.673 261.848 243.54V237.94C261.848 237.193 261.735 236.607 261.508 236.18C261.281 235.753 260.988 235.453 260.628 235.28C260.268 235.107 259.888 235.02 259.488 235.02C259.141 235.02 258.788 235.107 258.428 235.28C258.068 235.453 257.768 235.753 257.528 236.18C257.301 236.607 257.188 237.187 257.188 237.92V243.54C257.188 243.673 257.141 243.787 257.048 243.88C256.968 243.96 256.861 244 256.728 244H255.768ZM273.542 244C273.408 244 273.295 243.96 273.202 243.88C273.122 243.787 273.082 243.673 273.082 243.54V234.06C273.082 233.927 273.122 233.82 273.202 233.74C273.295 233.647 273.408 233.6 273.542 233.6H274.502C274.635 233.6 274.742 233.647 274.822 233.74C274.902 233.82 274.942 233.927 274.942 234.06V243.54C274.942 243.673 274.902 243.787 274.822 243.88C274.742 243.96 274.635 244 274.502 244H273.542ZM273.382 231.66C273.248 231.66 273.135 231.62 273.042 231.54C272.962 231.447 272.922 231.333 272.922 231.2V230.12C272.922 229.987 272.962 229.88 273.042 229.8C273.135 229.707 273.248 229.66 273.382 229.66H274.642C274.775 229.66 274.882 229.707 274.962 229.8C275.055 229.88 275.102 229.987 275.102 230.12V231.2C275.102 231.333 275.055 231.447 274.962 231.54C274.882 231.62 274.775 231.66 274.642 231.66H273.382ZM278.581 244C278.447 244 278.334 243.96 278.241 243.88C278.161 243.787 278.121 243.673 278.121 243.54V234.06C278.121 233.927 278.161 233.82 278.241 233.74C278.334 233.647 278.447 233.6 278.581 233.6H279.521C279.654 233.6 279.761 233.647 279.841 233.74C279.934 233.82 279.981 233.927 279.981 234.06V234.94C280.327 234.487 280.761 234.12 281.281 233.84C281.814 233.547 282.494 233.4 283.321 233.4C284.187 233.4 284.921 233.593 285.521 233.98C286.134 234.353 286.594 234.88 286.901 235.56C287.207 236.227 287.361 237.007 287.361 237.9V243.54C287.361 243.673 287.321 243.787 287.241 243.88C287.161 243.96 287.054 244 286.921 244H285.921C285.787 244 285.674 243.96 285.581 243.88C285.501 243.787 285.461 243.673 285.461 243.54V238C285.461 237.067 285.234 236.34 284.781 235.82C284.327 235.287 283.661 235.02 282.781 235.02C281.954 235.02 281.287 235.287 280.781 235.82C280.287 236.34 280.041 237.067 280.041 238V243.54C280.041 243.673 279.994 243.787 279.901 243.88C279.821 243.96 279.714 244 279.581 244H278.581ZM294.05 244.2C293.316 244.2 292.683 244.073 292.15 243.82C291.616 243.553 291.176 243.2 290.83 242.76C290.496 242.307 290.243 241.793 290.07 241.22C289.91 240.647 289.816 240.04 289.79 239.4C289.776 239.187 289.77 238.987 289.77 238.8C289.77 238.613 289.776 238.413 289.79 238.2C289.816 237.573 289.91 236.973 290.07 236.4C290.243 235.827 290.496 235.313 290.83 234.86C291.176 234.407 291.616 234.053 292.15 233.8C292.683 233.533 293.316 233.4 294.05 233.4C294.836 233.4 295.49 233.54 296.01 233.82C296.53 234.1 296.956 234.447 297.29 234.86V230.26C297.29 230.127 297.33 230.02 297.41 229.94C297.503 229.847 297.616 229.8 297.75 229.8H298.71C298.843 229.8 298.95 229.847 299.03 229.94C299.123 230.02 299.17 230.127 299.17 230.26V243.54C299.17 243.673 299.123 243.787 299.03 243.88C298.95 243.96 298.843 244 298.71 244H297.81C297.663 244 297.55 243.96 297.47 243.88C297.39 243.787 297.35 243.673 297.35 243.54V242.7C297.016 243.127 296.583 243.487 296.05 243.78C295.516 244.06 294.85 244.2 294.05 244.2ZM294.47 242.58C295.136 242.58 295.67 242.427 296.07 242.12C296.47 241.813 296.77 241.427 296.97 240.96C297.17 240.48 297.276 239.993 297.29 239.5C297.303 239.287 297.31 239.033 297.31 238.74C297.31 238.433 297.303 238.173 297.29 237.96C297.276 237.493 297.163 237.033 296.95 236.58C296.75 236.127 296.443 235.753 296.03 235.46C295.63 235.167 295.11 235.02 294.47 235.02C293.79 235.02 293.25 235.173 292.85 235.48C292.45 235.773 292.163 236.167 291.99 236.66C291.816 237.14 291.716 237.66 291.69 238.22C291.676 238.607 291.676 238.993 291.69 239.38C291.716 239.94 291.816 240.467 291.99 240.96C292.163 241.44 292.45 241.833 292.85 242.14C293.25 242.433 293.79 242.58 294.47 242.58ZM302.604 244C302.471 244 302.357 243.96 302.264 243.88C302.184 243.787 302.144 243.673 302.144 243.54V234.08C302.144 233.947 302.184 233.833 302.264 233.74C302.357 233.647 302.471 233.6 302.604 233.6H303.524C303.657 233.6 303.771 233.647 303.864 233.74C303.957 233.833 304.004 233.947 304.004 234.08V234.96C304.271 234.507 304.637 234.167 305.104 233.94C305.571 233.713 306.131 233.6 306.784 233.6H307.584C307.717 233.6 307.824 233.647 307.904 233.74C307.984 233.82 308.024 233.927 308.024 234.06V234.88C308.024 235.013 307.984 235.12 307.904 235.2C307.824 235.28 307.717 235.32 307.584 235.32H306.384C305.664 235.32 305.097 235.533 304.684 235.96C304.271 236.373 304.064 236.94 304.064 237.66V243.54C304.064 243.673 304.017 243.787 303.924 243.88C303.831 243.96 303.717 244 303.584 244H302.604ZM313.686 244.2C312.313 244.2 311.22 243.78 310.406 242.94C309.593 242.087 309.146 240.927 309.066 239.46C309.053 239.287 309.046 239.067 309.046 238.8C309.046 238.52 309.053 238.293 309.066 238.12C309.12 237.173 309.34 236.347 309.726 235.64C310.113 234.92 310.64 234.367 311.306 233.98C311.986 233.593 312.78 233.4 313.686 233.4C314.7 233.4 315.546 233.613 316.226 234.04C316.92 234.467 317.446 235.073 317.806 235.86C318.166 236.647 318.346 237.567 318.346 238.62V238.96C318.346 239.107 318.3 239.22 318.206 239.3C318.126 239.38 318.02 239.42 317.886 239.42H310.966C310.966 239.433 310.966 239.46 310.966 239.5C310.966 239.54 310.966 239.573 310.966 239.6C310.993 240.147 311.113 240.66 311.326 241.14C311.54 241.607 311.846 241.987 312.246 242.28C312.646 242.573 313.126 242.72 313.686 242.72C314.166 242.72 314.566 242.647 314.886 242.5C315.206 242.353 315.466 242.193 315.666 242.02C315.866 241.833 316 241.693 316.066 241.6C316.186 241.427 316.28 241.327 316.346 241.3C316.413 241.26 316.52 241.24 316.666 241.24H317.626C317.76 241.24 317.866 241.28 317.946 241.36C318.04 241.427 318.08 241.527 318.066 241.66C318.053 241.86 317.946 242.107 317.746 242.4C317.546 242.68 317.26 242.96 316.886 243.24C316.513 243.52 316.06 243.753 315.526 243.94C314.993 244.113 314.38 244.2 313.686 244.2ZM310.966 238.04H316.446V237.98C316.446 237.38 316.333 236.847 316.106 236.38C315.893 235.913 315.58 235.547 315.166 235.28C314.753 235 314.26 234.86 313.686 234.86C313.113 234.86 312.62 235 312.206 235.28C311.806 235.547 311.5 235.913 311.286 236.38C311.073 236.847 310.966 237.38 310.966 237.98V238.04ZM326.12 247.8C325.987 247.8 325.873 247.753 325.78 247.66C325.7 247.58 325.66 247.473 325.66 247.34V234.06C325.66 233.927 325.7 233.82 325.78 233.74C325.873 233.647 325.987 233.6 326.12 233.6H327.04C327.173 233.6 327.28 233.647 327.36 233.74C327.453 233.82 327.5 233.927 327.5 234.06V234.94C327.82 234.5 328.247 234.133 328.78 233.84C329.313 233.547 329.98 233.4 330.78 233.4C331.527 233.4 332.16 233.527 332.68 233.78C333.213 234.033 333.647 234.38 333.98 234.82C334.327 235.26 334.587 235.76 334.76 236.32C334.933 236.88 335.027 237.48 335.04 238.12C335.053 238.333 335.06 238.56 335.06 238.8C335.06 239.04 335.053 239.267 335.04 239.48C335.027 240.107 334.933 240.707 334.76 241.28C334.587 241.84 334.327 242.34 333.98 242.78C333.647 243.207 333.213 243.553 332.68 243.82C332.16 244.073 331.527 244.2 330.78 244.2C330.007 244.2 329.353 244.06 328.82 243.78C328.3 243.487 327.873 243.127 327.54 242.7V247.34C327.54 247.473 327.5 247.58 327.42 247.66C327.34 247.753 327.227 247.8 327.08 247.8H326.12ZM330.36 242.58C331.053 242.58 331.593 242.433 331.98 242.14C332.38 241.833 332.667 241.44 332.84 240.96C333.013 240.467 333.113 239.94 333.14 239.38C333.153 238.993 333.153 238.607 333.14 238.22C333.113 237.66 333.013 237.14 332.84 236.66C332.667 236.167 332.38 235.773 331.98 235.48C331.593 235.173 331.053 235.02 330.36 235.02C329.707 235.02 329.173 235.173 328.76 235.48C328.36 235.787 328.06 236.18 327.86 236.66C327.673 237.127 327.567 237.607 327.54 238.1C327.527 238.313 327.52 238.567 327.52 238.86C327.52 239.153 327.527 239.413 327.54 239.64C327.553 240.107 327.66 240.567 327.86 241.02C328.073 241.473 328.387 241.847 328.8 242.14C329.213 242.433 329.733 242.58 330.36 242.58ZM340.454 244.2C339.788 244.2 339.181 244.067 338.634 243.8C338.088 243.533 337.648 243.173 337.314 242.72C336.981 242.267 336.814 241.753 336.814 241.18C336.814 240.26 337.188 239.527 337.934 238.98C338.681 238.433 339.654 238.073 340.854 237.9L343.834 237.48V236.9C343.834 236.26 343.648 235.76 343.274 235.4C342.914 235.04 342.321 234.86 341.494 234.86C340.894 234.86 340.408 234.98 340.034 235.22C339.674 235.46 339.421 235.767 339.274 236.14C339.194 236.34 339.054 236.44 338.854 236.44H337.954C337.808 236.44 337.694 236.4 337.614 236.32C337.548 236.227 337.514 236.12 337.514 236C337.514 235.8 337.588 235.553 337.734 235.26C337.894 234.967 338.134 234.68 338.454 234.4C338.774 234.12 339.181 233.887 339.674 233.7C340.181 233.5 340.794 233.4 341.514 233.4C342.314 233.4 342.988 233.507 343.534 233.72C344.081 233.92 344.508 234.193 344.814 234.54C345.134 234.887 345.361 235.28 345.494 235.72C345.641 236.16 345.714 236.607 345.714 237.06V243.54C345.714 243.673 345.668 243.787 345.574 243.88C345.494 243.96 345.388 244 345.254 244H344.334C344.188 244 344.074 243.96 343.994 243.88C343.914 243.787 343.874 243.673 343.874 243.54V242.68C343.701 242.92 343.468 243.16 343.174 243.4C342.881 243.627 342.514 243.82 342.074 243.98C341.634 244.127 341.094 244.2 340.454 244.2ZM340.874 242.7C341.421 242.7 341.921 242.587 342.374 242.36C342.828 242.12 343.181 241.753 343.434 241.26C343.701 240.767 343.834 240.147 343.834 239.4V238.84L341.514 239.18C340.568 239.313 339.854 239.54 339.374 239.86C338.894 240.167 338.654 240.56 338.654 241.04C338.654 241.413 338.761 241.727 338.974 241.98C339.201 242.22 339.481 242.4 339.814 242.52C340.161 242.64 340.514 242.7 340.874 242.7ZM341.534 232.2C341.081 232.2 340.688 232.053 340.354 231.76C340.021 231.467 339.854 231.087 339.854 230.62C339.854 230.167 340.014 229.793 340.334 229.5C340.668 229.207 341.068 229.06 341.534 229.06C341.988 229.06 342.381 229.207 342.714 229.5C343.048 229.793 343.214 230.167 343.214 230.62C343.214 231.087 343.048 231.467 342.714 231.76C342.394 232.053 342.001 232.2 341.534 232.2ZM341.534 231.22C341.708 231.22 341.848 231.167 341.954 231.06C342.074 230.94 342.134 230.793 342.134 230.62C342.134 230.447 342.074 230.307 341.954 230.2C341.848 230.08 341.708 230.02 341.534 230.02C341.361 230.02 341.214 230.08 341.094 230.2C340.988 230.307 340.934 230.447 340.934 230.62C340.934 230.793 340.988 230.94 341.094 231.06C341.214 231.167 341.361 231.22 341.534 231.22ZM357.122 244C356.375 244 355.769 243.86 355.302 243.58C354.835 243.287 354.495 242.88 354.282 242.36C354.069 241.827 353.962 241.2 353.962 240.48V235.2H352.402C352.269 235.2 352.155 235.16 352.062 235.08C351.982 234.987 351.942 234.873 351.942 234.74V234.06C351.942 233.927 351.982 233.82 352.062 233.74C352.155 233.647 352.269 233.6 352.402 233.6H353.962V230.26C353.962 230.127 354.002 230.02 354.082 229.94C354.175 229.847 354.289 229.8 354.422 229.8H355.362C355.495 229.8 355.602 229.847 355.682 229.94C355.775 230.02 355.822 230.127 355.822 230.26V233.6H358.302C358.435 233.6 358.542 233.647 358.622 233.74C358.715 233.82 358.762 233.927 358.762 234.06V234.74C358.762 234.873 358.715 234.987 358.622 235.08C358.542 235.16 358.435 235.2 358.302 235.2H355.822V240.34C355.822 240.967 355.929 241.46 356.142 241.82C356.355 242.18 356.735 242.36 357.282 242.36H358.502C358.635 242.36 358.742 242.407 358.822 242.5C358.915 242.58 358.962 242.687 358.962 242.82V243.54C358.962 243.673 358.915 243.787 358.822 243.88C358.742 243.96 358.635 244 358.502 244H357.122ZM365.135 244.2C364.121 244.2 363.275 244.007 362.595 243.62C361.915 243.233 361.395 242.7 361.035 242.02C360.675 241.327 360.475 240.54 360.435 239.66C360.421 239.433 360.415 239.147 360.415 238.8C360.415 238.44 360.421 238.153 360.435 237.94C360.475 237.047 360.675 236.26 361.035 235.58C361.408 234.9 361.935 234.367 362.615 233.98C363.295 233.593 364.135 233.4 365.135 233.4C366.135 233.4 366.975 233.593 367.655 233.98C368.335 234.367 368.855 234.9 369.215 235.58C369.588 236.26 369.795 237.047 369.835 237.94C369.848 238.153 369.855 238.44 369.855 238.8C369.855 239.147 369.848 239.433 369.835 239.66C369.795 240.54 369.595 241.327 369.235 242.02C368.875 242.7 368.355 243.233 367.675 243.62C366.995 244.007 366.148 244.2 365.135 244.2ZM365.135 242.66C365.961 242.66 366.621 242.4 367.115 241.88C367.608 241.347 367.875 240.573 367.915 239.56C367.928 239.36 367.935 239.107 367.935 238.8C367.935 238.493 367.928 238.24 367.915 238.04C367.875 237.027 367.608 236.26 367.115 235.74C366.621 235.207 365.961 234.94 365.135 234.94C364.308 234.94 363.641 235.207 363.135 235.74C362.641 236.26 362.381 237.027 362.355 238.04C362.341 238.24 362.335 238.493 362.335 238.8C362.335 239.107 362.341 239.36 362.355 239.56C362.381 240.573 362.641 241.347 363.135 241.88C363.641 242.4 364.308 242.66 365.135 242.66ZM360.855 244.56C360.748 244.56 360.655 244.52 360.575 244.44C360.495 244.36 360.455 244.267 360.455 244.16C360.455 244.12 360.455 244.08 360.455 244.04C360.468 244 360.495 243.953 360.535 243.9L368.515 233.36C368.555 233.307 368.608 233.247 368.675 233.18C368.741 233.1 368.841 233.06 368.975 233.06H369.395C369.501 233.06 369.595 233.1 369.675 233.18C369.755 233.26 369.795 233.353 369.795 233.46C369.795 233.473 369.788 233.507 369.775 233.56C369.775 233.6 369.755 233.653 369.715 233.72L361.735 244.26C361.695 244.313 361.641 244.373 361.575 244.44C361.521 244.52 361.428 244.56 361.295 244.56H360.855ZM370.659 247.8C370.526 247.8 370.419 247.753 370.339 247.66C370.246 247.58 370.199 247.473 370.199 247.34V246.66C370.199 246.527 370.246 246.413 370.339 246.32C370.419 246.24 370.526 246.2 370.659 246.2H370.939C371.419 246.2 371.772 246.107 371.999 245.92C372.226 245.747 372.372 245.513 372.439 245.22C372.519 244.927 372.559 244.593 372.559 244.22V234.06C372.559 233.927 372.599 233.82 372.679 233.74C372.772 233.647 372.886 233.6 373.019 233.6H373.999C374.132 233.6 374.239 233.647 374.319 233.74C374.412 233.82 374.459 233.927 374.459 234.06V244.24C374.459 244.947 374.346 245.567 374.119 246.1C373.906 246.633 373.552 247.047 373.059 247.34C372.566 247.647 371.892 247.8 371.039 247.8H370.659ZM372.859 231.66C372.726 231.66 372.612 231.62 372.519 231.54C372.439 231.447 372.399 231.333 372.399 231.2V230.12C372.399 229.987 372.439 229.88 372.519 229.8C372.612 229.707 372.726 229.66 372.859 229.66H374.139C374.272 229.66 374.386 229.707 374.479 229.8C374.572 229.88 374.619 229.987 374.619 230.12V231.2C374.619 231.333 374.572 231.447 374.479 231.54C374.386 231.62 374.272 231.66 374.139 231.66H372.859ZM381.616 244.2C380.243 244.2 379.149 243.78 378.336 242.94C377.523 242.087 377.076 240.927 376.996 239.46C376.983 239.287 376.976 239.067 376.976 238.8C376.976 238.52 376.983 238.293 376.996 238.12C377.049 237.173 377.269 236.347 377.656 235.64C378.043 234.92 378.569 234.367 379.236 233.98C379.916 233.593 380.709 233.4 381.616 233.4C382.629 233.4 383.476 233.613 384.156 234.04C384.849 234.467 385.376 235.073 385.736 235.86C386.096 236.647 386.276 237.567 386.276 238.62V238.96C386.276 239.107 386.229 239.22 386.136 239.3C386.056 239.38 385.949 239.42 385.816 239.42H378.896C378.896 239.433 378.896 239.46 378.896 239.5C378.896 239.54 378.896 239.573 378.896 239.6C378.923 240.147 379.043 240.66 379.256 241.14C379.469 241.607 379.776 241.987 380.176 242.28C380.576 242.573 381.056 242.72 381.616 242.72C382.096 242.72 382.496 242.647 382.816 242.5C383.136 242.353 383.396 242.193 383.596 242.02C383.796 241.833 383.929 241.693 383.996 241.6C384.116 241.427 384.209 241.327 384.276 241.3C384.343 241.26 384.449 241.24 384.596 241.24H385.556C385.689 241.24 385.796 241.28 385.876 241.36C385.969 241.427 386.009 241.527 385.996 241.66C385.983 241.86 385.876 242.107 385.676 242.4C385.476 242.68 385.189 242.96 384.816 243.24C384.443 243.52 383.989 243.753 383.456 243.94C382.923 244.113 382.309 244.2 381.616 244.2ZM378.896 238.04H384.376V237.98C384.376 237.38 384.263 236.847 384.036 236.38C383.823 235.913 383.509 235.547 383.096 235.28C382.683 235 382.189 234.86 381.616 234.86C381.043 234.86 380.549 235 380.136 235.28C379.736 235.547 379.429 235.913 379.216 236.38C379.003 236.847 378.896 237.38 378.896 237.98V238.04ZM392.669 244C391.922 244 391.316 243.86 390.849 243.58C390.382 243.287 390.042 242.88 389.829 242.36C389.616 241.827 389.509 241.2 389.509 240.48V235.2H387.949C387.816 235.2 387.702 235.16 387.609 235.08C387.529 234.987 387.489 234.873 387.489 234.74V234.06C387.489 233.927 387.529 233.82 387.609 233.74C387.702 233.647 387.816 233.6 387.949 233.6H389.509V230.26C389.509 230.127 389.549 230.02 389.629 229.94C389.722 229.847 389.836 229.8 389.969 229.8H390.909C391.042 229.8 391.149 229.847 391.229 229.94C391.322 230.02 391.369 230.127 391.369 230.26V233.6H393.849C393.982 233.6 394.089 233.647 394.169 233.74C394.262 233.82 394.309 233.927 394.309 234.06V234.74C394.309 234.873 394.262 234.987 394.169 235.08C394.089 235.16 393.982 235.2 393.849 235.2H391.369V240.34C391.369 240.967 391.476 241.46 391.689 241.82C391.902 242.18 392.282 242.36 392.829 242.36H394.049C394.182 242.36 394.289 242.407 394.369 242.5C394.462 242.58 394.509 242.687 394.509 242.82V243.54C394.509 243.673 394.462 243.787 394.369 243.88C394.289 243.96 394.182 244 394.049 244H392.669Z" fill="white"/>
<circle cx="197.5" cy="92.5" r="92.5" fill="white"/>
<path d="M198.383 59.5734C206.43 59.5734 213.152 53.299 213.951 45.4598C214.023 44.7299 213.221 44 212.492 44C212.097 44.0022 211.706 44.0765 211.339 44.2208C211.29 44.2404 206.206 46.1898 198.383 46.1898C190.56 46.1898 185.466 44.2448 185.427 44.2208C185.013 44.0765 184.577 44.0022 184.138 44H184.123C183.941 44.0109 183.763 44.0568 183.599 44.1355C183.435 44.2142 183.288 44.3234 183.166 44.4589C183.044 44.5944 182.951 44.7539 182.891 44.9244C182.83 45.097 182.805 45.2784 182.815 45.4598C183.63 53.2859 190.356 59.5734 198.383 59.5734Z" fill="black"/>
<path d="M254.158 58.0884L222.707 47.0759C222.574 47.0278 222.43 47.0126 222.288 47.0258C222.146 47.0411 222.008 47.0869 221.886 47.159C221.765 47.2333 221.66 47.3317 221.58 47.4497C221.501 47.5699 221.449 47.7032 221.427 47.8453C220.516 53.298 217.701 58.2502 213.484 61.8234C209.267 65.3944 203.919 67.3569 198.392 67.3569C192.865 67.3569 187.517 65.3944 183.3 61.8234C179.082 58.2502 176.268 53.298 175.358 47.8453C175.337 47.7011 175.284 47.5633 175.203 47.4431C175.122 47.3251 175.015 47.2225 174.89 47.1503C174.766 47.076 174.626 47.0322 174.482 47.0191C174.338 47.006 174.192 47.0256 174.057 47.0759L142.606 58.0884C141.726 58.3965 140.986 59.0107 140.52 59.8171C140.054 60.6257 139.894 61.5742 140.069 62.4921L144.114 83.9008C144.27 84.7181 144.683 85.4634 145.292 86.0272C145.901 86.5911 146.675 86.9473 147.5 87.0413L159.391 88.383C159.876 88.4377 160.323 88.6737 160.643 89.043C160.963 89.4124 161.133 89.8867 161.118 90.3763L159.335 148.988C159.311 149.742 159.508 150.489 159.901 151.134C160.294 151.778 160.866 152.296 161.548 152.622C162.115 152.878 162.731 153.007 163.353 153H233.412C234.032 153.007 234.648 152.878 235.216 152.622C235.898 152.296 236.471 151.778 236.864 151.134C237.257 150.489 237.454 149.742 237.43 148.988L235.647 90.3763C235.632 89.8867 235.802 89.4124 236.121 89.043C236.44 88.6737 236.888 88.4377 237.373 88.383L249.264 87.0413C250.09 86.9473 250.863 86.5911 251.473 86.0272C252.08 85.4634 252.493 84.7181 252.651 83.9008L256.695 62.4921C256.87 61.5742 256.71 60.6257 256.245 59.8171C255.78 59.0107 255.039 58.3965 254.158 58.0884Z" fill="black"/>
</svg>
