<svg width="227" height="257" viewBox="0 0 227 257" fill="none" xmlns="http://www.w3.org/2000/svg">
<path d="M58.375 214C58.1917 214 58.0417 213.942 57.925 213.825C57.8083 213.708 57.75 213.558 57.75 213.375V197.125C57.75 196.942 57.8083 196.792 57.925 196.675C58.0417 196.558 58.1917 196.5 58.375 196.5H64.875C66.5083 196.5 67.9 196.767 69.05 197.3C70.2 197.817 71.0833 198.583 71.7 199.6C72.3167 200.6 72.65 201.842 72.7 203.325C72.7167 204.058 72.725 204.7 72.725 205.25C72.725 205.8 72.7167 206.433 72.7 207.15C72.6333 208.7 72.3 209.983 71.7 211C71.1167 212.017 70.2583 212.775 69.125 213.275C68.0083 213.758 66.6333 214 65 214H58.375ZM62.225 210.4H64.875C65.5917 210.4 66.1833 210.292 66.65 210.075C67.1333 209.842 67.4917 209.483 67.725 209C67.975 208.517 68.1083 207.883 68.125 207.1C68.1583 206.617 68.175 206.183 68.175 205.8C68.1917 205.417 68.1917 205.033 68.175 204.65C68.175 204.267 68.1583 203.842 68.125 203.375C68.0917 202.242 67.7917 201.417 67.225 200.9C66.675 200.367 65.85 200.1 64.75 200.1H62.225V210.4ZM75.9955 214C75.8122 214 75.6622 213.942 75.5455 213.825C75.4288 213.708 75.3705 213.558 75.3705 213.375V201.625C75.3705 201.442 75.4288 201.292 75.5455 201.175C75.6622 201.058 75.8122 201 75.9955 201H78.9455C79.1122 201 79.2538 201.058 79.3705 201.175C79.5038 201.292 79.5705 201.442 79.5705 201.625V213.375C79.5705 213.558 79.5038 213.708 79.3705 213.825C79.2538 213.942 79.1122 214 78.9455 214H75.9955ZM75.9705 199.125C75.7872 199.125 75.6372 199.067 75.5205 198.95C75.4038 198.833 75.3455 198.683 75.3455 198.5V196.275C75.3455 196.092 75.4038 195.942 75.5205 195.825C75.6372 195.692 75.7872 195.625 75.9705 195.625H78.9455C79.1288 195.625 79.2788 195.692 79.3955 195.825C79.5288 195.942 79.5955 196.092 79.5955 196.275V198.5C79.5955 198.683 79.5288 198.833 79.3955 198.95C79.2788 199.067 79.1288 199.125 78.9455 199.125H75.9705ZM83.9057 214C83.7223 214 83.5723 213.942 83.4557 213.825C83.339 213.708 83.2807 213.558 83.2807 213.375V201.625C83.2807 201.442 83.339 201.292 83.4557 201.175C83.5723 201.058 83.7223 201 83.9057 201H86.7807C86.964 201 87.114 201.058 87.2307 201.175C87.3473 201.292 87.4057 201.442 87.4057 201.625V202.575C87.839 202.058 88.4057 201.625 89.1057 201.275C89.8057 200.925 90.6307 200.75 91.5807 200.75C92.5473 200.75 93.3973 200.967 94.1307 201.4C94.8807 201.833 95.464 202.475 95.8807 203.325C96.314 204.158 96.5307 205.183 96.5307 206.4V213.375C96.5307 213.558 96.464 213.708 96.3307 213.825C96.214 213.942 96.0723 214 95.9057 214H92.7557C92.589 214 92.439 213.942 92.3057 213.825C92.189 213.708 92.1307 213.558 92.1307 213.375V206.55C92.1307 205.767 91.939 205.167 91.5557 204.75C91.189 204.317 90.639 204.1 89.9057 204.1C89.2223 204.1 88.6723 204.317 88.2557 204.75C87.8557 205.167 87.6557 205.767 87.6557 206.55V213.375C87.6557 213.558 87.589 213.708 87.4557 213.825C87.339 213.942 87.1973 214 87.0307 214H83.9057ZM105.268 214C105.085 214 104.935 213.942 104.818 213.825C104.701 213.708 104.643 213.558 104.643 213.375V201.625C104.643 201.442 104.701 201.292 104.818 201.175C104.935 201.058 105.085 201 105.268 201H107.993C108.176 201 108.326 201.058 108.443 201.175C108.56 201.292 108.618 201.442 108.618 201.625V202.475C108.951 202.025 109.418 201.633 110.018 201.3C110.618 200.95 111.326 200.767 112.143 200.75C114.06 200.717 115.376 201.442 116.093 202.925C116.476 202.292 117.026 201.775 117.743 201.375C118.46 200.958 119.243 200.75 120.093 200.75C120.96 200.75 121.735 200.95 122.418 201.35C123.118 201.733 123.676 202.333 124.093 203.15C124.51 203.95 124.718 204.992 124.718 206.275V213.375C124.718 213.558 124.651 213.708 124.518 213.825C124.401 213.942 124.26 214 124.093 214H121.193C121.01 214 120.851 213.942 120.718 213.825C120.601 213.708 120.543 213.558 120.543 213.375V206.45C120.543 205.867 120.46 205.408 120.293 205.075C120.126 204.725 119.901 204.475 119.618 204.325C119.335 204.175 119.01 204.1 118.643 204.1C118.343 204.1 118.043 204.175 117.743 204.325C117.46 204.475 117.226 204.725 117.043 205.075C116.876 205.408 116.793 205.867 116.793 206.45V213.375C116.793 213.558 116.735 213.708 116.618 213.825C116.501 213.942 116.351 214 116.168 214H113.268C113.085 214 112.935 213.942 112.818 213.825C112.701 213.708 112.643 213.558 112.643 213.375V206.45C112.643 205.867 112.551 205.408 112.368 205.075C112.185 204.725 111.951 204.475 111.668 204.325C111.385 204.175 111.068 204.1 110.718 204.1C110.418 204.1 110.118 204.175 109.818 204.325C109.535 204.475 109.301 204.725 109.118 205.075C108.951 205.408 108.868 205.858 108.868 206.425V213.375C108.868 213.558 108.801 213.708 108.668 213.825C108.551 213.942 108.401 214 108.218 214H105.268ZM131.744 214.25C130.694 214.25 129.794 214.083 129.044 213.75C128.294 213.4 127.719 212.933 127.319 212.35C126.919 211.767 126.719 211.108 126.719 210.375C126.719 209.192 127.194 208.25 128.144 207.55C129.111 206.85 130.394 206.375 131.994 206.125L135.119 205.65V205.3C135.119 204.7 134.994 204.25 134.744 203.95C134.494 203.633 134.044 203.475 133.394 203.475C132.977 203.475 132.636 203.55 132.369 203.7C132.119 203.85 131.894 204.017 131.694 204.2C131.511 204.367 131.319 204.508 131.119 204.625C131.086 204.692 131.044 204.742 130.994 204.775C130.961 204.808 130.911 204.825 130.844 204.825H128.119C127.952 204.825 127.819 204.775 127.719 204.675C127.619 204.558 127.569 204.425 127.569 204.275C127.569 203.975 127.677 203.633 127.894 203.25C128.111 202.85 128.452 202.458 128.919 202.075C129.386 201.692 129.986 201.375 130.719 201.125C131.469 200.875 132.369 200.75 133.419 200.75C134.469 200.75 135.319 200.883 135.969 201.15C136.636 201.4 137.161 201.733 137.544 202.15C138.027 201.733 138.602 201.4 139.269 201.15C139.936 200.883 140.702 200.75 141.569 200.75C142.769 200.75 143.777 200.942 144.594 201.325C145.427 201.708 146.094 202.225 146.594 202.875C147.094 203.525 147.452 204.242 147.669 205.025C147.902 205.808 148.019 206.608 148.019 207.425V208.025C148.019 208.208 147.952 208.358 147.819 208.475C147.702 208.592 147.561 208.65 147.394 208.65H139.494V208.825C139.511 209.442 139.611 209.942 139.794 210.325C139.977 210.708 140.219 210.992 140.519 211.175C140.836 211.358 141.177 211.45 141.544 211.45C141.877 211.45 142.194 211.375 142.494 211.225C142.794 211.075 143.061 210.85 143.294 210.55C143.444 210.383 143.561 210.283 143.644 210.25C143.744 210.2 143.894 210.175 144.094 210.175H147.144C147.511 210.175 147.694 210.35 147.694 210.7C147.694 210.967 147.569 211.3 147.319 211.7C147.069 212.1 146.686 212.5 146.169 212.9C145.669 213.283 145.036 213.608 144.269 213.875C143.502 214.125 142.602 214.25 141.569 214.25C140.469 214.25 139.519 214.075 138.719 213.725C137.919 213.358 137.261 212.875 136.744 212.275C136.077 213.025 135.302 213.542 134.419 213.825C133.552 214.108 132.661 214.25 131.744 214.25ZM132.594 211.4C133.094 211.4 133.536 211.3 133.919 211.1C134.302 210.883 134.602 210.558 134.819 210.125C135.052 209.675 135.169 209.117 135.169 208.45V208.1L133.044 208.475C132.261 208.608 131.686 208.817 131.319 209.1C130.969 209.367 130.794 209.683 130.794 210.05C130.794 210.333 130.877 210.575 131.044 210.775C131.211 210.975 131.427 211.133 131.694 211.25C131.977 211.35 132.277 211.4 132.594 211.4ZM139.494 206.175H143.619V206.075C143.619 205.275 143.444 204.642 143.094 204.175C142.761 203.708 142.252 203.475 141.569 203.475C141.186 203.475 140.836 203.575 140.519 203.775C140.219 203.958 139.977 204.242 139.794 204.625C139.611 204.992 139.511 205.475 139.494 206.075V206.175ZM151.02 214C150.837 214 150.687 213.942 150.57 213.825C150.453 213.708 150.395 213.558 150.395 213.375V196.875C150.395 196.692 150.453 196.542 150.57 196.425C150.687 196.308 150.837 196.25 151.02 196.25H153.97C154.153 196.25 154.303 196.308 154.42 196.425C154.537 196.542 154.595 196.692 154.595 196.875V213.375C154.595 213.558 154.537 213.708 154.42 213.825C154.303 213.942 154.153 214 153.97 214H151.02ZM158.173 214C157.99 214 157.84 213.942 157.723 213.825C157.607 213.708 157.548 213.558 157.548 213.375V196.875C157.548 196.692 157.607 196.542 157.723 196.425C157.84 196.308 157.99 196.25 158.173 196.25H161.073C161.24 196.25 161.382 196.308 161.498 196.425C161.632 196.542 161.698 196.692 161.698 196.875V205.25L165.173 201.425C165.273 201.308 165.382 201.208 165.498 201.125C165.615 201.042 165.782 201 165.998 201H169.348C169.498 201 169.623 201.058 169.723 201.175C169.84 201.275 169.898 201.4 169.898 201.55C169.898 201.617 169.882 201.692 169.848 201.775C169.815 201.858 169.765 201.925 169.698 201.975L165.198 206.825L170.323 213.05C170.457 213.183 170.523 213.317 170.523 213.45C170.523 213.6 170.465 213.733 170.348 213.85C170.248 213.95 170.115 214 169.948 214H166.523C166.273 214 166.09 213.958 165.973 213.875C165.857 213.775 165.748 213.675 165.648 213.575L161.698 208.825V213.375C161.698 213.558 161.632 213.708 161.498 213.825C161.382 213.942 161.24 214 161.073 214H158.173Z" fill="white"/>
<path d="M2.2 244C2.05333 244 1.94 243.96 1.86 243.88C1.78 243.787 1.74 243.673 1.74 243.54V230.48C1.74 230.333 1.78 230.22 1.86 230.14C1.94 230.047 2.05333 230 2.2 230H3.2C3.34667 230 3.46 230.047 3.54 230.14C3.63333 230.22 3.68 230.333 3.68 230.48V235.44L9.02 230.32C9.07333 230.267 9.16 230.2 9.28 230.12C9.41333 230.04 9.58667 230 9.8 230H10.88C10.9867 230 11.08 230.04 11.16 230.12C11.24 230.2 11.28 230.293 11.28 230.4C11.28 230.507 11.2533 230.593 11.2 230.66L5.02 236.7L11.6 243.32C11.6667 243.4 11.7 243.493 11.7 243.6C11.7 243.707 11.66 243.8 11.58 243.88C11.5 243.96 11.4067 244 11.3 244H10.18C9.95333 244 9.78 243.96 9.66 243.88C9.54 243.787 9.45333 243.72 9.4 243.68L3.68 238.04V243.54C3.68 243.673 3.63333 243.787 3.54 243.88C3.46 243.96 3.34667 244 3.2 244H2.2ZM17.1463 244.2C16.1329 244.2 15.2863 244.007 14.6063 243.62C13.9263 243.233 13.4063 242.7 13.0463 242.02C12.6863 241.327 12.4863 240.54 12.4463 239.66C12.4329 239.433 12.4263 239.147 12.4263 238.8C12.4263 238.44 12.4329 238.153 12.4463 237.94C12.4863 237.047 12.6863 236.26 13.0463 235.58C13.4196 234.9 13.9463 234.367 14.6263 233.98C15.3063 233.593 16.1463 233.4 17.1463 233.4C18.1463 233.4 18.9863 233.593 19.6663 233.98C20.3463 234.367 20.8663 234.9 21.2263 235.58C21.5996 236.26 21.8063 237.047 21.8463 237.94C21.8596 238.153 21.8663 238.44 21.8663 238.8C21.8663 239.147 21.8596 239.433 21.8463 239.66C21.8063 240.54 21.6063 241.327 21.2463 242.02C20.8863 242.7 20.3663 243.233 19.6863 243.62C19.0063 244.007 18.1596 244.2 17.1463 244.2ZM17.1463 242.66C17.9729 242.66 18.6329 242.4 19.1263 241.88C19.6196 241.347 19.8863 240.573 19.9263 239.56C19.9396 239.36 19.9463 239.107 19.9463 238.8C19.9463 238.493 19.9396 238.24 19.9263 238.04C19.8863 237.027 19.6196 236.26 19.1263 235.74C18.6329 235.207 17.9729 234.94 17.1463 234.94C16.3196 234.94 15.6529 235.207 15.1463 235.74C14.6529 236.26 14.3929 237.027 14.3663 238.04C14.3529 238.24 14.3462 238.493 14.3462 238.8C14.3462 239.107 14.3529 239.36 14.3663 239.56C14.3929 240.573 14.6529 241.347 15.1463 241.88C15.6529 242.4 16.3196 242.66 17.1463 242.66ZM12.8663 244.56C12.7596 244.56 12.6663 244.52 12.5863 244.44C12.5063 244.36 12.4663 244.267 12.4663 244.16C12.4663 244.12 12.4663 244.08 12.4663 244.04C12.4796 244 12.5063 243.953 12.5463 243.9L20.5263 233.36C20.5663 233.307 20.6196 233.247 20.6863 233.18C20.7529 233.1 20.8529 233.06 20.9863 233.06H21.4062C21.5129 233.06 21.6063 233.1 21.6862 233.18C21.7663 233.26 21.8063 233.353 21.8063 233.46C21.8063 233.473 21.7996 233.507 21.7863 233.56C21.7863 233.6 21.7663 233.653 21.7263 233.72L13.7463 244.26C13.7063 244.313 13.6529 244.373 13.5863 244.44C13.5329 244.52 13.4396 244.56 13.3063 244.56H12.8663ZM29.5106 244.2C28.7106 244.2 28.044 244.06 27.5106 243.78C26.9773 243.487 26.5506 243.127 26.2306 242.7V243.54C26.2306 243.673 26.184 243.787 26.0906 243.88C26.0106 243.96 25.904 244 25.7706 244H24.8506C24.7173 244 24.604 243.96 24.5106 243.88C24.4306 243.787 24.3906 243.673 24.3906 243.54V230.26C24.3906 230.127 24.4306 230.02 24.5106 229.94C24.604 229.847 24.7173 229.8 24.8506 229.8H25.8106C25.9573 229.8 26.0706 229.847 26.1506 229.94C26.2306 230.02 26.2706 230.127 26.2706 230.26V234.86C26.604 234.447 27.0306 234.1 27.5506 233.82C28.084 233.54 28.7373 233.4 29.5106 233.4C30.2573 233.4 30.8906 233.533 31.4106 233.8C31.944 234.053 32.3773 234.407 32.7106 234.86C33.0573 235.313 33.3173 235.827 33.4906 236.4C33.664 236.973 33.7573 237.573 33.7706 238.2C33.784 238.413 33.7906 238.613 33.7906 238.8C33.7906 238.987 33.784 239.187 33.7706 239.4C33.7573 240.04 33.664 240.647 33.4906 241.22C33.3173 241.793 33.0573 242.307 32.7106 242.76C32.3773 243.2 31.944 243.553 31.4106 243.82C30.8906 244.073 30.2573 244.2 29.5106 244.2ZM29.0906 242.58C29.784 242.58 30.324 242.433 30.7106 242.14C31.1106 241.833 31.3973 241.44 31.5706 240.96C31.744 240.467 31.844 239.94 31.8706 239.38C31.884 238.993 31.884 238.607 31.8706 238.22C31.844 237.66 31.744 237.14 31.5706 236.66C31.3973 236.167 31.1106 235.773 30.7106 235.48C30.324 235.173 29.784 235.02 29.0906 235.02C28.464 235.02 27.944 235.167 27.5306 235.46C27.1173 235.753 26.804 236.127 26.5906 236.58C26.3906 237.033 26.284 237.493 26.2706 237.96C26.2573 238.173 26.2506 238.433 26.2506 238.74C26.2506 239.033 26.2573 239.287 26.2706 239.5C26.2973 239.993 26.404 240.48 26.5906 240.96C26.7906 241.427 27.0906 241.813 27.4906 242.12C27.904 242.427 28.4373 242.58 29.0906 242.58ZM41.6275 244C41.4942 244 41.3808 243.96 41.2875 243.88C41.2075 243.787 41.1675 243.673 41.1675 243.54V234.06C41.1675 233.927 41.2075 233.82 41.2875 233.74C41.3808 233.647 41.4942 233.6 41.6275 233.6H42.5275C42.6608 233.6 42.7675 233.647 42.8475 233.74C42.9408 233.82 42.9875 233.927 42.9875 234.06V234.76C43.2942 234.347 43.6808 234.02 44.1475 233.78C44.6142 233.527 45.1742 233.4 45.8275 233.4C47.3342 233.387 48.4008 234 49.0275 235.24C49.3342 234.68 49.7808 234.233 50.3675 233.9C50.9542 233.567 51.6208 233.4 52.3675 233.4C53.0608 233.4 53.6875 233.56 54.2475 233.88C54.8208 234.2 55.2675 234.687 55.5875 235.34C55.9208 235.98 56.0875 236.787 56.0875 237.76V243.54C56.0875 243.673 56.0408 243.787 55.9475 243.88C55.8675 243.96 55.7608 244 55.6275 244H54.6875C54.5542 244 54.4408 243.96 54.3475 243.88C54.2675 243.787 54.2275 243.673 54.2275 243.54V237.94C54.2275 237.193 54.1208 236.607 53.9075 236.18C53.6942 235.753 53.4075 235.453 53.0475 235.28C52.6875 235.107 52.2942 235.02 51.8675 235.02C51.5208 235.02 51.1675 235.107 50.8075 235.28C50.4475 235.453 50.1475 235.753 49.9075 236.18C49.6808 236.607 49.5675 237.193 49.5675 237.94V243.54C49.5675 243.673 49.5208 243.787 49.4275 243.88C49.3475 243.96 49.2408 244 49.1075 244H48.1675C48.0342 244 47.9208 243.96 47.8275 243.88C47.7475 243.787 47.7075 243.673 47.7075 243.54V237.94C47.7075 237.193 47.5942 236.607 47.3675 236.18C47.1408 235.753 46.8475 235.453 46.4875 235.28C46.1275 235.107 45.7475 235.02 45.3475 235.02C45.0008 235.02 44.6475 235.107 44.2875 235.28C43.9275 235.453 43.6275 235.753 43.3875 236.18C43.1608 236.607 43.0475 237.187 43.0475 237.92V243.54C43.0475 243.673 43.0008 243.787 42.9075 243.88C42.8275 243.96 42.7208 244 42.5875 244H41.6275ZM61.9409 244.2C61.1943 244.2 60.5409 244.067 59.9809 243.8C59.4209 243.533 58.9876 243.173 58.6809 242.72C58.3743 242.267 58.2209 241.753 58.2209 241.18C58.2209 240.26 58.5943 239.52 59.3409 238.96C60.0876 238.4 61.0609 238.033 62.2609 237.86L65.2209 237.44V236.9C65.2209 236.26 65.0409 235.76 64.6809 235.4C64.3209 235.04 63.7276 234.86 62.9009 234.86C62.4609 234.86 62.0876 234.927 61.7809 235.06C61.4743 235.193 61.2276 235.353 61.0409 235.54C60.8543 235.727 60.7076 235.913 60.6009 236.1C60.5476 236.22 60.4876 236.307 60.4209 236.36C60.3676 236.413 60.2943 236.44 60.2009 236.44H59.3409C59.2209 236.44 59.1143 236.4 59.0209 236.32C58.9409 236.227 58.9009 236.12 58.9009 236C58.9009 235.8 58.9743 235.553 59.1209 235.26C59.2809 234.967 59.5143 234.68 59.8209 234.4C60.1409 234.12 60.5543 233.887 61.0609 233.7C61.5809 233.5 62.2009 233.4 62.9209 233.4C63.8809 233.4 64.6343 233.553 65.1809 233.86C65.7276 234.153 66.1343 234.52 66.4009 234.96C66.7609 234.507 67.2143 234.133 67.7609 233.84C68.3209 233.547 69.0009 233.4 69.8009 233.4C70.7343 233.4 71.5009 233.567 72.1009 233.9C72.7009 234.233 73.1609 234.667 73.4809 235.2C73.8009 235.72 74.0276 236.28 74.1609 236.88C74.2943 237.48 74.3609 238.06 74.3609 238.62V238.96C74.3609 239.107 74.3143 239.22 74.2209 239.3C74.1276 239.38 74.0143 239.42 73.8809 239.42H67.1409V239.6C67.1676 240.36 67.3076 240.967 67.5609 241.42C67.8276 241.873 68.1609 242.207 68.5609 242.42C68.9609 242.62 69.3676 242.72 69.7809 242.72C70.2209 242.72 70.6543 242.633 71.0809 242.46C71.5076 242.273 71.8609 241.987 72.1409 241.6C72.2476 241.44 72.3343 241.34 72.4009 241.3C72.4809 241.26 72.6009 241.24 72.7609 241.24H73.6609C73.9409 241.24 74.0809 241.38 74.0809 241.66C74.0809 241.82 73.9876 242.047 73.8009 242.34C73.6276 242.62 73.3609 242.9 73.0009 243.18C72.6409 243.46 72.1943 243.7 71.6609 243.9C71.1276 244.1 70.5009 244.2 69.7809 244.2C68.8343 244.2 68.0543 244.013 67.4409 243.64C66.8276 243.267 66.3476 242.78 66.0009 242.18C65.5743 242.873 65.0143 243.387 64.3209 243.72C63.6409 244.04 62.8476 244.2 61.9409 244.2ZM62.2809 242.7C62.8276 242.7 63.3209 242.587 63.7609 242.36C64.2143 242.12 64.5743 241.753 64.8409 241.26C65.1076 240.767 65.2409 240.147 65.2409 239.4V238.84L62.9209 239.18C61.9609 239.313 61.2409 239.54 60.7609 239.86C60.2943 240.167 60.0609 240.56 60.0609 241.04C60.0609 241.413 60.1676 241.727 60.3809 241.98C60.5943 242.22 60.8743 242.4 61.2209 242.52C61.5676 242.64 61.9209 242.7 62.2809 242.7ZM67.1409 238.04H72.4409V237.96C72.4409 237.067 72.2209 236.327 71.7809 235.74C71.3543 235.153 70.6943 234.86 69.8009 234.86C69.3476 234.86 68.9209 234.973 68.5209 235.2C68.1343 235.427 67.8143 235.767 67.5609 236.22C67.3076 236.673 67.1676 237.253 67.1409 237.96V238.04ZM77.2334 244C77.1001 244 76.9868 243.96 76.8934 243.88C76.8134 243.787 76.7734 243.673 76.7734 243.54V230.26C76.7734 230.127 76.8134 230.02 76.8934 229.94C76.9868 229.847 77.1001 229.8 77.2334 229.8H78.1734C78.3201 229.8 78.4334 229.847 78.5134 229.94C78.5934 230.02 78.6334 230.127 78.6334 230.26V243.54C78.6334 243.673 78.5934 243.787 78.5134 243.88C78.4334 243.96 78.3201 244 78.1734 244H77.2334ZM82.0967 244C81.9634 244 81.8501 243.96 81.7567 243.88C81.6767 243.787 81.6367 243.673 81.6367 243.54V230.26C81.6367 230.127 81.6767 230.02 81.7567 229.94C81.8501 229.847 81.9634 229.8 82.0967 229.8H83.0367C83.1701 229.8 83.2767 229.847 83.3567 229.94C83.4501 230.02 83.4967 230.127 83.4967 230.26V237.22L87.4367 233.94C87.5967 233.807 87.7167 233.72 87.7967 233.68C87.8901 233.627 88.0367 233.6 88.2367 233.6H89.2967C89.4167 233.6 89.5167 233.64 89.5967 233.72C89.6767 233.8 89.7167 233.9 89.7167 234.02C89.7167 234.073 89.6967 234.133 89.6567 234.2C89.6301 234.267 89.5701 234.333 89.4767 234.4L84.8567 238.24L89.9767 243.22C90.1367 243.353 90.2167 243.473 90.2167 243.58C90.2167 243.7 90.1767 243.8 90.0967 243.88C90.0167 243.96 89.9167 244 89.7967 244H88.7567C88.5567 244 88.4101 243.98 88.3167 243.94C88.2234 243.887 88.1034 243.793 87.9567 243.66L83.4967 239.4V243.54C83.4967 243.673 83.4501 243.787 83.3567 243.88C83.2767 243.96 83.1701 244 83.0367 244H82.0967ZM100.516 244.2C99.6629 244.2 98.9363 244.013 98.3363 243.64C97.7496 243.253 97.3029 242.72 96.9963 242.04C96.6896 241.36 96.5363 240.58 96.5363 239.7V234.06C96.5363 233.927 96.5763 233.82 96.6563 233.74C96.7496 233.647 96.8629 233.6 96.9963 233.6H97.9963C98.1296 233.6 98.2363 233.647 98.3163 233.74C98.4096 233.82 98.4563 233.927 98.4563 234.06V239.6C98.4563 241.587 99.3229 242.58 101.056 242.58C101.883 242.58 102.543 242.32 103.036 241.8C103.543 241.267 103.796 240.533 103.796 239.6V234.06C103.796 233.927 103.836 233.82 103.916 233.74C104.01 233.647 104.123 233.6 104.256 233.6H105.236C105.383 233.6 105.496 233.647 105.576 233.74C105.656 233.82 105.696 233.927 105.696 234.06V243.54C105.696 243.673 105.656 243.787 105.576 243.88C105.496 243.96 105.383 244 105.236 244H104.316C104.183 244 104.07 243.96 103.976 243.88C103.896 243.787 103.856 243.673 103.856 243.54V242.66C103.496 243.127 103.056 243.5 102.536 243.78C102.03 244.06 101.356 244.2 100.516 244.2ZM112.467 244.2C111.734 244.2 111.101 244.073 110.568 243.82C110.034 243.553 109.594 243.2 109.248 242.76C108.914 242.307 108.661 241.793 108.488 241.22C108.328 240.647 108.234 240.04 108.208 239.4C108.194 239.187 108.188 238.987 108.188 238.8C108.188 238.613 108.194 238.413 108.208 238.2C108.234 237.573 108.328 236.973 108.488 236.4C108.661 235.827 108.914 235.313 109.248 234.86C109.594 234.407 110.034 234.053 110.568 233.8C111.101 233.533 111.734 233.4 112.467 233.4C113.254 233.4 113.908 233.54 114.428 233.82C114.948 234.1 115.374 234.447 115.708 234.86V230.26C115.708 230.127 115.748 230.02 115.828 229.94C115.921 229.847 116.034 229.8 116.168 229.8H117.128C117.261 229.8 117.368 229.847 117.448 229.94C117.541 230.02 117.588 230.127 117.588 230.26V243.54C117.588 243.673 117.541 243.787 117.448 243.88C117.368 243.96 117.261 244 117.128 244H116.228C116.081 244 115.968 243.96 115.888 243.88C115.808 243.787 115.768 243.673 115.768 243.54V242.7C115.434 243.127 115.001 243.487 114.468 243.78C113.934 244.06 113.268 244.2 112.467 244.2ZM112.888 242.58C113.554 242.58 114.088 242.427 114.488 242.12C114.888 241.813 115.188 241.427 115.388 240.96C115.588 240.48 115.694 239.993 115.708 239.5C115.721 239.287 115.728 239.033 115.728 238.74C115.728 238.433 115.721 238.173 115.708 237.96C115.694 237.493 115.581 237.033 115.368 236.58C115.168 236.127 114.861 235.753 114.448 235.46C114.048 235.167 113.528 235.02 112.888 235.02C112.208 235.02 111.668 235.173 111.268 235.48C110.868 235.773 110.581 236.167 110.408 236.66C110.234 237.14 110.134 237.66 110.108 238.22C110.094 238.607 110.094 238.993 110.108 239.38C110.134 239.94 110.234 240.467 110.408 240.96C110.581 241.44 110.868 241.833 111.268 242.14C111.668 242.433 112.208 242.58 112.888 242.58ZM124.702 244.2C123.329 244.2 122.235 243.78 121.422 242.94C120.609 242.087 120.162 240.927 120.082 239.46C120.069 239.287 120.062 239.067 120.062 238.8C120.062 238.52 120.069 238.293 120.082 238.12C120.135 237.173 120.355 236.347 120.742 235.64C121.129 234.92 121.655 234.367 122.322 233.98C123.002 233.593 123.795 233.4 124.702 233.4C125.715 233.4 126.562 233.613 127.242 234.04C127.935 234.467 128.462 235.073 128.822 235.86C129.182 236.647 129.362 237.567 129.362 238.62V238.96C129.362 239.107 129.315 239.22 129.222 239.3C129.142 239.38 129.035 239.42 128.902 239.42H121.982C121.982 239.433 121.982 239.46 121.982 239.5C121.982 239.54 121.982 239.573 121.982 239.6C122.009 240.147 122.129 240.66 122.342 241.14C122.555 241.607 122.862 241.987 123.262 242.28C123.662 242.573 124.142 242.72 124.702 242.72C125.182 242.72 125.582 242.647 125.902 242.5C126.222 242.353 126.482 242.193 126.682 242.02C126.882 241.833 127.015 241.693 127.082 241.6C127.202 241.427 127.295 241.327 127.362 241.3C127.429 241.26 127.535 241.24 127.682 241.24H128.642C128.775 241.24 128.882 241.28 128.962 241.36C129.055 241.427 129.095 241.527 129.082 241.66C129.069 241.86 128.962 242.107 128.762 242.4C128.562 242.68 128.275 242.96 127.902 243.24C127.529 243.52 127.075 243.753 126.542 243.94C126.009 244.113 125.395 244.2 124.702 244.2ZM121.982 238.04H127.462V237.98C127.462 237.38 127.349 236.847 127.122 236.38C126.909 235.913 126.595 235.547 126.182 235.28C125.769 235 125.275 234.86 124.702 234.86C124.129 234.86 123.635 235 123.222 235.28C122.822 235.547 122.515 235.913 122.302 236.38C122.089 236.847 121.982 237.38 121.982 237.98V238.04ZM132.213 244C132.08 244 131.967 243.96 131.873 243.88C131.793 243.787 131.753 243.673 131.753 243.54V234.06C131.753 233.927 131.793 233.82 131.873 233.74C131.967 233.647 132.08 233.6 132.213 233.6H133.153C133.287 233.6 133.393 233.647 133.473 233.74C133.567 233.82 133.613 233.927 133.613 234.06V234.94C133.96 234.487 134.393 234.12 134.913 233.84C135.447 233.547 136.127 233.4 136.953 233.4C137.82 233.4 138.553 233.593 139.153 233.98C139.767 234.353 140.227 234.88 140.533 235.56C140.84 236.227 140.993 237.007 140.993 237.9V243.54C140.993 243.673 140.953 243.787 140.873 243.88C140.793 243.96 140.687 244 140.553 244H139.553C139.42 244 139.307 243.96 139.213 243.88C139.133 243.787 139.093 243.673 139.093 243.54V238C139.093 237.067 138.867 236.34 138.413 235.82C137.96 235.287 137.293 235.02 136.413 235.02C135.587 235.02 134.92 235.287 134.413 235.82C133.92 236.34 133.673 237.067 133.673 238V243.54C133.673 243.673 133.627 243.787 133.533 243.88C133.453 243.96 133.347 244 133.213 244H132.213ZM152.385 244.2C151.638 244.2 150.998 244.107 150.465 243.92C149.931 243.733 149.498 243.507 149.165 243.24C148.831 242.973 148.578 242.707 148.405 242.44C148.245 242.173 148.158 241.96 148.145 241.8C148.131 241.653 148.178 241.54 148.285 241.46C148.391 241.38 148.498 241.34 148.605 241.34H149.485C149.565 241.34 149.625 241.353 149.665 241.38C149.718 241.393 149.785 241.447 149.865 241.54C150.038 241.727 150.231 241.913 150.445 242.1C150.658 242.287 150.918 242.44 151.225 242.56C151.545 242.68 151.938 242.74 152.405 242.74C153.085 242.74 153.645 242.613 154.085 242.36C154.525 242.093 154.745 241.707 154.745 241.2C154.745 240.867 154.651 240.6 154.465 240.4C154.291 240.2 153.971 240.02 153.505 239.86C153.051 239.7 152.425 239.533 151.625 239.36C150.825 239.173 150.191 238.947 149.725 238.68C149.258 238.4 148.925 238.073 148.725 237.7C148.525 237.313 148.425 236.88 148.425 236.4C148.425 235.907 148.571 235.433 148.865 234.98C149.158 234.513 149.585 234.133 150.145 233.84C150.718 233.547 151.431 233.4 152.285 233.4C152.978 233.4 153.571 233.487 154.065 233.66C154.558 233.833 154.965 234.053 155.285 234.32C155.605 234.573 155.845 234.827 156.005 235.08C156.165 235.333 156.251 235.547 156.265 235.72C156.278 235.853 156.238 235.967 156.145 236.06C156.051 236.14 155.945 236.18 155.825 236.18H154.985C154.891 236.18 154.811 236.16 154.745 236.12C154.691 236.08 154.638 236.033 154.585 235.98C154.451 235.807 154.291 235.633 154.105 235.46C153.931 235.287 153.698 235.147 153.405 235.04C153.125 234.92 152.751 234.86 152.285 234.86C151.618 234.86 151.118 235 150.785 235.28C150.451 235.56 150.285 235.913 150.285 236.34C150.285 236.593 150.358 236.82 150.505 237.02C150.651 237.22 150.931 237.4 151.345 237.56C151.758 237.72 152.371 237.893 153.185 238.08C154.065 238.253 154.758 238.487 155.265 238.78C155.771 239.073 156.131 239.413 156.345 239.8C156.558 240.187 156.665 240.633 156.665 241.14C156.665 241.7 156.498 242.213 156.165 242.68C155.845 243.147 155.365 243.52 154.725 243.8C154.098 244.067 153.318 244.2 152.385 244.2ZM159.46 244C159.327 244 159.213 243.96 159.12 243.88C159.04 243.787 159 243.673 159 243.54V230.26C159 230.127 159.04 230.02 159.12 229.94C159.213 229.847 159.327 229.8 159.46 229.8H160.4C160.533 229.8 160.64 229.847 160.72 229.94C160.813 230.02 160.86 230.127 160.86 230.26V237.22L164.8 233.94C164.96 233.807 165.08 233.72 165.16 233.68C165.253 233.627 165.4 233.6 165.6 233.6H166.66C166.78 233.6 166.88 233.64 166.96 233.72C167.04 233.8 167.08 233.9 167.08 234.02C167.08 234.073 167.06 234.133 167.02 234.2C166.993 234.267 166.933 234.333 166.84 234.4L162.22 238.24L167.34 243.22C167.5 243.353 167.58 243.473 167.58 243.58C167.58 243.7 167.54 243.8 167.46 243.88C167.38 243.96 167.28 244 167.16 244H166.12C165.92 244 165.773 243.98 165.68 243.94C165.587 243.887 165.467 243.793 165.32 243.66L160.86 239.4V243.54C160.86 243.673 160.813 243.787 160.72 243.88C160.64 243.96 160.533 244 160.4 244H159.46ZM169.753 244C169.619 244 169.506 243.96 169.413 243.88C169.333 243.787 169.293 243.673 169.293 243.54V234.08C169.293 233.947 169.333 233.833 169.413 233.74C169.506 233.647 169.619 233.6 169.753 233.6H170.673C170.806 233.6 170.919 233.647 171.013 233.74C171.106 233.833 171.153 233.947 171.153 234.08V234.96C171.419 234.507 171.786 234.167 172.253 233.94C172.719 233.713 173.279 233.6 173.933 233.6H174.733C174.866 233.6 174.973 233.647 175.053 233.74C175.133 233.82 175.173 233.927 175.173 234.06V234.88C175.173 235.013 175.133 235.12 175.053 235.2C174.973 235.28 174.866 235.32 174.733 235.32H173.533C172.813 235.32 172.246 235.533 171.833 235.96C171.419 236.373 171.213 236.94 171.213 237.66V243.54C171.213 243.673 171.166 243.787 171.073 243.88C170.979 243.96 170.866 244 170.733 244H169.753ZM180.77 244.2C179.917 244.2 179.19 244.013 178.59 243.64C178.003 243.253 177.557 242.72 177.25 242.04C176.943 241.36 176.79 240.58 176.79 239.7V234.06C176.79 233.927 176.83 233.82 176.91 233.74C177.003 233.647 177.117 233.6 177.25 233.6H178.25C178.383 233.6 178.49 233.647 178.57 233.74C178.663 233.82 178.71 233.927 178.71 234.06V239.6C178.71 241.587 179.577 242.58 181.31 242.58C182.137 242.58 182.797 242.32 183.29 241.8C183.797 241.267 184.05 240.533 184.05 239.6V234.06C184.05 233.927 184.09 233.82 184.17 233.74C184.263 233.647 184.377 233.6 184.51 233.6H185.49C185.637 233.6 185.75 233.647 185.83 233.74C185.91 233.82 185.95 233.927 185.95 234.06V243.54C185.95 243.673 185.91 243.787 185.83 243.88C185.75 243.96 185.637 244 185.49 244H184.57C184.437 244 184.323 243.96 184.23 243.88C184.15 243.787 184.11 243.673 184.11 243.54V242.66C183.75 243.127 183.31 243.5 182.79 243.78C182.283 244.06 181.61 244.2 180.77 244.2ZM193.061 244.2C191.688 244.2 190.595 243.78 189.781 242.94C188.968 242.087 188.521 240.927 188.441 239.46C188.428 239.287 188.421 239.067 188.421 238.8C188.421 238.52 188.428 238.293 188.441 238.12C188.495 237.173 188.715 236.347 189.101 235.64C189.488 234.92 190.015 234.367 190.681 233.98C191.361 233.593 192.155 233.4 193.061 233.4C194.075 233.4 194.921 233.613 195.601 234.04C196.295 234.467 196.821 235.073 197.181 235.86C197.541 236.647 197.721 237.567 197.721 238.62V238.96C197.721 239.107 197.675 239.22 197.581 239.3C197.501 239.38 197.395 239.42 197.261 239.42H190.341C190.341 239.433 190.341 239.46 190.341 239.5C190.341 239.54 190.341 239.573 190.341 239.6C190.368 240.147 190.488 240.66 190.701 241.14C190.915 241.607 191.221 241.987 191.621 242.28C192.021 242.573 192.501 242.72 193.061 242.72C193.541 242.72 193.941 242.647 194.261 242.5C194.581 242.353 194.841 242.193 195.041 242.02C195.241 241.833 195.375 241.693 195.441 241.6C195.561 241.427 195.655 241.327 195.721 241.3C195.788 241.26 195.895 241.24 196.041 241.24H197.001C197.135 241.24 197.241 241.28 197.321 241.36C197.415 241.427 197.455 241.527 197.441 241.66C197.428 241.86 197.321 242.107 197.121 242.4C196.921 242.68 196.635 242.96 196.261 243.24C195.888 243.52 195.435 243.753 194.901 243.94C194.368 244.113 193.755 244.2 193.061 244.2ZM190.341 238.04H195.821V237.98C195.821 237.38 195.708 236.847 195.481 236.38C195.268 235.913 194.955 235.547 194.541 235.28C194.128 235 193.635 234.86 193.061 234.86C192.488 234.86 191.995 235 191.581 235.28C191.181 235.547 190.875 235.913 190.661 236.38C190.448 236.847 190.341 237.38 190.341 237.98V238.04ZM200.593 244C200.459 244 200.346 243.96 200.253 243.88C200.173 243.787 200.133 243.673 200.133 243.54V230.26C200.133 230.127 200.173 230.02 200.253 229.94C200.346 229.847 200.459 229.8 200.593 229.8H201.533C201.679 229.8 201.793 229.847 201.873 229.94C201.953 230.02 201.993 230.127 201.993 230.26V243.54C201.993 243.673 201.953 243.787 201.873 243.88C201.793 243.96 201.679 244 201.533 244H200.593ZM207.876 244.2C207.209 244.2 206.603 244.067 206.056 243.8C205.509 243.533 205.069 243.173 204.736 242.72C204.403 242.267 204.236 241.753 204.236 241.18C204.236 240.26 204.609 239.527 205.356 238.98C206.103 238.433 207.076 238.073 208.276 237.9L211.256 237.48V236.9C211.256 236.26 211.069 235.76 210.696 235.4C210.336 235.04 209.743 234.86 208.916 234.86C208.316 234.86 207.829 234.98 207.456 235.22C207.096 235.46 206.843 235.767 206.696 236.14C206.616 236.34 206.476 236.44 206.276 236.44H205.376C205.229 236.44 205.116 236.4 205.036 236.32C204.969 236.227 204.936 236.12 204.936 236C204.936 235.8 205.009 235.553 205.156 235.26C205.316 234.967 205.556 234.68 205.876 234.4C206.196 234.12 206.603 233.887 207.096 233.7C207.603 233.5 208.216 233.4 208.936 233.4C209.736 233.4 210.409 233.507 210.956 233.72C211.503 233.92 211.929 234.193 212.236 234.54C212.556 234.887 212.783 235.28 212.916 235.72C213.063 236.16 213.136 236.607 213.136 237.06V243.54C213.136 243.673 213.089 243.787 212.996 243.88C212.916 243.96 212.809 244 212.676 244H211.756C211.609 244 211.496 243.96 211.416 243.88C211.336 243.787 211.296 243.673 211.296 243.54V242.68C211.123 242.92 210.889 243.16 210.596 243.4C210.303 243.627 209.936 243.82 209.496 243.98C209.056 244.127 208.516 244.2 207.876 244.2ZM208.296 242.7C208.843 242.7 209.343 242.587 209.796 242.36C210.249 242.12 210.603 241.753 210.856 241.26C211.123 240.767 211.256 240.147 211.256 239.4V238.84L208.936 239.18C207.989 239.313 207.276 239.54 206.796 239.86C206.316 240.167 206.076 240.56 206.076 241.04C206.076 241.413 206.183 241.727 206.396 241.98C206.623 242.22 206.903 242.4 207.236 242.52C207.583 242.64 207.936 242.7 208.296 242.7ZM208.956 232.2C208.503 232.2 208.109 232.053 207.776 231.76C207.443 231.467 207.276 231.087 207.276 230.62C207.276 230.167 207.436 229.793 207.756 229.5C208.089 229.207 208.489 229.06 208.956 229.06C209.409 229.06 209.803 229.207 210.136 229.5C210.469 229.793 210.636 230.167 210.636 230.62C210.636 231.087 210.469 231.467 210.136 231.76C209.816 232.053 209.423 232.2 208.956 232.2ZM208.956 231.22C209.129 231.22 209.269 231.167 209.376 231.06C209.496 230.94 209.556 230.793 209.556 230.62C209.556 230.447 209.496 230.307 209.376 230.2C209.269 230.08 209.129 230.02 208.956 230.02C208.783 230.02 208.636 230.08 208.516 230.2C208.409 230.307 208.356 230.447 208.356 230.62C208.356 230.793 208.409 230.94 208.516 231.06C208.636 231.167 208.783 231.22 208.956 231.22ZM220.271 248.4C219.365 248.4 218.618 248.28 218.031 248.04C217.458 247.8 217.005 247.507 216.671 247.16C216.351 246.827 216.118 246.487 215.971 246.14C215.838 245.807 215.765 245.54 215.751 245.34C215.738 245.207 215.778 245.093 215.871 245C215.978 244.907 216.091 244.86 216.211 244.86H217.171C217.291 244.86 217.391 244.887 217.471 244.94C217.551 244.993 217.618 245.107 217.671 245.28C217.751 245.48 217.871 245.7 218.031 245.94C218.191 246.193 218.438 246.407 218.771 246.58C219.105 246.767 219.571 246.86 220.171 246.86C220.798 246.86 221.325 246.773 221.751 246.6C222.178 246.44 222.498 246.147 222.711 245.72C222.938 245.307 223.051 244.733 223.051 244V242.64C222.731 243.053 222.311 243.4 221.791 243.68C221.271 243.947 220.618 244.08 219.831 244.08C219.085 244.08 218.445 243.953 217.911 243.7C217.378 243.433 216.938 243.08 216.591 242.64C216.258 242.187 216.005 241.673 215.831 241.1C215.671 240.527 215.578 239.927 215.551 239.3C215.538 238.927 215.538 238.56 215.551 238.2C215.578 237.573 215.671 236.973 215.831 236.4C216.005 235.827 216.258 235.313 216.591 234.86C216.938 234.407 217.378 234.053 217.911 233.8C218.445 233.533 219.085 233.4 219.831 233.4C220.631 233.4 221.291 233.553 221.811 233.86C222.345 234.153 222.778 234.513 223.111 234.94V234.08C223.111 233.947 223.151 233.833 223.231 233.74C223.325 233.647 223.438 233.6 223.571 233.6H224.491C224.625 233.6 224.738 233.647 224.831 233.74C224.925 233.833 224.971 233.947 224.971 234.08V243.78C224.971 244.673 224.818 245.467 224.511 246.16C224.218 246.853 223.725 247.4 223.031 247.8C222.351 248.2 221.431 248.4 220.271 248.4ZM220.231 242.48C220.898 242.48 221.431 242.327 221.831 242.02C222.245 241.713 222.545 241.327 222.731 240.86C222.931 240.393 223.038 239.92 223.051 239.44C223.065 239.253 223.071 239.027 223.071 238.76C223.071 238.48 223.065 238.247 223.051 238.06C223.038 237.58 222.931 237.107 222.731 236.64C222.545 236.173 222.245 235.787 221.831 235.48C221.431 235.173 220.898 235.02 220.231 235.02C219.565 235.02 219.031 235.173 218.631 235.48C218.231 235.773 217.945 236.167 217.771 236.66C217.598 237.14 217.498 237.66 217.471 238.22C217.458 238.567 217.458 238.92 217.471 239.28C217.498 239.84 217.598 240.367 217.771 240.86C217.945 241.34 218.231 241.733 218.631 242.04C219.031 242.333 219.565 242.48 220.231 242.48Z" fill="white"/>
<circle cx="113.5" cy="92.5" r="92.5" fill="white"/>
<path d="M75 82.3713V130.481L113.718 151.528L152.67 130.481V83.7561L134.476 59.701L94.7376 39.8564L75 82.3713Z" fill="black"/>
<path d="M113.835 151.408V103.3M75 82.3713V130.481L113.718 151.528L152.67 130.481V83.7561L134.476 59.701L94.7376 39.8564L75 82.3713Z" stroke="#FFF8F8" stroke-width="1.17" stroke-linecap="round" stroke-linejoin="round"/>
<path d="M75 82.4673L113.835 102.974L152.67 83.8268M134.476 60.1543V54.8271L94.7376 35V40.6224" fill="black"/>
<path d="M75 82.4673L113.835 102.974M113.835 102.974L152.67 83.8268L130.487 68.3811M113.835 102.974L134.476 60.1543V54.8271L94.7376 35V40.6224" stroke="#FFF8F8" stroke-width="1.17" stroke-linecap="round" stroke-linejoin="round"/>
</svg>
