<svg width="388" height="258" viewBox="0 0 388 258" fill="none" xmlns="http://www.w3.org/2000/svg">
<path d="M71.375 214C71.1917 214 71.0417 213.942 70.925 213.825C70.8083 213.708 70.75 213.558 70.75 213.375V197.125C70.75 196.942 70.8083 196.792 70.925 196.675C71.0417 196.558 71.1917 196.5 71.375 196.5H77.875C79.5083 196.5 80.9 196.767 82.05 197.3C83.2 197.817 84.0833 198.583 84.7 199.6C85.3167 200.6 85.65 201.842 85.7 203.325C85.7167 204.058 85.725 204.7 85.725 205.25C85.725 205.8 85.7167 206.433 85.7 207.15C85.6333 208.7 85.3 209.983 84.7 211C84.1167 212.017 83.2583 212.775 82.125 213.275C81.0083 213.758 79.6333 214 78 214H71.375ZM75.225 210.4H77.875C78.5917 210.4 79.1833 210.292 79.65 210.075C80.1333 209.842 80.4917 209.483 80.725 209C80.975 208.517 81.1083 207.883 81.125 207.1C81.1583 206.617 81.175 206.183 81.175 205.8C81.1917 205.417 81.1917 205.033 81.175 204.65C81.175 204.267 81.1583 203.842 81.125 203.375C81.0917 202.242 80.7917 201.417 80.225 200.9C79.675 200.367 78.85 200.1 77.75 200.1H75.225V210.4ZM88.9955 214C88.8122 214 88.6622 213.942 88.5455 213.825C88.4288 213.708 88.3705 213.558 88.3705 213.375V201.625C88.3705 201.442 88.4288 201.292 88.5455 201.175C88.6622 201.058 88.8122 201 88.9955 201H91.9455C92.1122 201 92.2538 201.058 92.3705 201.175C92.5038 201.292 92.5705 201.442 92.5705 201.625V213.375C92.5705 213.558 92.5038 213.708 92.3705 213.825C92.2538 213.942 92.1122 214 91.9455 214H88.9955ZM88.9705 199.125C88.7872 199.125 88.6372 199.067 88.5205 198.95C88.4038 198.833 88.3455 198.683 88.3455 198.5V196.275C88.3455 196.092 88.4038 195.942 88.5205 195.825C88.6372 195.692 88.7872 195.625 88.9705 195.625H91.9455C92.1288 195.625 92.2788 195.692 92.3955 195.825C92.5288 195.942 92.5955 196.092 92.5955 196.275V198.5C92.5955 198.683 92.5288 198.833 92.3955 198.95C92.2788 199.067 92.1288 199.125 91.9455 199.125H88.9705ZM96.9057 214C96.7223 214 96.5723 213.942 96.4557 213.825C96.339 213.708 96.2807 213.558 96.2807 213.375V201.625C96.2807 201.442 96.339 201.292 96.4557 201.175C96.5723 201.058 96.7223 201 96.9057 201H99.7807C99.964 201 100.114 201.058 100.231 201.175C100.347 201.292 100.406 201.442 100.406 201.625V202.575C100.839 202.058 101.406 201.625 102.106 201.275C102.806 200.925 103.631 200.75 104.581 200.75C105.547 200.75 106.397 200.967 107.131 201.4C107.881 201.833 108.464 202.475 108.881 203.325C109.314 204.158 109.531 205.183 109.531 206.4V213.375C109.531 213.558 109.464 213.708 109.331 213.825C109.214 213.942 109.072 214 108.906 214H105.756C105.589 214 105.439 213.942 105.306 213.825C105.189 213.708 105.131 213.558 105.131 213.375V206.55C105.131 205.767 104.939 205.167 104.556 204.75C104.189 204.317 103.639 204.1 102.906 204.1C102.222 204.1 101.672 204.317 101.256 204.75C100.856 205.167 100.656 205.767 100.656 206.55V213.375C100.656 213.558 100.589 213.708 100.456 213.825C100.339 213.942 100.197 214 100.031 214H96.9057ZM118.321 214.25C116.354 214.25 114.787 213.717 113.621 212.65C112.454 211.583 111.846 210 111.796 207.9C111.796 207.783 111.796 207.633 111.796 207.45C111.796 207.267 111.796 207.125 111.796 207.025C111.846 205.708 112.137 204.583 112.671 203.65C113.221 202.7 113.971 201.983 114.921 201.5C115.887 201 117.012 200.75 118.296 200.75C119.762 200.75 120.971 201.042 121.921 201.625C122.887 202.208 123.612 203 124.096 204C124.579 205 124.821 206.142 124.821 207.425V208.025C124.821 208.208 124.754 208.358 124.621 208.475C124.504 208.592 124.362 208.65 124.196 208.65H116.196C116.196 208.667 116.196 208.692 116.196 208.725C116.196 208.758 116.196 208.792 116.196 208.825C116.212 209.308 116.296 209.75 116.446 210.15C116.596 210.55 116.829 210.867 117.146 211.1C117.462 211.333 117.846 211.45 118.296 211.45C118.629 211.45 118.904 211.4 119.121 211.3C119.354 211.183 119.546 211.058 119.696 210.925C119.846 210.775 119.962 210.65 120.046 210.55C120.196 210.383 120.312 210.283 120.396 210.25C120.496 210.2 120.646 210.175 120.846 210.175H123.946C124.112 210.175 124.246 210.225 124.346 210.325C124.462 210.408 124.512 210.533 124.496 210.7C124.479 210.983 124.337 211.325 124.071 211.725C123.804 212.125 123.412 212.525 122.896 212.925C122.396 213.308 121.762 213.625 120.996 213.875C120.229 214.125 119.337 214.25 118.321 214.25ZM116.196 206.175H120.421V206.125C120.421 205.592 120.337 205.125 120.171 204.725C120.021 204.325 119.779 204.017 119.446 203.8C119.129 203.583 118.746 203.475 118.296 203.475C117.846 203.475 117.462 203.583 117.146 203.8C116.846 204.017 116.612 204.325 116.446 204.725C116.279 205.125 116.196 205.592 116.196 206.125V206.175ZM133.112 218.75C132.928 218.75 132.778 218.692 132.662 218.575C132.545 218.458 132.487 218.308 132.487 218.125V201.625C132.487 201.442 132.545 201.292 132.662 201.175C132.778 201.058 132.928 201 133.112 201H135.937C136.103 201 136.245 201.058 136.362 201.175C136.495 201.292 136.562 201.442 136.562 201.625V202.55C136.945 202.033 137.453 201.608 138.087 201.275C138.72 200.925 139.503 200.75 140.437 200.75C141.27 200.75 142.003 200.883 142.637 201.15C143.27 201.4 143.812 201.775 144.262 202.275C144.712 202.775 145.062 203.383 145.312 204.1C145.578 204.817 145.728 205.642 145.762 206.575C145.778 206.908 145.787 207.217 145.787 207.5C145.787 207.783 145.778 208.092 145.762 208.425C145.728 209.325 145.587 210.133 145.337 210.85C145.087 211.567 144.737 212.175 144.287 212.675C143.837 213.175 143.287 213.567 142.637 213.85C142.003 214.117 141.27 214.25 140.437 214.25C139.62 214.25 138.903 214.108 138.287 213.825C137.687 213.525 137.187 213.108 136.787 212.575V218.125C136.787 218.308 136.728 218.458 136.612 218.575C136.495 218.692 136.345 218.75 136.162 218.75H133.112ZM139.087 210.9C139.653 210.9 140.095 210.783 140.412 210.55C140.728 210.317 140.953 210 141.087 209.6C141.237 209.2 141.328 208.758 141.362 208.275C141.395 207.758 141.395 207.242 141.362 206.725C141.328 206.242 141.237 205.8 141.087 205.4C140.953 205 140.728 204.683 140.412 204.45C140.095 204.217 139.653 204.1 139.087 204.1C138.537 204.1 138.095 204.225 137.762 204.475C137.428 204.708 137.187 205.017 137.037 205.4C136.887 205.783 136.803 206.2 136.787 206.65C136.77 206.967 136.762 207.275 136.762 207.575C136.762 207.875 136.77 208.192 136.787 208.525C136.803 208.942 136.895 209.333 137.062 209.7C137.228 210.05 137.478 210.342 137.812 210.575C138.145 210.792 138.57 210.9 139.087 210.9ZM148.883 214C148.7 214 148.55 213.942 148.433 213.825C148.317 213.708 148.258 213.558 148.258 213.375V196.875C148.258 196.692 148.317 196.542 148.433 196.425C148.55 196.308 148.7 196.25 148.883 196.25H151.833C152.017 196.25 152.167 196.308 152.283 196.425C152.4 196.542 152.458 196.692 152.458 196.875V213.375C152.458 213.558 152.4 213.708 152.283 213.825C152.167 213.942 152.017 214 151.833 214H148.883ZM161.412 214.25C159.445 214.25 157.878 213.717 156.712 212.65C155.545 211.583 154.937 210 154.887 207.9C154.887 207.783 154.887 207.633 154.887 207.45C154.887 207.267 154.887 207.125 154.887 207.025C154.937 205.708 155.228 204.583 155.762 203.65C156.312 202.7 157.062 201.983 158.012 201.5C158.978 201 160.103 200.75 161.387 200.75C162.853 200.75 164.062 201.042 165.012 201.625C165.978 202.208 166.703 203 167.187 204C167.67 205 167.912 206.142 167.912 207.425V208.025C167.912 208.208 167.845 208.358 167.712 208.475C167.595 208.592 167.453 208.65 167.287 208.65H159.287C159.287 208.667 159.287 208.692 159.287 208.725C159.287 208.758 159.287 208.792 159.287 208.825C159.303 209.308 159.387 209.75 159.537 210.15C159.687 210.55 159.92 210.867 160.237 211.1C160.553 211.333 160.937 211.45 161.387 211.45C161.72 211.45 161.995 211.4 162.212 211.3C162.445 211.183 162.637 211.058 162.787 210.925C162.937 210.775 163.053 210.65 163.137 210.55C163.287 210.383 163.403 210.283 163.487 210.25C163.587 210.2 163.737 210.175 163.937 210.175H167.037C167.203 210.175 167.337 210.225 167.437 210.325C167.553 210.408 167.603 210.533 167.587 210.7C167.57 210.983 167.428 211.325 167.162 211.725C166.895 212.125 166.503 212.525 165.987 212.925C165.487 213.308 164.853 213.625 164.087 213.875C163.32 214.125 162.428 214.25 161.412 214.25ZM159.287 206.175H163.512V206.125C163.512 205.592 163.428 205.125 163.262 204.725C163.112 204.325 162.87 204.017 162.537 203.8C162.22 203.583 161.837 203.475 161.387 203.475C160.937 203.475 160.553 203.583 160.237 203.8C159.937 204.017 159.703 204.325 159.537 204.725C159.37 205.125 159.287 205.592 159.287 206.125V206.175ZM168.08 218.75C167.897 218.75 167.747 218.692 167.63 218.575C167.514 218.458 167.455 218.308 167.455 218.125V216.1C167.455 215.917 167.514 215.767 167.63 215.65C167.747 215.533 167.897 215.475 168.08 215.475H169.005C169.422 215.475 169.739 215.392 169.955 215.225C170.172 215.075 170.322 214.858 170.405 214.575C170.489 214.308 170.53 214 170.53 213.65V201.625C170.53 201.442 170.589 201.292 170.705 201.175C170.839 201.058 170.989 201 171.155 201H174.255C174.439 201 174.589 201.058 174.705 201.175C174.822 201.292 174.88 201.442 174.88 201.625V213.75C174.88 214.833 174.664 215.742 174.23 216.475C173.814 217.225 173.205 217.792 172.405 218.175C171.605 218.558 170.63 218.75 169.48 218.75H168.08ZM171.13 199.125C170.964 199.125 170.814 199.067 170.68 198.95C170.564 198.833 170.505 198.683 170.505 198.5V196.275C170.505 196.092 170.564 195.942 170.68 195.825C170.814 195.692 170.964 195.625 171.13 195.625H174.28C174.447 195.625 174.589 195.692 174.705 195.825C174.839 195.942 174.905 196.092 174.905 196.275V198.5C174.905 198.683 174.839 198.833 174.705 198.95C174.589 199.067 174.447 199.125 174.28 199.125H171.13ZM183.946 214.25C181.979 214.25 180.412 213.717 179.246 212.65C178.079 211.583 177.471 210 177.421 207.9C177.421 207.783 177.421 207.633 177.421 207.45C177.421 207.267 177.421 207.125 177.421 207.025C177.471 205.708 177.762 204.583 178.296 203.65C178.846 202.7 179.596 201.983 180.546 201.5C181.512 201 182.637 200.75 183.921 200.75C185.387 200.75 186.596 201.042 187.546 201.625C188.512 202.208 189.237 203 189.721 204C190.204 205 190.446 206.142 190.446 207.425V208.025C190.446 208.208 190.379 208.358 190.246 208.475C190.129 208.592 189.987 208.65 189.821 208.65H181.821C181.821 208.667 181.821 208.692 181.821 208.725C181.821 208.758 181.821 208.792 181.821 208.825C181.837 209.308 181.921 209.75 182.071 210.15C182.221 210.55 182.454 210.867 182.771 211.1C183.087 211.333 183.471 211.45 183.921 211.45C184.254 211.45 184.529 211.4 184.746 211.3C184.979 211.183 185.171 211.058 185.321 210.925C185.471 210.775 185.587 210.65 185.671 210.55C185.821 210.383 185.937 210.283 186.021 210.25C186.121 210.2 186.271 210.175 186.471 210.175H189.571C189.737 210.175 189.871 210.225 189.971 210.325C190.087 210.408 190.137 210.533 190.121 210.7C190.104 210.983 189.962 211.325 189.696 211.725C189.429 212.125 189.037 212.525 188.521 212.925C188.021 213.308 187.387 213.625 186.621 213.875C185.854 214.125 184.962 214.25 183.946 214.25ZM181.821 206.175H186.046V206.125C186.046 205.592 185.962 205.125 185.796 204.725C185.646 204.325 185.404 204.017 185.071 203.8C184.754 203.583 184.371 203.475 183.921 203.475C183.471 203.475 183.087 203.583 182.771 203.8C182.471 204.017 182.237 204.325 182.071 204.725C181.904 205.125 181.821 205.592 181.821 206.125V206.175ZM193.414 218.75C193.231 218.75 193.081 218.692 192.964 218.575C192.848 218.458 192.789 218.308 192.789 218.125V201.625C192.789 201.442 192.848 201.292 192.964 201.175C193.081 201.058 193.231 201 193.414 201H196.239C196.406 201 196.548 201.058 196.664 201.175C196.798 201.292 196.864 201.442 196.864 201.625V202.55C197.248 202.033 197.756 201.608 198.389 201.275C199.023 200.925 199.806 200.75 200.739 200.75C201.573 200.75 202.306 200.883 202.939 201.15C203.573 201.4 204.114 201.775 204.564 202.275C205.014 202.775 205.364 203.383 205.614 204.1C205.881 204.817 206.031 205.642 206.064 206.575C206.081 206.908 206.089 207.217 206.089 207.5C206.089 207.783 206.081 208.092 206.064 208.425C206.031 209.325 205.889 210.133 205.639 210.85C205.389 211.567 205.039 212.175 204.589 212.675C204.139 213.175 203.589 213.567 202.939 213.85C202.306 214.117 201.573 214.25 200.739 214.25C199.923 214.25 199.206 214.108 198.589 213.825C197.989 213.525 197.489 213.108 197.089 212.575V218.125C197.089 218.308 197.031 218.458 196.914 218.575C196.798 218.692 196.648 218.75 196.464 218.75H193.414ZM199.389 210.9C199.956 210.9 200.398 210.783 200.714 210.55C201.031 210.317 201.256 210 201.389 209.6C201.539 209.2 201.631 208.758 201.664 208.275C201.698 207.758 201.698 207.242 201.664 206.725C201.631 206.242 201.539 205.8 201.389 205.4C201.256 205 201.031 204.683 200.714 204.45C200.398 204.217 199.956 204.1 199.389 204.1C198.839 204.1 198.398 204.225 198.064 204.475C197.731 204.708 197.489 205.017 197.339 205.4C197.189 205.783 197.106 206.2 197.089 206.65C197.073 206.967 197.064 207.275 197.064 207.575C197.064 207.875 197.073 208.192 197.089 208.525C197.106 208.942 197.198 209.333 197.364 209.7C197.531 210.05 197.781 210.342 198.114 210.575C198.448 210.792 198.873 210.9 199.389 210.9ZM209.186 214C209.003 214 208.853 213.942 208.736 213.825C208.619 213.708 208.561 213.558 208.561 213.375V201.625C208.561 201.458 208.619 201.317 208.736 201.2C208.853 201.067 209.003 201 209.186 201H212.061C212.244 201 212.394 201.067 212.511 201.2C212.628 201.317 212.686 201.458 212.686 201.625V202.625C213.136 202.108 213.669 201.708 214.286 201.425C214.919 201.142 215.628 201 216.411 201H217.511C217.678 201 217.819 201.058 217.936 201.175C218.069 201.292 218.136 201.442 218.136 201.625V204.2C218.136 204.367 218.069 204.517 217.936 204.65C217.819 204.767 217.678 204.825 217.511 204.825H215.086C214.403 204.825 213.869 205.017 213.486 205.4C213.119 205.767 212.936 206.292 212.936 206.975V213.375C212.936 213.558 212.869 213.708 212.736 213.825C212.619 213.942 212.469 214 212.286 214H209.186ZM225.966 214.25C224.566 214.25 223.382 214.025 222.416 213.575C221.466 213.125 220.732 212.483 220.216 211.65C219.716 210.8 219.432 209.792 219.366 208.625C219.349 208.292 219.341 207.917 219.341 207.5C219.341 207.067 219.349 206.692 219.366 206.375C219.432 205.192 219.732 204.183 220.266 203.35C220.799 202.517 221.541 201.875 222.491 201.425C223.457 200.975 224.616 200.75 225.966 200.75C227.332 200.75 228.491 200.975 229.441 201.425C230.407 201.875 231.157 202.517 231.691 203.35C232.224 204.183 232.524 205.192 232.591 206.375C232.607 206.692 232.616 207.067 232.616 207.5C232.616 207.917 232.607 208.292 232.591 208.625C232.524 209.792 232.232 210.8 231.716 211.65C231.216 212.483 230.482 213.125 229.516 213.575C228.566 214.025 227.382 214.25 225.966 214.25ZM225.966 211.2C226.716 211.2 227.257 210.975 227.591 210.525C227.941 210.075 228.141 209.4 228.191 208.5C228.207 208.25 228.216 207.917 228.216 207.5C228.216 207.083 228.207 206.75 228.191 206.5C228.141 205.617 227.941 204.95 227.591 204.5C227.257 204.033 226.716 203.8 225.966 203.8C225.232 203.8 224.691 204.033 224.341 204.5C223.991 204.95 223.799 205.617 223.766 206.5C223.749 206.75 223.741 207.083 223.741 207.5C223.741 207.917 223.749 208.25 223.766 208.5C223.799 209.4 223.991 210.075 224.341 210.525C224.691 210.975 225.232 211.2 225.966 211.2ZM239.925 214.25C239.125 214.25 238.4 214.125 237.75 213.875C237.116 213.608 236.566 213.225 236.1 212.725C235.65 212.208 235.3 211.592 235.05 210.875C234.8 210.142 234.658 209.308 234.625 208.375C234.608 208.042 234.6 207.75 234.6 207.5C234.6 207.233 234.608 206.942 234.625 206.625C234.658 205.725 234.8 204.917 235.05 204.2C235.3 203.483 235.65 202.867 236.1 202.35C236.55 201.833 237.1 201.442 237.75 201.175C238.4 200.892 239.125 200.75 239.925 200.75C240.758 200.75 241.475 200.892 242.075 201.175C242.675 201.442 243.183 201.792 243.6 202.225V196.875C243.6 196.692 243.658 196.542 243.775 196.425C243.891 196.308 244.041 196.25 244.225 196.25H247.275C247.441 196.25 247.583 196.308 247.7 196.425C247.833 196.542 247.9 196.692 247.9 196.875V213.375C247.9 213.558 247.833 213.708 247.7 213.825C247.583 213.942 247.441 214 247.275 214H244.45C244.266 214 244.116 213.942 244 213.825C243.883 213.708 243.825 213.558 243.825 213.375V212.575C243.425 213.058 242.908 213.458 242.275 213.775C241.641 214.092 240.858 214.25 239.925 214.25ZM241.275 210.9C241.841 210.9 242.283 210.783 242.6 210.55C242.933 210.3 243.175 209.983 243.325 209.6C243.491 209.217 243.583 208.8 243.6 208.35C243.616 208.017 243.625 207.7 243.625 207.4C243.625 207.1 243.616 206.792 243.6 206.475C243.583 206.058 243.491 205.675 243.325 205.325C243.158 204.958 242.908 204.667 242.575 204.45C242.241 204.217 241.808 204.1 241.275 204.1C240.725 204.1 240.283 204.217 239.95 204.45C239.633 204.683 239.408 205 239.275 205.4C239.141 205.8 239.058 206.242 239.025 206.725C238.975 207.242 238.975 207.758 239.025 208.275C239.058 208.758 239.141 209.2 239.275 209.6C239.408 210 239.633 210.317 239.95 210.55C240.283 210.783 240.725 210.9 241.275 210.9ZM255.621 214.25C254.671 214.25 253.821 214.033 253.071 213.6C252.338 213.167 251.763 212.533 251.346 211.7C250.929 210.85 250.721 209.817 250.721 208.6V201.625C250.721 201.442 250.779 201.292 250.896 201.175C251.013 201.058 251.163 201 251.346 201H254.471C254.654 201 254.804 201.058 254.921 201.175C255.038 201.292 255.096 201.442 255.096 201.625V208.45C255.096 210.083 255.829 210.9 257.296 210.9C257.979 210.9 258.521 210.692 258.921 210.275C259.338 209.842 259.546 209.233 259.546 208.45V201.625C259.546 201.442 259.604 201.292 259.721 201.175C259.838 201.058 259.988 201 260.171 201H263.296C263.479 201 263.629 201.058 263.746 201.175C263.863 201.292 263.921 201.442 263.921 201.625V213.375C263.921 213.558 263.863 213.708 263.746 213.825C263.629 213.942 263.479 214 263.296 214H260.396C260.229 214 260.079 213.942 259.946 213.825C259.829 213.708 259.771 213.558 259.771 213.375V212.425C259.338 213.025 258.771 213.483 258.071 213.8C257.388 214.1 256.571 214.25 255.621 214.25ZM267.487 214C267.303 214 267.153 213.942 267.037 213.825C266.92 213.708 266.862 213.558 266.862 213.375V196.875C266.862 196.692 266.92 196.542 267.037 196.425C267.153 196.308 267.303 196.25 267.487 196.25H270.387C270.553 196.25 270.695 196.308 270.812 196.425C270.945 196.542 271.012 196.692 271.012 196.875V205.25L274.487 201.425C274.587 201.308 274.695 201.208 274.812 201.125C274.928 201.042 275.095 201 275.312 201H278.662C278.812 201 278.937 201.058 279.037 201.175C279.153 201.275 279.212 201.4 279.212 201.55C279.212 201.617 279.195 201.692 279.162 201.775C279.128 201.858 279.078 201.925 279.012 201.975L274.512 206.825L279.637 213.05C279.77 213.183 279.837 213.317 279.837 213.45C279.837 213.6 279.778 213.733 279.662 213.85C279.562 213.95 279.428 214 279.262 214H275.837C275.587 214 275.403 213.958 275.287 213.875C275.17 213.775 275.062 213.675 274.962 213.575L271.012 208.825V213.375C271.012 213.558 270.945 213.708 270.812 213.825C270.695 213.942 270.553 214 270.387 214H267.487ZM288.111 214C287.045 214 286.12 213.833 285.336 213.5C284.57 213.15 283.978 212.617 283.561 211.9C283.145 211.167 282.936 210.225 282.936 209.075V204.275H280.986C280.803 204.275 280.645 204.217 280.511 204.1C280.395 203.983 280.336 203.833 280.336 203.65V201.625C280.336 201.442 280.395 201.292 280.511 201.175C280.645 201.058 280.803 201 280.986 201H282.936V196.875C282.936 196.692 282.995 196.542 283.111 196.425C283.245 196.308 283.395 196.25 283.561 196.25H286.461C286.645 196.25 286.795 196.308 286.911 196.425C287.028 196.542 287.086 196.692 287.086 196.875V201H290.211C290.395 201 290.545 201.058 290.661 201.175C290.778 201.292 290.836 201.442 290.836 201.625V203.65C290.836 203.833 290.778 203.983 290.661 204.1C290.545 204.217 290.395 204.275 290.211 204.275H287.086V208.725C287.086 209.292 287.195 209.742 287.411 210.075C287.628 210.408 287.995 210.575 288.511 210.575H290.436C290.62 210.575 290.77 210.633 290.886 210.75C291.003 210.867 291.061 211.017 291.061 211.2V213.375C291.061 213.558 291.003 213.708 290.886 213.825C290.77 213.942 290.62 214 290.436 214H288.111ZM299.131 214.25C297.165 214.25 295.598 213.717 294.431 212.65C293.265 211.583 292.656 210 292.606 207.9C292.606 207.783 292.606 207.633 292.606 207.45C292.606 207.267 292.606 207.125 292.606 207.025C292.656 205.708 292.948 204.583 293.481 203.65C294.031 202.7 294.781 201.983 295.731 201.5C296.698 201 297.823 200.75 299.106 200.75C300.573 200.75 301.781 201.042 302.731 201.625C303.698 202.208 304.423 203 304.906 204C305.39 205 305.631 206.142 305.631 207.425V208.025C305.631 208.208 305.565 208.358 305.431 208.475C305.315 208.592 305.173 208.65 305.006 208.65H297.006C297.006 208.667 297.006 208.692 297.006 208.725C297.006 208.758 297.006 208.792 297.006 208.825C297.023 209.308 297.106 209.75 297.256 210.15C297.406 210.55 297.64 210.867 297.956 211.1C298.273 211.333 298.656 211.45 299.106 211.45C299.44 211.45 299.715 211.4 299.931 211.3C300.165 211.183 300.356 211.058 300.506 210.925C300.656 210.775 300.773 210.65 300.856 210.55C301.006 210.383 301.123 210.283 301.206 210.25C301.306 210.2 301.456 210.175 301.656 210.175H304.756C304.923 210.175 305.056 210.225 305.156 210.325C305.273 210.408 305.323 210.533 305.306 210.7C305.29 210.983 305.148 211.325 304.881 211.725C304.615 212.125 304.223 212.525 303.706 212.925C303.206 213.308 302.573 213.625 301.806 213.875C301.04 214.125 300.148 214.25 299.131 214.25ZM297.006 206.175H301.231V206.125C301.231 205.592 301.148 205.125 300.981 204.725C300.831 204.325 300.59 204.017 300.256 203.8C299.94 203.583 299.556 203.475 299.106 203.475C298.656 203.475 298.273 203.583 297.956 203.8C297.656 204.017 297.423 204.325 297.256 204.725C297.09 205.125 297.006 205.592 297.006 206.125V206.175ZM308.6 214C308.417 214 308.267 213.942 308.15 213.825C308.033 213.708 307.975 213.558 307.975 213.375V201.625C307.975 201.458 308.033 201.317 308.15 201.2C308.267 201.067 308.417 201 308.6 201H311.475C311.658 201 311.808 201.067 311.925 201.2C312.042 201.317 312.1 201.458 312.1 201.625V202.625C312.55 202.108 313.083 201.708 313.7 201.425C314.333 201.142 315.042 201 315.825 201H316.925C317.092 201 317.233 201.058 317.35 201.175C317.483 201.292 317.55 201.442 317.55 201.625V204.2C317.55 204.367 317.483 204.517 317.35 204.65C317.233 204.767 317.092 204.825 316.925 204.825H314.5C313.817 204.825 313.283 205.017 312.9 205.4C312.533 205.767 312.35 206.292 312.35 206.975V213.375C312.35 213.558 312.283 213.708 312.15 213.825C312.033 213.942 311.883 214 311.7 214H308.6Z" fill="white"/>
<path d="M2.2 245C2.05333 245 1.94 244.96 1.86 244.88C1.78 244.787 1.74 244.673 1.74 244.54V231.48C1.74 231.333 1.78 231.22 1.86 231.14C1.94 231.047 2.05333 231 2.2 231H3.2C3.34667 231 3.46 231.047 3.54 231.14C3.63333 231.22 3.68 231.333 3.68 231.48V236.44L9.02 231.32C9.07333 231.267 9.16 231.2 9.28 231.12C9.41333 231.04 9.58667 231 9.8 231H10.88C10.9867 231 11.08 231.04 11.16 231.12C11.24 231.2 11.28 231.293 11.28 231.4C11.28 231.507 11.2533 231.593 11.2 231.66L5.02 237.7L11.6 244.32C11.6667 244.4 11.7 244.493 11.7 244.6C11.7 244.707 11.66 244.8 11.58 244.88C11.5 244.96 11.4067 245 11.3 245H10.18C9.95333 245 9.78 244.96 9.66 244.88C9.54 244.787 9.45333 244.72 9.4 244.68L3.68 239.04V244.54C3.68 244.673 3.63333 244.787 3.54 244.88C3.46 244.96 3.34667 245 3.2 245H2.2ZM17.1463 245.2C16.1329 245.2 15.2863 245.007 14.6063 244.62C13.9263 244.233 13.4063 243.7 13.0463 243.02C12.6863 242.327 12.4863 241.54 12.4463 240.66C12.4329 240.433 12.4263 240.147 12.4263 239.8C12.4263 239.44 12.4329 239.153 12.4463 238.94C12.4863 238.047 12.6863 237.26 13.0463 236.58C13.4196 235.9 13.9463 235.367 14.6263 234.98C15.3063 234.593 16.1463 234.4 17.1463 234.4C18.1463 234.4 18.9863 234.593 19.6663 234.98C20.3463 235.367 20.8663 235.9 21.2263 236.58C21.5996 237.26 21.8063 238.047 21.8463 238.94C21.8596 239.153 21.8663 239.44 21.8663 239.8C21.8663 240.147 21.8596 240.433 21.8463 240.66C21.8063 241.54 21.6063 242.327 21.2463 243.02C20.8863 243.7 20.3663 244.233 19.6863 244.62C19.0063 245.007 18.1596 245.2 17.1463 245.2ZM17.1463 243.66C17.9729 243.66 18.6329 243.4 19.1263 242.88C19.6196 242.347 19.8863 241.573 19.9263 240.56C19.9396 240.36 19.9463 240.107 19.9463 239.8C19.9463 239.493 19.9396 239.24 19.9263 239.04C19.8863 238.027 19.6196 237.26 19.1263 236.74C18.6329 236.207 17.9729 235.94 17.1463 235.94C16.3196 235.94 15.6529 236.207 15.1463 236.74C14.6529 237.26 14.3929 238.027 14.3663 239.04C14.3529 239.24 14.3462 239.493 14.3462 239.8C14.3462 240.107 14.3529 240.36 14.3663 240.56C14.3929 241.573 14.6529 242.347 15.1463 242.88C15.6529 243.4 16.3196 243.66 17.1463 243.66ZM12.8663 245.56C12.7596 245.56 12.6663 245.52 12.5863 245.44C12.5063 245.36 12.4663 245.267 12.4663 245.16C12.4663 245.12 12.4663 245.08 12.4663 245.04C12.4796 245 12.5063 244.953 12.5463 244.9L20.5263 234.36C20.5663 234.307 20.6196 234.247 20.6863 234.18C20.7529 234.1 20.8529 234.06 20.9863 234.06H21.4062C21.5129 234.06 21.6063 234.1 21.6862 234.18C21.7663 234.26 21.8063 234.353 21.8063 234.46C21.8063 234.473 21.7996 234.507 21.7863 234.56C21.7863 234.6 21.7663 234.653 21.7263 234.72L13.7463 245.26C13.7063 245.313 13.6529 245.373 13.5863 245.44C13.5329 245.52 13.4396 245.56 13.3063 245.56H12.8663ZM29.5106 245.2C28.7106 245.2 28.044 245.06 27.5106 244.78C26.9773 244.487 26.5506 244.127 26.2306 243.7V244.54C26.2306 244.673 26.184 244.787 26.0906 244.88C26.0106 244.96 25.904 245 25.7706 245H24.8506C24.7173 245 24.604 244.96 24.5106 244.88C24.4306 244.787 24.3906 244.673 24.3906 244.54V231.26C24.3906 231.127 24.4306 231.02 24.5106 230.94C24.604 230.847 24.7173 230.8 24.8506 230.8H25.8106C25.9573 230.8 26.0706 230.847 26.1506 230.94C26.2306 231.02 26.2706 231.127 26.2706 231.26V235.86C26.604 235.447 27.0306 235.1 27.5506 234.82C28.084 234.54 28.7373 234.4 29.5106 234.4C30.2573 234.4 30.8906 234.533 31.4106 234.8C31.944 235.053 32.3773 235.407 32.7106 235.86C33.0573 236.313 33.3173 236.827 33.4906 237.4C33.664 237.973 33.7573 238.573 33.7706 239.2C33.784 239.413 33.7906 239.613 33.7906 239.8C33.7906 239.987 33.784 240.187 33.7706 240.4C33.7573 241.04 33.664 241.647 33.4906 242.22C33.3173 242.793 33.0573 243.307 32.7106 243.76C32.3773 244.2 31.944 244.553 31.4106 244.82C30.8906 245.073 30.2573 245.2 29.5106 245.2ZM29.0906 243.58C29.784 243.58 30.324 243.433 30.7106 243.14C31.1106 242.833 31.3973 242.44 31.5706 241.96C31.744 241.467 31.844 240.94 31.8706 240.38C31.884 239.993 31.884 239.607 31.8706 239.22C31.844 238.66 31.744 238.14 31.5706 237.66C31.3973 237.167 31.1106 236.773 30.7106 236.48C30.324 236.173 29.784 236.02 29.0906 236.02C28.464 236.02 27.944 236.167 27.5306 236.46C27.1173 236.753 26.804 237.127 26.5906 237.58C26.3906 238.033 26.284 238.493 26.2706 238.96C26.2573 239.173 26.2506 239.433 26.2506 239.74C26.2506 240.033 26.2573 240.287 26.2706 240.5C26.2973 240.993 26.404 241.48 26.5906 241.96C26.7906 242.427 27.0906 242.813 27.4906 243.12C27.904 243.427 28.4373 243.58 29.0906 243.58ZM41.6275 245C41.4942 245 41.3808 244.96 41.2875 244.88C41.2075 244.787 41.1675 244.673 41.1675 244.54V235.06C41.1675 234.927 41.2075 234.82 41.2875 234.74C41.3808 234.647 41.4942 234.6 41.6275 234.6H42.5875C42.7208 234.6 42.8275 234.647 42.9075 234.74C42.9875 234.82 43.0275 234.927 43.0275 235.06V244.54C43.0275 244.673 42.9875 244.787 42.9075 244.88C42.8275 244.96 42.7208 245 42.5875 245H41.6275ZM41.4675 232.66C41.3342 232.66 41.2208 232.62 41.1275 232.54C41.0475 232.447 41.0075 232.333 41.0075 232.2V231.12C41.0075 230.987 41.0475 230.88 41.1275 230.8C41.2208 230.707 41.3342 230.66 41.4675 230.66H42.7275C42.8608 230.66 42.9675 230.707 43.0475 230.8C43.1408 230.88 43.1875 230.987 43.1875 231.12V232.2C43.1875 232.333 43.1408 232.447 43.0475 232.54C42.9675 232.62 42.8608 232.66 42.7275 232.66H41.4675ZM54.5136 245.2C53.7669 245.2 53.1269 245.107 52.5936 244.92C52.0603 244.733 51.6269 244.507 51.2936 244.24C50.9603 243.973 50.7069 243.707 50.5336 243.44C50.3736 243.173 50.2869 242.96 50.2736 242.8C50.2603 242.653 50.3069 242.54 50.4136 242.46C50.5203 242.38 50.6269 242.34 50.7336 242.34H51.6136C51.6936 242.34 51.7536 242.353 51.7936 242.38C51.8469 242.393 51.9136 242.447 51.9936 242.54C52.1669 242.727 52.3603 242.913 52.5736 243.1C52.7869 243.287 53.0469 243.44 53.3536 243.56C53.6736 243.68 54.0669 243.74 54.5336 243.74C55.2136 243.74 55.7736 243.613 56.2136 243.36C56.6536 243.093 56.8736 242.707 56.8736 242.2C56.8736 241.867 56.7803 241.6 56.5936 241.4C56.4203 241.2 56.1003 241.02 55.6336 240.86C55.1803 240.7 54.5536 240.533 53.7536 240.36C52.9536 240.173 52.3203 239.947 51.8536 239.68C51.3869 239.4 51.0536 239.073 50.8536 238.7C50.6536 238.313 50.5536 237.88 50.5536 237.4C50.5536 236.907 50.7003 236.433 50.9936 235.98C51.2869 235.513 51.7136 235.133 52.2736 234.84C52.8469 234.547 53.5603 234.4 54.4136 234.4C55.1069 234.4 55.7003 234.487 56.1936 234.66C56.6869 234.833 57.0936 235.053 57.4136 235.32C57.7336 235.573 57.9736 235.827 58.1336 236.08C58.2936 236.333 58.3803 236.547 58.3936 236.72C58.4069 236.853 58.3669 236.967 58.2736 237.06C58.1803 237.14 58.0736 237.18 57.9536 237.18H57.1136C57.0203 237.18 56.9403 237.16 56.8736 237.12C56.8203 237.08 56.7669 237.033 56.7136 236.98C56.5803 236.807 56.4203 236.633 56.2336 236.46C56.0603 236.287 55.8269 236.147 55.5336 236.04C55.2536 235.92 54.8803 235.86 54.4136 235.86C53.7469 235.86 53.2469 236 52.9136 236.28C52.5803 236.56 52.4136 236.913 52.4136 237.34C52.4136 237.593 52.4869 237.82 52.6336 238.02C52.7803 238.22 53.0603 238.4 53.4736 238.56C53.8869 238.72 54.5003 238.893 55.3136 239.08C56.1936 239.253 56.8869 239.487 57.3936 239.78C57.9003 240.073 58.2603 240.413 58.4736 240.8C58.6869 241.187 58.7936 241.633 58.7936 242.14C58.7936 242.7 58.6269 243.213 58.2936 243.68C57.9736 244.147 57.4936 244.52 56.8536 244.8C56.2269 245.067 55.4469 245.2 54.5136 245.2ZM65.1494 245C64.4027 245 63.796 244.86 63.3294 244.58C62.8627 244.287 62.5227 243.88 62.3094 243.36C62.096 242.827 61.9894 242.2 61.9894 241.48V236.2H60.4294C60.296 236.2 60.1827 236.16 60.0894 236.08C60.0094 235.987 59.9694 235.873 59.9694 235.74V235.06C59.9694 234.927 60.0094 234.82 60.0894 234.74C60.1827 234.647 60.296 234.6 60.4294 234.6H61.9894V231.26C61.9894 231.127 62.0294 231.02 62.1094 230.94C62.2027 230.847 62.316 230.8 62.4494 230.8H63.3894C63.5227 230.8 63.6294 230.847 63.7094 230.94C63.8027 231.02 63.8494 231.127 63.8494 231.26V234.6H66.3294C66.4627 234.6 66.5694 234.647 66.6494 234.74C66.7427 234.82 66.7894 234.927 66.7894 235.06V235.74C66.7894 235.873 66.7427 235.987 66.6494 236.08C66.5694 236.16 66.4627 236.2 66.3294 236.2H63.8494V241.34C63.8494 241.967 63.956 242.46 64.1694 242.82C64.3827 243.18 64.7627 243.36 65.3094 243.36H66.5294C66.6627 243.36 66.7694 243.407 66.8494 243.5C66.9427 243.58 66.9894 243.687 66.9894 243.82V244.54C66.9894 244.673 66.9427 244.787 66.8494 244.88C66.7694 244.96 66.6627 245 66.5294 245H65.1494ZM73.1619 245.2C72.1485 245.2 71.3019 245.007 70.6219 244.62C69.9419 244.233 69.4219 243.7 69.0619 243.02C68.7019 242.327 68.5019 241.54 68.4619 240.66C68.4485 240.433 68.4419 240.147 68.4419 239.8C68.4419 239.44 68.4485 239.153 68.4619 238.94C68.5019 238.047 68.7019 237.26 69.0619 236.58C69.4352 235.9 69.9619 235.367 70.6419 234.98C71.3219 234.593 72.1619 234.4 73.1619 234.4C74.1619 234.4 75.0019 234.593 75.6819 234.98C76.3619 235.367 76.8819 235.9 77.2419 236.58C77.6152 237.26 77.8219 238.047 77.8619 238.94C77.8752 239.153 77.8819 239.44 77.8819 239.8C77.8819 240.147 77.8752 240.433 77.8619 240.66C77.8219 241.54 77.6219 242.327 77.2619 243.02C76.9019 243.7 76.3819 244.233 75.7019 244.62C75.0219 245.007 74.1752 245.2 73.1619 245.2ZM73.1619 243.66C73.9885 243.66 74.6485 243.4 75.1419 242.88C75.6352 242.347 75.9019 241.573 75.9419 240.56C75.9552 240.36 75.9619 240.107 75.9619 239.8C75.9619 239.493 75.9552 239.24 75.9419 239.04C75.9019 238.027 75.6352 237.26 75.1419 236.74C74.6485 236.207 73.9885 235.94 73.1619 235.94C72.3352 235.94 71.6685 236.207 71.1619 236.74C70.6685 237.26 70.4085 238.027 70.3819 239.04C70.3685 239.24 70.3619 239.493 70.3619 239.8C70.3619 240.107 70.3685 240.36 70.3819 240.56C70.4085 241.573 70.6685 242.347 71.1619 242.88C71.6685 243.4 72.3352 243.66 73.1619 243.66ZM80.8463 245C80.7129 245 80.5996 244.96 80.5063 244.88C80.4263 244.787 80.3863 244.673 80.3863 244.54V235.08C80.3863 234.947 80.4263 234.833 80.5063 234.74C80.5996 234.647 80.7129 234.6 80.8463 234.6H81.7663C81.8996 234.6 82.0129 234.647 82.1063 234.74C82.1996 234.833 82.2463 234.947 82.2463 235.08V235.96C82.5129 235.507 82.8796 235.167 83.3463 234.94C83.8129 234.713 84.3729 234.6 85.0263 234.6H85.8263C85.9596 234.6 86.0663 234.647 86.1463 234.74C86.2263 234.82 86.2663 234.927 86.2663 235.06V235.88C86.2663 236.013 86.2263 236.12 86.1463 236.2C86.0663 236.28 85.9596 236.32 85.8263 236.32H84.6263C83.9063 236.32 83.3396 236.533 82.9263 236.96C82.5129 237.373 82.3063 237.94 82.3063 238.66V244.54C82.3063 244.673 82.2596 244.787 82.1663 244.88C82.0729 244.96 81.9596 245 81.8263 245H80.8463ZM91.9286 245.2C90.5553 245.2 89.4619 244.78 88.6486 243.94C87.8353 243.087 87.3886 241.927 87.3086 240.46C87.2953 240.287 87.2886 240.067 87.2886 239.8C87.2886 239.52 87.2953 239.293 87.3086 239.12C87.3619 238.173 87.5819 237.347 87.9686 236.64C88.3553 235.92 88.8819 235.367 89.5486 234.98C90.2286 234.593 91.0219 234.4 91.9286 234.4C92.9419 234.4 93.7886 234.613 94.4686 235.04C95.1619 235.467 95.6886 236.073 96.0486 236.86C96.4086 237.647 96.5886 238.567 96.5886 239.62V239.96C96.5886 240.107 96.5419 240.22 96.4486 240.3C96.3686 240.38 96.2619 240.42 96.1286 240.42H89.2086C89.2086 240.433 89.2086 240.46 89.2086 240.5C89.2086 240.54 89.2086 240.573 89.2086 240.6C89.2353 241.147 89.3553 241.66 89.5686 242.14C89.7819 242.607 90.0886 242.987 90.4886 243.28C90.8886 243.573 91.3686 243.72 91.9286 243.72C92.4086 243.72 92.8086 243.647 93.1286 243.5C93.4486 243.353 93.7086 243.193 93.9086 243.02C94.1086 242.833 94.2419 242.693 94.3086 242.6C94.4286 242.427 94.5219 242.327 94.5886 242.3C94.6553 242.26 94.7619 242.24 94.9086 242.24H95.8686C96.0019 242.24 96.1086 242.28 96.1886 242.36C96.2819 242.427 96.3219 242.527 96.3086 242.66C96.2953 242.86 96.1886 243.107 95.9886 243.4C95.7886 243.68 95.5019 243.96 95.1286 244.24C94.7553 244.52 94.3019 244.753 93.7686 244.94C93.2353 245.113 92.6219 245.2 91.9286 245.2ZM89.2086 239.04H94.6886V238.98C94.6886 238.38 94.5753 237.847 94.3486 237.38C94.1353 236.913 93.8219 236.547 93.4086 236.28C92.9953 236 92.5019 235.86 91.9286 235.86C91.3553 235.86 90.8619 236 90.4486 236.28C90.0486 236.547 89.7419 236.913 89.5286 237.38C89.3153 237.847 89.2086 238.38 89.2086 238.98V239.04ZM109.022 245.2C108.222 245.2 107.556 245.06 107.022 244.78C106.489 244.487 106.062 244.127 105.742 243.7V244.54C105.742 244.673 105.696 244.787 105.602 244.88C105.522 244.96 105.416 245 105.282 245H104.362C104.229 245 104.116 244.96 104.022 244.88C103.942 244.787 103.902 244.673 103.902 244.54V231.26C103.902 231.127 103.942 231.02 104.022 230.94C104.116 230.847 104.229 230.8 104.362 230.8H105.322C105.469 230.8 105.582 230.847 105.662 230.94C105.742 231.02 105.782 231.127 105.782 231.26V235.86C106.116 235.447 106.542 235.1 107.062 234.82C107.596 234.54 108.249 234.4 109.022 234.4C109.769 234.4 110.402 234.533 110.922 234.8C111.456 235.053 111.889 235.407 112.222 235.86C112.569 236.313 112.829 236.827 113.002 237.4C113.176 237.973 113.269 238.573 113.282 239.2C113.296 239.413 113.302 239.613 113.302 239.8C113.302 239.987 113.296 240.187 113.282 240.4C113.269 241.04 113.176 241.647 113.002 242.22C112.829 242.793 112.569 243.307 112.222 243.76C111.889 244.2 111.456 244.553 110.922 244.82C110.402 245.073 109.769 245.2 109.022 245.2ZM108.602 243.58C109.296 243.58 109.836 243.433 110.222 243.14C110.622 242.833 110.909 242.44 111.082 241.96C111.256 241.467 111.356 240.94 111.382 240.38C111.396 239.993 111.396 239.607 111.382 239.22C111.356 238.66 111.256 238.14 111.082 237.66C110.909 237.167 110.622 236.773 110.222 236.48C109.836 236.173 109.296 236.02 108.602 236.02C107.976 236.02 107.456 236.167 107.042 236.46C106.629 236.753 106.316 237.127 106.102 237.58C105.902 238.033 105.796 238.493 105.782 238.96C105.769 239.173 105.762 239.433 105.762 239.74C105.762 240.033 105.769 240.287 105.782 240.5C105.809 240.993 105.916 241.48 106.102 241.96C106.302 242.427 106.602 242.813 107.002 243.12C107.416 243.427 107.949 243.58 108.602 243.58ZM119.917 245.2C118.544 245.2 117.45 244.78 116.637 243.94C115.824 243.087 115.377 241.927 115.297 240.46C115.284 240.287 115.277 240.067 115.277 239.8C115.277 239.52 115.284 239.293 115.297 239.12C115.35 238.173 115.57 237.347 115.957 236.64C116.344 235.92 116.87 235.367 117.537 234.98C118.217 234.593 119.01 234.4 119.917 234.4C120.93 234.4 121.777 234.613 122.457 235.04C123.15 235.467 123.677 236.073 124.037 236.86C124.397 237.647 124.577 238.567 124.577 239.62V239.96C124.577 240.107 124.53 240.22 124.437 240.3C124.357 240.38 124.25 240.42 124.117 240.42H117.197C117.197 240.433 117.197 240.46 117.197 240.5C117.197 240.54 117.197 240.573 117.197 240.6C117.224 241.147 117.344 241.66 117.557 242.14C117.77 242.607 118.077 242.987 118.477 243.28C118.877 243.573 119.357 243.72 119.917 243.72C120.397 243.72 120.797 243.647 121.117 243.5C121.437 243.353 121.697 243.193 121.897 243.02C122.097 242.833 122.23 242.693 122.297 242.6C122.417 242.427 122.51 242.327 122.577 242.3C122.644 242.26 122.75 242.24 122.897 242.24H123.857C123.99 242.24 124.097 242.28 124.177 242.36C124.27 242.427 124.31 242.527 124.297 242.66C124.284 242.86 124.177 243.107 123.977 243.4C123.777 243.68 123.49 243.96 123.117 244.24C122.744 244.52 122.29 244.753 121.757 244.94C121.224 245.113 120.61 245.2 119.917 245.2ZM117.197 239.04H122.677V238.98C122.677 238.38 122.564 237.847 122.337 237.38C122.124 236.913 121.81 236.547 121.397 236.28C120.984 236 120.49 235.86 119.917 235.86C119.344 235.86 118.85 236 118.437 236.28C118.037 236.547 117.73 236.913 117.517 237.38C117.304 237.847 117.197 238.38 117.197 238.98V239.04ZM127.448 245C127.315 245 127.202 244.96 127.108 244.88C127.028 244.787 126.988 244.673 126.988 244.54V231.26C126.988 231.127 127.028 231.02 127.108 230.94C127.202 230.847 127.315 230.8 127.448 230.8H128.448C128.595 230.8 128.708 230.847 128.788 230.94C128.868 231.02 128.908 231.127 128.908 231.26V235.92C129.268 235.467 129.708 235.1 130.228 234.82C130.748 234.54 131.408 234.4 132.208 234.4C133.075 234.4 133.808 234.593 134.408 234.98C135.022 235.353 135.482 235.88 135.788 236.56C136.108 237.227 136.268 238.007 136.268 238.9V244.54C136.268 244.673 136.228 244.787 136.148 244.88C136.068 244.96 135.955 245 135.808 245H134.808C134.675 245 134.562 244.96 134.468 244.88C134.388 244.787 134.348 244.673 134.348 244.54V239C134.348 238.067 134.122 237.34 133.668 236.82C133.215 236.287 132.548 236.02 131.668 236.02C130.842 236.02 130.175 236.287 129.668 236.82C129.162 237.34 128.908 238.067 128.908 239V244.54C128.908 244.673 128.868 244.787 128.788 244.88C128.708 244.96 128.595 245 128.448 245H127.448ZM143.416 245.2C142.402 245.2 141.556 245.007 140.876 244.62C140.196 244.233 139.676 243.7 139.316 243.02C138.956 242.327 138.756 241.54 138.716 240.66C138.702 240.433 138.696 240.147 138.696 239.8C138.696 239.44 138.702 239.153 138.716 238.94C138.756 238.047 138.956 237.26 139.316 236.58C139.689 235.9 140.216 235.367 140.896 234.98C141.576 234.593 142.416 234.4 143.416 234.4C144.416 234.4 145.256 234.593 145.936 234.98C146.616 235.367 147.136 235.9 147.496 236.58C147.869 237.26 148.076 238.047 148.116 238.94C148.129 239.153 148.136 239.44 148.136 239.8C148.136 240.147 148.129 240.433 148.116 240.66C148.076 241.54 147.876 242.327 147.516 243.02C147.156 243.7 146.636 244.233 145.956 244.62C145.276 245.007 144.429 245.2 143.416 245.2ZM143.416 243.66C144.242 243.66 144.902 243.4 145.396 242.88C145.889 242.347 146.156 241.573 146.196 240.56C146.209 240.36 146.216 240.107 146.216 239.8C146.216 239.493 146.209 239.24 146.196 239.04C146.156 238.027 145.889 237.26 145.396 236.74C144.902 236.207 144.242 235.94 143.416 235.94C142.589 235.94 141.922 236.207 141.416 236.74C140.922 237.26 140.662 238.027 140.636 239.04C140.622 239.24 140.616 239.493 140.616 239.8C140.616 240.107 140.622 240.36 140.636 240.56C140.662 241.573 140.922 242.347 141.416 242.88C141.922 243.4 142.589 243.66 143.416 243.66ZM151.12 245C150.987 245 150.873 244.96 150.78 244.88C150.7 244.787 150.66 244.673 150.66 244.54V231.26C150.66 231.127 150.7 231.02 150.78 230.94C150.873 230.847 150.987 230.8 151.12 230.8H152.06C152.207 230.8 152.32 230.847 152.4 230.94C152.48 231.02 152.52 231.127 152.52 231.26V244.54C152.52 244.673 152.48 244.787 152.4 244.88C152.32 244.96 152.207 245 152.06 245H151.12ZM159.303 245.2C158.57 245.2 157.937 245.073 157.403 244.82C156.87 244.553 156.43 244.2 156.083 243.76C155.75 243.307 155.497 242.793 155.323 242.22C155.163 241.647 155.07 241.04 155.043 240.4C155.03 240.187 155.023 239.987 155.023 239.8C155.023 239.613 155.03 239.413 155.043 239.2C155.07 238.573 155.163 237.973 155.323 237.4C155.497 236.827 155.75 236.313 156.083 235.86C156.43 235.407 156.87 235.053 157.403 234.8C157.937 234.533 158.57 234.4 159.303 234.4C160.09 234.4 160.743 234.54 161.263 234.82C161.783 235.1 162.21 235.447 162.543 235.86V231.26C162.543 231.127 162.583 231.02 162.663 230.94C162.757 230.847 162.87 230.8 163.003 230.8H163.963C164.097 230.8 164.203 230.847 164.283 230.94C164.377 231.02 164.423 231.127 164.423 231.26V244.54C164.423 244.673 164.377 244.787 164.283 244.88C164.203 244.96 164.097 245 163.963 245H163.063C162.917 245 162.803 244.96 162.723 244.88C162.643 244.787 162.603 244.673 162.603 244.54V243.7C162.27 244.127 161.837 244.487 161.303 244.78C160.77 245.06 160.103 245.2 159.303 245.2ZM159.723 243.58C160.39 243.58 160.923 243.427 161.323 243.12C161.723 242.813 162.023 242.427 162.223 241.96C162.423 241.48 162.53 240.993 162.543 240.5C162.557 240.287 162.563 240.033 162.563 239.74C162.563 239.433 162.557 239.173 162.543 238.96C162.53 238.493 162.417 238.033 162.203 237.58C162.003 237.127 161.697 236.753 161.283 236.46C160.883 236.167 160.363 236.02 159.723 236.02C159.043 236.02 158.503 236.173 158.103 236.48C157.703 236.773 157.417 237.167 157.243 237.66C157.07 238.14 156.97 238.66 156.943 239.22C156.93 239.607 156.93 239.993 156.943 240.38C156.97 240.94 157.07 241.467 157.243 241.96C157.417 242.44 157.703 242.833 158.103 243.14C158.503 243.433 159.043 243.58 159.723 243.58ZM171.538 245.2C170.165 245.2 169.071 244.78 168.258 243.94C167.445 243.087 166.998 241.927 166.918 240.46C166.905 240.287 166.898 240.067 166.898 239.8C166.898 239.52 166.905 239.293 166.918 239.12C166.971 238.173 167.191 237.347 167.578 236.64C167.965 235.92 168.491 235.367 169.158 234.98C169.838 234.593 170.631 234.4 171.538 234.4C172.551 234.4 173.398 234.613 174.078 235.04C174.771 235.467 175.298 236.073 175.658 236.86C176.018 237.647 176.198 238.567 176.198 239.62V239.96C176.198 240.107 176.151 240.22 176.058 240.3C175.978 240.38 175.871 240.42 175.738 240.42H168.818C168.818 240.433 168.818 240.46 168.818 240.5C168.818 240.54 168.818 240.573 168.818 240.6C168.845 241.147 168.965 241.66 169.178 242.14C169.391 242.607 169.698 242.987 170.098 243.28C170.498 243.573 170.978 243.72 171.538 243.72C172.018 243.72 172.418 243.647 172.738 243.5C173.058 243.353 173.318 243.193 173.518 243.02C173.718 242.833 173.851 242.693 173.918 242.6C174.038 242.427 174.131 242.327 174.198 242.3C174.265 242.26 174.371 242.24 174.518 242.24H175.478C175.611 242.24 175.718 242.28 175.798 242.36C175.891 242.427 175.931 242.527 175.918 242.66C175.905 242.86 175.798 243.107 175.598 243.4C175.398 243.68 175.111 243.96 174.738 244.24C174.365 244.52 173.911 244.753 173.378 244.94C172.845 245.113 172.231 245.2 171.538 245.2ZM168.818 239.04H174.298V238.98C174.298 238.38 174.185 237.847 173.958 237.38C173.745 236.913 173.431 236.547 173.018 236.28C172.605 236 172.111 235.86 171.538 235.86C170.965 235.86 170.471 236 170.058 236.28C169.658 236.547 169.351 236.913 169.138 237.38C168.925 237.847 168.818 238.38 168.818 238.98V239.04ZM179.049 245C178.916 245 178.803 244.96 178.709 244.88C178.629 244.787 178.589 244.673 178.589 244.54V235.08C178.589 234.947 178.629 234.833 178.709 234.74C178.803 234.647 178.916 234.6 179.049 234.6H179.969C180.103 234.6 180.216 234.647 180.309 234.74C180.403 234.833 180.449 234.947 180.449 235.08V235.96C180.716 235.507 181.083 235.167 181.549 234.94C182.016 234.713 182.576 234.6 183.229 234.6H184.029C184.163 234.6 184.269 234.647 184.349 234.74C184.429 234.82 184.469 234.927 184.469 235.06V235.88C184.469 236.013 184.429 236.12 184.349 236.2C184.269 236.28 184.163 236.32 184.029 236.32H182.829C182.109 236.32 181.543 236.533 181.129 236.96C180.716 237.373 180.509 237.94 180.509 238.66V244.54C180.509 244.673 180.463 244.787 180.369 244.88C180.276 244.96 180.163 245 180.029 245H179.049ZM190.132 245.2C188.758 245.2 187.665 244.78 186.852 243.94C186.038 243.087 185.592 241.927 185.512 240.46C185.498 240.287 185.492 240.067 185.492 239.8C185.492 239.52 185.498 239.293 185.512 239.12C185.565 238.173 185.785 237.347 186.172 236.64C186.558 235.92 187.085 235.367 187.752 234.98C188.432 234.593 189.225 234.4 190.132 234.4C191.145 234.4 191.992 234.613 192.672 235.04C193.365 235.467 193.892 236.073 194.252 236.86C194.612 237.647 194.792 238.567 194.792 239.62V239.96C194.792 240.107 194.745 240.22 194.652 240.3C194.572 240.38 194.465 240.42 194.332 240.42H187.412C187.412 240.433 187.412 240.46 187.412 240.5C187.412 240.54 187.412 240.573 187.412 240.6C187.438 241.147 187.558 241.66 187.772 242.14C187.985 242.607 188.292 242.987 188.692 243.28C189.092 243.573 189.572 243.72 190.132 243.72C190.612 243.72 191.012 243.647 191.332 243.5C191.652 243.353 191.912 243.193 192.112 243.02C192.312 242.833 192.445 242.693 192.512 242.6C192.632 242.427 192.725 242.327 192.792 242.3C192.858 242.26 192.965 242.24 193.112 242.24H194.072C194.205 242.24 194.312 242.28 194.392 242.36C194.485 242.427 194.525 242.527 194.512 242.66C194.498 242.86 194.392 243.107 194.192 243.4C193.992 243.68 193.705 243.96 193.332 244.24C192.958 244.52 192.505 244.753 191.972 244.94C191.438 245.113 190.825 245.2 190.132 245.2ZM187.412 239.04H192.892V238.98C192.892 238.38 192.778 237.847 192.552 237.38C192.338 236.913 192.025 236.547 191.612 236.28C191.198 236 190.705 235.86 190.132 235.86C189.558 235.86 189.065 236 188.652 236.28C188.252 236.547 187.945 236.913 187.732 237.38C187.518 237.847 187.412 238.38 187.412 238.98V239.04ZM203.214 245C203.081 245 202.968 244.96 202.874 244.88C202.794 244.787 202.754 244.673 202.754 244.54V236.2H201.054C200.921 236.2 200.808 236.16 200.714 236.08C200.634 235.987 200.594 235.873 200.594 235.74V235.06C200.594 234.927 200.634 234.82 200.714 234.74C200.808 234.647 200.921 234.6 201.054 234.6H202.754V233.6C202.754 232.92 202.868 232.327 203.094 231.82C203.321 231.3 203.681 230.9 204.174 230.62C204.681 230.34 205.354 230.2 206.194 230.2H207.394C207.528 230.2 207.634 230.247 207.714 230.34C207.794 230.42 207.834 230.527 207.834 230.66V231.34C207.834 231.473 207.794 231.587 207.714 231.68C207.634 231.76 207.528 231.8 207.394 231.8H206.234C205.608 231.8 205.181 231.967 204.954 232.3C204.728 232.62 204.614 233.087 204.614 233.7V234.6H207.194C207.328 234.6 207.434 234.647 207.514 234.74C207.594 234.82 207.634 234.927 207.634 235.06V235.74C207.634 235.873 207.594 235.987 207.514 236.08C207.434 236.16 207.328 236.2 207.194 236.2H204.614V244.54C204.614 244.673 204.568 244.787 204.474 244.88C204.394 244.96 204.288 245 204.154 245H203.214ZM209.87 245C209.736 245 209.623 244.96 209.53 244.88C209.45 244.787 209.41 244.673 209.41 244.54V235.08C209.41 234.947 209.45 234.833 209.53 234.74C209.623 234.647 209.736 234.6 209.87 234.6H210.79C210.923 234.6 211.036 234.647 211.13 234.74C211.223 234.833 211.27 234.947 211.27 235.08V235.96C211.536 235.507 211.903 235.167 212.37 234.94C212.836 234.713 213.396 234.6 214.05 234.6H214.85C214.983 234.6 215.09 234.647 215.17 234.74C215.25 234.82 215.29 234.927 215.29 235.06V235.88C215.29 236.013 215.25 236.12 215.17 236.2C215.09 236.28 214.983 236.32 214.85 236.32H213.65C212.93 236.32 212.363 236.533 211.95 236.96C211.536 237.373 211.33 237.94 211.33 238.66V244.54C211.33 244.673 211.283 244.787 211.19 244.88C211.096 244.96 210.983 245 210.85 245H209.87ZM220.952 245.2C219.579 245.2 218.485 244.78 217.672 243.94C216.859 243.087 216.412 241.927 216.332 240.46C216.319 240.287 216.312 240.067 216.312 239.8C216.312 239.52 216.319 239.293 216.332 239.12C216.385 238.173 216.605 237.347 216.992 236.64C217.379 235.92 217.905 235.367 218.572 234.98C219.252 234.593 220.045 234.4 220.952 234.4C221.965 234.4 222.812 234.613 223.492 235.04C224.185 235.467 224.712 236.073 225.072 236.86C225.432 237.647 225.612 238.567 225.612 239.62V239.96C225.612 240.107 225.565 240.22 225.472 240.3C225.392 240.38 225.285 240.42 225.152 240.42H218.232C218.232 240.433 218.232 240.46 218.232 240.5C218.232 240.54 218.232 240.573 218.232 240.6C218.259 241.147 218.379 241.66 218.592 242.14C218.805 242.607 219.112 242.987 219.512 243.28C219.912 243.573 220.392 243.72 220.952 243.72C221.432 243.72 221.832 243.647 222.152 243.5C222.472 243.353 222.732 243.193 222.932 243.02C223.132 242.833 223.265 242.693 223.332 242.6C223.452 242.427 223.545 242.327 223.612 242.3C223.679 242.26 223.785 242.24 223.932 242.24H224.892C225.025 242.24 225.132 242.28 225.212 242.36C225.305 242.427 225.345 242.527 225.332 242.66C225.319 242.86 225.212 243.107 225.012 243.4C224.812 243.68 224.525 243.96 224.152 244.24C223.779 244.52 223.325 244.753 222.792 244.94C222.259 245.113 221.645 245.2 220.952 245.2ZM218.232 239.04H223.712V238.98C223.712 238.38 223.599 237.847 223.372 237.38C223.159 236.913 222.845 236.547 222.432 236.28C222.019 236 221.525 235.86 220.952 235.86C220.379 235.86 219.885 236 219.472 236.28C219.072 236.547 218.765 236.913 218.552 237.38C218.339 237.847 218.232 238.38 218.232 238.98V239.04ZM228.463 245C228.33 245 228.217 244.96 228.123 244.88C228.043 244.787 228.003 244.673 228.003 244.54V235.06C228.003 234.927 228.043 234.82 228.123 234.74C228.217 234.647 228.33 234.6 228.463 234.6H229.363C229.497 234.6 229.603 234.647 229.683 234.74C229.777 234.82 229.823 234.927 229.823 235.06V235.76C230.13 235.347 230.517 235.02 230.983 234.78C231.45 234.527 232.01 234.4 232.663 234.4C234.17 234.387 235.237 235 235.863 236.24C236.17 235.68 236.617 235.233 237.203 234.9C237.79 234.567 238.457 234.4 239.203 234.4C239.897 234.4 240.523 234.56 241.083 234.88C241.657 235.2 242.103 235.687 242.423 236.34C242.757 236.98 242.923 237.787 242.923 238.76V244.54C242.923 244.673 242.877 244.787 242.783 244.88C242.703 244.96 242.597 245 242.463 245H241.523C241.39 245 241.277 244.96 241.183 244.88C241.103 244.787 241.063 244.673 241.063 244.54V238.94C241.063 238.193 240.957 237.607 240.743 237.18C240.53 236.753 240.243 236.453 239.883 236.28C239.523 236.107 239.13 236.02 238.703 236.02C238.357 236.02 238.003 236.107 237.643 236.28C237.283 236.453 236.983 236.753 236.743 237.18C236.517 237.607 236.403 238.193 236.403 238.94V244.54C236.403 244.673 236.357 244.787 236.263 244.88C236.183 244.96 236.077 245 235.943 245H235.003C234.87 245 234.757 244.96 234.663 244.88C234.583 244.787 234.543 244.673 234.543 244.54V238.94C234.543 238.193 234.43 237.607 234.203 237.18C233.977 236.753 233.683 236.453 233.323 236.28C232.963 236.107 232.583 236.02 232.183 236.02C231.837 236.02 231.483 236.107 231.123 236.28C230.763 236.453 230.463 236.753 230.223 237.18C229.997 237.607 229.883 238.187 229.883 238.92V244.54C229.883 244.673 229.837 244.787 229.743 244.88C229.663 244.96 229.557 245 229.423 245H228.463ZM251.808 245C251.675 245 251.561 244.96 251.468 244.88C251.388 244.787 251.348 244.673 251.348 244.54V236.2H249.648C249.515 236.2 249.401 236.16 249.308 236.08C249.228 235.987 249.188 235.873 249.188 235.74V235.06C249.188 234.927 249.228 234.82 249.308 234.74C249.401 234.647 249.515 234.6 249.648 234.6H251.348V233.6C251.348 232.92 251.461 232.327 251.688 231.82C251.915 231.3 252.275 230.9 252.768 230.62C253.275 230.34 253.948 230.2 254.788 230.2H255.988C256.121 230.2 256.228 230.247 256.308 230.34C256.388 230.42 256.428 230.527 256.428 230.66V231.34C256.428 231.473 256.388 231.587 256.308 231.68C256.228 231.76 256.121 231.8 255.988 231.8H254.828C254.201 231.8 253.775 231.967 253.548 232.3C253.321 232.62 253.208 233.087 253.208 233.7V234.6H255.788C255.921 234.6 256.028 234.647 256.108 234.74C256.188 234.82 256.228 234.927 256.228 235.06V235.74C256.228 235.873 256.188 235.987 256.108 236.08C256.028 236.16 255.921 236.2 255.788 236.2H253.208V244.54C253.208 244.673 253.161 244.787 253.068 244.88C252.988 244.96 252.881 245 252.748 245H251.808ZM262.068 245.2C261.055 245.2 260.208 245.007 259.528 244.62C258.848 244.233 258.328 243.7 257.968 243.02C257.608 242.327 257.408 241.54 257.368 240.66C257.355 240.433 257.348 240.147 257.348 239.8C257.348 239.44 257.355 239.153 257.368 238.94C257.408 238.047 257.608 237.26 257.968 236.58C258.341 235.9 258.868 235.367 259.548 234.98C260.228 234.593 261.068 234.4 262.068 234.4C263.068 234.4 263.908 234.593 264.588 234.98C265.268 235.367 265.788 235.9 266.148 236.58C266.521 237.26 266.728 238.047 266.768 238.94C266.781 239.153 266.788 239.44 266.788 239.8C266.788 240.147 266.781 240.433 266.768 240.66C266.728 241.54 266.528 242.327 266.168 243.02C265.808 243.7 265.288 244.233 264.608 244.62C263.928 245.007 263.081 245.2 262.068 245.2ZM262.068 243.66C262.895 243.66 263.555 243.4 264.048 242.88C264.541 242.347 264.808 241.573 264.848 240.56C264.861 240.36 264.868 240.107 264.868 239.8C264.868 239.493 264.861 239.24 264.848 239.04C264.808 238.027 264.541 237.26 264.048 236.74C263.555 236.207 262.895 235.94 262.068 235.94C261.241 235.94 260.575 236.207 260.068 236.74C259.575 237.26 259.315 238.027 259.288 239.04C259.275 239.24 259.268 239.493 259.268 239.8C259.268 240.107 259.275 240.36 259.288 240.56C259.315 241.573 259.575 242.347 260.068 242.88C260.575 243.4 261.241 243.66 262.068 243.66ZM269.753 245C269.619 245 269.506 244.96 269.413 244.88C269.333 244.787 269.293 244.673 269.293 244.54V235.08C269.293 234.947 269.333 234.833 269.413 234.74C269.506 234.647 269.619 234.6 269.753 234.6H270.673C270.806 234.6 270.919 234.647 271.013 234.74C271.106 234.833 271.153 234.947 271.153 235.08V235.96C271.419 235.507 271.786 235.167 272.253 234.94C272.719 234.713 273.279 234.6 273.933 234.6H274.733C274.866 234.6 274.973 234.647 275.053 234.74C275.133 234.82 275.173 234.927 275.173 235.06V235.88C275.173 236.013 275.133 236.12 275.053 236.2C274.973 236.28 274.866 236.32 274.733 236.32H273.533C272.813 236.32 272.246 236.533 271.833 236.96C271.419 237.373 271.213 237.94 271.213 238.66V244.54C271.213 244.673 271.166 244.787 271.073 244.88C270.979 244.96 270.866 245 270.733 245H269.753ZM281.784 245C281.65 245 281.537 244.96 281.444 244.88C281.364 244.787 281.324 244.673 281.324 244.54V235.06C281.324 234.927 281.364 234.82 281.444 234.74C281.537 234.647 281.65 234.6 281.784 234.6H282.684C282.817 234.6 282.924 234.647 283.004 234.74C283.097 234.82 283.144 234.927 283.144 235.06V235.76C283.45 235.347 283.837 235.02 284.304 234.78C284.77 234.527 285.33 234.4 285.984 234.4C287.49 234.387 288.557 235 289.184 236.24C289.49 235.68 289.937 235.233 290.524 234.9C291.11 234.567 291.777 234.4 292.524 234.4C293.217 234.4 293.844 234.56 294.404 234.88C294.977 235.2 295.424 235.687 295.744 236.34C296.077 236.98 296.244 237.787 296.244 238.76V244.54C296.244 244.673 296.197 244.787 296.104 244.88C296.024 244.96 295.917 245 295.784 245H294.844C294.71 245 294.597 244.96 294.504 244.88C294.424 244.787 294.384 244.673 294.384 244.54V238.94C294.384 238.193 294.277 237.607 294.064 237.18C293.85 236.753 293.564 236.453 293.204 236.28C292.844 236.107 292.45 236.02 292.024 236.02C291.677 236.02 291.324 236.107 290.964 236.28C290.604 236.453 290.304 236.753 290.064 237.18C289.837 237.607 289.724 238.193 289.724 238.94V244.54C289.724 244.673 289.677 244.787 289.584 244.88C289.504 244.96 289.397 245 289.264 245H288.324C288.19 245 288.077 244.96 287.984 244.88C287.904 244.787 287.864 244.673 287.864 244.54V238.94C287.864 238.193 287.75 237.607 287.524 237.18C287.297 236.753 287.004 236.453 286.644 236.28C286.284 236.107 285.904 236.02 285.504 236.02C285.157 236.02 284.804 236.107 284.444 236.28C284.084 236.453 283.784 236.753 283.544 237.18C283.317 237.607 283.204 238.187 283.204 238.92V244.54C283.204 244.673 283.157 244.787 283.064 244.88C282.984 244.96 282.877 245 282.744 245H281.784ZM301.997 245.2C301.331 245.2 300.724 245.067 300.177 244.8C299.631 244.533 299.191 244.173 298.857 243.72C298.524 243.267 298.357 242.753 298.357 242.18C298.357 241.26 298.731 240.527 299.477 239.98C300.224 239.433 301.197 239.073 302.397 238.9L305.377 238.48V237.9C305.377 237.26 305.191 236.76 304.817 236.4C304.457 236.04 303.864 235.86 303.037 235.86C302.437 235.86 301.951 235.98 301.577 236.22C301.217 236.46 300.964 236.767 300.817 237.14C300.737 237.34 300.597 237.44 300.397 237.44H299.497C299.351 237.44 299.237 237.4 299.157 237.32C299.091 237.227 299.057 237.12 299.057 237C299.057 236.8 299.131 236.553 299.277 236.26C299.437 235.967 299.677 235.68 299.997 235.4C300.317 235.12 300.724 234.887 301.217 234.7C301.724 234.5 302.337 234.4 303.057 234.4C303.857 234.4 304.531 234.507 305.077 234.72C305.624 234.92 306.051 235.193 306.357 235.54C306.677 235.887 306.904 236.28 307.037 236.72C307.184 237.16 307.257 237.607 307.257 238.06V244.54C307.257 244.673 307.211 244.787 307.117 244.88C307.037 244.96 306.931 245 306.797 245H305.877C305.731 245 305.617 244.96 305.537 244.88C305.457 244.787 305.417 244.673 305.417 244.54V243.68C305.244 243.92 305.011 244.16 304.717 244.4C304.424 244.627 304.057 244.82 303.617 244.98C303.177 245.127 302.637 245.2 301.997 245.2ZM302.417 243.7C302.964 243.7 303.464 243.587 303.917 243.36C304.371 243.12 304.724 242.753 304.977 242.26C305.244 241.767 305.377 241.147 305.377 240.4V239.84L303.057 240.18C302.111 240.313 301.397 240.54 300.917 240.86C300.437 241.167 300.197 241.56 300.197 242.04C300.197 242.413 300.304 242.727 300.517 242.98C300.744 243.22 301.024 243.4 301.357 243.52C301.704 243.64 302.057 243.7 302.417 243.7ZM310.592 245C310.459 245 310.346 244.96 310.252 244.88C310.172 244.787 310.132 244.673 310.132 244.54V235.06C310.132 234.927 310.172 234.82 310.252 234.74C310.346 234.647 310.459 234.6 310.592 234.6H311.532C311.666 234.6 311.772 234.647 311.852 234.74C311.946 234.82 311.992 234.927 311.992 235.06V235.94C312.339 235.487 312.772 235.12 313.292 234.84C313.826 234.547 314.506 234.4 315.332 234.4C316.199 234.4 316.932 234.593 317.532 234.98C318.146 235.353 318.606 235.88 318.912 236.56C319.219 237.227 319.372 238.007 319.372 238.9V244.54C319.372 244.673 319.332 244.787 319.252 244.88C319.172 244.96 319.066 245 318.932 245H317.932C317.799 245 317.686 244.96 317.592 244.88C317.512 244.787 317.472 244.673 317.472 244.54V239C317.472 238.067 317.246 237.34 316.792 236.82C316.339 236.287 315.672 236.02 314.792 236.02C313.966 236.02 313.299 236.287 312.792 236.82C312.299 237.34 312.052 238.067 312.052 239V244.54C312.052 244.673 312.006 244.787 311.912 244.88C311.832 244.96 311.726 245 311.592 245H310.592ZM326.521 249.4C325.615 249.4 324.868 249.28 324.281 249.04C323.708 248.8 323.255 248.507 322.921 248.16C322.601 247.827 322.368 247.487 322.221 247.14C322.088 246.807 322.015 246.54 322.001 246.34C321.988 246.207 322.028 246.093 322.121 246C322.228 245.907 322.341 245.86 322.461 245.86H323.421C323.541 245.86 323.641 245.887 323.721 245.94C323.801 245.993 323.868 246.107 323.921 246.28C324.001 246.48 324.121 246.7 324.281 246.94C324.441 247.193 324.688 247.407 325.021 247.58C325.355 247.767 325.821 247.86 326.421 247.86C327.048 247.86 327.575 247.773 328.001 247.6C328.428 247.44 328.748 247.147 328.961 246.72C329.188 246.307 329.301 245.733 329.301 245V243.64C328.981 244.053 328.561 244.4 328.041 244.68C327.521 244.947 326.868 245.08 326.081 245.08C325.335 245.08 324.695 244.953 324.161 244.7C323.628 244.433 323.188 244.08 322.841 243.64C322.508 243.187 322.255 242.673 322.081 242.1C321.921 241.527 321.828 240.927 321.801 240.3C321.788 239.927 321.788 239.56 321.801 239.2C321.828 238.573 321.921 237.973 322.081 237.4C322.255 236.827 322.508 236.313 322.841 235.86C323.188 235.407 323.628 235.053 324.161 234.8C324.695 234.533 325.335 234.4 326.081 234.4C326.881 234.4 327.541 234.553 328.061 234.86C328.595 235.153 329.028 235.513 329.361 235.94V235.08C329.361 234.947 329.401 234.833 329.481 234.74C329.575 234.647 329.688 234.6 329.821 234.6H330.741C330.875 234.6 330.988 234.647 331.081 234.74C331.175 234.833 331.221 234.947 331.221 235.08V244.78C331.221 245.673 331.068 246.467 330.761 247.16C330.468 247.853 329.975 248.4 329.281 248.8C328.601 249.2 327.681 249.4 326.521 249.4ZM326.481 243.48C327.148 243.48 327.681 243.327 328.081 243.02C328.495 242.713 328.795 242.327 328.981 241.86C329.181 241.393 329.288 240.92 329.301 240.44C329.315 240.253 329.321 240.027 329.321 239.76C329.321 239.48 329.315 239.247 329.301 239.06C329.288 238.58 329.181 238.107 328.981 237.64C328.795 237.173 328.495 236.787 328.081 236.48C327.681 236.173 327.148 236.02 326.481 236.02C325.815 236.02 325.281 236.173 324.881 236.48C324.481 236.773 324.195 237.167 324.021 237.66C323.848 238.14 323.748 238.66 323.721 239.22C323.708 239.567 323.708 239.92 323.721 240.28C323.748 240.84 323.848 241.367 324.021 241.86C324.195 242.34 324.481 242.733 324.881 243.04C325.281 243.333 325.815 243.48 326.481 243.48ZM338.335 245.2C336.962 245.2 335.868 244.78 335.055 243.94C334.242 243.087 333.795 241.927 333.715 240.46C333.702 240.287 333.695 240.067 333.695 239.8C333.695 239.52 333.702 239.293 333.715 239.12C333.768 238.173 333.988 237.347 334.375 236.64C334.762 235.92 335.288 235.367 335.955 234.98C336.635 234.593 337.428 234.4 338.335 234.4C339.348 234.4 340.195 234.613 340.875 235.04C341.568 235.467 342.095 236.073 342.455 236.86C342.815 237.647 342.995 238.567 342.995 239.62V239.96C342.995 240.107 342.948 240.22 342.855 240.3C342.775 240.38 342.668 240.42 342.535 240.42H335.615C335.615 240.433 335.615 240.46 335.615 240.5C335.615 240.54 335.615 240.573 335.615 240.6C335.642 241.147 335.762 241.66 335.975 242.14C336.188 242.607 336.495 242.987 336.895 243.28C337.295 243.573 337.775 243.72 338.335 243.72C338.815 243.72 339.215 243.647 339.535 243.5C339.855 243.353 340.115 243.193 340.315 243.02C340.515 242.833 340.648 242.693 340.715 242.6C340.835 242.427 340.928 242.327 340.995 242.3C341.062 242.26 341.168 242.24 341.315 242.24H342.275C342.408 242.24 342.515 242.28 342.595 242.36C342.688 242.427 342.728 242.527 342.715 242.66C342.702 242.86 342.595 243.107 342.395 243.4C342.195 243.68 341.908 243.96 341.535 244.24C341.162 244.52 340.708 244.753 340.175 244.94C339.642 245.113 339.028 245.2 338.335 245.2ZM335.615 239.04H341.095V238.98C341.095 238.38 340.982 237.847 340.755 237.38C340.542 236.913 340.228 236.547 339.815 236.28C339.402 236 338.908 235.86 338.335 235.86C337.762 235.86 337.268 236 336.855 236.28C336.455 236.547 336.148 236.913 335.935 237.38C335.722 237.847 335.615 238.38 335.615 238.98V239.04ZM353.889 245.2C353.142 245.2 352.502 245.107 351.969 244.92C351.435 244.733 351.002 244.507 350.669 244.24C350.335 243.973 350.082 243.707 349.909 243.44C349.749 243.173 349.662 242.96 349.649 242.8C349.635 242.653 349.682 242.54 349.789 242.46C349.895 242.38 350.002 242.34 350.109 242.34H350.989C351.069 242.34 351.129 242.353 351.169 242.38C351.222 242.393 351.289 242.447 351.369 242.54C351.542 242.727 351.735 242.913 351.949 243.1C352.162 243.287 352.422 243.44 352.729 243.56C353.049 243.68 353.442 243.74 353.909 243.74C354.589 243.74 355.149 243.613 355.589 243.36C356.029 243.093 356.249 242.707 356.249 242.2C356.249 241.867 356.155 241.6 355.969 241.4C355.795 241.2 355.475 241.02 355.009 240.86C354.555 240.7 353.929 240.533 353.129 240.36C352.329 240.173 351.695 239.947 351.229 239.68C350.762 239.4 350.429 239.073 350.229 238.7C350.029 238.313 349.929 237.88 349.929 237.4C349.929 236.907 350.075 236.433 350.369 235.98C350.662 235.513 351.089 235.133 351.649 234.84C352.222 234.547 352.935 234.4 353.789 234.4C354.482 234.4 355.075 234.487 355.569 234.66C356.062 234.833 356.469 235.053 356.789 235.32C357.109 235.573 357.349 235.827 357.509 236.08C357.669 236.333 357.755 236.547 357.769 236.72C357.782 236.853 357.742 236.967 357.649 237.06C357.555 237.14 357.449 237.18 357.329 237.18H356.489C356.395 237.18 356.315 237.16 356.249 237.12C356.195 237.08 356.142 237.033 356.089 236.98C355.955 236.807 355.795 236.633 355.609 236.46C355.435 236.287 355.202 236.147 354.909 236.04C354.629 235.92 354.255 235.86 353.789 235.86C353.122 235.86 352.622 236 352.289 236.28C351.955 236.56 351.789 236.913 351.789 237.34C351.789 237.593 351.862 237.82 352.009 238.02C352.155 238.22 352.435 238.4 352.849 238.56C353.262 238.72 353.875 238.893 354.689 239.08C355.569 239.253 356.262 239.487 356.769 239.78C357.275 240.073 357.635 240.413 357.849 240.8C358.062 241.187 358.169 241.633 358.169 242.14C358.169 242.7 358.002 243.213 357.669 243.68C357.349 244.147 356.869 244.52 356.229 244.8C355.602 245.067 354.822 245.2 353.889 245.2ZM360.944 245C360.811 245 360.697 244.96 360.604 244.88C360.524 244.787 360.484 244.673 360.484 244.54V235.06C360.484 234.927 360.524 234.82 360.604 234.74C360.697 234.647 360.811 234.6 360.944 234.6H361.844C361.977 234.6 362.084 234.647 362.164 234.74C362.257 234.82 362.304 234.927 362.304 235.06V235.76C362.611 235.347 362.997 235.02 363.464 234.78C363.931 234.527 364.491 234.4 365.144 234.4C366.651 234.387 367.717 235 368.344 236.24C368.651 235.68 369.097 235.233 369.684 234.9C370.271 234.567 370.937 234.4 371.684 234.4C372.377 234.4 373.004 234.56 373.564 234.88C374.137 235.2 374.584 235.687 374.904 236.34C375.237 236.98 375.404 237.787 375.404 238.76V244.54C375.404 244.673 375.357 244.787 375.264 244.88C375.184 244.96 375.077 245 374.944 245H374.004C373.871 245 373.757 244.96 373.664 244.88C373.584 244.787 373.544 244.673 373.544 244.54V238.94C373.544 238.193 373.437 237.607 373.224 237.18C373.011 236.753 372.724 236.453 372.364 236.28C372.004 236.107 371.611 236.02 371.184 236.02C370.837 236.02 370.484 236.107 370.124 236.28C369.764 236.453 369.464 236.753 369.224 237.18C368.997 237.607 368.884 238.193 368.884 238.94V244.54C368.884 244.673 368.837 244.787 368.744 244.88C368.664 244.96 368.557 245 368.424 245H367.484C367.351 245 367.237 244.96 367.144 244.88C367.064 244.787 367.024 244.673 367.024 244.54V238.94C367.024 238.193 366.911 237.607 366.684 237.18C366.457 236.753 366.164 236.453 365.804 236.28C365.444 236.107 365.064 236.02 364.664 236.02C364.317 236.02 363.964 236.107 363.604 236.28C363.244 236.453 362.944 236.753 362.704 237.18C362.477 237.607 362.364 238.187 362.364 238.92V244.54C362.364 244.673 362.317 244.787 362.224 244.88C362.144 244.96 362.037 245 361.904 245H360.944ZM381.157 245.2C380.491 245.2 379.884 245.067 379.337 244.8C378.791 244.533 378.351 244.173 378.017 243.72C377.684 243.267 377.517 242.753 377.517 242.18C377.517 241.26 377.891 240.527 378.637 239.98C379.384 239.433 380.357 239.073 381.557 238.9L384.537 238.48V237.9C384.537 237.26 384.351 236.76 383.977 236.4C383.617 236.04 383.024 235.86 382.197 235.86C381.597 235.86 381.111 235.98 380.737 236.22C380.377 236.46 380.124 236.767 379.977 237.14C379.897 237.34 379.757 237.44 379.557 237.44H378.657C378.511 237.44 378.397 237.4 378.317 237.32C378.251 237.227 378.217 237.12 378.217 237C378.217 236.8 378.291 236.553 378.437 236.26C378.597 235.967 378.837 235.68 379.157 235.4C379.477 235.12 379.884 234.887 380.377 234.7C380.884 234.5 381.497 234.4 382.217 234.4C383.017 234.4 383.691 234.507 384.237 234.72C384.784 234.92 385.211 235.193 385.517 235.54C385.837 235.887 386.064 236.28 386.197 236.72C386.344 237.16 386.417 237.607 386.417 238.06V244.54C386.417 244.673 386.371 244.787 386.277 244.88C386.197 244.96 386.091 245 385.957 245H385.037C384.891 245 384.777 244.96 384.697 244.88C384.617 244.787 384.577 244.673 384.577 244.54V243.68C384.404 243.92 384.171 244.16 383.877 244.4C383.584 244.627 383.217 244.82 382.777 244.98C382.337 245.127 381.797 245.2 381.157 245.2ZM381.577 243.7C382.124 243.7 382.624 243.587 383.077 243.36C383.531 243.12 383.884 242.753 384.137 242.26C384.404 241.767 384.537 241.147 384.537 240.4V239.84L382.217 240.18C381.271 240.313 380.557 240.54 380.077 240.86C379.597 241.167 379.357 241.56 379.357 242.04C379.357 242.413 379.464 242.727 379.677 242.98C379.904 243.22 380.184 243.4 380.517 243.52C380.864 243.64 381.217 243.7 381.577 243.7ZM382.237 233.2C381.784 233.2 381.391 233.053 381.057 232.76C380.724 232.467 380.557 232.087 380.557 231.62C380.557 231.167 380.717 230.793 381.037 230.5C381.371 230.207 381.771 230.06 382.237 230.06C382.691 230.06 383.084 230.207 383.417 230.5C383.751 230.793 383.917 231.167 383.917 231.62C383.917 232.087 383.751 232.467 383.417 232.76C383.097 233.053 382.704 233.2 382.237 233.2ZM382.237 232.22C382.411 232.22 382.551 232.167 382.657 232.06C382.777 231.94 382.837 231.793 382.837 231.62C382.837 231.447 382.777 231.307 382.657 231.2C382.551 231.08 382.411 231.02 382.237 231.02C382.064 231.02 381.917 231.08 381.797 231.2C381.691 231.307 381.637 231.447 381.637 231.62C381.637 231.793 381.691 231.94 381.797 232.06C381.917 232.167 382.064 232.22 382.237 232.22Z" fill="white"/>
<circle cx="193.5" cy="92.5" r="92.5" fill="white"/>
<path d="M225.937 107.481C223.402 86.0881 216.465 68.4801 216.465 68.4801H216.376C215.427 64.576 206.036 61.5034 194.579 61.5034C194.389 61.5034 194.2 61.5116 194 61.5116C193.811 61.5116 193.621 61.5034 193.421 61.5034C181.964 61.5034 172.583 64.5679 171.625 68.4801H171.535C171.535 68.4801 164.598 86.0881 162.064 107.481C159.538 128.792 158.461 141.839 164.01 147.238C167.722 150.852 183.561 152.789 194 152.789C204.439 152.789 220.277 150.852 223.99 147.238C229.54 141.839 228.461 128.792 225.937 107.481Z" fill="black"/>
<path d="M193.559 48.3486C187.082 48.3486 181.822 49.4357 181.822 50.7742V64.4782C181.822 65.8167 187.082 66.9038 193.559 66.9038C200.036 66.9038 205.296 65.8167 205.296 64.4782V50.7844C205.296 49.4357 200.036 48.3486 193.559 48.3486Z" fill="black"/>
<path d="M197.262 50.1635C197.262 50.1635 195.955 50.7821 193.43 50.7821C190.895 50.7821 189.598 50.1635 189.598 50.1635V39.0535H197.272V50.1635H197.262Z" fill="black"/>
<path d="M193.014 46.1825C189.431 44.7851 189.591 42.828 189.591 42.828V40.9419H197.266V46.8315C197.266 46.8315 196.098 47.3791 193.014 46.1825Z" fill="black"/>
<path d="M183.532 33.874L182.484 36.3991C182.215 37.0583 182.544 37.7173 183.103 38.1656C185.029 39.7029 188.812 41.6499 192.644 41.6499C203.652 41.6499 205.698 38.9544 209.651 38.7861C213.025 38.636 215.598 39.644 216.946 39.9929C217.384 40.1024 217.855 39.9239 218.104 39.5447L219.86 36.8696C220.229 36.3099 220 35.5615 219.392 35.3019C217.496 34.5028 213.503 33.0851 209.241 33.0851C201.826 33.0851 198.443 34.7421 193.852 34.5636C190.818 34.4541 187.105 33.6043 185.229 33.0547C184.53 32.8559 183.812 33.2149 183.532 33.874Z" fill="black"/>
<path opacity="0.75" d="M187.95 54.7542L187.282 54.665C186.373 54.525 185.445 54.2959 184.667 53.8071C184.088 53.438 183.579 52.9087 183.319 52.2597C183.06 51.631 183.289 51.0915 184.048 51.3003C185.655 51.7404 187.242 52.14 188.878 52.43C190.315 52.6795 191.793 52.5984 193.25 52.6085C193.639 52.6085 194.208 52.8377 193.958 53.3386C193.868 53.5272 193.679 53.657 193.499 53.7665C191.753 54.7846 189.886 54.9753 187.95 54.7542Z" fill="white"/>
<path d="M170.957 99.176C169.979 99.1963 169.639 96.6003 169.949 92.678C170.488 85.6607 171.625 80.3997 174.53 73.9807C176.396 69.8495 183.013 70.7967 181.236 75.149C177.015 85.5106 175.428 89.6135 174.091 93.5358C172.893 97.081 172.184 99.1456 170.957 99.176Z" fill="white"/>
</svg>
