<svg width="362" height="257" viewBox="0 0 362 257" fill="none" xmlns="http://www.w3.org/2000/svg">
<path d="M90.375 214C90.1917 214 90.0417 213.942 89.925 213.825C89.8083 213.708 89.75 213.558 89.75 213.375V197.125C89.75 196.942 89.8083 196.792 89.925 196.675C90.0417 196.558 90.1917 196.5 90.375 196.5H96.875C98.5083 196.5 99.9 196.767 101.05 197.3C102.2 197.817 103.083 198.583 103.7 199.6C104.317 200.6 104.65 201.842 104.7 203.325C104.717 204.058 104.725 204.7 104.725 205.25C104.725 205.8 104.717 206.433 104.7 207.15C104.633 208.7 104.3 209.983 103.7 211C103.117 212.017 102.258 212.775 101.125 213.275C100.008 213.758 98.6333 214 97 214H90.375ZM94.225 210.4H96.875C97.5917 210.4 98.1833 210.292 98.65 210.075C99.1333 209.842 99.4917 209.483 99.725 209C99.975 208.517 100.108 207.883 100.125 207.1C100.158 206.617 100.175 206.183 100.175 205.8C100.192 205.417 100.192 205.033 100.175 204.65C100.175 204.267 100.158 203.842 100.125 203.375C100.092 202.242 99.7917 201.417 99.225 200.9C98.675 200.367 97.85 200.1 96.75 200.1H94.225V210.4ZM107.996 214C107.812 214 107.662 213.942 107.546 213.825C107.429 213.708 107.371 213.558 107.371 213.375V201.625C107.371 201.442 107.429 201.292 107.546 201.175C107.662 201.058 107.812 201 107.996 201H110.946C111.112 201 111.254 201.058 111.371 201.175C111.504 201.292 111.571 201.442 111.571 201.625V213.375C111.571 213.558 111.504 213.708 111.371 213.825C111.254 213.942 111.112 214 110.946 214H107.996ZM107.971 199.125C107.787 199.125 107.637 199.067 107.521 198.95C107.404 198.833 107.346 198.683 107.346 198.5V196.275C107.346 196.092 107.404 195.942 107.521 195.825C107.637 195.692 107.787 195.625 107.971 195.625H110.946C111.129 195.625 111.279 195.692 111.396 195.825C111.529 195.942 111.596 196.092 111.596 196.275V198.5C111.596 198.683 111.529 198.833 111.396 198.95C111.279 199.067 111.129 199.125 110.946 199.125H107.971ZM121.149 214C120.083 214 119.158 213.833 118.374 213.5C117.608 213.15 117.016 212.617 116.599 211.9C116.183 211.167 115.974 210.225 115.974 209.075V204.275H114.024C113.841 204.275 113.683 204.217 113.549 204.1C113.433 203.983 113.374 203.833 113.374 203.65V201.625C113.374 201.442 113.433 201.292 113.549 201.175C113.683 201.058 113.841 201 114.024 201H115.974V196.875C115.974 196.692 116.033 196.542 116.149 196.425C116.283 196.308 116.433 196.25 116.599 196.25H119.499C119.683 196.25 119.833 196.308 119.949 196.425C120.066 196.542 120.124 196.692 120.124 196.875V201H123.249C123.433 201 123.583 201.058 123.699 201.175C123.816 201.292 123.874 201.442 123.874 201.625V203.65C123.874 203.833 123.816 203.983 123.699 204.1C123.583 204.217 123.433 204.275 123.249 204.275H120.124V208.725C120.124 209.292 120.233 209.742 120.449 210.075C120.666 210.408 121.033 210.575 121.549 210.575H123.474C123.658 210.575 123.808 210.633 123.924 210.75C124.041 210.867 124.099 211.017 124.099 211.2V213.375C124.099 213.558 124.041 213.708 123.924 213.825C123.808 213.942 123.658 214 123.474 214H121.149ZM137.653 214C136.587 214 135.662 213.833 134.878 213.5C134.112 213.15 133.52 212.617 133.103 211.9C132.687 211.167 132.478 210.225 132.478 209.075V204.275H130.528C130.345 204.275 130.187 204.217 130.053 204.1C129.937 203.983 129.878 203.833 129.878 203.65V201.625C129.878 201.442 129.937 201.292 130.053 201.175C130.187 201.058 130.345 201 130.528 201H132.478V196.875C132.478 196.692 132.537 196.542 132.653 196.425C132.787 196.308 132.937 196.25 133.103 196.25H136.003C136.187 196.25 136.337 196.308 136.453 196.425C136.57 196.542 136.628 196.692 136.628 196.875V201H139.753C139.937 201 140.087 201.058 140.203 201.175C140.32 201.292 140.378 201.442 140.378 201.625V203.65C140.378 203.833 140.32 203.983 140.203 204.1C140.087 204.217 139.937 204.275 139.753 204.275H136.628V208.725C136.628 209.292 136.737 209.742 136.953 210.075C137.17 210.408 137.537 210.575 138.053 210.575H139.978C140.162 210.575 140.312 210.633 140.428 210.75C140.545 210.867 140.603 211.017 140.603 211.2V213.375C140.603 213.558 140.545 213.708 140.428 213.825C140.312 213.942 140.162 214 139.978 214H137.653ZM148.823 214.25C147.423 214.25 146.24 214.025 145.273 213.575C144.323 213.125 143.59 212.483 143.073 211.65C142.573 210.8 142.29 209.792 142.223 208.625C142.207 208.292 142.198 207.917 142.198 207.5C142.198 207.067 142.207 206.692 142.223 206.375C142.29 205.192 142.59 204.183 143.123 203.35C143.657 202.517 144.398 201.875 145.348 201.425C146.315 200.975 147.473 200.75 148.823 200.75C150.19 200.75 151.348 200.975 152.298 201.425C153.265 201.875 154.015 202.517 154.548 203.35C155.082 204.183 155.382 205.192 155.448 206.375C155.465 206.692 155.473 207.067 155.473 207.5C155.473 207.917 155.465 208.292 155.448 208.625C155.382 209.792 155.09 210.8 154.573 211.65C154.073 212.483 153.34 213.125 152.373 213.575C151.423 214.025 150.24 214.25 148.823 214.25ZM148.823 211.2C149.573 211.2 150.115 210.975 150.448 210.525C150.798 210.075 150.998 209.4 151.048 208.5C151.065 208.25 151.073 207.917 151.073 207.5C151.073 207.083 151.065 206.75 151.048 206.5C150.998 205.617 150.798 204.95 150.448 204.5C150.115 204.033 149.573 203.8 148.823 203.8C148.09 203.8 147.548 204.033 147.198 204.5C146.848 204.95 146.657 205.617 146.623 206.5C146.607 206.75 146.598 207.083 146.598 207.5C146.598 207.917 146.607 208.25 146.623 208.5C146.657 209.4 146.848 210.075 147.198 210.525C147.548 210.975 148.09 211.2 148.823 211.2ZM158.557 214C158.374 214 158.224 213.942 158.107 213.825C157.99 213.708 157.932 213.558 157.932 213.375V201.625C157.932 201.442 157.99 201.292 158.107 201.175C158.224 201.058 158.374 201 158.557 201H161.507C161.674 201 161.815 201.058 161.932 201.175C162.065 201.292 162.132 201.442 162.132 201.625V213.375C162.132 213.558 162.065 213.708 161.932 213.825C161.815 213.942 161.674 214 161.507 214H158.557ZM158.532 199.125C158.349 199.125 158.199 199.067 158.082 198.95C157.965 198.833 157.907 198.683 157.907 198.5V196.275C157.907 196.092 157.965 195.942 158.082 195.825C158.199 195.692 158.349 195.625 158.532 195.625H161.507C161.69 195.625 161.84 195.692 161.957 195.825C162.09 195.942 162.157 196.092 162.157 196.275V198.5C162.157 198.683 162.09 198.833 161.957 198.95C161.84 199.067 161.69 199.125 161.507 199.125H158.532ZM165.686 214C165.503 214 165.353 213.942 165.236 213.825C165.119 213.708 165.061 213.558 165.061 213.375V196.875C165.061 196.692 165.119 196.542 165.236 196.425C165.353 196.308 165.503 196.25 165.686 196.25H168.636C168.819 196.25 168.969 196.308 169.086 196.425C169.203 196.542 169.261 196.692 169.261 196.875V213.375C169.261 213.558 169.203 213.708 169.086 213.825C168.969 213.942 168.819 214 168.636 214H165.686ZM178.214 214.25C176.248 214.25 174.681 213.717 173.514 212.65C172.348 211.583 171.739 210 171.689 207.9C171.689 207.783 171.689 207.633 171.689 207.45C171.689 207.267 171.689 207.125 171.689 207.025C171.739 205.708 172.031 204.583 172.564 203.65C173.114 202.7 173.864 201.983 174.814 201.5C175.781 201 176.906 200.75 178.189 200.75C179.656 200.75 180.864 201.042 181.814 201.625C182.781 202.208 183.506 203 183.989 204C184.473 205 184.714 206.142 184.714 207.425V208.025C184.714 208.208 184.648 208.358 184.514 208.475C184.398 208.592 184.256 208.65 184.089 208.65H176.089C176.089 208.667 176.089 208.692 176.089 208.725C176.089 208.758 176.089 208.792 176.089 208.825C176.106 209.308 176.189 209.75 176.339 210.15C176.489 210.55 176.723 210.867 177.039 211.1C177.356 211.333 177.739 211.45 178.189 211.45C178.523 211.45 178.798 211.4 179.014 211.3C179.248 211.183 179.439 211.058 179.589 210.925C179.739 210.775 179.856 210.65 179.939 210.55C180.089 210.383 180.206 210.283 180.289 210.25C180.389 210.2 180.539 210.175 180.739 210.175H183.839C184.006 210.175 184.139 210.225 184.239 210.325C184.356 210.408 184.406 210.533 184.389 210.7C184.373 210.983 184.231 211.325 183.964 211.725C183.698 212.125 183.306 212.525 182.789 212.925C182.289 213.308 181.656 213.625 180.889 213.875C180.123 214.125 179.231 214.25 178.214 214.25ZM176.089 206.175H180.314V206.125C180.314 205.592 180.231 205.125 180.064 204.725C179.914 204.325 179.673 204.017 179.339 203.8C179.023 203.583 178.639 203.475 178.189 203.475C177.739 203.475 177.356 203.583 177.039 203.8C176.739 204.017 176.506 204.325 176.339 204.725C176.173 205.125 176.089 205.592 176.089 206.125V206.175ZM193.684 214C192.617 214 191.692 213.833 190.909 213.5C190.142 213.15 189.55 212.617 189.134 211.9C188.717 211.167 188.509 210.225 188.509 209.075V204.275H186.559C186.375 204.275 186.217 204.217 186.084 204.1C185.967 203.983 185.909 203.833 185.909 203.65V201.625C185.909 201.442 185.967 201.292 186.084 201.175C186.217 201.058 186.375 201 186.559 201H188.509V196.875C188.509 196.692 188.567 196.542 188.684 196.425C188.817 196.308 188.967 196.25 189.134 196.25H192.034C192.217 196.25 192.367 196.308 192.484 196.425C192.6 196.542 192.659 196.692 192.659 196.875V201H195.784C195.967 201 196.117 201.058 196.234 201.175C196.35 201.292 196.409 201.442 196.409 201.625V203.65C196.409 203.833 196.35 203.983 196.234 204.1C196.117 204.217 195.967 204.275 195.784 204.275H192.659V208.725C192.659 209.292 192.767 209.742 192.984 210.075C193.2 210.408 193.567 210.575 194.084 210.575H196.009C196.192 210.575 196.342 210.633 196.459 210.75C196.575 210.867 196.634 211.017 196.634 211.2V213.375C196.634 213.558 196.575 213.708 196.459 213.825C196.342 213.942 196.192 214 196.009 214H193.684ZM206.654 214.25C205.72 214.25 204.937 214.092 204.304 213.775C203.687 213.458 203.179 213.058 202.779 212.575V213.375C202.779 213.558 202.712 213.708 202.579 213.825C202.462 213.942 202.32 214 202.154 214H199.329C199.145 214 198.995 213.942 198.879 213.825C198.762 213.708 198.704 213.558 198.704 213.375V196.875C198.704 196.692 198.762 196.542 198.879 196.425C198.995 196.308 199.145 196.25 199.329 196.25H202.379C202.562 196.25 202.712 196.308 202.829 196.425C202.945 196.542 203.004 196.692 203.004 196.875V202.225C203.404 201.792 203.904 201.442 204.504 201.175C205.12 200.892 205.837 200.75 206.654 200.75C207.487 200.75 208.22 200.892 208.854 201.175C209.504 201.442 210.054 201.833 210.504 202.35C210.954 202.867 211.304 203.483 211.554 204.2C211.804 204.917 211.945 205.725 211.979 206.625C211.995 206.942 212.004 207.233 212.004 207.5C212.004 207.75 211.995 208.042 211.979 208.375C211.945 209.308 211.795 210.142 211.529 210.875C211.279 211.592 210.929 212.208 210.479 212.725C210.029 213.225 209.487 213.608 208.854 213.875C208.22 214.125 207.487 214.25 206.654 214.25ZM205.304 210.9C205.87 210.9 206.312 210.783 206.629 210.55C206.945 210.317 207.17 210 207.304 209.6C207.454 209.2 207.545 208.758 207.579 208.275C207.612 207.758 207.612 207.242 207.579 206.725C207.545 206.242 207.454 205.8 207.304 205.4C207.17 205 206.945 204.683 206.629 204.45C206.312 204.217 205.87 204.1 205.304 204.1C204.787 204.1 204.362 204.217 204.029 204.45C203.695 204.667 203.445 204.958 203.279 205.325C203.112 205.675 203.02 206.058 203.004 206.475C202.987 206.792 202.979 207.1 202.979 207.4C202.979 207.7 202.987 208.017 203.004 208.35C203.02 208.8 203.104 209.217 203.254 209.6C203.404 209.983 203.645 210.3 203.979 210.55C204.312 210.783 204.754 210.9 205.304 210.9ZM220.475 214.25C218.508 214.25 216.942 213.717 215.775 212.65C214.608 211.583 214 210 213.95 207.9C213.95 207.783 213.95 207.633 213.95 207.45C213.95 207.267 213.95 207.125 213.95 207.025C214 205.708 214.292 204.583 214.825 203.65C215.375 202.7 216.125 201.983 217.075 201.5C218.042 201 219.167 200.75 220.45 200.75C221.917 200.75 223.125 201.042 224.075 201.625C225.042 202.208 225.767 203 226.25 204C226.733 205 226.975 206.142 226.975 207.425V208.025C226.975 208.208 226.908 208.358 226.775 208.475C226.658 208.592 226.517 208.65 226.35 208.65H218.35C218.35 208.667 218.35 208.692 218.35 208.725C218.35 208.758 218.35 208.792 218.35 208.825C218.367 209.308 218.45 209.75 218.6 210.15C218.75 210.55 218.983 210.867 219.3 211.1C219.617 211.333 220 211.45 220.45 211.45C220.783 211.45 221.058 211.4 221.275 211.3C221.508 211.183 221.7 211.058 221.85 210.925C222 210.775 222.117 210.65 222.2 210.55C222.35 210.383 222.467 210.283 222.55 210.25C222.65 210.2 222.8 210.175 223 210.175H226.1C226.267 210.175 226.4 210.225 226.5 210.325C226.617 210.408 226.667 210.533 226.65 210.7C226.633 210.983 226.492 211.325 226.225 211.725C225.958 212.125 225.567 212.525 225.05 212.925C224.55 213.308 223.917 213.625 223.15 213.875C222.383 214.125 221.492 214.25 220.475 214.25ZM218.35 206.175H222.575V206.125C222.575 205.592 222.492 205.125 222.325 204.725C222.175 204.325 221.933 204.017 221.6 203.8C221.283 203.583 220.9 203.475 220.45 203.475C220 203.475 219.617 203.583 219.3 203.8C219 204.017 218.767 204.325 218.6 204.725C218.433 205.125 218.35 205.592 218.35 206.125V206.175ZM234.669 214.25C233.585 214.25 232.66 214.133 231.894 213.9C231.144 213.65 230.527 213.35 230.044 213C229.577 212.65 229.227 212.292 228.994 211.925C228.76 211.542 228.635 211.217 228.619 210.95C228.602 210.767 228.66 210.617 228.794 210.5C228.927 210.367 229.069 210.3 229.219 210.3H232.069C232.119 210.3 232.16 210.308 232.194 210.325C232.227 210.342 232.277 210.375 232.344 210.425C232.56 210.542 232.777 210.692 232.994 210.875C233.21 211.042 233.46 211.192 233.744 211.325C234.027 211.458 234.369 211.525 234.769 211.525C235.235 211.525 235.627 211.433 235.944 211.25C236.26 211.067 236.419 210.792 236.419 210.425C236.419 210.158 236.344 209.942 236.194 209.775C236.044 209.592 235.735 209.417 235.269 209.25C234.819 209.083 234.135 208.917 233.219 208.75C232.352 208.55 231.594 208.292 230.944 207.975C230.294 207.642 229.794 207.217 229.444 206.7C229.094 206.167 228.919 205.525 228.919 204.775C228.919 204.108 229.135 203.467 229.569 202.85C230.002 202.233 230.635 201.733 231.469 201.35C232.302 200.95 233.327 200.75 234.544 200.75C235.51 200.75 236.344 200.867 237.044 201.1C237.76 201.317 238.36 201.6 238.844 201.95C239.344 202.3 239.719 202.658 239.969 203.025C240.219 203.392 240.352 203.725 240.369 204.025C240.385 204.192 240.335 204.342 240.219 204.475C240.102 204.592 239.969 204.65 239.819 204.65H237.219C237.152 204.65 237.085 204.642 237.019 204.625C236.952 204.592 236.894 204.558 236.844 204.525C236.644 204.425 236.444 204.292 236.244 204.125C236.044 203.958 235.81 203.808 235.544 203.675C235.277 203.542 234.944 203.475 234.544 203.475C234.094 203.475 233.744 203.575 233.494 203.775C233.244 203.975 233.119 204.233 233.119 204.55C233.119 204.767 233.185 204.967 233.319 205.15C233.469 205.333 233.76 205.5 234.194 205.65C234.644 205.8 235.335 205.967 236.269 206.15C237.419 206.333 238.335 206.633 239.019 207.05C239.702 207.45 240.185 207.925 240.469 208.475C240.752 209.008 240.894 209.575 240.894 210.175C240.894 210.975 240.652 211.683 240.169 212.3C239.702 212.917 239.002 213.4 238.069 213.75C237.135 214.083 236.002 214.25 234.669 214.25ZM249.287 214.25C247.887 214.25 246.704 214.025 245.737 213.575C244.787 213.125 244.054 212.483 243.537 211.65C243.037 210.8 242.754 209.792 242.687 208.625C242.67 208.292 242.662 207.917 242.662 207.5C242.662 207.067 242.67 206.692 242.687 206.375C242.754 205.192 243.054 204.183 243.587 203.35C244.12 202.517 244.862 201.875 245.812 201.425C246.779 200.975 247.937 200.75 249.287 200.75C250.654 200.75 251.812 200.975 252.762 201.425C253.729 201.875 254.479 202.517 255.012 203.35C255.545 204.183 255.845 205.192 255.912 206.375C255.929 206.692 255.937 207.067 255.937 207.5C255.937 207.917 255.929 208.292 255.912 208.625C255.845 209.792 255.554 210.8 255.037 211.65C254.537 212.483 253.804 213.125 252.837 213.575C251.887 214.025 250.704 214.25 249.287 214.25ZM249.287 211.2C250.037 211.2 250.579 210.975 250.912 210.525C251.262 210.075 251.462 209.4 251.512 208.5C251.529 208.25 251.537 207.917 251.537 207.5C251.537 207.083 251.529 206.75 251.512 206.5C251.462 205.617 251.262 204.95 250.912 204.5C250.579 204.033 250.037 203.8 249.287 203.8C248.554 203.8 248.012 204.033 247.662 204.5C247.312 204.95 247.12 205.617 247.087 206.5C247.07 206.75 247.062 207.083 247.062 207.5C247.062 207.917 247.07 208.25 247.087 208.5C247.12 209.4 247.312 210.075 247.662 210.525C248.012 210.975 248.554 211.2 249.287 211.2ZM243.287 214.7C243.154 214.7 243.037 214.65 242.937 214.55C242.837 214.45 242.787 214.333 242.787 214.2C242.787 214.15 242.795 214.1 242.812 214.05C242.829 214 242.87 213.933 242.937 213.85L253.912 200.7C253.962 200.633 254.037 200.558 254.137 200.475C254.237 200.375 254.37 200.325 254.537 200.325H255.287C255.42 200.325 255.537 200.375 255.637 200.475C255.737 200.575 255.787 200.692 255.787 200.825C255.787 200.842 255.779 200.892 255.762 200.975C255.762 201.042 255.729 201.117 255.662 201.2L244.687 214.325C244.637 214.392 244.562 214.467 244.462 214.55C244.379 214.65 244.254 214.7 244.087 214.7H243.287ZM264.771 219.5C263.488 219.5 262.421 219.333 261.571 219C260.738 218.667 260.071 218.267 259.571 217.8C259.088 217.333 258.738 216.867 258.521 216.4C258.304 215.95 258.188 215.592 258.171 215.325C258.154 215.142 258.213 214.992 258.346 214.875C258.479 214.758 258.638 214.7 258.821 214.7H261.996C262.146 214.7 262.271 214.733 262.371 214.8C262.488 214.883 262.579 215.017 262.646 215.2C262.729 215.383 262.838 215.575 262.971 215.775C263.121 215.975 263.321 216.133 263.571 216.25C263.838 216.383 264.196 216.45 264.646 216.45C265.146 216.45 265.563 216.367 265.896 216.2C266.229 216.05 266.479 215.792 266.646 215.425C266.813 215.075 266.896 214.6 266.896 214V212.325C266.513 212.742 266.021 213.083 265.421 213.35C264.821 213.6 264.096 213.725 263.246 213.725C262.396 213.725 261.646 213.6 260.996 213.35C260.346 213.1 259.804 212.725 259.371 212.225C258.938 211.725 258.596 211.117 258.346 210.4C258.113 209.683 257.971 208.858 257.921 207.925C257.904 207.492 257.904 207.058 257.921 206.625C257.971 205.725 258.113 204.917 258.346 204.2C258.579 203.483 258.913 202.867 259.346 202.35C259.796 201.833 260.346 201.442 260.996 201.175C261.646 200.892 262.396 200.75 263.246 200.75C264.146 200.75 264.913 200.925 265.546 201.275C266.196 201.608 266.729 202.033 267.146 202.55V201.625C267.146 201.458 267.204 201.317 267.321 201.2C267.438 201.067 267.588 201 267.771 201H270.646C270.829 201 270.979 201.067 271.096 201.2C271.229 201.317 271.296 201.458 271.296 201.625V213.65C271.296 214.917 271.038 215.983 270.521 216.85C270.004 217.717 269.263 218.375 268.296 218.825C267.329 219.275 266.154 219.5 264.771 219.5ZM264.596 210.475C265.129 210.475 265.563 210.358 265.896 210.125C266.229 209.892 266.471 209.592 266.621 209.225C266.788 208.858 266.879 208.467 266.896 208.05C266.913 207.867 266.921 207.608 266.921 207.275C266.921 206.942 266.913 206.692 266.896 206.525C266.879 206.092 266.788 205.692 266.621 205.325C266.471 204.958 266.229 204.667 265.896 204.45C265.563 204.217 265.129 204.1 264.596 204.1C264.046 204.1 263.604 204.217 263.271 204.45C262.954 204.683 262.721 205 262.571 205.4C262.438 205.8 262.354 206.242 262.321 206.725C262.304 207.092 262.304 207.467 262.321 207.85C262.354 208.333 262.438 208.775 262.571 209.175C262.721 209.575 262.954 209.892 263.271 210.125C263.604 210.358 264.046 210.475 264.596 210.475Z" fill="white"/>
<path d="M2.2 244C2.05333 244 1.94 243.96 1.86 243.88C1.78 243.787 1.74 243.673 1.74 243.54V230.48C1.74 230.333 1.78 230.22 1.86 230.14C1.94 230.047 2.05333 230 2.2 230H3.2C3.34667 230 3.46 230.047 3.54 230.14C3.63333 230.22 3.68 230.333 3.68 230.48V235.44L9.02 230.32C9.07333 230.267 9.16 230.2 9.28 230.12C9.41333 230.04 9.58667 230 9.8 230H10.88C10.9867 230 11.08 230.04 11.16 230.12C11.24 230.2 11.28 230.293 11.28 230.4C11.28 230.507 11.2533 230.593 11.2 230.66L5.02 236.7L11.6 243.32C11.6667 243.4 11.7 243.493 11.7 243.6C11.7 243.707 11.66 243.8 11.58 243.88C11.5 243.96 11.4067 244 11.3 244H10.18C9.95333 244 9.78 243.96 9.66 243.88C9.54 243.787 9.45333 243.72 9.4 243.68L3.68 238.04V243.54C3.68 243.673 3.63333 243.787 3.54 243.88C3.46 243.96 3.34667 244 3.2 244H2.2ZM16.9225 244.2C16.0692 244.2 15.3425 244.013 14.7425 243.64C14.1558 243.253 13.7092 242.72 13.4025 242.04C13.0958 241.36 12.9425 240.58 12.9425 239.7V234.06C12.9425 233.927 12.9825 233.82 13.0625 233.74C13.1558 233.647 13.2692 233.6 13.4025 233.6H14.4025C14.5358 233.6 14.6425 233.647 14.7225 233.74C14.8158 233.82 14.8625 233.927 14.8625 234.06V239.6C14.8625 241.587 15.7292 242.58 17.4625 242.58C18.2892 242.58 18.9492 242.32 19.4425 241.8C19.9492 241.267 20.2025 240.533 20.2025 239.6V234.06C20.2025 233.927 20.2425 233.82 20.3225 233.74C20.4158 233.647 20.5292 233.6 20.6625 233.6H21.6425C21.7892 233.6 21.9025 233.647 21.9825 233.74C22.0625 233.82 22.1025 233.927 22.1025 234.06V243.54C22.1025 243.673 22.0625 243.787 21.9825 243.88C21.9025 243.96 21.7892 244 21.6425 244H20.7225C20.5892 244 20.4758 243.96 20.3825 243.88C20.3025 243.787 20.2625 243.673 20.2625 243.54V242.66C19.9025 243.127 19.4625 243.5 18.9425 243.78C18.4358 244.06 17.7625 244.2 16.9225 244.2ZM25.5338 244C25.4004 244 25.2871 243.96 25.1938 243.88C25.1138 243.787 25.0738 243.673 25.0738 243.54V234.06C25.0738 233.927 25.1138 233.82 25.1938 233.74C25.2871 233.647 25.4004 233.6 25.5338 233.6H26.4738C26.6071 233.6 26.7138 233.647 26.7938 233.74C26.8871 233.82 26.9338 233.927 26.9338 234.06V234.94C27.2804 234.487 27.7138 234.12 28.2338 233.84C28.7671 233.547 29.4471 233.4 30.2738 233.4C31.1404 233.4 31.8738 233.593 32.4738 233.98C33.0871 234.353 33.5471 234.88 33.8538 235.56C34.1604 236.227 34.3138 237.007 34.3138 237.9V243.54C34.3138 243.673 34.2738 243.787 34.1938 243.88C34.1138 243.96 34.0071 244 33.8737 244H32.8738C32.7404 244 32.6271 243.96 32.5338 243.88C32.4538 243.787 32.4138 243.673 32.4138 243.54V238C32.4138 237.067 32.1871 236.34 31.7338 235.82C31.2804 235.287 30.6138 235.02 29.7338 235.02C28.9071 235.02 28.2404 235.287 27.7338 235.82C27.2404 236.34 26.9938 237.067 26.9938 238V243.54C26.9938 243.673 26.9471 243.787 26.8538 243.88C26.7738 243.96 26.6671 244 26.5337 244H25.5338ZM45.7353 244C44.9886 244 44.382 243.86 43.9153 243.58C43.4486 243.287 43.1086 242.88 42.8953 242.36C42.682 241.827 42.5753 241.2 42.5753 240.48V235.2H41.0153C40.882 235.2 40.7686 235.16 40.6753 235.08C40.5953 234.987 40.5553 234.873 40.5553 234.74V234.06C40.5553 233.927 40.5953 233.82 40.6753 233.74C40.7686 233.647 40.882 233.6 41.0153 233.6H42.5753V230.26C42.5753 230.127 42.6153 230.02 42.6953 229.94C42.7886 229.847 42.902 229.8 43.0353 229.8H43.9753C44.1086 229.8 44.2153 229.847 44.2953 229.94C44.3886 230.02 44.4353 230.127 44.4353 230.26V233.6H46.9153C47.0486 233.6 47.1553 233.647 47.2353 233.74C47.3286 233.82 47.3753 233.927 47.3753 234.06V234.74C47.3753 234.873 47.3286 234.987 47.2353 235.08C47.1553 235.16 47.0486 235.2 46.9153 235.2H44.4353V240.34C44.4353 240.967 44.542 241.46 44.7553 241.82C44.9686 242.18 45.3486 242.36 45.8953 242.36H47.1153C47.2486 242.36 47.3553 242.407 47.4353 242.5C47.5286 242.58 47.5753 242.687 47.5753 242.82V243.54C47.5753 243.673 47.5286 243.787 47.4353 243.88C47.3553 243.96 47.2486 244 47.1153 244H45.7353ZM49.9478 244C49.8145 244 49.7011 243.96 49.6078 243.88C49.5278 243.787 49.4878 243.673 49.4878 243.54V234.08C49.4878 233.947 49.5278 233.833 49.6078 233.74C49.7011 233.647 49.8145 233.6 49.9478 233.6H50.8678C51.0011 233.6 51.1145 233.647 51.2078 233.74C51.3011 233.833 51.3478 233.947 51.3478 234.08V234.96C51.6145 234.507 51.9811 234.167 52.4478 233.94C52.9145 233.713 53.4745 233.6 54.1278 233.6H54.9278C55.0611 233.6 55.1678 233.647 55.2478 233.74C55.3278 233.82 55.3678 233.927 55.3678 234.06V234.88C55.3678 235.013 55.3278 235.12 55.2478 235.2C55.1678 235.28 55.0611 235.32 54.9278 235.32H53.7278C53.0078 235.32 52.4411 235.533 52.0278 235.96C51.6145 236.373 51.4078 236.94 51.4078 237.66V243.54C51.4078 243.673 51.3611 243.787 51.2678 243.88C51.1745 243.96 51.0611 244 50.9278 244H49.9478ZM61.0302 244.2C59.6568 244.2 58.5635 243.78 57.7502 242.94C56.9368 242.087 56.4902 240.927 56.4102 239.46C56.3968 239.287 56.3902 239.067 56.3902 238.8C56.3902 238.52 56.3968 238.293 56.4102 238.12C56.4635 237.173 56.6835 236.347 57.0702 235.64C57.4568 234.92 57.9835 234.367 58.6502 233.98C59.3302 233.593 60.1235 233.4 61.0302 233.4C62.0435 233.4 62.8902 233.613 63.5702 234.04C64.2635 234.467 64.7902 235.073 65.1502 235.86C65.5102 236.647 65.6902 237.567 65.6902 238.62V238.96C65.6902 239.107 65.6435 239.22 65.5502 239.3C65.4702 239.38 65.3635 239.42 65.2302 239.42H58.3102C58.3102 239.433 58.3102 239.46 58.3102 239.5C58.3102 239.54 58.3102 239.573 58.3102 239.6C58.3368 240.147 58.4568 240.66 58.6702 241.14C58.8835 241.607 59.1902 241.987 59.5902 242.28C59.9902 242.573 60.4702 242.72 61.0302 242.72C61.5102 242.72 61.9102 242.647 62.2302 242.5C62.5502 242.353 62.8102 242.193 63.0102 242.02C63.2102 241.833 63.3435 241.693 63.4102 241.6C63.5302 241.427 63.6235 241.327 63.6902 241.3C63.7568 241.26 63.8635 241.24 64.0102 241.24H64.9702C65.1035 241.24 65.2102 241.28 65.2902 241.36C65.3835 241.427 65.4235 241.527 65.4102 241.66C65.3968 241.86 65.2902 242.107 65.0902 242.4C64.8902 242.68 64.6035 242.96 64.2302 243.24C63.8568 243.52 63.4035 243.753 62.8702 243.94C62.3368 244.113 61.7235 244.2 61.0302 244.2ZM58.3102 238.04H63.7902V237.98C63.7902 237.38 63.6768 236.847 63.4502 236.38C63.2368 235.913 62.9235 235.547 62.5102 235.28C62.0968 235 61.6035 234.86 61.0302 234.86C60.4568 234.86 59.9635 235 59.5502 235.28C59.1502 235.547 58.8435 235.913 58.6302 236.38C58.4168 236.847 58.3102 237.38 58.3102 237.98V238.04ZM76.6142 244C75.8676 244 75.2609 243.86 74.7942 243.58C74.3276 243.287 73.9876 242.88 73.7742 242.36C73.5609 241.827 73.4542 241.2 73.4542 240.48V235.2H71.8942C71.7609 235.2 71.6476 235.16 71.5542 235.08C71.4742 234.987 71.4342 234.873 71.4342 234.74V234.06C71.4342 233.927 71.4742 233.82 71.5542 233.74C71.6476 233.647 71.7609 233.6 71.8942 233.6H73.4542V230.26C73.4542 230.127 73.4942 230.02 73.5742 229.94C73.6676 229.847 73.7809 229.8 73.9142 229.8H74.8542C74.9876 229.8 75.0942 229.847 75.1742 229.94C75.2676 230.02 75.3142 230.127 75.3142 230.26V233.6H77.7942C77.9276 233.6 78.0342 233.647 78.1142 233.74C78.2076 233.82 78.2542 233.927 78.2542 234.06V234.74C78.2542 234.873 78.2076 234.987 78.1142 235.08C78.0342 235.16 77.9276 235.2 77.7942 235.2H75.3142V240.34C75.3142 240.967 75.4209 241.46 75.6342 241.82C75.8476 242.18 76.2276 242.36 76.7742 242.36H77.9942C78.1276 242.36 78.2342 242.407 78.3142 242.5C78.4076 242.58 78.4542 242.687 78.4542 242.82V243.54C78.4542 243.673 78.4076 243.787 78.3142 243.88C78.2342 243.96 78.1276 244 77.9942 244H76.6142ZM80.8267 244C80.6934 244 80.5801 243.96 80.4867 243.88C80.4067 243.787 80.3667 243.673 80.3667 243.54V234.06C80.3667 233.927 80.4067 233.82 80.4867 233.74C80.5801 233.647 80.6934 233.6 80.8267 233.6H81.7867C81.9201 233.6 82.0267 233.647 82.1067 233.74C82.1867 233.82 82.2267 233.927 82.2267 234.06V243.54C82.2267 243.673 82.1867 243.787 82.1067 243.88C82.0267 243.96 81.9201 244 81.7867 244H80.8267ZM80.6667 231.66C80.5334 231.66 80.4201 231.62 80.3267 231.54C80.2467 231.447 80.2067 231.333 80.2067 231.2V230.12C80.2067 229.987 80.2467 229.88 80.3267 229.8C80.4201 229.707 80.5334 229.66 80.6667 229.66H81.9267C82.0601 229.66 82.1667 229.707 82.2467 229.8C82.3401 229.88 82.3867 229.987 82.3867 230.12V231.2C82.3867 231.333 82.3401 231.447 82.2467 231.54C82.1667 231.62 82.0601 231.66 81.9267 231.66H80.6667ZM85.8658 244C85.7324 244 85.6191 243.96 85.5258 243.88C85.4458 243.787 85.4058 243.673 85.4058 243.54V234.06C85.4058 233.927 85.4458 233.82 85.5258 233.74C85.6191 233.647 85.7324 233.6 85.8658 233.6H86.8058C86.9391 233.6 87.0458 233.647 87.1258 233.74C87.2191 233.82 87.2658 233.927 87.2658 234.06V234.94C87.6124 234.487 88.0458 234.12 88.5658 233.84C89.0991 233.547 89.7791 233.4 90.6058 233.4C91.4724 233.4 92.2058 233.593 92.8058 233.98C93.4191 234.353 93.8791 234.88 94.1858 235.56C94.4924 236.227 94.6458 237.007 94.6458 237.9V243.54C94.6458 243.673 94.6058 243.787 94.5258 243.88C94.4458 243.96 94.3391 244 94.2058 244H93.2058C93.0724 244 92.9591 243.96 92.8658 243.88C92.7858 243.787 92.7458 243.673 92.7458 243.54V238C92.7458 237.067 92.5191 236.34 92.0658 235.82C91.6124 235.287 90.9458 235.02 90.0658 235.02C89.2391 235.02 88.5724 235.287 88.0658 235.82C87.5724 236.34 87.3258 237.067 87.3258 238V243.54C87.3258 243.673 87.2791 243.787 87.1858 243.88C87.1058 243.96 86.9991 244 86.8658 244H85.8658ZM101.795 248.4C100.888 248.4 100.141 248.28 99.5547 248.04C98.9814 247.8 98.528 247.507 98.1947 247.16C97.8747 246.827 97.6414 246.487 97.4947 246.14C97.3614 245.807 97.288 245.54 97.2747 245.34C97.2614 245.207 97.3014 245.093 97.3947 245C97.5014 244.907 97.6147 244.86 97.7347 244.86H98.6947C98.8147 244.86 98.9147 244.887 98.9947 244.94C99.0747 244.993 99.1414 245.107 99.1947 245.28C99.2747 245.48 99.3947 245.7 99.5547 245.94C99.7147 246.193 99.9614 246.407 100.295 246.58C100.628 246.767 101.095 246.86 101.695 246.86C102.321 246.86 102.848 246.773 103.275 246.6C103.701 246.44 104.021 246.147 104.235 245.72C104.461 245.307 104.575 244.733 104.575 244V242.64C104.255 243.053 103.835 243.4 103.315 243.68C102.795 243.947 102.141 244.08 101.355 244.08C100.608 244.08 99.968 243.953 99.4347 243.7C98.9014 243.433 98.4614 243.08 98.1147 242.64C97.7814 242.187 97.528 241.673 97.3547 241.1C97.1947 240.527 97.1014 239.927 97.0747 239.3C97.0614 238.927 97.0614 238.56 97.0747 238.2C97.1014 237.573 97.1947 236.973 97.3547 236.4C97.528 235.827 97.7814 235.313 98.1147 234.86C98.4614 234.407 98.9014 234.053 99.4347 233.8C99.968 233.533 100.608 233.4 101.355 233.4C102.155 233.4 102.815 233.553 103.335 233.86C103.868 234.153 104.301 234.513 104.635 234.94V234.08C104.635 233.947 104.675 233.833 104.755 233.74C104.848 233.647 104.961 233.6 105.095 233.6H106.015C106.148 233.6 106.261 233.647 106.355 233.74C106.448 233.833 106.495 233.947 106.495 234.08V243.78C106.495 244.673 106.341 245.467 106.035 246.16C105.741 246.853 105.248 247.4 104.555 247.8C103.875 248.2 102.955 248.4 101.795 248.4ZM101.755 242.48C102.421 242.48 102.955 242.327 103.355 242.02C103.768 241.713 104.068 241.327 104.255 240.86C104.455 240.393 104.561 239.92 104.575 239.44C104.588 239.253 104.595 239.027 104.595 238.76C104.595 238.48 104.588 238.247 104.575 238.06C104.561 237.58 104.455 237.107 104.255 236.64C104.068 236.173 103.768 235.787 103.355 235.48C102.955 235.173 102.421 235.02 101.755 235.02C101.088 235.02 100.555 235.173 100.155 235.48C99.7547 235.773 99.468 236.167 99.2947 236.66C99.1214 237.14 99.0214 237.66 98.9947 238.22C98.9814 238.567 98.9814 238.92 98.9947 239.28C99.0214 239.84 99.1214 240.367 99.2947 240.86C99.468 241.34 99.7547 241.733 100.155 242.04C100.555 242.333 101.088 242.48 101.755 242.48ZM114.831 244C114.697 244 114.584 243.96 114.491 243.88C114.411 243.787 114.371 243.673 114.371 243.54V234.06C114.371 233.927 114.411 233.82 114.491 233.74C114.584 233.647 114.697 233.6 114.831 233.6H115.791C115.924 233.6 116.031 233.647 116.111 233.74C116.191 233.82 116.231 233.927 116.231 234.06V243.54C116.231 243.673 116.191 243.787 116.111 243.88C116.031 243.96 115.924 244 115.791 244H114.831ZM114.671 231.66C114.537 231.66 114.424 231.62 114.331 231.54C114.251 231.447 114.211 231.333 114.211 231.2V230.12C114.211 229.987 114.251 229.88 114.331 229.8C114.424 229.707 114.537 229.66 114.671 229.66H115.931C116.064 229.66 116.171 229.707 116.251 229.8C116.344 229.88 116.391 229.987 116.391 230.12V231.2C116.391 231.333 116.344 231.447 116.251 231.54C116.171 231.62 116.064 231.66 115.931 231.66H114.671ZM127.747 244C127 244 126.394 243.86 125.927 243.58C125.46 243.287 125.12 242.88 124.907 242.36C124.694 241.827 124.587 241.2 124.587 240.48V235.2H123.027C122.894 235.2 122.78 235.16 122.687 235.08C122.607 234.987 122.567 234.873 122.567 234.74V234.06C122.567 233.927 122.607 233.82 122.687 233.74C122.78 233.647 122.894 233.6 123.027 233.6H124.587V230.26C124.587 230.127 124.627 230.02 124.707 229.94C124.8 229.847 124.914 229.8 125.047 229.8H125.987C126.12 229.8 126.227 229.847 126.307 229.94C126.4 230.02 126.447 230.127 126.447 230.26V233.6H128.927C129.06 233.6 129.167 233.647 129.247 233.74C129.34 233.82 129.387 233.927 129.387 234.06V234.74C129.387 234.873 129.34 234.987 129.247 235.08C129.167 235.16 129.06 235.2 128.927 235.2H126.447V240.34C126.447 240.967 126.554 241.46 126.767 241.82C126.98 242.18 127.36 242.36 127.907 242.36H129.127C129.26 242.36 129.367 242.407 129.447 242.5C129.54 242.58 129.587 242.687 129.587 242.82V243.54C129.587 243.673 129.54 243.787 129.447 243.88C129.367 243.96 129.26 244 129.127 244H127.747ZM135.76 244.2C134.746 244.2 133.9 244.007 133.22 243.62C132.54 243.233 132.02 242.7 131.66 242.02C131.3 241.327 131.1 240.54 131.06 239.66C131.046 239.433 131.04 239.147 131.04 238.8C131.04 238.44 131.046 238.153 131.06 237.94C131.1 237.047 131.3 236.26 131.66 235.58C132.033 234.9 132.56 234.367 133.24 233.98C133.92 233.593 134.76 233.4 135.76 233.4C136.76 233.4 137.6 233.593 138.28 233.98C138.96 234.367 139.48 234.9 139.84 235.58C140.213 236.26 140.42 237.047 140.46 237.94C140.473 238.153 140.48 238.44 140.48 238.8C140.48 239.147 140.473 239.433 140.46 239.66C140.42 240.54 140.22 241.327 139.86 242.02C139.5 242.7 138.98 243.233 138.3 243.62C137.62 244.007 136.773 244.2 135.76 244.2ZM135.76 242.66C136.586 242.66 137.246 242.4 137.74 241.88C138.233 241.347 138.5 240.573 138.54 239.56C138.553 239.36 138.56 239.107 138.56 238.8C138.56 238.493 138.553 238.24 138.54 238.04C138.5 237.027 138.233 236.26 137.74 235.74C137.246 235.207 136.586 234.94 135.76 234.94C134.933 234.94 134.266 235.207 133.76 235.74C133.266 236.26 133.006 237.027 132.98 238.04C132.966 238.24 132.96 238.493 132.96 238.8C132.96 239.107 132.966 239.36 132.98 239.56C133.006 240.573 133.266 241.347 133.76 241.88C134.266 242.4 134.933 242.66 135.76 242.66ZM143.444 244C143.311 244 143.197 243.96 143.104 243.88C143.024 243.787 142.984 243.673 142.984 243.54V234.06C142.984 233.927 143.024 233.82 143.104 233.74C143.197 233.647 143.311 233.6 143.444 233.6H144.404C144.537 233.6 144.644 233.647 144.724 233.74C144.804 233.82 144.844 233.927 144.844 234.06V243.54C144.844 243.673 144.804 243.787 144.724 243.88C144.644 243.96 144.537 244 144.404 244H143.444ZM143.284 231.66C143.151 231.66 143.037 231.62 142.944 231.54C142.864 231.447 142.824 231.333 142.824 231.2V230.12C142.824 229.987 142.864 229.88 142.944 229.8C143.037 229.707 143.151 229.66 143.284 229.66H144.544C144.677 229.66 144.784 229.707 144.864 229.8C144.957 229.88 145.004 229.987 145.004 230.12V231.2C145.004 231.333 144.957 231.447 144.864 231.54C144.784 231.62 144.677 231.66 144.544 231.66H143.284ZM148.308 244C148.174 244 148.061 243.96 147.968 243.88C147.888 243.787 147.848 243.673 147.848 243.54V230.26C147.848 230.127 147.888 230.02 147.968 229.94C148.061 229.847 148.174 229.8 148.308 229.8H149.248C149.394 229.8 149.508 229.847 149.588 229.94C149.668 230.02 149.708 230.127 149.708 230.26V243.54C149.708 243.673 149.668 243.787 149.588 243.88C149.508 243.96 149.394 244 149.248 244H148.308ZM156.831 244.2C155.458 244.2 154.364 243.78 153.551 242.94C152.738 242.087 152.291 240.927 152.211 239.46C152.198 239.287 152.191 239.067 152.191 238.8C152.191 238.52 152.198 238.293 152.211 238.12C152.264 237.173 152.484 236.347 152.871 235.64C153.258 234.92 153.784 234.367 154.451 233.98C155.131 233.593 155.924 233.4 156.831 233.4C157.844 233.4 158.691 233.613 159.371 234.04C160.064 234.467 160.591 235.073 160.951 235.86C161.311 236.647 161.491 237.567 161.491 238.62V238.96C161.491 239.107 161.444 239.22 161.351 239.3C161.271 239.38 161.164 239.42 161.031 239.42H154.111C154.111 239.433 154.111 239.46 154.111 239.5C154.111 239.54 154.111 239.573 154.111 239.6C154.138 240.147 154.258 240.66 154.471 241.14C154.684 241.607 154.991 241.987 155.391 242.28C155.791 242.573 156.271 242.72 156.831 242.72C157.311 242.72 157.711 242.647 158.031 242.5C158.351 242.353 158.611 242.193 158.811 242.02C159.011 241.833 159.144 241.693 159.211 241.6C159.331 241.427 159.424 241.327 159.491 241.3C159.558 241.26 159.664 241.24 159.811 241.24H160.771C160.904 241.24 161.011 241.28 161.091 241.36C161.184 241.427 161.224 241.527 161.211 241.66C161.198 241.86 161.091 242.107 160.891 242.4C160.691 242.68 160.404 242.96 160.031 243.24C159.658 243.52 159.204 243.753 158.671 243.94C158.138 244.113 157.524 244.2 156.831 244.2ZM154.111 238.04H159.591V237.98C159.591 237.38 159.478 236.847 159.251 236.38C159.038 235.913 158.724 235.547 158.311 235.28C157.898 235 157.404 234.86 156.831 234.86C156.258 234.86 155.764 235 155.351 235.28C154.951 235.547 154.644 235.913 154.431 236.38C154.218 236.847 154.111 237.38 154.111 237.98V238.04ZM167.884 244C167.137 244 166.53 243.86 166.064 243.58C165.597 243.287 165.257 242.88 165.044 242.36C164.83 241.827 164.724 241.2 164.724 240.48V235.2H163.164C163.03 235.2 162.917 235.16 162.824 235.08C162.744 234.987 162.704 234.873 162.704 234.74V234.06C162.704 233.927 162.744 233.82 162.824 233.74C162.917 233.647 163.03 233.6 163.164 233.6H164.724V230.26C164.724 230.127 164.764 230.02 164.844 229.94C164.937 229.847 165.05 229.8 165.184 229.8H166.124C166.257 229.8 166.364 229.847 166.444 229.94C166.537 230.02 166.584 230.127 166.584 230.26V233.6H169.064C169.197 233.6 169.304 233.647 169.384 233.74C169.477 233.82 169.524 233.927 169.524 234.06V234.74C169.524 234.873 169.477 234.987 169.384 235.08C169.304 235.16 169.197 235.2 169.064 235.2H166.584V240.34C166.584 240.967 166.69 241.46 166.904 241.82C167.117 242.18 167.497 242.36 168.044 242.36H169.264C169.397 242.36 169.504 242.407 169.584 242.5C169.677 242.58 169.724 242.687 169.724 242.82V243.54C169.724 243.673 169.677 243.787 169.584 243.88C169.504 243.96 169.397 244 169.264 244H167.884ZM175.696 244C174.95 244 174.343 243.86 173.876 243.58C173.41 243.287 173.07 242.88 172.856 242.36C172.643 241.827 172.536 241.2 172.536 240.48V235.2H170.976C170.843 235.2 170.73 235.16 170.636 235.08C170.556 234.987 170.516 234.873 170.516 234.74V234.06C170.516 233.927 170.556 233.82 170.636 233.74C170.73 233.647 170.843 233.6 170.976 233.6H172.536V230.26C172.536 230.127 172.576 230.02 172.656 229.94C172.75 229.847 172.863 229.8 172.996 229.8H173.936C174.07 229.8 174.176 229.847 174.256 229.94C174.35 230.02 174.396 230.127 174.396 230.26V233.6H176.876C177.01 233.6 177.116 233.647 177.196 233.74C177.29 233.82 177.336 233.927 177.336 234.06V234.74C177.336 234.873 177.29 234.987 177.196 235.08C177.116 235.16 177.01 235.2 176.876 235.2H174.396V240.34C174.396 240.967 174.503 241.46 174.716 241.82C174.93 242.18 175.31 242.36 175.856 242.36H177.076C177.21 242.36 177.316 242.407 177.396 242.5C177.49 242.58 177.536 242.687 177.536 242.82V243.54C177.536 243.673 177.49 243.787 177.396 243.88C177.316 243.96 177.21 244 177.076 244H175.696ZM183.589 244.2C182.215 244.2 181.122 243.78 180.309 242.94C179.495 242.087 179.049 240.927 178.969 239.46C178.955 239.287 178.949 239.067 178.949 238.8C178.949 238.52 178.955 238.293 178.969 238.12C179.022 237.173 179.242 236.347 179.629 235.64C180.015 234.92 180.542 234.367 181.209 233.98C181.889 233.593 182.682 233.4 183.589 233.4C184.602 233.4 185.449 233.613 186.129 234.04C186.822 234.467 187.349 235.073 187.709 235.86C188.069 236.647 188.249 237.567 188.249 238.62V238.96C188.249 239.107 188.202 239.22 188.109 239.3C188.029 239.38 187.922 239.42 187.789 239.42H180.869C180.869 239.433 180.869 239.46 180.869 239.5C180.869 239.54 180.869 239.573 180.869 239.6C180.895 240.147 181.015 240.66 181.229 241.14C181.442 241.607 181.749 241.987 182.149 242.28C182.549 242.573 183.029 242.72 183.589 242.72C184.069 242.72 184.469 242.647 184.789 242.5C185.109 242.353 185.369 242.193 185.569 242.02C185.769 241.833 185.902 241.693 185.969 241.6C186.089 241.427 186.182 241.327 186.249 241.3C186.315 241.26 186.422 241.24 186.569 241.24H187.529C187.662 241.24 187.769 241.28 187.849 241.36C187.942 241.427 187.982 241.527 187.969 241.66C187.955 241.86 187.849 242.107 187.649 242.4C187.449 242.68 187.162 242.96 186.789 243.24C186.415 243.52 185.962 243.753 185.429 243.94C184.895 244.113 184.282 244.2 183.589 244.2ZM180.869 238.04H186.349V237.98C186.349 237.38 186.235 236.847 186.009 236.38C185.795 235.913 185.482 235.547 185.069 235.28C184.655 235 184.162 234.86 183.589 234.86C183.015 234.86 182.522 235 182.109 235.28C181.709 235.547 181.402 235.913 181.189 236.38C180.975 236.847 180.869 237.38 180.869 237.98V238.04ZM194.642 244C193.895 244 193.288 243.86 192.822 243.58C192.355 243.287 192.015 242.88 191.802 242.36C191.588 241.827 191.482 241.2 191.482 240.48V235.2H189.922C189.788 235.2 189.675 235.16 189.582 235.08C189.502 234.987 189.462 234.873 189.462 234.74V234.06C189.462 233.927 189.502 233.82 189.582 233.74C189.675 233.647 189.788 233.6 189.922 233.6H191.482V230.26C191.482 230.127 191.522 230.02 191.602 229.94C191.695 229.847 191.808 229.8 191.942 229.8H192.882C193.015 229.8 193.122 229.847 193.202 229.94C193.295 230.02 193.342 230.127 193.342 230.26V233.6H195.822C195.955 233.6 196.062 233.647 196.142 233.74C196.235 233.82 196.282 233.927 196.282 234.06V234.74C196.282 234.873 196.235 234.987 196.142 235.08C196.062 235.16 195.955 235.2 195.822 235.2H193.342V240.34C193.342 240.967 193.448 241.46 193.662 241.82C193.875 242.18 194.255 242.36 194.802 242.36H196.022C196.155 242.36 196.262 242.407 196.342 242.5C196.435 242.58 196.482 242.687 196.482 242.82V243.54C196.482 243.673 196.435 243.787 196.342 243.88C196.262 243.96 196.155 244 196.022 244H194.642ZM203.656 238.84C203.523 238.84 203.41 238.8 203.316 238.72C203.236 238.627 203.196 238.513 203.196 238.38V237.62C203.196 237.487 203.236 237.38 203.316 237.3C203.41 237.207 203.523 237.16 203.656 237.16H209.656C209.79 237.16 209.896 237.207 209.976 237.3C210.07 237.38 210.116 237.487 210.116 237.62V238.38C210.116 238.513 210.07 238.627 209.976 238.72C209.896 238.8 209.79 238.84 209.656 238.84H203.656ZM221.517 244C220.77 244 220.163 243.86 219.697 243.58C219.23 243.287 218.89 242.88 218.677 242.36C218.463 241.827 218.357 241.2 218.357 240.48V235.2H216.797C216.663 235.2 216.55 235.16 216.457 235.08C216.377 234.987 216.337 234.873 216.337 234.74V234.06C216.337 233.927 216.377 233.82 216.457 233.74C216.55 233.647 216.663 233.6 216.797 233.6H218.357V230.26C218.357 230.127 218.397 230.02 218.477 229.94C218.57 229.847 218.683 229.8 218.817 229.8H219.757C219.89 229.8 219.997 229.847 220.077 229.94C220.17 230.02 220.217 230.127 220.217 230.26V233.6H222.697C222.83 233.6 222.937 233.647 223.017 233.74C223.11 233.82 223.157 233.927 223.157 234.06V234.74C223.157 234.873 223.11 234.987 223.017 235.08C222.937 235.16 222.83 235.2 222.697 235.2H220.217V240.34C220.217 240.967 220.323 241.46 220.537 241.82C220.75 242.18 221.13 242.36 221.677 242.36H222.897C223.03 242.36 223.137 242.407 223.217 242.5C223.31 242.58 223.357 242.687 223.357 242.82V243.54C223.357 243.673 223.31 243.787 223.217 243.88C223.137 243.96 223.03 244 222.897 244H221.517ZM225.729 244C225.596 244 225.482 243.96 225.389 243.88C225.309 243.787 225.269 243.673 225.269 243.54V234.06C225.269 233.927 225.309 233.82 225.389 233.74C225.482 233.647 225.596 233.6 225.729 233.6H226.689C226.822 233.6 226.929 233.647 227.009 233.74C227.089 233.82 227.129 233.927 227.129 234.06V243.54C227.129 243.673 227.089 243.787 227.009 243.88C226.929 243.96 226.822 244 226.689 244H225.729ZM225.569 231.66C225.436 231.66 225.322 231.62 225.229 231.54C225.149 231.447 225.109 231.333 225.109 231.2V230.12C225.109 229.987 225.149 229.88 225.229 229.8C225.322 229.707 225.436 229.66 225.569 229.66H226.829C226.962 229.66 227.069 229.707 227.149 229.8C227.242 229.88 227.289 229.987 227.289 230.12V231.2C227.289 231.333 227.242 231.447 227.149 231.54C227.069 231.62 226.962 231.66 226.829 231.66H225.569ZM233.83 244.2C233.083 244.2 232.443 244.107 231.91 243.92C231.377 243.733 230.943 243.507 230.61 243.24C230.277 242.973 230.023 242.707 229.85 242.44C229.69 242.173 229.603 241.96 229.59 241.8C229.577 241.653 229.623 241.54 229.73 241.46C229.837 241.38 229.943 241.34 230.05 241.34H230.93C231.01 241.34 231.07 241.353 231.11 241.38C231.163 241.393 231.23 241.447 231.31 241.54C231.483 241.727 231.677 241.913 231.89 242.1C232.103 242.287 232.363 242.44 232.67 242.56C232.99 242.68 233.383 242.74 233.85 242.74C234.53 242.74 235.09 242.613 235.53 242.36C235.97 242.093 236.19 241.707 236.19 241.2C236.19 240.867 236.097 240.6 235.91 240.4C235.737 240.2 235.417 240.02 234.95 239.86C234.497 239.7 233.87 239.533 233.07 239.36C232.27 239.173 231.637 238.947 231.17 238.68C230.703 238.4 230.37 238.073 230.17 237.7C229.97 237.313 229.87 236.88 229.87 236.4C229.87 235.907 230.017 235.433 230.31 234.98C230.603 234.513 231.03 234.133 231.59 233.84C232.163 233.547 232.877 233.4 233.73 233.4C234.423 233.4 235.017 233.487 235.51 233.66C236.003 233.833 236.41 234.053 236.73 234.32C237.05 234.573 237.29 234.827 237.45 235.08C237.61 235.333 237.697 235.547 237.71 235.72C237.723 235.853 237.683 235.967 237.59 236.06C237.497 236.14 237.39 236.18 237.27 236.18H236.43C236.337 236.18 236.257 236.16 236.19 236.12C236.137 236.08 236.083 236.033 236.03 235.98C235.897 235.807 235.737 235.633 235.55 235.46C235.377 235.287 235.143 235.147 234.85 235.04C234.57 234.92 234.197 234.86 233.73 234.86C233.063 234.86 232.563 235 232.23 235.28C231.897 235.56 231.73 235.913 231.73 236.34C231.73 236.593 231.803 236.82 231.95 237.02C232.097 237.22 232.377 237.4 232.79 237.56C233.203 237.72 233.817 237.893 234.63 238.08C235.51 238.253 236.203 238.487 236.71 238.78C237.217 239.073 237.577 239.413 237.79 239.8C238.003 240.187 238.11 240.633 238.11 241.14C238.11 241.7 237.943 242.213 237.61 242.68C237.29 243.147 236.81 243.52 236.17 243.8C235.543 244.067 234.763 244.2 233.83 244.2ZM240.285 245.5C240.179 245.5 240.092 245.46 240.025 245.38C239.972 245.3 239.952 245.2 239.965 245.08L240.425 242.22C240.452 242.06 240.505 241.927 240.585 241.82C240.679 241.7 240.812 241.64 240.985 241.64H242.325C242.419 241.64 242.492 241.673 242.545 241.74C242.612 241.807 242.645 241.887 242.645 241.98C242.645 242.087 242.619 242.193 242.565 242.3L241.525 245.04C241.472 245.173 241.399 245.28 241.305 245.36C241.225 245.453 241.105 245.5 240.945 245.5H240.285ZM250.788 244C250.655 244 250.541 243.96 250.448 243.88C250.368 243.787 250.328 243.673 250.328 243.54V230.26C250.328 230.127 250.368 230.02 250.448 229.94C250.541 229.847 250.655 229.8 250.788 229.8H251.728C251.875 229.8 251.988 229.847 252.068 229.94C252.148 230.02 252.188 230.127 252.188 230.26V243.54C252.188 243.673 252.148 243.787 252.068 243.88C251.988 243.96 251.875 244 251.728 244H250.788ZM259.431 244.2C258.418 244.2 257.571 244.007 256.891 243.62C256.211 243.233 255.691 242.7 255.331 242.02C254.971 241.327 254.771 240.54 254.731 239.66C254.718 239.433 254.711 239.147 254.711 238.8C254.711 238.44 254.718 238.153 254.731 237.94C254.771 237.047 254.971 236.26 255.331 235.58C255.705 234.9 256.231 234.367 256.911 233.98C257.591 233.593 258.431 233.4 259.431 233.4C260.431 233.4 261.271 233.593 261.951 233.98C262.631 234.367 263.151 234.9 263.511 235.58C263.885 236.26 264.091 237.047 264.131 237.94C264.145 238.153 264.151 238.44 264.151 238.8C264.151 239.147 264.145 239.433 264.131 239.66C264.091 240.54 263.891 241.327 263.531 242.02C263.171 242.7 262.651 243.233 261.971 243.62C261.291 244.007 260.445 244.2 259.431 244.2ZM259.431 242.66C260.258 242.66 260.918 242.4 261.411 241.88C261.905 241.347 262.171 240.573 262.211 239.56C262.225 239.36 262.231 239.107 262.231 238.8C262.231 238.493 262.225 238.24 262.211 238.04C262.171 237.027 261.905 236.26 261.411 235.74C260.918 235.207 260.258 234.94 259.431 234.94C258.605 234.94 257.938 235.207 257.431 235.74C256.938 236.26 256.678 237.027 256.651 238.04C256.638 238.24 256.631 238.493 256.631 238.8C256.631 239.107 256.638 239.36 256.651 239.56C256.678 240.573 256.938 241.347 257.431 241.88C257.938 242.4 258.605 242.66 259.431 242.66ZM267.116 244C266.982 244 266.869 243.96 266.776 243.88C266.696 243.787 266.656 243.673 266.656 243.54V234.08C266.656 233.947 266.696 233.833 266.776 233.74C266.869 233.647 266.982 233.6 267.116 233.6H268.036C268.169 233.6 268.282 233.647 268.376 233.74C268.469 233.833 268.516 233.947 268.516 234.08V234.96C268.782 234.507 269.149 234.167 269.616 233.94C270.082 233.713 270.642 233.6 271.296 233.6H272.096C272.229 233.6 272.336 233.647 272.416 233.74C272.496 233.82 272.536 233.927 272.536 234.06V234.88C272.536 235.013 272.496 235.12 272.416 235.2C272.336 235.28 272.229 235.32 272.096 235.32H270.896C270.176 235.32 269.609 235.533 269.196 235.96C268.782 236.373 268.576 236.94 268.576 237.66V243.54C268.576 243.673 268.529 243.787 268.436 243.88C268.342 243.96 268.229 244 268.096 244H267.116ZM278.313 244C277.567 244 276.96 243.86 276.493 243.58C276.027 243.287 275.687 242.88 275.473 242.36C275.26 241.827 275.153 241.2 275.153 240.48V235.2H273.593C273.46 235.2 273.347 235.16 273.253 235.08C273.173 234.987 273.133 234.873 273.133 234.74V234.06C273.133 233.927 273.173 233.82 273.253 233.74C273.347 233.647 273.46 233.6 273.593 233.6H275.153V230.26C275.153 230.127 275.193 230.02 275.273 229.94C275.367 229.847 275.48 229.8 275.613 229.8H276.553C276.687 229.8 276.793 229.847 276.873 229.94C276.967 230.02 277.013 230.127 277.013 230.26V233.6H279.493C279.627 233.6 279.733 233.647 279.813 233.74C279.907 233.82 279.953 233.927 279.953 234.06V234.74C279.953 234.873 279.907 234.987 279.813 235.08C279.733 235.16 279.627 235.2 279.493 235.2H277.013V240.34C277.013 240.967 277.12 241.46 277.333 241.82C277.547 242.18 277.927 242.36 278.473 242.36H279.693C279.827 242.36 279.933 242.407 280.013 242.5C280.107 242.58 280.153 242.687 280.153 242.82V243.54C280.153 243.673 280.107 243.787 280.013 243.88C279.933 243.96 279.827 244 279.693 244H278.313ZM291.228 244.2C290.215 244.2 289.368 244.007 288.688 243.62C288.008 243.233 287.488 242.7 287.128 242.02C286.768 241.327 286.568 240.54 286.528 239.66C286.515 239.433 286.508 239.147 286.508 238.8C286.508 238.44 286.515 238.153 286.528 237.94C286.568 237.047 286.768 236.26 287.128 235.58C287.502 234.9 288.028 234.367 288.708 233.98C289.388 233.593 290.228 233.4 291.228 233.4C292.228 233.4 293.068 233.593 293.748 233.98C294.428 234.367 294.948 234.9 295.308 235.58C295.682 236.26 295.888 237.047 295.928 237.94C295.942 238.153 295.948 238.44 295.948 238.8C295.948 239.147 295.942 239.433 295.928 239.66C295.888 240.54 295.688 241.327 295.328 242.02C294.968 242.7 294.448 243.233 293.768 243.62C293.088 244.007 292.242 244.2 291.228 244.2ZM291.228 242.66C292.055 242.66 292.715 242.4 293.208 241.88C293.702 241.347 293.968 240.573 294.008 239.56C294.022 239.36 294.028 239.107 294.028 238.8C294.028 238.493 294.022 238.24 294.008 238.04C293.968 237.027 293.702 236.26 293.208 235.74C292.715 235.207 292.055 234.94 291.228 234.94C290.402 234.94 289.735 235.207 289.228 235.74C288.735 236.26 288.475 237.027 288.448 238.04C288.435 238.24 288.428 238.493 288.428 238.8C288.428 239.107 288.435 239.36 288.448 239.56C288.475 240.573 288.735 241.347 289.228 241.88C289.735 242.4 290.402 242.66 291.228 242.66ZM302.713 248.4C301.806 248.4 301.059 248.28 300.473 248.04C299.899 247.8 299.446 247.507 299.113 247.16C298.793 246.827 298.559 246.487 298.413 246.14C298.279 245.807 298.206 245.54 298.193 245.34C298.179 245.207 298.219 245.093 298.313 245C298.419 244.907 298.533 244.86 298.653 244.86H299.613C299.733 244.86 299.833 244.887 299.913 244.94C299.993 244.993 300.059 245.107 300.113 245.28C300.193 245.48 300.313 245.7 300.473 245.94C300.633 246.193 300.879 246.407 301.213 246.58C301.546 246.767 302.013 246.86 302.613 246.86C303.239 246.86 303.766 246.773 304.193 246.6C304.619 246.44 304.939 246.147 305.153 245.72C305.379 245.307 305.493 244.733 305.493 244V242.64C305.173 243.053 304.753 243.4 304.233 243.68C303.713 243.947 303.059 244.08 302.273 244.08C301.526 244.08 300.886 243.953 300.353 243.7C299.819 243.433 299.379 243.08 299.033 242.64C298.699 242.187 298.446 241.673 298.273 241.1C298.113 240.527 298.019 239.927 297.993 239.3C297.979 238.927 297.979 238.56 297.993 238.2C298.019 237.573 298.113 236.973 298.273 236.4C298.446 235.827 298.699 235.313 299.033 234.86C299.379 234.407 299.819 234.053 300.353 233.8C300.886 233.533 301.526 233.4 302.273 233.4C303.073 233.4 303.733 233.553 304.253 233.86C304.786 234.153 305.219 234.513 305.553 234.94V234.08C305.553 233.947 305.593 233.833 305.673 233.74C305.766 233.647 305.879 233.6 306.013 233.6H306.933C307.066 233.6 307.179 233.647 307.273 233.74C307.366 233.833 307.413 233.947 307.413 234.08V243.78C307.413 244.673 307.259 245.467 306.953 246.16C306.659 246.853 306.166 247.4 305.473 247.8C304.793 248.2 303.873 248.4 302.713 248.4ZM302.673 242.48C303.339 242.48 303.873 242.327 304.273 242.02C304.686 241.713 304.986 241.327 305.173 240.86C305.373 240.393 305.479 239.92 305.493 239.44C305.506 239.253 305.513 239.027 305.513 238.76C305.513 238.48 305.506 238.247 305.493 238.06C305.479 237.58 305.373 237.107 305.173 236.64C304.986 236.173 304.686 235.787 304.273 235.48C303.873 235.173 303.339 235.02 302.673 235.02C302.006 235.02 301.473 235.173 301.073 235.48C300.673 235.773 300.386 236.167 300.213 236.66C300.039 237.14 299.939 237.66 299.913 238.22C299.899 238.567 299.899 238.92 299.913 239.28C299.939 239.84 300.039 240.367 300.213 240.86C300.386 241.34 300.673 241.733 301.073 242.04C301.473 242.333 302.006 242.48 302.673 242.48ZM315.769 247.8C315.635 247.8 315.522 247.753 315.429 247.66C315.349 247.58 315.309 247.473 315.309 247.34V234.06C315.309 233.927 315.349 233.82 315.429 233.74C315.522 233.647 315.635 233.6 315.769 233.6H316.689C316.822 233.6 316.929 233.647 317.009 233.74C317.102 233.82 317.149 233.927 317.149 234.06V234.94C317.469 234.5 317.895 234.133 318.429 233.84C318.962 233.547 319.629 233.4 320.429 233.4C321.175 233.4 321.809 233.527 322.329 233.78C322.862 234.033 323.295 234.38 323.629 234.82C323.975 235.26 324.235 235.76 324.409 236.32C324.582 236.88 324.675 237.48 324.689 238.12C324.702 238.333 324.709 238.56 324.709 238.8C324.709 239.04 324.702 239.267 324.689 239.48C324.675 240.107 324.582 240.707 324.409 241.28C324.235 241.84 323.975 242.34 323.629 242.78C323.295 243.207 322.862 243.553 322.329 243.82C321.809 244.073 321.175 244.2 320.429 244.2C319.655 244.2 319.002 244.06 318.469 243.78C317.949 243.487 317.522 243.127 317.189 242.7V247.34C317.189 247.473 317.149 247.58 317.069 247.66C316.989 247.753 316.875 247.8 316.729 247.8H315.769ZM320.009 242.58C320.702 242.58 321.242 242.433 321.629 242.14C322.029 241.833 322.315 241.44 322.489 240.96C322.662 240.467 322.762 239.94 322.789 239.38C322.802 238.993 322.802 238.607 322.789 238.22C322.762 237.66 322.662 237.14 322.489 236.66C322.315 236.167 322.029 235.773 321.629 235.48C321.242 235.173 320.702 235.02 320.009 235.02C319.355 235.02 318.822 235.173 318.409 235.48C318.009 235.787 317.709 236.18 317.509 236.66C317.322 237.127 317.215 237.607 317.189 238.1C317.175 238.313 317.169 238.567 317.169 238.86C317.169 239.153 317.175 239.413 317.189 239.64C317.202 240.107 317.309 240.567 317.509 241.02C317.722 241.473 318.035 241.847 318.449 242.14C318.862 242.433 319.382 242.58 320.009 242.58ZM330.103 244.2C329.436 244.2 328.829 244.067 328.283 243.8C327.736 243.533 327.296 243.173 326.963 242.72C326.629 242.267 326.463 241.753 326.463 241.18C326.463 240.26 326.836 239.527 327.583 238.98C328.329 238.433 329.303 238.073 330.503 237.9L333.483 237.48V236.9C333.483 236.26 333.296 235.76 332.923 235.4C332.563 235.04 331.969 234.86 331.143 234.86C330.543 234.86 330.056 234.98 329.683 235.22C329.323 235.46 329.069 235.767 328.923 236.14C328.843 236.34 328.703 236.44 328.503 236.44H327.603C327.456 236.44 327.343 236.4 327.263 236.32C327.196 236.227 327.163 236.12 327.163 236C327.163 235.8 327.236 235.553 327.383 235.26C327.543 234.967 327.783 234.68 328.103 234.4C328.423 234.12 328.829 233.887 329.323 233.7C329.829 233.5 330.443 233.4 331.163 233.4C331.963 233.4 332.636 233.507 333.183 233.72C333.729 233.92 334.156 234.193 334.463 234.54C334.783 234.887 335.009 235.28 335.143 235.72C335.289 236.16 335.363 236.607 335.363 237.06V243.54C335.363 243.673 335.316 243.787 335.223 243.88C335.143 243.96 335.036 244 334.903 244H333.983C333.836 244 333.723 243.96 333.643 243.88C333.563 243.787 333.523 243.673 333.523 243.54V242.68C333.349 242.92 333.116 243.16 332.823 243.4C332.529 243.627 332.163 243.82 331.723 243.98C331.283 244.127 330.743 244.2 330.103 244.2ZM330.523 242.7C331.069 242.7 331.569 242.587 332.023 242.36C332.476 242.12 332.829 241.753 333.083 241.26C333.349 240.767 333.483 240.147 333.483 239.4V238.84L331.163 239.18C330.216 239.313 329.503 239.54 329.023 239.86C328.543 240.167 328.303 240.56 328.303 241.04C328.303 241.413 328.409 241.727 328.623 241.98C328.849 242.22 329.129 242.4 329.463 242.52C329.809 242.64 330.163 242.7 330.523 242.7ZM338.718 247.8C338.584 247.8 338.471 247.753 338.378 247.66C338.298 247.58 338.258 247.473 338.258 247.34V234.06C338.258 233.927 338.298 233.82 338.378 233.74C338.471 233.647 338.584 233.6 338.718 233.6H339.638C339.771 233.6 339.878 233.647 339.958 233.74C340.051 233.82 340.098 233.927 340.098 234.06V234.94C340.418 234.5 340.844 234.133 341.378 233.84C341.911 233.547 342.578 233.4 343.378 233.4C344.124 233.4 344.758 233.527 345.278 233.78C345.811 234.033 346.244 234.38 346.578 234.82C346.924 235.26 347.184 235.76 347.358 236.32C347.531 236.88 347.624 237.48 347.638 238.12C347.651 238.333 347.658 238.56 347.658 238.8C347.658 239.04 347.651 239.267 347.638 239.48C347.624 240.107 347.531 240.707 347.358 241.28C347.184 241.84 346.924 242.34 346.578 242.78C346.244 243.207 345.811 243.553 345.278 243.82C344.758 244.073 344.124 244.2 343.378 244.2C342.604 244.2 341.951 244.06 341.418 243.78C340.898 243.487 340.471 243.127 340.138 242.7V247.34C340.138 247.473 340.098 247.58 340.018 247.66C339.938 247.753 339.824 247.8 339.678 247.8H338.718ZM342.958 242.58C343.651 242.58 344.191 242.433 344.578 242.14C344.978 241.833 345.264 241.44 345.438 240.96C345.611 240.467 345.711 239.94 345.738 239.38C345.751 238.993 345.751 238.607 345.738 238.22C345.711 237.66 345.611 237.14 345.438 236.66C345.264 236.167 344.978 235.773 344.578 235.48C344.191 235.173 343.651 235.02 342.958 235.02C342.304 235.02 341.771 235.173 341.358 235.48C340.958 235.787 340.658 236.18 340.458 236.66C340.271 237.127 340.164 237.607 340.138 238.1C340.124 238.313 340.118 238.567 340.118 238.86C340.118 239.153 340.124 239.413 340.138 239.64C340.151 240.107 340.258 240.567 340.458 241.02C340.671 241.473 340.984 241.847 341.398 242.14C341.811 242.433 342.331 242.58 342.958 242.58ZM350.612 244C350.479 244 350.365 243.96 350.272 243.88C350.192 243.787 350.152 243.673 350.152 243.54V234.06C350.152 233.927 350.192 233.82 350.272 233.74C350.365 233.647 350.479 233.6 350.612 233.6H351.572C351.705 233.6 351.812 233.647 351.892 233.74C351.972 233.82 352.012 233.927 352.012 234.06V243.54C352.012 243.673 351.972 243.787 351.892 243.88C351.812 243.96 351.705 244 351.572 244H350.612ZM350.452 231.66C350.319 231.66 350.205 231.62 350.112 231.54C350.032 231.447 349.992 231.333 349.992 231.2V230.12C349.992 229.987 350.032 229.88 350.112 229.8C350.205 229.707 350.319 229.66 350.452 229.66H351.712C351.845 229.66 351.952 229.707 352.032 229.8C352.125 229.88 352.172 229.987 352.172 230.12V231.2C352.172 231.333 352.125 231.447 352.032 231.54C351.952 231.62 351.845 231.66 351.712 231.66H350.452ZM355.651 244C355.518 244 355.404 243.96 355.311 243.88C355.231 243.787 355.191 243.673 355.191 243.54V234.08C355.191 233.947 355.231 233.833 355.311 233.74C355.404 233.647 355.518 233.6 355.651 233.6H356.571C356.704 233.6 356.818 233.647 356.911 233.74C357.004 233.833 357.051 233.947 357.051 234.08V234.96C357.318 234.507 357.684 234.167 358.151 233.94C358.618 233.713 359.178 233.6 359.831 233.6H360.631C360.764 233.6 360.871 233.647 360.951 233.74C361.031 233.82 361.071 233.927 361.071 234.06V234.88C361.071 235.013 361.031 235.12 360.951 235.2C360.871 235.28 360.764 235.32 360.631 235.32H359.431C358.711 235.32 358.144 235.533 357.731 235.96C357.318 236.373 357.111 236.94 357.111 237.66V243.54C357.111 243.673 357.064 243.787 356.971 243.88C356.878 243.96 356.764 244 356.631 244H355.651Z" fill="white"/>
<circle cx="180.5" cy="92.5" r="92.5" fill="white"/>
<path fill-rule="evenodd" clip-rule="evenodd" d="M195.807 146H153.605C153.605 146 173.82 105.921 143.716 105.921V92.5634H223.997C223.997 92.5634 224.582 100.721 209.828 110.565C187.104 125.712 195.807 146 195.807 146ZM170.465 79.1527H223.997V85.7134H170.465V79.1527ZM137 39V85.7411H163.756V39H137ZM157.047 59.2884H150.338V45.6419H157.047V59.2884Z" fill="black"/>
</svg>
