<svg width="48" height="48" viewBox="0 0 48 48" fill="none" xmlns="http://www.w3.org/2000/svg">
<path d="M8.61687 2.53401L10.9962 4.88173L4.88434 11.076L2.50498 8.72827L8.61687 2.53401ZM11.563 7.16279C14.1614 7.15958 18.5884 7.37183 20.5553 9.31261L23.6485 12.3646L12.532 23.6309L9.43886 20.5789C7.47193 18.6381 7.19653 14.2183 7.17278 11.6122L11.563 7.16279ZM25.0761 13.7733L26.3451 15.0254L15.2286 26.2916L13.9596 25.0395L25.0761 13.7733ZM27.7727 16.434L29.0417 17.6861L17.9252 28.9524L16.6562 27.7003L27.7727 16.434ZM30.4693 19.0948L31.7383 20.3469L20.6218 31.6131L19.3528 30.361L30.4693 19.0948ZM33.1659 21.7555L46.6647 35.0749C44.303 39.4831 39.9285 43.9166 35.5483 46.3411L22.0494 33.0217L33.1659 21.7555Z" fill="#FF7555"/>
</svg>
