<svg width="695" height="343" viewBox="0 0 695 343" fill="none" xmlns="http://www.w3.org/2000/svg">
<path d="M-123.09 0.316258C-118.163 1.72558 -115.058 3.21781 -109.635 6.80328C-97.2565 14.969 -86.9068 26.8861 -80.2415 40.6062C-77.7369 45.7668 -76.619 48.6476 -72.9552 59.4662C-70.8024 65.8082 -69.4777 69.4144 -68.3599 72.005C-67.4077 74.2226 -63.3713 81.0827 -62.4813 81.9739C-61.7568 82.72 -60.8253 82.9065 -52.028 84.233C-40.4984 85.9739 -38.2213 86.4091 -28.9479 88.6682C-23.5867 89.9739 -12.3262 92.8339 -8.51746 93.8909C6.4483 97.9531 18.0608 101.248 30.8117 105.062C43.2728 108.772 53.6226 111.839 61.6541 114.14C80.0974 119.466 87.218 121.165 98.8098 122.969C106.365 124.15 114.003 125.352 119.075 126.181C122.387 126.72 123.567 126.823 124.105 126.678C124.622 126.533 126.05 125.31 129.197 122.285C134.641 117.062 135.717 116.129 137.414 115.238C140.395 113.663 142.631 113.518 147.226 114.596C150.579 115.383 153.684 116.419 160.557 119.031C172.107 123.445 175.419 124.171 187.3 124.855C189.412 124.979 192.372 125.228 193.883 125.393C195.415 125.559 197.795 125.684 199.203 125.684C201.583 125.684 210.008 125.041 216.901 124.336C221.372 123.88 242.734 121.829 250.331 121.124C267.615 119.549 285.644 118.595 311.498 117.912C336.979 117.248 343.893 117.124 359.728 117.103C376.039 117.083 378.171 117.145 390.984 117.912C393.655 118.077 398.912 118.409 402.68 118.637C406.426 118.865 412.719 119.197 416.652 119.362C420.585 119.549 425.842 119.818 428.347 119.984C436.089 120.502 442.216 120.689 445.838 120.502C454.346 120.046 459.955 119.652 461.466 119.383C464.633 118.803 475.376 116.15 490.342 112.212C495.062 110.969 499.781 109.767 500.816 109.539C503.962 108.834 507.461 108.461 510.938 108.461C516.486 108.44 519.239 108.979 525.842 111.342C528.222 112.191 531.203 113.207 532.466 113.601C540.58 116.129 550.185 117.228 558.133 116.502C563.225 116.067 566.454 116.481 570.429 118.14C571.402 118.533 572.623 119.01 573.14 119.155C574.548 119.57 582.497 119.922 592.909 120.005C598.021 120.046 602.865 120.171 603.672 120.295C604.459 120.419 606.26 120.896 607.647 121.331C611.973 122.741 613.277 122.886 620.956 122.823C630.685 122.761 633.79 123.155 638.758 125.062C642.215 126.388 643.954 126.72 648.383 126.927C652.047 127.072 652.213 127.114 657.698 128.461C669.021 131.279 675.293 133.041 676.825 133.829C678.729 134.803 679.122 136.399 678.315 139.611C677.487 142.865 676.328 144.689 672.312 149.227C671.008 150.678 670.035 151.901 670.139 151.942C670.242 151.963 671.339 152.191 672.602 152.398C678.563 153.455 687.609 155.321 688.582 155.694C690.735 156.502 693.177 158.616 694.109 160.461C695.061 162.347 695.309 168.813 694.564 172.315C693.446 177.476 689.762 185.393 685.539 191.694C682.703 195.922 674.63 206.098 663.618 219.362C651.571 233.849 640.041 244.812 624.786 256.274C618.597 260.916 614.415 263.859 597.318 275.527C581.772 286.159 583.035 285.33 572.312 291.859C560.39 299.134 547.928 305.683 538.676 309.558C521.619 316.709 516.382 318.159 457.947 331.9C443.085 335.382 428.161 337.807 410.545 339.548C394.979 341.102 384.153 341.537 374.114 341.019C351.345 339.838 325.656 338.18 319.467 337.475C309.945 336.398 299.057 334.387 287.797 331.589C273.928 328.149 267.014 325.911 259.438 322.449L256.334 321.019H254.367C252.483 321.019 252.339 321.061 250.952 321.807C250.144 322.221 248.613 323.382 247.536 324.356C242.879 328.543 239.505 330.139 234.847 330.367C233.523 330.429 232.281 330.636 231.494 330.905C230.273 331.32 227.147 332.978 225.036 334.325C222.945 335.651 219.24 337.434 217.004 338.159C213.858 339.216 211.912 339.444 208.104 339.278C203.529 339.071 201.107 339.423 195.166 341.144C189.971 342.657 184.175 343.278 179.103 342.885C168.774 342.097 154.181 337.91 144.245 332.936C136.835 329.206 131.163 324.584 129.424 320.812C128.493 318.823 129.031 316.273 130.687 315.009C132.115 313.931 137.808 311.962 142.941 310.781C145.943 310.097 146.067 310.056 163.289 303.175C182.912 295.361 183.595 295.071 188.273 292.605C190.157 291.61 191.192 290.947 191.068 290.823C190.964 290.719 186.079 288.792 180.221 286.533C167.719 281.704 163.889 280.17 158.011 277.641C131.432 266.263 103.964 251.465 71.6934 231.175C62.1509 225.186 62.2958 225.289 48.4064 214.782C46.5227 213.372 43.6868 211.32 42.093 210.263C27.8102 200.647 14.2935 190.388 -2.6181 176.274C-7.83441 171.922 -10.8773 169.331 -22.1792 159.673C-36.6275 147.279 -42.7132 142.388 -51.4691 136.129C-56.8924 132.233 -65.5447 126.595 -67.1801 125.891C-68.4013 125.352 -73.0173 124.979 -76.412 125.145C-82.27 125.414 -87.8589 126.554 -96.9047 129.29C-104.563 131.611 -112.284 134.243 -118.846 136.772C-132.653 142.077 -141.533 144.544 -152.876 146.202C-162.75 147.652 -174.507 147.839 -184.153 146.699C-198.395 145.02 -207.771 142.119 -215.803 136.875C-217.024 136.067 -219.384 134.616 -221.019 133.642C-223.503 132.171 -224 131.797 -224 131.404C-224 131.134 -223.876 130.823 -223.752 130.699C-223.4 130.43 -220.543 129.559 -218.577 129.124C-216.693 128.709 -211.622 126.243 -208.206 124.088C-203.756 121.248 -201.665 119.528 -193.468 111.901C-192.102 110.637 -190.239 108.896 -189.328 108.046C-188.417 107.197 -185.437 104.564 -182.704 102.16C-177.633 97.7458 -173.679 93.8909 -169.27 89.1448C-163.081 82.4713 -158.03 79.404 -145.983 75.0309C-144.265 74.3884 -142.692 73.7874 -142.485 73.6838C-142.175 73.518 -142.133 73.1656 -142.195 70.7201C-142.278 67.6527 -142.05 65.8082 -141.305 62.8859C-140.332 59.0932 -139.939 58.0569 -135.199 47.1347C-123.069 19.1141 -123.11 19.2177 -123.11 13.4561C-123.11 10.5338 -123.172 9.89135 -123.669 8.10897C-123.959 6.98981 -124.642 5.18671 -125.18 4.06754C-126.464 1.37326 -126.546 1.02092 -126.132 0.502791C-125.615 -0.0982429 -124.725 -0.160424 -123.09 0.316258ZM-123.193 3.27998C-123.193 3.34216 -122.779 4.50277 -122.262 5.89137C-120.067 11.7152 -119.612 16.6063 -120.688 22.1814C-121.227 25.0208 -122.137 27.6529 -123.69 30.8653C-124.932 33.4353 -125.698 34.8653 -131.369 44.9585C-136.71 54.4714 -138.366 58.803 -138.821 64.5854C-138.945 65.9947 -138.904 66.4092 -138.718 66.4092C-138.573 66.4092 -137.724 65.9533 -136.834 65.3729C-134.185 63.6735 -130.873 62.1812 -130.521 62.5336C-130.479 62.575 -132.053 63.7564 -134.06 65.145C-137.269 67.3833 -138.076 68.0672 -137.538 68.0672C-137.434 68.0672 -134.578 67.4662 -131.183 66.7201C-127.768 65.974 -124.932 65.4144 -124.89 65.4766C-124.518 65.8289 -125.718 66.347 -130.935 68.0465C-134.185 69.1035 -136.917 70.0569 -136.979 70.1812C-137.331 70.7201 -136.379 70.6993 -130.355 70.0154C-126.857 69.6216 -123.938 69.3315 -123.876 69.3937C-123.814 69.4558 -123.814 69.6423 -123.876 69.7874C-123.959 69.9947 -124.476 70.1398 -125.408 70.2434C-126.174 70.3263 -128.409 70.7822 -130.334 71.2797C-136.503 72.8548 -137.289 73.1864 -136.648 73.9532C-136.358 74.3263 -136.006 74.1397 -141.719 76.6682C-156.147 83.0516 -161.901 86.7822 -171.63 95.9427C-174.01 98.2018 -195.745 118.989 -199.057 122.181C-204.604 127.528 -206.26 128.875 -209.303 130.43C-211.518 131.549 -213.36 132.212 -215.389 132.585C-216.155 132.73 -216.776 132.937 -216.796 133.041C-216.838 133.331 -213.485 135.072 -210.98 136.046C-205.702 138.119 -197.111 140.357 -190.011 141.518C-182.911 142.678 -177.591 143.093 -169.643 143.093C-163.309 143.093 -159.272 142.886 -153.518 142.243C-141.14 140.875 -133.708 139.093 -120.109 134.181C-117.314 133.186 -112.181 131.321 -108.703 130.077C-94.814 125.082 -86.8032 122.844 -79.724 122.015C-76.2465 121.621 -69.5812 121.746 -66.8281 122.264C-65.8138 122.45 -64.8824 122.554 -64.7582 122.513C-64.5098 122.43 -66.4141 120.834 -80.407 109.311C-85.0438 105.497 -88.8318 102.305 -88.8318 102.223C-88.8318 102.057 -88.1901 102.492 -81.5662 107.176C-79.4549 108.668 -75.108 111.611 -71.8995 113.746C-68.6911 115.86 -65.2136 118.222 -64.1579 119.01C-61.5084 121 -57.8032 124.212 -56.6647 125.518L-55.6918 126.616L-56.4784 126.699C-56.9131 126.72 -58.1757 126.658 -59.2935 126.513C-60.4113 126.367 -61.3842 126.305 -61.4463 126.367C-61.5084 126.45 -61.3014 126.637 -60.9702 126.823C-49.4612 133.145 -43.0858 137.476 -32.4669 146.202C-17.7288 158.347 -10.2562 164.585 -1.3761 172.212C8.97369 181.082 13.4861 184.854 19.0129 189.331C43.9559 209.517 69.1059 226.864 96.4293 242.719C125.14 259.382 151.47 271.983 179.683 282.553C186.328 285.04 187.963 285.704 191.916 287.424C193.365 288.066 194.814 288.584 195.104 288.584C195.601 288.584 202.473 284.833 202.742 284.419C202.784 284.336 202.494 284.191 202.059 284.128C191.047 282.222 173.245 276.584 159.873 270.761C155.878 269.02 151.759 266.864 152.36 266.823C152.587 266.823 155.299 267.921 159.253 269.621C170.989 274.657 181.091 277.724 196.408 280.854C204.44 282.491 205.971 282.595 207.793 281.704C208.911 281.144 212.14 278.864 212.14 278.615C212.14 278.553 210.857 278.367 209.283 278.242C202.121 277.6 193.945 276.046 184.092 273.434C179.621 272.253 167.181 268.709 167.056 268.584C166.849 268.398 167.284 268.066 167.76 268.066C168.029 268.066 173.452 269.227 179.807 270.636C200.921 275.362 203.136 275.776 211.167 276.481L215.245 276.833L216.342 276.149C216.922 275.776 218.474 274.74 219.757 273.828C221.434 272.626 222.034 272.108 221.827 271.983C221.682 271.88 220.689 271.797 219.633 271.797C212.533 271.797 198.54 269.704 183.885 266.491C175.792 264.709 165.876 261.849 166.332 261.434C166.415 261.331 173.846 262.781 182.85 264.647C191.834 266.512 200.838 268.274 202.825 268.564C209.035 269.455 219.613 270.263 223.131 270.118C225.201 270.014 225.905 269.704 228.72 267.548L230.604 266.097L224.953 265.973C216.321 265.766 209.49 265.082 197.547 263.196C194.235 262.678 189.308 261.911 186.576 261.496C183.326 261.02 181.505 260.647 181.298 260.439C181.029 260.17 181.194 260.149 182.85 260.274C183.864 260.356 188.025 260.833 192.061 261.331C199.058 262.201 203.922 262.698 212.243 263.424C216.259 263.776 231.742 264.066 233.336 263.838C234.288 263.693 236.876 262.118 238.635 260.647L239.36 260.025L232.322 260.129C221.351 260.315 211.208 259.631 198.747 257.911C197.112 257.683 195.746 257.496 195.684 257.496C195.622 257.496 195.58 257.351 195.58 257.165C195.58 256.854 195.808 256.833 197.485 256.937C204.233 257.393 219.861 257.745 230.873 257.662L242.879 257.579L244.017 257.04C244.638 256.75 246.087 255.901 247.205 255.154L249.254 253.807L247.102 253.683C245.922 253.621 241.264 253.476 236.772 253.351C222.407 252.978 212.637 252.502 204.274 251.776C200.59 251.465 194.897 250.864 194.794 250.781C194.711 250.698 211.85 250.45 217.915 250.45C224.705 250.45 230.666 250.201 237.952 249.621C240.892 249.393 245.901 249.103 249.089 248.999C257.451 248.73 257.72 248.647 265.234 243.921C267.739 242.367 269.83 241.041 269.871 240.999C270.202 240.688 268.898 240.833 262.523 241.849C258.548 242.491 254.45 243.134 253.415 243.3C250.496 243.756 243.21 244.647 242.299 244.647C241.782 244.647 241.533 244.564 241.575 244.398C241.637 244.253 243.893 243.756 247.143 243.175C260.08 240.875 273.845 237.994 275.998 237.144C277.633 236.502 281.691 234.201 281.691 233.911C281.691 233.787 281.608 233.662 281.504 233.662C281.401 233.662 274.321 234.781 265.773 236.149C257.224 237.517 250.041 238.636 249.813 238.636C249.068 238.636 249.358 238.035 250.227 237.807C250.683 237.704 251.407 237.517 251.821 237.393C252.256 237.289 257.596 236.274 263.682 235.134C280.097 232.066 285.727 230.885 287.507 230.201C289.722 229.331 292.868 227.569 292.351 227.486C292.123 227.465 289.184 227.901 285.83 228.481C273.68 230.574 268.774 231.196 264.51 231.155L262.129 231.134L266.89 230.139C269.498 229.6 276.847 228.087 283.181 226.802C291.502 225.123 294.731 224.398 294.731 224.191C294.731 223.839 294.98 223.818 289.805 224.647C279.662 226.263 276.04 226.678 270.078 226.947C267.863 227.051 266.807 227.009 266.704 226.864C266.642 226.74 266.663 226.595 266.766 226.512C266.87 226.45 269.333 225.994 272.21 225.476C298.809 220.833 307.275 218.947 319.736 214.906C332.384 210.802 343.624 207.466 347.287 206.719C350.268 206.118 358.093 204.937 358.631 205.02C359.355 205.124 359.19 205.621 358.341 206.077C357.906 206.284 354.574 207.175 350.91 208.046C341.181 210.367 336.606 211.839 326.919 215.735C315.162 220.481 308.31 224.129 278.689 241.434C249.917 258.242 233.253 268.274 214.831 279.818C196.698 291.175 193.158 293.268 185.23 297.455C179.29 300.584 170.203 304.646 162.668 307.548C157.866 309.393 147.785 312.75 143.003 314.076C137.891 315.506 136.152 316.066 134.372 316.874C131.971 317.973 131.971 318.429 134.31 320.957C136.338 323.175 138.305 324.418 144.784 327.589C148.489 329.392 151.097 330.822 152.587 331.838C155.195 333.662 157.534 334.802 160.101 335.506C163.517 336.48 181.173 338.885 186.265 339.092C189.743 339.216 191.896 338.968 197.754 337.703C199.803 337.268 202.784 336.708 204.378 336.46C212.616 335.216 220.627 332.895 231.391 328.667C236.565 326.615 239.567 325.102 244.017 322.263C248.799 319.216 249.917 318.74 258.631 315.942C261.798 314.947 265.566 313.165 269.374 310.864C272.955 308.709 278.275 305.973 282.725 304.025C295.621 298.346 305.433 292.75 318.018 283.921C320.751 282.014 329.03 276.419 336.441 271.486C357.223 257.662 358.507 256.75 369.477 248.046C372.624 245.538 377.799 241.455 380.966 238.947C394.317 228.398 402.245 221.953 405.019 219.341C410.711 214.015 411.373 213.517 412.201 213.849C412.884 214.098 412.533 215.092 410.98 217.186C410.131 218.326 409.51 219.341 409.614 219.424C409.862 219.693 446.708 219.465 449.564 219.175C457.678 218.367 463.474 217.31 469.912 215.445C471.071 215.092 474.631 214.16 477.819 213.352C484.588 211.611 485.478 211.341 487.982 210.16C494.151 207.238 498.684 202.409 502.99 194.181C503.818 192.585 505.122 190.243 505.867 188.999C510.441 181.414 511.042 180.543 511.414 180.916C511.476 180.979 510.524 183.072 509.282 185.58C508.04 188.087 507.067 190.181 507.13 190.243C507.192 190.284 508.682 188.502 510.441 186.243C517.024 177.787 519.653 175.196 525.428 171.362C533.584 165.973 546.376 161.476 559.375 159.445C562.108 159.031 563.267 158.989 579.143 158.823C588.417 158.74 597.173 158.575 598.601 158.45C600.029 158.326 603.238 158.036 605.742 157.828C612.47 157.227 613.484 157.186 627.684 156.875C641.159 156.564 642.298 156.481 646.624 155.507C650.785 154.554 656.518 152.357 659.768 150.43C661.3 149.518 661.321 149.518 655.049 150.927C642.111 153.87 632.9 155.072 622.405 155.259C615.471 155.362 612.615 155.196 612.511 154.678C612.428 154.181 613.939 153.953 620.853 153.352C640.455 151.673 646.458 151.134 647.762 150.948C653.993 150.015 664.219 146.057 671.67 141.704C674.61 139.984 675.396 139.217 675.396 138.077C675.396 136.709 674.196 135.632 671.443 134.533C669.186 133.621 667.427 133.331 663.494 133.145C659.044 132.937 657.698 132.626 653.682 130.886C649.708 129.186 648.528 128.917 645.485 129C639.234 129.165 638.386 129.041 635.011 127.466C629.65 124.958 625.428 124.544 619.942 126.036C618.328 126.471 617.479 126.575 615.471 126.575C612.573 126.575 611.373 126.347 606.777 124.855C604.976 124.274 602.182 123.445 600.588 123.031C597.752 122.285 597.566 122.264 594.047 122.264C590.528 122.264 590.3 122.305 587.63 122.989C584.919 123.694 584.732 123.715 581.006 123.694L577.177 123.673L572.623 122.513C564.964 120.564 559.851 119.839 551.158 119.466C539.876 118.989 539.048 118.844 526.173 115.093C514.995 111.818 511.787 111.176 506.985 111.176C500.837 111.197 496.656 112.191 487.61 115.818C478.233 119.59 469.684 121.912 460.079 123.3C448.426 124.979 439.545 125.145 423.524 124.026C420.378 123.818 415.141 123.528 411.891 123.404C405.702 123.176 398.788 122.761 392.537 122.264C387.155 121.829 375.501 120.958 371.527 120.689C366.041 120.336 347.039 120.212 338.2 120.481C329.175 120.751 322.345 121.062 306.013 121.953C299.741 122.285 292.848 122.658 290.695 122.782C261.384 124.336 250.269 125.228 221.558 128.274C200.879 130.471 191.13 131.196 169.706 132.15C166.456 132.295 157.928 132.419 150.662 132.419C136.545 132.419 134.558 132.316 125.098 131.155C116.011 130.036 100.569 127.466 91.6685 125.58C71.5071 121.331 51.0558 115.383 7.42114 101.103C-13.2577 94.3262 -16.2591 93.3728 -20.4197 92.2329C-25.843 90.7407 -32.6739 89.3106 -41.3263 87.8806C-45.9216 87.093 -46.9566 86.948 -63.7853 84.6475C-80.9867 82.2848 -86.8033 81.3729 -90.7776 80.5024C-94.2965 79.7148 -95.0831 79.4454 -94.7726 79.1345C-94.6691 79.0102 -92.2266 79.3003 -74.5491 81.435C-70.4092 81.9324 -66.973 82.3262 -66.9523 82.2848C-66.8902 82.2433 -72.9346 64.4818 -74.7561 59.3833C-79.4756 46.0777 -83.0566 38.9689 -89.2458 30.6581C-92.0816 26.8239 -94.6277 23.9016 -98.3329 20.1918C-105.081 13.4354 -111.208 9.00016 -119.322 4.93801C-122.572 3.32143 -123.193 3.05201 -123.193 3.27998ZM137.787 118.036C136.317 118.409 135.096 119.507 131.888 123.362C130.149 125.435 128.721 127.238 128.721 127.321C128.721 128.005 155.092 128.44 166.497 127.963C172.107 127.715 180.283 127.196 180.408 127.051C180.511 126.948 180.056 126.803 171.672 124.253C161.612 121.207 156.313 119.901 149.006 118.741C141.948 117.621 139.857 117.497 137.787 118.036ZM664.322 151.694C661.714 153.145 658.071 154.575 653.558 155.942C651.613 156.523 648.508 157.476 646.624 158.056C640.911 159.797 637.309 160.481 631.824 160.917C629.961 161.041 620.749 161.103 606.156 161.082C579.454 161.02 573.016 161.248 563.66 162.492C548.135 164.564 534.95 169.414 523.358 177.31C519.487 179.942 518.183 181.041 514.374 184.813C511.042 188.108 510.255 188.999 510.483 189.227C510.545 189.289 514.685 186.761 519.715 183.631C524.745 180.481 528.905 177.911 528.968 177.911C529.03 177.911 528.554 178.574 527.933 179.403C526.235 181.58 526.297 181.621 529.112 180.315C531.762 179.093 533.087 178.16 535.778 175.611C537.02 174.409 538.344 173.248 538.717 172.979C539.359 172.523 540.021 172.378 540.021 172.668C540.021 172.771 538.945 174.036 537.641 175.507C536.337 176.999 535.26 178.264 535.26 178.367C535.26 179.051 537.744 177.683 539.524 176.025C540.414 175.176 541.574 174.201 542.091 173.849C543.085 173.186 544.161 172.668 544.285 172.792C544.327 172.834 543.478 173.642 542.402 174.595C541.305 175.549 540.456 176.419 540.497 176.543C540.621 176.916 542.153 176.771 543.54 176.253C544.244 175.984 546.397 174.72 548.342 173.414C550.267 172.129 552.006 171.072 552.192 171.072C552.606 171.072 552.565 171.113 550.06 173.144C549.025 173.973 548.156 174.74 548.115 174.844C548.011 175.134 549.853 174.823 551.302 174.305C551.986 174.056 554.304 172.854 556.477 171.631C559.023 170.181 560.452 169.476 560.597 169.621C560.845 169.87 561.031 169.683 558.547 171.383C557.409 172.17 556.374 172.896 556.27 172.999C555.898 173.352 559.085 172.999 560.41 172.523C561.093 172.295 562.956 171.549 564.55 170.885C568.09 169.393 568.38 169.29 568.38 169.663C568.38 169.828 567.779 170.305 567.034 170.72C565.088 171.839 565.192 172.067 567.448 171.694C568.131 171.569 576.287 171.155 585.56 170.761C608.413 169.787 627.228 168.834 633.335 168.378C638.241 168.005 640.476 167.341 646.251 164.647C655.421 160.336 661.134 156.73 665.047 152.751C666.019 151.756 666.827 150.865 666.868 150.761C667.013 150.326 666.309 150.595 664.322 151.694ZM668.007 153.58C667.965 153.704 668.421 153.953 669.021 154.119C669.621 154.305 672.457 155.155 675.314 156.025C678.17 156.896 681.793 157.932 683.366 158.326C687.63 159.424 688.23 159.818 688.23 161.435C688.23 163.134 685.725 165.497 682.641 166.699C680.654 167.466 678.315 167.922 670.118 169.082C650.929 171.797 652.358 171.652 641.553 171.88C625.055 172.233 619.321 172.461 593.219 173.766C560.286 175.424 555.215 175.818 547.99 177.207C537.04 179.321 525.573 183.59 516.9 188.792C511.911 191.756 505.349 197.849 503.776 200.937C500.961 206.533 496.035 211.258 490.073 214.098C484.526 216.709 475.646 218.595 463.64 219.673C451.22 220.771 423.358 221.911 415.989 221.6C408.517 221.269 408.144 221.289 407.358 221.725C406.964 221.932 405.909 222.844 405.039 223.735L403.425 225.351L404.294 225.476C405.267 225.6 423.545 226.699 430.086 227.03C435.53 227.3 446.583 227.3 450.64 227.03C463.598 226.16 475.459 223.693 486.616 219.569C489.825 218.388 491.501 217.621 498.332 214.305C501.541 212.75 504.273 211.486 504.439 211.486C505.639 211.528 496.035 217.165 490.384 219.756C479.599 224.709 470.885 226.761 454.842 228.191C451.096 228.502 412.263 229.041 409.2 228.792C408.351 228.73 406.219 228.481 404.501 228.232L401.334 227.797L400.61 228.315C400.216 228.585 398.56 230.035 396.946 231.507L394.006 234.18L396.159 234.243C397.36 234.263 402.804 234.574 408.268 234.906C426.277 236.025 428.699 236.149 435.074 236.294C441.574 236.419 446.087 236.212 450.496 235.61C456.643 234.781 474.197 231.445 479.992 230.015C485.354 228.688 491.149 226.18 497.173 222.574C499.885 220.937 510.214 214.118 515.554 210.429C516.713 209.6 517.748 208.999 517.811 209.082C518.183 209.455 514.809 213.165 512.387 215.03C508.641 217.911 496.552 225.02 490.052 228.17C479.827 233.123 465.151 237.041 453.083 238.035C450.972 238.201 448.281 238.222 443.975 238.098C440.622 238.015 431.204 237.911 423.069 237.89C408.289 237.87 403.28 237.704 396.718 237.061C391.709 236.564 389.887 236.978 387.258 239.155C386.637 239.693 385.25 240.73 384.215 241.455C383.16 242.201 382.249 242.885 382.187 242.989C381.959 243.341 380.779 243.279 414.168 244.543C440.705 245.538 457.451 244.978 471.195 242.657C491.315 239.258 508.351 232.398 522.364 222.035C524.165 220.688 527.726 217.766 535.654 211.03C537.641 209.331 539.4 207.963 539.545 207.963C540.953 207.963 536.73 211.839 525.428 220.937C514.54 229.704 504.149 235.403 491.067 239.776C477.778 244.232 460.286 247.3 443.354 248.17C435.343 248.585 427.498 248.439 406.923 247.569C389.618 246.823 389.038 246.761 383.139 245.662C381.4 245.351 379.351 245.683 377.426 246.616C375.853 247.382 371.423 250.636 371.506 250.968C371.589 251.217 382.58 252.73 388.604 253.331C395.766 254.056 398.705 254.201 408.061 254.325C421.64 254.491 430.417 254.097 447.701 252.522C452.648 252.066 458.341 251.548 460.328 251.382C469.788 250.553 478.109 249.02 487.341 246.367C505.805 241.103 523.172 233.082 537.744 223.134C541.843 220.315 546.376 216.896 548.57 214.947C549.688 213.953 553.186 210.678 556.332 207.673C561.756 202.512 565.771 198.844 565.999 198.844C566.496 198.844 564.488 201.289 561.073 204.854C551.923 214.367 540.414 223.424 525.531 232.771C510.4 242.284 495.082 248.294 476.163 252.087C468.111 253.704 461.901 254.45 450.496 255.217C446.956 255.445 440.87 255.88 436.937 256.191C430.645 256.709 428.761 256.771 421.102 256.771C412.243 256.75 408.951 256.626 394.503 255.714C382.518 254.968 379.185 254.636 373.617 253.641C369.208 252.833 368.484 252.999 365.4 255.465C364.489 256.191 362.046 258.035 359.976 259.569C357.927 261.103 356.23 262.429 356.209 262.491C356.209 262.574 359.355 262.678 363.185 262.74C367.511 262.802 373.058 263.051 377.737 263.382C381.897 263.673 387.859 264.108 390.984 264.336C408.144 265.559 420.709 265.434 434.66 263.901C438.987 263.445 465.648 259.693 471.506 258.74C481.773 257.061 492.764 254.139 507.937 249.061C523.13 243.984 527.87 242.077 537.537 237.248C544.968 233.538 556.25 227.507 558.961 225.807C568.773 219.611 577.756 210.968 586.367 199.466C588.023 197.227 590.259 194.139 591.335 192.564C592.639 190.657 593.405 189.725 593.654 189.725C594.006 189.725 594.006 189.828 593.509 191.196C591.832 195.859 586.202 204.253 580.882 210.035C572.085 219.59 562.273 226.595 546.231 234.678C528.574 243.59 510.131 250.947 489.928 257.165C479.558 260.356 468.463 262.616 451.841 264.937C433.149 267.548 415.824 268.211 393.882 267.134C384.526 266.678 364.592 265.621 358.9 265.268C356.23 265.103 353.746 264.957 353.394 264.957C352.897 264.957 351.572 265.745 347.701 268.398C344.928 270.305 342.464 272.025 342.257 272.232C341.864 272.584 341.864 272.605 342.361 272.709C342.63 272.771 347.557 273.185 353.311 273.662C359.066 274.118 365.068 274.615 366.662 274.74C370.14 275.071 416.631 275.009 424.621 274.698C438.469 274.139 461.632 271.445 476.246 268.688C489.307 266.222 503.404 262.533 516.941 258.015C546.107 248.315 568.959 235.921 587.113 220.004C592.66 215.155 600.05 207.445 603.879 202.574C604.811 201.372 607.398 197.87 609.592 194.802C616.423 185.31 617.024 184.585 617.024 185.766C617.024 186.326 615.699 189.414 614.291 192.191C608.226 203.984 599.657 213.517 584.442 225.372C566.682 239.196 548.177 249.123 522.634 258.47C500.381 266.616 480.531 271.279 452.772 274.885C428.657 278.014 423.71 278.346 402.266 278.139C381.048 277.952 375.894 277.745 358.589 276.46C349.937 275.818 348.115 275.631 343.272 274.968C340.498 274.595 339.194 274.491 338.821 274.636C338.2 274.864 329.569 280.398 329.03 280.895C328.679 281.227 328.803 281.268 331.204 281.496C335.075 281.869 363.971 284.17 369.25 284.522C380.966 285.33 382.456 285.372 394.089 285.351C413.795 285.33 433.48 284.294 448.529 282.47C463.867 280.626 487.631 276.978 495.828 275.217C506.177 272.999 515.368 269.828 533.19 262.408C564.364 249.414 574.879 244.149 586.906 235.569C592.039 231.921 595.393 229.186 604.5 221.248C618.597 208.958 625.283 201.683 632.258 191.051C634.411 187.797 635.239 186.782 634.97 187.797C634.908 188.004 634.804 188.44 634.722 188.771C634.494 189.787 627.228 200.916 624.31 204.73C621.101 208.896 616.258 213.704 609.344 219.59C607.688 220.999 605.101 223.217 603.59 224.481C585.126 240.211 576.535 245.869 558.133 254.491C536.192 264.771 527.291 268.46 512.905 273.248C496.366 278.781 487.713 280.481 454.946 284.647C432.28 287.527 426.753 287.921 403.611 288.398C391.46 288.626 381.98 288.46 374.218 287.859C372.106 287.693 364.758 287.134 357.865 286.615C337.165 285.04 333.771 284.729 329.569 283.9C325.925 283.196 325.781 283.196 325.118 283.527C323.793 284.191 315.431 289.496 315.431 289.662C315.431 289.89 315.783 289.952 320.833 290.657C325.305 291.279 333.15 291.817 357.865 293.248C385.871 294.843 394.483 295.216 404.356 295.216C415.348 295.216 418.908 294.988 437.455 293.123C471.795 289.683 484.815 287.652 497.484 283.776C499.409 283.196 522.53 274.864 533.294 270.885C560.762 260.75 565.544 258.45 584.939 246.015C594.275 240.046 611.414 228.377 615.864 224.978C624.641 218.263 632.155 209.662 638.137 199.466C638.986 198.036 640.104 196.212 640.642 195.424C641.718 193.808 646.065 188.315 646.583 187.901C646.997 187.59 647.452 187.569 647.452 187.88C647.452 188.15 642.215 197.932 639.752 202.263C637.806 205.662 634.722 210.346 633.066 212.419C628.346 218.326 622.178 224.066 614.271 229.952C605.515 236.502 584.484 249.849 572.83 256.294C556.022 265.579 549.17 268.356 510.317 281.558C489.825 288.543 486.326 289.289 452.772 293.952C427.788 297.434 423.565 297.786 406.819 297.807C400.672 297.807 392.475 297.683 388.604 297.538C363.951 296.626 357.679 296.315 345.652 295.507C327.995 294.325 324.104 293.931 315.659 292.439L311.663 291.735L309.035 293.123C301.293 297.185 300.92 297.413 301.521 297.786C301.686 297.89 315.845 300.398 323.193 301.621C335.882 303.734 347.991 305.082 361.694 305.89C380.179 306.968 406.116 307.071 417.687 306.097C427.705 305.268 441.657 303.776 448.736 302.76C464.261 300.564 476.95 297.869 493.24 293.268C498.746 291.714 519.715 285.455 525.324 283.672C533.232 281.165 544.472 276.978 552.441 273.559C578.957 262.18 608.951 244.232 631.927 226.035C640.166 219.507 646.355 212.916 655.111 201.331C659.106 196.025 662.004 192.44 662.294 192.44C662.79 192.398 662.77 192.833 662.169 194.471C661.693 195.756 660.782 197.289 658.298 200.958C652.006 210.284 648.756 214.429 643.581 219.714C637.081 226.367 632.486 230.015 620.273 238.18C593.799 255.901 575.128 266.222 550.578 276.667C531.99 284.584 509.779 292.273 491.667 297.061C476.598 301.061 454.594 305.102 435.695 307.32C416.321 309.62 394.276 310.76 384.774 309.952C383.243 309.828 377.467 309.579 371.941 309.413C351.572 308.792 343.893 307.921 313.257 302.678C305.329 301.31 305.164 301.289 301.231 299.983C299.409 299.382 298.374 299.134 298.002 299.216C297.153 299.444 287.052 305.62 287.135 305.869C287.259 306.242 297.298 309.434 301.19 310.325C312.657 312.978 322.469 314.636 333.025 315.734C335.24 315.962 339.629 316.481 342.754 316.874C358.631 318.864 363.123 319.051 385.457 318.553C419.322 317.828 423.834 317.372 456.912 311.486C471.795 308.833 486.368 306.014 493.447 304.418C514.229 299.734 538.572 291.092 566.206 278.595C585.933 269.683 605.038 258.698 619.301 248.108C627.001 242.367 631.223 238.699 639.069 230.968C642.484 227.59 645.982 224.17 646.831 223.383C651.281 219.279 655.856 214.657 659.375 210.761C664.032 205.6 673.037 195.072 677.052 190.077C679.184 187.403 679.93 186.616 680.302 186.616C680.778 186.616 680.758 186.657 679.867 188.419C678.46 191.238 669.29 203.818 664.219 209.932C661.486 213.227 656.249 218.616 653.662 220.833C650.495 223.528 647.618 226.222 642.174 231.611C636.026 237.683 634.742 238.864 631.265 241.787C626.173 246.056 621.06 249.807 613.919 254.491C589.203 270.761 568.131 281.165 530.479 295.631C511.559 302.926 495.765 307.424 474.611 311.569C462.232 313.993 432.652 318.553 423.483 319.444C421.144 319.672 416.072 320.17 412.201 320.543L405.163 321.227H391.605C379.165 321.206 372.52 321.082 356.83 320.501C348.095 320.17 345.218 319.942 339.753 319.154C336.958 318.76 332.715 318.242 330.293 318.014C320.937 317.102 309.718 315.341 301.976 313.538C296.387 312.232 289.329 309.745 287.135 308.294C285.396 307.133 283.988 307.237 281.691 308.688C280.945 309.144 279.476 309.973 278.42 310.491C277.385 311.03 276.536 311.569 276.578 311.672C276.681 312.004 282.436 314.429 285.499 315.444C290.281 317.019 300.051 319.755 307.151 321.517C324.787 325.869 336.71 327.61 360.556 329.31C364.592 329.579 370.181 329.973 372.976 330.18C380.2 330.677 395.269 330.677 401.127 330.18C428.533 327.817 450.93 324.232 473.679 318.553C488.624 314.823 497.421 312.253 519.011 305.268C525.842 303.051 533.149 300.729 535.24 300.066C543.457 297.517 550.102 294.864 560.721 289.828C568.752 286.035 597.131 271.776 600.36 269.932C613.546 262.367 627.705 250.678 645.692 232.564C657.864 220.294 668.938 207.134 680.778 190.865C688.727 179.922 690.548 176.626 691.439 171.59C691.956 168.523 691.728 162.492 691.045 161.165C690.383 159.88 688.748 158.865 686.512 158.305C685.808 158.139 683.676 157.476 681.793 156.875C677.963 155.611 669.104 153.248 668.483 153.31C668.255 153.331 668.048 153.455 668.007 153.58ZM664.57 156.854C664.198 156.999 662.894 158.015 661.652 159.093C660.265 160.315 657.533 162.305 654.573 164.253C651.923 166.015 649.729 167.507 649.729 167.59C649.729 167.839 660.596 167.777 663.887 167.528C671.132 166.968 677.777 165.269 682.952 162.616C685.125 161.518 685.125 161.497 683.945 160.751C681.42 159.134 678.439 158.139 674.879 157.766C672.933 157.58 665.461 156.647 665.295 156.585C665.274 156.564 664.943 156.689 664.57 156.854ZM578.874 283.548C579.019 283.59 579.268 283.59 579.392 283.548C579.537 283.486 579.433 283.444 579.143 283.444C578.854 283.444 578.75 283.486 578.874 283.548ZM573.161 286.45C568.628 289.04 564.115 291.113 548.363 297.807C538.117 302.18 536.337 302.843 531.1 304.418C517.583 308.46 497.773 314.201 489.204 316.563C459.5 324.75 429.858 330.221 405.474 332.004C390.632 333.082 379.579 332.957 359.107 331.486C355.981 331.258 351.138 330.926 348.343 330.76C329.569 329.558 317.646 327.196 291.419 319.424C287.942 318.387 284.444 317.372 283.657 317.144C281.815 316.605 279.745 315.672 277.282 314.201C276.205 313.579 275.108 312.999 274.839 312.937C274.466 312.854 273.307 313.351 270.306 314.843C266.497 316.771 263.91 317.786 259.231 319.175C257.741 319.61 257.451 319.776 257.782 319.9C258.528 320.232 275.17 324.605 283.657 326.719C315.928 334.719 337.145 337.579 361.384 337.227C377.281 336.999 413.568 335.113 424.932 333.952C440.415 332.356 466.579 327.548 483.511 323.175C506.446 317.268 527.87 310.159 545.403 302.678C550.661 300.439 557.554 296.667 571.588 288.336C577.011 285.102 578.108 284.377 578.108 283.963C578.108 283.672 577.653 283.9 573.161 286.45Z" fill="white"/>
<path d="M605.783 155.185C607.103 155.976 602.586 156.311 587.326 156.548C563.652 156.924 562.683 156.983 554.331 158.445C552.846 158.702 551.279 158.939 550.825 158.978C550.082 159.038 550 158.998 550 158.564C550 157.734 552.042 157.24 558.764 156.469C567.137 155.521 568.56 155.403 574.664 155.185C581.758 154.948 605.37 154.928 605.783 155.185Z" fill="white"/>
<path d="M544.904 160.094C545.235 160.216 544.75 160.44 542.808 161.029C533.543 163.833 525.203 167.593 519.247 171.616C518.078 172.429 517.063 173.039 517.019 172.998C516.82 172.815 518.232 171.413 519.843 170.234C524.564 166.78 534.182 162.228 540.161 160.663C542.301 160.094 544.264 159.85 544.904 160.094Z" fill="white"/>
<path d="M487.187 193.288C487.689 193.452 488.272 193.779 488.472 194.004C488.834 194.412 488.834 194.433 488.372 194.923C488.111 195.21 487.93 195.455 487.99 195.496C488.031 195.537 488.794 195.966 489.678 196.436C492.188 197.785 492.389 198.132 491.566 199.522C490.903 200.626 487.388 204.06 486.163 204.775C482.788 206.778 479.253 206.308 476.461 203.487C474.493 201.505 474.513 200.34 476.522 198.418C478.53 196.497 480.92 195.659 484.797 195.496C488.171 195.353 488.452 195.046 485.701 194.556C483.31 194.106 482.587 194.126 480.74 194.617C478.831 195.128 478.59 195.128 478.952 194.699C479.354 194.208 480.92 193.472 482.105 193.207C483.531 192.9 486.062 192.941 487.187 193.288ZM484.757 198.602C484.757 199.236 485.56 200.953 485.861 200.953C486.363 200.953 486.564 200.401 486.564 199.011C486.564 198.194 486.504 197.499 486.444 197.417C486.363 197.356 485.962 197.478 485.54 197.703C484.957 197.989 484.757 198.235 484.757 198.602ZM477.847 199.522C476.903 200.258 476.16 200.932 476.2 201.055C476.26 201.321 479.735 202.813 479.956 202.67C480.057 202.608 480.137 201.546 480.137 200.319C480.137 198.418 480.097 198.071 479.836 198.132C479.675 198.173 478.771 198.786 477.847 199.522Z" fill="white"/>
<path d="M31.43 216.739C35.2249 218.978 43.9968 223.394 50.2802 226.249C56.5221 229.063 61.3331 231.076 78.9805 238.245C82.174 239.559 87.068 241.593 89.8676 242.763C105.462 249.357 116.785 252.848 147.6 260.51C152.95 261.824 157.181 262.954 156.994 262.995C156.559 263.077 150.607 262.112 143.971 260.859C107.66 253.999 73.9413 241.695 43.0843 224.052C37.0705 220.601 29.5636 216 30.0198 216C30.1443 216.021 30.7664 216.329 31.43 216.739Z" fill="white"/>
<path d="M488.896 204.554C488.19 206.348 485.474 207.819 482.608 207.971C481.667 208.01 480.94 208.01 481.004 207.971C481.261 207.742 488.703 204 488.896 204C489.045 204 489.024 204.191 488.896 204.554Z" fill="white"/>
<path d="M237.989 235.151C237.744 235.243 236.301 235.462 234.769 235.645C231.771 236.011 225.219 236.121 222.488 235.847C221.222 235.718 221 235.627 221 235.334C221 235.005 221.267 234.987 229.705 235.005C234.502 235.005 238.233 235.078 237.989 235.151Z" fill="white"/>
<path d="M106.811 257.298C107.203 257.467 110.365 258.798 113.838 260.235C117.31 261.672 121.402 263.363 122.932 263.997C124.461 264.631 128.182 266.174 131.199 267.421C137.317 269.957 137.71 270.148 136.367 269.936C133.99 269.577 125.743 266.512 117.145 262.793C113.796 261.334 107.121 257.995 106.397 257.403C105.777 256.896 105.86 256.875 106.811 257.298Z" fill="white"/>
<path d="M233.996 241.257C233.854 241.826 232.392 242 227.338 242C222.283 242 219.705 241.763 218.142 241.241C217.573 241.036 218.446 241.02 225.775 241.004C233.489 240.989 234.057 241.004 233.996 241.257Z" fill="white"/>
<path d="M279 253.246C279 253.551 279.021 253.53 269.408 259.027C256.805 266.247 253.01 268.559 237.045 278.822C228.773 284.135 225.287 286.224 225.019 285.981C224.73 285.697 227.597 283.73 244.243 272.818C269.573 256.228 271.224 255.234 276.71 253.47C278.402 252.922 279 252.861 279 253.246Z" fill="white"/>
<path d="M123.252 274.17C127.631 276.62 130 278.183 130 278.673C130 278.86 129.894 279 129.767 279C129.302 279 119 272.583 119 272.303C119 272.14 119.085 272 119.19 272C119.296 272 121.115 272.98 123.252 274.17Z" fill="white"/>
<path d="M211.976 294.201C212.208 294.504 210.733 295.393 208.457 296.35C205.507 297.575 203 298.28 203 297.894C203 297.777 211.407 294 211.681 294C211.765 294 211.892 294.084 211.976 294.201Z" fill="white"/>
<path d="M586.213 164.366C586.693 164.57 587.053 164.774 586.993 164.83C586.793 165.015 582.932 166.036 582.632 165.999C582.411 165.943 582.452 165.813 582.872 165.424C583.192 165.145 583.432 164.885 583.432 164.848C583.432 164.811 582.952 164.904 582.371 165.052C580.851 165.424 580.591 165.275 581.611 164.644C582.792 163.902 584.873 163.79 586.213 164.366Z" fill="white"/>
<path d="M591.957 165.251C592.024 165.438 592.008 165.719 591.94 165.875C591.756 166.188 586.654 169 586.269 169C586.117 169 586 168.75 586 168.406C586 167.938 586.436 167.625 588.635 166.5C590.095 165.782 591.403 165.094 591.555 165.032C591.706 164.938 591.89 165.063 591.957 165.251Z" fill="white"/>
</svg>
