<svg width="1044" height="390" viewBox="0 0 1044 390" fill="none" xmlns="http://www.w3.org/2000/svg">
<path d="M929.373 0.358984C923.776 1.9587 920.249 3.65253 914.088 7.72239C900.026 16.9913 888.268 30.5183 880.696 46.092C877.851 51.9498 876.581 55.2198 872.419 67.5C869.973 74.6987 868.468 78.7921 867.198 81.7328C866.117 84.25 861.531 92.0368 860.52 93.0484C859.697 93.8953 858.639 94.107 848.645 95.6127C835.547 97.5888 832.96 98.0828 822.425 100.647C816.335 102.129 803.543 105.376 799.216 106.575C782.214 111.186 769.022 114.927 754.537 119.256C740.38 123.467 728.623 126.948 719.499 129.56C698.547 135.606 690.458 137.535 677.289 139.581C668.706 140.922 660.029 142.287 654.267 143.228C650.505 143.839 649.165 143.957 648.553 143.792C647.965 143.628 646.343 142.24 642.769 138.805C636.584 132.877 635.361 131.818 633.433 130.806C630.047 129.018 627.507 128.854 622.287 130.077C618.477 130.971 614.95 132.147 607.143 135.112C594.021 140.122 590.259 140.946 576.761 141.722C574.363 141.863 571 142.146 569.283 142.334C567.543 142.522 564.839 142.663 563.24 142.663C560.535 142.663 550.965 141.934 543.134 141.134C538.055 140.616 513.787 138.287 505.157 137.488C485.522 135.7 465.04 134.617 435.669 133.841C406.722 133.088 398.868 132.947 380.879 132.924C362.349 132.9 359.926 132.971 345.37 133.841C342.337 134.029 336.364 134.406 332.084 134.665C327.828 134.923 320.679 135.3 316.212 135.488C311.744 135.7 305.771 136.005 302.925 136.194C294.131 136.782 287.17 136.994 283.055 136.782C273.39 136.264 267.018 135.817 265.301 135.511C261.703 134.853 249.499 131.842 232.497 127.372C227.136 125.96 221.774 124.596 220.598 124.337C217.024 123.537 213.05 123.114 209.099 123.114C202.797 123.09 199.67 123.702 192.168 126.384C189.464 127.348 186.078 128.501 184.643 128.948C175.425 131.818 164.514 133.065 155.484 132.241C149.7 131.747 146.031 132.218 141.516 134.1C140.411 134.547 139.024 135.088 138.436 135.253C136.837 135.723 127.807 136.123 115.979 136.217C110.17 136.264 104.668 136.405 103.751 136.547C102.857 136.688 100.811 137.229 99.2359 137.723C94.3212 139.323 92.8397 139.487 84.1155 139.417C73.0634 139.346 69.5361 139.793 63.8924 141.957C59.9653 143.463 57.99 143.839 52.9578 144.075C48.7956 144.239 48.6074 144.286 42.3759 145.816C29.513 149.015 22.3879 151.015 20.6478 151.909C18.4843 153.014 18.0376 154.826 18.9547 158.472C19.8953 162.166 21.2121 164.236 25.7741 169.388C27.2556 171.035 28.3608 172.423 28.2432 172.47C28.1256 172.493 26.8793 172.752 25.4449 172.987C18.6725 174.187 8.39629 176.304 7.29107 176.728C4.84548 177.645 2.07067 180.045 1.01248 182.138C-0.0692189 184.279 -0.351402 191.619 0.495149 195.595C1.76498 201.453 5.9507 210.439 10.7478 217.591C13.9694 222.39 23.1404 233.941 35.6505 248.997C49.3364 265.441 62.4344 277.886 79.7652 290.896C86.7963 296.165 91.5464 299.506 110.97 312.751C128.63 324.819 127.196 323.878 139.377 331.288C152.921 339.546 167.078 346.98 177.589 351.379C196.965 359.495 202.915 361.142 269.298 376.739C286.182 380.691 303.137 383.444 323.149 385.42C340.832 387.184 353.131 387.678 364.535 387.09C390.402 385.749 419.585 383.867 426.616 383.067C437.433 381.844 449.802 379.562 462.594 376.386C478.35 372.481 486.204 369.94 494.81 366.012L498.338 364.388H500.571C502.711 364.388 502.876 364.435 504.452 365.282C505.369 365.753 507.109 367.07 508.332 368.176C513.622 372.928 517.455 374.74 522.746 374.998C524.251 375.069 525.662 375.304 526.556 375.61C527.943 376.08 531.494 377.962 533.893 379.492C536.268 380.997 540.477 383.02 543.017 383.844C546.591 385.044 548.801 385.302 553.128 385.114C558.325 384.879 561.076 385.279 567.825 387.231C573.728 388.949 580.312 389.655 586.073 389.208C597.807 388.314 614.386 383.561 625.673 377.915C634.091 373.681 640.535 368.435 642.51 364.153C643.568 361.895 642.957 359.001 641.075 357.566C639.453 356.343 632.986 354.108 627.154 352.767C623.745 351.991 623.604 351.944 604.039 344.133C581.746 335.264 580.97 334.935 575.656 332.135C573.516 331.006 572.34 330.253 572.481 330.112C572.599 329.995 578.148 327.807 584.803 325.242C599.007 319.761 603.357 318.02 610.035 315.15C640.229 302.235 671.434 285.438 708.094 262.407C718.935 255.608 718.77 255.725 734.549 243.798C736.689 242.198 739.91 239.869 741.721 238.67C757.946 227.754 773.302 216.109 792.514 200.088C798.44 195.148 801.897 192.207 814.736 181.244C831.15 167.176 838.063 161.624 848.01 154.52C854.171 150.097 864 143.698 865.858 142.898C867.245 142.287 872.489 141.863 876.346 142.051C883.001 142.357 889.35 143.651 899.626 146.757C908.327 149.391 917.098 152.379 924.552 155.249C940.237 161.272 950.325 164.071 963.211 165.953C974.428 167.6 987.785 167.812 998.743 166.518C1014.92 164.612 1025.57 161.319 1034.7 155.367C1036.09 154.449 1038.77 152.802 1040.62 151.697C1043.45 150.027 1044.01 149.603 1044.01 149.156C1044.01 148.85 1043.87 148.497 1043.73 148.356C1043.33 148.05 1040.08 147.062 1037.85 146.568C1035.71 146.098 1029.95 143.298 1026.07 140.852C1021.01 137.629 1018.64 135.676 1009.32 127.019C1007.77 125.584 1005.66 123.608 1004.62 122.643C1003.59 121.679 1000.2 118.691 997.097 115.962C991.336 110.951 986.844 106.575 981.836 101.188C974.804 93.613 969.067 90.1313 955.381 85.1674C953.429 84.4382 951.642 83.7559 951.407 83.6383C951.054 83.4501 951.007 83.0502 951.078 80.2742C951.172 76.7925 950.913 74.6987 950.066 71.3817C948.961 67.0765 948.514 65.9003 943.129 53.5025C929.349 21.6964 929.396 21.814 929.396 15.274C929.396 11.9569 929.467 11.2276 930.031 9.20448C930.361 7.93412 931.137 5.88742 931.748 4.61706C933.206 1.55878 933.3 1.15885 932.83 0.570716C932.242 -0.111515 931.231 -0.182097 929.373 0.358984ZM929.491 3.7231C929.491 3.79368 929.02 5.11109 928.432 6.68728C925.94 13.2979 925.422 18.8498 926.645 25.1781C927.257 28.4011 928.291 31.3888 930.055 35.0352C931.466 37.9523 932.336 39.5756 938.779 51.0323C944.846 61.8304 946.727 66.7472 947.245 73.3107C947.386 74.9104 947.339 75.381 947.127 75.381C946.962 75.381 945.998 74.8634 944.987 74.2047C941.977 72.2756 938.215 70.5818 937.815 70.9817C937.768 71.0288 939.555 72.3697 941.836 73.9459C945.481 76.4866 946.398 77.263 945.787 77.263C945.669 77.263 942.424 76.5807 938.567 75.7338C934.687 74.8869 931.466 74.2517 931.419 74.3223C930.995 74.7222 932.359 75.3104 938.285 77.2394C941.977 78.4392 945.081 79.5214 945.152 79.6625C945.552 80.2742 944.47 80.2507 937.627 79.4743C933.653 79.0274 930.337 78.698 930.266 78.7686C930.196 78.8392 930.196 79.0509 930.266 79.2156C930.361 79.4508 930.948 79.6155 932.007 79.7331C932.877 79.8272 935.416 80.3448 937.603 80.9094C944.611 82.6973 945.504 83.0737 944.775 83.9441C944.446 84.3676 944.046 84.1559 950.537 87.0259C966.927 94.2717 973.464 98.5063 984.516 108.904C987.221 111.469 1011.91 135.064 1015.67 138.687C1021.98 144.757 1023.86 146.286 1027.31 148.05C1029.83 149.321 1031.92 150.074 1034.23 150.497C1035.1 150.662 1035.8 150.897 1035.83 151.015C1035.87 151.344 1032.06 153.32 1029.22 154.426C1023.22 156.778 1013.46 159.319 1005.4 160.636C997.332 161.954 991.289 162.424 982.259 162.424C975.063 162.424 970.478 162.189 963.94 161.46C949.878 159.907 941.436 157.884 925.987 152.308C922.812 151.179 916.98 149.062 913.03 147.65C897.251 141.981 888.151 139.44 880.108 138.499C876.158 138.052 868.586 138.193 865.458 138.781C864.306 138.993 863.248 139.111 863.107 139.064C862.825 138.97 864.988 137.158 880.884 124.078C886.152 119.75 890.455 116.127 890.455 116.033C890.455 115.844 889.726 116.338 882.201 121.655C879.803 123.349 874.864 126.689 871.22 129.113C867.575 131.512 863.624 134.194 862.425 135.088C859.415 137.346 855.206 140.993 853.912 142.475L852.807 143.722L853.701 143.816C854.195 143.839 855.629 143.769 856.899 143.604C858.169 143.439 859.274 143.369 859.344 143.439C859.415 143.534 859.18 143.745 858.804 143.957C845.729 151.132 838.486 156.049 826.423 165.953C809.68 179.739 801.191 186.82 791.103 195.477C779.345 205.546 774.219 209.828 767.94 214.909C739.605 237.823 711.033 257.513 679.993 275.51C647.377 294.424 617.466 308.728 585.415 320.726C577.866 323.549 576.009 324.301 571.517 326.254C569.871 326.983 568.225 327.571 567.896 327.571C567.331 327.571 559.524 323.313 559.219 322.843C559.172 322.749 559.501 322.584 559.995 322.514C572.505 320.349 592.728 313.95 607.919 307.34C612.457 305.364 617.137 302.917 616.455 302.87C616.196 302.87 613.116 304.117 608.624 306.046C595.291 311.762 583.816 315.244 566.414 318.797C557.29 320.655 555.55 320.773 553.481 319.761C552.211 319.126 548.543 316.538 548.543 316.256C548.543 316.185 550.001 315.973 551.788 315.832C559.924 315.103 569.213 313.339 580.406 310.375C585.485 309.034 599.618 305.011 599.759 304.87C599.994 304.658 599.5 304.281 598.959 304.281C598.654 304.281 592.493 305.599 585.274 307.199C561.288 312.562 558.772 313.033 549.648 313.833L545.015 314.233L543.769 313.456C543.111 313.033 541.347 311.857 539.889 310.821C537.984 309.457 537.302 308.869 537.538 308.728C537.702 308.61 538.831 308.516 540.03 308.516C548.096 308.516 563.992 306.14 580.641 302.494C589.836 300.47 601.099 297.224 600.582 296.753C600.488 296.636 592.046 298.283 581.817 300.4C571.611 302.517 561.382 304.517 559.125 304.846C552.07 305.858 540.054 306.775 536.056 306.61C533.705 306.493 532.905 306.14 529.707 303.693L527.567 302.047L533.987 301.905C543.793 301.67 551.553 300.894 565.121 298.753C568.883 298.165 574.48 297.294 577.584 296.824C581.276 296.283 583.345 295.859 583.58 295.624C583.886 295.318 583.698 295.295 581.817 295.436C580.665 295.53 575.938 296.071 571.353 296.636C563.404 297.624 557.878 298.188 548.425 299.012C543.863 299.412 526.274 299.741 524.463 299.482C523.381 299.318 520.442 297.53 518.443 295.859L517.62 295.154L525.615 295.271C538.078 295.483 549.601 294.707 563.757 292.754C565.615 292.495 567.167 292.284 567.237 292.284C567.308 292.284 567.355 292.119 567.355 291.907C567.355 291.554 567.096 291.531 565.191 291.648C557.526 292.166 539.771 292.566 527.261 292.472L513.622 292.378L512.329 291.766C511.624 291.437 509.978 290.472 508.708 289.625L506.38 288.096L508.825 287.955C510.166 287.884 515.457 287.72 520.559 287.579C536.879 287.155 547.978 286.614 557.479 285.791C561.664 285.438 568.131 284.756 568.248 284.661C568.343 284.567 548.872 284.285 541.982 284.285C534.269 284.285 527.496 284.003 519.219 283.344C515.88 283.085 510.189 282.756 506.568 282.638C497.068 282.332 496.762 282.238 488.226 276.875C485.381 275.11 483.006 273.605 482.958 273.558C482.582 273.205 484.064 273.369 491.306 274.522C495.821 275.251 500.477 275.981 501.653 276.169C504.969 276.686 513.246 277.698 514.281 277.698C514.869 277.698 515.151 277.604 515.104 277.416C515.033 277.251 512.47 276.686 508.778 276.028C494.081 273.416 478.444 270.146 475.998 269.182C474.14 268.453 469.531 265.841 469.531 265.512C469.531 265.371 469.625 265.23 469.743 265.23C469.86 265.23 477.903 266.5 487.615 268.053C497.326 269.605 505.486 270.876 505.745 270.876C506.591 270.876 506.262 270.193 505.275 269.935C504.757 269.817 503.934 269.605 503.464 269.464C502.97 269.347 496.903 268.194 489.99 266.9C471.342 263.418 464.946 262.077 462.923 261.301C460.407 260.313 456.833 258.313 457.421 258.219C457.68 258.196 461.019 258.69 464.828 259.348C478.632 261.724 484.205 262.43 489.049 262.383L491.753 262.36L486.345 261.23C483.382 260.619 475.034 258.901 467.838 257.443C458.385 255.537 454.717 254.714 454.717 254.479C454.717 254.079 454.434 254.055 460.313 254.996C471.836 256.831 475.951 257.302 482.723 257.607C485.24 257.725 486.439 257.678 486.556 257.513C486.627 257.372 486.603 257.207 486.486 257.113C486.368 257.043 483.57 256.525 480.301 255.937C450.084 250.667 440.466 248.527 426.31 243.939C411.942 239.281 399.174 235.494 395.011 234.647C391.625 233.965 382.736 232.624 382.125 232.718C381.302 232.835 381.49 233.4 382.454 233.917C382.948 234.153 386.734 235.164 390.896 236.152C401.948 238.787 407.145 240.458 418.15 244.88C431.507 250.268 439.291 254.408 472.941 274.052C505.627 293.131 524.557 304.517 545.486 317.62C566.085 330.512 570.106 332.888 579.113 337.64C585.861 341.193 596.185 345.804 604.744 349.097C610.2 351.191 621.652 355.002 627.084 356.507C632.892 358.131 634.867 358.766 636.89 359.683C639.617 360.93 639.617 361.448 636.96 364.318C634.656 366.835 632.422 368.247 625.061 371.846C620.852 373.893 617.889 375.516 616.196 376.669C613.233 378.739 610.576 380.033 607.66 380.833C603.78 381.938 583.722 384.667 577.937 384.902C573.986 385.044 571.541 384.761 564.886 383.326C562.558 382.832 559.172 382.197 557.361 381.915C548.002 380.503 538.901 377.868 526.673 373.069C520.795 370.74 517.385 369.023 512.329 365.8C506.897 362.342 505.627 361.801 495.727 358.625C492.129 357.496 487.85 355.472 483.523 352.861C479.455 350.414 473.411 347.309 468.355 345.098C453.705 338.652 442.559 332.3 428.262 322.278C425.158 320.114 415.752 313.762 407.333 308.163C383.724 292.472 382.266 291.437 369.803 281.556C366.229 278.71 360.35 274.075 356.752 271.229C341.585 259.254 332.578 251.938 329.427 248.974C322.96 242.928 322.208 242.363 321.267 242.739C320.491 243.022 320.891 244.151 322.655 246.527C323.619 247.821 324.324 248.974 324.207 249.068C323.925 249.374 282.067 249.115 278.822 248.785C269.604 247.868 263.02 246.668 255.707 244.551C254.39 244.151 250.345 243.092 246.724 242.175C239.034 240.199 238.023 239.893 235.178 238.552C228.17 235.235 223.02 229.754 218.129 220.414C217.189 218.603 215.707 215.944 214.861 214.533C209.664 205.922 208.982 204.934 208.559 205.358C208.488 205.428 209.57 207.804 210.981 210.651C212.392 213.498 213.497 215.874 213.426 215.944C213.356 215.991 211.663 213.968 209.664 211.404C202.186 201.806 199.199 198.865 192.639 194.513C183.374 188.396 168.841 183.291 154.074 180.986C150.97 180.515 149.653 180.468 131.616 180.28C121.082 180.186 111.135 179.998 109.512 179.857C107.89 179.715 104.245 179.386 101.399 179.151C93.7568 178.469 92.6046 178.421 76.4731 178.069C61.1646 177.716 59.8713 177.622 54.9566 176.516C50.23 175.434 43.7163 172.94 40.0244 170.752C38.2842 169.717 38.2607 169.717 45.3859 171.317C60.0829 174.657 70.5472 176.022 82.4695 176.234C90.3471 176.351 93.5922 176.163 93.7098 175.575C93.8038 175.01 92.0872 174.752 84.2331 174.069C61.9641 172.164 55.1447 171.552 53.6632 171.34C46.5851 170.282 34.9686 165.788 26.5031 160.848C23.1639 158.896 22.2703 158.025 22.2703 156.731C22.2703 155.179 23.6342 153.955 26.7617 152.708C29.3249 151.673 31.3237 151.344 35.7916 151.132C40.8474 150.897 42.3759 150.544 46.9379 148.568C51.4528 146.639 52.7932 146.333 56.2499 146.427C63.3515 146.615 64.3157 146.474 68.1487 144.686C74.2391 141.84 79.0362 141.369 85.2678 143.063C87.102 143.557 88.0661 143.675 90.3471 143.675C93.6392 143.675 95.0031 143.416 100.224 141.722C102.269 141.063 105.444 140.122 107.255 139.652C110.476 138.805 110.688 138.781 114.685 138.781C118.683 138.781 118.942 138.828 121.975 139.605C125.056 140.405 125.267 140.428 129.5 140.405L133.85 140.381L139.024 139.064C147.724 136.852 153.533 136.029 163.409 135.606C176.225 135.064 177.166 134.9 191.792 130.642C204.49 126.925 208.135 126.195 213.591 126.195C220.575 126.219 225.325 127.348 235.601 131.465C246.254 135.747 255.965 138.382 266.876 139.958C280.116 141.863 290.204 142.051 308.404 140.781C311.979 140.546 317.928 140.216 321.62 140.075C328.651 139.817 336.505 139.346 343.607 138.781C349.721 138.287 362.96 137.299 367.475 136.994C373.706 136.594 395.293 136.452 405.334 136.758C415.587 137.064 423.347 137.417 441.901 138.429C449.026 138.805 456.857 139.228 459.302 139.37C492.6 141.134 505.228 142.146 537.843 145.604C561.335 148.097 572.411 148.921 596.749 150.003C600.441 150.168 610.129 150.309 618.383 150.309C634.421 150.309 636.678 150.191 647.425 148.874C657.748 147.603 675.29 144.686 685.402 142.545C708.306 137.723 731.539 130.971 781.109 114.762C804.601 107.069 808.01 105.987 812.737 104.693C818.898 103 826.658 101.376 836.487 99.7531C841.708 98.8591 842.884 98.6945 862.002 96.0832C881.543 93.4013 888.151 92.3662 892.666 91.3781C896.663 90.4842 897.557 90.1783 897.204 89.8254C897.086 89.6843 894.312 90.0136 874.23 92.4367C869.527 93.0013 865.623 93.4483 865.599 93.4013C865.529 93.3542 872.395 73.1931 874.465 67.4059C879.826 52.3027 883.894 44.2335 890.925 34.7999C894.147 30.4478 897.039 27.1307 901.249 22.9197C908.915 15.2505 915.875 10.2161 925.093 5.60512C928.785 3.77015 929.491 3.46433 929.491 3.7231ZM633.01 133.982C634.679 134.406 636.067 135.653 639.711 140.028C641.687 142.381 643.309 144.428 643.309 144.522C643.309 145.298 613.351 145.792 600.394 145.251C594.021 144.969 584.733 144.38 584.592 144.216C584.474 144.098 584.991 143.933 594.515 141.04C605.944 137.582 611.963 136.1 620.264 134.782C628.283 133.512 630.658 133.371 633.01 133.982ZM34.851 172.187C37.8139 173.834 41.9526 175.457 47.0789 177.01C49.2894 177.669 52.8167 178.751 54.9566 179.41C61.4468 181.386 65.5385 182.162 71.77 182.656C73.8864 182.797 84.3507 182.868 100.929 182.844C131.264 182.774 138.577 183.032 149.206 184.444C166.842 186.796 181.822 192.301 194.99 201.264C199.388 204.252 200.869 205.499 205.196 209.781C208.982 213.521 209.875 214.533 209.617 214.791C209.546 214.862 204.843 211.992 199.129 208.44C193.415 204.864 188.688 201.947 188.618 201.947C188.547 201.947 189.088 202.699 189.793 203.641C191.722 206.111 191.651 206.158 188.453 204.676C185.443 203.288 183.938 202.229 180.881 199.335C179.47 197.971 177.965 196.654 177.542 196.348C176.813 195.83 176.06 195.665 176.06 195.995C176.06 196.112 177.283 197.547 178.765 199.218C180.246 200.912 181.469 202.347 181.469 202.464C181.469 203.241 178.647 201.688 176.625 199.806C175.614 198.841 174.297 197.736 173.709 197.336C172.58 196.583 171.357 195.995 171.216 196.136C171.169 196.183 172.133 197.101 173.356 198.183C174.602 199.265 175.567 200.253 175.52 200.394C175.378 200.817 173.638 200.653 172.063 200.065C171.263 199.759 168.818 198.324 166.607 196.842C164.42 195.383 162.445 194.183 162.233 194.183C161.763 194.183 161.81 194.23 164.655 196.536C165.831 197.477 166.819 198.347 166.866 198.465C166.983 198.794 164.891 198.441 163.245 197.853C162.469 197.571 159.835 196.207 157.366 194.819C154.473 193.172 152.851 192.372 152.686 192.537C152.404 192.819 152.192 192.607 155.014 194.536C156.308 195.43 157.483 196.254 157.601 196.371C158.024 196.771 154.403 196.371 152.898 195.83C152.122 195.571 150.005 194.724 148.195 193.972C144.174 192.278 143.844 192.16 143.844 192.584C143.844 192.772 144.526 193.313 145.373 193.783C147.583 195.054 147.466 195.313 144.903 194.889C144.127 194.748 134.862 194.277 124.327 193.83C98.3658 192.725 76.9904 191.643 70.0534 191.125C64.4803 190.702 61.9406 189.949 55.3799 186.891C44.9626 181.997 38.4724 177.904 34.028 173.387C32.9227 172.258 32.0056 171.246 31.9586 171.129C31.794 170.635 32.5935 170.94 34.851 172.187ZM30.6653 174.328C30.7123 174.469 30.195 174.752 29.513 174.94C28.8311 175.151 25.6095 176.116 22.3644 177.104C19.1193 178.092 15.0041 179.268 13.2169 179.715C8.37277 180.962 7.69083 181.409 7.69083 183.244C7.69083 185.173 10.5362 187.855 14.04 189.22C16.2974 190.09 18.9547 190.608 28.2667 191.925C50.0654 195.007 48.4428 194.842 60.7178 195.101C79.4595 195.501 85.9733 195.76 115.626 197.242C153.039 199.124 158.8 199.571 167.007 201.147C179.447 203.546 192.474 208.393 202.327 214.297C207.994 217.662 215.448 224.578 217.236 228.083C220.434 234.435 226.03 239.799 232.803 243.022C239.105 245.986 249.193 248.127 262.832 249.35C276.941 250.597 308.593 251.891 316.964 251.538C325.453 251.162 325.876 251.185 326.77 251.679C327.217 251.914 328.416 252.949 329.404 253.961L331.238 255.796L330.25 255.937C329.145 256.078 308.381 257.325 300.95 257.702C294.766 258.007 282.208 258.007 277.599 257.702C262.879 256.713 249.405 253.914 236.73 249.232C233.085 247.891 231.18 247.021 223.42 243.257C219.775 241.493 216.671 240.058 216.483 240.058C215.119 240.105 226.03 246.504 232.45 249.444C244.702 255.067 254.601 257.396 272.826 259.019C277.082 259.372 321.197 259.983 324.677 259.701C325.641 259.631 328.063 259.348 330.015 259.066L333.613 258.572L334.436 259.16C334.883 259.466 336.764 261.113 338.598 262.783L341.937 265.818L339.492 265.888C338.128 265.912 331.943 266.265 325.735 266.641C305.277 267.911 302.526 268.053 295.283 268.217C287.899 268.358 282.773 268.123 277.764 267.441C270.78 266.5 250.839 262.712 244.255 261.089C238.164 259.584 231.58 256.737 224.737 252.644C221.657 250.785 209.922 243.045 203.855 238.858C202.539 237.917 201.363 237.235 201.292 237.329C200.869 237.752 204.702 241.963 207.453 244.08C211.71 247.35 225.442 255.42 232.826 258.995C244.443 264.618 261.115 269.064 274.825 270.193C277.223 270.382 280.28 270.405 285.171 270.264C288.981 270.17 299.68 270.052 308.922 270.029C325.712 270.005 331.402 269.817 338.857 269.088C344.547 268.523 346.617 268.994 349.603 271.464C350.309 272.075 351.884 273.252 353.06 274.075C354.259 274.922 355.294 275.698 355.364 275.816C355.623 276.216 356.964 276.145 319.033 277.58C288.887 278.71 269.863 278.074 254.249 275.44C231.392 271.581 212.039 263.795 196.119 252.032C194.073 250.503 190.028 247.186 181.022 239.54C178.765 237.611 176.766 236.058 176.601 236.058C175.002 236.058 179.799 240.458 192.639 250.785C205.008 260.736 216.812 267.206 231.674 272.17C246.771 277.227 266.641 280.709 285.877 281.697C294.977 282.168 303.89 282.003 327.264 281.015C346.922 280.168 347.581 280.098 354.283 278.851C356.258 278.498 358.586 278.874 360.773 279.933C362.56 280.803 367.592 284.497 367.498 284.873C367.404 285.155 354.918 286.873 348.075 287.555C339.938 288.378 336.599 288.543 325.97 288.684C310.544 288.872 300.574 288.425 280.939 286.638C275.318 286.12 268.852 285.532 266.594 285.344C255.848 284.403 246.395 282.662 235.907 279.651C214.931 273.675 195.202 264.571 178.647 253.279C173.991 250.079 168.841 246.198 166.349 243.986C165.079 242.857 161.105 239.14 157.53 235.729C151.369 229.871 146.807 225.707 146.549 225.707C145.984 225.707 148.265 228.483 152.145 232.53C162.539 243.328 175.614 253.608 192.521 264.218C209.711 275.016 227.112 281.838 248.605 286.144C257.752 287.978 264.807 288.825 277.764 289.696C281.785 289.955 288.699 290.449 293.167 290.802C300.315 291.39 302.455 291.46 311.156 291.46C321.22 291.437 324.959 291.296 341.373 290.26C354.988 289.414 358.774 289.037 365.1 287.908C370.109 286.99 370.932 287.179 374.435 289.978C375.47 290.801 378.245 292.895 380.596 294.636C382.924 296.377 384.853 297.883 384.876 297.953C384.876 298.047 381.302 298.165 376.952 298.235C372.037 298.306 365.735 298.588 360.42 298.965C355.694 299.294 348.921 299.788 345.37 300.047C325.876 301.435 311.603 301.294 295.753 299.553C290.839 299.035 260.551 294.777 253.896 293.695C242.232 291.79 229.746 288.473 212.509 282.709C195.249 276.945 189.864 274.781 178.882 269.299C170.44 265.088 157.624 258.243 154.544 256.314C143.398 249.279 133.192 239.469 123.41 226.413C121.528 223.872 118.989 220.367 117.766 218.579C116.284 216.415 115.414 215.356 115.132 215.356C114.732 215.356 114.732 215.474 115.297 217.026C117.202 222.32 123.598 231.847 129.641 238.411C139.635 249.256 150.781 257.207 169.006 266.382C189.064 276.498 210.016 284.85 232.967 291.907C244.749 295.53 257.353 298.094 276.236 300.729C297.47 303.693 317.152 304.446 342.078 303.223C352.707 302.705 375.352 301.505 381.819 301.106C384.853 300.917 387.675 300.753 388.074 300.753C388.639 300.753 390.144 301.647 394.541 304.658C397.692 306.822 400.49 308.775 400.725 309.01C401.172 309.41 401.172 309.434 400.608 309.551C400.302 309.622 394.706 310.092 388.168 310.633C381.631 311.151 374.812 311.715 373.001 311.857C369.05 312.233 316.235 312.162 307.158 311.81C291.426 311.174 265.113 308.116 248.511 304.987C233.673 302.188 217.659 298 202.28 292.872C169.147 281.862 143.186 267.794 122.563 249.726C116.261 244.222 107.866 235.47 103.516 229.942C102.457 228.577 99.5181 224.601 97.0254 221.12C89.2654 210.345 88.5834 209.522 88.5834 210.863C88.5834 211.498 90.0884 215.003 91.6875 218.156C98.5775 231.541 108.313 242.363 125.597 255.819C145.773 271.511 166.795 282.779 195.813 293.389C221.092 302.635 243.643 307.928 275.177 312.021C302.573 315.574 308.193 315.95 332.555 315.715C356.658 315.503 362.513 315.268 382.172 313.809C392.001 313.08 394.071 312.868 399.573 312.115C402.724 311.692 404.206 311.574 404.629 311.739C405.334 311.998 415.14 318.279 415.752 318.844C416.152 319.22 416.01 319.267 413.283 319.526C408.885 319.949 376.058 322.561 370.062 322.961C356.752 323.878 355.059 323.925 341.843 323.902C319.457 323.878 297.094 322.702 279.998 320.631C262.573 318.538 235.578 314.397 226.266 312.398C214.508 309.88 204.067 306.281 183.82 297.859C148.406 283.109 136.461 277.133 122.798 267.394C116.966 263.253 113.157 260.148 102.81 251.138C86.7963 237.187 79.2008 228.93 71.2762 216.862C68.8306 213.168 67.89 212.015 68.1957 213.168C68.2662 213.403 68.3838 213.898 68.4779 214.274C68.7365 215.427 76.9904 228.06 80.3061 232.388C83.9509 237.117 89.4535 242.575 97.3076 249.256C99.1889 250.856 102.128 253.373 103.845 254.808C124.821 272.664 134.579 279.086 155.484 288.872C180.411 300.541 190.522 304.728 206.865 310.163C225.654 316.444 235.483 318.373 272.708 323.102C298.457 326.372 304.736 326.819 331.026 327.36C344.83 327.618 355.6 327.43 364.418 326.748C366.816 326.56 375.164 325.925 382.995 325.337C406.51 323.549 410.367 323.196 415.14 322.255C419.279 321.455 419.444 321.455 420.196 321.831C421.701 322.584 431.201 328.607 431.201 328.795C431.201 329.054 430.802 329.124 425.064 329.924C419.985 330.63 411.072 331.241 382.995 332.865C351.179 334.676 341.396 335.1 330.18 335.1C317.693 335.1 313.648 334.841 292.579 332.723C253.567 328.818 238.776 326.513 224.384 322.114C222.197 321.455 195.931 311.998 183.703 307.481C152.498 295.977 147.066 293.366 125.032 279.251C114.427 272.475 94.9561 259.231 89.9003 255.373C79.9298 247.75 71.3938 237.987 64.5978 226.413C63.6337 224.79 62.3639 222.719 61.7525 221.826C60.5297 219.991 55.5915 213.756 55.0036 213.286C54.5333 212.933 54.016 212.909 54.016 213.262C54.016 213.568 59.9653 224.672 62.7637 229.589C64.9741 233.447 68.4779 238.764 70.3591 241.116C75.7206 247.821 82.7281 254.337 91.711 261.019C101.658 268.453 125.55 283.603 138.789 290.919C157.883 301.458 165.667 304.611 209.805 319.596C233.085 327.524 237.059 328.371 275.177 333.664C303.56 337.617 308.357 338.017 327.381 338.04C334.365 338.04 343.677 337.899 348.075 337.734C376.081 336.699 383.207 336.346 396.869 335.429C416.928 334.088 421.348 333.641 430.943 331.947L435.481 331.147L438.468 332.723C447.262 337.334 447.686 337.593 447.004 338.017C446.815 338.134 430.731 340.981 422.383 342.369C407.968 344.768 394.212 346.298 378.645 347.215C357.645 348.438 328.181 348.556 315.036 347.45C303.654 346.509 287.805 344.815 279.763 343.663C262.126 341.169 247.711 338.111 229.205 332.888C222.95 331.124 199.129 324.019 192.756 321.996C183.773 319.149 171.005 314.397 161.951 310.516C131.828 297.6 97.7544 277.227 71.6524 256.572C62.2933 249.162 55.2623 241.681 45.3153 228.53C40.7768 222.508 37.4847 218.438 37.1555 218.438C36.5911 218.391 36.6146 218.885 37.2966 220.743C37.8374 222.202 38.8721 223.943 41.6939 228.107C48.8426 238.693 52.5345 243.398 58.4133 249.397C65.7971 256.949 71.0175 261.089 84.8916 270.358C114.968 290.472 136.178 302.188 164.068 314.044C185.184 323.031 210.416 331.759 230.992 337.193C248.111 341.734 273.108 346.321 294.577 348.838C316.588 351.45 341.632 352.743 352.425 351.826C354.165 351.685 360.726 351.403 367.005 351.214C390.144 350.509 398.868 349.52 433.67 343.569C442.677 342.016 442.865 341.992 447.333 340.51C449.402 339.828 450.578 339.546 451.001 339.64C451.965 339.899 463.441 346.909 463.347 347.191C463.206 347.615 451.801 351.238 447.38 352.249C434.352 355.261 423.206 357.143 411.213 358.39C408.697 358.648 403.712 359.236 400.161 359.683C382.125 361.942 377.022 362.154 351.649 361.589C313.178 360.766 308.052 360.248 270.474 353.567C253.567 350.556 237.012 347.356 228.97 345.545C205.36 340.228 177.706 330.418 146.314 316.232C123.903 306.116 102.199 293.648 85.9968 281.627C77.2491 275.11 72.452 270.946 63.5397 262.171C59.6596 258.337 55.6855 254.455 54.7214 253.561C49.6656 248.903 44.4688 243.657 40.4712 239.234C35.1802 233.376 24.9511 221.426 20.3891 215.756C17.967 212.721 17.1205 211.827 16.6972 211.827C16.1563 211.827 16.1799 211.874 17.191 213.874C18.79 217.073 29.2073 231.353 34.9686 238.293C38.0726 242.034 44.022 248.15 46.9614 250.667C50.5592 253.726 53.8278 256.784 60.0124 262.901C66.9964 269.793 68.4544 271.134 72.4049 274.451C78.1897 279.298 83.998 283.556 92.1107 288.872C120.188 307.34 144.127 319.149 186.901 335.57C208.394 343.851 226.336 348.956 250.369 353.661C264.431 356.413 298.034 361.589 308.451 362.601C311.109 362.859 316.87 363.424 321.267 363.847L329.263 364.624H344.665C358.798 364.6 366.346 364.459 384.171 363.8C394.094 363.424 397.363 363.165 403.571 362.271C406.745 361.824 411.566 361.236 414.317 360.977C424.946 359.942 437.692 357.942 446.486 355.896C452.835 354.414 460.854 351.591 463.347 349.944C465.322 348.627 466.921 348.744 469.531 350.391C470.378 350.908 472.047 351.849 473.247 352.438C474.422 353.049 475.387 353.661 475.34 353.779C475.222 354.155 468.685 356.907 465.204 358.06C459.772 359.848 448.673 362.953 440.607 364.953C420.572 369.893 407.028 371.869 379.938 373.799C375.353 374.104 369.003 374.551 365.829 374.787C357.622 375.351 340.503 375.351 333.848 374.787C302.714 372.105 277.27 368.035 251.427 361.589C234.449 357.354 224.455 354.437 199.928 346.509C192.168 343.992 183.867 341.357 181.492 340.604C172.157 337.711 164.608 334.7 152.545 328.983C143.421 324.678 111.182 308.492 107.513 306.399C92.534 297.812 76.4496 284.544 56.0148 263.983C42.1878 250.056 29.6071 235.117 16.1563 216.65C7.12646 204.229 5.05712 200.488 4.04596 194.771C3.45808 191.29 3.71674 184.444 4.49275 182.938C5.24524 181.48 7.10295 180.327 9.6426 179.692C10.4421 179.504 12.8642 178.751 15.0041 178.069C19.3544 176.634 29.419 173.952 30.1244 174.022C30.3831 174.046 30.6182 174.187 30.6653 174.328ZM34.5688 178.045C34.9921 178.21 36.4736 179.362 37.8845 180.586C39.46 181.974 42.564 184.232 45.9267 186.444C48.9367 188.443 51.4293 190.137 51.4293 190.231C51.4293 190.513 39.0837 190.443 35.3448 190.161C27.1145 189.525 19.5661 187.596 13.6872 184.585C11.2181 183.338 11.2181 183.315 12.5585 182.468C15.4274 180.633 18.8136 179.504 22.8582 179.08C25.0686 178.868 33.5577 177.81 33.7458 177.739C33.7693 177.716 34.1455 177.857 34.5688 178.045ZM131.922 321.855C131.758 321.902 131.475 321.902 131.334 321.855C131.17 321.784 131.287 321.737 131.616 321.737C131.946 321.737 132.063 321.784 131.922 321.855ZM138.412 325.148C143.562 328.089 148.689 330.442 166.584 338.04C178.224 343.004 180.246 343.757 186.195 345.545C201.551 350.132 224.055 356.649 233.79 359.331C267.535 368.623 301.209 374.834 328.91 376.857C345.77 378.08 358.327 377.939 381.584 376.269C385.135 376.01 390.637 375.633 393.812 375.445C415.14 374.081 428.685 371.399 458.479 362.577C462.43 361.401 466.404 360.248 467.297 359.989C469.39 359.378 471.742 358.319 474.54 356.649C475.763 355.943 477.009 355.284 477.315 355.214C477.738 355.119 479.055 355.684 482.465 357.378C486.792 359.566 489.731 360.719 495.045 362.295C496.738 362.789 497.068 362.977 496.691 363.118C495.845 363.494 476.939 368.458 467.297 370.858C430.637 379.939 406.534 383.185 378.997 382.785C360.938 382.526 319.715 380.386 306.805 379.068C289.216 377.257 259.493 371.799 240.257 366.835C214.202 360.13 189.864 352.061 169.946 343.569C163.974 341.028 156.143 336.746 140.2 327.289C134.039 323.619 132.792 322.796 132.792 322.325C132.792 321.996 133.31 322.255 138.412 325.148Z" fill="white"/>
<path d="M237.635 213.332C237.047 213.52 236.365 213.896 236.13 214.155C235.707 214.626 235.707 214.649 236.248 215.214C236.553 215.543 236.765 215.826 236.694 215.873C236.647 215.92 235.754 216.414 234.719 216.955C231.78 218.507 231.545 218.907 232.509 220.507C233.285 221.777 237.4 225.73 238.834 226.553C242.785 228.858 246.924 228.317 250.192 225.071C252.497 222.789 252.473 221.448 250.122 219.237C247.77 217.025 244.972 216.061 240.433 215.873C236.483 215.708 236.153 215.355 239.375 214.79C242.173 214.273 243.02 214.296 245.183 214.861C247.417 215.449 247.7 215.449 247.276 214.955C246.806 214.39 244.972 213.544 243.584 213.238C241.915 212.885 238.952 212.932 237.635 213.332ZM240.48 219.448C240.48 220.178 239.54 222.154 239.187 222.154C238.599 222.154 238.364 221.519 238.364 219.919C238.364 218.978 238.434 218.178 238.505 218.084C238.599 218.013 239.069 218.154 239.563 218.413C240.245 218.743 240.48 219.025 240.48 219.448ZM248.57 220.507C249.675 221.354 250.545 222.13 250.498 222.271C250.427 222.577 246.359 224.295 246.1 224.13C245.983 224.059 245.889 222.836 245.889 221.425C245.889 219.237 245.936 218.837 246.242 218.907C246.43 218.954 247.488 219.66 248.57 220.507Z" fill="white"/>
<path d="M234.625 226.13C235.401 228.341 238.387 230.153 241.538 230.341C242.573 230.388 243.372 230.388 243.302 230.341C243.02 230.059 234.836 225.448 234.625 225.448C234.46 225.448 234.483 225.683 234.625 226.13Z" fill="white"/>
</svg>
