<svg width="386" height="266" viewBox="0 0 386 266" fill="none" xmlns="http://www.w3.org/2000/svg">
<path d="M197.531 133.337C197.429 133.337 197.338 133.303 197.259 133.235C197.191 133.156 197.162 133.065 197.174 132.963L197.412 131.331H196.205C196.091 131.331 195.995 131.291 195.916 131.212C195.848 131.133 195.814 131.036 195.814 130.923V129.597C195.814 129.472 195.848 129.376 195.916 129.308C195.995 129.229 196.091 129.189 196.205 129.189H197.735L198.058 127.013H196.647C196.533 127.013 196.437 126.973 196.358 126.894C196.29 126.815 196.256 126.718 196.256 126.605V125.279C196.256 125.154 196.29 125.058 196.358 124.99C196.437 124.911 196.533 124.871 196.647 124.871H198.381L198.636 123.222C198.658 123.131 198.698 123.052 198.755 122.984C198.823 122.905 198.913 122.865 199.027 122.865H200.37C200.472 122.865 200.557 122.905 200.625 122.984C200.704 123.052 200.744 123.137 200.744 123.239L200.489 124.871H202.24L202.495 123.222C202.517 123.131 202.557 123.052 202.614 122.984C202.682 122.905 202.772 122.865 202.886 122.865H204.229C204.331 122.865 204.416 122.905 204.484 122.984C204.563 123.052 204.603 123.137 204.603 123.239L204.348 124.871H205.555C205.668 124.871 205.764 124.911 205.844 124.99C205.923 125.058 205.963 125.154 205.963 125.279V126.605C205.963 126.718 205.923 126.815 205.844 126.894C205.764 126.973 205.668 127.013 205.555 127.013H204.042L203.719 129.189H205.113C205.226 129.189 205.322 129.229 205.402 129.308C205.481 129.376 205.521 129.472 205.521 129.597V130.923C205.521 131.036 205.481 131.133 205.402 131.212C205.322 131.291 205.226 131.331 205.113 131.331H203.396L203.158 132.98C203.124 133.218 202.982 133.337 202.733 133.337H201.39C201.288 133.337 201.203 133.303 201.135 133.235C201.067 133.156 201.033 133.065 201.033 132.963L201.271 131.331H199.537L199.299 132.98C199.265 133.218 199.123 133.337 198.874 133.337H197.531ZM199.86 129.189H201.594L201.917 127.013H200.183L199.86 129.189ZM214.03 134.17C212.897 134.17 211.956 134.011 211.208 133.694C210.46 133.365 209.893 132.94 209.508 132.419C209.123 131.898 208.919 131.342 208.896 130.753C208.896 130.662 208.93 130.583 208.998 130.515C209.077 130.436 209.168 130.396 209.27 130.396H211.412C211.571 130.396 211.69 130.424 211.769 130.481C211.86 130.538 211.939 130.611 212.007 130.702C212.098 130.872 212.222 131.036 212.381 131.195C212.551 131.354 212.766 131.484 213.027 131.586C213.299 131.677 213.633 131.722 214.03 131.722C214.687 131.722 215.18 131.62 215.509 131.416C215.849 131.212 216.019 130.934 216.019 130.583C216.019 130.334 215.928 130.13 215.747 129.971C215.566 129.801 215.271 129.654 214.863 129.529C214.466 129.393 213.934 129.257 213.265 129.121C212.404 128.94 211.667 128.707 211.055 128.424C210.454 128.129 209.995 127.75 209.678 127.285C209.361 126.809 209.202 126.22 209.202 125.517C209.202 124.826 209.395 124.208 209.78 123.664C210.177 123.12 210.726 122.695 211.429 122.389C212.132 122.083 212.965 121.93 213.928 121.93C214.71 121.93 215.396 122.032 215.985 122.236C216.586 122.44 217.09 122.712 217.498 123.052C217.906 123.392 218.212 123.755 218.416 124.14C218.631 124.514 218.745 124.882 218.756 125.245C218.756 125.336 218.722 125.421 218.654 125.5C218.586 125.568 218.501 125.602 218.399 125.602H216.155C216.03 125.602 215.923 125.579 215.832 125.534C215.741 125.489 215.662 125.415 215.594 125.313C215.526 125.064 215.345 124.848 215.05 124.667C214.767 124.474 214.393 124.378 213.928 124.378C213.429 124.378 213.038 124.469 212.755 124.65C212.483 124.82 212.347 125.086 212.347 125.449C212.347 125.676 212.421 125.874 212.568 126.044C212.727 126.214 212.982 126.361 213.333 126.486C213.696 126.611 214.189 126.741 214.812 126.877C215.843 127.07 216.676 127.313 217.311 127.608C217.946 127.891 218.41 128.265 218.705 128.73C219 129.183 219.147 129.756 219.147 130.447C219.147 131.218 218.926 131.886 218.484 132.453C218.053 133.008 217.453 133.433 216.682 133.728C215.911 134.023 215.027 134.17 214.03 134.17ZM222.787 134C222.662 134 222.56 133.96 222.481 133.881C222.402 133.802 222.362 133.7 222.362 133.575V125.585C222.362 125.46 222.402 125.358 222.481 125.279C222.56 125.2 222.662 125.16 222.787 125.16H224.793C224.906 125.16 225.003 125.2 225.082 125.279C225.173 125.358 225.218 125.46 225.218 125.585V133.575C225.218 133.7 225.173 133.802 225.082 133.881C225.003 133.96 224.906 134 224.793 134H222.787ZM222.77 123.885C222.645 123.885 222.543 123.845 222.464 123.766C222.385 123.687 222.345 123.585 222.345 123.46V121.947C222.345 121.822 222.385 121.72 222.464 121.641C222.543 121.55 222.645 121.505 222.77 121.505H224.793C224.918 121.505 225.02 121.55 225.099 121.641C225.19 121.72 225.235 121.822 225.235 121.947V123.46C225.235 123.585 225.19 123.687 225.099 123.766C225.02 123.845 224.918 123.885 224.793 123.885H222.77ZM229.866 134C229.741 134 229.639 133.96 229.56 133.881C229.481 133.802 229.441 133.7 229.441 133.575V125.585C229.441 125.46 229.481 125.358 229.56 125.279C229.639 125.2 229.741 125.16 229.866 125.16H231.821C231.946 125.16 232.048 125.2 232.127 125.279C232.206 125.358 232.246 125.46 232.246 125.585V126.231C232.541 125.88 232.926 125.585 233.402 125.347C233.878 125.109 234.439 124.99 235.085 124.99C235.742 124.99 236.32 125.137 236.819 125.432C237.329 125.727 237.726 126.163 238.009 126.741C238.304 127.308 238.451 128.005 238.451 128.832V133.575C238.451 133.7 238.406 133.802 238.315 133.881C238.236 133.96 238.139 134 238.026 134H235.884C235.771 134 235.669 133.96 235.578 133.881C235.499 133.802 235.459 133.7 235.459 133.575V128.934C235.459 128.401 235.329 127.993 235.068 127.71C234.819 127.415 234.445 127.268 233.946 127.268C233.481 127.268 233.107 127.415 232.824 127.71C232.552 127.993 232.416 128.401 232.416 128.934V133.575C232.416 133.7 232.371 133.802 232.28 133.881C232.201 133.96 232.104 134 231.991 134H229.866ZM246.383 137.74C245.51 137.74 244.785 137.627 244.207 137.4C243.64 137.173 243.187 136.901 242.847 136.584C242.518 136.267 242.28 135.949 242.133 135.632C241.986 135.326 241.906 135.082 241.895 134.901C241.884 134.776 241.923 134.674 242.014 134.595C242.105 134.516 242.212 134.476 242.337 134.476H244.496C244.598 134.476 244.683 134.499 244.751 134.544C244.83 134.601 244.893 134.691 244.938 134.816C244.995 134.941 245.068 135.071 245.159 135.207C245.261 135.343 245.397 135.451 245.567 135.53C245.748 135.621 245.992 135.666 246.298 135.666C246.638 135.666 246.921 135.609 247.148 135.496C247.375 135.394 247.545 135.218 247.658 134.969C247.771 134.731 247.828 134.408 247.828 134V132.861C247.567 133.144 247.233 133.377 246.825 133.558C246.417 133.728 245.924 133.813 245.346 133.813C244.768 133.813 244.258 133.728 243.816 133.558C243.374 133.388 243.006 133.133 242.711 132.793C242.416 132.453 242.184 132.039 242.014 131.552C241.855 131.065 241.759 130.504 241.725 129.869C241.714 129.574 241.714 129.28 241.725 128.985C241.759 128.373 241.855 127.823 242.014 127.336C242.173 126.849 242.399 126.429 242.694 126.078C243 125.727 243.374 125.46 243.816 125.279C244.258 125.086 244.768 124.99 245.346 124.99C245.958 124.99 246.479 125.109 246.91 125.347C247.352 125.574 247.715 125.863 247.998 126.214V125.585C247.998 125.472 248.038 125.375 248.117 125.296C248.196 125.205 248.298 125.16 248.423 125.16H250.378C250.503 125.16 250.605 125.205 250.684 125.296C250.775 125.375 250.82 125.472 250.82 125.585V133.762C250.82 134.623 250.644 135.349 250.293 135.938C249.942 136.527 249.437 136.975 248.78 137.281C248.123 137.587 247.324 137.74 246.383 137.74ZM246.264 131.603C246.627 131.603 246.921 131.524 247.148 131.365C247.375 131.206 247.539 131.002 247.641 130.753C247.754 130.504 247.817 130.237 247.828 129.954C247.839 129.829 247.845 129.654 247.845 129.427C247.845 129.2 247.839 129.03 247.828 128.917C247.817 128.622 247.754 128.35 247.641 128.101C247.539 127.852 247.375 127.653 247.148 127.506C246.921 127.347 246.627 127.268 246.264 127.268C245.89 127.268 245.59 127.347 245.363 127.506C245.148 127.665 244.989 127.88 244.887 128.152C244.796 128.424 244.74 128.724 244.717 129.053C244.706 129.302 244.706 129.557 244.717 129.818C244.74 130.147 244.796 130.447 244.887 130.719C244.989 130.991 245.148 131.206 245.363 131.365C245.59 131.524 245.89 131.603 246.264 131.603ZM254.948 134C254.823 134 254.721 133.96 254.642 133.881C254.562 133.802 254.523 133.7 254.523 133.575V122.355C254.523 122.23 254.562 122.128 254.642 122.049C254.721 121.97 254.823 121.93 254.948 121.93H256.954C257.078 121.93 257.18 121.97 257.26 122.049C257.339 122.128 257.379 122.23 257.379 122.355V133.575C257.379 133.7 257.339 133.802 257.26 133.881C257.18 133.96 257.078 134 256.954 134H254.948ZM265.167 134.17C263.829 134.17 262.764 133.807 261.971 133.082C261.177 132.357 260.764 131.28 260.73 129.852C260.73 129.773 260.73 129.671 260.73 129.546C260.73 129.421 260.73 129.325 260.73 129.257C260.764 128.362 260.962 127.597 261.325 126.962C261.699 126.316 262.209 125.829 262.855 125.5C263.512 125.16 264.277 124.99 265.15 124.99C266.147 124.99 266.969 125.188 267.615 125.585C268.272 125.982 268.765 126.52 269.094 127.2C269.422 127.88 269.587 128.656 269.587 129.529V129.937C269.587 130.062 269.541 130.164 269.451 130.243C269.371 130.322 269.275 130.362 269.162 130.362H263.722C263.722 130.373 263.722 130.39 263.722 130.413C263.722 130.436 263.722 130.458 263.722 130.481C263.733 130.81 263.79 131.11 263.892 131.382C263.994 131.654 264.152 131.869 264.368 132.028C264.583 132.187 264.844 132.266 265.15 132.266C265.376 132.266 265.563 132.232 265.711 132.164C265.869 132.085 266 132 266.102 131.909C266.204 131.807 266.283 131.722 266.34 131.654C266.442 131.541 266.521 131.473 266.578 131.45C266.646 131.416 266.748 131.399 266.884 131.399H268.992C269.105 131.399 269.196 131.433 269.264 131.501C269.343 131.558 269.377 131.643 269.366 131.756C269.354 131.949 269.258 132.181 269.077 132.453C268.895 132.725 268.629 132.997 268.278 133.269C267.938 133.53 267.507 133.745 266.986 133.915C266.464 134.085 265.858 134.17 265.167 134.17ZM263.722 128.679H266.595V128.645C266.595 128.282 266.538 127.965 266.425 127.693C266.323 127.421 266.158 127.211 265.932 127.064C265.716 126.917 265.456 126.843 265.15 126.843C264.844 126.843 264.583 126.917 264.368 127.064C264.164 127.211 264.005 127.421 263.892 127.693C263.778 127.965 263.722 128.282 263.722 128.645V128.679ZM276.128 134.17C275.482 134.17 274.904 134.023 274.394 133.728C273.895 133.433 273.504 133.003 273.221 132.436C272.937 131.858 272.796 131.155 272.796 130.328V125.585C272.796 125.46 272.835 125.358 272.915 125.279C272.994 125.2 273.096 125.16 273.221 125.16H275.346C275.47 125.16 275.572 125.2 275.652 125.279C275.731 125.358 275.771 125.46 275.771 125.585V130.226C275.771 131.337 276.269 131.892 277.267 131.892C277.731 131.892 278.1 131.75 278.372 131.467C278.655 131.172 278.797 130.759 278.797 130.226V125.585C278.797 125.46 278.836 125.358 278.916 125.279C278.995 125.2 279.097 125.16 279.222 125.16H281.347C281.471 125.16 281.573 125.2 281.653 125.279C281.732 125.358 281.772 125.46 281.772 125.585V133.575C281.772 133.7 281.732 133.802 281.653 133.881C281.573 133.96 281.471 134 281.347 134H279.375C279.261 134 279.159 133.96 279.069 133.881C278.989 133.802 278.95 133.7 278.95 133.575V132.929C278.655 133.337 278.27 133.649 277.794 133.864C277.329 134.068 276.774 134.17 276.128 134.17ZM289.109 134.17C288.372 134.17 287.743 134.091 287.222 133.932C286.712 133.762 286.293 133.558 285.964 133.32C285.647 133.082 285.409 132.838 285.25 132.589C285.091 132.328 285.006 132.107 284.995 131.926C284.984 131.801 285.023 131.699 285.114 131.62C285.205 131.529 285.301 131.484 285.403 131.484H287.341C287.375 131.484 287.403 131.49 287.426 131.501C287.449 131.512 287.483 131.535 287.528 131.569C287.675 131.648 287.823 131.75 287.97 131.875C288.117 131.988 288.287 132.09 288.48 132.181C288.673 132.272 288.905 132.317 289.177 132.317C289.494 132.317 289.761 132.255 289.976 132.13C290.191 132.005 290.299 131.818 290.299 131.569C290.299 131.388 290.248 131.24 290.146 131.127C290.044 131.002 289.834 130.883 289.517 130.77C289.211 130.657 288.746 130.543 288.123 130.43C287.534 130.294 287.018 130.118 286.576 129.903C286.134 129.676 285.794 129.387 285.556 129.036C285.318 128.673 285.199 128.237 285.199 127.727C285.199 127.274 285.346 126.837 285.641 126.418C285.936 125.999 286.366 125.659 286.933 125.398C287.5 125.126 288.197 124.99 289.024 124.99C289.681 124.99 290.248 125.069 290.724 125.228C291.211 125.375 291.619 125.568 291.948 125.806C292.288 126.044 292.543 126.288 292.713 126.537C292.883 126.786 292.974 127.013 292.985 127.217C292.996 127.33 292.962 127.432 292.883 127.523C292.804 127.602 292.713 127.642 292.611 127.642H290.843C290.798 127.642 290.752 127.636 290.707 127.625C290.662 127.602 290.622 127.58 290.588 127.557C290.452 127.489 290.316 127.398 290.18 127.285C290.044 127.172 289.885 127.07 289.704 126.979C289.523 126.888 289.296 126.843 289.024 126.843C288.718 126.843 288.48 126.911 288.31 127.047C288.14 127.183 288.055 127.359 288.055 127.574C288.055 127.721 288.1 127.857 288.191 127.982C288.293 128.107 288.491 128.22 288.786 128.322C289.092 128.424 289.562 128.537 290.197 128.662C290.979 128.787 291.602 128.991 292.067 129.274C292.532 129.546 292.86 129.869 293.053 130.243C293.246 130.606 293.342 130.991 293.342 131.399C293.342 131.943 293.178 132.425 292.849 132.844C292.532 133.263 292.056 133.592 291.421 133.83C290.786 134.057 290.016 134.17 289.109 134.17ZM300.648 134.17C299.31 134.17 298.245 133.807 297.452 133.082C296.658 132.357 296.245 131.28 296.211 129.852C296.211 129.773 296.211 129.671 296.211 129.546C296.211 129.421 296.211 129.325 296.211 129.257C296.245 128.362 296.443 127.597 296.806 126.962C297.18 126.316 297.69 125.829 298.336 125.5C298.993 125.16 299.758 124.99 300.631 124.99C301.628 124.99 302.45 125.188 303.096 125.585C303.753 125.982 304.246 126.52 304.575 127.2C304.903 127.88 305.068 128.656 305.068 129.529V129.937C305.068 130.062 305.022 130.164 304.932 130.243C304.852 130.322 304.756 130.362 304.643 130.362H299.203C299.203 130.373 299.203 130.39 299.203 130.413C299.203 130.436 299.203 130.458 299.203 130.481C299.214 130.81 299.271 131.11 299.373 131.382C299.475 131.654 299.633 131.869 299.849 132.028C300.064 132.187 300.325 132.266 300.631 132.266C300.857 132.266 301.044 132.232 301.192 132.164C301.35 132.085 301.481 132 301.583 131.909C301.685 131.807 301.764 131.722 301.821 131.654C301.923 131.541 302.002 131.473 302.059 131.45C302.127 131.416 302.229 131.399 302.365 131.399H304.473C304.586 131.399 304.677 131.433 304.745 131.501C304.824 131.558 304.858 131.643 304.847 131.756C304.835 131.949 304.739 132.181 304.558 132.453C304.376 132.725 304.11 132.997 303.759 133.269C303.419 133.53 302.988 133.745 302.467 133.915C301.945 134.085 301.339 134.17 300.648 134.17ZM299.203 128.679H302.076V128.645C302.076 128.282 302.019 127.965 301.906 127.693C301.804 127.421 301.639 127.211 301.413 127.064C301.197 126.917 300.937 126.843 300.631 126.843C300.325 126.843 300.064 126.917 299.849 127.064C299.645 127.211 299.486 127.421 299.373 127.693C299.259 127.965 299.203 128.282 299.203 128.645V128.679ZM311.999 134.17C311.263 134.17 310.634 134.091 310.112 133.932C309.602 133.762 309.183 133.558 308.854 133.32C308.537 133.082 308.299 132.838 308.14 132.589C307.982 132.328 307.897 132.107 307.885 131.926C307.874 131.801 307.914 131.699 308.004 131.62C308.095 131.529 308.191 131.484 308.293 131.484H310.231C310.265 131.484 310.294 131.49 310.316 131.501C310.339 131.512 310.373 131.535 310.418 131.569C310.566 131.648 310.713 131.75 310.86 131.875C311.008 131.988 311.178 132.09 311.37 132.181C311.563 132.272 311.795 132.317 312.067 132.317C312.385 132.317 312.651 132.255 312.866 132.13C313.082 132.005 313.189 131.818 313.189 131.569C313.189 131.388 313.138 131.24 313.036 131.127C312.934 131.002 312.725 130.883 312.407 130.77C312.101 130.657 311.637 130.543 311.013 130.43C310.424 130.294 309.908 130.118 309.466 129.903C309.024 129.676 308.684 129.387 308.446 129.036C308.208 128.673 308.089 128.237 308.089 127.727C308.089 127.274 308.237 126.837 308.531 126.418C308.826 125.999 309.257 125.659 309.823 125.398C310.39 125.126 311.087 124.99 311.914 124.99C312.572 124.99 313.138 125.069 313.614 125.228C314.102 125.375 314.51 125.568 314.838 125.806C315.178 126.044 315.433 126.288 315.603 126.537C315.773 126.786 315.864 127.013 315.875 127.217C315.887 127.33 315.853 127.432 315.773 127.523C315.694 127.602 315.603 127.642 315.501 127.642H313.733C313.688 127.642 313.643 127.636 313.597 127.625C313.552 127.602 313.512 127.58 313.478 127.557C313.342 127.489 313.206 127.398 313.07 127.285C312.934 127.172 312.776 127.07 312.594 126.979C312.413 126.888 312.186 126.843 311.914 126.843C311.608 126.843 311.37 126.911 311.2 127.047C311.03 127.183 310.945 127.359 310.945 127.574C310.945 127.721 310.991 127.857 311.081 127.982C311.183 128.107 311.382 128.22 311.676 128.322C311.982 128.424 312.453 128.537 313.087 128.662C313.869 128.787 314.493 128.991 314.957 129.274C315.422 129.546 315.751 129.869 315.943 130.243C316.136 130.606 316.232 130.991 316.232 131.399C316.232 131.943 316.068 132.425 315.739 132.844C315.422 133.263 314.946 133.592 314.311 133.83C313.677 134.057 312.906 134.17 311.999 134.17ZM322.705 134.17C322.059 134.17 321.481 134.023 320.971 133.728C320.472 133.433 320.081 133.003 319.798 132.436C319.515 131.858 319.373 131.155 319.373 130.328V125.585C319.373 125.46 319.413 125.358 319.492 125.279C319.571 125.2 319.673 125.16 319.798 125.16H321.923C322.048 125.16 322.15 125.2 322.229 125.279C322.308 125.358 322.348 125.46 322.348 125.585V130.226C322.348 131.337 322.847 131.892 323.844 131.892C324.309 131.892 324.677 131.75 324.949 131.467C325.232 131.172 325.374 130.759 325.374 130.226V125.585C325.374 125.46 325.414 125.358 325.493 125.279C325.572 125.2 325.674 125.16 325.799 125.16H327.924C328.049 125.16 328.151 125.2 328.23 125.279C328.309 125.358 328.349 125.46 328.349 125.585V133.575C328.349 133.7 328.309 133.802 328.23 133.881C328.151 133.96 328.049 134 327.924 134H325.952C325.839 134 325.737 133.96 325.646 133.881C325.567 133.802 325.527 133.7 325.527 133.575V132.929C325.232 133.337 324.847 133.649 324.371 133.864C323.906 134.068 323.351 134.17 322.705 134.17ZM336.112 134.17C335.273 134.17 334.531 134.017 333.885 133.711C333.239 133.405 332.723 132.963 332.338 132.385C331.964 131.796 331.76 131.093 331.726 130.277C331.714 130.096 331.709 129.869 331.709 129.597C331.709 129.314 331.714 129.081 331.726 128.9C331.76 128.073 331.964 127.37 332.338 126.792C332.712 126.203 333.222 125.755 333.868 125.449C334.525 125.143 335.273 124.99 336.112 124.99C336.894 124.99 337.562 125.103 338.118 125.33C338.673 125.545 339.126 125.817 339.478 126.146C339.829 126.475 340.09 126.815 340.26 127.166C340.441 127.506 340.537 127.806 340.549 128.067C340.56 128.18 340.52 128.282 340.43 128.373C340.339 128.452 340.237 128.492 340.124 128.492H337.965C337.84 128.492 337.744 128.464 337.676 128.407C337.608 128.35 337.545 128.265 337.489 128.152C337.353 127.801 337.177 127.551 336.962 127.404C336.758 127.257 336.491 127.183 336.163 127.183C335.709 127.183 335.358 127.33 335.109 127.625C334.871 127.92 334.74 128.373 334.718 128.985C334.706 129.438 334.706 129.841 334.718 130.192C334.74 130.815 334.871 131.269 335.109 131.552C335.358 131.835 335.709 131.977 336.163 131.977C336.514 131.977 336.792 131.903 336.996 131.756C337.2 131.609 337.364 131.359 337.489 131.008C337.545 130.895 337.608 130.81 337.676 130.753C337.744 130.696 337.84 130.668 337.965 130.668H340.124C340.237 130.668 340.339 130.713 340.43 130.804C340.52 130.883 340.56 130.98 340.549 131.093C340.537 131.286 340.481 131.512 340.379 131.773C340.277 132.022 340.118 132.289 339.903 132.572C339.687 132.855 339.404 133.122 339.053 133.371C338.713 133.609 338.299 133.802 337.812 133.949C337.324 134.096 336.758 134.17 336.112 134.17ZM344.201 134C344.076 134 343.974 133.96 343.895 133.881C343.816 133.802 343.776 133.7 343.776 133.575V122.355C343.776 122.23 343.816 122.128 343.895 122.049C343.974 121.97 344.076 121.93 344.201 121.93H346.173C346.286 121.93 346.383 121.97 346.462 122.049C346.553 122.128 346.598 122.23 346.598 122.355V128.05L348.961 125.449C349.029 125.37 349.103 125.302 349.182 125.245C349.261 125.188 349.375 125.16 349.522 125.16H351.8C351.902 125.16 351.987 125.2 352.055 125.279C352.134 125.347 352.174 125.432 352.174 125.534C352.174 125.579 352.163 125.63 352.14 125.687C352.117 125.744 352.083 125.789 352.038 125.823L348.978 129.121L352.463 133.354C352.554 133.445 352.599 133.535 352.599 133.626C352.599 133.728 352.559 133.819 352.48 133.898C352.412 133.966 352.321 134 352.208 134H349.879C349.709 134 349.584 133.972 349.505 133.915C349.426 133.847 349.352 133.779 349.284 133.711L346.598 130.481V133.575C346.598 133.7 346.553 133.802 346.462 133.881C346.383 133.96 346.286 134 346.173 134H344.201ZM358.859 134.17C358.122 134.17 357.493 134.091 356.972 133.932C356.462 133.762 356.043 133.558 355.714 133.32C355.397 133.082 355.159 132.838 355 132.589C354.841 132.328 354.756 132.107 354.745 131.926C354.734 131.801 354.773 131.699 354.864 131.62C354.955 131.529 355.051 131.484 355.153 131.484H357.091C357.125 131.484 357.153 131.49 357.176 131.501C357.199 131.512 357.233 131.535 357.278 131.569C357.425 131.648 357.573 131.75 357.72 131.875C357.867 131.988 358.037 132.09 358.23 132.181C358.423 132.272 358.655 132.317 358.927 132.317C359.244 132.317 359.511 132.255 359.726 132.13C359.941 132.005 360.049 131.818 360.049 131.569C360.049 131.388 359.998 131.24 359.896 131.127C359.794 131.002 359.584 130.883 359.267 130.77C358.961 130.657 358.496 130.543 357.873 130.43C357.284 130.294 356.768 130.118 356.326 129.903C355.884 129.676 355.544 129.387 355.306 129.036C355.068 128.673 354.949 128.237 354.949 127.727C354.949 127.274 355.096 126.837 355.391 126.418C355.686 125.999 356.116 125.659 356.683 125.398C357.25 125.126 357.947 124.99 358.774 124.99C359.431 124.99 359.998 125.069 360.474 125.228C360.961 125.375 361.369 125.568 361.698 125.806C362.038 126.044 362.293 126.288 362.463 126.537C362.633 126.786 362.724 127.013 362.735 127.217C362.746 127.33 362.712 127.432 362.633 127.523C362.554 127.602 362.463 127.642 362.361 127.642H360.593C360.548 127.642 360.502 127.636 360.457 127.625C360.412 127.602 360.372 127.58 360.338 127.557C360.202 127.489 360.066 127.398 359.93 127.285C359.794 127.172 359.635 127.07 359.454 126.979C359.273 126.888 359.046 126.843 358.774 126.843C358.468 126.843 358.23 126.911 358.06 127.047C357.89 127.183 357.805 127.359 357.805 127.574C357.805 127.721 357.85 127.857 357.941 127.982C358.043 128.107 358.241 128.22 358.536 128.322C358.842 128.424 359.312 128.537 359.947 128.662C360.729 128.787 361.352 128.991 361.817 129.274C362.282 129.546 362.61 129.869 362.803 130.243C362.996 130.606 363.092 130.991 363.092 131.399C363.092 131.943 362.928 132.425 362.599 132.844C362.282 133.263 361.806 133.592 361.171 133.83C360.536 134.057 359.766 134.17 358.859 134.17Z" fill="black"/>
<rect x="181.049" y="90" width="204" height="78" fill="white"/>
<path d="M278.856 165.275C278.013 165.064 277.43 165.019 276.329 165.084C273.818 165.229 271.288 166.097 269.147 167.541C268.342 168.085 267.934 168.412 266.48 169.686C265.626 170.432 265.127 170.848 264.743 171.133C264.415 171.377 263.241 172.04 263.035 172.095C262.865 172.142 262.713 172.091 261.307 171.538C259.464 170.814 259.092 170.685 257.537 170.228C256.638 169.964 254.74 169.427 254.091 169.259C251.546 168.583 249.56 168.08 247.362 167.557C245.215 167.042 243.434 166.613 242.058 166.268C238.895 165.482 237.704 165.127 235.847 164.407C234.636 163.938 233.411 163.466 232.595 163.157C232.062 162.955 231.88 162.87 231.813 162.803C231.749 162.738 231.643 162.437 231.436 161.727C231.077 160.499 230.998 160.271 230.824 159.996C230.519 159.512 230.202 159.301 229.435 159.069C228.875 158.9 228.331 158.788 227.099 158.587C225.027 158.253 224.479 158.078 222.674 157.17C222.353 157.009 221.896 156.794 221.66 156.69C221.421 156.584 221.06 156.4 220.853 156.281C220.503 156.079 219.318 155.269 218.364 154.581C217.745 154.134 214.777 152.02 213.72 151.271C211.311 149.573 208.74 147.903 204.996 145.607C201.305 143.346 200.299 142.741 197.972 141.394C195.575 140.006 195.256 139.834 193.307 138.858C192.9 138.656 192.099 138.258 191.525 137.971C190.955 137.687 190.002 137.201 189.409 136.891C188.815 136.585 188.019 136.178 187.637 135.99C186.454 135.408 185.537 134.915 185.02 134.58C183.808 133.791 183.016 133.257 182.817 133.089C182.4 132.735 181.045 131.435 179.177 129.587C178.588 129.004 177.996 128.427 177.863 128.306C177.46 127.935 176.977 127.584 176.465 127.288C175.651 126.814 175.201 126.66 174.03 126.445C173.608 126.368 173.084 126.263 172.865 126.214C171.457 125.895 169.952 125.241 168.844 124.46C168.132 123.963 167.622 123.75 166.898 123.655C166.721 123.631 166.501 123.597 166.413 123.574C166.171 123.515 164.972 122.892 163.434 122.02C162.678 121.592 161.956 121.199 161.826 121.149C161.7 121.1 161.395 121.017 161.154 120.963C160.399 120.802 160.195 120.713 159.071 120.052C157.645 119.217 157.155 119.011 156.263 118.868C155.643 118.769 155.359 118.67 154.69 118.324C154.139 118.034 154.111 118.026 153.19 117.758C151.287 117.21 150.215 116.935 149.923 116.921C149.561 116.902 149.368 117.102 149.215 117.641C149.062 118.188 149.078 118.554 149.284 119.56C149.353 119.883 149.393 120.145 149.374 120.143C149.357 120.137 149.177 120.077 148.973 120C148.007 119.649 146.519 119.154 146.345 119.126C145.96 119.062 145.422 119.164 145.129 119.355C144.829 119.551 144.245 120.477 144.059 121.054C143.786 121.905 143.659 123.378 143.747 124.66C143.806 125.52 144.132 127.697 144.63 130.575C145.176 133.721 145.944 136.306 147.218 139.281C147.735 140.487 148.101 141.273 149.628 144.434C151.015 147.312 150.9 147.084 151.924 148.951C153.062 151.029 154.341 153.047 155.374 154.4C157.277 156.896 157.924 157.553 165.356 164.528C167.247 166.3 169.236 167.923 171.68 169.674C173.837 171.223 175.393 172.206 176.913 172.982C180.361 174.743 184.28 176.681 185.249 177.103C186.741 177.754 188.512 178.384 190.405 178.93C192.735 179.603 193.942 179.862 195.349 179.998L195.926 180.052L196.215 180.219C196.492 180.379 196.51 180.398 196.651 180.625C196.735 180.754 196.862 181.054 196.938 181.288C197.268 182.297 197.63 182.817 198.295 183.246C198.485 183.368 198.65 183.504 198.743 183.61C198.887 183.774 199.207 184.283 199.403 184.659C199.598 185.031 199.993 185.607 200.26 185.903C200.633 186.325 200.9 186.524 201.474 186.823C202.165 187.181 202.491 187.438 203.219 188.195C203.855 188.857 204.655 189.441 205.434 189.814C207.02 190.575 209.52 191.201 211.402 191.316C212.807 191.398 214.033 191.202 214.607 190.797C214.913 190.585 215.049 190.166 214.913 189.84C214.794 189.561 214.123 188.789 213.468 188.18C213.085 187.825 213.07 187.808 211.119 185.338C208.894 182.527 208.818 182.426 208.339 181.668C208.146 181.362 208.05 181.177 208.079 181.169C208.103 181.163 208.984 181.295 210.037 181.461C212.284 181.815 212.977 181.916 214.056 182.044C218.927 182.634 224.218 182.798 230.681 182.565C232.591 182.497 232.561 182.5 235.492 182.14C235.888 182.093 236.479 182.033 236.803 182.014C239.717 181.817 242.573 181.462 246.254 180.83C247.389 180.635 248.056 180.514 250.535 180.058C253.708 179.469 255.017 179.269 256.834 179.095C257.961 178.985 259.711 178.893 260.011 178.929C260.236 178.953 260.946 179.291 261.432 179.603C262.27 180.14 262.996 180.782 264.095 181.951C265.025 182.941 265.937 183.982 266.688 184.91C268.27 186.86 269.367 187.975 270.895 189.181C272.225 190.232 273.938 191.258 275.453 191.91C277.689 192.873 279.314 193.244 280.938 193.157C281.186 193.143 281.656 193.13 281.979 193.127C282.469 193.122 282.574 193.109 282.607 193.052C282.63 193.012 282.638 192.956 282.63 192.927C282.601 192.858 282.254 192.488 282.002 192.257C281.76 192.036 281.223 191.244 280.903 190.639C280.489 189.845 280.327 189.415 279.767 187.602C279.673 187.3 279.546 186.887 279.484 186.685C279.422 186.483 279.206 185.845 279.008 185.26C278.635 184.183 278.38 183.282 278.133 182.213C277.788 180.709 277.304 179.831 275.903 178.167C275.704 177.927 275.524 177.706 275.502 177.673C275.47 177.622 275.494 177.567 275.71 177.214C275.982 176.772 276.104 176.482 276.242 175.99C276.42 175.352 276.45 175.167 276.677 173.164C277.263 168.028 277.26 168.047 277.748 167.203C277.995 166.774 278.059 166.686 278.282 166.467C278.42 166.327 278.673 166.121 278.847 166.003C279.263 165.717 279.305 165.672 279.288 165.561C279.263 165.429 279.137 165.344 278.856 165.275ZM278.621 165.719C278.616 165.728 278.457 165.863 278.263 166.022C277.448 166.689 276.967 167.367 276.654 168.276C276.493 168.737 276.404 169.2 276.36 169.803C276.326 170.285 276.317 170.559 276.297 172.52C276.278 174.367 276.155 175.143 275.733 176.029C275.632 176.246 275.591 176.303 275.563 176.287C275.542 176.275 275.456 176.136 275.374 175.975C275.128 175.501 274.767 175.001 274.686 175.023C274.676 175.026 274.808 175.332 274.985 175.706C275.268 176.307 275.329 176.475 275.25 176.43C275.234 176.421 274.865 176.09 274.429 175.693C273.99 175.293 273.62 174.971 273.609 174.976C273.524 174.996 273.657 175.174 274.28 175.866C274.669 176.297 274.99 176.669 274.989 176.692C274.995 176.801 274.856 176.717 274.028 176.105C273.547 175.751 273.143 175.46 273.128 175.464C273.114 175.468 273.098 175.495 273.095 175.522C273.09 175.559 273.153 175.624 273.282 175.719C273.387 175.796 273.677 176.053 273.919 176.289C274.692 177.043 274.78 177.159 274.621 177.217C274.547 177.247 274.511 177.19 275.137 178.045C276.719 180.205 277.249 181.241 277.905 183.409C278.064 183.942 279.502 188.834 279.719 189.582C280.082 190.837 280.212 191.175 280.528 191.661C280.759 192.013 280.974 192.267 281.241 192.494C281.341 192.58 281.415 192.663 281.409 192.68C281.39 192.726 280.75 192.696 280.299 192.626C279.348 192.482 277.895 192.081 276.753 191.648C275.61 191.215 274.793 190.824 273.624 190.149C272.693 189.611 272.116 189.238 271.325 188.656C269.62 187.404 268.678 186.512 267.093 184.638C266.767 184.255 266.169 183.545 265.763 183.068C264.143 181.157 263.154 180.148 262.183 179.426C261.705 179.073 260.715 178.525 260.266 178.367C260.101 178.309 259.955 178.245 259.94 178.228C259.911 178.195 260.326 178.123 263.359 177.622C264.363 177.457 265.19 177.311 265.197 177.299C265.211 177.275 265.08 177.284 263.71 177.408C263.273 177.447 262.385 177.51 261.732 177.55C261.082 177.587 260.37 177.638 260.148 177.664C259.59 177.73 258.774 177.887 258.496 177.981L258.26 178.06L258.369 178.139C258.431 178.179 258.622 178.277 258.798 178.35C258.975 178.424 259.123 178.497 259.127 178.512C259.129 178.529 259.083 178.539 259.019 178.538C256.791 178.487 255.487 178.581 253.187 178.958C249.993 179.486 248.366 179.765 246.415 180.129C244.142 180.55 243.159 180.72 241.968 180.906C236.592 181.746 231.426 182.153 226.066 182.156C220.434 182.16 215.496 181.771 210.453 180.924C209.265 180.724 208.969 180.683 208.242 180.599C207.974 180.57 207.717 180.523 207.675 180.498C207.602 180.456 206.908 179.323 206.904 179.239C206.905 179.224 206.96 179.227 207.029 179.255C208.81 179.911 211.904 180.596 214.364 180.878C215.098 180.962 215.887 180.996 215.802 180.939C215.768 180.92 215.277 180.85 214.551 180.764C212.399 180.505 210.654 180.097 208.137 179.255C206.817 178.813 206.583 178.698 206.391 178.413C206.274 178.236 205.992 177.628 206.013 177.591C206.018 177.582 206.222 177.664 206.464 177.779C207.572 178.293 208.906 178.76 210.576 179.213C211.333 179.42 213.463 179.957 213.491 179.949C213.538 179.94 213.502 179.854 213.432 179.814C213.392 179.791 212.496 179.5 211.443 179.167C207.938 178.067 207.577 177.94 206.336 177.361L205.707 177.066L205.603 176.873C205.55 176.769 205.409 176.486 205.297 176.243C205.153 175.924 205.108 175.798 205.149 175.797C205.179 175.794 205.332 175.866 205.488 175.956C206.532 176.559 208.767 177.44 211.194 178.214C212.535 178.64 214.235 179.062 214.203 178.963C214.199 178.941 212.984 178.523 211.502 178.031C210.023 177.542 208.55 177.035 208.233 176.909C207.244 176.513 205.62 175.733 205.115 175.413C204.819 175.222 204.742 175.117 204.511 174.562L204.356 174.189L205.198 174.651C206.485 175.353 207.547 175.833 209.463 176.571C209.994 176.776 210.784 177.082 211.22 177.253C211.739 177.459 212.038 177.559 212.086 177.547C212.149 177.53 212.126 177.513 211.872 177.391C211.716 177.317 211.063 177.033 210.428 176.763C209.325 176.297 208.568 175.957 207.283 175.356C206.662 175.067 204.361 173.795 204.146 173.626C204.018 173.524 203.771 173.074 203.636 172.709L203.582 172.556L204.609 173.169C206.206 174.128 207.756 174.889 209.734 175.695C209.994 175.8 210.21 175.889 210.219 175.894C210.229 175.899 210.247 175.881 210.263 175.854C210.289 175.809 210.257 175.786 210.002 175.659C208.971 175.153 206.643 173.878 205.03 172.93L203.272 171.899L203.15 171.723C203.083 171.628 202.942 171.38 202.841 171.176L202.653 170.805L202.98 170.969C203.159 171.06 203.856 171.435 204.527 171.798C206.672 172.963 208.149 173.723 209.44 174.326C210.008 174.594 210.896 174.989 210.918 174.986C210.938 174.98 208.438 173.489 207.546 172.974C206.548 172.397 205.692 171.855 204.67 171.151C204.257 170.868 203.544 170.4 203.084 170.114C201.877 169.365 201.845 169.33 201.14 167.999C200.903 167.559 200.707 167.187 200.705 167.178C200.682 167.104 200.862 167.236 201.714 167.926C202.244 168.358 202.792 168.8 202.93 168.912C203.321 169.226 204.317 169.976 204.451 170.053C204.527 170.097 204.571 170.106 204.579 170.078C204.582 170.052 204.292 169.787 203.863 169.426C202.155 167.991 200.375 166.4 200.13 166.092C199.944 165.859 199.542 165.178 199.566 165.135C199.577 165.117 199.6 165.106 199.615 165.115C199.63 165.124 200.576 165.889 201.718 166.815C202.859 167.741 203.821 168.515 203.855 168.534C203.964 168.598 203.972 168.485 203.864 168.378C203.806 168.324 203.715 168.235 203.664 168.182C203.609 168.13 202.91 167.527 202.111 166.844C199.957 165 199.229 164.349 199.025 164.098C198.773 163.782 198.459 163.257 198.542 163.289C198.577 163.305 198.973 163.618 199.417 163.988C201.027 165.327 201.696 165.834 202.326 166.19L202.678 166.389L202.062 165.839C201.724 165.539 200.771 164.693 199.949 163.967C198.867 163.015 198.453 162.634 198.471 162.604C198.501 162.552 198.466 162.528 199.157 163.089C200.512 164.187 201.009 164.555 201.863 165.101C202.18 165.304 202.339 165.388 202.366 165.375C202.386 165.362 202.395 165.339 202.387 165.318C202.377 165.3 202.053 165.025 201.674 164.704C198.155 161.766 197.07 160.77 195.579 159.12C194.066 157.445 192.695 156.002 192.22 155.581C191.832 155.24 190.782 154.403 190.695 154.369C190.58 154.323 190.562 154.41 190.649 154.549C190.695 154.616 191.11 155.03 191.575 155.468C192.809 156.634 193.357 157.238 194.453 158.632C195.78 160.326 196.479 161.442 199.371 166.493C202.181 171.398 203.783 174.283 205.515 177.539C207.221 180.743 207.565 181.35 208.376 182.637C208.985 183.6 209.978 184.966 210.841 186.031C211.391 186.709 212.589 188.057 213.18 188.657C213.811 189.301 214.019 189.531 214.213 189.8C214.473 190.165 214.435 190.232 213.877 190.404C213.391 190.557 212.996 190.572 211.775 190.486C211.078 190.436 210.573 190.424 210.268 190.446C209.73 190.492 209.29 190.461 208.853 190.346C208.268 190.199 205.468 189.052 204.702 188.65C204.18 188.373 203.884 188.153 203.13 187.471C202.865 187.233 202.474 186.898 202.261 186.726C201.154 185.844 200.173 184.824 198.947 183.291C198.36 182.551 198.046 182.074 197.632 181.28C197.187 180.428 197.063 180.263 196.018 179.113C195.636 178.699 195.233 178.117 194.867 177.457C194.523 176.837 193.972 175.985 193.483 175.321C192.066 173.394 191.097 171.741 189.993 169.379C189.753 168.867 189.008 167.344 188.336 165.993C186.449 162.202 186.337 161.96 185.46 159.753C185.21 159.118 184.794 158.081 184.541 157.444C183.469 154.765 182.849 153.147 182.662 152.529C182.275 151.265 182.22 151.136 182.07 151.114C181.949 151.093 181.916 151.268 181.968 151.707C181.996 151.946 182.001 152.148 181.979 152.151C181.92 152.169 176.52 149.008 176.125 148.722C175 147.915 174.237 147.268 173.448 146.448C173.307 146.298 172.863 145.859 172.462 145.47C171.614 144.64 171.506 144.525 171.238 144.139C170.578 143.188 170.32 142.095 170.382 140.524C170.396 140.22 170.402 139.766 170.398 139.52C170.367 138.02 170.352 137.842 170.266 137.865C170.251 137.869 170.214 138.256 170.185 138.729C170.155 139.202 170.121 139.591 170.107 139.595C170.094 139.596 170.026 139.208 169.958 138.728C169.705 136.93 169.538 136.327 169.013 135.275C168.27 133.793 166.769 132.048 165.029 130.646C164.662 130.354 164.495 130.249 162.174 128.877C160.817 128.077 159.544 127.31 159.344 127.17C159.145 127.031 158.697 126.716 158.347 126.473C157.408 125.813 157.263 125.721 155.201 124.47C153.245 123.28 153.085 123.172 152.531 122.661C152 122.169 151.342 121.36 151.027 120.801C150.879 120.538 150.876 120.536 151.679 121.275C153.333 122.805 154.586 123.763 156.114 124.681C157.125 125.285 157.559 125.504 157.618 125.436C157.672 125.371 157.469 125.209 156.503 124.534C153.762 122.623 152.925 122.035 152.749 121.897C151.912 121.231 150.743 119.783 150.015 118.512C149.728 118.011 149.678 117.832 149.774 117.664C149.89 117.464 150.158 117.408 150.655 117.481C151.064 117.539 151.348 117.646 151.942 117.952C152.614 118.3 152.838 118.368 153.576 118.454C154.304 118.543 154.5 118.603 154.941 118.874C155.846 119.429 155.981 119.483 156.611 119.539C157.611 119.626 158.268 119.924 158.948 120.609C159.149 120.809 159.265 120.897 159.56 121.067C159.986 121.313 160.182 121.382 160.984 121.553C161.298 121.621 161.779 121.737 162.049 121.811C162.529 121.943 162.558 121.956 163.075 122.254C163.593 122.553 163.623 122.579 163.958 122.906C164.297 123.239 164.322 123.258 164.872 123.571L165.437 123.893L166.205 124.11C167.496 124.475 168.309 124.803 169.62 125.486C171.319 126.374 171.453 126.423 173.664 126.967C175.585 127.436 176.111 127.614 176.817 128.022C177.719 128.547 178.25 129.048 179.274 130.347C180.334 131.696 181.394 132.762 182.689 133.781C184.261 135.017 185.553 135.795 188.004 136.991C188.484 137.228 189.279 137.63 189.767 137.888C190.697 138.38 191.749 138.906 192.71 139.364C193.538 139.757 195.326 140.619 195.933 140.917C196.77 141.331 199.575 142.927 200.852 143.716C202.156 144.522 203.135 145.148 205.461 146.665C206.355 147.246 207.337 147.886 207.643 148.087C211.823 150.804 213.382 151.878 217.346 154.762C220.202 156.84 221.574 157.774 224.644 159.733C225.11 160.03 226.353 160.772 227.422 161.389C229.498 162.588 229.799 162.741 231.288 163.374C232.719 163.982 235.208 164.916 236.676 165.396C240.001 166.485 243.512 167.35 251.137 168.962C254.751 169.725 255.273 169.84 255.981 170.027C256.905 170.268 258.031 170.639 259.424 171.164C260.167 171.439 260.331 171.505 263.001 172.597C265.73 173.711 266.663 174.072 267.321 174.282C267.905 174.465 268.044 174.492 268.024 174.42C268.019 174.393 267.636 174.229 264.855 173.04C264.204 172.762 263.666 172.528 263.666 172.52C263.661 172.509 266.052 170.419 266.751 169.827C268.571 168.278 269.699 167.54 271.312 166.848C272.054 166.527 272.675 166.315 273.534 166.086C275.098 165.669 276.374 165.539 277.911 165.633C278.526 165.672 278.64 165.685 278.621 165.719ZM230.532 160.375C230.717 160.554 230.803 160.819 230.949 161.656C231.029 162.107 231.087 162.493 231.08 162.505C231.022 162.605 227.107 160.43 225.47 159.392C224.666 158.879 223.508 158.109 223.502 158.077C223.495 158.053 223.574 158.07 225.023 158.409C226.76 158.816 227.65 159.075 228.823 159.525C229.955 159.961 230.273 160.12 230.532 160.375ZM150.251 120.6C150.512 121.034 150.926 121.553 151.474 122.136C151.711 122.387 152.087 122.79 152.315 123.035C153.008 123.775 153.48 124.181 154.25 124.711C154.513 124.887 155.863 125.678 158.011 126.914C161.943 129.172 162.87 129.752 164.141 130.729C166.249 132.351 167.778 134.181 168.814 136.322C169.161 137.037 169.26 137.308 169.501 138.185C169.712 138.95 169.752 139.148 169.7 139.162C169.685 139.166 169.29 138.444 168.815 137.558C168.342 136.669 167.948 135.939 167.938 135.934C167.929 135.929 167.943 136.067 167.964 136.241C168.03 136.704 168.017 136.704 167.714 136.274C167.428 135.87 167.312 135.621 167.132 135.019C167.051 134.737 166.954 134.455 166.922 134.384C166.866 134.262 166.781 134.185 166.756 134.227C166.748 134.243 166.799 134.519 166.866 134.845C166.932 135.175 166.983 135.452 166.974 135.467C166.917 135.567 166.667 135.156 166.545 134.761C166.486 134.561 166.398 134.32 166.352 134.225C166.262 134.043 166.148 133.876 166.119 133.883C166.109 133.886 166.166 134.077 166.243 134.308C166.324 134.54 166.375 134.74 166.359 134.755C166.309 134.799 166.096 134.648 165.936 134.454C165.855 134.355 165.645 133.987 165.47 133.63C165.295 133.278 165.129 132.976 165.102 132.96C165.041 132.925 165.043 132.934 165.24 133.445C165.322 133.654 165.385 133.84 165.382 133.859C165.373 133.91 165.128 133.708 164.959 133.509C164.879 133.415 164.64 133.042 164.424 132.678C164.172 132.249 164.022 132.025 163.988 132.034C163.931 132.049 163.919 132.006 164.141 132.466C164.241 132.678 164.332 132.872 164.339 132.896C164.364 132.98 163.925 132.657 163.77 132.475C163.689 132.383 163.478 132.116 163.3 131.883C162.906 131.364 162.872 131.324 162.84 131.379C162.826 131.403 162.874 131.524 162.949 131.648C163.14 131.977 163.106 132.002 162.805 131.756C162.715 131.68 161.551 130.926 160.221 130.081C156.942 127.998 154.256 126.261 153.396 125.676C152.706 125.204 152.434 124.918 151.812 124.032C150.829 122.622 150.293 121.609 150.055 120.693C149.996 120.465 149.953 120.266 149.955 120.247C149.971 120.171 150.051 120.27 150.251 120.6ZM149.549 120.563C149.545 120.585 149.457 120.583 149.355 120.556C149.251 120.533 148.762 120.416 148.268 120.301C147.774 120.186 147.154 120.031 146.889 119.955C146.169 119.754 146.047 119.76 145.911 119.997C145.767 120.246 145.935 120.805 146.287 121.243C146.515 121.524 146.82 121.79 147.927 122.656C150.52 124.683 150.322 124.54 151.892 125.491C154.288 126.944 155.112 127.464 158.84 129.871C163.543 132.911 164.256 133.399 165.2 134.216C166.632 135.455 167.957 137.055 168.793 138.553C169.276 139.411 169.725 140.861 169.695 141.447C169.636 142.506 169.961 143.617 170.597 144.539C171.192 145.393 172.338 146.423 174.013 147.6C175.746 148.816 179.747 151.348 180.857 151.929C181.984 152.514 182.037 152.549 182.116 152.68C182.157 152.743 182.235 152.967 182.287 153.171L182.388 153.545L182.249 153.489C182.096 153.425 179.315 152.034 178.325 151.527C177.502 151.105 175.876 150.166 175.302 149.782C173.47 148.554 171.934 147.186 170.643 145.634C170.271 145.189 170.089 144.934 169.365 143.868C169.025 143.368 168.73 142.951 168.705 142.937C168.525 142.841 169.461 144.482 170.073 145.342C171.24 146.983 172.348 148.024 174.586 149.595C175.111 149.959 180.776 153.335 181.247 153.559C181.378 153.622 181.712 153.766 181.986 153.876L182.488 154.081L182.551 154.218C182.586 154.291 182.707 154.644 182.82 154.997L183.026 155.638L182.704 155.465C182.526 155.366 181.699 154.949 180.867 154.534C178.124 153.169 177.757 152.981 176.808 152.461C175.841 151.928 175.195 151.514 174.598 151.052C173.764 150.408 171.464 148.429 170.733 147.727C170.057 147.078 169.417 146.218 168.836 145.178C168.576 144.708 167.633 142.832 167.16 141.838C167.06 141.618 166.958 141.442 166.942 141.449C166.856 141.472 167.038 142.302 167.237 142.781C167.544 143.521 168.72 145.589 169.41 146.603C170.494 148.197 172.321 150.017 174.012 151.187C174.308 151.391 174.702 151.622 175.346 151.97C175.846 152.242 177.24 153.027 178.438 153.714C180.613 154.966 181.364 155.367 182.383 155.83C183.162 156.183 183.395 156.398 183.598 156.94C183.643 157.072 183.76 157.342 183.85 157.536C183.943 157.735 184.019 157.912 184.019 157.933C184.023 158.004 184.201 158.095 179.184 155.445C175.198 153.338 172.782 151.834 170.957 150.327C168.286 148.12 166.361 145.669 165.177 142.96C165.026 142.61 164.749 141.88 164.153 140.219C164.005 139.802 163.862 139.452 163.841 139.44C163.634 139.32 163.927 140.246 164.819 142.539C165.679 144.748 166.725 146.466 168.279 148.217C169.856 149.999 172.169 151.933 174.585 153.498C175.728 154.239 176.894 154.884 179.994 156.504C182.602 157.864 182.692 157.904 183.653 158.244C183.935 158.346 184.208 158.568 184.412 158.868C184.579 159.114 184.955 159.967 184.915 160.009C184.882 160.038 183.137 159.327 182.2 158.903C181.086 158.401 180.641 158.173 179.255 157.397C177.244 156.268 175.986 155.465 173.578 153.767C172.889 153.28 172.095 152.721 171.817 152.528C170.496 151.603 169.402 150.672 168.269 149.499C165.999 147.16 164.123 144.51 162.822 141.815C162.458 141.054 162.08 140.168 161.922 139.697C161.842 139.456 161.605 138.679 161.396 137.972C161.035 136.755 160.755 135.877 160.722 135.857C160.649 135.815 160.737 136.344 160.938 137.156C161.478 139.327 162.405 141.631 163.803 144.265C165.223 146.943 166.967 149.124 169.429 151.287C170.476 152.207 171.326 152.844 172.939 153.925C173.44 154.258 174.298 154.839 174.85 155.218C175.732 155.829 176.004 155.998 177.13 156.648C178.435 157.397 178.929 157.658 181.131 158.752C182.957 159.66 183.475 159.894 184.378 160.221C185.095 160.477 185.187 160.563 185.432 161.186C185.505 161.37 185.708 161.848 185.883 162.248C186.054 162.647 186.192 162.985 186.19 162.996C186.183 163.008 185.711 162.756 185.143 162.44C184.501 162.082 183.664 161.647 182.948 161.299C182.312 160.988 181.398 160.546 180.919 160.314C178.292 159.036 176.455 157.951 174.533 156.541C173.935 156.107 170.332 153.294 169.551 152.657C168.183 151.539 166.814 150.178 165.012 148.145C163.207 146.111 162.671 145.429 161.658 143.901C160.879 142.727 159.731 140.885 159.476 140.406C158.557 138.665 157.967 136.635 157.674 134.219C157.619 133.75 157.552 133.108 157.527 132.786C157.496 132.396 157.463 132.194 157.426 132.173C157.374 132.143 157.366 132.158 157.323 132.401C157.175 133.226 157.293 134.934 157.586 136.233C158.072 138.38 158.922 140.24 160.597 142.786C162.44 145.591 164.53 148.235 166.975 150.862C168.23 152.21 169.671 153.483 171.919 155.235C174.447 157.204 176.938 158.773 180.256 160.478C181.671 161.205 184.692 162.743 185.559 163.175C185.966 163.377 186.343 163.567 186.395 163.596C186.468 163.639 186.596 163.867 186.941 164.584C187.188 165.099 187.404 165.56 187.417 165.608C187.445 165.693 187.443 165.696 187.362 165.669C187.317 165.655 186.557 165.298 185.671 164.879C184.786 164.457 183.861 164.02 183.616 163.903C183.077 163.657 176.245 159.7 175.096 158.976C173.107 157.718 169.928 155.357 168.012 153.712C166.3 152.242 164.539 150.504 162.93 148.693C159.462 144.795 157.15 141.039 155.826 137.165C155.421 135.983 154.986 134.226 154.835 133.188C154.8 132.932 154.716 132.199 154.653 131.564C154.451 129.593 154.424 129.435 154.324 129.609C154.277 129.691 154.21 130.256 154.182 130.782C154.077 133.025 154.53 135.15 155.765 138.178C157.207 141.712 159.089 144.738 162.055 148.276C164.638 151.359 167.163 153.728 170.94 156.613C174.222 159.119 174.921 159.588 178.093 161.378C181.229 163.153 182.004 163.56 184.658 164.841C185.985 165.481 186.268 165.609 187.037 165.923C187.476 166.104 187.677 166.199 187.719 166.252C187.791 166.338 188.592 167.882 188.63 168C188.653 168.079 188.631 168.074 188.259 167.904C187.658 167.63 183.214 165.514 182.408 165.117C180.617 164.241 180.394 164.12 178.685 163.129C175.789 161.453 172.981 159.63 170.922 158.085C168.823 156.512 165.637 153.96 164.58 153.006C163.246 151.802 162.162 150.557 160.169 147.957C156.684 143.406 155.583 141.742 154.54 139.463C154.094 138.493 153.832 137.807 153.164 135.871C152.131 132.873 151.763 131.24 151.637 129.089C151.595 128.43 151.559 128.211 151.513 128.382C151.505 128.418 151.483 128.491 151.467 128.546C151.415 128.714 151.542 130.962 151.648 131.769C151.768 132.651 152.073 133.767 152.592 135.217C152.716 135.564 152.909 136.109 153.025 136.422C154.409 140.295 155.194 141.853 157.171 144.679C159.528 148.048 160.525 149.345 162.235 151.268C164.199 153.483 165.328 154.466 169.795 157.859C172.884 160.206 173.664 160.733 177.027 162.767C178.794 163.832 180.203 164.613 181.395 165.184C181.72 165.339 182.848 165.881 183.905 166.39C187.083 167.917 187.608 168.16 188.296 168.395C188.892 168.601 188.913 168.613 188.982 168.718C189.121 168.928 189.902 170.415 189.888 170.44C189.869 170.473 189.812 170.452 189.009 170.127C188.299 169.838 187.1 169.251 183.344 167.362C179.09 165.218 177.792 164.542 176.34 163.703C174.724 162.77 174.22 162.434 171.65 160.586C166.891 157.166 165.148 155.763 163.613 154.12C163.379 153.871 160.683 150.687 159.437 149.19C156.255 145.373 155.746 144.63 153.946 141.161C153.078 139.494 151.544 136.329 151.177 135.453C150.455 133.724 150.077 131.825 150.06 129.823C150.056 129.542 150.046 129.179 150.034 129.018C150.012 128.69 149.838 127.516 149.796 127.412C149.762 127.331 149.697 127.289 149.67 127.335C149.648 127.374 149.59 129.252 149.586 130.096C149.585 130.759 149.642 131.708 149.71 132.152C149.904 133.418 150.326 134.783 150.991 136.317C151.725 138.02 153.688 141.761 154.857 143.695C156.543 146.483 157.316 147.472 161.913 152.705C164.336 155.468 164.787 155.875 169.327 159.407C172.707 162.039 173.298 162.449 175.759 163.874C176.663 164.396 177.879 165.073 178.461 165.381C182.163 167.34 183.112 167.827 184.949 168.73C187.646 170.056 188.251 170.329 189.619 170.827L190.267 171.063L190.536 171.49C191.331 172.743 191.366 172.808 191.246 172.811C191.213 172.812 188.919 171.978 187.735 171.533C185.69 170.765 183.795 169.935 181.711 168.89C178.902 167.478 175.079 165.291 173.459 164.166C172.056 163.194 170.131 161.79 169.175 161.04C167.078 159.4 165.44 157.928 163.434 155.871C162.755 155.176 160.201 152.478 159.527 151.741C158.576 150.702 157.277 149.134 156.395 147.956C153.458 144.038 150.565 138.861 148.726 134.244C148.066 132.588 147.714 131.096 147.406 128.655C147.267 127.539 147.145 126.767 147.102 126.743C147.032 126.694 146.999 126.76 146.948 127.051C146.91 127.28 146.914 127.582 146.969 128.33C147.105 130.231 147.233 131.114 147.547 132.328C147.94 133.855 148.307 134.779 149.412 137.013C151.806 141.857 153.679 144.955 156.406 148.57C158.47 151.308 161.085 154.321 163.344 156.56C165.222 158.426 168.116 160.886 170.708 162.816C173.362 164.798 176.508 166.837 177.973 167.525C178.209 167.637 179.08 168.091 179.906 168.536C182.954 170.174 184.157 170.699 189.106 172.531C190.388 173.004 190.414 173.015 191.103 173.158C191.422 173.224 191.595 173.276 191.643 173.32C191.748 173.425 192.711 175.188 192.678 175.217C192.628 175.261 190.882 174.877 190.234 174.677C188.323 174.092 186.74 173.502 185.095 172.766C184.75 172.612 184.06 172.315 183.567 172.107C181.064 171.051 180.388 170.697 177.145 168.727C172.227 165.746 171.601 165.296 167.235 161.625C165.271 159.972 163.366 158.322 162.46 157.487C159.8 155.036 156.951 151.703 153.944 147.525C151.797 144.545 149.917 141.313 148.715 138.55C148.068 137.055 147.758 136.159 147.258 134.36C147.042 133.575 146.816 132.777 146.758 132.59C146.451 131.61 146.169 130.545 145.981 129.675C145.733 128.523 145.299 126.216 145.131 125.143C145.044 124.571 145.001 124.392 144.946 124.36C144.876 124.32 144.876 124.328 144.858 124.661C144.826 125.194 145.11 127.816 145.339 129.142C145.462 129.857 145.776 131.091 145.969 131.636C146.207 132.3 146.402 132.939 146.747 134.191C147.137 135.603 147.226 135.885 147.49 136.608C147.878 137.666 148.313 138.65 148.967 139.942C151.225 144.425 153.444 147.739 157.757 153.055C159.922 155.731 161.865 157.731 164.625 160.134C166.24 161.541 170.205 164.72 171.478 165.629C171.803 165.861 172.506 166.365 173.044 166.748L174.021 167.446L176.015 168.597C177.846 169.65 178.834 170.196 181.191 171.444C182.503 172.137 182.946 172.348 183.816 172.696C184.26 172.876 184.928 173.16 185.304 173.332C186.757 173.993 188.556 174.687 189.847 175.081C190.779 175.364 192.028 175.599 192.473 175.572C192.827 175.55 193.025 175.685 193.24 176.092C193.311 176.222 193.457 176.469 193.569 176.634C193.675 176.801 193.755 176.952 193.74 176.964C193.696 177.004 192.645 176.87 192.109 176.759C191.272 176.584 189.604 176.155 188.411 175.81C185.449 174.951 183.548 174.194 179.897 172.418C179.281 172.115 178.426 171.698 177.997 171.491C176.893 170.95 174.677 169.671 173.857 169.101C170.027 166.427 167.036 164 164.171 161.237C162.289 159.421 161.213 158.298 158.628 155.441C157.811 154.536 156.933 153.576 156.682 153.301C155.689 152.23 154.936 151.277 153.801 149.637C152.94 148.4 149.973 143.901 149.654 143.356C148.355 141.128 147.262 138.213 146.149 134.032C145.397 131.2 144.882 128.332 144.517 124.942C144.274 122.664 144.285 122.027 144.58 121.213C144.763 120.72 145.307 119.855 145.519 119.719C145.726 119.587 146.052 119.577 146.428 119.685C146.546 119.72 146.915 119.804 147.243 119.876C147.913 120.016 149.416 120.422 149.502 120.484C149.534 120.506 149.554 120.542 149.549 120.563ZM149.778 121.335C149.82 121.388 149.926 121.647 150.017 121.911C150.118 122.208 150.352 122.731 150.622 123.268C150.863 123.751 151.059 124.156 151.052 124.168C151.031 124.205 149.438 123.273 148.975 122.957C147.957 122.26 147.124 121.447 146.587 120.619C146.36 120.273 146.362 120.27 146.599 120.261C147.107 120.238 147.629 120.346 148.184 120.593C148.486 120.731 149.664 121.229 149.694 121.234C149.699 121.233 149.737 121.279 149.778 121.335ZM151.662 147.176C151.637 147.169 151.601 147.148 151.586 147.132C151.57 147.11 151.589 147.113 151.631 147.138C151.674 147.162 151.686 147.177 151.662 147.176ZM152.257 148.086C152.704 148.85 153.193 149.537 154.943 151.856C156.08 153.366 156.286 153.615 156.923 154.29C158.568 156.03 160.996 158.553 162.056 159.627C165.732 163.349 169.629 166.667 173.064 168.999C175.155 170.417 176.791 171.337 179.926 172.86C180.405 173.092 181.146 173.454 181.571 173.667C184.434 175.085 186.387 175.751 190.901 176.839C191.5 176.983 192.101 177.131 192.236 177.164C192.552 177.242 192.936 177.281 193.422 177.275C193.633 177.275 193.844 177.283 193.888 177.297C193.95 177.316 194.079 177.487 194.394 177.961C194.791 178.567 195.085 178.935 195.656 179.536C195.838 179.726 195.867 179.775 195.808 179.765C195.67 179.751 192.853 178.978 191.426 178.567C186.003 177 182.641 175.617 179.106 173.508C176.787 172.124 171.61 168.767 170.037 167.632C167.895 166.084 164.454 163.158 162.334 161.079C159.461 158.266 156.912 155.406 154.966 152.821C154.382 152.046 153.688 150.908 152.329 148.496C151.805 147.562 151.705 147.362 151.74 147.301C151.764 147.259 151.812 147.331 152.257 148.086Z" fill="black"/>
<path d="M254.867 177.624C254.338 177.829 253.909 178.01 253.911 178.02C253.92 178.053 254.367 178.04 254.62 177.995C254.899 177.946 255.407 177.749 255.63 177.603C255.752 177.524 255.804 177.469 255.833 177.384C255.857 177.321 255.865 177.265 255.853 177.258C255.841 177.251 255.397 177.415 254.867 177.624Z" fill="black"/>
<path d="M254.638 176.872C254.545 176.858 250.965 177.533 250.88 177.581C250.62 177.722 250.843 177.73 251.741 177.608C253.733 177.337 254.162 177.261 254.481 177.129C254.731 177.027 254.784 176.992 254.761 176.947C254.73 176.888 254.724 176.885 254.638 176.872Z" fill="black"/>
<path d="M253.5 176.518C252.523 176.537 249.937 176.874 249.61 177.026C249.461 177.094 250.502 177.014 252.368 176.812C253.414 176.695 253.73 176.647 253.849 176.574C253.942 176.518 253.883 176.508 253.5 176.518Z" fill="black"/>
<path d="M158.607 126.053C158.342 126.062 158.979 126.498 161.211 127.835C164.672 129.911 164.81 130.002 165.913 130.939C166.11 131.105 166.32 131.275 166.383 131.32C166.488 131.392 166.503 131.393 166.542 131.326C166.616 131.199 166.358 130.949 165.434 130.257C164.282 129.398 164.083 129.259 163.201 128.705C162.175 128.064 158.691 126.049 158.607 126.053Z" fill="black"/>
<path d="M167.306 132.043C167.25 132.035 167.297 132.107 167.514 132.35C168.551 133.507 169.377 134.733 169.852 135.809C169.943 136.024 170.031 136.196 170.04 136.193C170.083 136.182 170.01 135.86 169.889 135.555C169.536 134.663 168.601 133.216 167.911 132.506C167.665 132.251 167.415 132.058 167.306 132.043Z" fill="black"/>
<path d="M245.185 177.934C242.848 177.982 242.225 177.978 239.743 177.905C238.354 177.865 238.179 177.865 238.246 177.904C238.282 177.925 239.224 178.031 239.651 178.063C240.413 178.122 245.135 178.204 245.559 178.166C245.837 178.14 246.566 178.002 246.584 177.972C246.591 177.96 246.58 177.937 246.56 177.93C246.538 177.917 245.92 177.921 245.185 177.934Z" fill="black"/>
<path d="M242.613 177.149C241.53 177.127 239.663 177.091 238.461 177.064C235.979 177.012 236.084 177.012 236.087 177.063C236.091 177.113 236.086 177.114 237.595 177.192C239.796 177.305 241.614 177.354 243.541 177.349C244.491 177.347 244.588 177.342 244.592 177.272C244.591 177.231 244.589 177.193 244.586 177.191C244.579 177.188 243.693 177.17 242.613 177.149Z" fill="black"/>
<path d="M244.741 178.904C244.158 178.973 243.402 179.059 243.058 179.099C242.689 179.141 242.454 179.183 242.481 179.207C242.6 179.316 243.9 179.273 244.742 179.136C245.335 179.036 245.926 178.856 245.829 178.799C245.817 178.792 245.326 178.841 244.741 178.904Z" fill="black"/>
<path d="M172.875 141.76C172.785 141.74 172.668 141.738 172.618 141.754C172.529 141.783 172.527 141.786 172.555 141.899C172.57 141.965 172.576 142.017 172.564 142.018C172.554 142.02 172.401 142.017 172.227 142.01C171.731 141.99 171.671 142.024 171.676 142.303C171.682 142.525 171.92 143.343 172.045 143.556C172.384 144.149 172.96 144.389 173.625 144.214C174.094 144.091 174.191 143.917 174.051 143.455C173.911 142.994 173.621 142.661 173.048 142.297C172.548 141.98 172.532 141.91 172.991 142.078C173.392 142.221 173.5 142.287 173.738 142.521C173.983 142.764 174.02 142.785 174.002 142.69C173.983 142.582 173.809 142.336 173.652 142.192C173.462 142.022 173.075 141.807 172.875 141.76ZM172.787 142.762C172.733 142.856 172.464 143.041 172.418 143.015C172.342 142.971 172.359 142.871 172.478 142.665C172.548 142.543 172.617 142.445 172.633 142.438C172.651 142.436 172.701 142.49 172.746 142.56C172.809 142.653 172.819 142.707 172.787 142.762ZM173.755 143.503C173.835 143.695 173.89 143.861 173.874 143.875C173.842 143.909 173.187 143.827 173.166 143.787C173.156 143.769 173.235 143.604 173.34 143.421C173.503 143.139 173.539 143.091 173.573 143.123C173.594 143.143 173.679 143.313 173.755 143.503Z" fill="black"/>
<path d="M237.882 180.511C237.134 180.52 235.469 180.429 234.303 180.319C233.146 180.206 232.268 180.096 229.066 179.66C228.485 179.584 227.593 179.47 227.082 179.405C224.23 179.059 222.27 178.615 217.092 177.136C216.195 176.877 215.477 176.686 215.501 176.708C215.558 176.757 216.514 177.118 217.595 177.496C223.511 179.559 229.511 180.597 235.547 180.604C236.724 180.603 238.219 180.559 238.152 180.521C238.132 180.513 238.014 180.506 237.882 180.511Z" fill="black"/>
<path d="M171.53 143.187C171.466 143.531 171.718 143.988 172.112 144.248C172.242 144.331 172.345 144.391 172.34 144.38C172.324 144.322 171.609 143.115 171.581 143.099C171.56 143.087 171.545 143.119 171.53 143.187Z" fill="black"/>
<path d="M206.278 168.358C206.348 168.475 207.065 168.934 207.578 169.185C208.453 169.618 208.348 169.517 207.263 168.886C206.578 168.491 206.257 168.317 206.278 168.358Z" fill="black"/>
<path d="M205.991 169.157C206.016 169.191 206.193 169.342 206.385 169.494C206.761 169.792 207.648 170.328 208.049 170.499C208.235 170.578 208.274 170.58 208.302 170.532C208.334 170.477 208.299 170.453 207.14 169.788C206.483 169.408 205.964 169.125 205.991 169.157Z" fill="black"/>
<path d="M223.295 180.066C223.223 180.057 222.647 179.979 222.016 179.891C221.385 179.802 220.642 179.697 220.365 179.658C220.087 179.619 219.411 179.524 218.863 179.447C217.751 179.291 217.678 179.285 217.893 179.369C218.273 179.519 219.742 179.78 221.317 179.977C221.931 180.052 223.191 180.14 223.347 180.116C223.48 180.096 223.47 180.086 223.295 180.066Z" fill="black"/>
<path d="M205.915 170.32C205.874 170.442 206.073 170.602 206.831 171.039C207.589 171.477 208.002 171.655 208.295 171.69C208.403 171.7 208.274 171.621 207.176 170.983C206.021 170.313 205.934 170.266 205.915 170.32Z" fill="black"/>
<path d="M198.311 168.221C198.284 168.267 198.283 168.262 199.227 169.904C200.462 172.059 200.823 172.729 202.292 175.626C203.053 177.126 203.387 177.736 203.447 177.722C203.515 177.705 203.261 177.166 201.748 174.114C199.444 169.471 199.287 169.182 198.629 168.45C198.427 168.224 198.344 168.164 198.311 168.221Z" fill="black"/>
<path d="M219.501 181.144C218.687 181.099 218.229 181.106 218.192 181.169C218.178 181.194 218.183 181.221 218.201 181.231C218.268 181.27 220.232 181.291 220.254 181.254C220.266 181.233 220.264 181.208 220.249 181.199C220.234 181.19 219.898 181.166 219.501 181.144Z" fill="black"/>
<path d="M204.83 179.877C204.765 179.913 204.885 180.197 205.114 180.56C205.412 181.027 205.701 181.364 205.741 181.294C205.753 181.273 204.933 179.888 204.894 179.865C204.882 179.858 204.855 179.863 204.83 179.877Z" fill="black"/>
<path d="M160.745 129.109C160.653 129.101 160.579 129.102 160.583 129.117C160.596 129.165 161.087 129.671 161.136 129.691C161.175 129.702 161.181 129.677 161.154 129.576C161.131 129.502 161.119 129.439 161.123 129.433C161.126 129.427 161.191 129.484 161.265 129.559C161.461 129.754 161.515 129.752 161.419 129.559C161.31 129.334 161.004 129.133 160.745 129.109Z" fill="black"/>
<path d="M159.642 128.796C159.619 128.808 159.607 128.837 159.61 128.859C159.626 128.909 160.394 129.716 160.464 129.757C160.491 129.772 160.526 129.76 160.546 129.727C160.572 129.682 160.51 129.605 160.175 129.266C159.95 129.043 159.751 128.839 159.727 128.817C159.705 128.792 159.665 128.785 159.642 128.796Z" fill="black"/>
<path d="M197.482 134.337C197.38 134.337 197.289 134.303 197.21 134.235C197.142 134.156 197.114 134.065 197.125 133.963L197.363 132.331H196.156C196.043 132.331 195.946 132.291 195.867 132.212C195.799 132.133 195.765 132.036 195.765 131.923V130.597C195.765 130.472 195.799 130.376 195.867 130.308C195.946 130.229 196.043 130.189 196.156 130.189H197.686L198.009 128.013H196.598C196.485 128.013 196.388 127.973 196.309 127.894C196.241 127.815 196.207 127.718 196.207 127.605V126.279C196.207 126.154 196.241 126.058 196.309 125.99C196.388 125.911 196.485 125.871 196.598 125.871H198.332L198.587 124.222C198.61 124.131 198.649 124.052 198.706 123.984C198.774 123.905 198.865 123.865 198.978 123.865H200.321C200.423 123.865 200.508 123.905 200.576 123.984C200.655 124.052 200.695 124.137 200.695 124.239L200.44 125.871H202.191L202.446 124.222C202.469 124.131 202.508 124.052 202.565 123.984C202.633 123.905 202.724 123.865 202.837 123.865H204.18C204.282 123.865 204.367 123.905 204.435 123.984C204.514 124.052 204.554 124.137 204.554 124.239L204.299 125.871H205.506C205.619 125.871 205.716 125.911 205.795 125.99C205.874 126.058 205.914 126.154 205.914 126.279V127.605C205.914 127.718 205.874 127.815 205.795 127.894C205.716 127.973 205.619 128.013 205.506 128.013H203.993L203.67 130.189H205.064C205.177 130.189 205.274 130.229 205.353 130.308C205.432 130.376 205.472 130.472 205.472 130.597V131.923C205.472 132.036 205.432 132.133 205.353 132.212C205.274 132.291 205.177 132.331 205.064 132.331H203.347L203.109 133.98C203.075 134.218 202.933 134.337 202.684 134.337H201.341C201.239 134.337 201.154 134.303 201.086 134.235C201.018 134.156 200.984 134.065 200.984 133.963L201.222 132.331H199.488L199.25 133.98C199.216 134.218 199.074 134.337 198.825 134.337H197.482ZM199.811 130.189H201.545L201.868 128.013H200.134L199.811 130.189ZM213.981 135.17C212.848 135.17 211.907 135.011 211.159 134.694C210.411 134.365 209.845 133.94 209.459 133.419C209.074 132.898 208.87 132.342 208.847 131.753C208.847 131.662 208.881 131.583 208.949 131.515C209.029 131.436 209.119 131.396 209.221 131.396H211.363C211.522 131.396 211.641 131.424 211.72 131.481C211.811 131.538 211.89 131.611 211.958 131.702C212.049 131.872 212.174 132.036 212.332 132.195C212.502 132.354 212.718 132.484 212.978 132.586C213.25 132.677 213.585 132.722 213.981 132.722C214.639 132.722 215.132 132.62 215.46 132.416C215.8 132.212 215.97 131.934 215.97 131.583C215.97 131.334 215.88 131.13 215.698 130.971C215.517 130.801 215.222 130.654 214.814 130.529C214.418 130.393 213.885 130.257 213.216 130.121C212.355 129.94 211.618 129.707 211.006 129.424C210.406 129.129 209.947 128.75 209.629 128.285C209.312 127.809 209.153 127.22 209.153 126.517C209.153 125.826 209.346 125.208 209.731 124.664C210.128 124.12 210.678 123.695 211.38 123.389C212.083 123.083 212.916 122.93 213.879 122.93C214.661 122.93 215.347 123.032 215.936 123.236C216.537 123.44 217.041 123.712 217.449 124.052C217.857 124.392 218.163 124.755 218.367 125.14C218.583 125.514 218.696 125.882 218.707 126.245C218.707 126.336 218.673 126.421 218.605 126.5C218.537 126.568 218.452 126.602 218.35 126.602H216.106C215.982 126.602 215.874 126.579 215.783 126.534C215.693 126.489 215.613 126.415 215.545 126.313C215.477 126.064 215.296 125.848 215.001 125.667C214.718 125.474 214.344 125.378 213.879 125.378C213.381 125.378 212.99 125.469 212.706 125.65C212.434 125.82 212.298 126.086 212.298 126.449C212.298 126.676 212.372 126.874 212.519 127.044C212.678 127.214 212.933 127.361 213.284 127.486C213.647 127.611 214.14 127.741 214.763 127.877C215.795 128.07 216.628 128.313 217.262 128.608C217.897 128.891 218.362 129.265 218.656 129.73C218.951 130.183 219.098 130.756 219.098 131.447C219.098 132.218 218.877 132.886 218.435 133.453C218.005 134.008 217.404 134.433 216.633 134.728C215.863 135.023 214.979 135.17 213.981 135.17ZM222.738 135C222.613 135 222.511 134.96 222.432 134.881C222.353 134.802 222.313 134.7 222.313 134.575V126.585C222.313 126.46 222.353 126.358 222.432 126.279C222.511 126.2 222.613 126.16 222.738 126.16H224.744C224.857 126.16 224.954 126.2 225.033 126.279C225.124 126.358 225.169 126.46 225.169 126.585V134.575C225.169 134.7 225.124 134.802 225.033 134.881C224.954 134.96 224.857 135 224.744 135H222.738ZM222.721 124.885C222.596 124.885 222.494 124.845 222.415 124.766C222.336 124.687 222.296 124.585 222.296 124.46V122.947C222.296 122.822 222.336 122.72 222.415 122.641C222.494 122.55 222.596 122.505 222.721 122.505H224.744C224.869 122.505 224.971 122.55 225.05 122.641C225.141 122.72 225.186 122.822 225.186 122.947V124.46C225.186 124.585 225.141 124.687 225.05 124.766C224.971 124.845 224.869 124.885 224.744 124.885H222.721ZM229.817 135C229.692 135 229.59 134.96 229.511 134.881C229.432 134.802 229.392 134.7 229.392 134.575V126.585C229.392 126.46 229.432 126.358 229.511 126.279C229.59 126.2 229.692 126.16 229.817 126.16H231.772C231.897 126.16 231.999 126.2 232.078 126.279C232.157 126.358 232.197 126.46 232.197 126.585V127.231C232.492 126.88 232.877 126.585 233.353 126.347C233.829 126.109 234.39 125.99 235.036 125.99C235.693 125.99 236.271 126.137 236.77 126.432C237.28 126.727 237.677 127.163 237.96 127.741C238.255 128.308 238.402 129.005 238.402 129.832V134.575C238.402 134.7 238.357 134.802 238.266 134.881C238.187 134.96 238.09 135 237.977 135H235.835C235.722 135 235.62 134.96 235.529 134.881C235.45 134.802 235.41 134.7 235.41 134.575V129.934C235.41 129.401 235.28 128.993 235.019 128.71C234.77 128.415 234.396 128.268 233.897 128.268C233.432 128.268 233.058 128.415 232.775 128.71C232.503 128.993 232.367 129.401 232.367 129.934V134.575C232.367 134.7 232.322 134.802 232.231 134.881C232.152 134.96 232.055 135 231.942 135H229.817ZM246.334 138.74C245.462 138.74 244.736 138.627 244.158 138.4C243.592 138.173 243.138 137.901 242.798 137.584C242.47 137.267 242.232 136.949 242.084 136.632C241.937 136.326 241.858 136.082 241.846 135.901C241.835 135.776 241.875 135.674 241.965 135.595C242.056 135.516 242.164 135.476 242.288 135.476H244.447C244.549 135.476 244.634 135.499 244.702 135.544C244.782 135.601 244.844 135.691 244.889 135.816C244.946 135.941 245.02 136.071 245.11 136.207C245.212 136.343 245.348 136.451 245.518 136.53C245.7 136.621 245.943 136.666 246.249 136.666C246.589 136.666 246.873 136.609 247.099 136.496C247.326 136.394 247.496 136.218 247.609 135.969C247.723 135.731 247.779 135.408 247.779 135V133.861C247.519 134.144 247.184 134.377 246.776 134.558C246.368 134.728 245.875 134.813 245.297 134.813C244.719 134.813 244.209 134.728 243.767 134.558C243.325 134.388 242.957 134.133 242.662 133.793C242.368 133.453 242.135 133.039 241.965 132.552C241.807 132.065 241.71 131.504 241.676 130.869C241.665 130.574 241.665 130.28 241.676 129.985C241.71 129.373 241.807 128.823 241.965 128.336C242.124 127.849 242.351 127.429 242.645 127.078C242.951 126.727 243.325 126.46 243.767 126.279C244.209 126.086 244.719 125.99 245.297 125.99C245.909 125.99 246.431 126.109 246.861 126.347C247.303 126.574 247.666 126.863 247.949 127.214V126.585C247.949 126.472 247.989 126.375 248.068 126.296C248.148 126.205 248.25 126.16 248.374 126.16H250.329C250.454 126.16 250.556 126.205 250.635 126.296C250.726 126.375 250.771 126.472 250.771 126.585V134.762C250.771 135.623 250.596 136.349 250.244 136.938C249.893 137.527 249.389 137.975 248.731 138.281C248.074 138.587 247.275 138.74 246.334 138.74ZM246.215 132.603C246.578 132.603 246.873 132.524 247.099 132.365C247.326 132.206 247.49 132.002 247.592 131.753C247.706 131.504 247.768 131.237 247.779 130.954C247.791 130.829 247.796 130.654 247.796 130.427C247.796 130.2 247.791 130.03 247.779 129.917C247.768 129.622 247.706 129.35 247.592 129.101C247.49 128.852 247.326 128.653 247.099 128.506C246.873 128.347 246.578 128.268 246.215 128.268C245.841 128.268 245.541 128.347 245.314 128.506C245.099 128.665 244.94 128.88 244.838 129.152C244.748 129.424 244.691 129.724 244.668 130.053C244.657 130.302 244.657 130.557 244.668 130.818C244.691 131.147 244.748 131.447 244.838 131.719C244.94 131.991 245.099 132.206 245.314 132.365C245.541 132.524 245.841 132.603 246.215 132.603ZM254.899 135C254.774 135 254.672 134.96 254.593 134.881C254.513 134.802 254.474 134.7 254.474 134.575V123.355C254.474 123.23 254.513 123.128 254.593 123.049C254.672 122.97 254.774 122.93 254.899 122.93H256.905C257.029 122.93 257.131 122.97 257.211 123.049C257.29 123.128 257.33 123.23 257.33 123.355V134.575C257.33 134.7 257.29 134.802 257.211 134.881C257.131 134.96 257.029 135 256.905 135H254.899ZM265.118 135.17C263.781 135.17 262.715 134.807 261.922 134.082C261.129 133.357 260.715 132.28 260.681 130.852C260.681 130.773 260.681 130.671 260.681 130.546C260.681 130.421 260.681 130.325 260.681 130.257C260.715 129.362 260.913 128.597 261.276 127.962C261.65 127.316 262.16 126.829 262.806 126.5C263.463 126.16 264.228 125.99 265.101 125.99C266.098 125.99 266.92 126.188 267.566 126.585C268.223 126.982 268.716 127.52 269.045 128.2C269.374 128.88 269.538 129.656 269.538 130.529V130.937C269.538 131.062 269.493 131.164 269.402 131.243C269.323 131.322 269.226 131.362 269.113 131.362H263.673C263.673 131.373 263.673 131.39 263.673 131.413C263.673 131.436 263.673 131.458 263.673 131.481C263.684 131.81 263.741 132.11 263.843 132.382C263.945 132.654 264.104 132.869 264.319 133.028C264.534 133.187 264.795 133.266 265.101 133.266C265.328 133.266 265.515 133.232 265.662 133.164C265.821 133.085 265.951 133 266.053 132.909C266.155 132.807 266.234 132.722 266.291 132.654C266.393 132.541 266.472 132.473 266.529 132.45C266.597 132.416 266.699 132.399 266.835 132.399H268.943C269.056 132.399 269.147 132.433 269.215 132.501C269.294 132.558 269.328 132.643 269.317 132.756C269.306 132.949 269.209 133.181 269.028 133.453C268.847 133.725 268.58 133.997 268.229 134.269C267.889 134.53 267.458 134.745 266.937 134.915C266.416 135.085 265.809 135.17 265.118 135.17ZM263.673 129.679H266.546V129.645C266.546 129.282 266.489 128.965 266.376 128.693C266.274 128.421 266.11 128.211 265.883 128.064C265.668 127.917 265.407 127.843 265.101 127.843C264.795 127.843 264.534 127.917 264.319 128.064C264.115 128.211 263.956 128.421 263.843 128.693C263.73 128.965 263.673 129.282 263.673 129.645V129.679ZM276.079 135.17C275.433 135.17 274.855 135.023 274.345 134.728C273.846 134.433 273.455 134.003 273.172 133.436C272.888 132.858 272.747 132.155 272.747 131.328V126.585C272.747 126.46 272.786 126.358 272.866 126.279C272.945 126.2 273.047 126.16 273.172 126.16H275.297C275.421 126.16 275.523 126.2 275.603 126.279C275.682 126.358 275.722 126.46 275.722 126.585V131.226C275.722 132.337 276.22 132.892 277.218 132.892C277.682 132.892 278.051 132.75 278.323 132.467C278.606 132.172 278.748 131.759 278.748 131.226V126.585C278.748 126.46 278.787 126.358 278.867 126.279C278.946 126.2 279.048 126.16 279.173 126.16H281.298C281.422 126.16 281.524 126.2 281.604 126.279C281.683 126.358 281.723 126.46 281.723 126.585V134.575C281.723 134.7 281.683 134.802 281.604 134.881C281.524 134.96 281.422 135 281.298 135H279.326C279.212 135 279.11 134.96 279.02 134.881C278.94 134.802 278.901 134.7 278.901 134.575V133.929C278.606 134.337 278.221 134.649 277.745 134.864C277.28 135.068 276.725 135.17 276.079 135.17ZM289.06 135.17C288.324 135.17 287.695 135.091 287.173 134.932C286.663 134.762 286.244 134.558 285.915 134.32C285.598 134.082 285.36 133.838 285.201 133.589C285.043 133.328 284.958 133.107 284.946 132.926C284.935 132.801 284.975 132.699 285.065 132.62C285.156 132.529 285.252 132.484 285.354 132.484H287.292C287.326 132.484 287.355 132.49 287.377 132.501C287.4 132.512 287.434 132.535 287.479 132.569C287.627 132.648 287.774 132.75 287.921 132.875C288.069 132.988 288.239 133.09 288.431 133.181C288.624 133.272 288.856 133.317 289.128 133.317C289.446 133.317 289.712 133.255 289.927 133.13C290.143 133.005 290.25 132.818 290.25 132.569C290.25 132.388 290.199 132.24 290.097 132.127C289.995 132.002 289.786 131.883 289.468 131.77C289.162 131.657 288.698 131.543 288.074 131.43C287.485 131.294 286.969 131.118 286.527 130.903C286.085 130.676 285.745 130.387 285.507 130.036C285.269 129.673 285.15 129.237 285.15 128.727C285.15 128.274 285.298 127.837 285.592 127.418C285.887 126.999 286.318 126.659 286.884 126.398C287.451 126.126 288.148 125.99 288.975 125.99C289.633 125.99 290.199 126.069 290.675 126.228C291.163 126.375 291.571 126.568 291.899 126.806C292.239 127.044 292.494 127.288 292.664 127.537C292.834 127.786 292.925 128.013 292.936 128.217C292.948 128.33 292.914 128.432 292.834 128.523C292.755 128.602 292.664 128.642 292.562 128.642H290.794C290.749 128.642 290.704 128.636 290.658 128.625C290.613 128.602 290.573 128.58 290.539 128.557C290.403 128.489 290.267 128.398 290.131 128.285C289.995 128.172 289.837 128.07 289.655 127.979C289.474 127.888 289.247 127.843 288.975 127.843C288.669 127.843 288.431 127.911 288.261 128.047C288.091 128.183 288.006 128.359 288.006 128.574C288.006 128.721 288.052 128.857 288.142 128.982C288.244 129.107 288.443 129.22 288.737 129.322C289.043 129.424 289.514 129.537 290.148 129.662C290.93 129.787 291.554 129.991 292.018 130.274C292.483 130.546 292.812 130.869 293.004 131.243C293.197 131.606 293.293 131.991 293.293 132.399C293.293 132.943 293.129 133.425 292.8 133.844C292.483 134.263 292.007 134.592 291.372 134.83C290.738 135.057 289.967 135.17 289.06 135.17ZM300.599 135.17C299.261 135.17 298.196 134.807 297.403 134.082C296.609 133.357 296.196 132.28 296.162 130.852C296.162 130.773 296.162 130.671 296.162 130.546C296.162 130.421 296.162 130.325 296.162 130.257C296.196 129.362 296.394 128.597 296.757 127.962C297.131 127.316 297.641 126.829 298.287 126.5C298.944 126.16 299.709 125.99 300.582 125.99C301.579 125.99 302.401 126.188 303.047 126.585C303.704 126.982 304.197 127.52 304.526 128.2C304.854 128.88 305.019 129.656 305.019 130.529V130.937C305.019 131.062 304.973 131.164 304.883 131.243C304.803 131.322 304.707 131.362 304.594 131.362H299.154C299.154 131.373 299.154 131.39 299.154 131.413C299.154 131.436 299.154 131.458 299.154 131.481C299.165 131.81 299.222 132.11 299.324 132.382C299.426 132.654 299.584 132.869 299.8 133.028C300.015 133.187 300.276 133.266 300.582 133.266C300.808 133.266 300.995 133.232 301.143 133.164C301.301 133.085 301.432 133 301.534 132.909C301.636 132.807 301.715 132.722 301.772 132.654C301.874 132.541 301.953 132.473 302.01 132.45C302.078 132.416 302.18 132.399 302.316 132.399H304.424C304.537 132.399 304.628 132.433 304.696 132.501C304.775 132.558 304.809 132.643 304.798 132.756C304.786 132.949 304.69 133.181 304.509 133.453C304.327 133.725 304.061 133.997 303.71 134.269C303.37 134.53 302.939 134.745 302.418 134.915C301.896 135.085 301.29 135.17 300.599 135.17ZM299.154 129.679H302.027V129.645C302.027 129.282 301.97 128.965 301.857 128.693C301.755 128.421 301.59 128.211 301.364 128.064C301.148 127.917 300.888 127.843 300.582 127.843C300.276 127.843 300.015 127.917 299.8 128.064C299.596 128.211 299.437 128.421 299.324 128.693C299.21 128.965 299.154 129.282 299.154 129.645V129.679ZM311.951 135.17C311.214 135.17 310.585 135.091 310.064 134.932C309.554 134.762 309.134 134.558 308.806 134.32C308.488 134.082 308.25 133.838 308.092 133.589C307.933 133.328 307.848 133.107 307.837 132.926C307.825 132.801 307.865 132.699 307.956 132.62C308.046 132.529 308.143 132.484 308.245 132.484H310.183C310.217 132.484 310.245 132.49 310.268 132.501C310.29 132.512 310.324 132.535 310.37 132.569C310.517 132.648 310.664 132.75 310.812 132.875C310.959 132.988 311.129 133.09 311.322 133.181C311.514 133.272 311.747 133.317 312.019 133.317C312.336 133.317 312.602 133.255 312.818 133.13C313.033 133.005 313.141 132.818 313.141 132.569C313.141 132.388 313.09 132.24 312.988 132.127C312.886 132.002 312.676 131.883 312.359 131.77C312.053 131.657 311.588 131.543 310.965 131.43C310.375 131.294 309.86 131.118 309.418 130.903C308.976 130.676 308.636 130.387 308.398 130.036C308.16 129.673 308.041 129.237 308.041 128.727C308.041 128.274 308.188 127.837 308.483 127.418C308.777 126.999 309.208 126.659 309.775 126.398C310.341 126.126 311.038 125.99 311.866 125.99C312.523 125.99 313.09 126.069 313.566 126.228C314.053 126.375 314.461 126.568 314.79 126.806C315.13 127.044 315.385 127.288 315.555 127.537C315.725 127.786 315.815 128.013 315.827 128.217C315.838 128.33 315.804 128.432 315.725 128.523C315.645 128.602 315.555 128.642 315.453 128.642H313.685C313.639 128.642 313.594 128.636 313.549 128.625C313.503 128.602 313.464 128.58 313.43 128.557C313.294 128.489 313.158 128.398 313.022 128.285C312.886 128.172 312.727 128.07 312.546 127.979C312.364 127.888 312.138 127.843 311.866 127.843C311.56 127.843 311.322 127.911 311.152 128.047C310.982 128.183 310.897 128.359 310.897 128.574C310.897 128.721 310.942 128.857 311.033 128.982C311.135 129.107 311.333 129.22 311.628 129.322C311.934 129.424 312.404 129.537 313.039 129.662C313.821 129.787 314.444 129.991 314.909 130.274C315.373 130.546 315.702 130.869 315.895 131.243C316.087 131.606 316.184 131.991 316.184 132.399C316.184 132.943 316.019 133.425 315.691 133.844C315.373 134.263 314.897 134.592 314.263 134.83C313.628 135.057 312.857 135.17 311.951 135.17ZM322.656 135.17C322.01 135.17 321.432 135.023 320.922 134.728C320.423 134.433 320.032 134.003 319.749 133.436C319.466 132.858 319.324 132.155 319.324 131.328V126.585C319.324 126.46 319.364 126.358 319.443 126.279C319.522 126.2 319.624 126.16 319.749 126.16H321.874C321.999 126.16 322.101 126.2 322.18 126.279C322.259 126.358 322.299 126.46 322.299 126.585V131.226C322.299 132.337 322.798 132.892 323.795 132.892C324.26 132.892 324.628 132.75 324.9 132.467C325.183 132.172 325.325 131.759 325.325 131.226V126.585C325.325 126.46 325.365 126.358 325.444 126.279C325.523 126.2 325.625 126.16 325.75 126.16H327.875C328 126.16 328.102 126.2 328.181 126.279C328.26 126.358 328.3 126.46 328.3 126.585V134.575C328.3 134.7 328.26 134.802 328.181 134.881C328.102 134.96 328 135 327.875 135H325.903C325.79 135 325.688 134.96 325.597 134.881C325.518 134.802 325.478 134.7 325.478 134.575V133.929C325.183 134.337 324.798 134.649 324.322 134.864C323.857 135.068 323.302 135.17 322.656 135.17ZM336.063 135.17C335.224 135.17 334.482 135.017 333.836 134.711C333.19 134.405 332.674 133.963 332.289 133.385C331.915 132.796 331.711 132.093 331.677 131.277C331.665 131.096 331.66 130.869 331.66 130.597C331.66 130.314 331.665 130.081 331.677 129.9C331.711 129.073 331.915 128.37 332.289 127.792C332.663 127.203 333.173 126.755 333.819 126.449C334.476 126.143 335.224 125.99 336.063 125.99C336.845 125.99 337.513 126.103 338.069 126.33C338.624 126.545 339.077 126.817 339.429 127.146C339.78 127.475 340.041 127.815 340.211 128.166C340.392 128.506 340.488 128.806 340.5 129.067C340.511 129.18 340.471 129.282 340.381 129.373C340.29 129.452 340.188 129.492 340.075 129.492H337.916C337.791 129.492 337.695 129.464 337.627 129.407C337.559 129.35 337.496 129.265 337.44 129.152C337.304 128.801 337.128 128.551 336.913 128.404C336.709 128.257 336.442 128.183 336.114 128.183C335.66 128.183 335.309 128.33 335.06 128.625C334.822 128.92 334.691 129.373 334.669 129.985C334.657 130.438 334.657 130.841 334.669 131.192C334.691 131.815 334.822 132.269 335.06 132.552C335.309 132.835 335.66 132.977 336.114 132.977C336.465 132.977 336.743 132.903 336.947 132.756C337.151 132.609 337.315 132.359 337.44 132.008C337.496 131.895 337.559 131.81 337.627 131.753C337.695 131.696 337.791 131.668 337.916 131.668H340.075C340.188 131.668 340.29 131.713 340.381 131.804C340.471 131.883 340.511 131.98 340.5 132.093C340.488 132.286 340.432 132.512 340.33 132.773C340.228 133.022 340.069 133.289 339.854 133.572C339.638 133.855 339.355 134.122 339.004 134.371C338.664 134.609 338.25 134.802 337.763 134.949C337.275 135.096 336.709 135.17 336.063 135.17ZM344.152 135C344.027 135 343.925 134.96 343.846 134.881C343.767 134.802 343.727 134.7 343.727 134.575V123.355C343.727 123.23 343.767 123.128 343.846 123.049C343.925 122.97 344.027 122.93 344.152 122.93H346.124C346.237 122.93 346.334 122.97 346.413 123.049C346.504 123.128 346.549 123.23 346.549 123.355V129.05L348.912 126.449C348.98 126.37 349.054 126.302 349.133 126.245C349.212 126.188 349.326 126.16 349.473 126.16H351.751C351.853 126.16 351.938 126.2 352.006 126.279C352.085 126.347 352.125 126.432 352.125 126.534C352.125 126.579 352.114 126.63 352.091 126.687C352.068 126.744 352.034 126.789 351.989 126.823L348.929 130.121L352.414 134.354C352.505 134.445 352.55 134.535 352.55 134.626C352.55 134.728 352.51 134.819 352.431 134.898C352.363 134.966 352.272 135 352.159 135H349.83C349.66 135 349.535 134.972 349.456 134.915C349.377 134.847 349.303 134.779 349.235 134.711L346.549 131.481V134.575C346.549 134.7 346.504 134.802 346.413 134.881C346.334 134.96 346.237 135 346.124 135H344.152ZM358.81 135.17C358.073 135.17 357.444 135.091 356.923 134.932C356.413 134.762 355.994 134.558 355.665 134.32C355.348 134.082 355.11 133.838 354.951 133.589C354.792 133.328 354.707 133.107 354.696 132.926C354.685 132.801 354.724 132.699 354.815 132.62C354.906 132.529 355.002 132.484 355.104 132.484H357.042C357.076 132.484 357.104 132.49 357.127 132.501C357.15 132.512 357.184 132.535 357.229 132.569C357.376 132.648 357.524 132.75 357.671 132.875C357.818 132.988 357.988 133.09 358.181 133.181C358.374 133.272 358.606 133.317 358.878 133.317C359.195 133.317 359.462 133.255 359.677 133.13C359.892 133.005 360 132.818 360 132.569C360 132.388 359.949 132.24 359.847 132.127C359.745 132.002 359.535 131.883 359.218 131.77C358.912 131.657 358.447 131.543 357.824 131.43C357.235 131.294 356.719 131.118 356.277 130.903C355.835 130.676 355.495 130.387 355.257 130.036C355.019 129.673 354.9 129.237 354.9 128.727C354.9 128.274 355.047 127.837 355.342 127.418C355.637 126.999 356.067 126.659 356.634 126.398C357.201 126.126 357.898 125.99 358.725 125.99C359.382 125.99 359.949 126.069 360.425 126.228C360.912 126.375 361.32 126.568 361.649 126.806C361.989 127.044 362.244 127.288 362.414 127.537C362.584 127.786 362.675 128.013 362.686 128.217C362.697 128.33 362.663 128.432 362.584 128.523C362.505 128.602 362.414 128.642 362.312 128.642H360.544C360.499 128.642 360.453 128.636 360.408 128.625C360.363 128.602 360.323 128.58 360.289 128.557C360.153 128.489 360.017 128.398 359.881 128.285C359.745 128.172 359.586 128.07 359.405 127.979C359.224 127.888 358.997 127.843 358.725 127.843C358.419 127.843 358.181 127.911 358.011 128.047C357.841 128.183 357.756 128.359 357.756 128.574C357.756 128.721 357.801 128.857 357.892 128.982C357.994 129.107 358.192 129.22 358.487 129.322C358.793 129.424 359.263 129.537 359.898 129.662C360.68 129.787 361.303 129.991 361.768 130.274C362.233 130.546 362.561 130.869 362.754 131.243C362.947 131.606 363.043 131.991 363.043 132.399C363.043 132.943 362.879 133.425 362.55 133.844C362.233 134.263 361.757 134.592 361.122 134.83C360.487 135.057 359.717 135.17 358.81 135.17Z" fill="black"/>
</svg>
