<svg width="285" height="237" viewBox="0 0 285 237" fill="none" xmlns="http://www.w3.org/2000/svg">
<rect x="81" y="61" width="204" height="78" fill="#FF7555"/>
<path d="M97.482 104.337C97.38 104.337 97.2893 104.303 97.21 104.235C97.142 104.156 97.1137 104.065 97.125 103.963L97.363 102.331H96.156C96.0427 102.331 95.9463 102.291 95.867 102.212C95.799 102.133 95.765 102.036 95.765 101.923V100.597C95.765 100.472 95.799 100.376 95.867 100.308C95.9463 100.229 96.0427 100.189 96.156 100.189H97.686L98.009 98.013H96.598C96.4847 98.013 96.3883 97.9733 96.309 97.894C96.241 97.8147 96.207 97.7183 96.207 97.605V96.279C96.207 96.1543 96.241 96.058 96.309 95.99C96.3883 95.9107 96.4847 95.871 96.598 95.871H98.332L98.587 94.222C98.6097 94.1313 98.6493 94.052 98.706 93.984C98.774 93.9047 98.8647 93.865 98.978 93.865H100.321C100.423 93.865 100.508 93.9047 100.576 93.984C100.655 94.052 100.695 94.137 100.695 94.239L100.44 95.871H102.191L102.446 94.222C102.469 94.1313 102.508 94.052 102.565 93.984C102.633 93.9047 102.724 93.865 102.837 93.865H104.18C104.282 93.865 104.367 93.9047 104.435 93.984C104.514 94.052 104.554 94.137 104.554 94.239L104.299 95.871H105.506C105.619 95.871 105.716 95.9107 105.795 95.99C105.874 96.058 105.914 96.1543 105.914 96.279V97.605C105.914 97.7183 105.874 97.8147 105.795 97.894C105.716 97.9733 105.619 98.013 105.506 98.013H103.993L103.67 100.189H105.064C105.177 100.189 105.274 100.229 105.353 100.308C105.432 100.376 105.472 100.472 105.472 100.597V101.923C105.472 102.036 105.432 102.133 105.353 102.212C105.274 102.291 105.177 102.331 105.064 102.331H103.347L103.109 103.98C103.075 104.218 102.933 104.337 102.684 104.337H101.341C101.239 104.337 101.154 104.303 101.086 104.235C101.018 104.156 100.984 104.065 100.984 103.963L101.222 102.331H99.488L99.25 103.98C99.216 104.218 99.0743 104.337 98.825 104.337H97.482ZM99.811 100.189H101.545L101.868 98.013H100.134L99.811 100.189ZM113.981 105.17C112.848 105.17 111.907 105.011 111.159 104.694C110.411 104.365 109.845 103.94 109.459 103.419C109.074 102.898 108.87 102.342 108.847 101.753C108.847 101.662 108.881 101.583 108.949 101.515C109.029 101.436 109.119 101.396 109.221 101.396H111.363C111.522 101.396 111.641 101.424 111.72 101.481C111.811 101.538 111.89 101.611 111.958 101.702C112.049 101.872 112.174 102.036 112.332 102.195C112.502 102.354 112.718 102.484 112.978 102.586C113.25 102.677 113.585 102.722 113.981 102.722C114.639 102.722 115.132 102.62 115.46 102.416C115.8 102.212 115.97 101.934 115.97 101.583C115.97 101.334 115.88 101.13 115.698 100.971C115.517 100.801 115.222 100.654 114.814 100.529C114.418 100.393 113.885 100.257 113.216 100.121C112.355 99.9397 111.618 99.7073 111.006 99.424C110.406 99.1293 109.947 98.7497 109.629 98.285C109.312 97.809 109.153 97.2197 109.153 96.517C109.153 95.8257 109.346 95.208 109.731 94.664C110.128 94.12 110.678 93.695 111.38 93.389C112.083 93.083 112.916 92.93 113.879 92.93C114.661 92.93 115.347 93.032 115.936 93.236C116.537 93.44 117.041 93.712 117.449 94.052C117.857 94.392 118.163 94.7547 118.367 95.14C118.583 95.514 118.696 95.8823 118.707 96.245C118.707 96.3357 118.673 96.4207 118.605 96.5C118.537 96.568 118.452 96.602 118.35 96.602H116.106C115.982 96.602 115.874 96.5793 115.783 96.534C115.693 96.4887 115.613 96.415 115.545 96.313C115.477 96.0637 115.296 95.8483 115.001 95.667C114.718 95.4743 114.344 95.378 113.879 95.378C113.381 95.378 112.99 95.4687 112.706 95.65C112.434 95.82 112.298 96.0863 112.298 96.449C112.298 96.6757 112.372 96.874 112.519 97.044C112.678 97.214 112.933 97.3613 113.284 97.486C113.647 97.6107 114.14 97.741 114.763 97.877C115.795 98.0697 116.628 98.3133 117.262 98.608C117.897 98.8913 118.362 99.2653 118.656 99.73C118.951 100.183 119.098 100.756 119.098 101.447C119.098 102.218 118.877 102.886 118.435 103.453C118.005 104.008 117.404 104.433 116.633 104.728C115.863 105.023 114.979 105.17 113.981 105.17ZM122.738 105C122.613 105 122.511 104.96 122.432 104.881C122.353 104.802 122.313 104.7 122.313 104.575V96.585C122.313 96.4603 122.353 96.3583 122.432 96.279C122.511 96.1997 122.613 96.16 122.738 96.16H124.744C124.857 96.16 124.954 96.1997 125.033 96.279C125.124 96.3583 125.169 96.4603 125.169 96.585V104.575C125.169 104.7 125.124 104.802 125.033 104.881C124.954 104.96 124.857 105 124.744 105H122.738ZM122.721 94.885C122.596 94.885 122.494 94.8453 122.415 94.766C122.336 94.6867 122.296 94.5847 122.296 94.46V92.947C122.296 92.8223 122.336 92.7203 122.415 92.641C122.494 92.5503 122.596 92.505 122.721 92.505H124.744C124.869 92.505 124.971 92.5503 125.05 92.641C125.141 92.7203 125.186 92.8223 125.186 92.947V94.46C125.186 94.5847 125.141 94.6867 125.05 94.766C124.971 94.8453 124.869 94.885 124.744 94.885H122.721ZM129.817 105C129.692 105 129.59 104.96 129.511 104.881C129.432 104.802 129.392 104.7 129.392 104.575V96.585C129.392 96.4603 129.432 96.3583 129.511 96.279C129.59 96.1997 129.692 96.16 129.817 96.16H131.772C131.897 96.16 131.999 96.1997 132.078 96.279C132.157 96.3583 132.197 96.4603 132.197 96.585V97.231C132.492 96.8797 132.877 96.585 133.353 96.347C133.829 96.109 134.39 95.99 135.036 95.99C135.693 95.99 136.271 96.1373 136.77 96.432C137.28 96.7267 137.677 97.163 137.96 97.741C138.255 98.3077 138.402 99.0047 138.402 99.832V104.575C138.402 104.7 138.357 104.802 138.266 104.881C138.187 104.96 138.09 105 137.977 105H135.835C135.722 105 135.62 104.96 135.529 104.881C135.45 104.802 135.41 104.7 135.41 104.575V99.934C135.41 99.4013 135.28 98.9933 135.019 98.71C134.77 98.4153 134.396 98.268 133.897 98.268C133.432 98.268 133.058 98.4153 132.775 98.71C132.503 98.9933 132.367 99.4013 132.367 99.934V104.575C132.367 104.7 132.322 104.802 132.231 104.881C132.152 104.96 132.055 105 131.942 105H129.817ZM146.334 108.74C145.462 108.74 144.736 108.627 144.158 108.4C143.592 108.173 143.138 107.901 142.798 107.584C142.47 107.267 142.232 106.949 142.084 106.632C141.937 106.326 141.858 106.082 141.846 105.901C141.835 105.776 141.875 105.674 141.965 105.595C142.056 105.516 142.164 105.476 142.288 105.476H144.447C144.549 105.476 144.634 105.499 144.702 105.544C144.782 105.601 144.844 105.691 144.889 105.816C144.946 105.941 145.02 106.071 145.11 106.207C145.212 106.343 145.348 106.451 145.518 106.53C145.7 106.621 145.943 106.666 146.249 106.666C146.589 106.666 146.873 106.609 147.099 106.496C147.326 106.394 147.496 106.218 147.609 105.969C147.723 105.731 147.779 105.408 147.779 105V103.861C147.519 104.144 147.184 104.377 146.776 104.558C146.368 104.728 145.875 104.813 145.297 104.813C144.719 104.813 144.209 104.728 143.767 104.558C143.325 104.388 142.957 104.133 142.662 103.793C142.368 103.453 142.135 103.039 141.965 102.552C141.807 102.065 141.71 101.504 141.676 100.869C141.665 100.574 141.665 100.28 141.676 99.985C141.71 99.373 141.807 98.8233 141.965 98.336C142.124 97.8487 142.351 97.4293 142.645 97.078C142.951 96.7267 143.325 96.4603 143.767 96.279C144.209 96.0863 144.719 95.99 145.297 95.99C145.909 95.99 146.431 96.109 146.861 96.347C147.303 96.5737 147.666 96.8627 147.949 97.214V96.585C147.949 96.4717 147.989 96.3753 148.068 96.296C148.148 96.2053 148.25 96.16 148.374 96.16H150.329C150.454 96.16 150.556 96.2053 150.635 96.296C150.726 96.3753 150.771 96.4717 150.771 96.585V104.762C150.771 105.623 150.596 106.349 150.244 106.938C149.893 107.527 149.389 107.975 148.731 108.281C148.074 108.587 147.275 108.74 146.334 108.74ZM146.215 102.603C146.578 102.603 146.873 102.524 147.099 102.365C147.326 102.206 147.49 102.002 147.592 101.753C147.706 101.504 147.768 101.237 147.779 100.954C147.791 100.829 147.796 100.654 147.796 100.427C147.796 100.2 147.791 100.03 147.779 99.917C147.768 99.6223 147.706 99.3503 147.592 99.101C147.49 98.8517 147.326 98.6533 147.099 98.506C146.873 98.3473 146.578 98.268 146.215 98.268C145.841 98.268 145.541 98.3473 145.314 98.506C145.099 98.6647 144.94 98.88 144.838 99.152C144.748 99.424 144.691 99.7243 144.668 100.053C144.657 100.302 144.657 100.557 144.668 100.818C144.691 101.147 144.748 101.447 144.838 101.719C144.94 101.991 145.099 102.206 145.314 102.365C145.541 102.524 145.841 102.603 146.215 102.603ZM154.899 105C154.774 105 154.672 104.96 154.593 104.881C154.513 104.802 154.474 104.7 154.474 104.575V93.355C154.474 93.2303 154.513 93.1283 154.593 93.049C154.672 92.9697 154.774 92.93 154.899 92.93H156.905C157.029 92.93 157.131 92.9697 157.211 93.049C157.29 93.1283 157.33 93.2303 157.33 93.355V104.575C157.33 104.7 157.29 104.802 157.211 104.881C157.131 104.96 157.029 105 156.905 105H154.899ZM165.118 105.17C163.781 105.17 162.715 104.807 161.922 104.082C161.129 103.357 160.715 102.28 160.681 100.852C160.681 100.773 160.681 100.671 160.681 100.546C160.681 100.421 160.681 100.325 160.681 100.257C160.715 99.3617 160.913 98.5967 161.276 97.962C161.65 97.316 162.16 96.8287 162.806 96.5C163.463 96.16 164.228 95.99 165.101 95.99C166.098 95.99 166.92 96.1883 167.566 96.585C168.223 96.9817 168.716 97.52 169.045 98.2C169.374 98.88 169.538 99.6563 169.538 100.529V100.937C169.538 101.062 169.493 101.164 169.402 101.243C169.323 101.322 169.226 101.362 169.113 101.362H163.673C163.673 101.373 163.673 101.39 163.673 101.413C163.673 101.436 163.673 101.458 163.673 101.481C163.684 101.81 163.741 102.11 163.843 102.382C163.945 102.654 164.104 102.869 164.319 103.028C164.534 103.187 164.795 103.266 165.101 103.266C165.328 103.266 165.515 103.232 165.662 103.164C165.821 103.085 165.951 103 166.053 102.909C166.155 102.807 166.234 102.722 166.291 102.654C166.393 102.541 166.472 102.473 166.529 102.45C166.597 102.416 166.699 102.399 166.835 102.399H168.943C169.056 102.399 169.147 102.433 169.215 102.501C169.294 102.558 169.328 102.643 169.317 102.756C169.306 102.949 169.209 103.181 169.028 103.453C168.847 103.725 168.58 103.997 168.229 104.269C167.889 104.53 167.458 104.745 166.937 104.915C166.416 105.085 165.809 105.17 165.118 105.17ZM163.673 99.679H166.546V99.645C166.546 99.2823 166.489 98.965 166.376 98.693C166.274 98.421 166.11 98.2113 165.883 98.064C165.668 97.9167 165.407 97.843 165.101 97.843C164.795 97.843 164.534 97.9167 164.319 98.064C164.115 98.2113 163.956 98.421 163.843 98.693C163.73 98.965 163.673 99.2823 163.673 99.645V99.679ZM176.079 105.17C175.433 105.17 174.855 105.023 174.345 104.728C173.846 104.433 173.455 104.003 173.172 103.436C172.888 102.858 172.747 102.155 172.747 101.328V96.585C172.747 96.4603 172.786 96.3583 172.866 96.279C172.945 96.1997 173.047 96.16 173.172 96.16H175.297C175.421 96.16 175.523 96.1997 175.603 96.279C175.682 96.3583 175.722 96.4603 175.722 96.585V101.226C175.722 102.337 176.22 102.892 177.218 102.892C177.682 102.892 178.051 102.75 178.323 102.467C178.606 102.172 178.748 101.759 178.748 101.226V96.585C178.748 96.4603 178.787 96.3583 178.867 96.279C178.946 96.1997 179.048 96.16 179.173 96.16H181.298C181.422 96.16 181.524 96.1997 181.604 96.279C181.683 96.3583 181.723 96.4603 181.723 96.585V104.575C181.723 104.7 181.683 104.802 181.604 104.881C181.524 104.96 181.422 105 181.298 105H179.326C179.212 105 179.11 104.96 179.02 104.881C178.94 104.802 178.901 104.7 178.901 104.575V103.929C178.606 104.337 178.221 104.649 177.745 104.864C177.28 105.068 176.725 105.17 176.079 105.17ZM189.06 105.17C188.324 105.17 187.695 105.091 187.173 104.932C186.663 104.762 186.244 104.558 185.915 104.32C185.598 104.082 185.36 103.838 185.201 103.589C185.043 103.328 184.958 103.107 184.946 102.926C184.935 102.801 184.975 102.699 185.065 102.62C185.156 102.529 185.252 102.484 185.354 102.484H187.292C187.326 102.484 187.355 102.49 187.377 102.501C187.4 102.512 187.434 102.535 187.479 102.569C187.627 102.648 187.774 102.75 187.921 102.875C188.069 102.988 188.239 103.09 188.431 103.181C188.624 103.272 188.856 103.317 189.128 103.317C189.446 103.317 189.712 103.255 189.927 103.13C190.143 103.005 190.25 102.818 190.25 102.569C190.25 102.388 190.199 102.24 190.097 102.127C189.995 102.002 189.786 101.883 189.468 101.77C189.162 101.657 188.698 101.543 188.074 101.43C187.485 101.294 186.969 101.118 186.527 100.903C186.085 100.676 185.745 100.387 185.507 100.036C185.269 99.6733 185.15 99.237 185.15 98.727C185.15 98.2737 185.298 97.8373 185.592 97.418C185.887 96.9987 186.318 96.6587 186.884 96.398C187.451 96.126 188.148 95.99 188.975 95.99C189.633 95.99 190.199 96.0693 190.675 96.228C191.163 96.3753 191.571 96.568 191.899 96.806C192.239 97.044 192.494 97.2877 192.664 97.537C192.834 97.7863 192.925 98.013 192.936 98.217C192.948 98.3303 192.914 98.4323 192.834 98.523C192.755 98.6023 192.664 98.642 192.562 98.642H190.794C190.749 98.642 190.704 98.6363 190.658 98.625C190.613 98.6023 190.573 98.5797 190.539 98.557C190.403 98.489 190.267 98.3983 190.131 98.285C189.995 98.1717 189.837 98.0697 189.655 97.979C189.474 97.8883 189.247 97.843 188.975 97.843C188.669 97.843 188.431 97.911 188.261 98.047C188.091 98.183 188.006 98.3587 188.006 98.574C188.006 98.7213 188.052 98.8573 188.142 98.982C188.244 99.1067 188.443 99.22 188.737 99.322C189.043 99.424 189.514 99.5373 190.148 99.662C190.93 99.7867 191.554 99.9907 192.018 100.274C192.483 100.546 192.812 100.869 193.004 101.243C193.197 101.606 193.293 101.991 193.293 102.399C193.293 102.943 193.129 103.425 192.8 103.844C192.483 104.263 192.007 104.592 191.372 104.83C190.738 105.057 189.967 105.17 189.06 105.17ZM200.599 105.17C199.261 105.17 198.196 104.807 197.403 104.082C196.609 103.357 196.196 102.28 196.162 100.852C196.162 100.773 196.162 100.671 196.162 100.546C196.162 100.421 196.162 100.325 196.162 100.257C196.196 99.3617 196.394 98.5967 196.757 97.962C197.131 97.316 197.641 96.8287 198.287 96.5C198.944 96.16 199.709 95.99 200.582 95.99C201.579 95.99 202.401 96.1883 203.047 96.585C203.704 96.9817 204.197 97.52 204.526 98.2C204.854 98.88 205.019 99.6563 205.019 100.529V100.937C205.019 101.062 204.973 101.164 204.883 101.243C204.803 101.322 204.707 101.362 204.594 101.362H199.154C199.154 101.373 199.154 101.39 199.154 101.413C199.154 101.436 199.154 101.458 199.154 101.481C199.165 101.81 199.222 102.11 199.324 102.382C199.426 102.654 199.584 102.869 199.8 103.028C200.015 103.187 200.276 103.266 200.582 103.266C200.808 103.266 200.995 103.232 201.143 103.164C201.301 103.085 201.432 103 201.534 102.909C201.636 102.807 201.715 102.722 201.772 102.654C201.874 102.541 201.953 102.473 202.01 102.45C202.078 102.416 202.18 102.399 202.316 102.399H204.424C204.537 102.399 204.628 102.433 204.696 102.501C204.775 102.558 204.809 102.643 204.798 102.756C204.786 102.949 204.69 103.181 204.509 103.453C204.327 103.725 204.061 103.997 203.71 104.269C203.37 104.53 202.939 104.745 202.418 104.915C201.896 105.085 201.29 105.17 200.599 105.17ZM199.154 99.679H202.027V99.645C202.027 99.2823 201.97 98.965 201.857 98.693C201.755 98.421 201.59 98.2113 201.364 98.064C201.148 97.9167 200.888 97.843 200.582 97.843C200.276 97.843 200.015 97.9167 199.8 98.064C199.596 98.2113 199.437 98.421 199.324 98.693C199.21 98.965 199.154 99.2823 199.154 99.645V99.679ZM211.951 105.17C211.214 105.17 210.585 105.091 210.064 104.932C209.554 104.762 209.134 104.558 208.806 104.32C208.488 104.082 208.25 103.838 208.092 103.589C207.933 103.328 207.848 103.107 207.837 102.926C207.825 102.801 207.865 102.699 207.956 102.62C208.046 102.529 208.143 102.484 208.245 102.484H210.183C210.217 102.484 210.245 102.49 210.268 102.501C210.29 102.512 210.324 102.535 210.37 102.569C210.517 102.648 210.664 102.75 210.812 102.875C210.959 102.988 211.129 103.09 211.322 103.181C211.514 103.272 211.747 103.317 212.019 103.317C212.336 103.317 212.602 103.255 212.818 103.13C213.033 103.005 213.141 102.818 213.141 102.569C213.141 102.388 213.09 102.24 212.988 102.127C212.886 102.002 212.676 101.883 212.359 101.77C212.053 101.657 211.588 101.543 210.965 101.43C210.375 101.294 209.86 101.118 209.418 100.903C208.976 100.676 208.636 100.387 208.398 100.036C208.16 99.6733 208.041 99.237 208.041 98.727C208.041 98.2737 208.188 97.8373 208.483 97.418C208.777 96.9987 209.208 96.6587 209.775 96.398C210.341 96.126 211.038 95.99 211.866 95.99C212.523 95.99 213.09 96.0693 213.566 96.228C214.053 96.3753 214.461 96.568 214.79 96.806C215.13 97.044 215.385 97.2877 215.555 97.537C215.725 97.7863 215.815 98.013 215.827 98.217C215.838 98.3303 215.804 98.4323 215.725 98.523C215.645 98.6023 215.555 98.642 215.453 98.642H213.685C213.639 98.642 213.594 98.6363 213.549 98.625C213.503 98.6023 213.464 98.5797 213.43 98.557C213.294 98.489 213.158 98.3983 213.022 98.285C212.886 98.1717 212.727 98.0697 212.546 97.979C212.364 97.8883 212.138 97.843 211.866 97.843C211.56 97.843 211.322 97.911 211.152 98.047C210.982 98.183 210.897 98.3587 210.897 98.574C210.897 98.7213 210.942 98.8573 211.033 98.982C211.135 99.1067 211.333 99.22 211.628 99.322C211.934 99.424 212.404 99.5373 213.039 99.662C213.821 99.7867 214.444 99.9907 214.909 100.274C215.373 100.546 215.702 100.869 215.895 101.243C216.087 101.606 216.184 101.991 216.184 102.399C216.184 102.943 216.019 103.425 215.691 103.844C215.373 104.263 214.897 104.592 214.263 104.83C213.628 105.057 212.857 105.17 211.951 105.17ZM222.656 105.17C222.01 105.17 221.432 105.023 220.922 104.728C220.423 104.433 220.032 104.003 219.749 103.436C219.466 102.858 219.324 102.155 219.324 101.328V96.585C219.324 96.4603 219.364 96.3583 219.443 96.279C219.522 96.1997 219.624 96.16 219.749 96.16H221.874C221.999 96.16 222.101 96.1997 222.18 96.279C222.259 96.3583 222.299 96.4603 222.299 96.585V101.226C222.299 102.337 222.798 102.892 223.795 102.892C224.26 102.892 224.628 102.75 224.9 102.467C225.183 102.172 225.325 101.759 225.325 101.226V96.585C225.325 96.4603 225.365 96.3583 225.444 96.279C225.523 96.1997 225.625 96.16 225.75 96.16H227.875C228 96.16 228.102 96.1997 228.181 96.279C228.26 96.3583 228.3 96.4603 228.3 96.585V104.575C228.3 104.7 228.26 104.802 228.181 104.881C228.102 104.96 228 105 227.875 105H225.903C225.79 105 225.688 104.96 225.597 104.881C225.518 104.802 225.478 104.7 225.478 104.575V103.929C225.183 104.337 224.798 104.649 224.322 104.864C223.857 105.068 223.302 105.17 222.656 105.17ZM236.063 105.17C235.224 105.17 234.482 105.017 233.836 104.711C233.19 104.405 232.674 103.963 232.289 103.385C231.915 102.796 231.711 102.093 231.677 101.277C231.665 101.096 231.66 100.869 231.66 100.597C231.66 100.314 231.665 100.081 231.677 99.9C231.711 99.0727 231.915 98.37 232.289 97.792C232.663 97.2027 233.173 96.755 233.819 96.449C234.476 96.143 235.224 95.99 236.063 95.99C236.845 95.99 237.513 96.1033 238.069 96.33C238.624 96.5453 239.077 96.8173 239.429 97.146C239.78 97.4747 240.041 97.8147 240.211 98.166C240.392 98.506 240.488 98.8063 240.5 99.067C240.511 99.1803 240.471 99.2823 240.381 99.373C240.29 99.4523 240.188 99.492 240.075 99.492H237.916C237.791 99.492 237.695 99.4637 237.627 99.407C237.559 99.3503 237.496 99.2653 237.44 99.152C237.304 98.8007 237.128 98.5513 236.913 98.404C236.709 98.2567 236.442 98.183 236.114 98.183C235.66 98.183 235.309 98.3303 235.06 98.625C234.822 98.9197 234.691 99.373 234.669 99.985C234.657 100.438 234.657 100.841 234.669 101.192C234.691 101.815 234.822 102.269 235.06 102.552C235.309 102.835 235.66 102.977 236.114 102.977C236.465 102.977 236.743 102.903 236.947 102.756C237.151 102.609 237.315 102.359 237.44 102.008C237.496 101.895 237.559 101.81 237.627 101.753C237.695 101.696 237.791 101.668 237.916 101.668H240.075C240.188 101.668 240.29 101.713 240.381 101.804C240.471 101.883 240.511 101.98 240.5 102.093C240.488 102.286 240.432 102.512 240.33 102.773C240.228 103.022 240.069 103.289 239.854 103.572C239.638 103.855 239.355 104.122 239.004 104.371C238.664 104.609 238.25 104.802 237.763 104.949C237.275 105.096 236.709 105.17 236.063 105.17ZM244.152 105C244.027 105 243.925 104.96 243.846 104.881C243.767 104.802 243.727 104.7 243.727 104.575V93.355C243.727 93.2303 243.767 93.1283 243.846 93.049C243.925 92.9697 244.027 92.93 244.152 92.93H246.124C246.237 92.93 246.334 92.9697 246.413 93.049C246.504 93.1283 246.549 93.2303 246.549 93.355V99.05L248.912 96.449C248.98 96.3697 249.054 96.3017 249.133 96.245C249.212 96.1883 249.326 96.16 249.473 96.16H251.751C251.853 96.16 251.938 96.1997 252.006 96.279C252.085 96.347 252.125 96.432 252.125 96.534C252.125 96.5793 252.114 96.6303 252.091 96.687C252.068 96.7437 252.034 96.789 251.989 96.823L248.929 100.121L252.414 104.354C252.505 104.445 252.55 104.535 252.55 104.626C252.55 104.728 252.51 104.819 252.431 104.898C252.363 104.966 252.272 105 252.159 105H249.83C249.66 105 249.535 104.972 249.456 104.915C249.377 104.847 249.303 104.779 249.235 104.711L246.549 101.481V104.575C246.549 104.7 246.504 104.802 246.413 104.881C246.334 104.96 246.237 105 246.124 105H244.152ZM258.81 105.17C258.073 105.17 257.444 105.091 256.923 104.932C256.413 104.762 255.994 104.558 255.665 104.32C255.348 104.082 255.11 103.838 254.951 103.589C254.792 103.328 254.707 103.107 254.696 102.926C254.685 102.801 254.724 102.699 254.815 102.62C254.906 102.529 255.002 102.484 255.104 102.484H257.042C257.076 102.484 257.104 102.49 257.127 102.501C257.15 102.512 257.184 102.535 257.229 102.569C257.376 102.648 257.524 102.75 257.671 102.875C257.818 102.988 257.988 103.09 258.181 103.181C258.374 103.272 258.606 103.317 258.878 103.317C259.195 103.317 259.462 103.255 259.677 103.13C259.892 103.005 260 102.818 260 102.569C260 102.388 259.949 102.24 259.847 102.127C259.745 102.002 259.535 101.883 259.218 101.77C258.912 101.657 258.447 101.543 257.824 101.43C257.235 101.294 256.719 101.118 256.277 100.903C255.835 100.676 255.495 100.387 255.257 100.036C255.019 99.6733 254.9 99.237 254.9 98.727C254.9 98.2737 255.047 97.8373 255.342 97.418C255.637 96.9987 256.067 96.6587 256.634 96.398C257.201 96.126 257.898 95.99 258.725 95.99C259.382 95.99 259.949 96.0693 260.425 96.228C260.912 96.3753 261.32 96.568 261.649 96.806C261.989 97.044 262.244 97.2877 262.414 97.537C262.584 97.7863 262.675 98.013 262.686 98.217C262.697 98.3303 262.663 98.4323 262.584 98.523C262.505 98.6023 262.414 98.642 262.312 98.642H260.544C260.499 98.642 260.453 98.6363 260.408 98.625C260.363 98.6023 260.323 98.5797 260.289 98.557C260.153 98.489 260.017 98.3983 259.881 98.285C259.745 98.1717 259.586 98.0697 259.405 97.979C259.224 97.8883 258.997 97.843 258.725 97.843C258.419 97.843 258.181 97.911 258.011 98.047C257.841 98.183 257.756 98.3587 257.756 98.574C257.756 98.7213 257.801 98.8573 257.892 98.982C257.994 99.1067 258.192 99.22 258.487 99.322C258.793 99.424 259.263 99.5373 259.898 99.662C260.68 99.7867 261.303 99.9907 261.768 100.274C262.233 100.546 262.561 100.869 262.754 101.243C262.947 101.606 263.043 101.991 263.043 102.399C263.043 102.943 262.879 103.425 262.55 103.844C262.233 104.263 261.757 104.592 261.122 104.83C260.487 105.057 259.717 105.17 258.81 105.17Z" fill="white"/>
<path d="M178.808 136.275C177.964 136.064 177.381 136.019 176.28 136.084C173.769 136.229 171.239 137.097 169.098 138.541C168.293 139.085 167.885 139.412 166.431 140.686C165.578 141.432 165.078 141.848 164.694 142.133C164.366 142.377 163.193 143.04 162.986 143.095C162.817 143.142 162.664 143.091 161.258 142.538C159.415 141.814 159.043 141.685 157.488 141.228C156.589 140.964 154.692 140.427 154.042 140.259C151.497 139.583 149.511 139.08 147.313 138.557C145.167 138.042 143.385 137.613 142.009 137.268C138.846 136.482 137.655 136.127 135.798 135.407C134.587 134.938 133.362 134.466 132.546 134.157C132.013 133.955 131.831 133.87 131.764 133.803C131.701 133.738 131.594 133.437 131.387 132.727C131.028 131.499 130.949 131.271 130.775 130.996C130.47 130.512 130.153 130.301 129.386 130.069C128.826 129.9 128.282 129.788 127.051 129.587C124.978 129.253 124.43 129.078 122.625 128.17C122.304 128.009 121.847 127.794 121.611 127.69C121.372 127.584 121.011 127.4 120.804 127.281C120.454 127.079 119.27 126.269 118.316 125.581C117.697 125.134 114.729 123.02 113.671 122.271C111.262 120.573 108.692 118.903 104.947 116.607C101.256 114.346 100.25 113.741 97.9229 112.394C95.5258 111.006 95.207 110.834 93.2578 109.858C92.8511 109.656 92.0498 109.258 91.4765 108.971C90.9062 108.687 89.9527 108.201 89.3603 107.891C88.7662 107.585 87.9702 107.178 87.5878 106.99C86.4054 106.408 85.4886 105.915 84.9716 105.58C83.7591 104.791 82.9674 104.257 82.768 104.089C82.3513 103.735 80.9959 102.435 79.1281 100.587C78.5392 100.004 77.9468 99.4271 77.8139 99.3058C77.4108 98.9354 76.9279 98.5837 76.4165 98.2884C75.6024 97.8144 75.152 97.6596 73.981 97.4451C73.559 97.3675 73.0348 97.2633 72.8158 97.2137C71.4085 96.8953 69.9031 96.2407 68.7955 95.4596C68.0835 94.9634 67.5736 94.75 66.8488 94.6555C66.6724 94.6306 66.4525 94.5967 66.3641 94.5741C66.122 94.5153 64.9233 93.892 63.3851 93.0201C62.6297 92.5921 61.9068 92.199 61.7776 92.1487C61.6514 92.1002 61.3462 92.0171 61.1054 91.9631C60.35 91.8023 60.1459 91.7128 59.0218 91.0517C57.5963 90.2165 57.1064 90.0106 56.2145 89.8682C55.5939 89.769 55.3101 89.67 54.6411 89.3242C54.09 89.0344 54.0622 89.0264 53.1415 88.7581C51.2379 88.2097 50.1665 87.9353 49.8746 87.9207C49.5121 87.9017 49.3193 88.1021 49.1663 88.6414C49.0127 89.1885 49.0289 89.5541 49.2355 90.5602C49.3046 90.8835 49.3442 91.1453 49.3255 91.1426C49.3085 91.1368 49.1279 91.0771 48.9246 91.0002C47.9585 90.6489 46.4704 90.1542 46.2958 90.1263C45.9108 90.0619 45.3727 90.1643 45.0797 90.3555C44.7801 90.551 44.1966 91.4774 44.0098 92.0539C43.7376 92.905 43.6097 94.3779 43.6977 95.6597C43.7571 96.52 44.0834 98.6965 44.5808 101.575C45.1269 104.721 45.8949 107.306 47.1689 110.281C47.6863 111.487 48.0523 112.273 49.5796 115.434C50.9663 118.312 50.8508 118.084 51.8753 119.951C53.0133 122.029 54.2919 124.047 55.3247 125.4C57.2282 127.896 57.8756 128.553 65.3068 135.528C67.1979 137.3 69.1876 138.923 71.6309 140.674C73.7886 142.223 75.3439 143.206 76.8641 143.982C80.3126 145.743 84.2307 147.681 85.2005 148.103C86.692 148.754 88.4633 149.384 90.356 149.93C92.6866 150.603 93.8927 150.862 95.2997 150.998L95.8773 151.052L96.1665 151.219C96.4435 151.379 96.4613 151.398 96.6021 151.625C96.6858 151.754 96.8129 152.054 96.8888 152.288C97.2195 153.297 97.5807 153.817 98.2463 154.246C98.4359 154.368 98.601 154.504 98.6939 154.61C98.8385 154.774 99.1579 155.283 99.3544 155.659C99.5496 156.031 99.9438 156.607 100.211 156.903C100.584 157.325 100.851 157.524 101.425 157.823C102.116 158.181 102.442 158.438 103.17 159.195C103.806 159.857 104.606 160.441 105.385 160.814C106.971 161.575 109.471 162.201 111.353 162.316C112.759 162.398 113.984 162.202 114.558 161.797C114.864 161.585 115 161.166 114.864 160.84C114.745 160.561 114.074 159.789 113.419 159.18C113.036 158.825 113.021 158.808 111.07 156.338C108.846 153.527 108.77 153.426 108.29 152.668C108.097 152.362 108.001 152.177 108.03 152.169C108.054 152.163 108.936 152.295 109.988 152.461C112.235 152.815 112.928 152.916 114.007 153.044C118.878 153.634 124.169 153.798 130.632 153.565C132.542 153.497 132.512 153.5 135.443 153.14C135.84 153.093 136.43 153.033 136.754 153.014C139.668 152.817 142.524 152.462 146.205 151.83C147.34 151.635 148.007 151.514 150.486 151.058C153.659 150.469 154.968 150.269 156.785 150.095C157.912 149.985 159.662 149.893 159.962 149.929C160.187 149.953 160.898 150.291 161.383 150.603C162.221 151.14 162.947 151.782 164.046 152.951C164.976 153.941 165.889 154.982 166.64 155.91C168.221 157.86 169.318 158.975 170.846 160.181C172.176 161.232 173.889 162.258 175.404 162.91C177.64 163.873 179.265 164.244 180.89 164.157C181.138 164.143 181.607 164.13 181.93 164.127C182.42 164.122 182.525 164.109 182.558 164.052C182.581 164.012 182.589 163.956 182.581 163.927C182.552 163.858 182.206 163.488 181.953 163.257C181.711 163.036 181.174 162.244 180.854 161.639C180.44 160.845 180.278 160.415 179.718 158.602C179.624 158.3 179.497 157.887 179.435 157.685C179.373 157.483 179.157 156.845 178.959 156.26C178.587 155.183 178.331 154.282 178.084 153.213C177.739 151.709 177.255 150.831 175.854 149.167C175.655 148.927 175.475 148.706 175.453 148.673C175.422 148.622 175.445 148.567 175.661 148.214C175.933 147.772 176.056 147.482 176.193 146.99C176.371 146.352 176.401 146.167 176.628 144.164C177.214 139.028 177.212 139.047 177.699 138.203C177.946 137.774 178.01 137.686 178.234 137.467C178.371 137.327 178.624 137.121 178.798 137.003C179.214 136.717 179.256 136.672 179.239 136.561C179.214 136.429 179.088 136.344 178.808 136.275ZM178.572 136.719C178.567 136.728 178.408 136.863 178.214 137.022C177.399 137.689 176.918 138.367 176.605 139.276C176.444 139.737 176.355 140.2 176.312 140.803C176.277 141.285 176.268 141.559 176.249 143.52C176.229 145.367 176.106 146.143 175.684 147.029C175.583 147.246 175.542 147.303 175.515 147.287C175.493 147.275 175.407 147.136 175.325 146.975C175.079 146.501 174.719 146.001 174.637 146.023C174.627 146.026 174.759 146.332 174.937 146.706C175.219 147.307 175.28 147.475 175.201 147.43C175.186 147.421 174.816 147.09 174.38 146.693C173.941 146.293 173.571 145.971 173.56 145.976C173.475 145.996 173.608 146.174 174.231 146.866C174.62 147.297 174.941 147.669 174.94 147.692C174.946 147.801 174.808 147.717 173.98 147.105C173.499 146.751 173.094 146.46 173.079 146.464C173.065 146.468 173.049 146.495 173.046 146.522C173.041 146.559 173.105 146.624 173.233 146.719C173.338 146.796 173.629 147.053 173.87 147.289C174.644 148.043 174.731 148.159 174.572 148.217C174.498 148.247 174.462 148.19 175.088 149.045C176.67 151.205 177.2 152.241 177.856 154.409C178.015 154.942 179.453 159.834 179.67 160.582C180.034 161.837 180.163 162.175 180.479 162.661C180.71 163.013 180.925 163.267 181.192 163.494C181.292 163.58 181.366 163.663 181.36 163.68C181.342 163.726 180.701 163.696 180.25 163.626C179.299 163.482 177.846 163.081 176.704 162.648C175.562 162.215 174.744 161.824 173.575 161.149C172.644 160.611 172.068 160.238 171.276 159.656C169.571 158.404 168.629 157.512 167.044 155.638C166.718 155.255 166.121 154.545 165.714 154.068C164.094 152.157 163.106 151.148 162.135 150.426C161.656 150.073 160.666 149.525 160.217 149.367C160.052 149.309 159.906 149.245 159.892 149.228C159.862 149.195 160.277 149.123 163.31 148.622C164.314 148.457 165.141 148.311 165.148 148.299C165.162 148.275 165.031 148.284 163.661 148.408C163.224 148.447 162.336 148.51 161.683 148.55C161.033 148.587 160.321 148.638 160.1 148.664C159.542 148.73 158.725 148.887 158.447 148.981L158.211 149.06L158.32 149.139C158.382 149.179 158.573 149.277 158.75 149.35C158.926 149.424 159.075 149.497 159.078 149.512C159.08 149.529 159.034 149.539 158.97 149.538C156.742 149.487 155.438 149.581 153.139 149.958C149.944 150.486 148.317 150.765 146.366 151.129C144.093 151.55 143.111 151.72 141.919 151.906C136.543 152.746 131.377 153.153 126.017 153.156C120.386 153.16 115.447 152.771 110.404 151.924C109.216 151.724 108.92 151.683 108.193 151.599C107.925 151.57 107.668 151.523 107.626 151.498C107.553 151.456 106.859 150.323 106.855 150.239C106.856 150.224 106.911 150.227 106.98 150.255C108.761 150.911 111.856 151.596 114.315 151.878C115.05 151.962 115.838 151.996 115.753 151.939C115.72 151.92 115.228 151.85 114.503 151.764C112.351 151.505 110.605 151.097 108.088 150.255C106.768 149.813 106.534 149.698 106.342 149.413C106.225 149.236 105.943 148.628 105.964 148.591C105.969 148.582 106.174 148.664 106.416 148.779C107.523 149.293 108.857 149.76 110.527 150.213C111.284 150.42 113.414 150.957 113.443 150.949C113.489 150.94 113.453 150.854 113.383 150.814C113.343 150.791 112.448 150.5 111.394 150.167C107.889 149.067 107.528 148.94 106.288 148.361L105.658 148.066L105.555 147.873C105.501 147.769 105.36 147.486 105.249 147.243C105.104 146.924 105.059 146.798 105.1 146.797C105.13 146.794 105.283 146.866 105.439 146.956C106.483 147.559 108.718 148.44 111.145 149.214C112.486 149.64 114.186 150.062 114.154 149.963C114.151 149.941 112.935 149.523 111.453 149.031C109.974 148.542 108.501 148.035 108.184 147.909C107.195 147.513 105.572 146.733 105.066 146.413C104.771 146.222 104.693 146.117 104.462 145.562L104.307 145.189L105.149 145.651C106.436 146.353 107.498 146.833 109.414 147.571C109.945 147.776 110.735 148.082 111.172 148.253C111.69 148.459 111.989 148.559 112.037 148.547C112.1 148.53 112.077 148.513 111.823 148.391C111.667 148.317 111.015 148.033 110.379 147.763C109.276 147.297 108.519 146.957 107.234 146.356C106.613 146.067 104.312 144.795 104.097 144.626C103.969 144.524 103.722 144.074 103.588 143.709L103.534 143.556L104.56 144.169C106.157 145.128 107.707 145.889 109.685 146.695C109.945 146.8 110.161 146.889 110.171 146.894C110.18 146.899 110.198 146.881 110.214 146.854C110.24 146.809 110.208 146.786 109.953 146.659C108.922 146.153 106.594 144.878 104.982 143.93L103.223 142.899L103.101 142.723C103.034 142.628 102.893 142.38 102.792 142.176L102.604 141.805L102.932 141.969C103.11 142.06 103.808 142.435 104.479 142.798C106.623 143.963 108.1 144.723 109.391 145.326C109.959 145.594 110.847 145.989 110.87 145.986C110.889 145.98 108.389 144.489 107.497 143.974C106.499 143.397 105.643 142.855 104.621 142.151C104.208 141.868 103.496 141.4 103.036 141.114C101.829 140.365 101.796 140.33 101.091 138.999C100.854 138.559 100.659 138.187 100.656 138.178C100.634 138.104 100.813 138.236 101.665 138.926C102.195 139.358 102.743 139.8 102.882 139.912C103.272 140.226 104.268 140.976 104.402 141.053C104.478 141.097 104.522 141.106 104.53 141.078C104.533 141.052 104.243 140.787 103.814 140.426C102.106 138.991 100.326 137.4 100.081 137.092C99.895 136.859 99.4929 136.178 99.5175 136.135C99.528 136.117 99.5507 136.106 99.5659 136.115C99.5811 136.124 100.528 136.889 101.669 137.815C102.811 138.741 103.772 139.515 103.806 139.534C103.915 139.598 103.924 139.485 103.815 139.378C103.757 139.324 103.666 139.235 103.616 139.182C103.56 139.13 102.861 138.527 102.062 137.844C99.9079 136 99.1799 135.349 98.9759 135.098C98.7238 134.782 98.4102 134.257 98.4933 134.289C98.5285 134.305 98.924 134.618 99.368 134.988C100.978 136.327 101.647 136.834 102.277 137.19L102.629 137.389L102.013 136.839C101.675 136.539 100.722 135.693 99.8997 134.967C98.818 134.015 98.4044 133.634 98.422 133.604C98.4518 133.552 98.417 133.528 99.1079 134.089C100.463 135.187 100.96 135.555 101.814 136.101C102.131 136.304 102.29 136.388 102.318 136.375C102.337 136.362 102.346 136.339 102.338 136.318C102.328 136.3 102.005 136.025 101.625 135.704C98.1063 132.766 97.0208 131.77 95.5301 130.12C94.0173 128.445 92.6466 127.002 92.171 126.581C91.7834 126.24 90.7327 125.403 90.6465 125.369C90.5312 125.323 90.5135 125.41 90.5997 125.549C90.6461 125.616 91.0608 126.03 91.526 126.468C92.7604 127.634 93.3087 128.238 94.4037 129.632C95.7313 131.326 96.4303 132.442 99.3224 137.493C102.132 142.398 103.734 145.283 105.466 148.539C107.172 151.743 107.516 152.35 108.327 153.637C108.936 154.6 109.929 155.966 110.792 157.031C111.342 157.709 112.54 159.057 113.131 159.657C113.762 160.301 113.971 160.531 114.164 160.8C114.424 161.165 114.386 161.232 113.828 161.404C113.342 161.557 112.947 161.572 111.726 161.486C111.029 161.436 110.524 161.424 110.219 161.446C109.681 161.492 109.241 161.461 108.804 161.346C108.219 161.199 105.419 160.052 104.653 159.65C104.131 159.373 103.835 159.153 103.081 158.471C102.816 158.233 102.425 157.898 102.212 157.726C101.105 156.844 100.124 155.824 98.8985 154.291C98.311 153.551 97.9976 153.074 97.5834 152.28C97.1379 151.428 97.0138 151.263 95.9689 150.113C95.5874 149.699 95.1841 149.117 94.8186 148.457C94.4743 147.837 93.9234 146.985 93.4337 146.321C92.0176 144.394 91.0481 142.741 89.9442 140.379C89.7037 139.867 88.9594 138.344 88.2869 136.993C86.4001 133.202 86.2885 132.96 85.4115 130.753C85.1609 130.118 84.7453 129.081 84.4917 128.444C83.4207 125.765 82.8 124.147 82.613 123.529C82.2265 122.265 82.1712 122.136 82.0214 122.114C81.8999 122.093 81.8675 122.268 81.9187 122.707C81.9471 122.946 81.9525 123.148 81.9302 123.151C81.8709 123.169 76.4716 120.008 76.0761 119.722C74.9511 118.915 74.1882 118.268 73.3993 117.448C73.2586 117.298 72.8139 116.859 72.4135 116.47C71.5653 115.64 71.4572 115.525 71.1888 115.139C70.5289 114.188 70.2708 113.095 70.3336 111.524C70.3469 111.22 70.3532 110.766 70.3488 110.52C70.3178 109.02 70.3032 108.842 70.2168 108.865C70.2024 108.869 70.1654 109.256 70.1359 109.729C70.1064 110.202 70.0723 110.591 70.058 110.595C70.0453 110.596 69.9769 110.208 69.9093 109.728C69.6566 107.93 69.4892 107.327 68.9642 106.275C68.2207 104.793 66.7199 103.048 64.98 101.646C64.6132 101.354 64.4463 101.249 62.1254 99.8769C60.7687 99.0774 59.495 98.3097 59.2955 98.1702C59.096 98.0307 58.6487 97.7158 58.2979 97.4727C57.3594 96.8135 57.2137 96.7213 55.1517 95.47C53.1963 94.2803 53.0359 94.1715 52.482 93.6615C51.9508 93.1685 51.2934 92.3598 50.9786 91.8014C50.8304 91.5377 50.8274 91.536 51.6306 92.275C53.2842 93.8047 54.5371 94.7629 56.0647 95.6813C57.0758 96.2853 57.5099 96.5035 57.5689 96.4364C57.6232 96.3706 57.4202 96.2089 56.4543 95.5338C53.7136 93.6234 52.8763 93.0347 52.7003 92.8967C51.863 92.231 50.694 90.7827 49.9663 89.5123C49.6796 89.0107 49.6288 88.8315 49.7252 88.6645C49.8409 88.464 50.1087 88.4081 50.6065 88.4809C51.0154 88.5388 51.2987 88.6457 51.8929 88.9523C52.5649 89.2998 52.7891 89.3685 53.5269 89.4543C54.2552 89.5428 54.4515 89.6035 54.892 89.874C55.7973 90.429 55.9326 90.4829 56.5621 90.5386C57.5627 90.6263 58.2187 90.9241 58.8992 91.6085C59.0998 91.8094 59.2159 91.8966 59.5111 92.0671C59.9373 92.3131 60.1332 92.3817 60.9352 92.5532C61.2491 92.6211 61.7302 92.7369 61.9997 92.8115C62.4799 92.9429 62.509 92.9557 63.0265 93.2545C63.544 93.5533 63.574 93.5787 63.9088 93.9056C64.248 94.2391 64.2737 94.258 64.8234 94.5713L65.3883 94.8934L66.1562 95.11C67.4473 95.4748 68.2606 95.8026 69.5707 96.4861C71.2701 97.3741 71.4041 97.4232 73.6149 97.9667C75.5358 98.4359 76.062 98.6142 76.7682 99.022C77.6706 99.547 78.2014 100.048 79.2248 101.347C80.2847 102.696 81.3456 103.762 82.6406 104.781C84.2124 106.017 85.5043 106.795 87.9552 107.991C88.4354 108.228 89.2301 108.63 89.7186 108.888C90.6481 109.38 91.6999 109.906 92.6613 110.364C93.4896 110.757 95.2771 111.619 95.8844 111.917C96.7209 112.331 99.5259 113.927 100.803 114.716C102.107 115.522 103.086 116.148 105.412 117.665C106.306 118.246 107.289 118.886 107.595 119.087C111.774 121.804 113.333 122.878 117.297 125.762C120.153 127.84 121.525 128.774 124.595 130.733C125.061 131.03 126.305 131.772 127.373 132.389C129.449 133.588 129.75 133.741 131.24 134.374C132.671 134.982 135.159 135.916 136.627 136.396C139.952 137.485 143.463 138.35 151.088 139.962C154.702 140.725 155.224 140.84 155.933 141.027C156.856 141.268 157.982 141.639 159.375 142.164C160.118 142.439 160.282 142.505 162.952 143.597C165.681 144.711 166.614 145.072 167.272 145.282C167.856 145.465 167.995 145.492 167.975 145.42C167.971 145.393 167.587 145.229 164.807 144.04C164.156 143.762 163.617 143.528 163.617 143.52C163.612 143.509 166.003 141.419 166.703 140.827C168.522 139.278 169.65 138.54 171.264 137.848C172.005 137.527 172.627 137.315 173.485 137.086C175.049 136.669 176.326 136.539 177.863 136.633C178.477 136.672 178.591 136.685 178.572 136.719ZM130.483 131.375C130.668 131.554 130.755 131.819 130.9 132.656C130.981 133.107 131.038 133.493 131.031 133.505C130.973 133.605 127.058 131.43 125.421 130.392C124.617 129.879 123.459 129.109 123.453 129.077C123.446 129.053 123.525 129.07 124.974 129.409C126.711 129.816 127.601 130.075 128.774 130.525C129.906 130.961 130.224 131.12 130.483 131.375ZM50.2019 91.6C50.4627 92.034 50.8775 92.5529 51.4254 93.1365C51.6625 93.3867 52.0385 93.79 52.2664 94.035C52.9593 94.7752 53.4311 95.1812 54.201 95.7107C54.4644 95.8871 55.8138 96.6783 57.9617 97.9144C61.8939 100.172 62.8214 100.752 64.0921 101.729C66.1999 103.351 67.7287 105.181 68.7654 107.322C69.112 108.037 69.2109 108.308 69.4519 109.185C69.6632 109.95 69.7035 110.148 69.6507 110.162C69.6363 110.166 69.2414 109.444 68.7664 108.558C68.2932 107.669 67.8987 106.939 67.8896 106.934C67.8805 106.929 67.8944 107.067 67.9156 107.241C67.9811 107.704 67.9685 107.704 67.6649 107.274C67.3787 106.87 67.2628 106.621 67.0827 106.019C67.0018 105.737 66.9051 105.455 66.8731 105.384C66.8173 105.262 66.7322 105.185 66.7076 105.227C66.6989 105.243 66.7502 105.519 66.8175 105.845C66.883 106.175 66.9344 106.452 66.9256 106.467C66.8678 106.567 66.6182 106.156 66.4966 105.761C66.4376 105.561 66.3496 105.32 66.3033 105.225C66.2133 105.043 66.0988 104.876 66.07 104.883C66.0604 104.886 66.1169 105.077 66.1945 105.308C66.2752 105.54 66.3264 105.74 66.3097 105.755C66.2599 105.799 66.0469 105.648 65.8868 105.454C65.8061 105.355 65.5965 104.987 65.4208 104.63C65.2464 104.278 65.0801 103.976 65.0527 103.96C64.9918 103.925 64.9944 103.934 65.1909 104.445C65.273 104.654 65.336 104.84 65.3333 104.859C65.3239 104.91 65.0793 104.708 64.9101 104.509C64.8306 104.415 64.5914 104.042 64.3752 103.678C64.1235 103.249 63.9731 103.025 63.9395 103.034C63.8819 103.049 63.8703 103.006 64.0918 103.466C64.1926 103.678 64.2835 103.872 64.2899 103.896C64.3149 103.98 63.8759 103.657 63.7214 103.475C63.6403 103.383 63.4294 103.116 63.2511 102.883C62.8568 102.364 62.8229 102.324 62.7914 102.379C62.7774 102.403 62.8253 102.524 62.8998 102.648C63.0913 102.977 63.0568 103.002 62.7565 102.756C62.6666 102.68 61.5023 101.926 60.1718 101.081C56.8935 98.9983 54.207 97.261 53.3476 96.6757C52.6577 96.2045 52.385 95.9175 51.7636 95.0324C50.7797 93.6221 50.2446 92.6086 50.0059 91.6933C49.947 91.465 49.9037 91.2658 49.9064 91.2471C49.9219 91.1711 50.0026 91.2703 50.2019 91.6ZM49.5005 91.5635C49.4961 91.5852 49.4081 91.583 49.3057 91.5563C49.2017 91.5327 48.7127 91.4164 48.219 91.3014C47.7253 91.1864 47.1049 91.0307 46.8402 90.9548C46.1202 90.7537 45.9986 90.7605 45.8618 90.9974C45.7181 91.2464 45.8865 91.8052 46.2384 92.2433C46.4658 92.5243 46.7712 92.7898 47.8785 93.6558C50.4707 95.6829 50.273 95.5403 51.8427 96.4912C54.2391 97.9436 55.063 98.4638 58.7912 100.871C63.4942 103.911 64.2067 104.399 65.1517 105.216C66.5832 106.455 67.9084 108.055 68.7439 109.553C69.2268 110.411 69.6763 111.861 69.6464 112.447C69.587 113.506 69.9117 114.617 70.5482 115.539C71.1432 116.393 72.2895 117.423 73.964 118.6C75.6975 119.816 79.6985 122.348 80.8085 122.929C81.9355 123.514 81.9886 123.549 82.0674 123.68C82.1077 123.743 82.1858 123.967 82.2383 124.171L82.339 124.545L82.2006 124.489C82.047 124.425 79.2661 123.034 78.2761 122.527C77.4527 122.105 75.8271 121.166 75.2533 120.782C73.4213 119.554 71.8856 118.186 70.5937 116.634C70.2218 116.189 70.0401 115.934 69.3161 114.868C68.9757 114.368 68.6809 113.951 68.6565 113.937C68.4765 113.841 69.412 115.482 70.0239 116.342C71.1909 117.983 72.2989 119.024 74.5371 120.595C75.0618 120.959 80.727 124.335 81.1986 124.559C81.3287 124.622 81.6633 124.766 81.937 124.876L82.4395 125.081L82.5023 125.218C82.5373 125.291 82.6581 125.644 82.771 125.997L82.9771 126.638L82.6553 126.465C82.477 126.366 81.6501 125.949 80.8184 125.534C78.0753 124.169 77.7086 123.981 76.7587 123.461C75.7923 122.928 75.1462 122.514 74.5487 122.052C73.7147 121.408 71.4156 119.429 70.6842 118.727C70.008 118.078 69.3677 117.218 68.787 116.178C68.5267 115.708 67.5845 113.832 67.1112 112.838C67.0109 112.618 66.9095 112.442 66.8934 112.449C66.807 112.472 66.9894 113.302 67.1877 113.781C67.495 114.521 68.6714 116.589 69.3608 117.603C70.4455 119.197 72.2724 121.017 73.963 122.187C74.2595 122.391 74.6535 122.622 75.2972 122.97C75.7974 123.242 77.1912 124.027 78.3893 124.714C80.5646 125.966 81.3153 126.367 82.3346 126.83C83.1134 127.183 83.3462 127.398 83.5487 127.94C83.5945 128.072 83.7108 128.342 83.8016 128.536C83.8937 128.735 83.9698 128.912 83.9702 128.933C83.9739 129.004 84.1526 129.095 79.1355 126.445C75.1487 124.338 72.7333 122.834 70.9084 121.327C68.237 119.12 66.3121 116.669 65.1278 113.96C64.977 113.61 64.7006 112.88 64.1045 111.219C63.9561 110.802 63.813 110.452 63.7917 110.44C63.5847 110.32 63.8778 111.246 64.7702 113.539C65.6298 115.748 66.6758 117.466 68.2297 119.217C69.8071 120.999 72.1199 122.933 74.5364 124.498C75.6794 125.239 76.8454 125.884 79.9449 127.504C82.553 128.864 82.6435 128.904 83.604 129.244C83.886 129.346 84.1593 129.568 84.3635 129.868C84.53 130.114 84.9062 130.967 84.8659 131.009C84.8327 131.038 83.0883 130.327 82.1516 129.903C81.0369 129.401 80.5924 129.173 79.2059 128.397C77.1949 127.268 75.9375 126.465 73.5289 124.767C72.8399 124.28 72.0466 123.721 71.7684 123.528C70.4474 122.603 69.3534 121.672 68.2201 120.499C65.9501 118.16 64.0746 115.51 62.7731 112.815C62.4088 112.054 62.0315 111.168 61.8736 110.697C61.7934 110.456 61.5559 109.679 61.3475 108.972C60.9865 107.755 60.7062 106.877 60.6728 106.857C60.5997 106.815 60.6881 107.344 60.8888 108.156C61.4295 110.327 62.3559 112.631 63.7539 115.265C65.1743 117.943 66.9185 120.124 69.38 122.287C70.4274 123.207 71.2776 123.844 72.89 124.925C73.3913 125.258 74.2494 125.839 74.8015 126.218C75.6831 126.829 75.9549 126.998 77.0812 127.648C78.3859 128.397 78.8804 128.658 81.0824 129.752C82.908 130.66 83.4262 130.894 84.3292 131.221C85.046 131.477 85.1385 131.563 85.3835 132.186C85.4561 132.37 85.6592 132.848 85.8339 133.248C86.0055 133.647 86.1429 133.985 86.1407 133.996C86.1337 134.008 85.6622 133.756 85.0938 133.44C84.4523 133.082 83.6154 132.647 82.8994 132.299C82.263 131.988 81.3494 131.546 80.8705 131.314C78.2434 130.036 76.4062 128.951 74.4841 127.541C73.8865 127.107 70.283 124.294 69.5021 123.657C68.1343 122.539 66.7651 121.178 64.9633 119.145C63.1584 117.111 62.6226 116.429 61.6095 114.901C60.8305 113.727 59.6817 111.885 59.4267 111.406C58.508 109.665 57.918 107.635 57.6247 105.219C57.5706 104.75 57.503 104.108 57.478 103.786C57.4475 103.396 57.4138 103.194 57.3772 103.173C57.3255 103.143 57.3167 103.158 57.2741 103.401C57.1261 104.226 57.2441 105.934 57.5372 107.233C58.0227 109.38 58.873 111.24 60.5484 113.786C62.3911 116.591 64.481 119.235 66.9261 121.862C68.1812 123.21 69.6218 124.483 71.8698 126.235C74.3978 128.204 76.8896 129.773 80.2076 131.478C81.6221 132.205 84.6431 133.743 85.51 134.175C85.9167 134.377 86.2943 134.567 86.3461 134.596C86.4191 134.639 86.5473 134.867 86.8921 135.584C87.1387 136.099 87.3555 136.56 87.3684 136.608C87.3964 136.693 87.3947 136.696 87.3128 136.669C87.268 136.655 86.5084 136.298 85.6218 135.879C84.737 135.457 83.8121 135.02 83.5672 134.903C83.0277 134.657 76.1958 130.7 75.0471 129.976C73.0579 128.718 69.8794 126.357 67.9634 124.712C66.2512 123.242 64.4903 121.504 62.8816 119.693C59.413 115.795 57.1007 112.039 55.7776 108.165C55.372 106.983 54.9375 105.226 54.7864 104.188C54.7511 103.932 54.6669 103.199 54.6037 102.564C54.4021 100.593 54.3752 100.435 54.2753 100.609C54.228 100.691 54.1615 101.256 54.1336 101.782C54.0279 104.025 54.4816 106.15 55.7162 109.178C57.1586 112.712 59.0402 115.738 62.0059 119.276C64.5893 122.359 67.1141 124.728 70.8912 127.613C74.1729 130.119 74.8724 130.588 78.0437 132.378C81.1797 134.153 81.9553 134.56 84.6089 135.841C85.9357 136.481 86.2193 136.609 86.9878 136.923C87.4273 137.104 87.6278 137.199 87.6703 137.252C87.7424 137.338 88.5436 138.882 88.5807 139C88.6044 139.079 88.5826 139.074 88.2102 138.904C87.6094 138.63 83.1651 136.514 82.3591 136.117C80.5677 135.241 80.345 135.12 78.636 134.129C75.7397 132.453 72.9324 130.63 70.8736 129.085C68.7739 127.512 65.5878 124.96 64.5314 124.006C63.1969 122.802 62.1136 121.557 60.1203 118.957C56.6351 114.406 55.534 112.742 54.4913 110.463C54.0449 109.493 53.7832 108.807 53.1153 106.871C52.082 103.873 51.7141 102.24 51.5877 100.089C51.5464 99.4299 51.5105 99.2107 51.4642 99.3824C51.4558 99.418 51.4342 99.4906 51.4183 99.5462C51.3659 99.7144 51.4928 101.962 51.5995 102.769C51.7189 103.651 52.0244 104.767 52.5432 106.217C52.6675 106.564 52.8604 107.109 52.9757 107.422C54.3603 111.295 55.145 112.853 57.1218 115.679C59.479 119.048 60.4759 120.345 62.1865 122.268C64.1507 124.483 65.2793 125.466 69.7458 128.859C72.8354 131.206 73.6149 131.733 76.9779 133.767C78.7455 134.832 80.1538 135.613 81.3462 136.184C81.6707 136.339 82.7987 136.881 83.8563 137.39C87.0337 138.917 87.5592 139.16 88.2473 139.395C88.8427 139.601 88.864 139.613 88.9334 139.718C89.0721 139.928 89.8531 141.415 89.839 141.44C89.8198 141.473 89.7627 141.452 88.9604 141.127C88.2502 140.838 87.0509 140.251 83.2952 138.362C79.0415 136.218 77.7435 135.542 76.2915 134.703C74.675 133.77 74.1707 133.434 71.601 131.586C66.8418 128.166 65.0989 126.763 63.5637 125.12C63.3297 124.871 60.6342 121.687 59.3879 120.19C56.2057 116.373 55.6971 115.63 53.8968 112.161C53.0288 110.494 51.4954 107.329 51.1285 106.453C50.4058 104.724 50.0284 102.825 50.0113 100.823C50.0075 100.542 49.9974 100.179 49.9849 100.018C49.9633 99.6901 49.7887 98.5163 49.7477 98.4116C49.7131 98.3309 49.6479 98.2892 49.6216 98.3348C49.5988 98.3742 49.5414 100.252 49.5372 101.096C49.5358 101.759 49.5931 102.708 49.6613 103.152C49.8557 104.418 50.2771 105.783 50.9421 107.317C51.6757 109.02 53.6394 112.761 54.8079 114.695C56.4943 117.483 57.267 118.472 61.8639 123.705C64.2868 126.468 64.7381 126.875 69.2782 130.407C72.6579 133.039 73.2491 133.449 75.7101 134.874C76.6142 135.396 77.8302 136.073 78.4117 136.381C82.1144 138.34 83.0631 138.827 84.9001 139.73C87.5967 141.056 88.2024 141.329 89.5706 141.827L90.2177 142.063L90.4869 142.49C91.2817 143.743 91.3172 143.808 91.1974 143.811C91.1643 143.812 88.8699 142.978 87.6858 142.533C85.6409 141.765 83.7461 140.935 81.6625 139.89C78.8529 138.478 75.0298 136.291 73.4106 135.166C72.0073 134.194 70.0818 132.79 69.1266 132.04C67.0294 130.4 65.3912 128.928 63.3847 126.871C62.7065 126.176 60.1523 123.478 59.4781 122.741C58.5274 121.702 57.2286 120.134 56.3459 118.956C53.4089 115.038 50.5163 109.861 48.6768 105.244C48.0175 103.588 47.6649 102.096 47.3573 99.6554C47.2186 98.5387 47.0958 97.7673 47.0532 97.7427C46.9836 97.6945 46.9498 97.76 46.8996 98.0509C46.8609 98.2796 46.8651 98.5816 46.9201 99.3301C47.0565 101.231 47.1838 102.114 47.4977 103.328C47.8907 104.855 48.2579 105.779 49.3632 108.013C51.7575 112.857 53.6302 115.955 56.3569 119.57C58.4207 122.308 61.0366 125.321 63.2952 127.56C65.173 129.426 68.067 131.886 70.6587 133.816C73.3134 135.798 76.459 137.837 77.9246 138.525C78.1604 138.637 79.0308 139.091 79.8576 139.536C82.9056 141.174 84.1086 141.699 89.0576 143.531C90.3392 144.004 90.3653 144.015 91.0542 144.158C91.3729 144.224 91.5461 144.276 91.5939 144.32C91.6994 144.425 92.6625 146.188 92.6293 146.217C92.5795 146.261 90.833 145.877 90.1853 145.677C88.2745 145.092 86.6913 144.502 85.0458 143.766C84.7008 143.612 84.0116 143.315 83.5186 143.107C81.0155 142.051 80.3391 141.697 77.0965 139.727C72.1777 136.746 71.5526 136.296 67.186 132.625C65.2217 130.972 63.3171 129.322 62.411 128.487C59.7509 126.036 56.9022 122.703 53.8955 118.525C51.7483 115.545 49.8679 112.313 48.6664 109.55C48.0197 108.055 47.709 107.159 47.2092 105.36C46.9928 104.575 46.7676 103.777 46.7094 103.59C46.4021 102.61 46.1203 101.545 45.9324 100.675C45.6841 99.5235 45.2506 97.2162 45.0826 96.1434C44.9952 95.5706 44.9522 95.3919 44.8975 95.3603C44.8274 95.3199 44.827 95.3277 44.8088 95.6614C44.7774 96.1939 45.0617 98.8159 45.2902 100.142C45.4133 100.857 45.7276 102.091 45.9205 102.636C46.1583 103.3 46.3535 103.939 46.6983 105.191C47.0887 106.603 47.1775 106.885 47.4416 107.608C47.8293 108.666 48.2639 109.65 48.9179 110.942C51.1762 115.425 53.395 118.739 57.7084 124.055C59.8736 126.731 61.8158 128.731 64.5763 131.134C66.1915 132.541 70.1559 135.72 71.429 136.629C71.7538 136.861 72.4575 137.365 72.9952 137.748L73.9723 138.446L75.9662 139.597C77.7975 140.65 78.7852 141.196 81.1418 142.444C82.4545 143.137 82.8969 143.348 83.7672 143.696C84.2114 143.876 84.8793 144.16 85.2548 144.332C86.7079 144.993 88.5068 145.687 89.7979 146.081C90.7303 146.364 91.9787 146.599 92.4241 146.572C92.778 146.55 92.9763 146.685 93.1914 147.092C93.2624 147.222 93.4085 147.469 93.5199 147.634C93.6265 147.801 93.7057 147.952 93.6909 147.964C93.6476 148.004 92.5962 147.87 92.0597 147.759C91.2233 147.584 89.555 147.155 88.3618 146.81C85.4 145.951 83.4993 145.194 79.8487 143.418C79.2323 143.115 78.377 142.698 77.9485 142.491C76.844 141.95 74.6279 140.671 73.8085 140.101C69.9779 137.427 66.9875 135 64.1224 132.237C62.2401 130.421 61.1638 129.298 58.5796 126.441C57.7626 125.536 56.8844 124.576 56.6331 124.301C55.6402 123.23 54.8875 122.277 53.7519 120.637C52.8916 119.4 49.9244 114.901 49.6055 114.356C48.3064 112.128 47.2131 109.213 46.1001 105.032C45.3481 102.2 44.8329 99.3317 44.468 95.9424C44.2248 93.6641 44.2357 93.0265 44.5309 92.213C44.7143 91.7196 45.258 90.8552 45.4706 90.7188C45.6768 90.5868 46.0032 90.5768 46.3793 90.6847C46.4968 90.7201 46.8664 90.804 47.1943 90.8758C47.8644 91.0157 49.3672 91.4218 49.4533 91.4836C49.485 91.506 49.5049 91.5418 49.5005 91.5635ZM49.7288 92.3351C49.7713 92.388 49.8772 92.6475 49.9687 92.9109C50.0692 93.2078 50.3027 93.7313 50.5732 94.2681C50.8138 94.7512 51.0102 95.1562 51.0032 95.1683C50.9822 95.2048 49.3893 94.273 48.9263 93.9571C47.9082 93.2599 47.0748 92.4467 46.5382 91.6186C46.3115 91.2731 46.3132 91.2701 46.5498 91.2609C47.058 91.2385 47.5805 91.3458 48.1357 91.5934C48.4376 91.7313 49.6154 92.2291 49.645 92.2341C49.6498 92.2328 49.688 92.2791 49.7288 92.3351ZM51.6134 118.176C51.5886 118.169 51.5521 118.148 51.5373 118.132C51.5213 118.11 51.54 118.113 51.5826 118.138C51.6252 118.162 51.6369 118.177 51.6134 118.176ZM52.2081 119.086C52.6556 119.85 53.1439 120.537 54.8942 122.856C56.0311 124.366 56.2368 124.615 56.8737 125.29C58.5196 127.03 60.9472 129.553 62.0076 130.627C65.6834 134.349 69.5797 137.667 73.0149 139.999C75.1064 141.417 76.7425 142.337 79.8777 143.86C80.3566 144.092 81.097 144.454 81.522 144.667C84.3847 146.085 86.338 146.751 90.8525 147.839C91.4515 147.983 92.0519 148.131 92.1869 148.164C92.5034 148.242 92.8867 148.281 93.3734 148.275C93.5843 148.275 93.7948 148.283 93.8396 148.297C93.9014 148.316 94.0298 148.487 94.345 148.961C94.742 149.567 95.0366 149.935 95.6071 150.536C95.7895 150.726 95.8181 150.775 95.7589 150.765C95.6212 150.751 92.8038 149.978 91.3768 149.567C85.9542 148 82.592 146.617 79.0571 144.508C76.7385 143.124 71.5617 139.767 69.9886 138.632C67.8466 137.084 64.4056 134.158 62.2854 132.079C59.4122 129.266 56.8629 126.406 54.9175 123.821C54.3336 123.046 53.639 121.908 52.2799 119.496C51.7559 118.562 51.6559 118.362 51.691 118.301C51.7155 118.259 51.7632 118.331 52.2081 119.086Z" fill="white"/>
<path d="M154.818 148.623C154.289 148.828 153.86 149.01 153.863 149.019C153.872 149.053 154.318 149.039 154.571 148.995C154.851 148.946 155.358 148.749 155.581 148.602C155.703 148.523 155.756 148.468 155.784 148.384C155.808 148.321 155.816 148.265 155.804 148.258C155.792 148.251 155.348 148.415 154.818 148.623Z" fill="white"/>
<path d="M154.589 147.872C154.496 147.858 150.916 148.533 150.831 148.581C150.571 148.723 150.794 148.73 151.692 148.609C153.684 148.337 154.113 148.261 154.433 148.13C154.683 148.027 154.735 147.992 154.712 147.947C154.681 147.889 154.675 147.885 154.589 147.872Z" fill="white"/>
<path d="M153.451 147.518C152.474 147.537 149.888 147.875 149.561 148.026C149.413 148.094 150.453 148.014 152.319 147.812C153.365 147.695 153.681 147.647 153.8 147.574C153.893 147.518 153.834 147.509 153.451 147.518Z" fill="white"/>
<path d="M58.5586 97.0533C58.2936 97.0623 58.9305 97.4989 61.1621 98.8359C64.6235 100.911 64.7613 101.003 65.8644 101.939C66.0608 102.106 66.2711 102.276 66.3346 102.32C66.4389 102.393 66.4546 102.394 66.4932 102.327C66.5668 102.199 66.3093 101.949 65.3853 101.258C64.2335 100.399 64.034 100.259 63.1522 99.7055C62.1261 99.0644 58.6423 97.049 58.5586 97.0533Z" fill="white"/>
<path d="M67.2571 103.043C67.2009 103.035 67.2486 103.107 67.4656 103.35C68.5022 104.507 69.3285 105.733 69.8033 106.809C69.8945 107.023 69.9819 107.195 69.9915 107.193C70.0347 107.181 69.9608 106.859 69.8403 106.555C69.4869 105.663 68.5524 104.216 67.8625 103.506C67.6163 103.25 67.3664 103.057 67.2571 103.043Z" fill="white"/>
<path d="M145.136 148.934C142.799 148.981 142.176 148.978 139.694 148.905C138.305 148.864 138.13 148.865 138.197 148.903C138.234 148.924 139.175 149.031 139.603 149.063C140.364 149.122 145.086 149.204 145.51 149.165C145.789 149.14 146.518 149.002 146.535 148.972C146.542 148.959 146.531 148.937 146.511 148.929C146.49 148.917 145.871 148.92 145.136 148.934Z" fill="white"/>
<path d="M142.564 148.15C141.481 148.128 139.615 148.091 138.412 148.065C135.93 148.012 136.035 148.012 136.039 148.063C136.042 148.113 136.037 148.115 137.547 148.193C139.747 148.305 141.565 148.354 143.492 148.349C144.443 148.348 144.539 148.342 144.543 148.272C144.542 148.231 144.54 148.193 144.537 148.191C144.531 148.188 143.644 148.17 142.564 148.15Z" fill="white"/>
<path d="M144.692 149.905C144.109 149.973 143.353 150.059 143.009 150.099C142.64 150.141 142.405 150.183 142.432 150.207C142.551 150.316 143.851 150.273 144.693 150.136C145.286 150.037 145.877 149.856 145.78 149.8C145.768 149.793 145.277 149.841 144.692 149.905Z" fill="white"/>
<path d="M72.8258 112.76C72.7357 112.741 72.6194 112.738 72.5696 112.754C72.4798 112.783 72.478 112.786 72.506 112.9C72.521 112.965 72.5273 113.017 72.5147 113.018C72.5051 113.021 72.3526 113.018 72.1783 113.01C71.6821 112.991 71.6219 113.025 71.6274 113.303C71.6332 113.525 71.8714 114.343 71.9957 114.557C72.3353 115.15 72.9114 115.389 73.5765 115.214C74.0449 115.092 74.1418 114.917 74.0022 114.456C73.8626 113.995 73.5722 113.661 72.9987 113.298C72.4996 112.981 72.4833 112.911 72.9424 113.079C73.3432 113.221 73.4511 113.287 73.689 113.522C73.9344 113.765 73.9709 113.786 73.9529 113.691C73.9341 113.582 73.7598 113.336 73.603 113.193C73.4132 113.023 73.0261 112.807 72.8258 112.76ZM72.7383 113.763C72.6839 113.857 72.4149 114.042 72.3692 114.015C72.2931 113.971 72.31 113.872 72.4293 113.665C72.4994 113.544 72.5681 113.446 72.5843 113.439C72.6017 113.437 72.6521 113.49 72.6967 113.56C72.7605 113.654 72.7699 113.708 72.7383 113.763ZM73.7066 114.504C73.7865 114.696 73.8413 114.861 73.8247 114.876C73.7928 114.91 73.1382 114.828 73.1169 114.787C73.107 114.769 73.186 114.604 73.2912 114.422C73.4542 114.14 73.4901 114.091 73.5244 114.123C73.5453 114.144 73.6297 114.314 73.7066 114.504Z" fill="white"/>
<path d="M137.833 151.511C137.085 151.52 135.42 151.43 134.254 151.319C133.098 151.206 132.219 151.096 129.017 150.66C128.436 150.584 127.544 150.47 127.033 150.406C124.181 150.059 122.221 149.616 117.043 148.137C116.146 147.878 115.428 147.686 115.452 147.708C115.509 147.757 116.465 148.119 117.546 148.496C123.462 150.559 129.462 151.598 135.498 151.604C136.675 151.604 138.17 151.56 138.103 151.521C138.083 151.513 137.965 151.506 137.833 151.511Z" fill="white"/>
<path d="M71.4816 114.187C71.4172 114.531 71.6688 114.988 72.0627 115.248C72.1932 115.331 72.2967 115.391 72.291 115.38C72.2755 115.322 71.5598 114.115 71.5324 114.099C71.5111 114.087 71.4966 114.119 71.4816 114.187Z" fill="white"/>
<path d="M106.229 139.358C106.299 139.476 107.017 139.935 107.529 140.186C108.404 140.618 108.3 140.517 107.215 139.887C106.53 139.491 106.208 139.318 106.229 139.358Z" fill="white"/>
<path d="M105.942 140.157C105.967 140.191 106.144 140.342 106.336 140.493C106.712 140.791 107.6 141.328 108 141.499C108.186 141.578 108.225 141.58 108.253 141.532C108.285 141.477 108.25 141.453 107.092 140.788C106.434 140.408 105.916 140.125 105.942 140.157Z" fill="white"/>
<path d="M123.246 151.066C123.174 151.057 122.598 150.98 121.967 150.891C121.337 150.802 120.594 150.697 120.316 150.658C120.038 150.619 119.362 150.524 118.814 150.447C117.703 150.291 117.629 150.285 117.844 150.369C118.224 150.519 119.693 150.78 121.268 150.977C121.882 151.052 123.142 151.14 123.298 151.117C123.431 151.096 123.421 151.086 123.246 151.066Z" fill="white"/>
<path d="M105.867 141.32C105.825 141.442 106.025 141.602 106.783 142.039C107.541 142.477 107.954 142.655 108.246 142.69C108.354 142.699 108.225 142.621 107.128 141.983C105.972 141.312 105.886 141.266 105.867 141.32Z" fill="white"/>
<path d="M98.2619 139.221C98.2356 139.267 98.2343 139.262 99.1777 140.904C100.414 143.059 100.774 143.729 102.243 146.626C103.004 148.126 103.338 148.736 103.399 148.722C103.466 148.705 103.213 148.166 101.699 145.114C99.3953 140.471 99.2377 140.182 98.5805 139.45C98.3782 139.224 98.2952 139.164 98.2619 139.221Z" fill="white"/>
<path d="M119.453 152.144C118.638 152.099 118.18 152.106 118.143 152.17C118.129 152.194 118.134 152.221 118.152 152.231C118.219 152.27 120.184 152.291 120.205 152.254C120.217 152.233 120.215 152.208 120.2 152.199C120.185 152.19 119.849 152.167 119.453 152.144Z" fill="white"/>
<path d="M104.781 150.877C104.716 150.912 104.836 151.196 105.065 151.559C105.363 152.027 105.652 152.364 105.692 152.294C105.705 152.273 104.884 150.888 104.845 150.865C104.833 150.858 104.806 150.863 104.781 150.877Z" fill="white"/>
<path d="M60.6965 100.109C60.6041 100.1 60.5301 100.102 60.5339 100.116C60.5468 100.164 61.0379 100.671 61.0871 100.691C61.1258 100.701 61.132 100.676 61.1049 100.576C61.0825 100.502 61.0705 100.438 61.074 100.432C61.0776 100.426 61.1418 100.483 61.2161 100.559C61.4124 100.753 61.466 100.752 61.3703 100.559C61.2609 100.334 60.9548 100.133 60.6965 100.109Z" fill="white"/>
<path d="M59.5933 99.7964C59.5706 99.8076 59.5579 99.8367 59.5613 99.8589C59.5772 99.9086 60.3448 100.716 60.4149 100.757C60.4423 100.772 60.4776 100.76 60.4969 100.727C60.5232 100.682 60.4616 100.605 60.1259 100.266C59.9014 100.043 59.7025 99.8392 59.6786 99.8173C59.6565 99.7924 59.616 99.7852 59.5933 99.7964Z" fill="white"/>
</svg>
