<svg width="693" height="237" viewBox="0 0 693 237" fill="none" xmlns="http://www.w3.org/2000/svg">
<path d="M291.84 147.44C291.6 147.44 291.387 147.36 291.2 147.2C291.04 147.013 290.973 146.8 291 146.56L291.56 142.72H288.72C288.453 142.72 288.227 142.627 288.04 142.44C287.88 142.253 287.8 142.027 287.8 141.76V138.64C287.8 138.347 287.88 138.12 288.04 137.96C288.227 137.773 288.453 137.68 288.72 137.68H292.32L293.08 132.56H289.76C289.493 132.56 289.267 132.467 289.08 132.28C288.92 132.093 288.84 131.867 288.84 131.6V128.48C288.84 128.187 288.92 127.96 289.08 127.8C289.267 127.613 289.493 127.52 289.76 127.52H293.84L294.44 123.64C294.493 123.427 294.587 123.24 294.72 123.08C294.88 122.893 295.093 122.8 295.36 122.8H298.52C298.76 122.8 298.96 122.893 299.12 123.08C299.307 123.24 299.4 123.44 299.4 123.68L298.8 127.52H302.92L303.52 123.64C303.573 123.427 303.667 123.24 303.8 123.08C303.96 122.893 304.173 122.8 304.44 122.8H307.6C307.84 122.8 308.04 122.893 308.2 123.08C308.387 123.24 308.48 123.44 308.48 123.68L307.88 127.52H310.72C310.987 127.52 311.213 127.613 311.4 127.8C311.587 127.96 311.68 128.187 311.68 128.48V131.6C311.68 131.867 311.587 132.093 311.4 132.28C311.213 132.467 310.987 132.56 310.72 132.56H307.16L306.4 137.68H309.68C309.947 137.68 310.173 137.773 310.36 137.96C310.547 138.12 310.64 138.347 310.64 138.64V141.76C310.64 142.027 310.547 142.253 310.36 142.44C310.173 142.627 309.947 142.72 309.68 142.72H305.64L305.08 146.6C305 147.16 304.667 147.44 304.08 147.44H300.92C300.68 147.44 300.48 147.36 300.32 147.2C300.16 147.013 300.08 146.8 300.08 146.56L300.64 142.72H296.56L296 146.6C295.92 147.16 295.587 147.44 295 147.44H291.84ZM297.32 137.68H301.4L302.16 132.56H298.08L297.32 137.68ZM330.662 149.4C327.995 149.4 325.782 149.027 324.022 148.28C322.262 147.507 320.929 146.507 320.022 145.28C319.115 144.053 318.635 142.747 318.582 141.36C318.582 141.147 318.662 140.96 318.822 140.8C319.009 140.613 319.222 140.52 319.462 140.52H324.502C324.875 140.52 325.155 140.587 325.342 140.72C325.555 140.853 325.742 141.027 325.902 141.24C326.115 141.64 326.409 142.027 326.782 142.4C327.182 142.773 327.689 143.08 328.302 143.32C328.942 143.533 329.729 143.64 330.662 143.64C332.209 143.64 333.369 143.4 334.142 142.92C334.942 142.44 335.342 141.787 335.342 140.96C335.342 140.373 335.129 139.893 334.702 139.52C334.275 139.12 333.582 138.773 332.622 138.48C331.689 138.16 330.435 137.84 328.862 137.52C326.835 137.093 325.102 136.547 323.662 135.88C322.249 135.187 321.169 134.293 320.422 133.2C319.675 132.08 319.302 130.693 319.302 129.04C319.302 127.413 319.755 125.96 320.662 124.68C321.595 123.4 322.889 122.4 324.542 121.68C326.195 120.96 328.155 120.6 330.422 120.6C332.262 120.6 333.875 120.84 335.262 121.32C336.675 121.8 337.862 122.44 338.822 123.24C339.782 124.04 340.502 124.893 340.982 125.8C341.489 126.68 341.755 127.547 341.782 128.4C341.782 128.613 341.702 128.813 341.542 129C341.382 129.16 341.182 129.24 340.942 129.24H335.662C335.369 129.24 335.115 129.187 334.902 129.08C334.689 128.973 334.502 128.8 334.342 128.56C334.182 127.973 333.755 127.467 333.062 127.04C332.395 126.587 331.515 126.36 330.422 126.36C329.249 126.36 328.329 126.573 327.662 127C327.022 127.4 326.702 128.027 326.702 128.88C326.702 129.413 326.875 129.88 327.222 130.28C327.595 130.68 328.195 131.027 329.022 131.32C329.875 131.613 331.035 131.92 332.502 132.24C334.929 132.693 336.889 133.267 338.382 133.96C339.875 134.627 340.969 135.507 341.662 136.6C342.355 137.667 342.702 139.013 342.702 140.64C342.702 142.453 342.182 144.027 341.142 145.36C340.129 146.667 338.715 147.667 336.902 148.36C335.089 149.053 333.009 149.4 330.662 149.4ZM351.266 149C350.973 149 350.733 148.907 350.546 148.72C350.36 148.533 350.266 148.293 350.266 148V129.2C350.266 128.907 350.36 128.667 350.546 128.48C350.733 128.293 350.973 128.2 351.266 128.2H355.986C356.253 128.2 356.48 128.293 356.666 128.48C356.88 128.667 356.986 128.907 356.986 129.2V148C356.986 148.293 356.88 148.533 356.666 148.72C356.48 148.907 356.253 149 355.986 149H351.266ZM351.226 125.2C350.933 125.2 350.693 125.107 350.506 124.92C350.32 124.733 350.226 124.493 350.226 124.2V120.64C350.226 120.347 350.32 120.107 350.506 119.92C350.693 119.707 350.933 119.6 351.226 119.6H355.986C356.28 119.6 356.52 119.707 356.706 119.92C356.92 120.107 357.026 120.347 357.026 120.64V124.2C357.026 124.493 356.92 124.733 356.706 124.92C356.52 125.107 356.28 125.2 355.986 125.2H351.226ZM367.923 149C367.629 149 367.389 148.907 367.202 148.72C367.016 148.533 366.923 148.293 366.923 148V129.2C366.923 128.907 367.016 128.667 367.202 128.48C367.389 128.293 367.629 128.2 367.923 128.2H372.523C372.816 128.2 373.056 128.293 373.243 128.48C373.429 128.667 373.523 128.907 373.523 129.2V130.72C374.216 129.893 375.123 129.2 376.243 128.64C377.363 128.08 378.683 127.8 380.203 127.8C381.749 127.8 383.109 128.147 384.283 128.84C385.483 129.533 386.416 130.56 387.083 131.92C387.776 133.253 388.123 134.893 388.123 136.84V148C388.123 148.293 388.016 148.533 387.803 148.72C387.616 148.907 387.389 149 387.123 149H382.083C381.816 149 381.576 148.907 381.363 148.72C381.176 148.533 381.083 148.293 381.083 148V137.08C381.083 135.827 380.776 134.867 380.163 134.2C379.576 133.507 378.696 133.16 377.523 133.16C376.429 133.16 375.549 133.507 374.883 134.2C374.243 134.867 373.923 135.827 373.923 137.08V148C373.923 148.293 373.816 148.533 373.603 148.72C373.416 148.907 373.189 149 372.923 149H367.923ZM406.787 157.8C404.733 157.8 403.027 157.533 401.667 157C400.333 156.467 399.267 155.827 398.467 155.08C397.693 154.333 397.133 153.587 396.787 152.84C396.44 152.12 396.253 151.547 396.227 151.12C396.2 150.827 396.293 150.587 396.507 150.4C396.72 150.213 396.973 150.12 397.267 150.12H402.347C402.587 150.12 402.787 150.173 402.947 150.28C403.133 150.413 403.28 150.627 403.387 150.92C403.52 151.213 403.693 151.52 403.907 151.84C404.147 152.16 404.467 152.413 404.867 152.6C405.293 152.813 405.867 152.92 406.587 152.92C407.387 152.92 408.053 152.787 408.587 152.52C409.12 152.28 409.52 151.867 409.787 151.28C410.053 150.72 410.187 149.96 410.187 149V146.32C409.573 146.987 408.787 147.533 407.827 147.96C406.867 148.36 405.707 148.56 404.347 148.56C402.987 148.56 401.787 148.36 400.747 147.96C399.707 147.56 398.84 146.96 398.147 146.16C397.453 145.36 396.907 144.387 396.507 143.24C396.133 142.093 395.907 140.773 395.827 139.28C395.8 138.587 395.8 137.893 395.827 137.2C395.907 135.76 396.133 134.467 396.507 133.32C396.88 132.173 397.413 131.187 398.107 130.36C398.827 129.533 399.707 128.907 400.747 128.48C401.787 128.027 402.987 127.8 404.347 127.8C405.787 127.8 407.013 128.08 408.027 128.64C409.067 129.173 409.92 129.853 410.587 130.68V129.2C410.587 128.933 410.68 128.707 410.867 128.52C411.053 128.307 411.293 128.2 411.587 128.2H416.187C416.48 128.2 416.72 128.307 416.907 128.52C417.12 128.707 417.227 128.933 417.227 129.2V148.44C417.227 150.467 416.813 152.173 415.987 153.56C415.16 154.947 413.973 156 412.427 156.72C410.88 157.44 409 157.8 406.787 157.8ZM406.507 143.36C407.36 143.36 408.053 143.173 408.587 142.8C409.12 142.427 409.507 141.947 409.747 141.36C410.013 140.773 410.16 140.147 410.187 139.48C410.213 139.187 410.227 138.773 410.227 138.24C410.227 137.707 410.213 137.307 410.187 137.04C410.16 136.347 410.013 135.707 409.747 135.12C409.507 134.533 409.12 134.067 408.587 133.72C408.053 133.347 407.36 133.16 406.507 133.16C405.627 133.16 404.92 133.347 404.387 133.72C403.88 134.093 403.507 134.6 403.267 135.24C403.053 135.88 402.92 136.587 402.867 137.36C402.84 137.947 402.84 138.547 402.867 139.16C402.92 139.933 403.053 140.64 403.267 141.28C403.507 141.92 403.88 142.427 404.387 142.8C404.92 143.173 405.627 143.36 406.507 143.36ZM426.938 149C426.645 149 426.405 148.907 426.218 148.72C426.031 148.533 425.938 148.293 425.938 148V121.6C425.938 121.307 426.031 121.067 426.218 120.88C426.405 120.693 426.645 120.6 426.938 120.6H431.658C431.951 120.6 432.191 120.693 432.378 120.88C432.565 121.067 432.658 121.307 432.658 121.6V148C432.658 148.293 432.565 148.533 432.378 148.72C432.191 148.907 431.951 149 431.658 149H426.938ZM450.983 149.4C447.837 149.4 445.33 148.547 443.463 146.84C441.597 145.133 440.623 142.6 440.543 139.24C440.543 139.053 440.543 138.813 440.543 138.52C440.543 138.227 440.543 138 440.543 137.84C440.623 135.733 441.09 133.933 441.943 132.44C442.823 130.92 444.023 129.773 445.543 129C447.09 128.2 448.89 127.8 450.943 127.8C453.29 127.8 455.223 128.267 456.743 129.2C458.29 130.133 459.45 131.4 460.223 133C460.997 134.6 461.383 136.427 461.383 138.48V139.44C461.383 139.733 461.277 139.973 461.063 140.16C460.877 140.347 460.65 140.44 460.383 140.44H447.583C447.583 140.467 447.583 140.507 447.583 140.56C447.583 140.613 447.583 140.667 447.583 140.72C447.61 141.493 447.743 142.2 447.983 142.84C448.223 143.48 448.597 143.987 449.103 144.36C449.61 144.733 450.223 144.92 450.943 144.92C451.477 144.92 451.917 144.84 452.263 144.68C452.637 144.493 452.943 144.293 453.183 144.08C453.423 143.84 453.61 143.64 453.743 143.48C453.983 143.213 454.17 143.053 454.303 143C454.463 142.92 454.703 142.88 455.023 142.88H459.983C460.25 142.88 460.463 142.96 460.623 143.12C460.81 143.253 460.89 143.453 460.863 143.72C460.837 144.173 460.61 144.72 460.183 145.36C459.757 146 459.13 146.64 458.303 147.28C457.503 147.893 456.49 148.4 455.263 148.8C454.037 149.2 452.61 149.4 450.983 149.4ZM447.583 136.48H454.343V136.4C454.343 135.547 454.21 134.8 453.943 134.16C453.703 133.52 453.317 133.027 452.783 132.68C452.277 132.333 451.663 132.16 450.943 132.16C450.223 132.16 449.61 132.333 449.103 132.68C448.623 133.027 448.25 133.52 447.983 134.16C447.717 134.8 447.583 135.547 447.583 136.4V136.48ZM476.773 149.4C475.253 149.4 473.893 149.053 472.693 148.36C471.52 147.667 470.6 146.653 469.933 145.32C469.267 143.96 468.933 142.307 468.933 140.36V129.2C468.933 128.907 469.027 128.667 469.213 128.48C469.4 128.293 469.64 128.2 469.933 128.2H474.933C475.227 128.2 475.467 128.293 475.653 128.48C475.84 128.667 475.933 128.907 475.933 129.2V140.12C475.933 142.733 477.107 144.04 479.453 144.04C480.547 144.04 481.413 143.707 482.053 143.04C482.72 142.347 483.053 141.373 483.053 140.12V129.2C483.053 128.907 483.147 128.667 483.333 128.48C483.52 128.293 483.76 128.2 484.053 128.2H489.053C489.347 128.2 489.587 128.293 489.773 128.48C489.96 128.667 490.053 128.907 490.053 129.2V148C490.053 148.293 489.96 148.533 489.773 148.72C489.587 148.907 489.347 149 489.053 149H484.413C484.147 149 483.907 148.907 483.693 148.72C483.507 148.533 483.413 148.293 483.413 148V146.48C482.72 147.44 481.813 148.173 480.693 148.68C479.6 149.16 478.293 149.4 476.773 149.4ZM507.318 149.4C505.585 149.4 504.105 149.213 502.878 148.84C501.678 148.44 500.692 147.96 499.918 147.4C499.172 146.84 498.612 146.267 498.238 145.68C497.865 145.067 497.665 144.547 497.638 144.12C497.612 143.827 497.705 143.587 497.918 143.4C498.132 143.187 498.358 143.08 498.598 143.08H503.158C503.238 143.08 503.305 143.093 503.358 143.12C503.412 143.147 503.492 143.2 503.598 143.28C503.945 143.467 504.292 143.707 504.638 144C504.985 144.267 505.385 144.507 505.838 144.72C506.292 144.933 506.838 145.04 507.478 145.04C508.225 145.04 508.852 144.893 509.358 144.6C509.865 144.307 510.118 143.867 510.118 143.28C510.118 142.853 509.998 142.507 509.758 142.24C509.518 141.947 509.025 141.667 508.278 141.4C507.558 141.133 506.465 140.867 504.998 140.6C503.612 140.28 502.398 139.867 501.358 139.36C500.318 138.827 499.518 138.147 498.958 137.32C498.398 136.467 498.118 135.44 498.118 134.24C498.118 133.173 498.465 132.147 499.158 131.16C499.852 130.173 500.865 129.373 502.198 128.76C503.532 128.12 505.172 127.8 507.118 127.8C508.665 127.8 509.998 127.987 511.118 128.36C512.265 128.707 513.225 129.16 513.998 129.72C514.798 130.28 515.398 130.853 515.798 131.44C516.198 132.027 516.412 132.56 516.438 133.04C516.465 133.307 516.385 133.547 516.198 133.76C516.012 133.947 515.798 134.04 515.558 134.04H511.398C511.292 134.04 511.185 134.027 511.078 134C510.972 133.947 510.878 133.893 510.798 133.84C510.478 133.68 510.158 133.467 509.838 133.2C509.518 132.933 509.145 132.693 508.718 132.48C508.292 132.267 507.758 132.16 507.118 132.16C506.398 132.16 505.838 132.32 505.438 132.64C505.038 132.96 504.838 133.373 504.838 133.88C504.838 134.227 504.945 134.547 505.158 134.84C505.398 135.133 505.865 135.4 506.558 135.64C507.278 135.88 508.385 136.147 509.878 136.44C511.718 136.733 513.185 137.213 514.278 137.88C515.372 138.52 516.145 139.28 516.598 140.16C517.052 141.013 517.278 141.92 517.278 142.88C517.278 144.16 516.892 145.293 516.118 146.28C515.372 147.267 514.252 148.04 512.758 148.6C511.265 149.133 509.452 149.4 507.318 149.4ZM534.468 149.4C531.321 149.4 528.814 148.547 526.948 146.84C525.081 145.133 524.108 142.6 524.028 139.24C524.028 139.053 524.028 138.813 524.028 138.52C524.028 138.227 524.028 138 524.028 137.84C524.108 135.733 524.574 133.933 525.428 132.44C526.308 130.92 527.508 129.773 529.028 129C530.574 128.2 532.374 127.8 534.428 127.8C536.774 127.8 538.708 128.267 540.228 129.2C541.774 130.133 542.934 131.4 543.708 133C544.481 134.6 544.868 136.427 544.868 138.48V139.44C544.868 139.733 544.761 139.973 544.548 140.16C544.361 140.347 544.134 140.44 543.868 140.44H531.068C531.068 140.467 531.068 140.507 531.068 140.56C531.068 140.613 531.068 140.667 531.068 140.72C531.094 141.493 531.228 142.2 531.468 142.84C531.708 143.48 532.081 143.987 532.588 144.36C533.094 144.733 533.708 144.92 534.428 144.92C534.961 144.92 535.401 144.84 535.748 144.68C536.121 144.493 536.428 144.293 536.668 144.08C536.908 143.84 537.094 143.64 537.228 143.48C537.468 143.213 537.654 143.053 537.788 143C537.948 142.92 538.188 142.88 538.508 142.88H543.468C543.734 142.88 543.948 142.96 544.108 143.12C544.294 143.253 544.374 143.453 544.348 143.72C544.321 144.173 544.094 144.72 543.668 145.36C543.241 146 542.614 146.64 541.788 147.28C540.988 147.893 539.974 148.4 538.748 148.8C537.521 149.2 536.094 149.4 534.468 149.4ZM531.068 136.48H537.828V136.4C537.828 135.547 537.694 134.8 537.428 134.16C537.188 133.52 536.801 133.027 536.268 132.68C535.761 132.333 535.148 132.16 534.428 132.16C533.708 132.16 533.094 132.333 532.588 132.68C532.108 133.027 531.734 133.52 531.468 134.16C531.201 134.8 531.068 135.547 531.068 136.4V136.48ZM561.178 149.4C559.444 149.4 557.964 149.213 556.738 148.84C555.538 148.44 554.551 147.96 553.778 147.4C553.031 146.84 552.471 146.267 552.098 145.68C551.724 145.067 551.524 144.547 551.498 144.12C551.471 143.827 551.564 143.587 551.778 143.4C551.991 143.187 552.218 143.08 552.458 143.08H557.018C557.098 143.08 557.164 143.093 557.218 143.12C557.271 143.147 557.351 143.2 557.458 143.28C557.804 143.467 558.151 143.707 558.498 144C558.844 144.267 559.244 144.507 559.698 144.72C560.151 144.933 560.698 145.04 561.338 145.04C562.084 145.04 562.711 144.893 563.218 144.6C563.724 144.307 563.978 143.867 563.978 143.28C563.978 142.853 563.858 142.507 563.618 142.24C563.378 141.947 562.884 141.667 562.138 141.4C561.418 141.133 560.324 140.867 558.858 140.6C557.471 140.28 556.258 139.867 555.218 139.36C554.178 138.827 553.378 138.147 552.818 137.32C552.258 136.467 551.978 135.44 551.978 134.24C551.978 133.173 552.324 132.147 553.018 131.16C553.711 130.173 554.724 129.373 556.058 128.76C557.391 128.12 559.031 127.8 560.978 127.8C562.524 127.8 563.858 127.987 564.978 128.36C566.124 128.707 567.084 129.16 567.858 129.72C568.658 130.28 569.258 130.853 569.658 131.44C570.058 132.027 570.271 132.56 570.298 133.04C570.324 133.307 570.244 133.547 570.058 133.76C569.871 133.947 569.658 134.04 569.418 134.04H565.258C565.151 134.04 565.044 134.027 564.938 134C564.831 133.947 564.738 133.893 564.658 133.84C564.338 133.68 564.018 133.467 563.698 133.2C563.378 132.933 563.004 132.693 562.578 132.48C562.151 132.267 561.618 132.16 560.978 132.16C560.258 132.16 559.698 132.32 559.298 132.64C558.898 132.96 558.698 133.373 558.698 133.88C558.698 134.227 558.804 134.547 559.018 134.84C559.258 135.133 559.724 135.4 560.418 135.64C561.138 135.88 562.244 136.147 563.738 136.44C565.578 136.733 567.044 137.213 568.138 137.88C569.231 138.52 570.004 139.28 570.458 140.16C570.911 141.013 571.138 141.92 571.138 142.88C571.138 144.16 570.751 145.293 569.978 146.28C569.231 147.267 568.111 148.04 566.618 148.6C565.124 149.133 563.311 149.4 561.178 149.4ZM586.367 149.4C584.847 149.4 583.487 149.053 582.287 148.36C581.114 147.667 580.194 146.653 579.527 145.32C578.861 143.96 578.527 142.307 578.527 140.36V129.2C578.527 128.907 578.621 128.667 578.807 128.48C578.994 128.293 579.234 128.2 579.527 128.2H584.527C584.821 128.2 585.061 128.293 585.247 128.48C585.434 128.667 585.527 128.907 585.527 129.2V140.12C585.527 142.733 586.701 144.04 589.047 144.04C590.141 144.04 591.007 143.707 591.647 143.04C592.314 142.347 592.647 141.373 592.647 140.12V129.2C592.647 128.907 592.741 128.667 592.927 128.48C593.114 128.293 593.354 128.2 593.647 128.2H598.647C598.941 128.2 599.181 128.293 599.367 128.48C599.554 128.667 599.647 128.907 599.647 129.2V148C599.647 148.293 599.554 148.533 599.367 148.72C599.181 148.907 598.941 149 598.647 149H594.007C593.741 149 593.501 148.907 593.287 148.72C593.101 148.533 593.007 148.293 593.007 148V146.48C592.314 147.44 591.407 148.173 590.287 148.68C589.194 149.16 587.887 149.4 586.367 149.4ZM617.912 149.4C615.939 149.4 614.192 149.04 612.672 148.32C611.152 147.6 609.939 146.56 609.032 145.2C608.152 143.813 607.672 142.16 607.592 140.24C607.566 139.813 607.552 139.28 607.552 138.64C607.552 137.973 607.566 137.427 607.592 137C607.672 135.053 608.152 133.4 609.032 132.04C609.912 130.653 611.112 129.6 612.632 128.88C614.179 128.16 615.939 127.8 617.912 127.8C619.752 127.8 621.326 128.067 622.632 128.6C623.939 129.107 625.006 129.747 625.832 130.52C626.659 131.293 627.272 132.093 627.672 132.92C628.099 133.72 628.326 134.427 628.352 135.04C628.379 135.307 628.286 135.547 628.072 135.76C627.859 135.947 627.619 136.04 627.352 136.04H622.272C621.979 136.04 621.752 135.973 621.592 135.84C621.432 135.707 621.286 135.507 621.152 135.24C620.832 134.413 620.419 133.827 619.912 133.48C619.432 133.133 618.806 132.96 618.032 132.96C616.966 132.96 616.139 133.307 615.552 134C614.992 134.693 614.686 135.76 614.632 137.2C614.606 138.267 614.606 139.213 614.632 140.04C614.686 141.507 614.992 142.573 615.552 143.24C616.139 143.907 616.966 144.24 618.032 144.24C618.859 144.24 619.512 144.067 619.992 143.72C620.472 143.373 620.859 142.787 621.152 141.96C621.286 141.693 621.432 141.493 621.592 141.36C621.752 141.227 621.979 141.16 622.272 141.16H627.352C627.619 141.16 627.859 141.267 628.072 141.48C628.286 141.667 628.379 141.893 628.352 142.16C628.326 142.613 628.192 143.147 627.952 143.76C627.712 144.347 627.339 144.973 626.832 145.64C626.326 146.307 625.659 146.933 624.832 147.52C624.032 148.08 623.059 148.533 621.912 148.88C620.766 149.227 619.432 149.4 617.912 149.4ZM636.946 149C636.653 149 636.413 148.907 636.226 148.72C636.039 148.533 635.946 148.293 635.946 148V121.6C635.946 121.307 636.039 121.067 636.226 120.88C636.413 120.693 636.653 120.6 636.946 120.6H641.586C641.853 120.6 642.079 120.693 642.266 120.88C642.479 121.067 642.586 121.307 642.586 121.6V135L648.146 128.88C648.306 128.693 648.479 128.533 648.666 128.4C648.853 128.267 649.119 128.2 649.466 128.2H654.826C655.066 128.2 655.266 128.293 655.426 128.48C655.613 128.64 655.706 128.84 655.706 129.08C655.706 129.187 655.679 129.307 655.626 129.44C655.573 129.573 655.493 129.68 655.386 129.76L648.186 137.52L656.386 147.48C656.599 147.693 656.706 147.907 656.706 148.12C656.706 148.36 656.613 148.573 656.426 148.76C656.266 148.92 656.053 149 655.786 149H650.306C649.906 149 649.613 148.933 649.426 148.8C649.239 148.64 649.066 148.48 648.906 148.32L642.586 140.72V148C642.586 148.293 642.479 148.533 642.266 148.72C642.079 148.907 641.853 149 641.586 149H636.946ZM671.436 149.4C669.702 149.4 668.222 149.213 666.996 148.84C665.796 148.44 664.809 147.96 664.036 147.4C663.289 146.84 662.729 146.267 662.356 145.68C661.982 145.067 661.782 144.547 661.756 144.12C661.729 143.827 661.822 143.587 662.036 143.4C662.249 143.187 662.476 143.08 662.716 143.08H667.276C667.356 143.08 667.422 143.093 667.476 143.12C667.529 143.147 667.609 143.2 667.716 143.28C668.062 143.467 668.409 143.707 668.756 144C669.102 144.267 669.502 144.507 669.956 144.72C670.409 144.933 670.956 145.04 671.596 145.04C672.342 145.04 672.969 144.893 673.476 144.6C673.982 144.307 674.236 143.867 674.236 143.28C674.236 142.853 674.116 142.507 673.876 142.24C673.636 141.947 673.142 141.667 672.396 141.4C671.676 141.133 670.582 140.867 669.116 140.6C667.729 140.28 666.516 139.867 665.476 139.36C664.436 138.827 663.636 138.147 663.076 137.32C662.516 136.467 662.236 135.44 662.236 134.24C662.236 133.173 662.582 132.147 663.276 131.16C663.969 130.173 664.982 129.373 666.316 128.76C667.649 128.12 669.289 127.8 671.236 127.8C672.782 127.8 674.116 127.987 675.236 128.36C676.382 128.707 677.342 129.16 678.116 129.72C678.916 130.28 679.516 130.853 679.916 131.44C680.316 132.027 680.529 132.56 680.556 133.04C680.582 133.307 680.502 133.547 680.316 133.76C680.129 133.947 679.916 134.04 679.676 134.04H675.516C675.409 134.04 675.302 134.027 675.196 134C675.089 133.947 674.996 133.893 674.916 133.84C674.596 133.68 674.276 133.467 673.956 133.2C673.636 132.933 673.262 132.693 672.836 132.48C672.409 132.267 671.876 132.16 671.236 132.16C670.516 132.16 669.956 132.32 669.556 132.64C669.156 132.96 668.956 133.373 668.956 133.88C668.956 134.227 669.062 134.547 669.276 134.84C669.516 135.133 669.982 135.4 670.676 135.64C671.396 135.88 672.502 136.147 673.996 136.44C675.836 136.733 677.302 137.213 678.396 137.88C679.489 138.52 680.262 139.28 680.716 140.16C681.169 141.013 681.396 141.92 681.396 142.88C681.396 144.16 681.009 145.293 680.236 146.28C679.489 147.267 678.369 148.04 676.876 148.6C675.382 149.133 673.569 149.4 671.436 149.4Z" fill="white"/>
<circle cx="61" cy="61" r="61" fill="white"/>
<circle cx="162" cy="134" r="103" fill="#FF7555"/>
<path d="M68.0516 44.2525C68.9897 45.0938 69.5159 45.7576 70.3299 47.1333C72.1897 50.2693 73.1976 54.0162 73.197 57.7654C73.1962 59.1753 73.1337 59.9322 72.7812 62.7172C72.5756 64.3504 72.481 65.2899 72.4497 65.9826C72.4219 66.5752 72.5772 68.5254 72.6783 68.8181C72.7583 69.0609 72.9442 69.2023 74.7472 70.4417C77.1098 72.0665 77.5666 72.4076 79.3746 73.9042C80.4199 74.7694 82.6028 76.6126 83.3314 77.2559C86.2045 79.7632 88.4184 81.7405 90.8284 83.9547C93.1854 86.1148 95.1445 87.9059 96.6734 89.2781C100.18 92.4389 101.572 93.5804 103.941 95.2256C105.485 96.2993 107.045 97.3865 108.078 98.1151C108.752 98.5904 109.002 98.7402 109.137 98.7661C109.267 98.7897 109.714 98.673 110.735 98.3427C112.5 97.7739 112.839 97.6836 113.31 97.6692C114.138 97.6416 114.648 97.85 115.549 98.5824C116.206 99.1172 116.781 99.6801 118.02 100.996C120.1 103.214 120.754 103.731 123.308 105.16C123.762 105.414 124.39 105.788 124.706 105.987C125.027 106.188 125.54 106.472 125.851 106.623C126.378 106.879 128.31 107.643 129.91 108.229C130.948 108.609 135.893 110.453 137.648 111.115C141.64 112.625 145.73 114.354 151.521 116.983C157.227 119.577 158.77 120.293 162.274 121.992C165.883 123.742 166.348 123.985 169.099 125.532C169.672 125.856 170.799 126.495 171.608 126.95C172.412 127.404 173.768 128.154 174.62 128.614C175.469 129.078 176.603 129.703 177.139 130.009C178.796 130.956 180.131 131.656 180.952 132.005C182.882 132.819 184.165 133.335 184.528 133.438C185.291 133.65 187.952 134.22 191.685 134.959C192.862 135.192 194.035 135.434 194.289 135.495C195.06 135.677 195.874 135.971 196.643 136.345C197.872 136.937 198.423 137.352 199.629 138.585C200.064 139.028 200.614 139.574 200.851 139.796C202.374 141.228 204.38 142.504 206.216 143.198C207.389 143.65 208.058 144.089 208.759 144.882C208.932 145.074 209.151 145.311 209.249 145.399C209.516 145.642 211.236 146.574 213.53 147.713C214.656 148.272 215.714 148.82 215.879 148.934C216.04 149.046 216.387 149.345 216.647 149.591C217.452 150.368 217.725 150.54 219.43 151.352C221.588 152.385 222.232 152.806 223.126 153.761C223.748 154.426 224.097 154.687 225.054 155.209C225.849 155.635 225.881 155.662 226.949 156.55C229.15 158.39 230.348 159.454 230.602 159.793C230.918 160.213 230.834 160.608 230.31 161.231C229.777 161.861 229.325 162.14 227.949 162.711C227.505 162.891 227.158 163.057 227.176 163.077C227.197 163.093 227.415 163.261 227.672 163.443C228.877 164.318 230.677 165.703 230.852 165.89C231.241 166.3 231.554 167.03 231.562 167.538C231.57 168.057 230.93 169.513 230.388 170.207C229.586 171.227 227.921 172.581 226.31 173.519C225.228 174.148 222.349 175.529 218.488 177.276C214.267 179.182 210.538 180.365 205.933 181.257C204.065 181.618 202.824 181.819 197.789 182.558C193.208 183.236 193.576 183.189 190.503 183.478C187.085 183.804 183.625 183.911 181.162 183.772C176.622 183.518 175.308 183.276 160.908 180.028C157.247 179.199 153.686 178.129 149.603 176.619C145.993 175.289 143.552 174.221 141.388 173.026C136.479 170.316 130.977 167.187 129.684 166.366C127.694 165.103 125.502 163.488 123.312 161.659C120.615 159.407 119.327 158.168 118.023 156.589L117.49 155.939L117.056 155.727C116.639 155.524 116.602 155.518 116.216 155.534C115.992 155.539 115.529 155.63 115.186 155.73C113.706 156.154 112.789 156.144 111.734 155.693C111.434 155.565 111.137 155.477 110.935 155.452C110.62 155.412 109.751 155.442 109.139 155.513C108.534 155.581 107.523 155.577 106.951 155.497C106.141 155.392 105.686 155.233 104.862 154.787C103.872 154.249 103.299 154.066 101.8 153.807C100.489 153.583 99.1401 153.097 98.0608 152.465C95.8612 151.18 93.0839 148.685 91.4213 146.517C90.1834 144.895 89.4259 143.264 89.4468 142.243C89.4547 141.703 89.8477 141.198 90.3498 141.097C90.7815 141.012 92.252 141.189 93.5142 141.48C94.2515 141.652 94.2834 141.656 98.8316 141.988C104.011 142.371 104.193 142.381 105.493 142.339C106.017 142.321 106.317 142.286 106.303 142.245C106.291 142.211 105.418 141.26 104.365 140.131C102.119 137.719 101.437 136.968 100.409 135.777C95.754 130.403 91.2699 124.179 86.3141 116.224C84.8476 113.874 84.8685 113.912 82.9263 110.096C82.6612 109.582 82.2546 108.823 82.0157 108.418C79.8907 104.757 78.0042 101.036 75.7812 96.0976C75.0954 94.5747 74.701 93.6749 73.2396 90.3248C71.3765 86.0318 70.5564 84.2962 69.2928 81.9712C68.5122 80.5268 67.2047 78.3503 66.9188 78.0187C66.7066 77.7683 65.7259 77.1894 64.9573 76.8609C63.6328 76.2904 62.2743 75.9412 59.9798 75.5729C58.0366 75.2622 56.0462 75.0135 54.3233 74.8666C50.6997 74.5542 48.4708 74.1442 45.784 73.2907C43.4445 72.5493 40.8243 71.326 38.8136 70.0366C35.8446 68.1339 34.0828 66.4842 32.8702 64.4615C32.687 64.1515 32.3211 63.5771 32.0641 63.1859C31.673 62.5935 31.6032 62.4577 31.6455 62.3706C31.6745 62.3111 31.7354 62.2557 31.7762 62.2416C31.883 62.2199 32.6083 62.3348 33.0899 62.4501C33.5511 62.5611 34.9377 62.5614 35.9247 62.4524C37.2141 62.3035 37.8613 62.1482 40.4939 61.3442C40.9319 61.2118 41.531 61.0274 41.8237 60.9375C42.1165 60.8477 43.0586 60.5866 43.9213 60.3491C45.5173 59.9189 46.8059 59.4922 48.2911 58.9174C50.3772 58.1082 51.8238 57.9735 54.9581 58.3027C55.4071 58.3455 55.8196 58.3819 55.8765 58.3813C55.963 58.378 56.01 58.3046 56.2591 57.7574C56.5705 57.0706 56.8191 56.6874 57.298 56.1217C57.9208 55.3882 58.1192 55.2014 60.3415 53.2974C66.0358 48.4092 66.0155 48.4277 66.6348 47.1543C66.9489 46.5085 67.0042 46.3598 67.0859 45.9124C67.1421 45.6339 67.1848 45.162 67.1861 44.8567C67.1919 44.1232 67.2114 44.0365 67.3587 43.9665C67.5377 43.8893 67.7413 43.9713 68.0516 44.2525ZM67.7102 44.8964C67.7035 44.9101 67.6703 45.2112 67.6355 45.5737C67.4948 47.0968 67.0698 48.2268 66.2325 49.3431C65.8083 49.9128 65.324 50.3965 64.6354 50.9395C64.0845 51.3739 63.7614 51.6076 61.4222 53.2283C59.2187 54.7563 58.3869 55.5355 57.6647 56.7645C57.4857 57.0626 57.4503 57.1587 57.4915 57.1787C57.5236 57.1943 57.7603 57.1848 58.0195 57.1523C58.7881 57.0617 59.6809 57.0881 59.7209 57.2038C59.7256 57.2174 59.2507 57.3093 58.6574 57.4002C57.7073 57.5498 57.4552 57.6142 57.5743 57.6721C57.5972 57.6832 58.2935 57.8576 59.1244 58.0578C59.9599 58.2602 60.6472 58.4416 60.6497 58.4598C60.6942 58.5777 60.373 58.5631 59.0368 58.3777C58.2045 58.2617 57.4977 58.1786 57.4706 58.1994C57.3349 58.2806 57.5477 58.3784 58.9533 58.8751C59.7693 59.1644 60.4459 59.4141 60.453 59.4346C60.46 59.455 60.44 59.4962 60.4107 59.5216C60.3701 59.5585 60.24 59.5349 60.0229 59.4576C59.8446 59.3936 59.3012 59.2539 58.822 59.1568C57.2886 58.8414 57.079 58.8301 57.1384 59.0686C57.1624 59.1822 57.2603 59.1789 55.7251 59.1232C51.8483 58.9823 50.1747 59.1878 47.0386 60.166C46.2694 60.4093 39.2285 62.6658 38.153 63.015C36.3514 63.6001 35.8404 63.7198 35.0004 63.736C34.3903 63.7452 33.9116 63.6936 33.4229 63.5579C33.2379 63.5076 33.0783 63.4866 33.0626 63.5072C33.0223 63.5669 33.5767 64.3123 34.0259 64.797C34.9705 65.8227 36.6296 67.2414 38.075 68.2615C39.5205 69.2816 40.6524 69.9454 42.4102 70.8003C43.811 71.4815 44.7259 71.8699 46.0675 72.3468C48.952 73.3758 50.787 73.7811 54.3225 74.1582C55.0474 74.2389 56.3832 74.3788 57.2859 74.478C60.8944 74.868 62.9066 75.2349 64.5612 75.813C65.3726 76.1 66.8333 76.8444 67.3864 77.255C67.5907 77.4053 67.7855 77.5284 67.8174 77.5326C67.8813 77.541 67.6317 76.9835 65.7757 72.9317C65.1602 71.5903 64.6655 70.4775 64.6744 70.4591C64.6923 70.4225 64.7874 70.5877 65.7488 72.3353C66.0553 72.8922 66.7003 74.0101 67.1804 74.827C67.6628 75.6393 68.1779 76.5355 68.3267 76.8231C68.6988 77.5477 69.1729 78.6562 69.2843 79.0672L69.3814 79.4146L69.1985 79.3484C69.1002 79.3062 68.8276 79.1566 68.596 79.0044C68.3644 78.8521 68.156 78.7337 68.1355 78.7408C68.1129 78.7524 68.1386 78.8159 68.1918 78.8927C70.0576 81.5276 71.0019 83.1706 72.4125 86.2411C74.3664 90.5103 75.3484 92.6928 76.4925 95.3334C77.8279 98.407 78.4204 99.726 79.1615 101.31C82.5079 108.454 86.2053 114.993 90.5437 121.435C95.1019 128.206 99.5704 133.823 104.674 139.193C105.876 140.458 106.166 140.78 106.856 141.585C107.107 141.883 107.372 142.154 107.436 142.185C107.546 142.238 109.469 142.148 109.573 142.086C109.591 142.072 109.542 142.009 109.453 141.948C107.222 140.342 103.892 137.182 101.56 134.456C100.864 133.642 100.185 132.723 100.322 132.778C100.372 132.802 100.854 133.337 101.546 134.138C103.6 136.513 105.504 138.277 108.555 140.617C110.155 141.842 110.483 142.03 110.982 142.029C111.289 142.025 112.248 141.869 112.275 141.814C112.281 141.8 112.018 141.621 111.683 141.424C110.168 140.512 108.527 139.289 106.629 137.652C105.767 136.91 103.397 134.789 103.383 134.748C103.357 134.684 103.489 134.658 103.594 134.709C103.654 134.738 104.728 135.578 105.982 136.573C110.143 139.888 110.589 140.218 112.289 141.237L113.153 141.754L113.469 141.721C113.637 141.701 114.092 141.639 114.474 141.575C114.974 141.49 115.162 141.44 115.13 141.39C115.109 141.351 114.898 141.226 114.665 141.113C113.095 140.349 110.225 138.382 107.329 136.095C105.731 134.831 103.846 133.132 103.991 133.09C104.02 133.076 105.508 134.196 107.299 135.576C109.085 136.955 110.887 138.313 111.295 138.59C112.573 139.455 114.825 140.772 115.619 141.118C116.088 141.318 116.277 141.325 117.131 141.151L117.704 141.033L116.467 140.398C114.581 139.424 113.143 138.538 110.705 136.836C110.028 136.366 109.021 135.666 108.461 135.281C107.794 134.826 107.431 134.548 107.408 134.48C107.377 134.391 107.416 134.404 107.769 134.61C107.984 134.737 108.853 135.29 109.692 135.834C111.146 136.779 112.168 137.412 113.931 138.467C114.781 138.977 118.174 140.707 118.551 140.828C118.777 140.898 119.518 140.828 120.066 140.692L120.293 140.633L118.725 139.899C116.279 138.76 114.109 137.518 111.538 135.798C111.201 135.571 110.919 135.383 110.905 135.376C110.892 135.37 110.898 135.333 110.918 135.292C110.952 135.223 111.004 135.243 111.364 135.446C112.807 136.273 116.225 138.032 118.67 139.198L121.334 140.471L121.643 140.474C121.812 140.477 122.224 140.445 122.551 140.4L123.149 140.323L122.686 140.064C122.432 139.923 121.418 139.39 120.438 138.88C117.301 137.252 115.191 136.096 113.42 135.036C112.639 134.571 111.444 133.826 111.43 133.797C111.421 133.769 115.238 135.558 116.579 136.21C118.081 136.94 119.426 137.527 121.1 138.182C121.774 138.448 122.913 138.922 123.629 139.242C125.508 140.082 125.576 140.093 127.746 139.857C128.467 139.782 129.072 139.714 129.085 139.709C129.192 139.676 128.888 139.568 127.369 139.107C126.421 138.821 125.445 138.523 125.199 138.448C124.504 138.235 122.797 137.648 122.596 137.55C122.481 137.495 122.435 137.449 122.462 137.417C122.491 137.392 123.044 137.525 123.825 137.746C126.933 138.629 130.287 139.473 130.854 139.516C131.285 139.55 132.43 139.478 132.461 139.414C132.474 139.387 132.469 139.35 132.446 139.339C132.424 139.328 130.738 138.814 128.7 138.197C126.662 137.58 124.954 137.054 124.903 137.03C124.739 136.95 124.867 136.848 125.084 136.891C125.196 136.917 125.376 136.954 125.481 136.971C125.588 136.995 126.878 137.345 128.347 137.748C132.307 138.835 133.679 139.18 134.146 139.22C134.729 139.266 135.614 139.215 135.509 139.141C135.461 139.112 134.764 138.892 133.96 138.659C131.048 137.815 129.896 137.425 128.958 136.957L128.433 136.697L129.593 136.989C130.228 137.15 132.016 137.606 133.555 138.003C135.575 138.527 136.367 138.714 136.39 138.669C136.427 138.591 136.485 138.613 135.251 138.239C132.834 137.506 131.989 137.208 130.641 136.626C130.14 136.411 129.911 136.288 129.904 136.245C129.904 136.211 129.924 136.181 129.956 136.174C129.985 136.171 130.579 136.335 131.271 136.53C137.652 138.365 139.727 138.859 142.917 139.306C146.155 139.759 149 140.231 149.89 140.46C150.614 140.648 152.471 141.228 152.582 141.304C152.731 141.405 152.641 141.497 152.404 141.507C152.285 141.506 151.453 141.344 150.549 141.143C148.148 140.609 146.978 140.442 144.417 140.262C141.307 140.046 139.399 140.115 130.988 140.754C122.819 141.374 118.056 141.799 112.741 142.369C107.51 142.929 106.502 143.011 104.299 143.083C102.649 143.136 100.202 143.056 98.2243 142.887C96.964 142.778 94.3738 142.436 93.1738 142.215C91.8893 141.981 91.4447 141.918 90.9641 141.905C90.3151 141.89 90.266 141.99 90.5115 142.801C90.7218 143.509 91.023 143.995 92.115 145.393C92.7406 146.19 93.1637 146.787 93.3841 147.171C93.7649 147.855 94.1597 148.358 94.6516 148.79C95.3022 149.373 98.9485 151.803 100.052 152.397C100.808 152.798 101.311 152.975 102.742 153.325C103.242 153.45 103.962 153.647 104.341 153.763C106.296 154.374 108.317 154.723 111.152 154.946C112.517 155.049 113.344 155.038 114.633 154.889C116.018 154.73 116.316 154.745 118.544 155.063C119.352 155.184 120.376 155.196 121.466 155.097C122.49 155.006 123.96 154.973 125.154 155.021C128.616 155.153 131.387 154.972 135.119 154.374C135.929 154.246 138.361 153.9 140.53 153.607C146.612 152.787 146.994 152.724 150.356 151.98C151.321 151.764 152.904 151.418 153.874 151.205C157.961 150.309 160.407 149.737 161.301 149.458C163.132 148.894 163.332 148.855 163.48 149.017C163.604 149.146 163.419 149.328 162.851 149.623C162.541 149.784 162.294 149.942 162.308 149.971C162.334 150.057 170.507 153.97 171.17 154.213C173.051 154.907 174.447 155.297 176.071 155.577C176.365 155.624 177.253 155.8 178.044 155.965C179.728 156.308 179.954 156.344 180.635 156.352C182.313 156.37 183.835 155.79 185.671 154.435C186.026 154.171 186.566 153.794 186.865 153.599C188.692 152.415 188.918 152.287 188.96 152.409C188.967 152.43 188.532 152.79 187.988 153.211C187.443 153.631 187.003 153.989 187.01 154.01C187.02 154.026 187.541 153.792 188.173 153.482C190.537 152.321 191.397 152.031 193.086 151.805C195.469 151.491 198.782 151.873 201.875 152.822C202.523 153.025 202.784 153.14 206.313 154.811C208.373 155.79 210.327 156.695 210.656 156.821C210.986 156.948 211.726 157.229 212.302 157.452C213.855 158.043 214.084 158.143 217.257 159.601C220.271 160.982 220.532 161.086 221.593 161.336C222.616 161.573 224.12 161.704 225.046 161.628C225.482 161.591 225.487 161.593 223.948 161.23C220.771 160.489 218.605 159.764 216.264 158.676C214.719 157.953 214.105 157.61 214.138 157.484C214.173 157.365 214.532 157.477 216.125 158.088C220.641 159.825 222.026 160.352 222.335 160.451C223.813 160.915 226.5 161.14 228.616 160.979C229.45 160.915 229.707 160.83 229.829 160.578C229.976 160.276 229.827 159.909 229.336 159.37C228.935 158.926 228.577 158.672 227.727 158.208C226.765 157.684 226.501 157.47 225.8 156.654C225.104 155.851 224.872 155.664 224.19 155.355C222.79 154.72 222.616 154.601 222.039 153.89C221.123 152.759 220.233 152.213 218.86 151.953C218.456 151.876 218.257 151.807 217.813 151.591C217.172 151.28 216.931 151.1 216.076 150.276C215.74 149.954 215.211 149.47 214.903 149.207C214.356 148.737 214.317 148.713 213.539 148.334C212.761 147.956 212.706 147.94 212.042 147.804C211.366 147.668 211.323 147.653 210.501 147.248L209.656 146.831L208.774 146.085C207.29 144.831 206.237 144.12 204.354 143.103C201.911 141.784 201.743 141.663 199.299 139.449C197.179 137.523 196.539 137.036 195.477 136.52C194.115 135.863 193.083 135.633 190.693 135.462C188.214 135.287 186.074 134.881 183.8 134.155C181.043 133.272 179.061 132.354 175.638 130.383C174.965 129.999 173.838 129.372 173.132 128.995C171.788 128.279 170.304 127.443 168.975 126.661C167.831 125.986 165.348 124.54 164.498 124.053C163.322 123.385 159.134 121.314 157.15 120.423C155.125 119.512 153.581 118.846 149.873 117.286C148.451 116.685 146.886 116.026 146.397 115.822C139.748 113.013 137.194 112.015 130.517 109.6C125.708 107.862 123.474 106.973 118.633 104.88C117.899 104.562 116 103.673 114.393 102.891C111.271 101.373 110.842 101.136 108.875 99.8623C106.986 98.6376 103.847 96.4088 102.081 95.0347C98.0794 91.9273 94.196 88.4131 86.081 80.5641C82.2364 76.8422 81.6751 76.3087 80.8775 75.6093C79.8385 74.6962 78.4816 73.6455 76.7218 72.3988C75.7902 71.7305 75.5769 71.5871 72.1025 69.2687C68.5524 66.8965 67.3641 66.0694 66.5787 65.4495C65.8851 64.897 65.7402 64.7529 65.8422 64.7176C65.8785 64.7012 66.3875 65.028 70.0674 67.4011C70.9295 67.9563 71.647 68.4129 71.6561 68.4059C71.6743 68.4035 72.2466 63.8279 72.3918 62.5052C72.7782 59.057 72.7504 57.1007 72.2749 54.5983C72.0599 53.4459 71.8109 52.5262 71.3903 51.3078C70.6242 49.0888 69.7459 47.4496 68.388 45.6792C67.8431 44.9724 67.7347 44.846 67.7102 44.8964ZM113.091 98.3276C112.726 98.252 112.338 98.3634 111.214 98.8703C110.607 99.1413 110.097 99.3862 110.088 99.4045C110.015 99.5557 115.8 102.488 118.374 103.61C119.641 104.158 121.505 104.923 121.548 104.904C121.582 104.892 121.497 104.811 119.917 103.346C118.02 101.591 116.988 100.732 115.497 99.69C114.056 98.6835 113.607 98.4311 113.091 98.3276ZM225.917 162.397C225.184 162.437 224.225 162.361 223.08 162.178C222.587 162.097 221.798 161.974 221.319 161.899C219.868 161.67 218.998 161.434 217.738 160.94C217.313 160.767 215.269 159.79 212.044 158.216C206.146 155.33 204.698 154.688 202.495 153.957C198.839 152.745 195.401 152.399 191.989 152.897C190.85 153.062 190.444 153.165 189.196 153.589C188.105 153.959 187.835 154.071 187.861 154.146C187.868 154.166 189.055 154.053 190.504 153.902C191.955 153.747 193.151 153.627 193.165 153.633C193.179 153.64 193.002 153.735 192.776 153.852C192.167 154.15 192.176 154.166 192.939 154.18C193.656 154.195 194.049 154.131 194.919 153.857C195.322 153.725 195.74 153.611 195.851 153.592C196.042 153.56 196.204 153.599 196.173 153.663C196.162 153.686 195.788 153.85 195.342 154.035C194.893 154.224 194.519 154.388 194.508 154.411C194.434 154.562 195.131 154.527 195.703 154.352C195.991 154.26 196.352 154.169 196.504 154.147C196.795 154.107 197.089 154.108 197.103 154.149C197.108 154.163 196.833 154.25 196.493 154.345C196.147 154.438 195.866 154.539 195.862 154.571C195.849 154.667 196.204 154.799 196.566 154.834C196.751 154.85 197.363 154.802 197.933 154.723C198.497 154.646 198.995 154.6 199.036 154.62C199.128 154.664 199.114 154.669 198.342 154.848C198.024 154.92 197.75 154.996 197.729 155.015C197.675 155.068 198.116 155.197 198.492 155.238C198.67 155.257 199.312 155.241 199.924 155.204C200.643 155.157 201.035 155.155 201.051 155.203C201.079 155.285 201.14 155.263 200.408 155.372C200.072 155.423 199.765 155.472 199.731 155.484C199.611 155.522 200.354 155.787 200.698 155.824C200.873 155.847 201.366 155.883 201.789 155.907C202.733 155.958 202.808 155.967 202.768 156.049C202.75 156.086 202.566 156.127 202.357 156.138C201.806 156.176 201.804 156.238 202.343 156.398C202.508 156.444 204.356 157.229 206.449 158.14C211.608 160.382 215.871 162.195 217.271 162.751C218.396 163.196 218.961 163.29 220.528 163.316C223.019 163.35 224.67 163.167 225.963 162.708C226.285 162.593 226.56 162.483 226.58 162.464C226.659 162.384 226.474 162.368 225.917 162.397ZM226.529 163.21C226.506 163.233 226.58 163.337 226.695 163.438C226.808 163.544 227.344 164.037 227.882 164.536C228.42 165.036 229.11 165.654 229.415 165.911C230.24 166.612 230.331 166.764 230.157 167.121C229.974 167.497 229.166 167.749 228.355 167.683C227.833 167.639 227.267 167.488 225.33 166.863C220.794 165.399 221.126 165.521 218.712 164.409C215.025 162.713 213.733 162.146 207.82 159.628C200.359 156.452 199.195 155.994 197.448 155.523C194.799 154.813 191.804 154.523 189.327 154.74C187.905 154.858 185.799 155.499 185.119 156.013C183.895 156.947 182.298 157.461 180.674 157.447C179.167 157.428 177 156.89 174.229 155.837C171.365 154.744 165.08 151.999 163.484 151.138C161.867 150.261 161.783 150.225 161.562 150.237C161.453 150.24 161.121 150.328 160.833 150.432L160.302 150.615L160.481 150.736C160.683 150.868 164.607 153.077 166.018 153.854C167.193 154.499 169.637 155.688 170.564 156.065C173.523 157.266 176.411 157.996 179.322 158.285C180.158 158.369 180.611 158.38 182.478 158.382C183.355 158.383 184.095 158.398 184.132 158.415C184.393 158.554 181.663 158.767 180.135 158.731C177.217 158.666 175.07 158.182 171.368 156.773C170.506 156.439 161.861 152.381 161.21 151.997C161.029 151.892 160.584 151.608 160.231 151.368L159.577 150.931L159.361 150.968C159.245 150.985 158.723 151.127 158.208 151.279L157.271 151.554L157.74 151.799C158.003 151.933 159.174 152.587 160.347 153.248C164.209 155.432 164.731 155.72 166.125 156.438C167.55 157.164 168.57 157.604 169.609 157.945C171.058 158.423 175.299 159.574 176.734 159.881C178.062 160.165 179.614 160.234 181.333 160.084C182.109 160.014 185.126 159.618 186.704 159.377C187.049 159.319 187.343 159.297 187.347 159.322C187.39 159.445 186.245 159.902 185.509 160.054C184.371 160.287 180.933 160.558 179.157 160.555C176.363 160.55 172.697 159.838 169.921 158.759C169.436 158.569 168.839 158.284 167.9 157.794C167.167 157.415 165.096 156.379 163.299 155.499C160.033 153.905 158.943 153.33 157.561 152.482C156.506 151.833 156.059 151.729 155.244 151.927C155.048 151.979 154.63 152.059 154.323 152.108C154.01 152.16 153.735 152.213 153.71 152.229C153.622 152.282 153.367 152.142 160.615 156.012C166.377 159.086 170.141 160.764 173.43 161.729C178.245 163.142 182.749 163.458 186.962 162.675C187.505 162.571 188.607 162.308 191.084 161.672C191.706 161.51 192.242 161.397 192.274 161.413C192.586 161.564 191.235 161.966 187.758 162.762C184.408 163.528 181.497 163.67 178.134 163.23C174.716 162.785 170.518 161.582 166.68 159.953C164.864 159.183 163.145 158.307 158.688 155.902C154.941 153.876 154.82 153.8 153.633 152.922C153.282 152.667 152.793 152.52 152.267 152.519C151.837 152.519 150.508 152.762 150.49 152.844C150.482 152.908 152.75 154.424 154.017 155.205C155.523 156.136 156.158 156.484 158.214 157.518C161.199 159.015 163.182 159.872 167.174 161.382C168.317 161.814 169.631 162.311 170.089 162.489C172.27 163.323 174.275 163.879 176.602 164.285C181.251 165.108 185.953 165.203 190.245 164.572C191.455 164.39 192.825 164.121 193.519 163.927C193.874 163.827 194.999 163.48 196.018 163.154C197.772 162.597 199.054 162.218 199.105 162.242C199.215 162.296 198.508 162.62 197.369 163.041C194.323 164.159 190.805 164.923 186.509 165.388C182.14 165.863 178.106 165.544 173.515 164.347C171.56 163.839 170.107 163.336 167.502 162.278C166.695 161.948 165.302 161.39 164.399 161.035C162.952 160.473 162.528 160.284 160.835 159.461C158.878 158.503 158.163 158.122 155.066 156.366C152.496 154.912 151.794 154.481 150.67 153.662C149.782 153.009 149.604 152.968 148.656 153.181C148.377 153.243 147.639 153.388 147.016 153.505C146.398 153.623 145.88 153.734 145.869 153.745C145.86 153.764 146.544 154.125 147.385 154.551C148.335 155.03 149.535 155.681 150.534 156.258C151.423 156.769 152.694 157.507 153.361 157.893C157.024 160.009 159.816 161.333 163.067 162.494C164.072 162.859 170.372 164.897 171.77 165.317C174.221 166.05 176.966 166.586 180.867 167.096C184.773 167.608 186.026 167.696 188.683 167.669C190.725 167.648 193.868 167.529 194.65 167.445C197.486 167.13 200.402 166.186 203.542 164.57C204.149 164.254 204.976 163.812 205.383 163.579C205.876 163.298 206.146 163.175 206.201 163.201C206.279 163.239 206.267 163.262 206.011 163.511C205.139 164.361 202.991 165.611 201.193 166.316C198.221 167.482 195.298 167.975 190.881 168.036C186.019 168.106 181.149 167.749 176.013 166.95C173.377 166.54 170.68 165.846 166.755 164.571C162.34 163.138 158.438 161.421 153.701 158.823C151.681 157.716 147.386 155.339 146.165 154.649C145.593 154.325 145.059 154.025 144.981 153.988C144.871 153.934 144.494 153.966 143.352 154.136C142.534 154.259 141.804 154.374 141.736 154.398C141.611 154.433 141.609 154.438 141.708 154.514C141.761 154.557 142.806 155.178 144.027 155.902C145.251 156.622 146.525 157.378 146.864 157.577C147.597 158.024 157.886 163.01 159.686 163.801C162.809 165.167 168.221 167.063 171.749 168.025C174.902 168.885 178.416 169.586 181.896 170.043C189.388 171.036 195.774 170.755 201.5 169.19C203.248 168.715 205.711 167.806 207.081 167.141C207.416 166.975 208.365 166.48 209.18 166.038C211.711 164.675 211.921 164.579 211.794 164.84C211.734 164.964 211.109 165.504 210.5 165.966C207.891 167.92 204.971 169.105 200.332 170.089C194.919 171.234 189.759 171.438 183.106 170.756C177.309 170.163 172.418 169.059 165.892 166.87C160.222 164.968 159.092 164.509 154.372 162.157C149.7 159.834 148.583 159.234 144.894 157.089C143.049 156.016 142.666 155.779 141.667 155.111C141.093 154.731 140.816 154.567 140.718 154.559C140.556 154.543 138.053 154.838 137.88 154.89C137.767 154.925 137.79 154.948 138.296 155.256C139.112 155.755 145.255 159.371 146.385 160.017C148.889 161.456 149.214 161.625 151.789 162.872C156.149 164.987 160.614 166.875 164.138 168.09C167.728 169.332 173.375 171.082 175.378 171.574C177.905 172.197 180.278 172.485 185.017 172.762C193.308 173.243 196.199 173.21 199.781 172.607C201.308 172.353 202.344 172.109 205.211 171.335C209.65 170.135 211.91 169.246 214.596 167.646C215.421 167.159 215.714 167.024 215.545 167.219C215.509 167.258 215.439 167.343 215.385 167.408C215.226 167.608 212.423 169.286 211.368 169.815C210.21 170.39 208.622 170.932 206.461 171.489C205.943 171.623 205.132 171.834 204.662 171.951C198.888 173.442 196.38 173.769 191.384 173.695C185.427 173.607 183.062 173.465 179.366 172.976C175.113 172.42 173.017 171.865 165.323 169.261C160.001 167.46 158.736 166.953 153.567 164.569C150.855 163.313 148.777 162.256 147.125 161.289C146.676 161.025 145.111 160.111 143.642 159.255C139.234 156.681 138.516 156.247 137.676 155.612C136.946 155.064 136.914 155.049 136.732 155.051C136.368 155.055 133.948 155.328 133.93 155.364C133.906 155.415 133.977 155.466 135.018 156.165C135.94 156.784 137.617 157.747 142.929 160.721C148.951 164.086 150.815 165.094 152.999 166.156C155.43 167.338 156.242 167.671 160.544 169.253C168.508 172.187 171.606 173.138 174.824 173.644C175.312 173.723 181.321 174.368 184.129 174.646C191.293 175.361 192.597 175.367 198.223 174.705C200.929 174.389 205.974 173.654 207.323 173.381C209.986 172.841 212.572 171.749 214.991 170.138C215.333 169.914 215.776 169.631 215.98 169.515C216.391 169.273 217.943 168.527 218.102 168.491C218.227 168.467 218.33 168.511 218.296 168.58C218.268 168.639 216.058 170.238 215.048 170.93C214.252 171.472 213.066 172.176 212.477 172.456C210.799 173.254 208.818 173.859 206.436 174.309C203.796 174.815 197.71 175.503 194.44 175.674C189.725 175.918 187.912 175.795 177.9 174.534C172.618 173.874 171.764 173.662 163.842 171.084C157.943 169.167 156.971 168.79 153.265 166.994C151.906 166.332 150.106 165.423 149.266 164.975C143.912 162.122 142.558 161.379 139.985 159.907C136.208 157.746 135.389 157.241 133.682 156.003L132.874 155.417L132.144 155.441C129.995 155.507 129.888 155.517 129.981 155.664C130.006 155.705 132.868 157.782 134.361 158.842C136.94 160.674 139.474 162.274 142.417 163.927C146.389 166.153 152.114 168.965 154.778 169.995C157.082 170.889 160.328 172.06 162.003 172.597C165.672 173.781 168.768 174.55 172.865 175.285C174.25 175.534 179.56 176.406 180.992 176.615C183.01 176.912 185.946 177.195 188.076 177.297C195.163 177.634 203.725 176.893 210.762 175.343C213.286 174.786 215.363 173.995 218.544 172.376C219.998 171.633 221.025 171.153 221.089 171.184C221.203 171.228 221.152 171.322 220.843 171.619C220.599 171.852 220.233 172.093 219.29 172.637C216.895 174.021 215.731 174.588 214.019 175.199C211.866 175.97 210.458 176.282 206.879 176.773C199.12 177.842 193.881 178.115 187.33 177.783C182.368 177.534 176.63 176.844 172.109 175.954C168.347 175.218 163.046 173.744 158.629 172.202C154.097 170.626 149.099 168.507 147.085 167.307C146.759 167.115 145.509 166.439 144.304 165.807C139.867 163.479 138.262 162.461 132.051 158.007C130.444 156.852 130.41 156.83 129.681 156.118C129.342 155.79 129.14 155.623 129.049 155.601C128.837 155.561 125.939 155.839 125.93 155.903C125.918 155.999 127.795 157.784 128.56 158.399C130.811 160.219 132.802 161.641 135.019 163.019C135.484 163.308 136.399 163.894 137.048 164.317C140.345 166.465 141.318 166.989 146.311 169.281C153.878 172.763 154.925 173.148 162.873 175.404C166.45 176.419 169.975 177.363 171.712 177.772C176.812 178.972 183.124 179.68 190.579 179.89C195.899 180.042 201.305 179.669 205.597 178.863C207.917 178.422 209.245 178.066 211.811 177.201C212.93 176.822 214.071 176.442 214.343 176.359C215.768 175.931 217.277 175.402 218.474 174.919C220.059 174.279 223.182 172.921 224.606 172.249C225.365 171.887 225.615 171.793 225.697 171.834C225.802 171.885 225.793 171.892 225.407 172.185C224.793 172.657 221.413 174.451 219.634 175.257C218.676 175.691 216.938 176.319 216.128 176.531C215.138 176.785 214.212 177.071 212.429 177.677C210.417 178.358 210.006 178.481 208.923 178.753C207.338 179.148 205.804 179.428 203.721 179.695C196.506 180.632 190.728 180.665 180.846 179.813C175.878 179.39 171.902 178.685 166.778 177.326C163.78 176.531 156.748 174.357 154.625 173.568C154.083 173.367 152.908 172.931 152.012 172.597L150.382 171.992L147.383 170.533C144.634 169.191 143.178 168.449 139.771 166.633C137.875 165.62 137.263 165.26 136.139 164.498C135.563 164.111 134.681 163.54 134.17 163.229C132.198 162.021 129.907 160.425 128.388 159.194C127.293 158.304 125.999 156.996 125.67 156.439C125.41 155.995 125.088 155.867 124.424 155.94C124.21 155.961 123.796 155.986 123.506 155.987C123.22 155.995 122.974 156.023 122.972 156.05C122.959 156.135 123.971 157.289 124.54 157.843C125.428 158.706 127.294 160.361 128.675 161.514C132.108 164.373 134.557 166.04 139.648 168.98C140.512 169.474 141.705 170.162 142.301 170.508C143.845 171.395 147.178 173.016 148.527 173.536C154.842 175.962 160.18 177.578 165.821 178.77C169.527 179.553 171.749 179.931 177.274 180.709C179.023 180.954 180.889 181.227 181.423 181.305C183.514 181.625 185.268 181.754 188.158 181.783C190.342 181.808 198.151 181.709 199.063 181.649C202.792 181.395 207.18 180.335 213.105 178.266C217.115 176.863 220.979 175.146 225.346 172.824C228.28 171.26 229.037 170.728 229.775 169.71C230.219 169.088 230.817 167.731 230.809 167.364C230.8 167.009 230.548 166.609 230.113 166.245C229.976 166.132 229.575 165.756 229.223 165.421C228.512 164.73 226.807 163.255 226.663 163.202C226.611 163.182 226.551 163.187 226.529 163.21ZM225.417 163.564C225.319 163.556 224.921 163.64 224.531 163.745C224.093 163.866 223.275 164.012 222.411 164.124C221.635 164.228 220.99 164.322 220.981 164.34C220.954 164.395 223.364 165.55 224.119 165.849C225.781 166.505 227.433 166.844 228.863 166.814C229.461 166.805 229.464 166.801 229.283 166.509C228.898 165.88 228.346 165.34 227.599 164.874C227.188 164.624 225.636 163.614 225.606 163.582C225.604 163.576 225.517 163.567 225.417 163.564ZM192.848 182.347C192.875 182.372 192.93 182.399 192.962 182.403C193.001 182.405 192.982 182.385 192.918 182.353C192.854 182.322 192.827 182.32 192.848 182.347ZM191.272 182.374C189.991 182.459 188.771 182.432 184.568 182.217C181.832 182.082 181.367 182.037 180.039 181.822C176.616 181.261 171.618 180.399 169.469 180C162.02 178.614 154.876 176.635 149.292 174.407C145.894 173.049 143.463 171.832 139.094 169.305C138.427 168.919 137.391 168.325 136.791 167.987C132.769 165.702 130.386 163.898 125.421 159.359C124.763 158.756 124.099 158.156 123.95 158.021C123.6 157.704 123.243 157.275 122.856 156.685C122.685 156.431 122.504 156.185 122.452 156.143C122.378 156.084 122.068 156.069 121.244 156.076C120.195 156.093 119.513 156.039 118.33 155.843C117.953 155.778 117.871 155.784 117.931 155.847C118.06 156.001 121.271 158.757 122.92 160.137C129.197 165.376 133.582 168.29 138.98 170.819C142.52 172.478 150.748 175.964 153.386 176.93C156.981 178.243 163.284 179.994 167.499 180.849C173.206 182.01 178.708 182.743 183.389 182.975C184.793 183.046 186.723 182.954 190.722 182.622C192.269 182.491 192.589 182.448 192.634 182.357C192.665 182.293 192.54 182.294 191.272 182.374Z" fill="black"/>
<path d="M62.891 56.0271C62.7932 56.0419 61.4004 56.1008 60.7927 56.1168C60.5696 56.1215 60.6937 56.0176 61.0363 55.9067C61.5536 55.7392 62.4896 55.7583 62.8696 55.9431C63.0023 56.0077 63.0001 56.0122 62.891 56.0271Z" fill="black"/>
<path d="M63.2671 57.1389C63.3498 57.2017 63.3715 57.3199 63.2937 57.282C63.28 57.2754 62.9718 57.1991 62.6043 57.1167C61.8442 56.9453 61.8991 56.9606 61.9302 56.8965C61.9414 56.8736 62.1097 56.8535 62.3009 56.8559C62.6426 56.8634 63.0834 56.9929 63.2671 57.1389Z" fill="black"/>
<path d="M63.123 60.8464C63.4463 61.0546 63.5267 61.122 63.5093 61.1928C63.4896 61.2682 63.4553 61.2572 63.233 61.1208C62.5247 60.68 62.2127 60.4603 62.2211 60.3964C62.2316 60.3166 62.527 60.4659 63.123 60.8464Z" fill="black"/>
<path d="M60.4166 60.419C60.9207 60.7208 61.3561 60.9779 61.379 60.989C61.4042 61.007 61.3885 61.0276 61.3477 61.0418C61.2252 61.0841 60.3855 60.7041 59.975 60.4308C59.3534 60.0096 58.8976 59.55 59.3258 59.7753C59.4198 59.8266 59.9078 60.115 60.4166 60.419Z" fill="black"/>
<path d="M54.9236 61.2368C56.0794 62.0028 57.1295 62.893 58.0325 63.8646C58.3804 64.2433 58.5376 64.467 58.3286 64.3031C57.3226 63.4853 54.3962 61.0992 54.3456 61.052C54.1202 60.8404 54.5223 60.968 54.9236 61.2368Z" fill="black"/>
<path d="M55.7385 63.3551C56.4287 63.8097 57.7465 65.034 58.2384 65.6754C58.4624 65.9712 58.5626 66.1842 58.4108 66.0424C58.3671 66.0042 58.1005 65.7726 57.8201 65.5229C57.3189 65.0753 55.6982 63.6357 55.2798 63.2623C55.1649 63.1611 55.0932 63.064 55.1181 63.0477C55.1747 63.0129 55.3349 63.0909 55.7385 63.3551Z" fill="black"/>
<path d="M62.788 67.2027C63.0686 67.4637 63.4749 68.188 63.366 68.2257C63.3252 68.2398 62.583 67.1936 62.5176 67.0371C62.487 66.9487 62.5948 67.0181 62.788 67.2027Z" fill="black"/>
<path d="M72.6541 83.1361C72.8358 83.9381 72.9659 84.6017 72.9523 84.6064C72.9046 84.6229 72.5595 84.0755 72.4078 83.7356C72.2399 83.3594 72.0654 82.5892 72.0612 82.202C72.0566 81.9902 72.0805 81.8829 72.1591 81.7795C72.2152 81.6992 72.2761 81.6438 72.2944 81.6527C72.3127 81.6617 72.4747 82.3295 72.6541 83.1361Z" fill="black"/>
<path d="M73.742 82.7981C73.8342 82.8996 75.9241 87.7504 75.9347 87.8915C75.9758 88.3193 75.7862 88.0572 75.2044 86.8793C73.9171 84.2653 73.6605 83.6874 73.5596 83.1965C73.4803 82.8125 73.4793 82.7214 73.5521 82.7114C73.6476 82.7013 73.6567 82.7057 73.742 82.7981Z" fill="black"/>
<path d="M75.0897 83.8787C75.8584 85.0681 77.5478 88.4498 77.6307 88.9659C77.6697 89.2 76.9224 87.8851 75.6533 85.4781C74.9466 84.1263 74.7486 83.7071 74.7396 83.5045C74.7311 83.3474 74.7909 83.4105 75.0897 83.8787Z" fill="black"/>
<path d="M212.594 156.795C212.798 157.121 211.757 156.711 208.343 155.119C203.046 152.65 202.824 152.559 200.805 151.996C200.446 151.896 200.072 151.781 199.967 151.741C199.795 151.675 199.781 151.657 199.83 151.556C199.924 151.364 200.433 151.47 202.012 152.017C203.977 152.701 204.307 152.827 205.686 153.436C207.288 154.147 212.531 156.691 212.594 156.795Z" fill="black"/>
<path d="M198.351 151.222C198.406 151.283 198.281 151.284 197.813 151.221C195.583 150.918 193.441 150.924 191.764 151.23C191.432 151.295 191.155 151.33 191.15 151.317C191.129 151.255 191.575 151.082 192.039 150.979C193.397 150.676 195.892 150.621 197.304 150.872C197.81 150.959 198.245 151.103 198.351 151.222Z" fill="black"/>
<path d="M80.1254 95.0216C81.9616 97.8687 82.4705 98.6146 84.5694 101.538C85.7436 103.174 85.8848 103.385 85.7841 103.336C85.7291 103.309 84.839 102.264 84.4535 101.777C83.7657 100.91 79.8416 95.3027 79.5443 94.7617C79.3492 94.4063 78.9242 93.4179 78.9465 93.3721C78.9554 93.3538 78.9918 93.3489 79.017 93.3668C79.0491 93.3824 79.5466 94.1284 80.1254 95.0216Z" fill="black"/>
<path d="M83.1502 97.4727C84.0542 98.7562 85.6104 100.969 86.6161 102.392C88.6901 105.332 88.6045 105.206 88.5411 105.243C88.4778 105.28 88.4801 105.287 87.1635 103.536C85.2462 100.984 83.7136 98.8398 82.1586 96.5203C81.3904 95.3764 81.3185 95.2565 81.3998 95.1941C81.4495 95.1616 81.4971 95.1338 81.5016 95.136C81.5108 95.1405 82.2507 96.1913 83.1502 97.4727Z" fill="black"/>
<path d="M79.3183 96.3449C79.709 97.1012 80.2181 98.0795 80.4483 98.5256C80.6971 99.0034 80.8371 99.3207 80.7869 99.3076C80.5586 99.2532 79.5578 97.6564 79.0403 96.5325C78.6788 95.7393 78.4169 94.8813 78.5634 94.9525C78.5817 94.9614 78.9209 95.5908 79.3183 96.3449Z" fill="black"/>
<path d="M182.167 152.447C182.263 152.539 182.36 152.677 182.382 152.75C182.419 152.882 182.417 152.886 182.258 152.945C182.168 152.98 182.1 153.015 182.109 153.031C182.114 153.044 182.241 153.225 182.391 153.429C182.816 154.009 182.824 154.109 182.485 154.33C182.214 154.503 181.038 154.883 180.681 154.908C179.694 154.983 178.939 154.485 178.61 153.544C178.378 152.881 178.509 152.623 179.177 152.415C179.844 152.207 180.48 152.284 181.381 152.677C182.166 153.019 182.263 152.981 181.69 152.566C181.194 152.201 181.027 152.125 180.552 152.03C180.062 151.933 180.007 151.907 180.136 151.85C180.281 151.785 180.718 151.794 181.017 151.866C181.376 151.955 181.948 152.245 182.167 152.447ZM181.033 153.369C180.964 153.511 180.96 153.984 181.029 154.018C181.143 154.074 181.249 153.972 181.401 153.661C181.49 153.477 181.552 153.315 181.547 153.29C181.536 153.267 181.431 153.25 181.31 153.254C181.146 153.254 181.074 153.286 181.033 153.369ZM179.358 152.809C179.063 152.869 178.82 152.938 178.816 152.97C178.801 153.036 179.43 153.756 179.496 153.748C179.526 153.745 179.66 153.516 179.793 153.241C180.001 152.815 180.029 152.733 179.963 152.718C179.922 152.709 179.649 152.746 179.358 152.809Z" fill="black"/>
<path d="M82.9466 105.898C83.5415 106.805 84.9989 108.731 86.0763 110.042C87.149 111.34 87.9928 112.305 91.1109 115.798C91.6733 116.434 92.5331 117.413 93.0241 117.975C95.7515 121.12 97.8722 123.114 103.844 128.131C104.882 128.998 105.694 129.704 105.648 129.693C105.543 129.665 104.334 128.811 103.005 127.819C95.7333 122.391 89.6243 116.027 84.7262 108.78C83.7729 107.365 82.6148 105.533 82.7155 105.582C82.7407 105.599 82.8447 105.735 82.9466 105.898Z" fill="black"/>
<path d="M181.541 155.224C181.181 155.581 180.428 155.651 179.796 155.389C179.591 155.3 179.435 155.225 179.453 155.222C179.535 155.194 181.564 155.071 181.606 155.091C181.638 155.107 181.611 155.15 181.541 155.224Z" fill="black"/>
<path d="M123.152 133.975C122.954 133.986 121.822 133.498 121.104 133.087C119.877 132.387 120.082 132.431 121.718 133.221C122.748 133.722 123.218 133.967 123.152 133.975Z" fill="black"/>
<path d="M122.425 134.969C122.363 134.968 122.039 134.878 121.701 134.77C121.038 134.561 119.674 133.932 119.145 133.589C118.899 133.43 118.865 133.385 118.9 133.312C118.94 133.229 118.998 133.252 120.735 134.102C121.724 134.583 122.484 134.975 122.425 134.969Z" fill="black"/>
<path d="M95.2998 123.063C95.369 123.142 95.929 123.771 96.5466 124.457C97.1642 125.142 97.8923 125.949 98.1642 126.252C98.4362 126.554 99.0975 127.289 99.6344 127.884C100.722 129.093 100.789 129.176 100.514 128.986C100.025 128.652 98.5217 127.099 97.0095 125.367C96.4216 124.69 95.295 123.248 95.1971 123.041C95.1132 122.865 95.1338 122.869 95.2998 123.063Z" fill="black"/>
<path d="M121.088 136.007C120.976 136.156 120.622 136.046 119.482 135.492C118.342 134.938 117.794 134.586 117.515 134.264C117.416 134.142 117.615 134.233 119.27 135.032C121.011 135.873 121.137 135.94 121.088 136.007Z" fill="black"/>
<path d="M129.77 143.435C129.736 143.504 129.743 143.501 127.006 143.705C123.416 143.975 122.32 144.088 117.65 144.683C115.23 144.99 114.227 145.085 114.195 145.002C114.162 144.906 115.014 144.771 119.907 144.104C127.35 143.091 127.826 143.044 129.237 143.238C129.673 143.297 129.812 143.348 129.77 143.435Z" fill="black"/>
<path d="M97.0767 128.498C97.7904 129.44 98.1538 129.996 98.107 130.092C98.0892 130.129 98.053 130.145 98.0255 130.132C97.9248 130.083 96.308 127.739 96.3348 127.684C96.3504 127.652 96.3821 127.634 96.4049 127.645C96.4278 127.656 96.7279 128.04 97.0767 128.498Z" fill="black"/>
<path d="M110.487 145.096C110.497 145.203 110.058 145.29 109.437 145.31C108.634 145.333 107.995 145.26 108.046 145.155C108.062 145.123 110.39 144.981 110.449 145.01C110.468 145.018 110.484 145.055 110.487 145.096Z" fill="black"/>
<path d="M207.192 156.717C207.277 156.821 207.335 156.911 207.315 156.918C207.247 156.942 206.241 156.764 206.177 156.722C206.133 156.683 206.158 156.656 206.301 156.606C206.407 156.573 206.493 156.536 206.498 156.527C206.502 156.517 206.381 156.487 206.231 156.459C205.838 156.381 205.797 156.316 206.106 156.274C206.465 156.222 206.954 156.426 207.192 156.717Z" fill="black"/>
<path d="M208.461 157.787C208.466 157.823 208.441 157.862 208.412 157.876C208.339 157.898 206.747 157.633 206.642 157.582C206.6 157.562 206.586 157.51 206.611 157.459C206.644 157.391 206.785 157.403 207.465 157.529C207.915 157.618 208.321 157.691 208.366 157.701C208.414 157.708 208.456 157.751 208.461 157.787Z" fill="black"/>
</svg>
